<?xml version="1.0" encoding="UTF-8" standalone="no"?>
<!-- Created with Inkscape (http://www.inkscape.org/) -->

<svg
   width="107.87424mm"
   height="60.280548mm"
   viewBox="0 0 107.87425 60.280548"
   version="1.1"
   id="svg8"
   xmlns="http://www.w3.org/2000/svg"
   xmlns:svg="http://www.w3.org/2000/svg"
   xmlns:rdf="http://www.w3.org/1999/02/22-rdf-syntax-ns#"
   xmlns:cc="http://creativecommons.org/ns#"
   xmlns:dc="http://purl.org/dc/elements/1.1/">
  <defs
     id="defs2" />
  <metadata
     id="metadata5">
    <rdf:RDF>
      <cc:Work
         rdf:about="">
        <dc:format>image/svg+xml</dc:format>
        <dc:type
           rdf:resource="http://purl.org/dc/dcmitype/StillImage" />
      </cc:Work>
    </rdf:RDF>
  </metadata>
  <g
     id="layer1"
     transform="translate(-86.720112,-139.20408)"
     style="display:inline">
    <g
       aria-label="A QUEDA · O PECADO Rm 5:12 Rm 3:12 Gn 5:3 Rm 3:23"
       transform="matrix(0.26458333,0,0,0.26458333,-239.73476,-125.87233)"
       style="font-style:normal;font-variant:normal;font-weight:bold;font-stretch:normal;font-size:40px;line-height:1.25;font-family:'Bitstream Charter';-inkscape-font-specification:'Bitstream Charter Bold';letter-spacing:0px;word-spacing:0px;fill:#000000;fill-opacity:1;stroke:none"
       id="flowRoot5943">
      <path
         d="m 1245.2852,1002.2236 -9.04,24.8 -2.4,0.36 v 1.96 h 8.6 v -1.96 l -2.52,-0.28 -0.4,-0.52 2.4,-6.76 h 8.72 l 2.4,6.8 -0.28,0.52 -2.52,0.24 v 1.96 h 10.8 v -1.96 l -2.36,-0.4 -9.2,-24.76 z m 0.88,5.48 3.56,9.88 h -7.04 z"
         id="path7481" />
      <path
         d="m 1290.1014,1029.4236 c 6.44,-1.12 10.64,-6.4 10.64,-13.36 0,-4.56 -1.76,-8.44 -4.88,-11.12 -2.4,-2.08 -5.36,-3.08 -8.96,-3.08 -4.68,0 -8.8,2.24 -11.08,5.76 -1.52,2.4 -2.32,5.16 -2.32,8.28 0,7.32 4.28,12.64 10.96,13.68 0,0.04 0,0.08 0,0.12 0,4.64 2.6,6.76 8.12,6.76 1.88,0 4.04,-0.28 6.6,-0.84 v -2.04 c -1.32,0.32 -2.56,0.48 -3.68,0.48 -3.56,0 -5.28,-1.44 -5.4,-4.64 z m -10.56,-13.64 c 0,-7.12 3.12,-11.32 7.44,-11.32 4.44,0 7.68,4.28 7.68,11.48 0,7.16 -3.12,11.4 -7.4,11.4 -4.4,0 -7.72,-4.32 -7.72,-11.56 z"
         id="path7483" />
      <path
         d="m 1302.8195,1002.5036 v 1.96 l 2.52,0.2 0.56,0.56 v 13.84 c 0,3.08 0.2,5.44 1.76,7.48 1.64,2.08 4.6,3.28 8.56,3.28 7.52,0 10.56,-3.24 10.56,-10.56 v -13.88 l 0.56,-0.68 2.44,-0.24 v -1.96 h -9.08 v 1.96 l 2.56,0.24 0.6,0.68 v 13.48 c 0,5.32 -1.64,7.8 -6.08,7.8 -4.8,0 -6.52,-2.28 -6.52,-7.44 v -14 l 0.56,-0.56 2.48,-0.2 v -1.96 z"
         id="path7485" />
      <path
         d="m 1331.3827,1029.3436 h 21.48 v -7.16 h -2.72 l -0.68,4.24 -0.52,0.64 h -9.28 v -10.4 h 5.2 l 0.56,0.56 0.4,2.88 h 2.36 v -9.28 h -2.36 l -0.4,2.88 -0.56,0.56 h -5.2 v -9.52 h 7.96 l 0.52,0.52 0.6,3.52 h 2.8 v -6.28 h -20.16 v 1.96 l 2.44,0.2 0.64,0.56 v 21.32 l -0.64,0.64 -2.44,0.2 z"
         id="path7487" />
      <path
         d="m 1366.8908,1002.5036 h -11.68 v 1.96 l 2.44,0.2 0.64,0.64 v 21.24 l -0.64,0.64 -2.44,0.2 v 1.96 h 11.68 c 4,0 7,-0.6 9.48,-2.52 3.24,-2.48 4.92,-6.16 4.92,-10.88 0,-8.4 -5.12,-13.44 -14.4,-13.44 z m -3.32,2.24 h 2.32 c 6.36,0 9.44,3.64 9.44,11.16 0,7.52 -3.08,11.2 -9.44,11.2 h -2.32 z"
         id="path7489" />
      <path
         d="m 1393.7227,1002.2236 -9.04,24.8 -2.4,0.36 v 1.96 h 8.6 v -1.96 l -2.52,-0.28 -0.4,-0.52 2.4,-6.76 h 8.72 l 2.4,6.8 -0.28,0.52 -2.52,0.24 v 1.96 h 10.8 v -1.96 l -2.36,-0.4 -9.2,-24.76 z m 0.88,5.48 3.56,9.88 h -7.04 z"
         id="path7491" />
      <path
         d="m 1426.1389,1012.7436 c -1.72,0 -3.12,1.44 -3.12,3.2 0,1.76 1.4,3.16 3.12,3.16 1.76,0 3.2,-1.44 3.2,-3.16 0,-1.76 -1.44,-3.2 -3.2,-3.2 z"
         id="path7493" />
      <path
         d="m 1445.222,1015.7836 c 0,8.52 5.48,14.2 13.76,14.2 3.36,0 6.56,-1.24 9,-3.52 2.8,-2.6 4.28,-6.2 4.28,-10.44 0,-4.52 -1.68,-8.36 -4.76,-11 -2.44,-2.08 -5.36,-3.12 -8.8,-3.12 -3.72,0 -6.84,1.16 -9.36,3.48 -2.72,2.52 -4.12,6.04 -4.12,10.4 z m 13.56,-11.32 c 4.36,0 7.48,4.28 7.48,11.68 0,7.08 -3.16,11.4 -7.56,11.4 -4.28,0 -7.52,-4.32 -7.52,-11.68 0,-7.16 3.16,-11.4 7.6,-11.4 z"
         id="path7495" />
      <path
         d="m 1486.4608,1029.3436 h 11.8 v -1.96 l -2.84,-0.2 -0.6,-0.64 v -7.2 c 1.2,0.08 2.12,0.12 2.72,0.12 6.72,0 10.48,-3.36 10.48,-8.88 0,-5.76 -3.52,-8.08 -10.92,-8.08 h -10.8 v 1.96 l 2.64,0.2 0.6,0.56 v 21.32 l -0.72,0.64 -2.36,0.2 z m 8.36,-12.28 v -12.24 h 2.08 c 3.64,0 5.6,2.12 5.6,5.92 0,4.24 -2.08,6.4 -6.24,6.4 -0.44,0 -0.92,-0.04 -1.44,-0.08 z"
         id="path7497" />
      <path
         d="m 1509.9764,1029.3436 h 21.48 v -7.16 h -2.72 l -0.68,4.24 -0.52,0.64 h -9.28 v -10.4 h 5.2 l 0.56,0.56 0.4,2.88 h 2.36 v -9.28 h -2.36 l -0.4,2.88 -0.56,0.56 h -5.2 v -9.52 h 7.96 l 0.52,0.52 0.6,3.52 h 2.8 v -6.28 h -20.16 v 1.96 l 2.44,0.2 0.64,0.56 v 21.32 l -0.64,0.64 -2.44,0.2 z"
         id="path7499" />
      <path
         d="m 1556.6845,1028.3836 v -6.88 h -2.88 l -1,4.84 -0.6,0.6 c -0.96,0.24 -1.76,0.36 -2.44,0.36 -5.96,0 -9.6,-4.24 -9.6,-11.4 0,-7.08 3.6,-11.28 9.08,-11.28 1.04,0 2.08,0.2 3.16,0.6 l 0.56,0.68 0.76,4.28 h 2.96 v -6.68 c -2.68,-0.96 -5.4,-1.48 -8.16,-1.48 -4.16,0 -7.56,1.24 -10.08,3.68 -2.72,2.6 -4.16,6.16 -4.16,10.24 0,5.12 2.48,9.6 6.64,12.08 1.96,1.16 4.48,1.8 7.36,1.8 2.92,0 5.72,-0.48 8.4,-1.44 z"
         id="path7501" />
      <path
         d="m 1569.1914,1002.2236 -9.04,24.8 -2.4,0.36 v 1.96 h 8.6 v -1.96 l -2.52,-0.28 -0.4,-0.52 2.4,-6.76 h 8.72 l 2.4,6.8 -0.28,0.52 -2.52,0.24 v 1.96 h 10.8 v -1.96 l -2.36,-0.4 -9.2,-24.76 z m 0.88,5.48 3.56,9.88 h -7.04 z"
         id="path7503" />
      <path
         d="m 1597.047,1002.5036 h -11.68 v 1.96 l 2.44,0.2 0.64,0.64 v 21.24 l -0.64,0.64 -2.44,0.2 v 1.96 h 11.68 c 4,0 7,-0.6 9.48,-2.52 3.24,-2.48 4.92,-6.16 4.92,-10.88 0,-8.4 -5.12,-13.44 -14.4,-13.44 z m -3.32,2.24 h 2.32 c 6.36,0 9.44,3.64 9.44,11.16 0,7.52 -3.08,11.2 -9.44,11.2 h -2.32 z"
         id="path7505" />
      <path
         d="m 1614.5189,1015.7836 c 0,8.52 5.48,14.2 13.76,14.2 3.36,0 6.56,-1.24 9,-3.52 2.8,-2.6 4.28,-6.2 4.28,-10.44 0,-4.52 -1.68,-8.36 -4.76,-11 -2.44,-2.08 -5.36,-3.12 -8.8,-3.12 -3.72,0 -6.84,1.16 -9.36,3.48 -2.72,2.52 -4.12,6.04 -4.12,10.4 z m 13.56,-11.32 c 4.36,0 7.48,4.28 7.48,11.68 0,7.08 -3.16,11.4 -7.56,11.4 -4.28,0 -7.52,-4.32 -7.52,-11.68 0,-7.16 3.16,-11.4 7.6,-11.4 z"
         id="path7507" />
      <path
         d="m 1235.2772,1057.8716 v 1.568 l 1.888,0.16 0.512,0.448 v 17.056 l -0.512,0.512 -1.888,0.16 v 1.568 h 9.024 v -1.568 l -1.952,-0.16 -0.512,-0.512 v -7.2 c 0.192,0 0.384,0 0.544,0 3.232,0 4.064,1.376 5.056,4.416 0.512,1.536 0.8,2.976 2.464,4.256 0.768,0.608 1.952,0.992 3.328,0.992 0.992,0 2.08,-0.096 3.2,-0.256 v -1.536 c -0.16,0 -0.288,0 -0.416,0 -2.144,0 -3.104,-0.48 -3.776,-2.24 -0.608,-1.6 -0.864,-3.328 -1.856,-4.736 -0.736,-1.024 -1.824,-1.632 -3.36,-1.984 3.616,-0.672 5.504,-2.528 5.504,-5.472 0,-3.552 -2.56,-5.472 -7.52,-5.472 z m 6.56,1.824 h 1.472 c 3.104,0 4.736,1.472 4.736,4.096 0,2.944 -1.632,4.288 -5.056,4.288 -0.352,0 -0.736,0 -1.152,-0.032 z"
         style="font-style:normal;font-variant:normal;font-weight:bold;font-stretch:normal;font-size:32px;font-family:'Bitstream Charter';-inkscape-font-specification:'Bitstream Charter Bold'"
         id="path7509" />
      <path
         d="m 1271.8172,1065.5836 c -0.864,-1.472 -2.144,-2.24 -3.744,-2.24 -1.408,0 -3.072,0.736 -5.248,2.016 v -1.888 h -1.536 l -4.512,1.504 v 1.28 h 2.08 v 11.04 l -0.448,0.48 -1.632,0.128 v 1.44 h 7.84 v -1.44 l -1.344,-0.128 -0.448,-0.48 v -10.56 c 1.024,-0.384 1.92,-0.576 2.688,-0.576 2.048,0 2.88,1.056 2.88,3.296 v 7.776 l -0.448,0.544 -1.312,0.128 v 1.44 h 7.552 v -1.408 l -1.44,-0.16 -0.448,-0.48 v -10.496 c 1.056,-0.384 1.952,-0.608 2.752,-0.608 2.112,0 2.944,1.056 2.944,3.456 v 7.648 l -0.448,0.48 -1.376,0.128 v 1.44 h 7.872 v -1.44 l -1.696,-0.128 -0.416,-0.48 v -8.576 c 0,-3.552 -1.472,-5.312 -4.448,-5.312 -1.184,0 -3.104,0.704 -5.664,2.176 z"
         style="font-style:normal;font-variant:normal;font-weight:bold;font-stretch:normal;font-size:32px;font-family:'Bitstream Charter';-inkscape-font-specification:'Bitstream Charter Bold'"
         id="path7511" />
      <path
         d="m 1296.7322,1057.8716 v 11.072 c 1.248,-0.288 2.56,-0.448 3.872,-0.448 3.52,0 5.6,1.792 5.6,4.64 0,2.656 -2.016,4.64 -4.608,4.64 -0.512,0 -0.992,-0.032 -1.504,-0.16 l -1.088,-3.616 c -0.448,-0.128 -0.832,-0.224 -1.184,-0.224 -1.44,0 -2.4,0.928 -2.4,2.016 0,2.112 2.272,3.84 5.952,3.84 5.472,0 9.088,-3.168 9.088,-7.456 0,-3.744 -2.816,-6.272 -7.264,-6.272 -1.216,0 -2.464,0.224 -3.872,0.704 v -5.408 h 9.984 v -3.328 z"
         style="font-style:normal;font-variant:normal;font-weight:bold;font-stretch:normal;font-size:32px;font-family:'Bitstream Charter';-inkscape-font-specification:'Bitstream Charter Bold'"
         id="path7513" />
      <path
         d="m 1317.7587,1063.7276 c -1.376,0 -2.496,1.12 -2.496,2.528 0,1.408 1.12,2.528 2.496,2.528 1.376,0 2.496,-1.12 2.496,-2.528 0,-1.408 -1.12,-2.528 -2.496,-2.528 z m 0,10.784 c -1.376,0 -2.496,1.12 -2.496,2.56 0,1.408 1.152,2.528 2.496,2.528 1.376,0 2.496,-1.12 2.496,-2.528 0,-1.44 -1.12,-2.56 -2.496,-2.56 z"
         style="font-style:normal;font-variant:normal;font-weight:bold;font-stretch:normal;font-size:32px;font-family:'Bitstream Charter';-inkscape-font-specification:'Bitstream Charter Bold'"
         id="path7515" />
      <path
         d="m 1333.4977,1057.5516 -6.912,2.336 v 1.632 l 4.544,-0.672 0.288,0.384 v 15.744 l -0.384,0.576 -3.2,0.192 v 1.6 h 11.104 v -1.6 l -3.008,-0.128 -0.352,-0.512 v -19.552 z"
         style="font-style:normal;font-variant:normal;font-weight:bold;font-stretch:normal;font-size:32px;font-family:'Bitstream Charter';-inkscape-font-specification:'Bitstream Charter Bold'"
         id="path7517" />
      <path
         d="m 1347.1962,1076.0796 c 7.104,-4.832 10.816,-8.256 10.816,-12.352 0,-3.712 -2.72,-6.24 -7.008,-6.24 -4.608,0 -7.52,2.24 -7.52,4.896 0,1.344 0.896,2.24 2.304,2.24 0.64,0 1.312,-0.192 2.016,-0.576 v -4.128 c 0.64,-0.256 1.28,-0.384 1.856,-0.384 2.432,0 3.936,1.632 3.936,4.48 0,4 -3.648,7.552 -10.4,12.8 v 2.528 h 15.488 v -6.08 h -1.952 l -0.576,2.816 z"
         style="font-style:normal;font-variant:normal;font-weight:bold;font-stretch:normal;font-size:32px;font-family:'Bitstream Charter';-inkscape-font-specification:'Bitstream Charter Bold'"
         id="path7519" />
      <path
         d="m 1235.2772,1107.8716 v 1.568 l 1.888,0.16 0.512,0.448 v 17.056 l -0.512,0.512 -1.888,0.16 v 1.568 h 9.024 v -1.568 l -1.952,-0.16 -0.512,-0.512 v -7.2 c 0.192,0 0.384,0 0.544,0 3.232,0 4.064,1.376 5.056,4.416 0.512,1.536 0.8,2.976 2.464,4.256 0.768,0.608 1.952,0.992 3.328,0.992 0.992,0 2.08,-0.096 3.2,-0.256 v -1.536 c -0.16,0 -0.288,0 -0.416,0 -2.144,0 -3.104,-0.48 -3.776,-2.24 -0.608,-1.6 -0.864,-3.328 -1.856,-4.736 -0.736,-1.024 -1.824,-1.632 -3.36,-1.984 3.616,-0.672 5.504,-2.528 5.504,-5.472 0,-3.552 -2.56,-5.472 -7.52,-5.472 z m 6.56,1.824 h 1.472 c 3.104,0 4.736,1.472 4.736,4.096 0,2.944 -1.632,4.288 -5.056,4.288 -0.352,0 -0.736,0 -1.152,-0.032 z"
         style="font-style:normal;font-variant:normal;font-weight:bold;font-stretch:normal;font-size:32px;font-family:'Bitstream Charter';-inkscape-font-specification:'Bitstream Charter Bold'"
         id="path7521" />
      <path
         d="m 1271.8172,1115.5836 c -0.864,-1.472 -2.144,-2.24 -3.744,-2.24 -1.408,0 -3.072,0.736 -5.248,2.016 v -1.888 h -1.536 l -4.512,1.504 v 1.28 h 2.08 v 11.04 l -0.448,0.48 -1.632,0.128 v 1.44 h 7.84 v -1.44 l -1.344,-0.128 -0.448,-0.48 v -10.56 c 1.024,-0.384 1.92,-0.576 2.688,-0.576 2.048,0 2.88,1.056 2.88,3.296 v 7.776 l -0.448,0.544 -1.312,0.128 v 1.44 h 7.552 v -1.408 l -1.44,-0.16 -0.448,-0.48 v -10.496 c 1.056,-0.384 1.952,-0.608 2.752,-0.608 2.112,0 2.944,1.056 2.944,3.456 v 7.648 l -0.448,0.48 -1.376,0.128 v 1.44 h 7.872 v -1.44 l -1.696,-0.128 -0.416,-0.48 v -8.576 c 0,-3.552 -1.472,-5.312 -4.448,-5.312 -1.184,0 -3.104,0.704 -5.664,2.176 z"
         style="font-style:normal;font-variant:normal;font-weight:bold;font-stretch:normal;font-size:32px;font-family:'Bitstream Charter';-inkscape-font-specification:'Bitstream Charter Bold'"
         id="path7523" />
      <path
         d="m 1304.3482,1118.0476 c 3.456,-0.8 5.248,-2.592 5.248,-5.12 0,-3.104 -2.688,-5.408 -6.944,-5.408 -4.352,0 -7.136,2.112 -7.136,4.416 0,1.28 0.928,2.208 2.304,2.208 0.672,0 1.184,-0.128 1.696,-0.448 v -3.744 c 0.64,-0.256 1.248,-0.384 1.792,-0.384 2.336,0 3.968,1.568 3.968,3.808 0,2.464 -1.696,3.936 -4.704,3.936 -0.288,0 -0.608,0 -0.928,-0.032 v 2.304 c 0.864,-0.128 1.536,-0.16 1.984,-0.16 2.72,0 4.416,1.6 4.416,3.936 0,2.496 -1.856,4.448 -4.288,4.448 -0.64,0 -1.376,-0.16 -2.208,-0.48 l -1.024,-3.456 c -0.48,-0.16 -0.864,-0.256 -1.248,-0.256 -1.376,0 -2.272,0.832 -2.272,2.08 0,2.112 2.528,4 6.464,4 5.504,0 8.928,-2.912 8.928,-6.528 0,-2.912 -2.144,-4.832 -6.048,-5.12 z"
         style="font-style:normal;font-variant:normal;font-weight:bold;font-stretch:normal;font-size:32px;font-family:'Bitstream Charter';-inkscape-font-specification:'Bitstream Charter Bold'"
         id="path7525" />
      <path
         d="m 1317.7587,1113.7276 c -1.376,0 -2.496,1.12 -2.496,2.528 0,1.408 1.12,2.528 2.496,2.528 1.376,0 2.496,-1.12 2.496,-2.528 0,-1.408 -1.12,-2.528 -2.496,-2.528 z m 0,10.784 c -1.376,0 -2.496,1.12 -2.496,2.56 0,1.408 1.152,2.528 2.496,2.528 1.376,0 2.496,-1.12 2.496,-2.528 0,-1.44 -1.12,-2.56 -2.496,-2.56 z"
         style="font-style:normal;font-variant:normal;font-weight:bold;font-stretch:normal;font-size:32px;font-family:'Bitstream Charter';-inkscape-font-specification:'Bitstream Charter Bold'"
         id="path7527" />
      <path
         d="m 1333.4977,1107.5516 -6.912,2.336 v 1.632 l 4.544,-0.672 0.288,0.384 v 15.744 l -0.384,0.576 -3.2,0.192 v 1.6 h 11.104 v -1.6 l -3.008,-0.128 -0.352,-0.512 v -19.552 z"
         style="font-style:normal;font-variant:normal;font-weight:bold;font-stretch:normal;font-size:32px;font-family:'Bitstream Charter';-inkscape-font-specification:'Bitstream Charter Bold'"
         id="path7529" />
      <path
         d="m 1347.1962,1126.0796 c 7.104,-4.832 10.816,-8.256 10.816,-12.352 0,-3.712 -2.72,-6.24 -7.008,-6.24 -4.608,0 -7.52,2.24 -7.52,4.896 0,1.344 0.896,2.24 2.304,2.24 0.64,0 1.312,-0.192 2.016,-0.576 v -4.128 c 0.64,-0.256 1.28,-0.384 1.856,-0.384 2.432,0 3.936,1.632 3.936,4.48 0,4 -3.648,7.552 -10.4,12.8 v 2.528 h 15.488 v -6.08 h -1.952 l -0.576,2.816 z"
         style="font-style:normal;font-variant:normal;font-weight:bold;font-stretch:normal;font-size:32px;font-family:'Bitstream Charter';-inkscape-font-specification:'Bitstream Charter Bold'"
         id="path7531" />
      <path
         d="m 1247.0212,1168.7836 v 1.568 l 2.368,0.16 0.512,0.448 v 6.528 c -0.832,0.064 -1.44,0.096 -1.76,0.096 -4.928,0 -7.936,-3.36 -7.936,-9.12 0,-5.6 2.944,-8.928 7.712,-8.928 0.928,0 1.792,0.16 2.656,0.512 l 0.48,0.576 0.608,3.392 h 2.336 v -5.44 c -2.368,-0.704 -4.64,-1.056 -6.752,-1.056 -7.104,0 -11.68,4.384 -11.68,10.944 0,6.656 4.544,11.264 11.264,11.264 2.336,0 4.704,-0.448 7.168,-1.312 v -7.456 l 0.512,-0.448 1.856,-0.16 v -1.568 z"
         style="font-style:normal;font-variant:normal;font-weight:bold;font-stretch:normal;font-size:32px;font-family:'Bitstream Charter';-inkscape-font-specification:'Bitstream Charter Bold'"
         id="path7533" />
      <path
         d="m 1258.0272,1179.3436 h 7.904 v -1.44 l -1.408,-0.128 -0.448,-0.48 v -10.56 c 1.216,-0.352 2.24,-0.544 3.04,-0.544 2.016,0 2.88,1.088 2.88,3.456 v 7.648 l -0.448,0.48 -1.376,0.128 v 1.44 h 7.84 v -1.44 l -1.696,-0.128 -0.416,-0.48 v -8.576 c 0,-3.552 -1.408,-5.312 -4.352,-5.312 -1.408,0 -3.2,0.704 -5.472,1.952 v -1.888 h -1.536 l -4.608,1.504 v 1.28 h 2.176 v 11.04 l -0.448,0.48 -1.632,0.128 z"
         style="font-style:normal;font-variant:normal;font-weight:bold;font-stretch:normal;font-size:32px;font-family:'Bitstream Charter';-inkscape-font-specification:'Bitstream Charter Bold'"
         id="path7535" />
      <path
         d="m 1288.7947,1157.8716 v 11.072 c 1.248,-0.288 2.56,-0.448 3.872,-0.448 3.52,0 5.6,1.792 5.6,4.64 0,2.656 -2.016,4.64 -4.608,4.64 -0.512,0 -0.992,-0.032 -1.504,-0.16 l -1.088,-3.616 c -0.448,-0.128 -0.832,-0.224 -1.184,-0.224 -1.44,0 -2.4,0.928 -2.4,2.016 0,2.112 2.272,3.84 5.952,3.84 5.472,0 9.088,-3.168 9.088,-7.456 0,-3.744 -2.816,-6.272 -7.264,-6.272 -1.216,0 -2.464,0.224 -3.872,0.704 v -5.408 h 9.984 v -3.328 z"
         style="font-style:normal;font-variant:normal;font-weight:bold;font-stretch:normal;font-size:32px;font-family:'Bitstream Charter';-inkscape-font-specification:'Bitstream Charter Bold'"
         id="path7537" />
      <path
         d="m 1309.8212,1163.7276 c -1.376,0 -2.496,1.12 -2.496,2.528 0,1.408 1.12,2.528 2.496,2.528 1.376,0 2.496,-1.12 2.496,-2.528 0,-1.408 -1.12,-2.528 -2.496,-2.528 z m 0,10.784 c -1.376,0 -2.496,1.12 -2.496,2.56 0,1.408 1.152,2.528 2.496,2.528 1.376,0 2.496,-1.12 2.496,-2.528 0,-1.44 -1.12,-2.56 -2.496,-2.56 z"
         style="font-style:normal;font-variant:normal;font-weight:bold;font-stretch:normal;font-size:32px;font-family:'Bitstream Charter';-inkscape-font-specification:'Bitstream Charter Bold'"
         id="path7539" />
      <path
         d="m 1325.8482,1168.0476 c 3.456,-0.8 5.248,-2.592 5.248,-5.12 0,-3.104 -2.688,-5.408 -6.944,-5.408 -4.352,0 -7.136,2.112 -7.136,4.416 0,1.28 0.928,2.208 2.304,2.208 0.672,0 1.184,-0.128 1.696,-0.448 v -3.744 c 0.64,-0.256 1.248,-0.384 1.792,-0.384 2.336,0 3.968,1.568 3.968,3.808 0,2.464 -1.696,3.936 -4.704,3.936 -0.288,0 -0.608,0 -0.928,-0.032 v 2.304 c 0.864,-0.128 1.536,-0.16 1.984,-0.16 2.72,0 4.416,1.6 4.416,3.936 0,2.496 -1.856,4.448 -4.288,4.448 -0.64,0 -1.376,-0.16 -2.208,-0.48 l -1.024,-3.456 c -0.48,-0.16 -0.864,-0.256 -1.248,-0.256 -1.376,0 -2.272,0.832 -2.272,2.08 0,2.112 2.528,4 6.464,4 5.504,0 8.928,-2.912 8.928,-6.528 0,-2.912 -2.144,-4.832 -6.048,-5.12 z"
         style="font-style:normal;font-variant:normal;font-weight:bold;font-stretch:normal;font-size:32px;font-family:'Bitstream Charter';-inkscape-font-specification:'Bitstream Charter Bold'"
         id="path7541" />
      <path
         d="m 1235.2772,1207.8716 v 1.568 l 1.888,0.16 0.512,0.448 v 17.056 l -0.512,0.512 -1.888,0.16 v 1.568 h 9.024 v -1.568 l -1.952,-0.16 -0.512,-0.512 v -7.2 c 0.192,0 0.384,0 0.544,0 3.232,0 4.064,1.376 5.056,4.416 0.512,1.536 0.8,2.976 2.464,4.256 0.768,0.608 1.952,0.992 3.328,0.992 0.992,0 2.08,-0.096 3.2,-0.256 v -1.536 c -0.16,0 -0.288,0 -0.416,0 -2.144,0 -3.104,-0.48 -3.776,-2.24 -0.608,-1.6 -0.864,-3.328 -1.856,-4.736 -0.736,-1.024 -1.824,-1.632 -3.36,-1.984 3.616,-0.672 5.504,-2.528 5.504,-5.472 0,-3.552 -2.56,-5.472 -7.52,-5.472 z m 6.56,1.824 h 1.472 c 3.104,0 4.736,1.472 4.736,4.096 0,2.944 -1.632,4.288 -5.056,4.288 -0.352,0 -0.736,0 -1.152,-0.032 z"
         style="font-style:normal;font-variant:normal;font-weight:bold;font-stretch:normal;font-size:32px;font-family:'Bitstream Charter';-inkscape-font-specification:'Bitstream Charter Bold'"
         id="path7543" />
      <path
         d="m 1271.8172,1215.5836 c -0.864,-1.472 -2.144,-2.24 -3.744,-2.24 -1.408,0 -3.072,0.736 -5.248,2.016 v -1.888 h -1.536 l -4.512,1.504 v 1.28 h 2.08 v 11.04 l -0.448,0.48 -1.632,0.128 v 1.44 h 7.84 v -1.44 l -1.344,-0.128 -0.448,-0.48 v -10.56 c 1.024,-0.384 1.92,-0.576 2.688,-0.576 2.048,0 2.88,1.056 2.88,3.296 v 7.776 l -0.448,0.544 -1.312,0.128 v 1.44 h 7.552 v -1.408 l -1.44,-0.16 -0.448,-0.48 v -10.496 c 1.056,-0.384 1.952,-0.608 2.752,-0.608 2.112,0 2.944,1.056 2.944,3.456 v 7.648 l -0.448,0.48 -1.376,0.128 v 1.44 h 7.872 v -1.44 l -1.696,-0.128 -0.416,-0.48 v -8.576 c 0,-3.552 -1.472,-5.312 -4.448,-5.312 -1.184,0 -3.104,0.704 -5.664,2.176 z"
         style="font-style:normal;font-variant:normal;font-weight:bold;font-stretch:normal;font-size:32px;font-family:'Bitstream Charter';-inkscape-font-specification:'Bitstream Charter Bold'"
         id="path7545" />
      <path
         d="m 1304.3482,1218.0476 c 3.456,-0.8 5.248,-2.592 5.248,-5.12 0,-3.104 -2.688,-5.408 -6.944,-5.408 -4.352,0 -7.136,2.112 -7.136,4.416 0,1.28 0.928,2.208 2.304,2.208 0.672,0 1.184,-0.128 1.696,-0.448 v -3.744 c 0.64,-0.256 1.248,-0.384 1.792,-0.384 2.336,0 3.968,1.568 3.968,3.808 0,2.464 -1.696,3.936 -4.704,3.936 -0.288,0 -0.608,0 -0.928,-0.032 v 2.304 c 0.864,-0.128 1.536,-0.16 1.984,-0.16 2.72,0 4.416,1.6 4.416,3.936 0,2.496 -1.856,4.448 -4.288,4.448 -0.64,0 -1.376,-0.16 -2.208,-0.48 l -1.024,-3.456 c -0.48,-0.16 -0.864,-0.256 -1.248,-0.256 -1.376,0 -2.272,0.832 -2.272,2.08 0,2.112 2.528,4 6.464,4 5.504,0 8.928,-2.912 8.928,-6.528 0,-2.912 -2.144,-4.832 -6.048,-5.12 z"
         style="font-style:normal;font-variant:normal;font-weight:bold;font-stretch:normal;font-size:32px;font-family:'Bitstream Charter';-inkscape-font-specification:'Bitstream Charter Bold'"
         id="path7547" />
      <path
         d="m 1317.7587,1213.7276 c -1.376,0 -2.496,1.12 -2.496,2.528 0,1.408 1.12,2.528 2.496,2.528 1.376,0 2.496,-1.12 2.496,-2.528 0,-1.408 -1.12,-2.528 -2.496,-2.528 z m 0,10.784 c -1.376,0 -2.496,1.12 -2.496,2.56 0,1.408 1.152,2.528 2.496,2.528 1.376,0 2.496,-1.12 2.496,-2.528 0,-1.44 -1.12,-2.56 -2.496,-2.56 z"
         style="font-style:normal;font-variant:normal;font-weight:bold;font-stretch:normal;font-size:32px;font-family:'Bitstream Charter';-inkscape-font-specification:'Bitstream Charter Bold'"
         id="path7549" />
      <path
         d="m 1328.6337,1226.0796 c 7.104,-4.832 10.816,-8.256 10.816,-12.352 0,-3.712 -2.72,-6.24 -7.008,-6.24 -4.608,0 -7.52,2.24 -7.52,4.896 0,1.344 0.896,2.24 2.304,2.24 0.64,0 1.312,-0.192 2.016,-0.576 v -4.128 c 0.64,-0.256 1.28,-0.384 1.856,-0.384 2.432,0 3.936,1.632 3.936,4.48 0,4 -3.648,7.552 -10.4,12.8 v 2.528 h 15.488 v -6.08 h -1.952 l -0.576,2.816 z"
         style="font-style:normal;font-variant:normal;font-weight:bold;font-stretch:normal;font-size:32px;font-family:'Bitstream Charter';-inkscape-font-specification:'Bitstream Charter Bold'"
         id="path7551" />
      <path
         d="m 1352.3482,1218.0476 c 3.456,-0.8 5.248,-2.592 5.248,-5.12 0,-3.104 -2.688,-5.408 -6.944,-5.408 -4.352,0 -7.136,2.112 -7.136,4.416 0,1.28 0.928,2.208 2.304,2.208 0.672,0 1.184,-0.128 1.696,-0.448 v -3.744 c 0.64,-0.256 1.248,-0.384 1.792,-0.384 2.336,0 3.968,1.568 3.968,3.808 0,2.464 -1.696,3.936 -4.704,3.936 -0.288,0 -0.608,0 -0.928,-0.032 v 2.304 c 0.864,-0.128 1.536,-0.16 1.984,-0.16 2.72,0 4.416,1.6 4.416,3.936 0,2.496 -1.856,4.448 -4.288,4.448 -0.64,0 -1.376,-0.16 -2.208,-0.48 l -1.024,-3.456 c -0.48,-0.16 -0.864,-0.256 -1.248,-0.256 -1.376,0 -2.272,0.832 -2.272,2.08 0,2.112 2.528,4 6.464,4 5.504,0 8.928,-2.912 8.928,-6.528 0,-2.912 -2.144,-4.832 -6.048,-5.12 z"
         style="font-style:normal;font-variant:normal;font-weight:bold;font-stretch:normal;font-size:32px;font-family:'Bitstream Charter';-inkscape-font-specification:'Bitstream Charter Bold'"
         id="path7553" />
    </g>
  </g>
</svg>
