<?xml version="1.0" encoding="UTF-8" standalone="no"?>
<!-- Created with Inkscape (http://www.inkscape.org/) -->

<svg
   width="21.697773mm"
   height="23.340439mm"
   viewBox="0 0 21.697774 23.340439"
   version="1.1"
   id="svg8"
   xmlns="http://www.w3.org/2000/svg"
   xmlns:svg="http://www.w3.org/2000/svg"
   xmlns:rdf="http://www.w3.org/1999/02/22-rdf-syntax-ns#"
   xmlns:cc="http://creativecommons.org/ns#"
   xmlns:dc="http://purl.org/dc/elements/1.1/">
  <defs
     id="defs2" />
  <metadata
     id="metadata5">
    <rdf:RDF>
      <cc:Work
         rdf:about="">
        <dc:format>image/svg+xml</dc:format>
        <dc:type
           rdf:resource="http://purl.org/dc/dcmitype/StillImage" />
      </cc:Work>
    </rdf:RDF>
  </metadata>
  <g
     id="layer1"
     transform="translate(-247.23635,-165.17886)"
     style="display:inline">
    <g
       aria-label="Gn 2:17"
       transform="matrix(0.16563715,0.20632177,-0.20632177,0.16563715,205.15557,-317.36377)"
       style="font-style:normal;font-variant:normal;font-weight:normal;font-stretch:normal;font-size:32px;line-height:1.25;font-family:'Bitstream Charter';-inkscape-font-specification:'Bitstream Charter';letter-spacing:0px;word-spacing:0px;fill:#ffffff;fill-opacity:1;stroke:none"
       id="flowRoot6315">
      <path
         d="m 1538.5706,1016.4716 v 1.312 l 2.272,0.16 0.544,0.448 v 6.656 c -1.248,0.288 -2.336,0.416 -3.264,0.416 -5.024,0 -8.224,-3.616 -8.224,-9.664 0,-5.76 3.072,-9.184 7.968,-9.184 1.28,0 2.464,0.288 3.648,0.832 l 0.448,0.576 0.48,2.912 h 1.792 v -5.088 c -2.112,-0.608 -4.192,-0.928 -6.144,-0.928 -7.072,0 -11.488,4.352 -11.488,11.104 0,4.192 2.08,7.904 5.536,9.856 1.472,0.832 3.36,1.28 5.504,1.28 1.888,0 4.096,-0.384 6.624,-1.12 v -7.648 l 0.544,-0.448 1.76,-0.16 v -1.312 z"
         id="path6588" />
      <path
         d="m 1548.3741,1026.7756 h 7.008 v -1.152 l -1.536,-0.16 -0.544,-0.512 v -10.72 c 1.376,-0.704 2.56,-1.056 3.584,-1.056 2.368,0 3.232,0.96 3.232,3.296 v 8.48 l -0.544,0.512 -1.536,0.16 v 1.152 h 7.008 v -1.152 l -1.728,-0.16 -0.544,-0.512 v -9.024 c 0,-3.2 -1.536,-4.864 -4.32,-4.864 -1.376,0 -3.008,0.736 -5.152,1.92 v -1.76 h -1.216 l -3.712,1.152 v 0.992 h 2.272 v 11.584 l -0.544,0.512 -1.728,0.16 z"
         id="path6590" />
      <path
         d="m 1578.9886,1024.2476 c 7.072,-5.632 10.944,-9.248 10.944,-13.28 0,-3.616 -2.528,-6.048 -6.656,-6.048 -3.968,0 -6.784,2.272 -6.784,4.512 0,1.088 0.672,1.792 1.792,1.792 0.512,0 0.992,-0.16 1.44,-0.48 v -3.424 c 0.96,-0.544 1.888,-0.768 2.848,-0.768 2.656,0 4.256,1.792 4.256,4.832 0,4.192 -4,7.68 -11.008,13.376 v 2.016 h 14.816 v -5.248 h -1.44 l -0.576,2.72 z"
         id="path6592" />
      <path
         d="m 1597.3771,1011.3836 c -1.12,0 -2.016,0.864 -2.016,2.016 0,1.12 0.896,2.048 2.016,2.048 1.12,0 2.048,-0.928 2.048,-2.048 0,-1.152 -0.928,-2.016 -2.048,-2.016 z m 0,11.616 c -1.12,0 -2.016,0.896 -2.016,2.048 0,1.152 0.896,2.016 2.016,2.016 1.12,0 2.048,-0.896 2.048,-2.016 0,-1.152 -0.928,-2.048 -2.048,-2.048 z"
         id="path6594" />
      <path
         d="m 1612.4286,1004.9196 -6.944,2.08 v 1.344 l 5.024,-0.896 v 17.216 l -0.384,0.544 -3.68,0.192 v 1.376 h 10.72 v -1.344 l -3.456,-0.16 -0.384,-0.48 v -19.872 z"
         id="path6596" />
      <path
         d="m 1622.5611,1005.3036 v 5.344 h 1.504 l 0.512,-2.912 h 9.856 l -10.432,20.224 h 2.656 v -0.704 l 10.624,-20.672 v -1.28 z"
         id="path6598" />
    </g>
  </g>
</svg>
