<?xml version="1.0" encoding="UTF-8" standalone="no"?>
<!-- Created with Inkscape (http://www.inkscape.org/) -->

<svg
   width="89.91066mm"
   height="7.6007447mm"
   viewBox="0 0 89.910662 7.6007447"
   version="1.1"
   id="svg8"
   xmlns="http://www.w3.org/2000/svg"
   xmlns:svg="http://www.w3.org/2000/svg"
   xmlns:rdf="http://www.w3.org/1999/02/22-rdf-syntax-ns#"
   xmlns:cc="http://creativecommons.org/ns#"
   xmlns:dc="http://purl.org/dc/elements/1.1/">
  <defs
     id="defs2" />
  <metadata
     id="metadata5">
    <rdf:RDF>
      <cc:Work
         rdf:about="">
        <dc:format>image/svg+xml</dc:format>
        <dc:type
           rdf:resource="http://purl.org/dc/dcmitype/StillImage" />
      </cc:Work>
    </rdf:RDF>
  </metadata>
  <g
     id="layer1"
     transform="translate(-362.8646,-223.59832)"
     style="display:inline">
    <g
       aria-label="1ª MORTE · SHEOL"
       transform="matrix(0.26991281,0,0,0.26991281,-124.76458,-120.09875)"
       style="font-style:normal;font-variant:normal;font-weight:normal;font-stretch:normal;font-size:40px;line-height:1.25;font-family:'Bitstream Charter';-inkscape-font-specification:'Bitstream Charter';letter-spacing:0px;word-spacing:0px;fill:#ffffff;fill-opacity:1;stroke:none"
       id="flowRoot4797">
      <path
         d="m 1815.2974,1273.5633 -8.68,2.6 v 1.68 l 6.28,-1.12 v 21.52 l -0.48,0.68 -4.6,0.24 v 1.72 h 13.4 v -1.68 l -4.32,-0.2 -0.48,-0.6 v -24.84 z"
         id="path7682" />
      <path
         d="m 1835.163,1285.8833 0.36,1.64 h 4.24 v -1 l -1.6,-0.16 -0.52,-0.44 v -8.12 c 0,-2.84 -1.32,-4.04 -4.48,-4.04 -3.76,0 -6.04,1.48 -6.04,3.16 0,0.68 0.24,0.88 0.92,0.88 h 2.08 v -2.36 c 0.8,-0.28 1.52,-0.44 2.28,-0.44 2.16,0 2.76,0.92 2.76,3.16 v 0.88 c -6,1.36 -8.76,2.2 -8.76,5.08 0,2.12 1.44,3.6 3.84,3.6 1.44,0 3,-0.6 4.92,-1.84 z m 0,-0.92 c -1.52,0.8 -2.76,1.24 -3.72,1.24 -1.52,0 -2.4,-0.92 -2.4,-2.28 0,-2.04 1.88,-2.8 6.12,-3.92 z"
         id="path7684" />
      <path
         d="m 1852.6912,1300.8833 h 8.44 v -1.64 l -2.44,-0.32 -0.72,-0.76 v -21.84 l 9.12,24.56 h 1.72 l 9.48,-24.96 v 22.56 l -0.4,0.56 -2.64,0.2 v 1.64 h 9.56 v -1.64 l -2.52,-0.2 -0.48,-0.56 v -22.04 l 0.48,-0.56 2.52,-0.24 v -1.6 h -8.56 v 1.24 l -7.6,19.92 -7.52,-20.08 v -1.08 h -8.48 v 1.6 l 2.64,0.24 0.52,0.56 v 21.72 l -0.72,0.76 -2.4,0.32 z"
         id="path7686" />
      <path
         d="m 1900.7005,1273.3633 c -3.44,0 -6.44,1.2 -8.84,3.52 -2.68,2.6 -4.08,6.2 -4.08,10.56 0,4.36 1.4,8 4.12,10.64 2.32,2.24 5.4,3.44 8.8,3.44 4.64,0 8.64,-2.32 10.88,-6.16 1.36,-2.32 2.04,-4.96 2.04,-7.92 0,-4.36 -1.44,-7.96 -4.12,-10.56 -2.4,-2.32 -5.36,-3.52 -8.8,-3.52 z m 0,2.16 c 5.16,0 8.72,4.48 8.72,11.92 0,7.44 -3.56,11.96 -8.72,11.96 -5.2,0 -8.76,-4.52 -8.76,-11.96 0,-7.52 3.56,-11.92 8.76,-11.92 z"
         id="path7688" />
      <path
         d="m 1916.5993,1274.0433 v 1.6 l 2.28,0.24 0.68,0.56 v 22.04 l -0.68,0.56 -2.28,0.2 v 1.64 h 9.52 v -1.64 l -2.28,-0.2 -0.68,-0.56 v -9.52 c 0.72,-0.04 1.4,-0.08 2,-0.08 3.64,0 5.2,1.04 6.28,4.32 0.84,2.56 1,5.16 2.92,6.84 0.92,0.8 2.24,1.16 4.04,1.16 0.92,0 1.92,-0.12 3.12,-0.36 v -1.52 c -0.12,0 -0.24,0 -0.36,0 -3.04,0 -4.32,-0.48 -5.2,-2.84 -0.72,-1.88 -0.76,-4.08 -1.88,-5.92 -0.8,-1.32 -2.16,-2.16 -4.12,-2.68 4.32,-0.96 6.48,-3.2 6.48,-6.64 0,-4.92 -3.16,-7.2 -9.64,-7.2 z m 6.56,1.84 h 1.92 c 4.96,0 7.36,1.52 7.36,5.68 0,3.96 -2.28,5.52 -7.08,5.52 -0.24,0 -0.96,0 -2.2,-0.04 z"
         id="path7690" />
      <path
         d="m 1941.7787,1274.0433 v 6.16 h 2.2 l 0.56,-3.72 0.56,-0.6 h 6.16 v 22.6 l -0.72,0.56 -2.68,0.2 v 1.64 h 10.44 v -1.64 l -2.68,-0.2 -0.72,-0.56 v -22.6 h 6.16 l 0.56,0.6 0.56,3.72 h 2.2 v -6.16 z"
         id="path7692" />
      <path
         d="m 1966.3649,1300.8833 h 20.6 v -6.52 h -2.08 l -0.68,4.04 -0.56,0.64 h -10.72 v -11.2 h 6.56 l 0.56,0.6 0.4,2.88 h 1.88 v -8.8 h -1.88 l -0.4,2.92 -0.56,0.56 h -6.56 v -10.12 h 9.24 l 0.56,0.6 0.56,3.4 h 2.24 v -5.84 h -19.16 v 1.6 l 2.28,0.24 0.68,0.56 v 22.04 l -0.68,0.56 -2.28,0.2 z"
         id="path7694" />
      <path
         d="m 2004.7455,1284.9233 c -1.4,0 -2.56,1.12 -2.56,2.56 0,1.4 1.16,2.52 2.56,2.52 1.4,0 2.52,-1.12 2.52,-2.52 0,-1.44 -1.12,-2.56 -2.52,-2.56 z"
         id="path7696" />
      <path
         d="m 2041.813,1274.7633 c -2.16,-0.8 -4.4,-1.16 -6.68,-1.16 -5.96,0 -9.88,3.68 -9.88,8.48 0,3.24 2.56,4.8 6.76,6.96 2.6,1.32 4.4,2 4.4,4.56 0,3.52 -2.68,5.84 -6.84,5.84 -1.48,0 -2.92,-0.4 -4.44,-1.16 l -0.4,-0.52 0.4,-4.6 h -2.08 l -1.32,6.36 c 2.24,1.24 4.72,1.84 7.36,1.84 6.4,0 10.84,-3.68 10.84,-8.56 0,-3.4 -2.08,-4.96 -6,-6.8 -3.36,-1.56 -5.28,-2.32 -5.28,-5.24 0,-2.96 2.6,-5.36 6.32,-5.36 1.16,0 2.32,0.24 3.48,0.76 l 0.48,0.72 -0.16,3.96 h 1.76 z"
         style="font-style:italic;font-variant:normal;font-weight:normal;font-stretch:normal;font-family:'Bitstream Charter';-inkscape-font-specification:'Bitstream Charter Italic'"
         id="path7698" />
      <path
         d="m 2046.2174,1274.0433 v 1.52 l 2.6,0.2 0.4,0.6 -4.28,22.2 -0.64,0.56 -2.56,0.24 v 1.52 h 9.72 v -1.52 l -2.56,-0.24 -0.48,-0.56 2.08,-10.8 h 13 l -2.04,10.8 -0.6,0.56 -2.6,0.24 v 1.52 h 9.68 v -1.52 l -2.56,-0.24 -0.4,-0.56 4.24,-22.2 0.64,-0.6 2.64,-0.2 v -1.52 h -9.76 v 1.52 l 2.56,0.2 0.48,0.6 -1.88,9.56 h -13.04 l 1.88,-9.56 0.6,-0.6 2.64,-0.2 v -1.52 z"
         style="font-style:italic;font-variant:normal;font-weight:normal;font-stretch:normal;font-family:'Bitstream Charter';-inkscape-font-specification:'Bitstream Charter Italic'"
         id="path7700" />
      <path
         d="m 2074.893,1274.0433 v 1.52 l 2.56,0.2 0.44,0.6 -4.28,22.2 -0.68,0.56 -2.52,0.24 v 1.52 h 19.36 l 1.28,-6.52 h -1.84 l -1.36,4.04 -0.72,0.64 h -10.2 l 2.16,-11.16 h 6.12 l 0.48,0.56 -0.16,2.88 h 1.64 l 1.68,-8.8 h -1.72 l -0.88,2.92 -0.72,0.56 h -6.08 l 1.96,-10.12 h 8.6 l 0.44,0.6 v 3.4 h 1.92 l 1.12,-5.84 z"
         style="font-style:italic;font-variant:normal;font-weight:normal;font-stretch:normal;font-family:'Bitstream Charter';-inkscape-font-specification:'Bitstream Charter Italic'"
         id="path7702" />
      <path
         d="m 2109.448,1273.6033 c -4.08,0 -8.08,2.04 -10.8,5.64 -2.44,3.2 -3.76,7.12 -3.76,11.28 0,6.36 4.36,10.84 10.56,10.84 4.16,0 8.12,-2.04 10.88,-5.64 2.36,-3.08 3.68,-7.16 3.68,-11.64 0,-3.52 -1.56,-6.64 -4.28,-8.64 -1.6,-1.16 -3.76,-1.84 -6.28,-1.84 z m 6.64,10.52 c 0,3.96 -1.24,7.96 -3.16,10.8 -2.04,3 -4.52,4.52 -7.28,4.52 -4.12,0 -6.92,-3.32 -6.92,-8.68 0,-3.92 1.2,-7.92 3.16,-10.8 2.04,-3 4.56,-4.52 7.28,-4.52 4.16,0 6.92,3.24 6.92,8.68 z"
         style="font-style:italic;font-variant:normal;font-weight:normal;font-stretch:normal;font-family:'Bitstream Charter';-inkscape-font-specification:'Bitstream Charter Italic'"
         id="path7704" />
      <path
         d="m 2124.9674,1274.0433 v 1.52 l 2.6,0.2 0.4,0.6 -4.28,22.2 -0.64,0.6 -2.56,0.2 v 1.52 h 17.84 l 1.4,-7.28 h -1.92 l -1.56,4.8 -0.72,0.64 h -8.48 l 4.4,-22.68 0.64,-0.6 2.6,-0.2 v -1.52 z"
         style="font-style:italic;font-variant:normal;font-weight:normal;font-stretch:normal;font-family:'Bitstream Charter';-inkscape-font-specification:'Bitstream Charter Italic'"
         id="path7706" />
    </g>
  </g>
</svg>
