<?xml version="1.0" encoding="UTF-8" standalone="no"?>
<!-- Created with Inkscape (http://www.inkscape.org/) -->

<svg
   width="21.044085mm"
   height="4.4249401mm"
   viewBox="0 0 21.044085 4.4249401"
   version="1.1"
   id="svg8"
   xmlns="http://www.w3.org/2000/svg"
   xmlns:svg="http://www.w3.org/2000/svg"
   xmlns:rdf="http://www.w3.org/1999/02/22-rdf-syntax-ns#"
   xmlns:cc="http://creativecommons.org/ns#"
   xmlns:dc="http://purl.org/dc/elements/1.1/">
  <defs
     id="defs2" />
  <metadata
     id="metadata5">
    <rdf:RDF>
      <cc:Work
         rdf:about="">
        <dc:format>image/svg+xml</dc:format>
        <dc:type
           rdf:resource="http://purl.org/dc/dcmitype/StillImage" />
      </cc:Work>
    </rdf:RDF>
  </metadata>
  <g
     id="layer1"
     transform="translate(52.578858,-5.3898805)"
     style="display:inline">
    <g
       aria-label="Gn 1:26 "
       transform="matrix(0.15237397,0,0,0.15237397,-123.80376,-122.72365)"
       style="font-style:normal;font-variant:normal;font-weight:normal;font-stretch:normal;font-size:40px;line-height:1.25;font-family:'Bitstream Charter';-inkscape-font-specification:'Bitstream Charter';letter-spacing:0px;word-spacing:0px;fill:#000000;fill-opacity:1;stroke:none"
       id="flowRoot4641">
      <path
         d="m 482.39484,856.46357 v 1.64 l 2.84,0.2 0.68,0.56 v 8.32 c -1.56,0.36 -2.92,0.52 -4.08,0.52 -6.28,0 -10.28,-4.52 -10.28,-12.08 0,-7.2 3.84,-11.48 9.96,-11.48 1.6,0 3.08,0.36 4.56,1.04 l 0.56,0.72 0.6,3.64 h 2.24 v -6.36 c -2.64,-0.76 -5.24,-1.16 -7.68,-1.16 -8.84,0 -14.36,5.44 -14.36,13.88 0,5.24 2.6,9.88 6.92,12.32 1.84,1.04 4.2,1.6 6.88,1.6 2.36,0 5.12,-0.48 8.28,-1.4 v -9.56 l 0.68,-0.56 2.2,-0.2 v -1.64 z"
         id="path7756" />
      <path
         d="m 494.64922,869.34357 h 8.76 v -1.44 l -1.92,-0.2 -0.68,-0.64 v -13.4 c 1.72,-0.88 3.2,-1.32 4.48,-1.32 2.96,0 4.04,1.2 4.04,4.12 v 10.6 l -0.68,0.64 -1.92,0.2 v 1.44 h 8.76 v -1.44 l -2.16,-0.2 -0.68,-0.64 v -11.28 c 0,-4 -1.92,-6.08 -5.4,-6.08 -1.72,0 -3.76,0.92 -6.44,2.4 v -2.2 h -1.52 l -4.64,1.44 v 1.24 h 2.84 v 14.48 l -0.68,0.64 -2.16,0.2 z"
         id="path7758" />
      <path
         d="m 539.71734,842.02357 -8.68,2.6 v 1.68 l 6.28,-1.12 v 21.52 l -0.48,0.68 -4.6,0.24 v 1.72 h 13.4 v -1.68 l -4.32,-0.2 -0.48,-0.6 v -24.84 z"
         id="path7760" />
      <path
         d="m 555.90297,850.10357 c -1.4,0 -2.52,1.08 -2.52,2.52 0,1.4 1.12,2.56 2.52,2.56 1.4,0 2.56,-1.16 2.56,-2.56 0,-1.44 -1.16,-2.52 -2.56,-2.52 z m 0,14.52 c -1.4,0 -2.52,1.12 -2.52,2.56 0,1.44 1.12,2.52 2.52,2.52 1.4,0 2.56,-1.12 2.56,-2.52 0,-1.44 -1.16,-2.56 -2.56,-2.56 z"
         id="path7762" />
      <path
         d="m 567.91734,866.18357 c 8.84,-7.04 13.68,-11.56 13.68,-16.6 0,-4.52 -3.16,-7.56 -8.32,-7.56 -4.96,0 -8.48,2.84 -8.48,5.64 0,1.36 0.84,2.24 2.24,2.24 0.64,0 1.24,-0.2 1.8,-0.6 v -4.28 c 1.2,-0.68 2.36,-0.96 3.56,-0.96 3.32,0 5.32,2.24 5.32,6.04 0,5.24 -5,9.6 -13.76,16.72 v 2.52 h 18.52 v -6.56 h -1.8 l -0.72,3.4 z"
         id="path7764" />
      <path
         d="m 602.26297,840.78357 c -9.8,0.64 -15.72,7.24 -15.72,17.48 0,7.2 3.92,11.56 9.32,11.56 5.48,0 9.68,-4.16 9.68,-9.56 0,-5.08 -3.56,-8.72 -8.32,-8.72 -2.36,0 -4.72,0.84 -6.8,2.44 1.24,-7.12 5.32,-10.88 11.72,-10.88 0.04,0 0.08,0 0.12,0 z m -11.92,14.96 c 1.64,-1.2 3.6,-1.8 5.8,-1.8 3.4,0 5.76,2.56 5.76,6.68 0,4.24 -2.4,7.28 -5.72,7.28 -3.76,0 -5.92,-3.36 -5.92,-9.72 0,-0.76 0,-1.6 0.08,-2.44 z"
         id="path7766" />
    </g>
  </g>
</svg>
