<?xml version="1.0" encoding="UTF-8" standalone="no"?>
<!-- Created with Inkscape (http://www.inkscape.org/) -->

<svg
   width="65.264587mm"
   height="35.24332mm"
   viewBox="0 0 65.264589 35.24332"
   version="1.1"
   id="svg8"
   xmlns="http://www.w3.org/2000/svg"
   xmlns:svg="http://www.w3.org/2000/svg"
   xmlns:rdf="http://www.w3.org/1999/02/22-rdf-syntax-ns#"
   xmlns:cc="http://creativecommons.org/ns#"
   xmlns:dc="http://purl.org/dc/elements/1.1/">
  <defs
     id="defs2" />
  <metadata
     id="metadata5">
    <rdf:RDF>
      <cc:Work
         rdf:about="">
        <dc:format>image/svg+xml</dc:format>
        <dc:type
           rdf:resource="http://purl.org/dc/dcmitype/StillImage" />
      </cc:Work>
    </rdf:RDF>
  </metadata>
  <g
     id="layer1"
     transform="translate(-97.311964,9.7857936)"
     style="display:inline">
    <g
       aria-label="predestinação? * - 1 Tm 2:4 - 2 Pe 3:9 - 1 Pe 1:2 "
       transform="matrix(0.26458333,0,0,0.26458333,-179.95811,-110.29473)"
       style="font-style:normal;font-weight:normal;font-size:29.3333px;line-height:1.25;font-family:sans-serif;letter-spacing:0px;word-spacing:0px;fill:#000000;fill-opacity:1;stroke:none"
       id="flowRoot6261">
      <path
         d="m 1051.8314,400.25781 v 8.50782 h -2.6498 V 386.6224 h 2.6498 v 2.43489 q 0.8307,-1.43229 2.0911,-2.11979 1.2748,-0.70182 3.0365,-0.70182 2.9219,0 4.7409,2.32031 1.8333,2.32031 1.8333,6.10156 0,3.78125 -1.8333,6.10157 -1.819,2.32031 -4.7409,2.32031 -1.7617,0 -3.0365,-0.6875 -1.2604,-0.70183 -2.0911,-2.13412 z m 8.9661,-5.60026 q 0,-2.90755 -1.2031,-4.55469 -1.1888,-1.66145 -3.2799,-1.66145 -2.0912,0 -3.2943,1.66145 -1.1888,1.64714 -1.1888,4.55469 0,2.90755 1.1888,4.56901 1.2031,1.64714 3.2943,1.64714 2.0911,0 3.2799,-1.64714 1.2031,-1.66146 1.2031,-4.56901 z"
         id="path6752" />
      <path
         d="m 1077.1973,389.08594 q -0.444,-0.25781 -0.974,-0.3724 -0.5156,-0.1289 -1.1458,-0.1289 -2.2344,0 -3.4375,1.46093 -1.1888,1.44662 -1.1888,4.16797 v 8.45052 h -2.6498 V 386.6224 h 2.6498 v 2.49218 q 0.8307,-1.46093 2.1627,-2.16276 1.3321,-0.71614 3.237,-0.71614 0.2721,0 0.6016,0.043 0.3294,0.0286 0.7304,0.10026 z"
         id="path6754" />
      <path
         d="m 1093.0814,393.98438 v 1.28906 h -12.1172 q 0.1719,2.72135 1.6328,4.15364 1.4753,1.41797 4.0964,1.41797 1.5182,0 2.9362,-0.37239 1.4323,-0.3724 2.8359,-1.11719 v 2.49219 q -1.418,0.60156 -2.9076,0.91666 -1.4895,0.31511 -3.0221,0.31511 -3.8385,0 -6.0872,-2.23438 -2.2344,-2.23437 -2.2344,-6.04427 0,-3.9388 2.1198,-6.24479 2.1341,-2.32031 5.7435,-2.32031 3.237,0 5.1133,2.09114 1.8906,2.07683 1.8906,5.65756 z m -2.6354,-0.77344 q -0.029,-2.16276 -1.2175,-3.45183 -1.1745,-1.28906 -3.1224,-1.28906 -2.2057,0 -3.5377,1.2461 -1.3177,1.24609 -1.5183,3.50911 z"
         id="path6756" />
      <path
         d="m 1107.9629,389.05729 v -8.67969 h 2.6354 v 22.28646 h -2.6354 v -2.40625 q -0.8307,1.43229 -2.1055,2.13412 -1.2604,0.6875 -3.0364,0.6875 -2.9076,0 -4.7409,-2.32031 -1.819,-2.32032 -1.819,-6.10157 0,-3.78125 1.819,-6.10156 1.8333,-2.32031 4.7409,-2.32031 1.776,0 3.0364,0.70182 1.2748,0.6875 2.1055,2.11979 z m -8.9805,5.60026 q 0,2.90755 1.1888,4.56901 1.2031,1.64714 3.2943,1.64714 2.0911,0 3.2943,-1.64714 1.2031,-1.66146 1.2031,-4.56901 0,-2.90755 -1.2031,-4.55469 -1.2032,-1.66145 -3.2943,-1.66145 -2.0912,0 -3.2943,1.66145 -1.1888,1.64714 -1.1888,4.55469 z"
         id="path6758" />
      <path
         d="m 1129.7481,393.98438 v 1.28906 h -12.1172 q 0.1718,2.72135 1.6328,4.15364 1.4752,1.41797 4.0963,1.41797 1.5183,0 2.9362,-0.37239 1.4323,-0.3724 2.836,-1.11719 v 2.49219 q -1.418,0.60156 -2.9076,0.91666 -1.4896,0.31511 -3.0221,0.31511 -3.8386,0 -6.0873,-2.23438 -2.2343,-2.23437 -2.2343,-6.04427 0,-3.9388 2.1198,-6.24479 2.1341,-2.32031 5.7434,-2.32031 3.237,0 5.1133,2.09114 1.8907,2.07683 1.8907,5.65756 z m -2.6355,-0.77344 q -0.029,-2.16276 -1.2174,-3.45183 -1.1745,-1.28906 -3.1224,-1.28906 -2.2057,0 -3.5378,1.2461 -1.3177,1.24609 -1.5182,3.50911 z"
         id="path6760" />
      <path
         d="m 1144.3001,387.09505 v 2.49219 q -1.1172,-0.57292 -2.3203,-0.85938 -1.2031,-0.28645 -2.4922,-0.28645 -1.9622,0 -2.9505,0.60156 -0.9739,0.60156 -0.9739,1.80469 0,0.91666 0.7018,1.44661 0.7018,0.51563 2.8216,0.98828 l 0.9023,0.20052 q 2.8073,0.60157 3.9818,1.70443 1.1888,1.08854 1.1888,3.05078 0,2.23438 -1.776,3.53776 -1.7617,1.30339 -4.8555,1.30339 -1.2891,0 -2.6927,-0.25781 -1.3893,-0.24349 -2.9362,-0.7448 v -2.72135 q 1.4609,0.75911 2.8789,1.14583 1.418,0.3724 2.8073,0.3724 1.862,0 2.8646,-0.63021 1.0026,-0.64453 1.0026,-1.80469 0,-1.07422 -0.7305,-1.64713 -0.7161,-0.57292 -3.1654,-1.10287 l -0.9166,-0.21484 q -2.4492,-0.51563 -3.5378,-1.57552 -1.0885,-1.07422 -1.0885,-2.9362 0,-2.26302 1.6041,-3.49479 1.6042,-1.23177 4.5547,-1.23177 1.461,0 2.75,0.21484 1.2891,0.21484 2.3776,0.64453 z"
         id="path6762" />
      <path
         d="m 1151.9772,382.06771 v 4.55469 h 5.4284 v 2.04817 h -5.4284 v 8.70834 q 0,1.96224 0.53,2.52083 0.5442,0.55859 2.1914,0.55859 h 2.707 v 2.20573 h -2.707 q -3.0508,0 -4.211,-1.13151 -1.1601,-1.14583 -1.1601,-4.15364 v -8.70834 h -1.9336 v -2.04817 h 1.9336 v -4.55469 z"
         id="path6764" />
      <path
         d="m 1160.8861,386.6224 h 2.6354 v 16.04166 h -2.6354 z m 0,-6.2448 h 2.6354 v 3.33724 h -2.6354 z"
         id="path6766" />
      <path
         d="m 1182.3561,392.98177 v 9.68229 h -2.6354 v -9.59635 q 0,-2.27735 -0.888,-3.40886 -0.888,-1.13151 -2.6641,-1.13151 -2.1341,0 -3.3659,1.36068 -1.2317,1.36068 -1.2317,3.70964 v 9.0664 h -2.6498 V 386.6224 h 2.6498 v 2.49218 q 0.9453,-1.44661 2.22,-2.16276 1.2891,-0.71614 2.9649,-0.71614 2.7643,0 4.1823,1.71875 1.4179,1.70442 1.4179,5.02734 z"
         id="path6768" />
      <path
         d="m 1194.9316,394.60026 q -3.194,0 -4.4257,0.73047 -1.2318,0.73047 -1.2318,2.49219 0,1.40364 0.9167,2.23437 0.9309,0.81641 2.5208,0.81641 2.1914,0 3.5091,-1.54688 1.332,-1.56119 1.332,-4.13932 v -0.58724 z m 5.2566,-1.08854 v 9.15234 h -2.6355 v -2.43489 q -0.9023,1.46093 -2.2487,2.16276 -1.3463,0.6875 -3.2942,0.6875 -2.4636,0 -3.9245,-1.375 -1.4466,-1.38933 -1.4466,-3.70964 0,-2.70703 1.8047,-4.08203 1.819,-1.375 5.414,-1.375 h 3.6953 v -0.25781 q 0,-1.81901 -1.2031,-2.80729 -1.1888,-1.00261 -3.3516,-1.00261 -1.375,0 -2.6783,0.32943 -1.3034,0.32943 -2.5065,0.98828 v -2.4349 q 1.4466,-0.55859 2.8072,-0.83072 1.3607,-0.28646 2.6498,-0.28646 3.4805,0 5.1992,1.80468 1.7188,1.80469 1.7188,5.47136 z"
         id="path6770" />
      <path
         d="m 1217.1751,387.23828 v 2.46354 q -1.1171,-0.61588 -2.2487,-0.91666 -1.1171,-0.31511 -2.263,-0.31511 -2.5638,0 -3.9817,1.63281 -1.418,1.61849 -1.418,4.55469 0,2.9362 1.418,4.56901 1.4179,1.61849 3.9817,1.61849 1.1459,0 2.263,-0.30078 1.1316,-0.3151 2.2487,-0.93099 v 2.4349 q -1.1028,0.51562 -2.2916,0.77344 -1.1745,0.25781 -2.5065,0.25781 -3.6237,0 -5.7578,-2.27735 -2.1342,-2.27734 -2.1342,-6.14453 0,-3.92448 2.1485,-6.17317 2.1627,-2.2487 5.9153,-2.2487 1.2175,0 2.3776,0.25781 1.1602,0.24349 2.2487,0.74479 z m -3.7239,15.42578 q 0.7877,0.88802 1.1745,1.63282 0.3867,0.75911 0.3867,1.44661 0,1.27474 -0.8594,1.91927 -0.8594,0.65886 -2.5495,0.65886 -0.6588,0 -1.289,-0.0859 -0.6159,-0.0859 -1.2318,-0.25781 v -1.87631 q 0.487,0.24349 1.0169,0.34375 0.53,0.11459 1.2031,0.11459 0.8451,0 1.2748,-0.34375 0.4297,-0.34375 0.4297,-1.00261 0,-0.42969 -0.3151,-1.05989 -0.3008,-0.61589 -0.9453,-1.48959 z"
         id="path6772" />
      <path
         d="m 1229.0775,394.60026 q -3.194,0 -4.4258,0.73047 -1.2318,0.73047 -1.2318,2.49219 0,1.40364 0.9167,2.23437 0.931,0.81641 2.5208,0.81641 2.1914,0 3.5091,-1.54688 1.3321,-1.56119 1.3321,-4.13932 v -0.58724 z m 5.2565,-1.08854 v 9.15234 h -2.6354 v -2.43489 q -0.9024,1.46093 -2.2487,2.16276 -1.3464,0.6875 -3.2943,0.6875 -2.4635,0 -3.9245,-1.375 -1.4466,-1.38933 -1.4466,-3.70964 0,-2.70703 1.8047,-4.08203 1.819,-1.375 5.4141,-1.375 h 3.6953 v -0.25781 q 0,-1.81901 -1.2031,-2.80729 -1.1888,-1.00261 -3.3516,-1.00261 -1.375,0 -2.6784,0.32943 -1.3034,0.32943 -2.5065,0.98828 v -2.4349 q 1.4466,-0.55859 2.8073,-0.83072 1.3607,-0.28646 2.6497,-0.28646 3.4805,0 5.1992,1.80468 1.7188,1.80469 1.7188,5.47136 z m -6.8607,-10.47005 -0.8164,-0.78776 q -0.3151,-0.28646 -0.5586,-0.41537 -0.2291,-0.14323 -0.4153,-0.14323 -0.5443,0 -0.8021,0.52995 -0.2578,0.51563 -0.2865,1.6901 h -1.7904 q 0.029,-1.93359 0.7592,-2.97916 0.7304,-1.0599 2.0338,-1.0599 0.5443,0 1.0026,0.20052 0.4584,0.20052 0.9883,0.67318 l 0.8164,0.78776 q 0.3151,0.28646 0.5443,0.42969 0.2435,0.1289 0.4297,0.1289 0.5442,0 0.802,-0.51562 0.2579,-0.52995 0.2865,-1.70443 h 1.7904 q -0.029,1.9336 -0.7591,2.99349 -0.7305,1.04557 -2.0339,1.04557 -0.5443,0 -1.0026,-0.20052 -0.4583,-0.20052 -0.9883,-0.67317 z"
         id="path6774" />
      <path
         d="m 1245.9928,388.47005 q -2.1197,0 -3.3515,1.66146 -1.2318,1.64714 -1.2318,4.52604 0,2.87891 1.2175,4.54037 1.2317,1.64713 3.3658,1.64713 2.1055,0 3.3373,-1.66146 1.2318,-1.66145 1.2318,-4.52604 0,-2.85026 -1.2318,-4.51172 -1.2318,-1.67578 -3.3373,-1.67578 z m 0,-2.23437 q 3.4375,0 5.3998,2.23437 1.9622,2.23438 1.9622,6.1875 0,3.9388 -1.9622,6.1875 -1.9623,2.23438 -5.3998,2.23438 -3.4518,0 -5.414,-2.23438 -1.9479,-2.2487 -1.9479,-6.1875 0,-3.95312 1.9479,-6.1875 1.9622,-2.23437 5.414,-2.23437 z"
         id="path6776" />
      <path
         d="m 1260.5449,399.02604 h 2.9076 v 3.63802 h -2.9076 z m 2.8216,-2.10547 h -2.7356 v -2.20573 q 0,-1.44661 0.401,-2.3776 0.4011,-0.93099 1.6901,-2.16276 l 1.2891,-1.27474 q 0.8164,-0.75911 1.1745,-1.43229 0.3724,-0.67318 0.3724,-1.375 0,-1.27474 -0.9454,-2.0625 -0.9309,-0.78776 -2.4778,-0.78776 -1.1315,0 -2.4206,0.5013 -1.2747,0.5013 -2.6641,1.46094 v -2.69271 q 1.3464,-0.81641 2.7214,-1.21745 1.3893,-0.40104 2.8646,-0.40104 2.6354,0 4.2252,1.38932 1.6042,1.38933 1.6042,3.66667 0,1.08854 -0.5156,2.07682 -0.5156,0.97396 -1.8047,2.20573 l -1.2604,1.23177 q -0.6732,0.67318 -0.9597,1.0599 -0.2721,0.37239 -0.3867,0.73047 -0.086,0.30078 -0.1289,0.73047 -0.043,0.42968 -0.043,1.17447 z"
         id="path6778" />
      <path
         d="m 1294.6192,385.23307 -4.7266,2.47787 4.7266,2.49219 -1.0886,2.01953 -4.7695,-2.63542 v 4.92708 h -2.4349 v -4.92708 l -4.7839,2.63542 -1.0885,-2.01953 4.7838,-2.49219 -4.7838,-2.47787 1.0885,-2.01953 4.7839,2.60677 v -4.92708 h 2.4349 v 4.92708 l 4.7695,-2.60677 z"
         style="font-style:normal;font-variant:normal;font-weight:bold;font-stretch:normal;font-family:sans-serif;-inkscape-font-specification:'sans-serif Bold';fill:#aa0000"
         id="path6780" />
      <path
         d="m 1047.9499,430.12108 h 7.72 v 2.34896 h -7.72 z"
         id="path6782" />
      <path
         d="m 1070.0931,436.89582 h 4.7266 v -16.3138 l -5.142,1.03125 v -2.63542 l 5.1133,-1.03125 h 2.8932 v 18.94922 h 4.7266 v 2.4349 h -12.3177 z"
         id="path6784" />
      <path
         d="m 1094.3848,417.9466 h 18.0898 v 2.4349 h -7.5911 v 18.94922 h -2.9076 V 420.3815 h -7.5911 z"
         id="path6786" />
      <path
         d="m 1127.6569,426.36848 q 0.9883,-1.77604 2.3633,-2.62109 1.375,-0.84506 3.237,-0.84506 2.5065,0 3.8672,1.76172 1.3606,1.7474 1.3606,4.98438 v 9.68229 h -2.6497 v -9.59635 q 0,-2.30599 -0.8164,-3.42318 -0.8164,-1.11719 -2.4922,-1.11719 -2.0482,0 -3.237,1.36068 -1.1888,1.36067 -1.1888,3.70963 v 9.06641 h -2.6497 v -9.59635 q 0,-2.32032 -0.8164,-3.42318 -0.8164,-1.11719 -2.5209,-1.11719 -2.0195,0 -3.2083,1.375 -1.1888,1.36068 -1.1888,3.69531 v 9.06641 h -2.6497 v -16.04167 h 2.6497 v 2.49219 q 0.9023,-1.47526 2.1628,-2.17708 1.2604,-0.70183 2.9935,-0.70183 1.7473,0 2.9648,0.88802 1.2318,0.88803 1.819,2.57813 z"
         id="path6788" />
      <path
         d="m 1155.959,436.89582 h 10.0976 v 2.4349 h -13.5781 v -2.4349 q 1.6472,-1.70442 4.4831,-4.56901 2.8503,-2.8789 3.5807,-3.70963 1.3893,-1.5612 1.9336,-2.63542 0.5586,-1.08854 0.5586,-2.13411 0,-1.70443 -1.2031,-2.77865 -1.1888,-1.07422 -3.1081,-1.07422 -1.3607,0 -2.8789,0.47266 -1.5039,0.47265 -3.2226,1.43229 v -2.92188 q 1.7473,-0.70182 3.2656,-1.05989 1.5182,-0.35807 2.7786,-0.35807 3.3229,0 5.2995,1.66145 1.9766,1.66146 1.9766,4.44011 0,1.31771 -0.5013,2.50651 -0.487,1.17448 -1.7904,2.77864 -0.3581,0.41537 -2.2773,2.40625 -1.9193,1.97657 -5.4141,5.54297 z"
         id="path6790" />
      <path
         d="m 1172.4447,435.6927 h 3.0221 v 3.63802 h -3.0221 z m 0,-11.52995 h 3.0221 v 3.63802 h -3.0221 z"
         id="path6792" />
      <path
         d="m 1190.0046,420.46744 -7.3047,11.41536 h 7.3047 z m -0.7592,-2.52084 h 3.6381 v 13.9362 h 3.0508 v 2.40625 h -3.0508 v 5.04167 h -2.8789 v -5.04167 h -9.6537 v -2.79297 z"
         id="path6794" />
      <path
         d="m 1047.9499,466.78774 h 7.72 v 2.34896 h -7.72 z"
         id="path6796" />
      <path
         d="m 1072.084,473.56248 h 10.0976 v 2.4349 h -13.5781 v -2.4349 q 1.6472,-1.70443 4.4831,-4.56901 2.8502,-2.87891 3.5807,-3.70964 1.3893,-1.56119 1.9336,-2.63541 0.5586,-1.08854 0.5586,-2.13412 0,-1.70442 -1.2031,-2.77864 -1.1888,-1.07422 -3.1081,-1.07422 -1.3607,0 -2.8789,0.47265 -1.5039,0.47266 -3.2227,1.4323 v -2.92188 q 1.7474,-0.70182 3.2657,-1.05989 1.5182,-0.35808 2.7786,-0.35808 3.3229,0 5.2995,1.66146 1.9766,1.66146 1.9766,4.4401 0,1.31771 -0.5013,2.50652 -0.487,1.17447 -1.7904,2.77864 -0.3581,0.41537 -2.2774,2.40625 -1.9192,1.97656 -5.414,5.54297 z"
         id="path6798" />
      <path
         d="m 1100.2428,456.99087 v 8.03515 h 3.6381 q 2.0195,0 3.1224,-1.04557 1.1028,-1.04557 1.1028,-2.97917 0,-1.91927 -1.1028,-2.96484 -1.1029,-1.04557 -3.1224,-1.04557 z m -2.8932,-2.37761 h 6.5313 q 3.595,0 5.4283,1.63281 1.8477,1.61849 1.8477,4.75521 0,3.16537 -1.8477,4.78386 -1.8333,1.61849 -5.4283,1.61849 h -3.6381 v 8.59375 h -2.8932 z"
         id="path6800" />
      <path
         d="m 1127.6283,467.31769 v 1.28906 h -12.1172 q 0.1718,2.72136 1.6328,4.15365 1.4752,1.41797 4.0963,1.41797 1.5183,0 2.9362,-0.3724 1.4323,-0.3724 2.836,-1.11719 v 2.49219 q -1.418,0.60156 -2.9076,0.91667 -1.4896,0.3151 -3.0221,0.3151 -3.8386,0 -6.0873,-2.23437 -2.2343,-2.23438 -2.2343,-6.04428 0,-3.9388 2.1198,-6.24479 2.1341,-2.32031 5.7434,-2.32031 3.237,0 5.1133,2.09115 1.8907,2.07682 1.8907,5.65755 z m -2.6355,-0.77344 q -0.029,-2.16276 -1.2174,-3.45182 -1.1745,-1.28906 -3.1224,-1.28906 -2.2057,0 -3.5378,1.24609 -1.3177,1.24609 -1.5182,3.50911 z"
         id="path6802" />
      <path
         d="m 1150.4303,464.46743 q 2.0769,0.44401 3.237,1.84765 1.1745,1.40365 1.1745,3.46615 0,3.16536 -2.1771,4.89844 -2.1771,1.73307 -6.1875,1.73307 -1.3463,0 -2.7786,-0.27213 -1.418,-0.25782 -2.9362,-0.78777 v -2.79296 q 1.2031,0.70182 2.6354,1.05989 1.4323,0.35807 2.9935,0.35807 2.7213,0 4.1393,-1.07421 1.4323,-1.07422 1.4323,-3.1224 0,-1.89062 -1.332,-2.95052 -1.3177,-1.07422 -3.681,-1.07422 h -2.4922 v -2.3776 h 2.6068 q 2.1341,0 3.2656,-0.84506 1.1315,-0.85937 1.1315,-2.46354 0,-1.64713 -1.1745,-2.52083 -1.1601,-0.88802 -3.3372,-0.88802 -1.1888,0 -2.5495,0.25781 -1.3607,0.25781 -2.9935,0.80208 v -2.57812 q 1.6471,-0.45833 3.0794,-0.6875 1.4466,-0.22917 2.7214,-0.22917 3.2943,0 5.2135,1.50391 1.9193,1.48958 1.9193,4.03906 0,1.77604 -1.0169,3.00781 -1.017,1.21745 -2.8933,1.69011 z"
         id="path6804" />
      <path
         d="m 1160.6426,472.35936 h 3.0221 v 3.63802 h -3.0221 z m 0,-11.52995 h 3.0221 v 3.63802 h -3.0221 z"
         id="path6806" />
      <path
         d="m 1170.3392,475.55337 v -2.63542 q 1.0885,0.51562 2.2057,0.78776 1.1172,0.27213 2.1914,0.27213 2.8646,0 4.3685,-1.91927 1.5182,-1.93359 1.7331,-5.85807 -0.8307,1.23177 -2.1055,1.89063 -1.2747,0.65885 -2.8216,0.65885 -3.2083,0 -5.0846,-1.93359 -1.862,-1.94792 -1.862,-5.31381 0,-3.29427 1.9479,-5.28515 1.9479,-1.99089 5.1849,-1.99089 3.7096,0 5.6576,2.85026 1.9622,2.83594 1.9622,8.25 0,5.05599 -2.4063,8.07813 -2.3919,3.00781 -6.4453,3.00781 -1.0885,0 -2.2057,-0.21484 -1.1172,-0.21485 -2.3203,-0.64453 z m 5.7578,-9.06641 q 1.9479,0 3.0794,-1.33203 1.1459,-1.33203 1.1459,-3.65235 0,-2.30599 -1.1459,-3.63802 -1.1315,-1.34635 -3.0794,-1.34635 -1.9479,0 -3.0937,1.34635 -1.1316,1.33203 -1.1316,3.63802 0,2.32032 1.1316,3.65235 1.1458,1.33203 3.0937,1.33203 z"
         id="path6808" />
      <path
         d="m 1047.9499,503.4544 h 7.72 v 2.34896 h -7.72 z"
         id="path6810" />
      <path
         d="m 1070.0931,510.22914 h 4.7266 v -16.31381 l -5.142,1.03125 v -2.63541 l 5.1133,-1.03125 h 2.8932 v 18.94922 h 4.7266 v 2.43489 h -12.3177 z"
         id="path6812" />
      <path
         d="m 1100.2428,493.65752 v 8.03516 h 3.6381 q 2.0195,0 3.1224,-1.04557 1.1028,-1.04558 1.1028,-2.97917 0,-1.91927 -1.1028,-2.96485 -1.1029,-1.04557 -3.1224,-1.04557 z m -2.8932,-2.3776 h 6.5313 q 3.595,0 5.4283,1.63281 1.8477,1.61849 1.8477,4.75521 0,3.16536 -1.8477,4.78385 -1.8333,1.61849 -5.4283,1.61849 h -3.6381 v 8.59375 h -2.8932 z"
         id="path6814" />
      <path
         d="m 1127.6283,503.98434 v 1.28907 h -12.1172 q 0.1718,2.72135 1.6328,4.15364 1.4752,1.41797 4.0963,1.41797 1.5183,0 2.9362,-0.37239 1.4323,-0.3724 2.836,-1.11719 v 2.49219 q -1.418,0.60156 -2.9076,0.91666 -1.4896,0.31511 -3.0221,0.31511 -3.8386,0 -6.0873,-2.23438 -2.2343,-2.23437 -2.2343,-6.04427 0,-3.9388 2.1198,-6.24479 2.1341,-2.32031 5.7434,-2.32031 3.237,0 5.1133,2.09114 1.8907,2.07683 1.8907,5.65755 z m -2.6355,-0.77343 q -0.029,-2.16276 -1.2174,-3.45183 -1.1745,-1.28906 -3.1224,-1.28906 -2.2057,0 -3.5378,1.2461 -1.3177,1.24609 -1.5182,3.50911 z"
         id="path6816" />
      <path
         d="m 1142.166,510.22914 h 4.7266 v -16.31381 l -5.1419,1.03125 v -2.63541 l 5.1132,-1.03125 h 2.8933 v 18.94922 h 4.7265 v 2.43489 h -12.3177 z"
         id="path6818" />
      <path
         d="m 1160.6426,509.02601 h 3.0221 v 3.63802 h -3.0221 z m 0,-11.52995 h 3.0221 v 3.63802 h -3.0221 z"
         id="path6820" />
      <path
         d="m 1172.7454,510.22914 h 10.0977 v 2.43489 h -13.5781 v -2.43489 q 1.6471,-1.70443 4.483,-4.56901 2.8503,-2.87891 3.5808,-3.70964 1.3893,-1.5612 1.9336,-2.63542 0.5586,-1.08854 0.5586,-2.13411 0,-1.70443 -1.2032,-2.77865 -1.1888,-1.07422 -3.108,-1.07422 -1.3607,0 -2.8789,0.47266 -1.5039,0.47266 -3.2227,1.43229 v -2.92187 q 1.7474,-0.70183 3.2656,-1.0599 1.5183,-0.35807 2.7787,-0.35807 3.3229,0 5.2995,1.66146 1.9765,1.66146 1.9765,4.4401 0,1.31771 -0.5013,2.50651 -0.487,1.17448 -1.7903,2.77865 -0.3581,0.41536 -2.2774,2.40625 -1.9193,1.97656 -5.4141,5.54297 z"
         id="path6822" />
    </g>
  </g>
</svg>
