<?xml version="1.0" encoding="UTF-8" standalone="no"?>
<!-- Created with Inkscape (http://www.inkscape.org/) -->

<svg
   width="190.32365mm"
   height="8.1449337mm"
   viewBox="0 0 190.32366 8.1449336"
   version="1.1"
   id="svg8"
   xmlns="http://www.w3.org/2000/svg"
   xmlns:svg="http://www.w3.org/2000/svg"
   xmlns:rdf="http://www.w3.org/1999/02/22-rdf-syntax-ns#"
   xmlns:cc="http://creativecommons.org/ns#"
   xmlns:dc="http://purl.org/dc/elements/1.1/">
  <defs
     id="defs2" />
  <metadata
     id="metadata5">
    <rdf:RDF>
      <cc:Work
         rdf:about="">
        <dc:format>image/svg+xml</dc:format>
        <dc:type
           rdf:resource="http://purl.org/dc/dcmitype/StillImage" />
      </cc:Work>
    </rdf:RDF>
  </metadata>
  <g
     id="layer1"
     transform="translate(167.6057,-312.57223)"
     style="display:inline">
    <g
       aria-label="Ef 4:24 - Criado segundo Deus (falando do espírito)"
       transform="matrix(0.26458333,0,0,0.26458333,-175.90321,-92.811496)"
       style="font-style:normal;font-variant:normal;font-weight:normal;font-stretch:normal;font-size:32px;line-height:1.25;font-family:'Bitstream Charter';-inkscape-font-specification:'Bitstream Charter';letter-spacing:0px;word-spacing:0px;fill:#000000;fill-opacity:1;stroke:none"
       id="flowRoot6357">
      <path
         d="m 31.360687,1555.967 h 16.480001 v -5.216 h -1.664001 l -0.543999,3.232 -0.448,0.512 h -8.576 v -8.96 h 5.247999 l 0.448,0.48 0.32,2.304 h 1.504 v -7.04 h -1.504 l -0.32,2.336 -0.448,0.448 h -5.247999 v -8.096 h 7.391999 l 0.448,0.48 0.448,2.72 h 1.792 v -4.672 h -15.328 v 1.28 l 1.824001,0.192 0.543999,0.448 v 17.632 l -0.543999,0.448 -1.824001,0.16 z"
         id="path6467" />
      <path
         d="m 49.670187,1555.967 h 7.456 v -1.152 l -1.984,-0.16 -0.543999,-0.512 v -11.648 h 4.479999 v -1.504 h -4.448 v -2.336 c 0,-2.688 0.704,-4.352 2.080001,-4.992 l 2.912,1.92 c 0.832,-0.224 1.311999,-0.832 1.311999,-1.6 0,-1.024 -1.024,-1.824 -2.496,-1.824 -3.775999,0 -6.495999,3.168 -6.495999,8.48 0,0.096 0,0.224 0,0.352 l -2.048001,0.48 v 1.024 h 2.048001 v 11.648 l -0.576,0.512 -1.696001,0.16 z"
         id="path6469" />
      <path
         d="m 79.643187,1534.303 -10.911999,13.376 v 2.08 h 10.304 v 7.392 h 2.464 v -7.392 h 3.616 v -2.08 h -3.616 v -13.376 z m -0.607999,3.488 v 9.888 h -7.904001 z"
         id="path6471" />
      <path
         d="m 90.767687,1540.575 c -1.119999,0 -2.015999,0.864 -2.015999,2.016 0,1.12 0.896,2.048 2.015999,2.048 1.12,0 2.048,-0.928 2.048,-2.048 0,-1.152 -0.928,-2.016 -2.048,-2.016 z m 0,11.616 c -1.119999,0 -2.015999,0.896 -2.015999,2.048 0,1.152 0.896,2.016 2.015999,2.016 1.12,0 2.048,-0.896 2.048,-2.016 0,-1.152 -0.928,-2.048 -2.048,-2.048 z"
         id="path6473" />
      <path
         d="m 100.37919,1553.439 c 7.072,-5.632 10.944,-9.248 10.944,-13.28 0,-3.616 -2.528,-6.048 -6.656,-6.048 -3.968,0 -6.784002,2.272 -6.784002,4.512 0,1.088 0.672,1.792 1.792,1.792 0.512002,0 0.992002,-0.16 1.440002,-0.48 v -3.424 c 0.96,-0.544 1.888,-0.768 2.848,-0.768 2.656,0 4.256,1.792 4.256,4.832 0,4.192 -4,7.68 -11.008003,13.376 v 2.016 h 14.816003 v -5.248 h -1.44 l -0.576,2.72 z"
         id="path6475" />
      <path
         d="m 125.45569,1534.303 -10.912,13.376 v 2.08 h 10.304 v 7.392 h 2.464 v -7.392 h 3.616 v -2.08 h -3.616 v -13.376 z m -0.608,3.488 v 9.888 h -7.904 z"
         id="path6477" />
      <path
         d="m 141.87119,1547.199 v 2.144 h 7.2 v -2.144 z"
         id="path6479" />
      <path
         d="m 178.24569,1555.231 v -5.056 h -1.792 l -0.704,3.552 -0.512,0.512 c -0.96,0.288 -1.888,0.416 -2.784,0.416 -5.184,0 -8.352,-3.584 -8.352,-9.664 0,-5.728 3.104,-9.184 7.872,-9.184 1.248,0 2.4,0.288 3.584,0.832 l 0.416,0.576 0.48,2.912 h 1.792 v -4.928 c -2.336,-0.736 -4.448,-1.088 -6.336,-1.088 -6.656,0 -11.104,4.448 -11.104,11.104 0,4.192 2.112,7.904 5.536,9.856 1.472,0.832 3.328,1.28 5.44,1.28 2.144,0 4.352,-0.384 6.464,-1.12 z"
         id="path6481" />
      <path
         d="m 180.63969,1555.967 h 7.712 v -1.152 l -2.24,-0.16 -0.544,-0.512 v -9.152 c 1.312,-1.536 2.432,-2.336 3.488,-2.336 0.672,0 1.216,0.256 1.632,0.768 h 1.024 v -2.752 c -0.672,-0.288 -1.28,-0.416 -1.92,-0.416 -0.256,0 -0.544,0 -0.8,0.064 -1.152,0.928 -2.304,1.952 -3.424,3.104 v -3.008 h -1.216 l -3.712,1.152 v 0.992 h 2.272 v 11.584 l -0.576,0.512 -1.696,0.16 z"
         id="path6483" />
      <path
         d="m 196.85769,1533.311 c -1.024,0 -1.856,0.8 -1.856,1.856 0,1.024 0.832,1.824 1.856,1.824 1.024,0 1.856,-0.8 1.856,-1.824 0,-1.024 -0.832,-1.856 -1.856,-1.856 z m -0.128,7.104 -3.68,1.152 v 0.992 h 2.24 v 11.584 l -0.544,0.512 -1.696,0.16 v 1.152 h 7.2 v -1.152 l -1.728,-0.16 -0.576,-0.512 v -13.728 z"
         id="path6485" />
      <path
         d="m 211.55519,1554.111 0.416,1.856 h 4.512 v -1.152 l -1.696,-0.16 -0.576,-0.512 v -9.28 c 0,-3.232 -1.408,-4.608 -4.768,-4.608 -4.032,0 -6.464,1.664 -6.464,3.616 0,0.768 0.256,0.992 0.992,0.992 h 2.208 v -2.688 c 0.864,-0.352 1.632,-0.512 2.432,-0.512 2.304,0 2.944,1.056 2.944,3.584 v 1.024 c -6.4,1.536 -9.344,2.496 -9.344,5.824 0,2.4 1.568,4.096 4.096,4.096 1.536,0 3.232,-0.704 5.248,-2.08 z m 0,-1.088 c -1.6,0.928 -2.912,1.44 -3.968,1.44 -1.6,0 -2.56,-1.056 -2.56,-2.624 0,-2.336 2.016,-3.2 6.528,-4.448 z"
         id="path6487" />
      <path
         d="m 229.37319,1534.559 v 6.016 c -0.992,-0.224 -1.952,-0.352 -2.848,-0.352 -4.864,0 -8.256,3.424 -8.256,8.544 0,4.48 2.688,7.488 6.176,7.488 1.76,0 3.296,-0.64 4.928,-1.952 v 1.664 h 4.736 v -1.152 l -1.536,-0.16 -0.544,-0.512 v -21.728 h -1.216 l -3.904,1.152 v 0.992 z m 0,18.56 c -1.184,0.736 -2.336,1.12 -3.488,1.12 -2.88,0 -4.8,-2.272 -4.8,-6.016 0,-4 2.24,-6.592 5.472,-6.592 0.768,0 1.728,0.192 2.816,0.512 z"
         id="path6489" />
      <path
         d="m 243.78769,1540.255 c -4.32,0 -7.424,3.232 -7.424,8 0,4.736 3.136,8 7.424,8 4.288,0 7.456,-3.264 7.456,-8 0,-4.736 -3.136,-8 -7.456,-8 z m 0,1.376 c 2.592,0 4.448,2.496 4.448,6.624 0,4.16 -1.856,6.624 -4.448,6.624 -2.56,0 -4.416,-2.496 -4.416,-6.624 0,-4.16 1.824,-6.624 4.416,-6.624 z"
         id="path6491" />
      <path
         d="m 272.31269,1540.959 c -1.088,-0.48 -2.336,-0.704 -3.744,-0.704 -3.648,0 -5.664,1.664 -5.664,4.48 0,2.144 1.408,3.168 4.128,4.384 2.112,0.96 3.264,1.536 3.264,3.2 0,1.504 -1.152,2.592 -3.008,2.592 -0.928,0 -1.824,-0.256 -2.72,-0.768 l -0.384,-2.72 h -1.536 v 4.16 c 1.12,0.416 2.528,0.672 4.16,0.672 3.776,0 5.984,-1.824 5.984,-4.8 0,-1.184 -0.448,-2.144 -1.216,-2.752 -1.056,-0.864 -2.272,-1.312 -3.392,-1.856 -1.792,-0.864 -2.72,-1.536 -2.72,-2.912 0,-1.44 0.96,-2.304 2.656,-2.304 0.768,0 1.536,0.224 2.368,0.672 l 0.256,2.272 h 1.568 z"
         id="path6493" />
      <path
         d="m 288.45319,1552.575 c -1.824,1.216 -3.424,1.856 -5.024,1.856 -3.232,0 -5.376,-2.432 -5.376,-6.528 0,-0.096 0,-0.224 0,-0.352 h 10.368 c 0.032,-0.352 0.032,-0.672 0.032,-0.992 0,-3.936 -2.272,-6.304 -5.76,-6.304 -4.288,0 -7.392,3.296 -7.392,8.128 0,4.704 2.912,7.872 7.136,7.872 2.016,0 4.096,-0.64 6.016,-1.92 z m -2.848,-6.368 h -7.392 c 0.192,-2.72 2.016,-4.512 4.064,-4.512 2.144,0 3.328,1.408 3.328,4 0,0.16 0,0.352 0,0.512 z"
         id="path6495" />
      <path
         d="m 301.61269,1541.151 c -1.216,-0.608 -2.4,-0.896 -3.616,-0.896 -3.776,0 -6.208,2.176 -6.208,5.28 0,2.4 1.504,4.288 3.968,4.832 -1.024,1.216 -1.536,2.208 -1.536,3.04 0,0.512 0.128,0.992 0.32,1.44 -2.176,0.384 -3.456,1.92 -3.456,3.968 0,2.56 2.112,4.128 5.792,4.128 2.432,0 4.64,-0.736 6.336,-2.112 1.248,-1.024 1.92,-2.4 1.92,-3.584 0,-2.368 -1.664,-3.36 -5.44,-3.936 l -3.072,-0.48 c -0.032,-0.352 -0.064,-0.608 -0.064,-0.768 0,-0.512 0.128,-0.992 0.352,-1.44 0.192,0 0.384,0 0.544,0 3.712,0 6.112,-2.144 6.112,-4.992 0,-1.12 -0.288,-2.048 -0.896,-2.976 h 3.52 v -1.504 z m -3.936,0.352 c 1.856,0 3.136,1.504 3.136,3.936 0,2.4 -1.28,3.936 -3.136,3.936 -1.856,0 -3.136,-1.536 -3.136,-3.936 0,-2.464 1.28,-3.936 3.136,-3.936 z m -1.28,13.504 3.104,0.576 c 2.24,0.416 3.264,0.768 3.264,2.496 0,1.792 -1.92,3.392 -4.768,3.392 -2.624,0 -4.352,-1.472 -4.352,-3.328 0,-1.408 0.992,-2.592 2.752,-3.136 z"
         id="path6497" />
      <path
         d="m 311.09869,1540.255 -3.712,1.184 v 0.992 h 2.272 v 8.96 c 0,3.2 1.536,4.896 4.288,4.896 1.568,0 3.264,-0.736 5.184,-2.112 v 1.792 h 4.736 v -1.152 l -1.504,-0.16 -0.576,-0.512 v -13.888 h -1.216 l -3.712,1.184 v 0.992 h 2.272 v 10.848 c -1.312,0.64 -2.528,0.96 -3.712,0.96 -2.144,0 -3.104,-1.088 -3.104,-3.392 v -10.592 z"
         id="path6499" />
      <path
         d="m 325.70219,1555.967 h 7.008 v -1.152 l -1.536,-0.16 -0.544,-0.512 v -10.72 c 1.376,-0.704 2.56,-1.056 3.584,-1.056 2.368,0 3.232,0.96 3.232,3.296 v 8.48 l -0.544,0.512 -1.536,0.16 v 1.152 h 7.008 v -1.152 l -1.728,-0.16 -0.544,-0.512 v -9.024 c 0,-3.2 -1.536,-4.864 -4.32,-4.864 -1.376,0 -3.008,0.736 -5.152,1.92 v -1.76 h -1.216 l -3.712,1.152 v 0.992 h 2.272 v 11.584 l -0.544,0.512 -1.728,0.16 z"
         id="path6501" />
      <path
         d="m 355.18569,1534.559 v 6.016 c -0.992,-0.224 -1.952,-0.352 -2.848,-0.352 -4.864,0 -8.256,3.424 -8.256,8.544 0,4.48 2.688,7.488 6.176,7.488 1.76,0 3.296,-0.64 4.928,-1.952 v 1.664 h 4.736 v -1.152 l -1.536,-0.16 -0.544,-0.512 v -21.728 h -1.216 l -3.904,1.152 v 0.992 z m 0,18.56 c -1.184,0.736 -2.336,1.12 -3.488,1.12 -2.88,0 -4.8,-2.272 -4.8,-6.016 0,-4 2.24,-6.592 5.472,-6.592 0.768,0 1.728,0.192 2.816,0.512 z"
         id="path6503" />
      <path
         d="m 369.60019,1540.255 c -4.32,0 -7.424,3.232 -7.424,8 0,4.736 3.136,8 7.424,8 4.288,0 7.456,-3.264 7.456,-8 0,-4.736 -3.136,-8 -7.456,-8 z m 0,1.376 c 2.592,0 4.448,2.496 4.448,6.624 0,4.16 -1.856,6.624 -4.448,6.624 -2.56,0 -4.416,-2.496 -4.416,-6.624 0,-4.16 1.824,-6.624 4.416,-6.624 z"
         id="path6505" />
      <path
         d="m 396.07719,1534.495 h -7.904 v 1.28 l 1.824,0.192 0.544,0.448 v 17.632 l -0.544,0.448 -1.824,0.16 v 1.312 h 7.904 c 3.2,0 5.632,-0.352 7.808,-1.984 2.624,-1.984 4,-4.96 4,-8.768 0,-6.72 -4.224,-10.72 -11.808,-10.72 z m -2.656,1.472 h 2.528 c 5.856,0 8.704,3.008 8.704,9.248 0,6.208 -2.848,9.28 -8.704,9.28 h -2.528 z"
         id="path6507" />
      <path
         d="m 423.64069,1552.575 c -1.824,1.216 -3.424,1.856 -5.024,1.856 -3.232,0 -5.376,-2.432 -5.376,-6.528 0,-0.096 0,-0.224 0,-0.352 h 10.368 c 0.032,-0.352 0.032,-0.672 0.032,-0.992 0,-3.936 -2.272,-6.304 -5.76,-6.304 -4.288,0 -7.392,3.296 -7.392,8.128 0,4.704 2.912,7.872 7.136,7.872 2.016,0 4.096,-0.64 6.016,-1.92 z m -2.848,-6.368 h -7.392 c 0.192,-2.72 2.016,-4.512 4.064,-4.512 2.144,0 3.328,1.408 3.328,4 0,0.16 0,0.352 0,0.512 z"
         id="path6509" />
      <path
         d="m 429.53619,1540.255 -3.712,1.184 v 0.992 h 2.272 v 8.96 c 0,3.2 1.536,4.896 4.288,4.896 1.568,0 3.264,-0.736 5.184,-2.112 v 1.792 h 4.736 v -1.152 l -1.504,-0.16 -0.576,-0.512 v -13.888 h -1.216 l -3.712,1.184 v 0.992 h 2.272 v 10.848 c -1.312,0.64 -2.528,0.96 -3.712,0.96 -2.144,0 -3.104,-1.088 -3.104,-3.392 v -10.592 z"
         id="path6511" />
      <path
         d="m 454.18769,1540.959 c -1.088,-0.48 -2.336,-0.704 -3.744,-0.704 -3.648,0 -5.664,1.664 -5.664,4.48 0,2.144 1.408,3.168 4.128,4.384 2.112,0.96 3.264,1.536 3.264,3.2 0,1.504 -1.152,2.592 -3.008,2.592 -0.928,0 -1.824,-0.256 -2.72,-0.768 l -0.384,-2.72 h -1.536 v 4.16 c 1.12,0.416 2.528,0.672 4.16,0.672 3.776,0 5.984,-1.824 5.984,-4.8 0,-1.184 -0.448,-2.144 -1.216,-2.752 -1.056,-0.864 -2.272,-1.312 -3.392,-1.856 -1.792,-0.864 -2.72,-1.536 -2.72,-2.912 0,-1.44 0.96,-2.304 2.656,-2.304 0.768,0 1.536,0.224 2.368,0.672 l 0.256,2.272 h 1.568 z"
         id="path6513" />
      <path
         d="m 477.21919,1532.991 c -5.696,0.704 -8.96,5.536 -8.96,13.856 0,8.192 3.392,13.024 8.96,13.664 v -1.344 c -4.288,-0.736 -6.24,-4.768 -6.24,-12.288 0,-7.68 1.856,-11.776 6.24,-12.544 z"
         id="path6515" />
      <path
         d="m 479.17019,1555.967 h 7.456 v -1.152 l -1.984,-0.16 -0.544,-0.512 v -11.648 h 4.48 v -1.504 h -4.448 v -2.336 c 0,-2.688 0.704,-4.352 2.08,-4.992 l 2.912,1.92 c 0.832,-0.224 1.312,-0.832 1.312,-1.6 0,-1.024 -1.024,-1.824 -2.496,-1.824 -3.776,0 -6.496,3.168 -6.496,8.48 0,0.096 0,0.224 0,0.352 l -2.048,0.48 v 1.024 h 2.048 v 11.648 l -0.576,0.512 -1.696,0.16 z"
         id="path6517" />
      <path
         d="m 499.18019,1554.111 0.416,1.856 h 4.512 v -1.152 l -1.696,-0.16 -0.576,-0.512 v -9.28 c 0,-3.232 -1.408,-4.608 -4.768,-4.608 -4.032,0 -6.464,1.664 -6.464,3.616 0,0.768 0.256,0.992 0.992,0.992 h 2.208 v -2.688 c 0.864,-0.352 1.632,-0.512 2.432,-0.512 2.304,0 2.944,1.056 2.944,3.584 v 1.024 c -6.4,1.536 -9.344,2.496 -9.344,5.824 0,2.4 1.568,4.096 4.096,4.096 1.536,0 3.232,-0.704 5.248,-2.08 z m 0,-1.088 c -1.6,0.928 -2.912,1.44 -3.968,1.44 -1.6,0 -2.56,-1.056 -2.56,-2.624 0,-2.336 2.016,-3.2 6.528,-4.448 z"
         id="path6519" />
      <path
         d="m 505.63819,1555.967 h 7.488 v -1.152 l -1.824,-0.16 -0.576,-0.512 v -21.728 h -1.216 l -3.904,1.152 v 0.992 h 2.464 v 19.584 l -0.544,0.512 -1.888,0.16 z"
         id="path6521" />
      <path
         d="m 524.43019,1554.111 0.416,1.856 h 4.512 v -1.152 l -1.696,-0.16 -0.576,-0.512 v -9.28 c 0,-3.232 -1.408,-4.608 -4.768,-4.608 -4.032,0 -6.464,1.664 -6.464,3.616 0,0.768 0.256,0.992 0.992,0.992 h 2.208 v -2.688 c 0.864,-0.352 1.632,-0.512 2.432,-0.512 2.304,0 2.944,1.056 2.944,3.584 v 1.024 c -6.4,1.536 -9.344,2.496 -9.344,5.824 0,2.4 1.568,4.096 4.096,4.096 1.536,0 3.232,-0.704 5.248,-2.08 z m 0,-1.088 c -1.6,0.928 -2.912,1.44 -3.968,1.44 -1.6,0 -2.56,-1.056 -2.56,-2.624 0,-2.336 2.016,-3.2 6.528,-4.448 z"
         id="path6523" />
      <path
         d="m 530.95219,1555.967 h 7.008 v -1.152 l -1.536,-0.16 -0.544,-0.512 v -10.72 c 1.376,-0.704 2.56,-1.056 3.584,-1.056 2.368,0 3.232,0.96 3.232,3.296 v 8.48 l -0.544,0.512 -1.536,0.16 v 1.152 h 7.008 v -1.152 l -1.728,-0.16 -0.544,-0.512 v -9.024 c 0,-3.2 -1.536,-4.864 -4.32,-4.864 -1.376,0 -3.008,0.736 -5.152,1.92 v -1.76 h -1.216 l -3.712,1.152 v 0.992 h 2.272 v 11.584 l -0.544,0.512 -1.728,0.16 z"
         id="path6525" />
      <path
         d="m 560.43569,1534.559 v 6.016 c -0.992,-0.224 -1.952,-0.352 -2.848,-0.352 -4.864,0 -8.256,3.424 -8.256,8.544 0,4.48 2.688,7.488 6.176,7.488 1.76,0 3.296,-0.64 4.928,-1.952 v 1.664 h 4.736 v -1.152 l -1.536,-0.16 -0.544,-0.512 v -21.728 h -1.216 l -3.904,1.152 v 0.992 z m 0,18.56 c -1.184,0.736 -2.336,1.12 -3.488,1.12 -2.88,0 -4.8,-2.272 -4.8,-6.016 0,-4 2.24,-6.592 5.472,-6.592 0.768,0 1.728,0.192 2.816,0.512 z"
         id="path6527" />
      <path
         d="m 574.85019,1540.255 c -4.32,0 -7.424,3.232 -7.424,8 0,4.736 3.136,8 7.424,8 4.288,0 7.456,-3.264 7.456,-8 0,-4.736 -3.136,-8 -7.456,-8 z m 0,1.376 c 2.592,0 4.448,2.496 4.448,6.624 0,4.16 -1.856,6.624 -4.448,6.624 -2.56,0 -4.416,-2.496 -4.416,-6.624 0,-4.16 1.824,-6.624 4.416,-6.624 z"
         id="path6529" />
      <path
         d="m 604.62319,1534.559 v 6.016 c -0.992,-0.224 -1.952,-0.352 -2.848,-0.352 -4.864,0 -8.256,3.424 -8.256,8.544 0,4.48 2.688,7.488 6.176,7.488 1.76,0 3.296,-0.64 4.928,-1.952 v 1.664 h 4.736 v -1.152 l -1.536,-0.16 -0.544,-0.512 v -21.728 h -1.216 l -3.904,1.152 v 0.992 z m 0,18.56 c -1.184,0.736 -2.336,1.12 -3.488,1.12 -2.88,0 -4.8,-2.272 -4.8,-6.016 0,-4 2.24,-6.592 5.472,-6.592 0.768,0 1.728,0.192 2.816,0.512 z"
         id="path6531" />
      <path
         d="m 619.03769,1540.255 c -4.32,0 -7.424,3.232 -7.424,8 0,4.736 3.136,8 7.424,8 4.288,0 7.456,-3.264 7.456,-8 0,-4.736 -3.136,-8 -7.456,-8 z m 0,1.376 c 2.592,0 4.448,2.496 4.448,6.624 0,4.16 -1.856,6.624 -4.448,6.624 -2.56,0 -4.416,-2.496 -4.416,-6.624 0,-4.16 1.824,-6.624 4.416,-6.624 z"
         id="path6533" />
      <path
         d="m 650.89069,1552.575 c -1.824,1.216 -3.424,1.856 -5.024,1.856 -3.232,0 -5.376,-2.432 -5.376,-6.528 0,-0.096 0,-0.224 0,-0.352 h 10.368 c 0.032,-0.352 0.032,-0.672 0.032,-0.992 0,-3.936 -2.272,-6.304 -5.76,-6.304 -4.288,0 -7.392,3.296 -7.392,8.128 0,4.704 2.912,7.872 7.136,7.872 2.016,0 4.096,-0.64 6.016,-1.92 z m -2.848,-6.368 h -7.392 c 0.192,-2.72 2.016,-4.512 4.064,-4.512 2.144,0 3.328,1.408 3.328,4 0,0.16 0,0.352 0,0.512 z"
         id="path6535" />
      <path
         d="m 663.25019,1540.959 c -1.088,-0.48 -2.336,-0.704 -3.744,-0.704 -3.648,0 -5.664,1.664 -5.664,4.48 0,2.144 1.408,3.168 4.128,4.384 2.112,0.96 3.264,1.536 3.264,3.2 0,1.504 -1.152,2.592 -3.008,2.592 -0.928,0 -1.824,-0.256 -2.72,-0.768 l -0.384,-2.72 h -1.536 v 4.16 c 1.12,0.416 2.528,0.672 4.16,0.672 3.776,0 5.984,-1.824 5.984,-4.8 0,-1.184 -0.448,-2.144 -1.216,-2.752 -1.056,-0.864 -2.272,-1.312 -3.392,-1.856 -1.792,-0.864 -2.72,-1.536 -2.72,-2.912 0,-1.44 0.96,-2.304 2.656,-2.304 0.768,0 1.536,0.224 2.368,0.672 l 0.256,2.272 h 1.568 z"
         id="path6537" />
      <path
         d="m 665.79069,1562.943 h 7.52 v -1.152 l -2.048,-0.16 -0.544,-0.512 v -5.344 c 1.184,0.192 2.176,0.288 2.976,0.288 4.736,0 7.872,-3.264 7.872,-8.32 0,-4.48 -2.624,-7.488 -6.144,-7.488 -1.504,0 -3.008,0.64 -4.704,1.92 v -1.76 h -1.216 l -3.712,1.152 v 0.992 h 2.272 v 18.56 l -0.544,0.512 -1.728,0.16 z m 4.928,-8.832 v -10.752 c 1.216,-0.704 2.272,-1.088 3.36,-1.088 2.784,0 4.672,2.208 4.672,5.888 0,3.936 -2.176,6.464 -5.312,6.464 -0.768,0 -1.664,-0.16 -2.72,-0.512 z"
         id="path6539" />
      <path
         d="m 687.47969,1540.415 -3.68,1.152 v 0.992 h 2.24 v 11.584 l -0.544,0.512 -1.696,0.16 v 1.152 h 7.2 v -1.152 l -1.728,-0.16 -0.544,-0.512 v -13.728 z m 1.568,-8 -3.104,6.08 h 1.6 l 4.672,-6.08 z"
         id="path6541" />
      <path
         d="m 692.57719,1555.967 h 7.712 v -1.152 l -2.24,-0.16 -0.544,-0.512 v -9.152 c 1.312,-1.536 2.432,-2.336 3.488,-2.336 0.672,0 1.216,0.256 1.632,0.768 h 1.024 v -2.752 c -0.672,-0.288 -1.28,-0.416 -1.92,-0.416 -0.256,0 -0.544,0 -0.8,0.064 -1.152,0.928 -2.304,1.952 -3.424,3.104 v -3.008 h -1.216 l -3.712,1.152 v 0.992 h 2.272 v 11.584 l -0.576,0.512 -1.696,0.16 z"
         id="path6543" />
      <path
         d="m 708.79519,1533.311 c -1.024,0 -1.856,0.8 -1.856,1.856 0,1.024 0.832,1.824 1.856,1.824 1.024,0 1.856,-0.8 1.856,-1.824 0,-1.024 -0.832,-1.856 -1.856,-1.856 z m -0.128,7.104 -3.68,1.152 v 0.992 h 2.24 v 11.584 l -0.544,0.512 -1.696,0.16 v 1.152 h 7.2 v -1.152 l -1.728,-0.16 -0.576,-0.512 v -13.728 z"
         id="path6545" />
      <path
         d="m 715.62069,1542.495 v 10.336 c 0,2.272 0.672,3.232 3.328,3.232 1.248,0 2.688,-0.224 4.192,-0.704 v -1.184 c -0.736,0.16 -1.472,0.256 -2.208,0.256 -2.24,0 -2.656,-1.056 -2.656,-3.488 v -8.448 h 4.864 v -1.504 h -4.864 v -3.392 h -1.184 l -1.376,2.976 -2.112,0.928 v 0.992 z"
         id="path6547" />
      <path
         d="m 732.10019,1540.255 c -4.32,0 -7.424,3.232 -7.424,8 0,4.736 3.136,8 7.424,8 4.288,0 7.456,-3.264 7.456,-8 0,-4.736 -3.136,-8 -7.456,-8 z m 0,1.376 c 2.592,0 4.448,2.496 4.448,6.624 0,4.16 -1.856,6.624 -4.448,6.624 -2.56,0 -4.416,-2.496 -4.416,-6.624 0,-4.16 1.824,-6.624 4.416,-6.624 z"
         id="path6549" />
      <path
         d="m 741.73419,1532.991 v 1.344 c 4.384,0.768 6.24,4.864 6.24,12.544 0,7.52 -1.952,11.552 -6.24,12.288 v 1.344 c 5.568,-0.64 8.96,-5.472 8.96,-13.664 0,-8.32 -3.264,-13.152 -8.96,-13.856 z"
         id="path6551" />
    </g>
  </g>
</svg>
