<?xml version="1.0" encoding="UTF-8" standalone="no"?>
<!-- Created with Inkscape (http://www.inkscape.org/) -->

<svg
   width="56.692772mm"
   height="7.8104997mm"
   viewBox="0 0 56.692773 7.8104996"
   version="1.1"
   id="svg8"
   xmlns="http://www.w3.org/2000/svg"
   xmlns:svg="http://www.w3.org/2000/svg"
   xmlns:rdf="http://www.w3.org/1999/02/22-rdf-syntax-ns#"
   xmlns:cc="http://creativecommons.org/ns#"
   xmlns:dc="http://purl.org/dc/elements/1.1/">
  <defs
     id="defs2" />
  <metadata
     id="metadata5">
    <rdf:RDF>
      <cc:Work
         rdf:about="">
        <dc:format>image/svg+xml</dc:format>
        <dc:type
           rdf:resource="http://purl.org/dc/dcmitype/StillImage" />
      </cc:Work>
    </rdf:RDF>
  </metadata>
  <g
     id="layer1"
     transform="translate(-119.49037,55.780158)"
     style="display:inline">
    <g
       aria-label="Rm 8:28-29"
       transform="matrix(0.26458333,0,0,0.26458333,-171.09235,-107.77859)"
       style="font-style:normal;font-variant:normal;font-weight:bold;font-stretch:normal;font-size:40px;line-height:1.25;font-family:'Bitstream Charter';-inkscape-font-specification:'Bitstream Charter Bold';letter-spacing:0px;word-spacing:0px;fill:#000000;fill-opacity:1;stroke:none"
       id="flowRoot6339">
      <path
         d="m 1098.2654,197.08951 v 1.96 l 2.36,0.2 0.64,0.56 v 21.32 l -0.64,0.64 -2.36,0.2 v 1.96 h 11.28 v -1.96 l -2.44,-0.2 -0.64,-0.64 v -9 c 0.24,0 0.48,0 0.68,0 4.04,0 5.08,1.72 6.32,5.52 0.64,1.92 1,3.72 3.08,5.32 0.96,0.76 2.44,1.24 4.16,1.24 1.24,0 2.6,-0.12 4,-0.32 v -1.92 c -0.2,0 -0.36,0 -0.52,0 -2.68,0 -3.88,-0.6 -4.72,-2.8 -0.76,-2 -1.08,-4.16 -2.32,-5.92 -0.92,-1.28 -2.28,-2.04 -4.2,-2.48 4.52,-0.84 6.88,-3.16 6.88,-6.84 0,-4.44 -3.2,-6.84 -9.4,-6.84 z m 8.2,2.28 h 1.84 c 3.88,0 5.92,1.84 5.92,5.12 0,3.68 -2.04,5.36 -6.32,5.36 -0.44,0 -0.92,0 -1.44,-0.04 z"
         id="path6554" />
      <path
         d="m 1143.9404,206.72951 c -1.08,-1.84 -2.68,-2.8 -4.68,-2.8 -1.76,0 -3.84,0.92 -6.56,2.52 v -2.36 h -1.92 l -5.64,1.88 v 1.6 h 2.6 v 13.8 l -0.56,0.6 -2.04,0.16 v 1.8 h 9.8 v -1.8 l -1.68,-0.16 -0.56,-0.6 v -13.2 c 1.28,-0.48 2.4,-0.72 3.36,-0.72 2.56,0 3.6,1.32 3.6,4.12 v 9.72 l -0.56,0.68 -1.64,0.16 v 1.8 h 9.44 v -1.76 l -1.8,-0.2 -0.56,-0.6 v -13.12 c 1.32,-0.48 2.44,-0.76 3.44,-0.76 2.64,0 3.68,1.32 3.68,4.32 v 9.56 l -0.56,0.6 -1.72,0.16 v 1.8 h 9.84 v -1.8 l -2.12,-0.16 -0.52,-0.6 v -10.72 c 0,-4.44 -1.84,-6.64 -5.56,-6.64 -1.48,0 -3.88,0.88 -7.08,2.72 z"
         id="path6556" />
      <path
         d="m 1185.1241,208.76951 c -4.04,-1.6 -6,-3.28 -6,-5.8 0,-2.32 1.6,-4.04 3.84,-4.04 2.52,0 4.24,2 4.24,4.92 0,1.96 -0.72,3.64 -2.08,4.92 z m 1.88,0.92 c 3.12,-1.36 4.72,-3.52 4.72,-6.2 0,-3.96 -3.2,-6.96 -8.36,-6.96 -5.68,0 -9.28,3.08 -9.28,7.64 0,2.84 1.44,4.96 4.24,6.24 -3.52,1.04 -5.4,3.24 -5.4,6.36 0,4.4 3.76,7.76 9.68,7.76 6.44,0 10.2,-3.28 10.2,-7.88 0,-3.36 -1.88,-5.56 -5.8,-6.96 z m -6.88,1.68 c 5.12,2 7.6,3.52 7.6,6.48 0,2.48 -1.88,4.24 -4.76,4.24 -3.04,0 -5.32,-2.4 -5.32,-5.76 0,-1.96 0.8,-3.44 2.48,-4.96 z"
         id="path6558" />
      <path
         d="m 1201.3673,204.40951 c -1.72,0 -3.12,1.4 -3.12,3.16 0,1.76 1.4,3.16 3.12,3.16 1.72,0 3.12,-1.4 3.12,-3.16 0,-1.76 -1.4,-3.16 -3.12,-3.16 z m 0,13.48 c -1.72,0 -3.12,1.4 -3.12,3.2 0,1.76 1.44,3.16 3.12,3.16 1.72,0 3.12,-1.4 3.12,-3.16 0,-1.8 -1.4,-3.2 -3.12,-3.2 z"
         id="path6560" />
      <path
         d="m 1214.961,219.84951 c 8.88,-6.04 13.52,-10.32 13.52,-15.44 0,-4.64 -3.4,-7.8 -8.76,-7.8 -5.76,0 -9.4,2.8 -9.4,6.12 0,1.68 1.12,2.8 2.88,2.8 0.8,0 1.64,-0.24 2.52,-0.72 v -5.16 c 0.8,-0.32 1.6,-0.48 2.32,-0.48 3.04,0 4.92,2.04 4.92,5.6 0,5 -4.56,9.44 -13,16 v 3.16 h 19.36 v -7.6 h -2.44 l -0.72,3.52 z"
         id="path6562" />
      <path
         d="m 1245.1241,208.76951 c -4.04,-1.6 -6,-3.28 -6,-5.8 0,-2.32 1.6,-4.04 3.84,-4.04 2.52,0 4.24,2 4.24,4.92 0,1.96 -0.72,3.64 -2.08,4.92 z m 1.88,0.92 c 3.12,-1.36 4.72,-3.52 4.72,-6.2 0,-3.96 -3.2,-6.96 -8.36,-6.96 -5.68,0 -9.28,3.08 -9.28,7.64 0,2.84 1.44,4.96 4.24,6.24 -3.52,1.04 -5.4,3.24 -5.4,6.36 0,4.4 3.76,7.76 9.68,7.76 6.44,0 10.2,-3.28 10.2,-7.88 0,-3.36 -1.88,-5.56 -5.8,-6.96 z m -6.88,1.68 c 5.12,2 7.6,3.52 7.6,6.48 0,2.48 -1.88,4.24 -4.76,4.24 -3.04,0 -5.32,-2.4 -5.32,-5.76 0,-1.96 0.8,-3.44 2.48,-4.96 z"
         id="path6564" />
      <path
         d="m 1255.8873,212.32951 v 3.92 h 10.16 v -3.92 z"
         id="path6566" />
      <path
         d="m 1274.4141,219.84951 c 8.88,-6.04 13.52,-10.32 13.52,-15.44 0,-4.64 -3.4,-7.8 -8.76,-7.8 -5.76,0 -9.4,2.8 -9.4,6.12 0,1.68 1.12,2.8 2.88,2.8 0.8,0 1.64,-0.24 2.52,-0.72 v -5.16 c 0.8,-0.32 1.6,-0.48 2.32,-0.48 3.04,0 4.92,2.04 4.92,5.6 0,5 -4.56,9.44 -13,16 v 3.16 h 19.36 v -7.6 h -2.44 l -0.72,3.52 z"
         id="path6568" />
      <path
         d="m 1306.8973,211.08951 c -1.24,0.6 -2.36,0.88 -3.48,0.88 -3.6,0 -5.72,-2.28 -5.72,-6.44 0,-4.08 2,-6.56 4.6,-6.56 3,0 5,2.88 5,8.2 0,1.4 -0.16,2.68 -0.4,3.92 z m -11.04,14.96 c 10.72,-3.4 16.68,-10.64 16.68,-18.88 0,-6.48 -3.8,-10.56 -9.68,-10.56 -6.36,0 -10.48,3.96 -10.48,9.76 0,5.12 3.48,8.64 8.16,8.64 1.96,0 3.88,-0.56 5.8,-1.56 -1.48,4.2 -4.68,7.32 -9.76,9.64 l -1.8,0.32 z"
         id="path6570" />
    </g>
  </g>
</svg>
