<?xml version="1.0" encoding="UTF-8" standalone="no"?>
<!-- Created with Inkscape (http://www.inkscape.org/) -->

<svg
   width="42.052212mm"
   height="50.435932mm"
   viewBox="0 0 42.052213 50.435932"
   version="1.1"
   id="svg8"
   xmlns="http://www.w3.org/2000/svg"
   xmlns:svg="http://www.w3.org/2000/svg"
   xmlns:rdf="http://www.w3.org/1999/02/22-rdf-syntax-ns#"
   xmlns:cc="http://creativecommons.org/ns#"
   xmlns:dc="http://purl.org/dc/elements/1.1/">
  <defs
     id="defs2" />
  <metadata
     id="metadata5">
    <rdf:RDF>
      <cc:Work
         rdf:about="">
        <dc:format>image/svg+xml</dc:format>
        <dc:type
           rdf:resource="http://purl.org/dc/dcmitype/StillImage" />
      </cc:Work>
    </rdf:RDF>
  </metadata>
  <g
     id="layer1"
     transform="translate(-407.4533,76.262484)"
     style="display:inline">
    <g
       aria-label="Alma 1Ts 4:7 Rm 6:22 1 Pe 1:5-15 Fp 2:12-16 "
       transform="matrix(0.26458333,0,0,0.26458333,-173.23051,-113.12398)"
       style="font-style:normal;font-variant:normal;font-weight:normal;font-stretch:normal;font-size:32px;line-height:1.25;font-family:'Bitstream Charter';-inkscape-font-specification:'Bitstream Charter';letter-spacing:0px;word-spacing:0px;fill:#000000;fill-opacity:1;stroke:none"
       id="flowRoot6140">
      <path
         d="m 2203.8625,141.27104 -7.232,19.84 -1.92,0.288 v 1.568 h 6.88 v -1.568 l -2.016,-0.224 -0.32,-0.416 1.92,-5.408 h 6.976 l 1.92,5.44 -0.224,0.416 -2.016,0.192 v 1.568 h 8.64 v -1.568 l -1.888,-0.32 -7.36,-19.808 z m 0.704,4.384 2.848,7.904 h -5.632 z"
         style="font-style:normal;font-variant:normal;font-weight:bold;font-stretch:normal;font-family:'Bitstream Charter';-inkscape-font-specification:'Bitstream Charter Bold'"
         id="path7025" />
      <path
         d="m 2216.611,162.96704 h 8.576 v -1.408 l -1.856,-0.192 -0.48,-0.512 v -21.536 h -1.408 l -4.832,1.536 v 1.248 h 2.304 v 18.816 l -0.448,0.448 -1.856,0.192 z"
         style="font-style:normal;font-variant:normal;font-weight:bold;font-stretch:normal;font-family:'Bitstream Charter';-inkscape-font-specification:'Bitstream Charter Bold'"
         id="path7027" />
      <path
         d="m 2241.657,149.20704 c -0.864,-1.472 -2.144,-2.24 -3.744,-2.24 -1.408,0 -3.072,0.736 -5.248,2.016 v -1.888 h -1.536 l -4.512,1.504 v 1.28 h 2.08 v 11.04 l -0.448,0.48 -1.632,0.128 v 1.44 h 7.84 v -1.44 l -1.344,-0.128 -0.448,-0.48 v -10.56 c 1.024,-0.384 1.92,-0.576 2.688,-0.576 2.048,0 2.88,1.056 2.88,3.296 v 7.776 l -0.448,0.544 -1.312,0.128 v 1.44 h 7.552 v -1.408 l -1.44,-0.16 -0.448,-0.48 v -10.496 c 1.056,-0.384 1.952,-0.608 2.752,-0.608 2.112,0 2.944,1.056 2.944,3.456 v 7.648 l -0.448,0.48 -1.376,0.128 v 1.44 h 7.872 v -1.44 l -1.696,-0.128 -0.416,-0.48 v -8.576 c 0,-3.552 -1.472,-5.312 -4.448,-5.312 -1.184,0 -3.104,0.704 -5.664,2.176 z"
         style="font-style:normal;font-variant:normal;font-weight:bold;font-stretch:normal;font-family:'Bitstream Charter';-inkscape-font-specification:'Bitstream Charter Bold'"
         id="path7029" />
      <path
         d="m 2265.1635,161.14304 0.416,1.824 h 5.696 v -1.408 l -1.696,-0.16 -0.416,-0.448 v -8.288 c 0,-4.096 -1.504,-5.664 -5.984,-5.664 -4.224,0 -6.976,1.888 -6.976,3.712 0,0.864 0.512,1.184 1.472,1.184 h 2.944 v -3.008 c 0.576,-0.128 1.056,-0.192 1.536,-0.192 2.112,0 3.04,1.024 3.04,3.328 v 0.96 c -6.688,1.504 -9.728,2.432 -9.728,6.112 0,2.432 1.728,4.16 4.192,4.16 1.728,0 3.456,-0.736 5.504,-2.112 z m 0,-1.312 c -1.248,0.64 -2.272,0.96 -3.104,0.96 -1.472,0 -2.368,-0.928 -2.368,-2.4 0,-2.112 1.696,-2.944 5.472,-3.776 z"
         style="font-style:normal;font-variant:normal;font-weight:bold;font-stretch:normal;font-family:'Bitstream Charter';-inkscape-font-specification:'Bitstream Charter Bold'"
         id="path7031" />
      <path
         d="m 2205.0145,181.11104 -6.944,2.08 v 1.344 l 5.024,-0.896 v 17.216 l -0.384,0.544 -3.68,0.192 v 1.376 h 10.72 v -1.344 l -3.456,-0.16 -0.384,-0.48 v -19.872 z"
         id="path7033" />
      <path
         d="m 2213.387,181.49504 v 4.928 h 1.76 l 0.448,-2.976 0.448,-0.48 h 4.928 v 18.08 l -0.576,0.448 -2.144,0.16 v 1.312 h 8.352 v -1.312 l -2.144,-0.16 -0.576,-0.448 v -18.08 h 4.928 l 0.448,0.48 0.448,2.976 h 1.76 v -4.928 z"
         id="path7035" />
      <path
         d="m 2243.008,187.95904 c -1.088,-0.48 -2.336,-0.704 -3.744,-0.704 -3.648,0 -5.664,1.664 -5.664,4.48 0,2.144 1.408,3.168 4.128,4.384 2.112,0.96 3.264,1.536 3.264,3.2 0,1.504 -1.152,2.592 -3.008,2.592 -0.928,0 -1.824,-0.256 -2.72,-0.768 l -0.384,-2.72 h -1.536 v 4.16 c 1.12,0.416 2.528,0.672 4.16,0.672 3.776,0 5.984,-1.824 5.984,-4.8 0,-1.184 -0.448,-2.144 -1.216,-2.752 -1.056,-0.864 -2.272,-1.312 -3.392,-1.856 -1.792,-0.864 -2.72,-1.536 -2.72,-2.912 0,-1.44 0.96,-2.304 2.656,-2.304 0.768,0 1.536,0.224 2.368,0.672 l 0.256,2.272 h 1.568 z"
         id="path7037" />
      <path
         d="m 2265.4635,181.30304 -10.912,13.376 v 2.08 h 10.304 v 7.392 h 2.464 v -7.392 h 3.616 v -2.08 h -3.616 v -13.376 z m -0.608,3.488 v 9.888 h -7.904 z"
         id="path7039" />
      <path
         d="m 2276.588,187.57504 c -1.12,0 -2.016,0.864 -2.016,2.016 0,1.12 0.896,2.048 2.016,2.048 1.12,0 2.048,-0.928 2.048,-2.048 0,-1.152 -0.928,-2.016 -2.048,-2.016 z m 0,11.616 c -1.12,0 -2.016,0.896 -2.016,2.048 0,1.152 0.896,2.016 2.016,2.016 1.12,0 2.048,-0.896 2.048,-2.016 0,-1.152 -0.928,-2.048 -2.048,-2.048 z"
         id="path7041" />
      <path
         d="m 2283.9595,181.49504 v 5.344 h 1.504 l 0.512,-2.912 h 9.856 l -10.432,20.224 h 2.656 v -0.704 l 10.624,-20.672 v -1.28 z"
         id="path7043" />
      <path
         d="m 2196.1185,221.49504 v 1.28 l 1.824,0.192 0.544,0.448 v 17.632 l -0.544,0.448 -1.824,0.16 v 1.312 h 7.616 v -1.312 l -1.824,-0.16 -0.544,-0.448 v -7.616 c 0.576,-0.032 1.12,-0.064 1.6,-0.064 2.912,0 4.16,0.832 5.024,3.456 0.672,2.048 0.8,4.128 2.336,5.472 0.736,0.64 1.792,0.928 3.232,0.928 0.736,0 1.536,-0.096 2.496,-0.288 v -1.216 c -0.096,0 -0.192,0 -0.288,0 -2.432,0 -3.456,-0.384 -4.16,-2.272 -0.576,-1.504 -0.608,-3.264 -1.504,-4.736 -0.64,-1.056 -1.728,-1.728 -3.296,-2.144 3.456,-0.768 5.184,-2.56 5.184,-5.312 0,-3.936 -2.528,-5.76 -7.712,-5.76 z m 5.248,1.472 h 1.536 c 3.968,0 5.888,1.216 5.888,4.544 0,3.168 -1.824,4.416 -5.664,4.416 -0.192,0 -0.768,0 -1.76,-0.032 z"
         id="path7045" />
      <path
         d="m 2230.278,229.39904 c -0.736,-1.408 -1.952,-2.144 -3.52,-2.144 -1.344,0 -3.008,0.672 -5.12,1.92 v -1.76 h -1.216 l -3.712,1.152 v 0.992 h 2.272 v 11.584 l -0.544,0.512 -1.728,0.16 v 1.152 h 7.008 v -1.152 l -1.536,-0.16 -0.544,-0.512 v -10.72 c 1.408,-0.704 2.592,-1.056 3.648,-1.056 1.92,0 2.816,1.056 2.816,3.296 v 8.48 l -0.544,0.512 -1.536,0.16 v 1.152 h 6.816 v -1.152 l -1.504,-0.16 -0.576,-0.512 v -10.72 c 1.376,-0.672 2.592,-1.056 3.616,-1.056 1.984,0 2.88,1.056 2.88,3.296 v 8.48 l -0.576,0.512 -1.504,0.16 v 1.152 h 6.976 v -1.152 l -1.696,-0.16 -0.544,-0.512 v -9.024 c 0,-3.168 -1.6,-4.864 -4.128,-4.864 -1.28,0 -3.104,0.736 -5.504,2.144 z"
         id="path7047" />
      <path
         d="m 2265.801,220.11904 c -7.84,0.512 -12.576,5.792 -12.576,13.984 0,5.76 3.136,9.248 7.456,9.248 4.384,0 7.744,-3.328 7.744,-7.648 0,-4.064 -2.848,-6.976 -6.656,-6.976 -1.888,0 -3.776,0.672 -5.44,1.952 0.992,-5.696 4.256,-8.704 9.376,-8.704 0.032,0 0.064,0 0.096,0 z m -9.536,11.968 c 1.312,-0.96 2.88,-1.44 4.64,-1.44 2.72,0 4.608,2.048 4.608,5.344 0,3.392 -1.92,5.824 -4.576,5.824 -3.008,0 -4.736,-2.688 -4.736,-7.776 0,-0.608 0,-1.28 0.064,-1.952 z"
         id="path7049" />
      <path
         d="m 2274.5255,227.57504 c -1.12,0 -2.016,0.864 -2.016,2.016 0,1.12 0.896,2.048 2.016,2.048 1.12,0 2.048,-0.928 2.048,-2.048 0,-1.152 -0.928,-2.016 -2.048,-2.016 z m 0,11.616 c -1.12,0 -2.016,0.896 -2.016,2.048 0,1.152 0.896,2.016 2.016,2.016 1.12,0 2.048,-0.896 2.048,-2.016 0,-1.152 -0.928,-2.048 -2.048,-2.048 z"
         id="path7051" />
      <path
         d="m 2284.137,240.43904 c 7.072,-5.632 10.944,-9.248 10.944,-13.28 0,-3.616 -2.528,-6.048 -6.656,-6.048 -3.968,0 -6.784,2.272 -6.784,4.512 0,1.088 0.672,1.792 1.792,1.792 0.512,0 0.992,-0.16 1.44,-0.48 v -3.424 c 0.96,-0.544 1.888,-0.768 2.848,-0.768 2.656,0 4.256,1.792 4.256,4.832 0,4.192 -4,7.68 -11.008,13.376 v 2.016 h 14.816 v -5.248 h -1.44 l -0.576,2.72 z"
         id="path7053" />
      <path
         d="m 2301.9495,240.43904 c 7.072,-5.632 10.944,-9.248 10.944,-13.28 0,-3.616 -2.528,-6.048 -6.656,-6.048 -3.968,0 -6.784,2.272 -6.784,4.512 0,1.088 0.672,1.792 1.792,1.792 0.512,0 0.992,-0.16 1.44,-0.48 v -3.424 c 0.96,-0.544 1.888,-0.768 2.848,-0.768 2.656,0 4.256,1.792 4.256,4.832 0,4.192 -4,7.68 -11.008,13.376 v 2.016 h 14.816 v -5.248 h -1.44 l -0.576,2.72 z"
         id="path7055" />
      <path
         d="m 2205.0145,261.11104 -6.944,2.08 v 1.344 l 5.024,-0.896 v 17.216 l -0.384,0.544 -3.68,0.192 v 1.376 h 10.72 v -1.344 l -3.456,-0.16 -0.384,-0.48 v -19.872 z"
         id="path7057" />
      <path
         d="m 2222.806,282.96704 h 8.064 v -1.312 l -2.272,-0.16 -0.544,-0.448 v -6.304 c 0.992,0.096 1.792,0.16 2.4,0.16 5.152,0 8.288,-2.784 8.288,-6.88 0,-4.864 -2.752,-6.528 -8.896,-6.528 h -7.296 v 1.28 l 2.08,0.192 0.544,0.448 v 17.632 l -0.544,0.448 -1.824,0.16 z m 5.248,-9.76 v -10.176 c 0.576,-0.064 1.152,-0.064 1.664,-0.064 4.096,0 6.048,1.568 6.048,4.992 0,3.52 -1.952,5.408 -5.6,5.408 -0.48,0 -1.184,-0.064 -2.112,-0.16 z"
         id="path7059" />
      <path
         d="m 2253.961,279.57504 c -1.824,1.216 -3.424,1.856 -5.024,1.856 -3.232,0 -5.376,-2.432 -5.376,-6.528 0,-0.096 0,-0.224 0,-0.352 h 10.368 c 0.032,-0.352 0.032,-0.672 0.032,-0.992 0,-3.936 -2.272,-6.304 -5.76,-6.304 -4.288,0 -7.392,3.296 -7.392,8.128 0,4.704 2.912,7.872 7.136,7.872 2.016,0 4.096,-0.64 6.016,-1.92 z m -2.848,-6.368 h -7.392 c 0.192,-2.72 2.016,-4.512 4.064,-4.512 2.144,0 3.328,1.408 3.328,4 0,0.16 0,0.352 0,0.512 z"
         id="path7061" />
      <path
         d="m 2274.1395,261.11104 -6.944,2.08 v 1.344 l 5.024,-0.896 v 17.216 l -0.384,0.544 -3.68,0.192 v 1.376 h 10.72 v -1.344 l -3.456,-0.16 -0.384,-0.48 v -19.872 z"
         id="path7063" />
      <path
         d="m 2287.088,267.57504 c -1.12,0 -2.016,0.864 -2.016,2.016 0,1.12 0.896,2.048 2.016,2.048 1.12,0 2.048,-0.928 2.048,-2.048 0,-1.152 -0.928,-2.016 -2.048,-2.016 z m 0,11.616 c -1.12,0 -2.016,0.896 -2.016,2.048 0,1.152 0.896,2.016 2.016,2.016 1.12,0 2.048,-0.896 2.048,-2.016 0,-1.152 -0.928,-2.048 -2.048,-2.048 z"
         id="path7065" />
      <path
         d="m 2295.4195,261.49504 v 10.56 c 0.704,-0.128 1.632,-0.192 2.816,-0.192 4.448,0 6.656,1.504 6.656,4.8 0,2.976 -2.048,5.12 -5.056,5.12 -0.704,0 -1.44,-0.128 -2.144,-0.384 l -1.28,-2.752 c -0.32,-0.064 -0.576,-0.096 -0.768,-0.096 -1.088,0 -1.856,0.704 -1.856,1.696 0,1.536 2.208,3.008 5.504,3.008 5.248,0 8.544,-3.104 8.544,-7.232 0,-3.648 -2.72,-6.144 -7.008,-6.144 -1.024,0 -2.176,0.16 -3.424,0.512 v -6.4 h 9.472 v -2.496 z"
         id="path7067" />
      <path
         d="m 2311.504,274.19904 v 2.144 h 7.2 v -2.144 z"
         id="path7069" />
      <path
         d="m 2330.1395,261.11104 -6.944,2.08 v 1.344 l 5.024,-0.896 v 17.216 l -0.384,0.544 -3.68,0.192 v 1.376 h 10.72 v -1.344 l -3.456,-0.16 -0.384,-0.48 v -19.872 z"
         id="path7071" />
      <path
         d="m 2341.232,261.49504 v 10.56 c 0.704,-0.128 1.632,-0.192 2.816,-0.192 4.448,0 6.656,1.504 6.656,4.8 0,2.976 -2.048,5.12 -5.056,5.12 -0.704,0 -1.44,-0.128 -2.144,-0.384 l -1.28,-2.752 c -0.32,-0.064 -0.576,-0.096 -0.768,-0.096 -1.088,0 -1.856,0.704 -1.856,1.696 0,1.536 2.208,3.008 5.504,3.008 5.248,0 8.544,-3.104 8.544,-7.232 0,-3.648 -2.72,-6.144 -7.008,-6.144 -1.024,0 -2.176,0.16 -3.424,0.512 v -6.4 h 9.472 v -2.496 z"
         id="path7073" />
      <path
         d="m 2196.1185,322.96704 h 8.064 v -1.312 l -2.272,-0.16 -0.544,-0.448 v -8.192 h 5.248 l 0.448,0.48 0.32,2.336 h 1.504 v -7.072 h -1.504 l -0.32,2.336 -0.448,0.448 h -5.248 v -8.416 h 7.2 l 0.416,0.48 0.48,3.04 h 1.76 v -4.992 h -15.36 v 1.28 l 2.08,0.192 0.544,0.448 v 17.632 l -0.544,0.448 -1.824,0.16 z"
         id="path7075" />
      <path
         d="m 2212.986,329.94304 h 7.52 v -1.152 l -2.048,-0.16 -0.544,-0.512 v -5.344 c 1.184,0.192 2.176,0.288 2.976,0.288 4.736,0 7.872,-3.264 7.872,-8.32 0,-4.48 -2.624,-7.488 -6.144,-7.488 -1.504,0 -3.008,0.64 -4.704,1.92 v -1.76 h -1.216 l -3.712,1.152 v 0.992 h 2.272 v 18.56 l -0.544,0.512 -1.728,0.16 z m 4.928,-8.832 v -10.752 c 1.216,-0.704 2.272,-1.088 3.36,-1.088 2.784,0 4.672,2.208 4.672,5.888 0,3.936 -2.176,6.464 -5.312,6.464 -0.768,0 -1.664,-0.16 -2.72,-0.512 z"
         id="path7077" />
      <path
         d="m 2243.262,320.43904 c 7.072,-5.632 10.944,-9.248 10.944,-13.28 0,-3.616 -2.528,-6.048 -6.656,-6.048 -3.968,0 -6.784,2.272 -6.784,4.512 0,1.088 0.672,1.792 1.792,1.792 0.512,0 0.992,-0.16 1.44,-0.48 v -3.424 c 0.96,-0.544 1.888,-0.768 2.848,-0.768 2.656,0 4.256,1.792 4.256,4.832 0,4.192 -4,7.68 -11.008,13.376 v 2.016 h 14.816 v -5.248 h -1.44 l -0.576,2.72 z"
         id="path7079" />
      <path
         d="m 2261.6505,307.57504 c -1.12,0 -2.016,0.864 -2.016,2.016 0,1.12 0.896,2.048 2.016,2.048 1.12,0 2.048,-0.928 2.048,-2.048 0,-1.152 -0.928,-2.016 -2.048,-2.016 z m 0,11.616 c -1.12,0 -2.016,0.896 -2.016,2.048 0,1.152 0.896,2.016 2.016,2.016 1.12,0 2.048,-0.896 2.048,-2.016 0,-1.152 -0.928,-2.048 -2.048,-2.048 z"
         id="path7081" />
      <path
         d="m 2276.702,301.11104 -6.944,2.08 v 1.344 l 5.024,-0.896 v 17.216 l -0.384,0.544 -3.68,0.192 v 1.376 h 10.72 v -1.344 l -3.456,-0.16 -0.384,-0.48 v -19.872 z"
         id="path7083" />
      <path
         d="m 2289.0745,320.43904 c 7.072,-5.632 10.944,-9.248 10.944,-13.28 0,-3.616 -2.528,-6.048 -6.656,-6.048 -3.968,0 -6.784,2.272 -6.784,4.512 0,1.088 0.672,1.792 1.792,1.792 0.512,0 0.992,-0.16 1.44,-0.48 v -3.424 c 0.96,-0.544 1.888,-0.768 2.848,-0.768 2.656,0 4.256,1.792 4.256,4.832 0,4.192 -4,7.68 -11.008,13.376 v 2.016 h 14.816 v -5.248 h -1.44 l -0.576,2.72 z"
         id="path7085" />
      <path
         d="m 2303.879,314.19904 v 2.144 h 7.2 v -2.144 z"
         id="path7087" />
      <path
         d="m 2322.5145,301.11104 -6.944,2.08 v 1.344 l 5.024,-0.896 v 17.216 l -0.384,0.544 -3.68,0.192 v 1.376 h 10.72 v -1.344 l -3.456,-0.16 -0.384,-0.48 v -19.872 z"
         id="path7089" />
      <path
         d="m 2344.551,300.11904 c -7.84,0.512 -12.576,5.792 -12.576,13.984 0,5.76 3.136,9.248 7.456,9.248 4.384,0 7.744,-3.328 7.744,-7.648 0,-4.064 -2.848,-6.976 -6.656,-6.976 -1.888,0 -3.776,0.672 -5.44,1.952 0.992,-5.696 4.256,-8.704 9.376,-8.704 0.032,0 0.064,0 0.096,0 z m -9.536,11.968 c 1.312,-0.96 2.88,-1.44 4.64,-1.44 2.72,0 4.608,2.048 4.608,5.344 0,3.392 -1.92,5.824 -4.576,5.824 -3.008,0 -4.736,-2.688 -4.736,-7.776 0,-0.608 0,-1.28 0.064,-1.952 z"
         id="path7091" />
    </g>
  </g>
</svg>
