<?xml version="1.0" encoding="UTF-8" standalone="no"?>
<!-- Created with Inkscape (http://www.inkscape.org/) -->

<svg
   width="139.5141mm"
   height="62.824795mm"
   viewBox="0 0 139.5141 62.824794"
   version="1.1"
   id="svg8"
   xmlns="http://www.w3.org/2000/svg"
   xmlns:svg="http://www.w3.org/2000/svg"
   xmlns:rdf="http://www.w3.org/1999/02/22-rdf-syntax-ns#"
   xmlns:cc="http://creativecommons.org/ns#"
   xmlns:dc="http://purl.org/dc/elements/1.1/">
  <defs
     id="defs2" />
  <metadata
     id="metadata5">
    <rdf:RDF>
      <cc:Work
         rdf:about="">
        <dc:format>image/svg+xml</dc:format>
        <dc:type
           rdf:resource="http://purl.org/dc/dcmitype/StillImage" />
      </cc:Work>
    </rdf:RDF>
  </metadata>
  <g
     id="layer1"
     transform="translate(-349.66238,-138.81881)"
     style="display:inline">
    <g
       aria-label="O RESGATE · JUSTIFICAÇÃO Rm 6:3-7 2 Co 14-17 (nova vida) Gl 2:20 Cl 1:27    "
       transform="matrix(0.26458333,0,0,0.26458333,-175.2311,-89.890525)"
       style="font-style:normal;font-variant:normal;font-weight:bold;font-stretch:normal;font-size:40px;line-height:1.25;font-family:'Bitstream Charter';-inkscape-font-specification:'Bitstream Charter Bold';letter-spacing:0px;word-spacing:0px;fill:#000000;fill-opacity:1;stroke:none"
       id="flowRoot5959">
      <path
         d="m 1984.4974,887.21326 c 0,8.52 5.48,14.2 13.76,14.2 3.36,0 6.56,-1.24 9,-3.52 2.8,-2.6 4.28,-6.2 4.28,-10.44 0,-4.52 -1.68,-8.36 -4.76,-11 -2.44,-2.08 -5.36,-3.12 -8.8,-3.12 -3.72,0 -6.84,1.16 -9.36,3.48 -2.72,2.52 -4.12,6.04 -4.12,10.4 z m 13.56,-11.32 c 4.36,0 7.48,4.28 7.48,11.68 0,7.08 -3.16,11.4 -7.56,11.4 -4.28,0 -7.52,-4.32 -7.52,-11.68 0,-7.16 3.16,-11.4 7.6,-11.4 z"
         id="path7364" />
      <path
         d="m 2025.8162,873.93326 v 1.96 l 2.36,0.2 0.64,0.56 v 21.32 l -0.64,0.64 -2.36,0.2 v 1.96 h 11.28 v -1.96 l -2.44,-0.2 -0.64,-0.64 v -9 c 0.24,0 0.48,0 0.68,0 4.04,0 5.08,1.72 6.32,5.52 0.64,1.92 1,3.72 3.08,5.32 0.96,0.76 2.44,1.24 4.16,1.24 1.24,0 2.6,-0.12 4,-0.32 v -1.92 c -0.2,0 -0.36,0 -0.52,0 -2.68,0 -3.88,-0.6 -4.72,-2.8 -0.76,-2 -1.08,-4.16 -2.32,-5.92 -0.92,-1.28 -2.28,-2.04 -4.2,-2.48 4.52,-0.84 6.88,-3.16 6.88,-6.84 0,-4.44 -3.2,-6.84 -9.4,-6.84 z m 8.2,2.28 h 1.84 c 3.88,0 5.92,1.84 5.92,5.12 0,3.68 -2.04,5.36 -6.32,5.36 -0.44,0 -0.92,0 -1.44,-0.04 z"
         id="path7366" />
      <path
         d="m 2052.6112,900.77326 h 21.48 v -7.16 h -2.72 l -0.68,4.24 -0.52,0.64 h -9.28 v -10.4 h 5.2 l 0.56,0.56 0.4,2.88 h 2.36 v -9.28 h -2.36 l -0.4,2.88 -0.56,0.56 h -5.2 v -9.52 h 7.96 l 0.52,0.52 0.6,3.52 h 2.8 v -6.28 h -20.16 v 1.96 l 2.44,0.2 0.64,0.56 v 21.32 l -0.64,0.64 -2.44,0.2 z"
         id="path7368" />
      <path
         d="m 2077.6393,899.89326 c 2.48,0.88 5.16,1.32 7.72,1.32 6.56,0 10.6,-3.44 10.6,-8.2 0,-2.36 -1.28,-4.52 -3.6,-6 -2.36,-1.52 -4.48,-2.12 -5.72,-2.88 -2.12,-1.28 -3.24,-2.48 -3.24,-4.32 0,-2.2 1.8,-3.8 4.72,-3.8 1.28,0 2.2,0.2 2.92,0.56 l 0.56,0.56 0.68,4.16 h 2.88 v -6.48 c -2.52,-0.88 -5.04,-1.36 -7.52,-1.36 -5.72,0 -9.44,3.44 -9.44,7.88 0,1.96 0.96,3.92 2.8,5.48 1.76,1.48 3.64,2.16 5.24,2.96 2.84,1.44 4.28,2.88 4.28,5.04 0,2.2 -1.92,3.8 -5.16,3.8 -1.24,0 -2.4,-0.2 -3.52,-0.56 l -0.52,-0.6 -0.64,-4.8 h -3.04 z"
         id="path7370" />
      <path
         d="m 2113.9337,887.57326 v 1.96 l 2.96,0.2 0.64,0.56 v 8.16 c -1.04,0.08 -1.8,0.12 -2.2,0.12 -6.16,0 -9.92,-4.2 -9.92,-11.4 0,-7 3.68,-11.16 9.64,-11.16 1.16,0 2.24,0.2 3.32,0.64 l 0.6,0.72 0.76,4.24 h 2.92 v -6.8 c -2.96,-0.88 -5.8,-1.32 -8.44,-1.32 -8.88,0 -14.6,5.48 -14.6,13.68 0,8.32 5.68,14.08 14.08,14.08 2.92,0 5.88,-0.56 8.96,-1.64 v -9.32 l 0.64,-0.56 2.32,-0.2 v -1.96 z"
         id="path7372" />
      <path
         d="m 2137.4512,873.65326 -9.04,24.8 -2.4,0.36 v 1.96 h 8.6 v -1.96 l -2.52,-0.28 -0.4,-0.52 2.4,-6.76 h 8.72 l 2.4,6.8 -0.28,0.52 -2.52,0.24 v 1.96 h 10.8 v -1.96 l -2.36,-0.4 -9.2,-24.76 z m 0.88,5.48 3.56,9.88 h -7.04 z"
         id="path7374" />
      <path
         d="m 2153.1068,873.93326 v 7.08 h 2.76 l 0.64,-4.28 0.64,-0.52 h 4.8 v 21.76 l -0.68,0.64 -2.6,0.2 v 1.96 h 11.96 v -1.96 l -2.6,-0.2 -0.68,-0.64 v -21.76 h 4.8 l 0.6,0.52 0.68,4.28 h 2.76 v -7.08 z"
         id="path7376" />
      <path
         d="m 2177.7674,900.77326 h 21.48 v -7.16 h -2.72 l -0.68,4.24 -0.52,0.64 h -9.28 v -10.4 h 5.2 l 0.56,0.56 0.4,2.88 h 2.36 v -9.28 h -2.36 l -0.4,2.88 -0.56,0.56 h -5.2 v -9.52 h 7.96 l 0.52,0.52 0.6,3.52 h 2.8 v -6.28 h -20.16 v 1.96 l 2.44,0.2 0.64,0.56 v 21.32 l -0.64,0.64 -2.44,0.2 z"
         id="path7378" />
      <path
         d="m 2217.8362,884.17326 c -1.72,0 -3.12,1.44 -3.12,3.2 0,1.76 1.4,3.16 3.12,3.16 1.76,0 3.2,-1.44 3.2,-3.16 0,-1.76 -1.44,-3.2 -3.2,-3.2 z"
         id="path7380" />
      <path
         d="m 2245.5193,876.65326 v 13.68 c 0,5.84 -1.08,8.6 -4.72,8.6 -0.2,0 -0.44,-0.04 -0.64,-0.04 l -0.56,-0.52 -0.92,-5.28 h -2.92 v 7.2 c 1.96,0.64 3.84,0.96 5.72,0.96 6.52,0 9.28,-3.48 9.28,-10.96 v -13.64 l 0.64,-0.56 2.44,-0.2 v -1.96 h -11.76 v 1.96 l 2.8,0.2 z"
         id="path7382" />
      <path
         d="m 2254.673,873.93326 v 1.96 l 2.52,0.2 0.56,0.56 v 13.84 c 0,3.08 0.2,5.44 1.76,7.48 1.64,2.08 4.6,3.28 8.56,3.28 7.52,0 10.56,-3.24 10.56,-10.56 v -13.88 l 0.56,-0.68 2.44,-0.24 v -1.96 h -9.08 v 1.96 l 2.56,0.24 0.6,0.68 v 13.48 c 0,5.32 -1.64,7.8 -6.08,7.8 -4.8,0 -6.52,-2.28 -6.52,-7.44 v -14 l 0.56,-0.56 2.48,-0.2 v -1.96 z"
         id="path7384" />
      <path
         d="m 2284.4362,899.89326 c 2.48,0.88 5.16,1.32 7.72,1.32 6.56,0 10.6,-3.44 10.6,-8.2 0,-2.36 -1.28,-4.52 -3.6,-6 -2.36,-1.52 -4.48,-2.12 -5.72,-2.88 -2.12,-1.28 -3.24,-2.48 -3.24,-4.32 0,-2.2 1.8,-3.8 4.72,-3.8 1.28,0 2.2,0.2 2.92,0.56 l 0.56,0.56 0.68,4.16 h 2.88 v -6.48 c -2.52,-0.88 -5.04,-1.36 -7.52,-1.36 -5.72,0 -9.44,3.44 -9.44,7.88 0,1.96 0.96,3.92 2.8,5.48 1.76,1.48 3.64,2.16 5.24,2.96 2.84,1.44 4.28,2.88 4.28,5.04 0,2.2 -1.92,3.8 -5.16,3.8 -1.24,0 -2.4,-0.2 -3.52,-0.56 l -0.52,-0.6 -0.64,-4.8 h -3.04 z"
         id="path7386" />
      <path
         d="m 2305.4505,873.93326 v 7.08 h 2.76 l 0.64,-4.28 0.64,-0.52 h 4.8 v 21.76 l -0.68,0.64 -2.6,0.2 v 1.96 h 11.96 v -1.96 l -2.6,-0.2 -0.68,-0.64 v -21.76 h 4.8 l 0.6,0.52 0.68,4.28 h 2.76 v -7.08 z"
         id="path7388" />
      <path
         d="m 2330.1512,900.77326 h 11.96 v -1.96 l -2.68,-0.2 -0.64,-0.64 v -21.32 l 0.64,-0.56 2.68,-0.2 v -1.96 h -11.96 v 1.96 l 2.64,0.2 0.64,0.56 v 21.32 l -0.64,0.64 -2.64,0.2 z"
         id="path7390" />
      <path
         d="m 2344.2918,900.77326 h 11.8 v -1.96 l -2.8,-0.2 -0.68,-0.64 v -9.32 h 5.36 l 0.56,0.52 0.4,2.92 h 2.36 v -9.32 h -2.36 l -0.4,2.92 -0.56,0.52 h -5.36 v -9.96 h 7.72 l 0.52,0.52 0.6,3.88 h 2.76 v -6.72 h -20.08 v 1.96 l 2.56,0.2 0.64,0.56 v 21.32 l -0.64,0.64 -2.4,0.2 z"
         id="path7392" />
      <path
         d="m 2366.4012,900.77326 h 11.96 v -1.96 l -2.68,-0.2 -0.64,-0.64 v -21.32 l 0.64,-0.56 2.68,-0.2 v -1.96 h -11.96 v 1.96 l 2.64,0.2 0.64,0.56 v 21.32 l -0.64,0.64 -2.64,0.2 z"
         id="path7394" />
      <path
         d="m 2403.3818,899.81326 v -6.88 h -2.88 l -1,4.84 -0.6,0.6 c -0.96,0.24 -1.76,0.36 -2.44,0.36 -5.96,0 -9.6,-4.24 -9.6,-11.4 0,-7.08 3.6,-11.28 9.08,-11.28 1.04,0 2.08,0.2 3.16,0.6 l 0.56,0.68 0.76,4.28 h 2.96 v -6.68 c -2.68,-0.96 -5.4,-1.48 -8.16,-1.48 -4.16,0 -7.56,1.24 -10.08,3.68 -2.72,2.6 -4.16,6.16 -4.16,10.24 0,5.12 2.48,9.6 6.64,12.08 1.96,1.16 4.48,1.8 7.36,1.8 2.92,0 5.72,-0.48 8.4,-1.44 z"
         id="path7396" />
      <path
         d="m 2415.8887,873.65326 -9.04,24.8 -2.4,0.36 v 1.96 h 8.6 v -1.96 l -2.52,-0.28 -0.4,-0.52 2.4,-6.76 h 8.72 l 2.4,6.8 -0.28,0.52 -2.52,0.24 v 1.96 h 10.8 v -1.96 l -2.36,-0.4 -9.2,-24.76 z m 0.88,5.48 3.56,9.88 h -7.04 z"
         id="path7398" />
      <path
         d="m 2454.9443,899.81326 v -6.88 h -2.88 l -1,4.84 -0.6,0.6 c -0.96,0.24 -1.76,0.36 -2.44,0.36 -5.96,0 -9.6,-4.24 -9.6,-11.4 0,-7.08 3.6,-11.28 9.08,-11.28 1.04,0 2.08,0.2 3.16,0.6 l 0.56,0.68 0.76,4.28 h 2.96 v -6.68 c -2.68,-0.96 -5.4,-1.48 -8.16,-1.48 -4.16,0 -7.56,1.24 -10.08,3.68 -2.72,2.6 -4.16,6.16 -4.16,10.24 0,5.12 2.48,9.6 6.64,12.08 1.96,1.16 4.48,1.8 7.36,1.8 2.92,0 5.72,-0.48 8.4,-1.44 z m -9.52,0.96 v 4.48 c 0.32,-0.04 0.6,-0.08 0.88,-0.08 1.16,0 1.8,0.52 1.8,1.32 0,0.96 -0.84,1.48 -2.48,1.48 -0.6,0 -1.4,-0.12 -2.44,-0.32 v 1.88 c 1.12,0.28 2.16,0.44 3.24,0.44 2.96,0 4.8,-1.6 4.8,-3.92 0,-1.88 -1.16,-3.04 -3.24,-3.04 -0.2,0 -0.44,0 -0.64,0.04 v -2.28 z"
         id="path7400" />
      <path
         d="m 2467.4512,873.65326 -9.04,24.8 -2.4,0.36 v 1.96 h 8.6 v -1.96 l -2.52,-0.28 -0.4,-0.52 2.4,-6.76 h 8.72 l 2.4,6.8 -0.28,0.52 -2.52,0.24 v 1.96 h 10.8 v -1.96 l -2.36,-0.4 -9.2,-24.76 z m 0.88,5.48 3.56,9.88 h -7.04 z m 5.44,-14.72 c 0,0.12 0,0.24 0,0.32 0,1.48 -0.52,2.2 -1.56,2.2 -1.4,0 -3.4,-1.88 -5.76,-1.88 -2.2,0 -3.48,1.68 -3.48,4.76 0,0.2 0,0.44 0,0.68 h 2.2 c 0,-0.16 0,-0.28 0,-0.4 0,-1.36 0.52,-2.12 1.48,-2.12 1.2,0 3.2,1.84 5.8,1.84 2.12,0 3.48,-1.68 3.48,-4.76 0,-0.2 0,-0.44 0,-0.64 z"
         id="path7402" />
      <path
         d="m 2484.1068,887.21326 c 0,8.52 5.48,14.2 13.76,14.2 3.36,0 6.56,-1.24 9,-3.52 2.8,-2.6 4.28,-6.2 4.28,-10.44 0,-4.52 -1.68,-8.36 -4.76,-11 -2.44,-2.08 -5.36,-3.12 -8.8,-3.12 -3.72,0 -6.84,1.16 -9.36,3.48 -2.72,2.52 -4.12,6.04 -4.12,10.4 z m 13.56,-11.32 c 4.36,0 7.48,4.28 7.48,11.68 0,7.08 -3.16,11.4 -7.56,11.4 -4.28,0 -7.52,-4.32 -7.52,-11.68 0,-7.16 3.16,-11.4 7.6,-11.4 z"
         id="path7404" />
      <path
         d="m 1983.8494,929.30126 v 1.568 l 1.888,0.16 0.512,0.448 v 17.056 l -0.512,0.512 -1.888,0.16 v 1.568 h 9.024 v -1.568 l -1.952,-0.16 -0.512,-0.512 v -7.2 c 0.192,0 0.384,0 0.544,0 3.232,0 4.064,1.376 5.056,4.416 0.512,1.536 0.8,2.976 2.464,4.256 0.768,0.608 1.952,0.992 3.328,0.992 0.992,0 2.08,-0.096 3.2,-0.256 v -1.536 c -0.16,0 -0.288,0 -0.416,0 -2.144,0 -3.104,-0.48 -3.776,-2.24 -0.608,-1.6 -0.864,-3.328 -1.856,-4.736 -0.736,-1.024 -1.824,-1.632 -3.36,-1.984 3.616,-0.672 5.504,-2.528 5.504,-5.472 0,-3.552 -2.56,-5.472 -7.52,-5.472 z m 6.56,1.824 h 1.472 c 3.104,0 4.736,1.472 4.736,4.096 0,2.944 -1.632,4.288 -5.056,4.288 -0.352,0 -0.736,0 -1.152,-0.032 z"
         style="font-size:32px"
         id="path7406" />
      <path
         d="m 2020.3894,937.01326 c -0.864,-1.472 -2.144,-2.24 -3.744,-2.24 -1.408,0 -3.072,0.736 -5.248,2.016 v -1.888 h -1.536 l -4.512,1.504 v 1.28 h 2.08 v 11.04 l -0.448,0.48 -1.632,0.128 v 1.44 h 7.84 v -1.44 l -1.344,-0.128 -0.448,-0.48 v -10.56 c 1.024,-0.384 1.92,-0.576 2.688,-0.576 2.048,0 2.88,1.056 2.88,3.296 v 7.776 l -0.448,0.544 -1.312,0.128 v 1.44 h 7.552 v -1.408 l -1.44,-0.16 -0.448,-0.48 v -10.496 c 1.056,-0.384 1.952,-0.608 2.752,-0.608 2.112,0 2.944,1.056 2.944,3.456 v 7.648 l -0.448,0.48 -1.376,0.128 v 1.44 h 7.872 v -1.44 l -1.696,-0.128 -0.416,-0.48 v -8.576 c 0,-3.552 -1.472,-5.312 -4.448,-5.312 -1.184,0 -3.104,0.704 -5.664,2.176 z"
         style="font-size:32px"
         id="path7408" />
      <path
         d="m 2057.2404,927.92526 c -8.288,0.032 -13.504,5.44 -13.504,13.6 0,6.048 3.104,9.664 8,9.664 4.768,0 8.192,-3.232 8.192,-7.872 0,-4.064 -2.88,-7.008 -6.624,-7.008 -1.792,0 -3.488,0.576 -5.088,1.632 0.8,-4.768 3.456,-7.456 7.68,-7.776 l 1.344,0.128 z m -9.216,11.744 c 1.056,-0.544 2.208,-0.8 3.424,-0.8 2.592,0 4.256,1.92 4.256,5.056 0,3.328 -1.504,5.28 -3.584,5.28 -2.592,0 -4.16,-2.56 -4.16,-7.616 0,-0.288 0.032,-0.96 0.064,-1.92 z"
         style="font-size:32px"
         id="path7410" />
      <path
         d="m 2066.3309,935.15726 c -1.376,0 -2.496,1.12 -2.496,2.528 0,1.408 1.12,2.528 2.496,2.528 1.376,0 2.496,-1.12 2.496,-2.528 0,-1.408 -1.12,-2.528 -2.496,-2.528 z m 0,10.784 c -1.376,0 -2.496,1.12 -2.496,2.56 0,1.408 1.152,2.528 2.496,2.528 1.376,0 2.496,-1.12 2.496,-2.528 0,-1.44 -1.12,-2.56 -2.496,-2.56 z"
         style="font-size:32px"
         id="path7412" />
      <path
         d="m 2082.3579,939.47726 c 3.456,-0.8 5.248,-2.592 5.248,-5.12 0,-3.104 -2.688,-5.408 -6.944,-5.408 -4.352,0 -7.136,2.112 -7.136,4.416 0,1.28 0.928,2.208 2.304,2.208 0.672,0 1.184,-0.128 1.696,-0.448 v -3.744 c 0.64,-0.256 1.248,-0.384 1.792,-0.384 2.336,0 3.968,1.568 3.968,3.808 0,2.464 -1.696,3.936 -4.704,3.936 -0.288,0 -0.608,0 -0.928,-0.032 v 2.304 c 0.864,-0.128 1.536,-0.16 1.984,-0.16 2.72,0 4.416,1.6 4.416,3.936 0,2.496 -1.856,4.448 -4.288,4.448 -0.64,0 -1.376,-0.16 -2.208,-0.48 l -1.024,-3.456 c -0.48,-0.16 -0.864,-0.256 -1.248,-0.256 -1.376,0 -2.272,0.832 -2.272,2.08 0,2.112 2.528,4 6.464,4 5.504,0 8.928,-2.912 8.928,-6.528 0,-2.912 -2.144,-4.832 -6.048,-5.12 z"
         style="font-size:32px"
         id="path7414" />
      <path
         d="m 2091.3844,941.49326 v 3.136 h 8.128 v -3.136 z"
         style="font-size:32px"
         id="path7416" />
      <path
         d="m 2103.1019,929.30126 v 6.528 h 2.112 l 0.48,-2.976 h 9.248 l -10.304,19.008 h 3.424 v -0.896 l 10.368,-19.584 v -2.08 z"
         style="font-size:32px"
         id="path7418" />
      <path
         d="m 1988.3934,997.50926 c 7.104,-4.832 10.816,-8.256 10.816,-12.352 0,-3.712 -2.72,-6.24 -7.008,-6.24 -4.608,0 -7.52,2.24 -7.52,4.896 0,1.344 0.896,2.24 2.304,2.24 0.64,0 1.312,-0.192 2.016,-0.576 v -4.128 c 0.64,-0.256 1.28,-0.384 1.856,-0.384 2.432,0 3.936,1.632 3.936,4.48 0,4 -3.648,7.552 -10.4,12.8 v 2.52804 h 15.488 v -6.08004 h -1.952 l -0.576,2.816 z"
         style="font-size:32px"
         id="path7420" />
      <path
         d="m 2029.9644,1000.0053 v -5.50404 h -2.304 l -0.8,3.872 -0.48,0.48 c -0.768,0.192 -1.408,0.288 -1.952,0.288 -4.768,0 -7.68,-3.392 -7.68,-9.12 0,-5.664 2.88,-9.024 7.264,-9.024 0.832,0 1.664,0.16 2.528,0.48 l 0.448,0.544 0.608,3.424 h 2.368 v -5.344 c -2.144,-0.768 -4.32,-1.184 -6.528,-1.184 -3.328,0 -6.048,0.992 -8.064,2.944 -2.176,2.08 -3.328,4.928 -3.328,8.192 0,4.096 1.984,7.68 5.312,9.664 1.568,0.92804 3.584,1.44004 5.888,1.44004 2.336,0 4.576,-0.384 6.72,-1.152 z"
         style="font-size:32px"
         id="path7422" />
      <path
         d="m 2040.6419,984.80526 c -5.024,0 -8.288,3.264 -8.288,8.192 0,4.832 3.232,8.03204 8.032,8.03204 5.056,0 8.288,-3.23204 8.288,-7.96804 0,-5.088 -3.136,-8.256 -8.032,-8.256 z m -0.128,1.696 c 2.272,0 3.744,2.272 3.744,6.464 0,4.16 -1.408,6.368 -3.776,6.368 -2.24,0 -3.68,-2.272 -3.68,-6.464 0,-4.128 1.44,-6.368 3.712,-6.368 z"
         style="font-size:32px"
         id="path7424" />
      <path
         d="m 2069.3199,978.98126 -6.912,2.336 v 1.632 l 4.544,-0.672 0.288,0.384 v 15.744 l -0.384,0.576 -3.2,0.192 v 1.60004 h 11.104 v -1.60004 l -3.008,-0.128 -0.352,-0.512 v -19.552 z"
         style="font-size:32px"
         id="path7426" />
      <path
         d="m 2088.8424,979.10926 -10.56,13.28 v 2.592 h 9.952 v 6.78404 h 3.744 v -6.78404 h 3.616 v -2.528 h -3.616 v -13.344 z m -0.608,4.416 v 8.928 h -7.04 z"
         style="font-size:32px"
         id="path7428" />
      <path
         d="m 2097.1969,991.49326 v 3.136 h 8.128 v -3.136 z"
         style="font-size:32px"
         id="path7430" />
      <path
         d="m 2116.8824,978.98126 -6.912,2.336 v 1.632 l 4.544,-0.672 0.288,0.384 v 15.744 l -0.384,0.576 -3.2,0.192 v 1.60004 h 11.104 v -1.60004 l -3.008,-0.128 -0.352,-0.512 v -19.552 z"
         style="font-size:32px"
         id="path7432" />
      <path
         d="m 2127.4769,979.30126 v 6.528 h 2.112 l 0.48,-2.976 h 9.248 l -10.304,19.00804 h 3.424 v -0.896 l 10.368,-19.58404 v -2.08 z"
         style="font-size:32px"
         id="path7434" />
      <path
         d="m 2165.2719,977.79726 c -5.952,0.256 -9.44,5.12 -9.44,13.856 0,8.57604 3.584,13.44004 9.44,13.66404 v -1.632 c -3.872,-0.448 -5.664,-4.41604 -5.664,-12.00004 0,-7.712 1.664,-11.712 5.664,-12.256 z"
         style="font-size:32px"
         id="path7436" />
      <path
         d="m 2167.5994,1000.7733 h 7.904 v -1.44004 l -1.408,-0.128 -0.448,-0.48 v -10.56 c 1.216,-0.352 2.24,-0.544 3.04,-0.544 2.016,0 2.88,1.088 2.88,3.456 v 7.648 l -0.448,0.48 -1.376,0.128 v 1.44004 h 7.84 v -1.44004 l -1.696,-0.128 -0.416,-0.48 v -8.576 c 0,-3.552 -1.408,-5.312 -4.352,-5.312 -1.408,0 -3.2,0.704 -5.472,1.952 v -1.888 h -1.536 l -4.608,1.504 v 1.28 h 2.176 v 11.04 l -0.448,0.48 -1.632,0.128 z"
         style="font-size:32px"
         id="path7438" />
      <path
         d="m 2195.4544,984.80526 c -5.024,0 -8.288,3.264 -8.288,8.192 0,4.832 3.232,8.03204 8.032,8.03204 5.056,0 8.288,-3.23204 8.288,-7.96804 0,-5.088 -3.136,-8.256 -8.032,-8.256 z m -0.128,1.696 c 2.272,0 3.744,2.272 3.744,6.464 0,4.16 -1.408,6.368 -3.776,6.368 -2.24,0 -3.68,-2.272 -3.68,-6.464 0,-4.128 1.44,-6.368 3.712,-6.368 z"
         style="font-size:32px"
         id="path7440" />
      <path
         d="m 2204.2279,985.18926 v 1.472 l 1.92,0.192 5.12,13.92004 h 2.88 l 5.504,-13.88804 1.856,-0.224 v -1.472 h -6.08 v 1.472 l 1.632,0.16 0.256,0.448 -3.648,9.312 -3.328,-9.344 0.352,-0.416 1.664,-0.16 v -1.472 z"
         style="font-size:32px"
         id="path7442" />
      <path
         d="m 2231.8334,998.94926 0.416,1.82404 h 5.696 v -1.40804 l -1.696,-0.16 -0.416,-0.448 v -8.288 c 0,-4.096 -1.504,-5.664 -5.984,-5.664 -4.224,0 -6.976,1.888 -6.976,3.712 0,0.864 0.512,1.184 1.472,1.184 h 2.944 v -3.008 c 0.576,-0.128 1.056,-0.192 1.536,-0.192 2.112,0 3.04,1.024 3.04,3.328 v 0.96 c -6.688,1.504 -9.728,2.432 -9.728,6.112 0,2.432 1.728,4.16004 4.192,4.16004 1.728,0 3.456,-0.736 5.504,-2.11204 z m 0,-1.312 c -1.248,0.64 -2.272,0.96 -3.104,0.96 -1.472,0 -2.368,-0.928 -2.368,-2.4 0,-2.112 1.696,-2.944 5.472,-3.776 z"
         style="font-size:32px"
         id="path7444" />
      <path
         d="m 2247.4154,985.18926 v 1.472 l 1.92,0.192 5.12,13.92004 h 2.88 l 5.504,-13.88804 1.856,-0.224 v -1.472 h -6.08 v 1.472 l 1.632,0.16 0.256,0.448 -3.648,9.312 -3.328,-9.344 0.352,-0.416 1.664,-0.16 v -1.472 z"
         style="font-size:32px"
         id="path7446" />
      <path
         d="m 2269.2289,977.60526 c -1.312,0 -2.304,1.024 -2.304,2.4 0,1.408 1.056,2.368 2.336,2.368 1.344,0 2.368,-0.992 2.368,-2.432 0,-1.312 -0.96,-2.336 -2.4,-2.336 z m 0.352,7.296 -4.512,1.504 v 1.28 h 2.112 v 11.04 l -0.448,0.48 -1.728,0.128 v 1.44004 h 8.384 v -1.44004 l -1.792,-0.128 -0.48,-0.48 v -13.824 z"
         style="font-size:32px"
         id="path7448" />
      <path
         d="m 2286.2429,979.90926 v 5.184 c -1.152,-0.224 -2.144,-0.32 -3.008,-0.32 -4.864,0 -8.256,3.424 -8.256,8.576 0,4.608 2.624,7.71204 6.208,7.71204 1.632,0 3.232,-0.736 5.056,-2.08004 v 1.79204 h 5.984 v -1.40804 l -1.632,-0.128 -0.448,-0.512 v -21.6 h -1.472 l -4.768,1.504 v 1.28 z m 0,17.824 c -1.024,0.384 -1.92,0.608 -2.688,0.608 -2.656,0 -4.288,-2.08 -4.288,-5.664 0,-3.808 1.888,-6.112 4.608,-6.112 0.672,0 1.44,0.16 2.368,0.48 z"
         style="font-size:32px"
         id="path7450" />
      <path
         d="m 2303.8334,998.94926 0.416,1.82404 h 5.696 v -1.40804 l -1.696,-0.16 -0.416,-0.448 v -8.288 c 0,-4.096 -1.504,-5.664 -5.984,-5.664 -4.224,0 -6.976,1.888 -6.976,3.712 0,0.864 0.512,1.184 1.472,1.184 h 2.944 v -3.008 c 0.576,-0.128 1.056,-0.192 1.536,-0.192 2.112,0 3.04,1.024 3.04,3.328 v 0.96 c -6.688,1.504 -9.728,2.432 -9.728,6.112 0,2.432 1.728,4.16004 4.192,4.16004 1.728,0 3.456,-0.736 5.504,-2.11204 z m 0,-1.312 c -1.248,0.64 -2.272,0.96 -3.104,0.96 -1.472,0 -2.368,-0.928 -2.368,-2.4 0,-2.112 1.696,-2.944 5.472,-3.776 z"
         style="font-size:32px"
         id="path7452" />
      <path
         d="m 2311.4789,977.79726 v 1.632 c 3.936,0.448 5.664,4.448 5.664,12.096 0,7.68 -1.696,11.64804 -5.664,12.16004 v 1.632 c 5.792,-0.256 9.344,-5.12 9.344,-13.76004 0,-8.608 -3.52,-13.472 -9.344,-13.76 z"
         style="font-size:32px"
         id="path7454" />
      <path
         d="m 1995.5934,1040.2133 v 1.568 l 2.368,0.16 0.512,0.448 v 6.528 c -0.832,0.064 -1.44,0.096 -1.76,0.096 -4.928,0 -7.936,-3.36 -7.936,-9.12 0,-5.6 2.944,-8.928 7.712,-8.928 0.928,0 1.792,0.16 2.656,0.512 l 0.48,0.576 0.608,3.392 h 2.336 v -5.44 c -2.368,-0.704 -4.64,-1.056 -6.752,-1.056 -7.104,0 -11.68,4.384 -11.68,10.944 0,6.656 4.544,11.264 11.264,11.264 2.336,0 4.704,-0.448 7.168,-1.312 v -7.456 l 0.512,-0.448 1.856,-0.16 v -1.568 z"
         style="font-size:32px"
         id="path7456" />
      <path
         d="m 2006.3434,1050.7733 h 8.576 v -1.408 l -1.856,-0.192 -0.48,-0.512 v -21.536 h -1.408 l -4.832,1.536 v 1.248 h 2.304 v 18.816 l -0.448,0.448 -1.856,0.192 z"
         style="font-size:32px"
         id="path7458" />
      <path
         d="m 2030.2059,1047.5093 c 7.104,-4.832 10.816,-8.256 10.816,-12.352 0,-3.712 -2.72,-6.24 -7.008,-6.24 -4.608,0 -7.52,2.24 -7.52,4.896 0,1.344 0.896,2.24 2.304,2.24 0.64,0 1.312,-0.192 2.016,-0.576 v -4.128 c 0.64,-0.256 1.28,-0.384 1.856,-0.384 2.432,0 3.936,1.632 3.936,4.48 0,4 -3.648,7.552 -10.4,12.8 v 2.528 h 15.488 v -6.08 h -1.952 l -0.576,2.816 z"
         style="font-size:32px"
         id="path7460" />
      <path
         d="m 2048.7684,1035.1573 c -1.376,0 -2.496,1.12 -2.496,2.528 0,1.408 1.12,2.528 2.496,2.528 1.376,0 2.496,-1.12 2.496,-2.528 0,-1.408 -1.12,-2.528 -2.496,-2.528 z m 0,10.784 c -1.376,0 -2.496,1.12 -2.496,2.56 0,1.408 1.152,2.528 2.496,2.528 1.376,0 2.496,-1.12 2.496,-2.528 0,-1.44 -1.12,-2.56 -2.496,-2.56 z"
         style="font-size:32px"
         id="path7462" />
      <path
         d="m 2059.6434,1047.5093 c 7.104,-4.832 10.816,-8.256 10.816,-12.352 0,-3.712 -2.72,-6.24 -7.008,-6.24 -4.608,0 -7.52,2.24 -7.52,4.896 0,1.344 0.896,2.24 2.304,2.24 0.64,0 1.312,-0.192 2.016,-0.576 v -4.128 c 0.64,-0.256 1.28,-0.384 1.856,-0.384 2.432,0 3.936,1.632 3.936,4.48 0,4 -3.648,7.552 -10.4,12.8 v 2.528 h 15.488 v -6.08 h -1.952 l -0.576,2.816 z"
         style="font-size:32px"
         id="path7464" />
      <path
         d="m 2082.0459,1028.9173 c -4.928,0 -8.096,4.064 -8.096,11.136 0,7.072 3.168,11.104 8.096,11.104 4.96,0 8.16,-4.064 8.16,-11.104 0,-7.04 -3.2,-11.136 -8.16,-11.136 z m 0.032,1.792 c 2.528,0 3.776,3.104 3.776,9.312 0,6.208 -1.248,9.312 -3.776,9.312 -2.528,0 -3.776,-3.136 -3.776,-9.408 0,-6.144 1.312,-9.216 3.776,-9.216 z"
         style="font-size:32px"
         id="path7466" />
      <path
         d="m 2002.0894,1100.0053 v -5.504 h -2.304 l -0.8,3.872 -0.48,0.48 c -0.768,0.192 -1.408,0.288 -1.952,0.288 -4.768,0 -7.68,-3.392 -7.68,-9.12 0,-5.664 2.88,-9.024 7.264,-9.024 0.832,0 1.664,0.16 2.528,0.48 l 0.448,0.544 0.608,3.424 h 2.368 v -5.344 c -2.144,-0.768 -4.32,-1.184 -6.528,-1.184 -3.328,0 -6.048,0.992 -8.064,2.944 -2.176,2.08 -3.328,4.928 -3.328,8.192 0,4.096 1.984,7.68 5.312,9.664 1.568,0.928 3.584,1.44 5.888,1.44 2.336,0 4.576,-0.384 6.72,-1.152 z"
         style="font-size:32px"
         id="path7468" />
      <path
         d="m 2004.0309,1100.7733 h 8.576 v -1.408 l -1.856,-0.192 -0.48,-0.512 v -21.536 h -1.408 l -4.832,1.536 v 1.248 h 2.304 v 18.816 l -0.448,0.448 -1.856,0.192 z"
         style="font-size:32px"
         id="path7470" />
      <path
         d="m 2032.7574,1078.9813 -6.912,2.336 v 1.632 l 4.544,-0.672 0.288,0.384 v 15.744 l -0.384,0.576 -3.2,0.192 v 1.6 h 11.104 v -1.6 l -3.008,-0.128 -0.352,-0.512 v -19.552 z"
         style="font-size:32px"
         id="path7472" />
      <path
         d="m 2046.4559,1085.1573 c -1.376,0 -2.496,1.12 -2.496,2.528 0,1.408 1.12,2.528 2.496,2.528 1.376,0 2.496,-1.12 2.496,-2.528 0,-1.408 -1.12,-2.528 -2.496,-2.528 z m 0,10.784 c -1.376,0 -2.496,1.12 -2.496,2.56 0,1.408 1.152,2.528 2.496,2.528 1.376,0 2.496,-1.12 2.496,-2.528 0,-1.44 -1.12,-2.56 -2.496,-2.56 z"
         style="font-size:32px"
         id="path7474" />
      <path
         d="m 2057.3309,1097.5093 c 7.104,-4.832 10.816,-8.256 10.816,-12.352 0,-3.712 -2.72,-6.24 -7.008,-6.24 -4.608,0 -7.52,2.24 -7.52,4.896 0,1.344 0.896,2.24 2.304,2.24 0.64,0 1.312,-0.192 2.016,-0.576 v -4.128 c 0.64,-0.256 1.28,-0.384 1.856,-0.384 2.432,0 3.936,1.632 3.936,4.48 0,4 -3.648,7.552 -10.4,12.8 v 2.528 h 15.488 v -6.08 h -1.952 l -0.576,2.816 z"
         style="font-size:32px"
         id="path7476" />
      <path
         d="m 2072.7894,1079.3013 v 6.528 h 2.112 l 0.48,-2.976 h 9.248 l -10.304,19.008 h 3.424 v -0.896 l 10.368,-19.584 v -2.08 z"
         style="font-size:32px"
         id="path7478" />
    </g>
  </g>
</svg>
