<?xml version="1.0" encoding="UTF-8" standalone="no"?>
<!-- Created with Inkscape (http://www.inkscape.org/) -->

<svg
   width="43.593674mm"
   height="49.319649mm"
   viewBox="0 0 43.593675 49.319648"
   version="1.1"
   id="svg8"
   xmlns="http://www.w3.org/2000/svg"
   xmlns:svg="http://www.w3.org/2000/svg"
   xmlns:rdf="http://www.w3.org/1999/02/22-rdf-syntax-ns#"
   xmlns:cc="http://creativecommons.org/ns#"
   xmlns:dc="http://purl.org/dc/elements/1.1/">
  <defs
     id="defs2" />
  <metadata
     id="metadata5">
    <rdf:RDF>
      <cc:Work
         rdf:about="">
        <dc:format>image/svg+xml</dc:format>
        <dc:type
           rdf:resource="http://purl.org/dc/dcmitype/StillImage" />
      </cc:Work>
    </rdf:RDF>
  </metadata>
  <g
     id="layer1"
     transform="translate(-308.06562,75.431605)"
     style="display:inline">
    <g
       aria-label="Espírito  Rm 3:23-35 Rm 5:8-10 Ef 2:4-6 Rm 6:3-7  "
       transform="matrix(0.26458333,0,0,0.26458333,-173.23051,-113.12398)"
       style="font-style:normal;font-weight:normal;font-size:40px;line-height:0.9;font-family:sans-serif;letter-spacing:0px;word-spacing:0px;fill:#000000;fill-opacity:1;stroke:none"
       id="flowRoot6067">
      <path
         d="m 1820.928,166.20337 h 17.184 v -5.728 h -2.176 l -0.544,3.392 -0.416,0.512 h -7.424 v -8.32 h 4.16 l 0.448,0.448 0.32,2.304 h 1.888 v -7.424 h -1.888 l -0.32,2.304 -0.448,0.448 h -4.16 v -7.616 h 6.368 l 0.416,0.416 0.48,2.816 h 2.24 v -5.024 h -16.128 v 1.568 l 1.952,0.16 0.512,0.448 v 17.056 l -0.512,0.512 -1.952,0.16 z"
         style="font-style:normal;font-variant:normal;font-weight:bold;font-stretch:normal;font-family:'Bitstream Charter';-inkscape-font-specification:'Bitstream Charter Bold'"
         id="path7133" />
      <path
         d="m 1851.7025,151.00337 c -1.632,-0.544 -3.232,-0.8 -4.832,-0.8 -3.936,0 -6.272,2.016 -6.272,4.768 0,1.92 1.216,3.04 3.584,4.224 2.496,1.248 4.224,1.568 4.224,3.296 0,1.408 -0.992,2.304 -2.72,2.304 -0.96,0 -1.856,-0.224 -2.688,-0.672 l -0.32,-0.352 -0.352,-2.752 h -1.952 v 4.736 c 1.984,0.544 3.744,0.8 5.28,0.8 4.128,0 6.528,-2.048 6.528,-5.28 0,-2.304 -1.824,-3.168 -4.672,-4.544 -1.888,-0.928 -2.976,-1.472 -2.976,-2.816 0,-1.184 0.864,-1.92 2.432,-1.92 0.736,0 1.44,0.192 2.112,0.512 l 0.384,0.352 0.32,2.4 h 1.92 z"
         style="font-style:normal;font-variant:normal;font-weight:bold;font-stretch:normal;font-family:'Bitstream Charter';-inkscape-font-specification:'Bitstream Charter Bold'"
         id="path7135" />
      <path
         d="m 1854.111,173.21137 h 8.544 l 0.032,-1.472 -2.016,-0.128 -0.48,-0.448 v -5.12 c 1.056,0.128 1.92,0.192 2.624,0.192 5.184,0 8.48,-3.328 8.48,-8.448 0,-4.48 -2.656,-7.552 -6.048,-7.552 -1.568,0 -3.168,0.704 -5.056,2.016 v -1.92 h -1.44 l -4.672,1.504 v 1.28 h 2.208 v 17.984 l -0.448,0.48 -1.728,0.16 z m 6.08,-8.928 v -10.688 c 0.96,-0.384 1.792,-0.608 2.528,-0.608 2.592,0 4.224,1.92 4.224,5.344 0,3.84 -1.888,6.176 -4.704,6.176 -0.64,0 -1.312,-0.064 -2.048,-0.224 z"
         style="font-style:normal;font-variant:normal;font-weight:bold;font-stretch:normal;font-family:'Bitstream Charter';-inkscape-font-specification:'Bitstream Charter Bold'"
         id="path7137" />
      <path
         d="m 1877.8485,150.33137 -4.512,1.504 v 1.28 h 2.112 v 11.04 l -0.448,0.48 -1.728,0.128 v 1.44 h 8.384 v -1.44 l -1.792,-0.128 -0.48,-0.48 v -13.824 z m 1.056,-7.872 -3.104,6.08 h 2.144 l 4.928,-6.08 z"
         style="font-style:normal;font-variant:normal;font-weight:bold;font-stretch:normal;font-family:'Bitstream Charter';-inkscape-font-specification:'Bitstream Charter Bold'"
         id="path7139" />
      <path
         d="m 1882.9905,166.20337 h 8.832 v -1.44 l -2.272,-0.128 -0.48,-0.48 v -9.184 c 0.992,-0.608 1.76,-0.896 2.272,-0.896 0.928,0 1.6,0.352 2.08,1.152 h 1.664 l 0.416,-4.416 c -0.704,-0.352 -1.408,-0.544 -2.112,-0.544 -0.224,0 -0.48,0.032 -0.704,0.064 -1.312,0.928 -2.592,2.016 -3.744,3.264 l 0.128,-3.264 h -1.536 l -4.704,1.504 v 1.28 h 2.304 v 11.04 l -0.448,0.48 -1.696,0.128 z"
         style="font-style:normal;font-variant:normal;font-weight:bold;font-stretch:normal;font-family:'Bitstream Charter';-inkscape-font-specification:'Bitstream Charter Bold'"
         id="path7141" />
      <path
         d="m 1900.7465,143.03537 c -1.312,0 -2.304,1.024 -2.304,2.4 0,1.408 1.056,2.368 2.336,2.368 1.344,0 2.368,-0.992 2.368,-2.432 0,-1.312 -0.96,-2.336 -2.4,-2.336 z m 0.352,7.296 -4.512,1.504 v 1.28 h 2.112 v 11.04 l -0.448,0.48 -1.728,0.128 v 1.44 h 8.384 v -1.44 l -1.792,-0.128 -0.48,-0.48 v -13.824 z"
         style="font-style:normal;font-variant:normal;font-weight:bold;font-stretch:normal;font-family:'Bitstream Charter';-inkscape-font-specification:'Bitstream Charter Bold'"
         id="path7143" />
      <path
         d="m 1908.0005,152.95537 v 9.312 c 0,1.632 0.032,2.656 1.152,3.392 0.736,0.512 1.6,0.704 2.656,0.704 1.312,0 2.976,-0.32 4.896,-1.024 v -1.536 c -0.64,0.16 -1.312,0.224 -2.08,0.224 -2.112,0 -2.656,-0.832 -2.656,-3.104 v -7.968 h 4.736 v -1.92 h -4.736 v -3.968 h -2.016 l -1.664,3.328 -2.368,1.344 v 1.216 z"
         style="font-style:normal;font-variant:normal;font-weight:bold;font-stretch:normal;font-family:'Bitstream Charter';-inkscape-font-specification:'Bitstream Charter Bold'"
         id="path7145" />
      <path
         d="m 1926.222,150.23537 c -5.024,0 -8.288,3.264 -8.288,8.192 0,4.832 3.232,8.032 8.032,8.032 5.056,0 8.288,-3.232 8.288,-7.968 0,-5.088 -3.136,-8.256 -8.032,-8.256 z m -0.128,1.696 c 2.272,0 3.744,2.272 3.744,6.464 0,4.16 -1.408,6.368 -3.776,6.368 -2.24,0 -3.68,-2.272 -3.68,-6.464 0,-4.128 1.44,-6.368 3.712,-6.368 z"
         style="font-style:normal;font-variant:normal;font-weight:bold;font-stretch:normal;font-family:'Bitstream Charter';-inkscape-font-specification:'Bitstream Charter Bold'"
         id="path7147" />
      <path
         d="m 1821.056,186.12029 v 1.28 l 1.824,0.192 0.544,0.448 v 17.632 l -0.544,0.448 -1.824,0.16 v 1.312 h 7.616 v -1.312 l -1.824,-0.16 -0.544,-0.448 v -7.616 c 0.576,-0.032 1.12,-0.064 1.6,-0.064 2.912,0 4.16,0.832 5.024,3.456 0.672,2.048 0.8,4.128 2.336,5.472 0.736,0.64 1.792,0.928 3.232,0.928 0.736,0 1.536,-0.096 2.496,-0.288 v -1.216 c -0.096,0 -0.192,0 -0.288,0 -2.432,0 -3.456,-0.384 -4.16,-2.272 -0.576,-1.504 -0.608,-3.264 -1.504,-4.736 -0.64,-1.056 -1.728,-1.728 -3.296,-2.144 3.456,-0.768 5.184,-2.56 5.184,-5.312 0,-3.936 -2.528,-5.76 -7.712,-5.76 z m 5.248,1.472 h 1.536 c 3.968,0 5.888,1.216 5.888,4.544 0,3.168 -1.824,4.416 -5.664,4.416 -0.192,0 -0.768,0 -1.76,-0.032 z"
         style="font-style:normal;font-variant:normal;font-weight:normal;font-stretch:normal;font-size:32px;line-height:1.25;font-family:'Bitstream Charter';-inkscape-font-specification:'Bitstream Charter'"
         id="path7149" />
      <path
         d="m 1855.2155,194.02429 c -0.736,-1.408 -1.952,-2.144 -3.52,-2.144 -1.344,0 -3.008,0.672 -5.12,1.92 v -1.76 h -1.216 l -3.712,1.152 v 0.992 h 2.272 v 11.584 l -0.544,0.512 -1.728,0.16 v 1.152 h 7.008 v -1.152 l -1.536,-0.16 -0.544,-0.512 v -10.72 c 1.408,-0.704 2.592,-1.056 3.648,-1.056 1.92,0 2.816,1.056 2.816,3.296 v 8.48 l -0.544,0.512 -1.536,0.16 v 1.152 h 6.816 v -1.152 l -1.504,-0.16 -0.576,-0.512 v -10.72 c 1.376,-0.672 2.592,-1.056 3.616,-1.056 1.984,0 2.88,1.056 2.88,3.296 v 8.48 l -0.576,0.512 -1.504,0.16 v 1.152 h 6.976 v -1.152 l -1.696,-0.16 -0.544,-0.512 v -9.024 c 0,-3.168 -1.6,-4.864 -4.128,-4.864 -1.28,0 -3.104,0.736 -5.504,2.144 z"
         style="font-style:normal;font-variant:normal;font-weight:normal;font-stretch:normal;font-size:32px;line-height:1.25;font-family:'Bitstream Charter';-inkscape-font-specification:'Bitstream Charter'"
         id="path7151" />
      <path
         d="m 1886.7065,196.29629 c 3.136,-0.896 4.768,-2.72 4.768,-5.184 0,-3.232 -2.464,-5.376 -6.304,-5.376 -4,0 -6.752,2.144 -6.752,4.256 0,1.024 0.704,1.728 1.728,1.728 0.512,0 0.928,-0.128 1.312,-0.416 v -3.008 c 0.928,-0.64 1.92,-0.928 3.04,-0.928 2.464,0 4.064,1.632 4.064,4.16 0,2.592 -1.728,4.128 -4.96,4.128 -0.224,0 -0.448,-0.032 -0.672,-0.032 v 1.888 c 0.608,-0.096 1.184,-0.128 1.696,-0.128 3.072,0 4.736,1.472 4.736,4 0,2.848 -2.112,5.056 -5.024,5.056 -0.96,0 -1.856,-0.256 -2.72,-0.768 l -0.992,-2.72 c -0.352,-0.128 -0.672,-0.16 -0.96,-0.16 -1.024,0 -1.792,0.704 -1.792,1.632 0,1.632 2.528,3.52 6.336,3.52 4.928,0 8.096,-2.912 8.096,-6.496 0,-2.912 -2.048,-4.896 -5.6,-5.152 z"
         style="font-style:normal;font-variant:normal;font-weight:normal;font-stretch:normal;font-size:32px;line-height:1.25;font-family:'Bitstream Charter';-inkscape-font-specification:'Bitstream Charter'"
         id="path7153" />
      <path
         d="m 1899.463,192.20029 c -1.12,0 -2.016,0.864 -2.016,2.016 0,1.12 0.896,2.048 2.016,2.048 1.12,0 2.048,-0.928 2.048,-2.048 0,-1.152 -0.928,-2.016 -2.048,-2.016 z m 0,11.616 c -1.12,0 -2.016,0.896 -2.016,2.048 0,1.152 0.896,2.016 2.016,2.016 1.12,0 2.048,-0.896 2.048,-2.016 0,-1.152 -0.928,-2.048 -2.048,-2.048 z"
         style="font-style:normal;font-variant:normal;font-weight:normal;font-stretch:normal;font-size:32px;line-height:1.25;font-family:'Bitstream Charter';-inkscape-font-specification:'Bitstream Charter'"
         id="path7155" />
      <path
         d="m 1909.0745,205.06429 c 7.072,-5.632 10.944,-9.248 10.944,-13.28 0,-3.616 -2.528,-6.048 -6.656,-6.048 -3.968,0 -6.784,2.272 -6.784,4.512 0,1.088 0.672,1.792 1.792,1.792 0.512,0 0.992,-0.16 1.44,-0.48 v -3.424 c 0.96,-0.544 1.888,-0.768 2.848,-0.768 2.656,0 4.256,1.792 4.256,4.832 0,4.192 -4,7.68 -11.008,13.376 v 2.016 h 14.816 v -5.248 h -1.44 l -0.576,2.72 z"
         style="font-style:normal;font-variant:normal;font-weight:normal;font-stretch:normal;font-size:32px;line-height:1.25;font-family:'Bitstream Charter';-inkscape-font-specification:'Bitstream Charter'"
         id="path7157" />
      <path
         d="m 1932.519,196.29629 c 3.136,-0.896 4.768,-2.72 4.768,-5.184 0,-3.232 -2.464,-5.376 -6.304,-5.376 -4,0 -6.752,2.144 -6.752,4.256 0,1.024 0.704,1.728 1.728,1.728 0.512,0 0.928,-0.128 1.312,-0.416 v -3.008 c 0.928,-0.64 1.92,-0.928 3.04,-0.928 2.464,0 4.064,1.632 4.064,4.16 0,2.592 -1.728,4.128 -4.96,4.128 -0.224,0 -0.448,-0.032 -0.672,-0.032 v 1.888 c 0.608,-0.096 1.184,-0.128 1.696,-0.128 3.072,0 4.736,1.472 4.736,4 0,2.848 -2.112,5.056 -5.024,5.056 -0.96,0 -1.856,-0.256 -2.72,-0.768 l -0.992,-2.72 c -0.352,-0.128 -0.672,-0.16 -0.96,-0.16 -1.024,0 -1.792,0.704 -1.792,1.632 0,1.632 2.528,3.52 6.336,3.52 4.928,0 8.096,-2.912 8.096,-6.496 0,-2.912 -2.048,-4.896 -5.6,-5.152 z"
         style="font-style:normal;font-variant:normal;font-weight:normal;font-stretch:normal;font-size:32px;line-height:1.25;font-family:'Bitstream Charter';-inkscape-font-specification:'Bitstream Charter'"
         id="path7159" />
      <path
         d="m 1941.6915,198.82429 v 2.144 h 7.2 v -2.144 z"
         style="font-style:normal;font-variant:normal;font-weight:normal;font-stretch:normal;font-size:32px;line-height:1.25;font-family:'Bitstream Charter';-inkscape-font-specification:'Bitstream Charter'"
         id="path7161" />
      <path
         d="m 1960.519,196.29629 c 3.136,-0.896 4.768,-2.72 4.768,-5.184 0,-3.232 -2.464,-5.376 -6.304,-5.376 -4,0 -6.752,2.144 -6.752,4.256 0,1.024 0.704,1.728 1.728,1.728 0.512,0 0.928,-0.128 1.312,-0.416 v -3.008 c 0.928,-0.64 1.92,-0.928 3.04,-0.928 2.464,0 4.064,1.632 4.064,4.16 0,2.592 -1.728,4.128 -4.96,4.128 -0.224,0 -0.448,-0.032 -0.672,-0.032 v 1.888 c 0.608,-0.096 1.184,-0.128 1.696,-0.128 3.072,0 4.736,1.472 4.736,4 0,2.848 -2.112,5.056 -5.024,5.056 -0.96,0 -1.856,-0.256 -2.72,-0.768 l -0.992,-2.72 c -0.352,-0.128 -0.672,-0.16 -0.96,-0.16 -1.024,0 -1.792,0.704 -1.792,1.632 0,1.632 2.528,3.52 6.336,3.52 4.928,0 8.096,-2.912 8.096,-6.496 0,-2.912 -2.048,-4.896 -5.6,-5.152 z"
         style="font-style:normal;font-variant:normal;font-weight:normal;font-stretch:normal;font-size:32px;line-height:1.25;font-family:'Bitstream Charter';-inkscape-font-specification:'Bitstream Charter'"
         id="path7163" />
      <path
         d="m 1971.4195,186.12029 v 10.56 c 0.704,-0.128 1.632,-0.192 2.816,-0.192 4.448,0 6.656,1.504 6.656,4.8 0,2.976 -2.048,5.12 -5.056,5.12 -0.704,0 -1.44,-0.128 -2.144,-0.384 l -1.28,-2.752 c -0.32,-0.064 -0.576,-0.096 -0.768,-0.096 -1.088,0 -1.856,0.704 -1.856,1.696 0,1.536 2.208,3.008 5.504,3.008 5.248,0 8.544,-3.104 8.544,-7.232 0,-3.648 -2.72,-6.144 -7.008,-6.144 -1.024,0 -2.176,0.16 -3.424,0.512 v -6.4 h 9.472 v -2.496 z"
         style="font-style:normal;font-variant:normal;font-weight:normal;font-stretch:normal;font-size:32px;line-height:1.25;font-family:'Bitstream Charter';-inkscape-font-specification:'Bitstream Charter'"
         id="path7165" />
      <path
         d="m 1821.056,226.12029 v 1.28 l 1.824,0.192 0.544,0.448 v 17.632 l -0.544,0.448 -1.824,0.16 v 1.312 h 7.616 v -1.312 l -1.824,-0.16 -0.544,-0.448 v -7.616 c 0.576,-0.032 1.12,-0.064 1.6,-0.064 2.912,0 4.16,0.832 5.024,3.456 0.672,2.048 0.8,4.128 2.336,5.472 0.736,0.64 1.792,0.928 3.232,0.928 0.736,0 1.536,-0.096 2.496,-0.288 v -1.216 c -0.096,0 -0.192,0 -0.288,0 -2.432,0 -3.456,-0.384 -4.16,-2.272 -0.576,-1.504 -0.608,-3.264 -1.504,-4.736 -0.64,-1.056 -1.728,-1.728 -3.296,-2.144 3.456,-0.768 5.184,-2.56 5.184,-5.312 0,-3.936 -2.528,-5.76 -7.712,-5.76 z m 5.248,1.472 h 1.536 c 3.968,0 5.888,1.216 5.888,4.544 0,3.168 -1.824,4.416 -5.664,4.416 -0.192,0 -0.768,0 -1.76,-0.032 z"
         style="font-style:normal;font-variant:normal;font-weight:normal;font-stretch:normal;font-size:32px;line-height:1.25;font-family:'Bitstream Charter';-inkscape-font-specification:'Bitstream Charter'"
         id="path7167" />
      <path
         d="m 1855.2155,234.02429 c -0.736,-1.408 -1.952,-2.144 -3.52,-2.144 -1.344,0 -3.008,0.672 -5.12,1.92 v -1.76 h -1.216 l -3.712,1.152 v 0.992 h 2.272 v 11.584 l -0.544,0.512 -1.728,0.16 v 1.152 h 7.008 v -1.152 l -1.536,-0.16 -0.544,-0.512 v -10.72 c 1.408,-0.704 2.592,-1.056 3.648,-1.056 1.92,0 2.816,1.056 2.816,3.296 v 8.48 l -0.544,0.512 -1.536,0.16 v 1.152 h 6.816 v -1.152 l -1.504,-0.16 -0.576,-0.512 v -10.72 c 1.376,-0.672 2.592,-1.056 3.616,-1.056 1.984,0 2.88,1.056 2.88,3.296 v 8.48 l -0.576,0.512 -1.504,0.16 v 1.152 h 6.976 v -1.152 l -1.696,-0.16 -0.544,-0.512 v -9.024 c 0,-3.168 -1.6,-4.864 -4.128,-4.864 -1.28,0 -3.104,0.736 -5.504,2.144 z"
         style="font-style:normal;font-variant:normal;font-weight:normal;font-stretch:normal;font-size:32px;line-height:1.25;font-family:'Bitstream Charter';-inkscape-font-specification:'Bitstream Charter'"
         id="path7169" />
      <path
         d="m 1879.7945,226.12029 v 10.56 c 0.704,-0.128 1.632,-0.192 2.816,-0.192 4.448,0 6.656,1.504 6.656,4.8 0,2.976 -2.048,5.12 -5.056,5.12 -0.704,0 -1.44,-0.128 -2.144,-0.384 l -1.28,-2.752 c -0.32,-0.064 -0.576,-0.096 -0.768,-0.096 -1.088,0 -1.856,0.704 -1.856,1.696 0,1.536 2.208,3.008 5.504,3.008 5.248,0 8.544,-3.104 8.544,-7.232 0,-3.648 -2.72,-6.144 -7.008,-6.144 -1.024,0 -2.176,0.16 -3.424,0.512 v -6.4 h 9.472 v -2.496 z"
         style="font-style:normal;font-variant:normal;font-weight:normal;font-stretch:normal;font-size:32px;line-height:1.25;font-family:'Bitstream Charter';-inkscape-font-specification:'Bitstream Charter'"
         id="path7171" />
      <path
         d="m 1899.463,232.20029 c -1.12,0 -2.016,0.864 -2.016,2.016 0,1.12 0.896,2.048 2.016,2.048 1.12,0 2.048,-0.928 2.048,-2.048 0,-1.152 -0.928,-2.016 -2.048,-2.016 z m 0,11.616 c -1.12,0 -2.016,0.896 -2.016,2.048 0,1.152 0.896,2.016 2.016,2.016 1.12,0 2.048,-0.896 2.048,-2.016 0,-1.152 -0.928,-2.048 -2.048,-2.048 z"
         style="font-style:normal;font-variant:normal;font-weight:normal;font-stretch:normal;font-size:32px;line-height:1.25;font-family:'Bitstream Charter';-inkscape-font-specification:'Bitstream Charter'"
         id="path7173" />
      <path
         d="m 1914.8345,235.78429 c -3.488,-1.248 -5.184,-2.688 -5.184,-4.8 0,-2.112 1.664,-3.776 3.872,-3.776 2.336,0 3.872,1.6 3.872,4.16 0,1.696 -0.896,3.328 -2.56,4.416 z m 1.344,0.576 c 2.368,-1.248 3.68,-3.2 3.68,-5.312 0,-3.104 -2.4,-5.376 -6.24,-5.376 -3.968,0 -6.624,2.4 -6.624,5.792 0,2.304 1.152,4 3.36,4.928 -2.912,1.12 -4.384,3.008 -4.384,5.536 0,3.616 2.784,6.176 7.392,6.176 4.448,0 7.392,-2.848 7.392,-6.24 0,-2.496 -1.568,-4.448 -4.576,-5.504 z m -4.608,0.704 c 4.288,1.6 6.432,2.592 6.432,5.12 0,2.528 -1.792,4.256 -4.544,4.256 -3.072,0 -5.024,-1.888 -5.024,-4.704 0,-2.144 0.96,-3.52 3.136,-4.672 z"
         style="font-style:normal;font-variant:normal;font-weight:normal;font-stretch:normal;font-size:32px;line-height:1.25;font-family:'Bitstream Charter';-inkscape-font-specification:'Bitstream Charter'"
         id="path7175" />
      <path
         d="m 1923.879,238.82429 v 2.144 h 7.2 v -2.144 z"
         style="font-style:normal;font-variant:normal;font-weight:normal;font-stretch:normal;font-size:32px;line-height:1.25;font-family:'Bitstream Charter';-inkscape-font-specification:'Bitstream Charter'"
         id="path7177" />
      <path
         d="m 1942.5145,225.73629 -6.944,2.08 v 1.344 l 5.024,-0.896 v 17.216 l -0.384,0.544 -3.68,0.192 v 1.376 h 10.72 v -1.344 l -3.456,-0.16 -0.384,-0.48 v -19.872 z"
         style="font-style:normal;font-variant:normal;font-weight:normal;font-stretch:normal;font-size:32px;line-height:1.25;font-family:'Bitstream Charter';-inkscape-font-specification:'Bitstream Charter'"
         id="path7179" />
      <path
         d="m 1959.271,225.73629 c -4.576,0 -7.584,4.032 -7.584,11.104 0,7.072 3.008,11.136 7.584,11.136 4.576,0 7.584,-4.064 7.584,-11.136 0,-7.072 -3.008,-11.104 -7.584,-11.104 z m 0,1.504 c 2.944,0 4.544,3.264 4.544,9.6 0,6.336 -1.6,9.6 -4.544,9.6 -2.944,0 -4.576,-3.232 -4.576,-9.568 0,-6.368 1.632,-9.632 4.576,-9.632 z"
         style="font-style:normal;font-variant:normal;font-weight:normal;font-stretch:normal;font-size:32px;line-height:1.25;font-family:'Bitstream Charter';-inkscape-font-specification:'Bitstream Charter'"
         id="path7181" />
      <path
         d="m 1821.056,287.59229 h 16.48 v -5.216 h -1.664 l -0.544,3.232 -0.448,0.512 h -8.576 v -8.96 h 5.248 l 0.448,0.48 0.32,2.304 h 1.504 v -7.04 h -1.504 l -0.32,2.336 -0.448,0.448 h -5.248 v -8.096 h 7.392 l 0.448,0.48 0.448,2.72 h 1.792 v -4.672 h -15.328 v 1.28 l 1.824,0.192 0.544,0.448 v 17.632 l -0.544,0.448 -1.824,0.16 z"
         style="font-style:normal;font-variant:normal;font-weight:normal;font-stretch:normal;font-size:32px;line-height:1.25;font-family:'Bitstream Charter';-inkscape-font-specification:'Bitstream Charter'"
         id="path7183" />
      <path
         d="m 1839.3655,287.59229 h 7.456 v -1.152 l -1.984,-0.16 -0.544,-0.512 v -11.648 h 4.48 v -1.504 h -4.448 v -2.336 c 0,-2.688 0.704,-4.352 2.08,-4.992 l 2.912,1.92 c 0.832,-0.224 1.312,-0.832 1.312,-1.6 0,-1.024 -1.024,-1.824 -2.496,-1.824 -3.776,0 -6.496,3.168 -6.496,8.48 0,0.096 0,0.224 0,0.352 l -2.048,0.48 v 1.024 h 2.048 v 11.648 l -0.576,0.512 -1.696,0.16 z"
         style="font-style:normal;font-variant:normal;font-weight:normal;font-stretch:normal;font-size:32px;line-height:1.25;font-family:'Bitstream Charter';-inkscape-font-specification:'Bitstream Charter'"
         id="path7185" />
      <path
         d="m 1862.0745,285.06429 c 7.072,-5.632 10.944,-9.248 10.944,-13.28 0,-3.616 -2.528,-6.048 -6.656,-6.048 -3.968,0 -6.784,2.272 -6.784,4.512 0,1.088 0.672,1.792 1.792,1.792 0.512,0 0.992,-0.16 1.44,-0.48 v -3.424 c 0.96,-0.544 1.888,-0.768 2.848,-0.768 2.656,0 4.256,1.792 4.256,4.832 0,4.192 -4,7.68 -11.008,13.376 v 2.016 h 14.816 v -5.248 h -1.44 l -0.576,2.72 z"
         style="font-style:normal;font-variant:normal;font-weight:normal;font-stretch:normal;font-size:32px;line-height:1.25;font-family:'Bitstream Charter';-inkscape-font-specification:'Bitstream Charter'"
         id="path7187" />
      <path
         d="m 1880.463,272.20029 c -1.12,0 -2.016,0.864 -2.016,2.016 0,1.12 0.896,2.048 2.016,2.048 1.12,0 2.048,-0.928 2.048,-2.048 0,-1.152 -0.928,-2.016 -2.048,-2.016 z m 0,11.616 c -1.12,0 -2.016,0.896 -2.016,2.048 0,1.152 0.896,2.016 2.016,2.016 1.12,0 2.048,-0.896 2.048,-2.016 0,-1.152 -0.928,-2.048 -2.048,-2.048 z"
         style="font-style:normal;font-variant:normal;font-weight:normal;font-stretch:normal;font-size:32px;line-height:1.25;font-family:'Bitstream Charter';-inkscape-font-specification:'Bitstream Charter'"
         id="path7189" />
      <path
         d="m 1897.3385,265.92829 -10.912,13.376 v 2.08 h 10.304 v 7.392 h 2.464 v -7.392 h 3.616 v -2.08 h -3.616 v -13.376 z m -0.608,3.488 v 9.888 h -7.904 z"
         style="font-style:normal;font-variant:normal;font-weight:normal;font-stretch:normal;font-size:32px;line-height:1.25;font-family:'Bitstream Charter';-inkscape-font-specification:'Bitstream Charter'"
         id="path7191" />
      <path
         d="m 1904.879,278.82429 v 2.144 h 7.2 v -2.144 z"
         style="font-style:normal;font-variant:normal;font-weight:normal;font-stretch:normal;font-size:32px;line-height:1.25;font-family:'Bitstream Charter';-inkscape-font-specification:'Bitstream Charter'"
         id="path7193" />
      <path
         d="m 1927.7385,264.74429 c -7.84,0.512 -12.576,5.792 -12.576,13.984 0,5.76 3.136,9.248 7.456,9.248 4.384,0 7.744,-3.328 7.744,-7.648 0,-4.064 -2.848,-6.976 -6.656,-6.976 -1.888,0 -3.776,0.672 -5.44,1.952 0.992,-5.696 4.256,-8.704 9.376,-8.704 0.032,0 0.064,0 0.096,0 z m -9.536,11.968 c 1.312,-0.96 2.88,-1.44 4.64,-1.44 2.72,0 4.608,2.048 4.608,5.344 0,3.392 -1.92,5.824 -4.576,5.824 -3.008,0 -4.736,-2.688 -4.736,-7.776 0,-0.608 0,-1.28 0.064,-1.952 z"
         style="font-style:normal;font-variant:normal;font-weight:normal;font-stretch:normal;font-size:32px;line-height:1.25;font-family:'Bitstream Charter';-inkscape-font-specification:'Bitstream Charter'"
         id="path7195" />
      <path
         d="m 1822.432,306.20834 v 1.216 l 2.272,0.192 0.352,0.448 -3.424,17.792 -0.512,0.448 -2.048,0.16 v 1.216 h 7.808 v -1.216 l -2.08,-0.16 -0.384,-0.448 1.504,-7.68 c 0.672,-0.032 1.248,-0.064 1.76,-0.064 0.864,0 1.472,0.064 1.856,0.256 1.632,0.736 1.824,2.016 2.24,3.872 0.48,2.176 0.768,3.84 1.92,4.8 0.608,0.512 1.6,0.8 2.944,0.8 0.512,0 1.248,-0.064 2.24,-0.192 v -1.184 c -0.096,0 -0.192,0 -0.288,0 -2.464,0 -3.072,-0.8 -3.744,-3.232 -0.864,-3.008 -1.12,-5.088 -3.936,-5.696 4.096,-0.896 6.368,-3.392 6.368,-6.656 0,-3.296 -2.208,-4.672 -6.752,-4.672 z m 3.776,10.432 1.728,-8.928 c 0.48,-0.032 0.928,-0.064 1.344,-0.064 3.36,0 4.96,1.152 4.96,3.712 0,3.296 -2.4,5.312 -6.848,5.312 -0.384,0 -0.768,0 -1.184,-0.032 z"
         style="font-style:italic;font-variant:normal;font-weight:normal;font-stretch:normal;font-size:32px;line-height:1.25;font-family:'Bitstream Charter';-inkscape-font-specification:'Bitstream Charter Italic'"
         id="path7197" />
      <path
         d="m 1845.042,312.25634 -4.736,1.024 v 0.832 l 2.624,0.512 -2.656,13.056 h 2.688 l 2.016,-10.848 c 2.016,-1.824 3.712,-2.624 4.544,-2.624 1.12,0 1.76,0.704 1.76,1.888 0,0.448 -0.096,1.184 -0.288,2.208 l -1.92,9.376 h 2.656 l 2.08,-10.88 c 1.472,-1.728 3.136,-2.592 4.352,-2.592 1.056,0 1.568,0.704 1.568,2.048 0,0.448 -0.064,1.12 -0.288,2.048 l -1.376,5.92 c -0.16,0.736 -0.256,1.344 -0.256,1.728 0,1.312 0.736,1.92 2.336,1.92 0.864,0 2.144,-0.352 3.84,-0.992 v -0.864 c -0.736,0.192 -1.344,0.288 -1.792,0.288 -1.024,0 -1.632,-0.576 -1.632,-1.6 0,-0.512 0.16,-1.216 0.352,-2.08 l 1.088,-4.96 c 0.256,-1.088 0.384,-1.984 0.384,-2.688 0,-1.696 -1.088,-2.72 -2.624,-2.72 -1.536,0 -3.52,0.96 -5.856,2.912 -0.032,-1.888 -0.992,-2.912 -2.592,-2.912 -1.504,0 -3.552,0.992 -6.048,3.04 l 0.576,-3.04 z"
         style="font-style:italic;font-variant:normal;font-weight:normal;font-stretch:normal;font-size:32px;line-height:1.25;font-family:'Bitstream Charter';-inkscape-font-specification:'Bitstream Charter Italic'"
         id="path7199" />
      <path
         d="m 1889.8035,304.76834 c -3.744,0.48 -6.784,1.76 -9.12,3.872 -3.552,3.2 -5.472,7.52 -5.472,12.096 0,4.608 2.528,7.328 6.304,7.328 4.928,0 8.704,-4.128 8.704,-8.96 0,-3.616 -2.24,-5.824 -5.6,-5.824 -1.76,0 -3.648,0.64 -5.504,2.016 1.312,-5.056 5.312,-8.352 10.752,-8.896 z m -11.104,12.16 c 1.344,-1.12 2.944,-1.728 4.544,-1.728 2.72,0 4.096,1.568 4.096,4.576 0,3.968 -2.528,6.816 -5.504,6.816 -2.336,0 -3.744,-2.016 -3.744,-5.568 0,-1.472 0.192,-2.816 0.608,-4.096 z"
         style="font-style:italic;font-variant:normal;font-weight:normal;font-stretch:normal;font-size:32px;line-height:1.25;font-family:'Bitstream Charter';-inkscape-font-specification:'Bitstream Charter Italic'"
         id="path7201" />
      <path
         d="m 1897.6,312.41634 c -1.056,0 -1.888,0.832 -1.888,1.888 0,1.056 0.864,1.92 1.888,1.92 1.056,0 1.888,-0.864 1.888,-1.92 0,-1.056 -0.832,-1.888 -1.888,-1.888 z m -2.208,11.616 c -1.056,0 -1.888,0.864 -1.888,1.92 0,1.056 0.864,1.888 1.888,1.888 1.056,0 1.92,-0.832 1.92,-1.888 0,-1.056 -0.864,-1.92 -1.92,-1.92 z"
         style="font-style:italic;font-variant:normal;font-weight:normal;font-stretch:normal;font-size:32px;line-height:1.25;font-family:'Bitstream Charter';-inkscape-font-specification:'Bitstream Charter Italic'"
         id="path7203" />
      <path
         d="m 1912.3955,316.25634 c 4,-0.992 6.176,-3.328 6.176,-6.048 0,-2.656 -2.016,-4.384 -5.472,-4.384 -4.416,0 -7.616,2.368 -7.616,4.48 0,0.896 0.608,1.504 1.408,1.504 0.384,0 0.864,-0.16 1.504,-0.384 l 0.448,-3.072 c 0.992,-0.672 1.984,-1.024 3.04,-1.024 2.208,0 3.584,1.312 3.584,3.424 0,2.72 -2.336,4.928 -5.984,4.928 -0.256,0 -0.512,0 -0.8,-0.032 l -0.256,1.792 c 0.704,-0.064 1.344,-0.128 1.92,-0.128 2.496,0 3.904,1.312 3.904,3.488 0,3.2 -2.528,5.728 -5.984,5.728 -0.992,0 -1.856,-0.256 -2.688,-0.768 l -0.48,-2.752 c -0.416,-0.16 -0.8,-0.224 -1.12,-0.224 -1.088,0 -1.76,0.704 -1.76,1.792 0,1.92 2.304,3.456 5.696,3.456 2.176,0 4.288,-0.64 5.952,-1.76 2.176,-1.504 3.424,-3.712 3.424,-5.856 0,-2.432 -1.76,-4.032 -4.896,-4.16 z"
         style="font-style:italic;font-variant:normal;font-weight:normal;font-stretch:normal;font-size:32px;line-height:1.25;font-family:'Bitstream Charter';-inkscape-font-specification:'Bitstream Charter Italic'"
         id="path7205" />
      <path
         d="m 1921.152,318.91234 -0.416,2.144 h 7.168 l 0.416,-2.144 z"
         style="font-style:italic;font-variant:normal;font-weight:normal;font-stretch:normal;font-size:32px;line-height:1.25;font-family:'Bitstream Charter';-inkscape-font-specification:'Bitstream Charter Italic'"
         id="path7207" />
      <path
         d="m 1934.5075,306.20834 -1.024,5.344 h 1.504 l 1.056,-2.912 h 9.888 l -14.304,20.224 h 2.656 l 0.128,-0.704 14.592,-20.672 0.256,-1.28 z"
         style="font-style:italic;font-variant:normal;font-weight:normal;font-stretch:normal;font-size:32px;line-height:1.25;font-family:'Bitstream Charter';-inkscape-font-specification:'Bitstream Charter Italic'"
         id="path7209" />
    </g>
  </g>
</svg>
