<?xml version="1.0" encoding="UTF-8" standalone="no"?>
<!-- Created with Inkscape (http://www.inkscape.org/) -->

<svg
   width="77.872131mm"
   height="79.586548mm"
   viewBox="0 0 77.872133 79.586547"
   version="1.1"
   id="svg8"
   xmlns="http://www.w3.org/2000/svg"
   xmlns:svg="http://www.w3.org/2000/svg"
   xmlns:rdf="http://www.w3.org/1999/02/22-rdf-syntax-ns#"
   xmlns:cc="http://creativecommons.org/ns#"
   xmlns:dc="http://purl.org/dc/elements/1.1/">
  <defs
     id="defs2" />
  <metadata
     id="metadata5">
    <rdf:RDF>
      <cc:Work
         rdf:about="">
        <dc:format>image/svg+xml</dc:format>
        <dc:type
           rdf:resource="http://purl.org/dc/dcmitype/StillImage" />
      </cc:Work>
    </rdf:RDF>
  </metadata>
  <g
     id="layer1"
     transform="translate(-23.637308,-80.849789)"
     style="display:inline">
    <path
       style="fill:#707070;fill-opacity:1;stroke-width:0.298648"
       d="m 65.423904,80.851163 c -0.170233,-0.01733 -0.385803,0.129468 -0.594278,0.426847 -0.372534,0.531405 -0.711142,0.598807 -0.962732,0.191719 -0.519652,-0.840822 -3.926938,-0.726112 -5.802746,0.195337 -0.830453,0.407948 -1.868887,0.613958 -2.307871,0.457853 -0.438983,-0.156106 -1.415825,0.296273 -2.170927,1.005623 -0.905653,0.85085 -1.747261,1.146355 -2.4722,0.868164 -0.757762,-0.290761 -0.963102,-0.202506 -0.661975,0.284737 0.278609,0.450784 -0.0069,0.706935 -0.788582,0.706935 -0.67396,0 -2.158614,0.523946 -3.29954,1.164786 -1.140928,0.640839 -2.19275,1.04685 -2.337326,0.902271 -0.144577,-0.144581 -0.722085,0.244586 -1.283126,0.864545 -0.788522,0.871342 -0.887151,1.476004 -0.435115,2.664955 0.514479,1.35315 0.407537,1.583031 -0.888834,1.90841 -0.941729,0.23635 -1.473814,0.801682 -1.473814,1.566312 0,0.65804 -0.271899,1.196311 -0.604096,1.196311 -0.332195,0 -0.603581,-0.27191 -0.603581,-0.604099 0,-0.3322 -0.408109,-0.604097 -0.906404,-0.604097 -0.498295,0 -0.905889,0.242298 -0.905889,0.53847 0,0.296169 -0.735345,0.723238 -1.634008,0.948777 -0.898663,0.225541 -1.978898,0.902896 -2.400887,1.505336 -0.421992,0.60243 -1.695109,1.26931 -2.829285,1.482079 -1.348039,0.2529 -2.170671,0.800802 -2.375048,1.582336 -0.20786,0.79478 -0.634905,1.07219 -1.274342,0.82682 -0.529026,-0.20302 -0.996143,-0.0685 -1.037661,0.29921 -0.100854,0.89308 -0.251156,1.39723 -0.747242,2.50424 -0.549066,1.22536 -0.186349,3.43617 0.710552,4.33306 0.998722,0.99874 0.893564,2.2572 -0.224277,2.68615 -0.578842,0.22212 -0.791475,0.73754 -0.552421,1.33997 0.213654,0.53846 0.493051,1.76347 0.620633,2.72231 0.293362,2.20502 0.530889,2.42735 1.555462,1.45624 0.454813,-0.43107 1.234445,-0.78393 1.732711,-0.78393 1.163389,0 2.047843,2.12038 1.226799,2.94142 -0.342307,0.34231 -0.622702,1.38345 -0.622702,2.31356 0,1.28849 -0.287332,1.69085 -1.207678,1.69085 -0.671097,0 -1.208196,0.40258 -1.208196,0.90589 0,0.49829 0.271915,0.9064 0.604097,0.9064 0.332184,0 0.582261,0.74736 0.55604,1.66088 -0.02622,0.91398 -0.184366,1.32113 -0.351917,0.90589 -0.357274,-0.88545 -2.015897,-1.02535 -2.015897,-0.17001 0,0.32176 -0.408141,0.4284 -0.906404,0.23719 -0.628663,-0.24125 -0.905889,0.042 -0.905889,0.92501 0,0.69991 0.309703,1.27279 0.68833,1.27279 0.378627,0 1.028946,0.46523 1.444874,1.03404 0.658817,0.90098 0.888992,0.92405 1.786969,0.1788 0.928182,-0.77034 1.011372,-0.70794 0.83871,0.62684 -0.105454,0.81519 0.05598,1.88971 0.358635,2.38797 0.474853,0.78178 0.410041,0.79231 -0.471807,0.077 -0.562057,-0.45594 -1.021644,-0.62621 -1.021644,-0.37878 0,0.24743 -0.400346,0.1175 -0.889349,-0.28836 -0.709382,-0.58873 -1.07555,-0.55123 -1.811777,0.185 -0.507524,0.50752 -0.922941,1.0487 -0.922941,1.20252 0,0.28908 2.859088,1.2231 3.925859,1.2826 0.332187,0.0186 0.916913,0.3055 1.299662,0.63769 0.503013,0.43659 0.230246,0.85509 -0.984954,1.50999 -1.396066,0.75239 -1.594215,1.13642 -1.168402,2.26497 0.582485,1.54381 1.315466,1.71317 2.471682,0.57051 1.090935,-1.07809 2.895372,-1.70874 3.615801,-1.26349 0.337981,0.20887 0.04786,0.87727 -0.671793,1.54771 -0.696743,0.64914 -1.075055,1.49058 -0.840777,1.86965 0.314147,0.5083 0.489381,0.49865 0.66766,-0.0362 0.132958,-0.39887 0.778772,-0.72502 1.435055,-0.72502 0.656283,0 1.024906,-0.27189 0.819586,-0.6041 -0.205321,-0.3322 0.05056,-0.60409 0.568442,-0.60409 0.517877,0 0.884343,-0.20355 0.813903,-0.45269 -0.177395,-0.62725 1.517118,-3.17087 2.112534,-3.17087 0.267332,0 0.306716,0.95462 0.08785,2.12132 -0.344819,1.83812 -0.259623,2.0684 0.636653,1.72445 0.905148,-0.34734 0.938575,-0.24406 0.2682,0.8294 -0.579231,0.92751 -1.212606,1.15643 -2.595708,0.93845 -1.617569,-0.25492 -1.736777,-0.17701 -1.031459,0.67282 0.99241,1.1958 1.174324,1.1936 4.048847,-0.0527 1.286248,-0.5577 2.610271,-1.03468 2.942455,-1.05988 0.332187,-0.0252 1.215761,-0.39368 1.96319,-0.81907 1.274461,-0.72533 1.633231,-0.54723 1.406631,0.69918 -0.05244,0.28844 0.587412,0.35317 1.422135,0.14366 1.120442,-0.2812 1.437008,-0.16964 1.208712,0.4253 -0.17689,0.461 0.32635,1.0954 1.176155,1.48259 1.214602,0.5534 1.559256,1.26565 1.889292,3.90726 0.359992,2.88136 -0.132305,7.20572 -1.275893,11.2112 v 5.3e-4 c -0.323961,1.13516 -0.301005,1.3349 2.21537,1.27071 2.152049,-1.92421 4.198972,-3.96317 6.130893,-6.10815 -0.145092,-4.85733 -0.415359,-6.1126 -1.95802,-9.1674 -1.950474,-3.86233 -2.469692,-6.44278 -0.871265,-4.32945 0.494202,0.65341 0.886767,0.836 0.886767,0.41237 0,-0.48525 0.436507,-0.62147 1.207678,-0.37672 0.902485,0.28644 1.212572,0.10593 1.226282,-0.71417 0.01732,-1.0346 0.05382,-1.03706 0.634069,-0.0408 0.338579,0.58134 1.009602,1.05678 1.491382,1.05678 1.061882,0 1.147675,1.29922 0.151413,2.29547 -0.398632,0.39864 -0.602689,0.75425 -0.453202,0.79065 0.250563,0.061 3.485989,0.46574 5.254974,0.65733 0.415243,0.045 0.754994,0.44435 0.754994,0.88728 0,0.74216 1.084345,1.07434 2.815849,0.86248 0.425734,-0.0521 0.586505,0.45463 0.408245,1.28726 -0.286375,1.33756 -0.269243,1.3429 0.656807,0.20102 0.522933,-0.64482 0.950846,-1.66411 0.950846,-2.26498 0,-1.36512 0.964702,-1.41952 1.705321,-0.0961 0.360469,0.64412 1.011992,0.87755 1.842265,0.66043 0.706393,-0.18473 1.284161,-0.0892 1.284161,0.21187 0,0.30108 0.271904,0.54725 0.604096,0.54725 0.332193,0 0.604097,-0.39889 0.604097,-0.88676 0,-0.58895 0.35496,-0.75771 1.056783,-0.50178 0.954762,0.34819 0.946869,0.25981 -0.0832,-0.91364 -0.895647,-1.0203 -0.988121,-1.48284 -0.429948,-2.15542 0.575646,-0.69358 0.362042,-1.01066 -1.12448,-1.66863 -2.544484,-1.12631 -2.292813,-1.6717 0.592731,-1.28468 2.071735,0.27787 2.372682,0.18078 2.049486,-0.66146 -0.208338,-0.54292 -0.8645,-0.98702 -1.457793,-0.98702 -1.681242,0 -2.110918,-1.9671 -0.642853,-2.94246 1.217263,-0.80874 1.839894,-2.9314 0.642853,-2.19159 -0.332198,0.20532 -0.603581,0.0856 -0.603581,-0.26614 0,-0.35179 0.572362,-0.63975 1.272275,-0.63975 0.940634,0 1.171832,0.26314 0.885733,1.00872 -0.212866,0.55477 -0.148119,1.16644 0.144179,1.35909 0.802693,0.52921 1.442683,3.67213 0.747758,3.67213 -0.328092,0 -0.440426,0.40585 -0.250116,0.90175 0.345241,0.89956 2.751306,0.72182 4.145483,-0.30592 0.724829,-0.53441 2.753072,-0.41473 3.785291,0.22324 1.027324,0.63493 0.932339,-0.2825 -0.196374,-1.89394 -0.517498,-0.73889 -0.773403,-1.61453 -0.568431,-1.94613 0.204973,-0.3316 -0.0376,-0.60307 -0.538982,-0.60307 -0.501359,0 -1.213697,-0.47547 -1.583373,-1.05678 -0.560202,-0.88096 -0.613966,-0.78025 -0.320913,0.6041 0.202274,0.95538 0.09049,1.66088 -0.263552,1.66088 -0.338502,0 -0.615455,-0.54382 -0.615455,-1.2082 0,-0.66437 -0.339749,-1.22482 -0.754994,-1.24592 -0.415237,-0.0211 -0.211687,-0.25219 0.452687,-0.51366 2.132941,-0.83944 5.773078,-0.0494 6.349473,1.37821 0.285909,0.70814 0.537025,0.94751 0.558112,0.53227 0.02109,-0.41524 0.445823,-0.755 0.944139,-0.755 0.49829,0 1.404303,-0.47546 2.013294,-1.05678 1.302729,-1.24358 2.033985,-1.48455 5.123207,-1.68878 2.482293,-0.16411 3.882343,-0.87799 1.721853,-0.87799 -1.330138,0 -1.649649,-0.95074 -1.376652,-4.09432 0.129646,-1.493 -1.311777,-3.35981 -2.062929,-2.67167 -0.254688,0.23334 -0.312711,-0.1874 -0.128667,-0.93483 0.384969,-1.56339 0.418544,-1.5476 -1.626764,-0.76998 -0.97753,0.37164 -1.549268,0.37574 -1.549268,0.0114 0,-0.31762 -0.679529,-0.7481 -1.509977,-0.95653 -0.830448,-0.20842 -1.510004,-0.55572 -1.510004,-0.77204 0,-0.21634 -0.883576,-0.39058 -1.963181,-0.38758 -1.344772,0.004 -1.962653,-0.27954 -1.962653,-0.9002 0,-0.68186 0.60952,-0.86879 2.464964,-0.75551 2.069439,0.12633 2.590456,-0.0834 3.245776,-1.30793 0.429313,-0.8022 1.290373,-1.59195 1.913599,-1.75493 0.6232,-0.16297 1.133263,-0.59559 1.133263,-0.9617 0,-0.46044 -0.363696,-0.43866 -1.180306,0.0713 -1.589087,0.99232 -2.101374,0.31268 -1.93167,-2.56367 0.07813,-1.32426 -0.07305,-2.33604 -0.335888,-2.24844 -0.262838,0.0876 -1.099,-0.46183 -1.858275,-1.22111 -1.241399,-1.24142 -1.474338,-1.28727 -2.308384,-0.4532 -0.510169,0.51015 -1.234307,0.92759 -1.609222,0.92759 -0.482203,0 -0.469344,-0.21176 0.04342,-0.72451 1.044496,-1.04458 0.895588,-2.12437 -0.483182,-3.50314 -1.35292,-1.35294 -1.6055,-2.524 -0.453205,-2.10168 1.300586,0.47664 2.101744,-0.52479 2.546112,-3.183271 0.354727,-2.12235 0.262731,-2.566768 -0.530198,-2.566768 -0.527474,0 -0.958612,0.40762 -0.958612,0.905889 0,0.99569 -0.520938,1.132512 -1.629357,0.427881 -0.801325,-0.50941 -0.229844,-1.876314 0.722947,-1.729094 0.332211,0.05131 0.690933,-0.517192 0.796872,-1.262973 0.154808,-1.09002 -0.02281,-1.276151 -0.905907,-0.949812 -0.604176,0.223272 -1.246484,0.622859 -1.427292,0.888318 -0.350316,0.514299 -4.773649,-0.492379 -5.599141,-1.274339 -0.270489,-0.256241 -0.04729,-0.910815 0.496093,-1.454177 0.543383,-0.543359 0.764805,-0.991838 0.491959,-0.996839 -0.272844,-0.0051 -0.111527,-0.252743 0.358634,-0.550352 1.377067,-0.871751 -3.18707,-4.800724 -6.12159,-5.269962 -1.300017,-0.207891 -2.684886,-0.689512 -3.077848,-1.070737 -0.392961,-0.381225 -1.369822,-0.737788 -2.170411,-0.7922 -1.334,-0.09067 -2.001417,-0.649375 -2.716112,-2.273247 -0.05788,-0.131511 -0.143841,-0.200959 -0.24598,-0.211354 z m -8.408789,9.35705 c 0.429281,0.0096 0.841174,0.09685 1.131197,0.280604 0.674161,0.42714 0.659471,0.535212 -0.08372,0.601514 -0.498295,0.0442 -1.109937,0.04808 -1.35909,0.0088 -0.24915,-0.03934 -0.453202,0.200584 -0.453202,0.532784 0,0.332189 0.24036,0.60358 0.533818,0.60358 0.615159,0 1.178973,2.411511 0.81752,3.495911 -0.134242,0.402701 -0.608558,0.732255 -1.054201,0.732255 -0.560853,0 -0.750003,-0.650835 -0.613915,-2.115116 0.108111,-1.16341 -0.04808,-2.266611 -0.347266,-2.451531 -0.29919,-0.184928 -0.544152,-0.560215 -0.544152,-0.834057 0,-0.522245 1.028591,-0.875934 1.973006,-0.854728 z m 7.419702,2.043287 c 0.4679,0 0.875398,0.195982 0.875398,0.588076 0,0.3322 -0.559874,0.604099 -1.243851,0.604099 -0.683977,0 -1.075532,-0.271907 -0.870231,-0.604099 0.242324,-0.392094 0.770784,-0.588076 1.238684,-0.588076 z m 11.273213,3.36672 c 0.36241,-0.0066 0.652981,0.04258 0.73174,0.170016 0.142486,0.230518 -0.401148,0.473834 -1.20768,0.540533 -0.806527,0.06675 -1.466059,0.02028 -1.466059,-0.103352 0,-0.308686 1.144696,-0.592613 1.941999,-0.607197 z m -32.141189,5.07307 c 0.332211,1e-5 0.604097,0.27192 0.604097,0.6041 0,0.3322 -0.271902,0.6041 -0.604097,0.6041 -0.332195,0 -0.604099,-0.2719 -0.604099,-0.6041 0,-0.33219 0.271889,-0.6041 0.604099,-0.6041 z m 12.647806,0 c 0.35179,1e-5 0.639754,0.27192 0.639754,0.6041 0,0.77392 -0.427572,0.77392 -0.905888,0 -0.205309,-0.33219 -0.08566,-0.6041 0.266134,-0.6041 z m 10.007658,0.37879 c 0.855723,0.0276 1.267394,0.6356 1.345136,1.88619 0.06854,1.10256 -0.221824,1.35112 -1.538922,1.31672 -3.797049,-0.0993 -4.478348,-1.66246 -1.258321,-2.88665 0.582784,-0.22158 1.063143,-0.32881 1.452107,-0.31626 z m 17.545182,0.42892 c 0.160729,0.0159 0.267168,0.14498 0.267168,0.36483 0,0.35179 -0.271912,0.63976 -0.604099,0.63976 -0.773917,0 -0.773917,-0.42757 0,-0.90589 0.124574,-0.077 0.240493,-0.10825 0.336931,-0.0987 z m -14.228588,1.60868 c 0.703601,0 1.111189,0.2714 0.905886,0.60359 -0.478285,0.77391 -1.33346,0.77391 -1.811774,0 -0.205293,-0.3322 0.202285,-0.60359 0.905888,-0.60359 z m -14.902968,0.28371 c 0.301607,0.0133 0.693452,0.23837 0.990121,0.59583 0.526161,0.63403 1.111822,0.71757 2.182297,0.31057 1.908706,-0.72569 1.893805,0.18674 -0.01964,1.21078 -0.81534,0.43638 -1.591442,1.09373 -1.724959,1.46089 -0.133519,0.36716 -0.173709,0.20184 -0.0894,-0.36793 0.08559,-0.57836 -0.352941,-1.19687 -0.992703,-1.39992 -1.215263,-0.38574 -1.499378,-1.20028 -0.610301,-1.74976 0.07363,-0.0455 0.164049,-0.0649 0.264583,-0.0605 z m -19.001938,4.13515 c 0.850926,-0.0131 2.498037,0.61781 2.498037,1.08727 0,0.29344 -0.06784,0.51616 -0.150895,0.49506 -1.134297,-0.2876 -2.981422,-1.25812 -2.779159,-1.46038 0.08149,-0.0815 0.235648,-0.11894 0.432017,-0.12195 z m 30.72267,1.35857 c 0.660596,0.008 1.238414,0.19185 1.512054,0.56431 0.814115,1.1081 0.498991,2.09004 -0.542605,1.69033 -0.675777,-0.25932 -0.862078,-0.15421 -0.568439,0.32091 0.240192,0.38864 0.21653,0.66579 -0.05219,0.61599 -0.268724,-0.0498 -1.235718,-0.20372 -2.149221,-0.3421 -1.892657,-0.28671 -2.090409,-0.87493 -0.685747,-2.0407 0.650878,-0.54016 1.636816,-0.81935 2.486152,-0.80874 z m -10.105326,0.262 c 0.332208,0 0.604099,0.27191 0.604099,0.6041 0,0.3322 -0.271907,0.60409 -0.604099,0.60409 -0.332195,0 -0.604097,-0.27189 -0.604097,-0.60409 0,-0.3322 0.271886,-0.6041 0.604097,-0.6041 z m -18.990053,5.63945 c 0.160726,0.0159 0.267165,0.14497 0.267165,0.36483 0,0.35179 -0.271909,0.63976 -0.604096,0.63976 -0.773917,0 -0.773917,-0.42757 0,-0.90589 0.124579,-0.077 0.240493,-0.10825 0.336931,-0.0987 z m 33.638254,1.01389 c 0.581321,-0.005 1.056782,0.26262 1.056782,0.59479 3e-6,0.73663 -0.06786,0.73663 -1.207677,0 -0.774242,-0.50031 -0.752398,-0.58679 0.150895,-0.59479 z m -16.671848,0.25218 c 0.146917,-0.0173 0.213423,0.11304 0.213423,0.38551 0,0.48101 -0.543825,1.21393 -1.208196,1.62884 -1.543836,0.96413 -1.543836,0.44995 0,-1.20716 0.483844,-0.51934 0.805876,-0.78498 0.994773,-0.80719 z m 1.131712,1.76578 c 0.291502,-0.0176 0.296873,0.2933 0.186553,1.0418 -0.109517,0.74321 -0.674934,1.42008 -1.256255,1.50378 -1.470128,0.21175 -1.325846,-1.36649 0.199472,-2.18281 0.417473,-0.22342 0.69533,-0.35222 0.87023,-0.36277 z m 6.579444,0.18966 c 0.611939,-0.0155 0.485352,0.8815 -0.486793,2.16214 -1.022006,1.34605 -1.575097,1.34385 -1.575097,-0.006 0,-0.58445 0.543304,-1.40204 1.207678,-1.81695 0.364217,-0.22745 0.650232,-0.33383 0.854212,-0.33899 z m -20.06596,0.20825 c 0.561729,-0.005 1.189427,0.26261 1.394749,0.5948 0.4724,0.76439 -0.32716,0.76439 -1.509985,0 -0.780751,-0.50453 -0.764911,-0.5868 0.115236,-0.5948 z m -2.304251,0.10387 c 0.04109,-0.0151 0.08742,7.6e-4 0.137459,0.0507 0.200697,0.20068 0.222539,0.72155 0.04806,1.15755 -0.19278,0.48184 -0.335835,0.33877 -0.364836,-0.36484 -0.01966,-0.47753 0.05573,-0.79786 0.179318,-0.84336 z m -6.038392,0.12196 c 0.22012,0.007 0.375687,0.24668 0.375687,0.6351 3e-6,1.06092 -0.362796,1.21705 -0.880565,0.37931 -0.191122,-0.30922 -0.07096,-0.73288 0.26665,-0.94155 0.08441,-0.0522 0.164857,-0.0753 0.238228,-0.0729 z m 42.602568,1.09192 c 0.387183,-0.029 0.75353,0.30845 1.407665,1.10846 0.670198,0.81967 1.454285,1.42246 1.74253,1.33946 0.944835,-0.27219 0.547859,0.91867 -0.431498,1.29449 -1.28568,0.49338 -1.460376,0.46635 -1.460376,-0.22583 0,-0.32585 -0.679503,-0.76308 -1.509985,-0.97151 -1.755037,-0.44052 -1.893792,-0.98989 -0.534853,-2.1177 0.314098,-0.26067 0.554207,-0.40994 0.786517,-0.42737 z m -40.114347,2.9006 c 0.498295,0 0.905889,0.10715 0.905889,0.23771 0,0.13054 -0.407594,0.39376 -0.905889,0.58498 -0.498295,0.19122 -0.905888,0.0846 -0.905888,-0.2372 0,-0.32176 0.407593,-0.58549 0.905888,-0.58549 z m 2.165242,0.0749 c 0.20982,-0.009 0.449146,0.0296 0.667144,0.11679 0.481811,0.19279 0.338751,0.33583 -0.364837,0.36484 -0.636709,0.0262 -0.993407,-0.11661 -0.792715,-0.3173 0.100346,-0.10035 0.28059,-0.15568 0.490408,-0.16433 z m 29.507759,1.73736 c 0.351774,0 0.639754,0.27191 0.639754,0.6041 0,0.77392 -0.427569,0.77392 -0.905888,0 -0.205306,-0.3322 -0.08564,-0.6041 0.266134,-0.6041 z m -4.141864,0.0744 c 0.209819,-0.009 0.449143,0.0296 0.667141,0.11679 0.481809,0.19278 0.338751,0.33583 -0.364834,0.36483 -0.636709,0.0262 -0.99341,-0.1166 -0.792718,-0.31729 0.100346,-0.10036 0.280591,-0.15569 0.490411,-0.16433 z m 19.12648,1.7849 c 0.637627,0.0288 0.755909,0.16893 0.298172,0.35347 -1.269974,0.512 -0.186976,1.41076 1.70016,1.41076 1.425283,0 1.785911,0.26866 1.824169,1.35909 0.02622,0.74743 0.185235,1.01778 0.353484,0.60048 0.168222,-0.4173 0.55454,-0.6053 0.858334,-0.41754 0.303795,0.18776 0.552424,0.0466 0.552424,-0.31368 0,-0.40824 0.682731,-0.30222 1.811761,0.28164 0.996579,0.51534 1.811787,0.761 1.811787,0.5457 0,-0.21529 0.407591,-0.0533 0.90588,0.36019 1.388851,1.15263 1.085242,1.81229 -0.835077,1.81229 -1.261745,0 -1.833272,-0.34992 -2.073778,-1.26969 -0.282496,-1.08024 -0.463577,-1.14801 -1.214914,-0.4532 -0.485669,0.4491 -0.759592,1.02055 -0.608753,1.26969 0.461089,0.76161 -0.0145,0.50614 -2.061898,-1.10743 -1.400149,-1.10347 -1.963177,-1.29677 -1.963177,-0.67438 0,0.66227 -0.674872,0.82736 -2.800863,0.68523 -3.283431,-0.2195 -4.883076,-1.31114 -2.741435,-1.8712 0.908383,-0.23754 1.264393,-0.67055 1.037661,-1.26142 -0.255106,-0.66484 -0.02775,-0.81609 0.871784,-0.58085 0.66933,0.17502 1.21698,0.0716 1.21698,-0.22944 0,-0.3011 0.475951,-0.52591 1.057299,-0.49971 z m 2.616901,0.0269 c 0.209814,-0.009 0.448627,0.0296 0.666618,0.11679 h 5.29e-4 c 0.48178,0.19279 0.338243,0.33635 -0.365363,0.36535 -0.63672,0.0262 -0.993405,-0.1166 -0.792718,-0.31729 0.100356,-0.10036 0.281119,-0.1562 0.490934,-0.16485 z m -15.506554,0.0785 c 0.325292,-0.004 0.884724,0.6991 1.133266,1.64951 0.356047,1.3613 -0.920303,1.62433 -2.739369,0.56482 -1.43814,-0.83761 -1.337958,-1.72363 0.150894,-1.33428 0.702093,0.18357 1.20768,0.0184 1.20768,-0.39429 0,-0.33677 0.09967,-0.48412 0.247529,-0.48576 z m -6.672977,0.64751 c 0.148254,0.0121 0.374843,0.14799 0.687813,0.40772 0.917837,0.76176 1.286431,3.1202 0.453202,2.90008 -1.189696,-0.3143 -3.170864,0.9176 -3.170864,1.97198 0,0.64197 -0.226494,1.16737 -0.50333,1.16737 -0.963282,0 -1.262772,-0.76935 -0.704866,-1.81178 0.308798,-0.57702 0.367162,-1.25481 0.129707,-1.50585 -0.237453,-0.25098 0.203348,-0.26101 0.97927,-0.0222 1.284846,0.39544 1.350423,0.32123 0.733803,-0.83096 -0.550621,-1.02879 -0.503912,-1.26504 0.250114,-1.26504 0.509976,0 0.927076,-0.30512 0.927076,-0.67799 0,-0.23418 0.06982,-0.34542 0.218075,-0.33331 z m -27.216944,0.0687 c 0.567743,-0.0307 1.027846,0.3598 1.027846,1.07901 0,0.36798 -0.178811,0.4904 -0.397391,0.27182 -0.218581,-0.21858 -0.719273,-0.13057 -1.112594,0.19585 -1.072746,0.8903 -1.586257,-0.01 -0.579811,-1.01647 0.341781,-0.34179 0.721307,-0.51176 1.06195,-0.53021 z m 13.711309,0.339 c 0.332195,0 0.604097,0.40763 0.604097,0.90589 0,0.4983 -0.2719,0.90589 -0.604097,0.90589 -0.332195,0 -0.604099,-0.40759 -0.604099,-0.90589 2e-6,-0.49829 0.271907,-0.90589 0.604099,-0.90589 z m 17.177763,1.20768 c 0.517888,0 0.941544,0.27191 0.941544,0.6041 0,0.7815 -1.026465,0.7815 -1.509469,0 -0.205322,-0.3322 0.05004,-0.6041 0.567925,-0.6041 z m 7.247617,0 c 0.517888,0 0.941547,0.12015 0.941547,0.26665 0,0.63747 -1.159026,0.90509 -1.503786,0.34727 -0.208635,-0.33761 0.04435,-0.61392 0.562239,-0.61392 z m 0.499195,1.26349 c 0.03552,0.0101 0.08866,0.0465 0.159681,0.1111 0.773502,0.70362 0.951863,2.74156 0.276469,3.15898 -1.100103,0.6799 -2.808946,0.79817 -3.669027,0.25374 -0.692539,-0.43839 -0.654069,-0.54336 0.202572,-0.55036 1.186921,-0.0104 1.482286,-1.81046 0.301789,-1.83916 -0.415242,-0.0101 -0.2649,-0.30332 0.333831,-0.65164 0.794882,-0.46246 1.355825,-0.41715 2.078942,0.16898 0.843534,0.68371 0.913871,0.66833 0.475424,-0.10335 -0.212936,-0.37473 -0.266245,-0.5787 -0.159681,-0.54829 z m -21.399727,0.0827 c 0.142708,-0.002 0.260077,0.19881 0.408244,0.58033 0.506508,1.30438 -0.411869,2.98441 -1.323433,2.42104 -0.515368,-0.31854 -0.485603,-0.81943 0.115756,-1.9358 0.389987,-0.72399 0.615952,-1.06266 0.799433,-1.06557 z m -6.850227,3.2706 c 0.170707,0.0281 0.311066,0.37606 0.442868,1.06557 0.340397,1.78075 0.266411,1.87328 -0.632521,0.79013 -0.355394,-0.42823 -0.42482,-1.12873 -0.15503,-1.56528 0.129064,-0.20883 0.242258,-0.30726 0.344683,-0.29042 z m -8.218103,1.24334 c 0.286149,-0.004 0.617635,0.0602 0.9741,0.20567 0.956093,0.39019 0.997789,0.50177 0.201023,0.53537 -0.553633,0.0233 -1.115026,0.36904 -1.247987,0.76791 -0.181758,0.54527 -0.361527,0.53208 -0.722953,-0.0527 -0.512815,-0.82973 -0.06263,-1.44567 0.795817,-1.45624 z m 35.210254,1.74408 c 0.411213,-0.0141 0.98664,0.19204 1.459341,0.54984 1.262209,0.95544 1.216227,0.9731 -0.961696,0.3669 -0.868114,-0.24164 -1.224804,-0.5914 -0.843878,-0.82682 0.09074,-0.0561 0.209161,-0.0852 0.346233,-0.0899 z m -31.690571,0.108 c 0.284406,0.0235 0.55123,0.29125 1.004072,0.82011 0.539269,0.62982 0.980303,1.35615 0.980303,1.61385 0,0.5248 -1.567334,0.66529 -3.170867,0.28422 -1.355612,-0.32212 -1.335591,-0.86366 0.07648,-2.07274 0.523457,-0.44821 0.825603,-0.66894 1.110012,-0.64544 z m -8.942091,0.72709 c 0.149474,-6.2e-4 0.274547,0.0348 0.355534,0.11575 0.136662,0.13663 -0.282462,0.57999 -0.931725,0.98547 -0.74716,0.46659 -1.180807,0.50706 -1.180807,0.10956 0,-0.53284 1.109282,-1.2081 1.756998,-1.21078 z m 38.15426,1.29914 c 0.20982,-0.009 0.449143,0.0296 0.667142,0.11679 0.481843,0.19279 0.33878,0.33584 -0.364834,0.36484 -0.636712,0.0262 -0.99341,-0.1166 -0.792718,-0.3173 0.100345,-0.10035 0.28059,-0.15568 0.49041,-0.16433 z m -6.700366,1.27021 c 0.333798,-0.0285 0.611849,0.27098 0.611849,0.97617 0,0.66769 0.475464,1.33844 1.056782,1.49035 0.581319,0.15192 0.154954,0.30773 -0.947745,0.34623 -1.731021,0.0605 -1.978422,-0.10933 -1.811777,-1.24179 0.140642,-0.95581 0.661721,-1.53437 1.090891,-1.57096 z m 8.121986,0.22996 c 0.233433,-0.003 0.460689,0.56006 0.668176,1.66605 0.444928,2.37172 -0.04805,3.62272 -0.890387,2.25981 -0.413181,-0.66856 -0.553614,-0.6655 -0.825272,0.0176 -0.241319,0.60681 -0.340029,0.56481 -0.375171,-0.15968 -0.02622,-0.54064 -0.455653,-1.32124 -0.953948,-1.73478 -1.324057,-1.09888 -1.10581,-1.95705 0.377756,-1.48621 0.787358,0.24989 1.468798,0.10666 1.763716,-0.37052 0.07872,-0.12738 0.157316,-0.19129 0.23513,-0.19224 z m -4.295347,1.56838 c 0.124508,0.0158 0.303168,0.13316 0.519867,0.34985 0.393036,0.39308 0.57418,0.85467 0.402558,1.0263 -0.403085,0.40309 -1.117245,-0.31108 -1.117245,-1.11725 0,-0.18923 0.07031,-0.27468 0.19482,-0.2589 z m 7.085357,1.11053 c 0.16333,0.0174 0.353451,0.11833 0.556553,0.32142 0.343101,0.34307 0.351751,0.91943 0.02222,1.45263 -0.463415,0.74979 -0.6085,0.72231 -0.955498,-0.1819 -0.362678,-0.94512 -0.113271,-1.64437 0.376722,-1.59215 z"
       id="path4682" />
  </g>
</svg>
