<?xml version="1.0" encoding="UTF-8" standalone="no"?>
<!-- Created with Inkscape (http://www.inkscape.org/) -->

<svg
   width="34.748867mm"
   height="61.017471mm"
   viewBox="0 0 34.748868 61.017471"
   version="1.1"
   id="svg8"
   xmlns="http://www.w3.org/2000/svg"
   xmlns:svg="http://www.w3.org/2000/svg"
   xmlns:rdf="http://www.w3.org/1999/02/22-rdf-syntax-ns#"
   xmlns:cc="http://creativecommons.org/ns#"
   xmlns:dc="http://purl.org/dc/elements/1.1/">
  <defs
     id="defs2" />
  <metadata
     id="metadata5">
    <rdf:RDF>
      <cc:Work
         rdf:about="">
        <dc:format>image/svg+xml</dc:format>
        <dc:type
           rdf:resource="http://purl.org/dc/dcmitype/StillImage" />
      </cc:Work>
    </rdf:RDF>
  </metadata>
  <g
     id="layer1"
     transform="translate(-2.2935199,-115.25551)"
     style="display:inline">
    <path
       style="fill:#7f7f7f;fill-opacity:1;stroke-width:1"
       d="m 726.83203,863.16797 c -0.13912,-0.0195 -0.32683,0.16811 -0.57031,0.55273 -0.49058,0.77515 -0.66004,2.01262 -0.37695,2.75 0.8115,2.11461 1.30027,1.57804 1.28515,-1.4082 -0.007,-1.25086 -0.10603,-1.86211 -0.33789,-1.89453 z m -1.25391,8.64453 c -1.69572,0 -1.79635,1.19591 -0.23242,2.75977 0.63799,0.63775 1.51719,0.93858 1.95508,0.66796 1.20911,-0.74725 -0.13797,-3.42773 -1.72266,-3.42773 z m 1.72852,6 c -0.61731,0 -1.12109,0.43599 -1.12109,0.96875 0,0.53291 -0.75609,0.67874 -1.67969,0.32422 -1.45138,-0.55688 -1.4173,-0.28529 0.25,2 1.24539,1.70695 2.81587,2.6134 4.42969,2.55859 2.05931,-0.0696 2.14742,-0.17239 0.5,-0.58398 -2.63562,-0.65843 -3.64372,-2.38968 -2.32032,-3.98438 0.75961,-0.91502 0.74169,-1.2832 -0.0586,-1.2832 z m -1.63867,7.25 c -1.35611,0.0181 -1.11671,0.32403 0.16211,1.31641 1.77974,1.38115 1.77554,1.41018 -0.14453,0.74804 -1.77423,-0.61179 -1.84641,-0.49872 -0.62891,0.99805 0.75489,0.92799 1.5425,1.6875 1.75,1.6875 0.4173,0 4.38061,-3.85145 4.37305,-4.25 -0.002,-0.13757 -1.62391,-0.33312 -3.60352,-0.43555 -0.82765,-0.0428 -1.45617,-0.0705 -1.9082,-0.0644 z m 8.9668,2.38672 c -0.52188,-0.0463 -1.54635,0.43643 -2.63282,1.29101 -1.44858,1.13949 -3.12381,2.07032 -3.72461,2.07032 -0.60079,0 -1.09375,0.675 -1.09375,1.5 0,1.80827 -1.16561,1.93399 -2.79882,0.30078 -0.93317,-0.93336 -1.20118,-0.83622 -1.20118,0.43359 0,0.89794 0.90766,1.91999 2.01563,2.27149 1.10816,0.35164 1.75057,1.0646 1.42969,1.58398 -0.321,0.51931 -0.96904,0.70389 -1.44141,0.41211 -0.4724,-0.29197 -1.12947,0.32505 -1.46094,1.36914 -0.33139,1.04406 -1.36929,1.83737 -2.30468,1.76367 -2.46426,-0.19389 -2.39163,3.82271 0.11718,6.51563 1.68091,1.80415 1.74955,2.10499 0.36133,1.57226 -1.12747,-0.43268 -1.7168,-0.16911 -1.7168,0.76953 0,0.95479 -0.95158,1.35897 -2.87109,1.21875 -1.5792,-0.11535 -2.6988,-0.66176 -2.48828,-1.21289 0.21071,-0.55113 -0.47125,-1.53604 -1.51758,-2.18945 -1.79289,-1.11968 -1.83662,-1.00451 -0.76172,2.00195 0.62733,1.75454 1.77146,3.68498 2.54297,4.28907 0.77076,0.60404 1.10622,1.57808 0.74414,2.16406 -0.36741,0.59444 0.67053,1.65219 2.34766,2.39453 1.6532,0.73175 3.0039,1.63918 3.0039,2.01563 0,0.37647 0.7108,1.39446 1.57813,2.26171 1.4358,1.43596 1.26584,1.55276 -1.90234,1.32032 -1.91369,-0.14049 -3.33629,-0.48891 -3.16016,-0.77539 0.17601,-0.28657 -1.38226,-1.45411 -3.46289,-2.59375 -3.55374,-1.94665 -3.75357,-1.96 -3.30078,-0.22852 0.26509,1.01378 1.10434,1.8418 1.86523,1.8418 0.7609,0 1.38281,0.94858 1.38281,2.10742 0,1.39903 0.47286,1.92666 1.40625,1.56836 1.1977,-0.45948 1.20467,-0.15375 0.0508,2.07031 -0.74498,1.43588 -1.12456,2.98324 -0.84374,3.4375 0.28078,0.45415 -1.04783,0.71211 -2.95313,0.57227 -1.9053,-0.13985 -3.31291,-0.50233 -3.12695,-0.80469 0.1858,-0.30244 -0.49911,-1.07321 -1.52344,-1.71289 -1.6433,-1.02622 -1.81205,-0.88711 -1.4375,1.17969 0.46961,2.58931 -1.55842,4.80512 -4.85742,5.30859 -4.20711,0.64207 -2.95923,1.31977 2.10156,1.14062 2.85982,-0.10121 5.49207,0.10926 5.84961,0.4668 0.35762,0.35762 1.26493,0.1406 2.01562,-0.48242 1.06217,-0.88169 1.24071,-0.80935 0.80274,0.33203 -0.4989,1.30001 -2.32486,2.25419 -11.28906,5.89063 -1.26853,0.51462 -2.01701,1.40414 -1.66211,1.97851 0.43918,0.7107 1.09656,0.67184 2.05664,-0.125 0.88641,-0.73553 1.41211,-0.78658 1.41211,-0.13476 0,0.65162 1.01969,0.74661 2.75,0.25781 1.51249,-0.42728 2.6527,-1.2398 2.53515,-1.80469 -0.4041,-1.94449 4.377,-2.01289 5.58399,-0.0801 0.71365,1.14274 0.76668,1.83399 0.13867,1.83399 -1.81591,0 -1.0556,1.75549 0.99219,2.29101 1.37442,0.35944 2,1.36332 2,3.21094 v 1.0293 l -4.25,-0.74805 c -3.97081,-2.24905 -10.75,-3.216 -10.75,-1.5332 v 2.41797 c 0,0.91664 0.28352,1.38249 0.63086,1.03515 0.34718,-0.34726 1.57258,0.0284 2.72265,0.83399 1.15011,0.80556 2.88962,1.46289 3.86719,1.46289 0.97761,0 1.7793,0.45 1.7793,1 0,1.36879 3.10697,0.12333 4.85156,1.09765 0.86559,0.48344 0.69573,-0.85421 0.58008,0.68164 -0.0922,1.22291 -0.35984,0.80211 -1.13672,0.50391 -0.71252,-0.27341 -1.29492,-0.003 -1.29492,0.60156 0,0.65934 -1.29818,0.93052 -3.25,0.67578 -1.78749,-0.23304 -3.61555,-0.45439 -4.06055,-0.49218 -0.44485,-0.0371 -0.56219,-0.46501 -0.26172,-0.95118 0.3004,-0.48619 -0.91091,-1.48442 -2.6914,-2.21875 -1.7805,-0.73428 -5.25878,-3.15015 -7.73047,-5.36718 -2.4717,-2.21704 -3.89559,-3.2626 -3.16407,-2.32422 0.73138,0.93842 1.0385,2.17589 0.6836,2.75 -0.35479,0.57407 -0.11867,1.04297 0.52344,1.04297 0.746,0 0.93995,0.90266 0.53906,2.5 -0.68202,2.71721 0.32997,3.15107 3.45508,1.47851 1.5465,-0.82771 1.79905,-0.73076 1.32226,0.51172 -0.32409,0.84473 -0.0786,2.1525 0.54688,2.90625 1.47859,1.78141 -1.03074,2.863 -4.57813,1.97266 -2.20452,-0.55317 -2.46781,-0.34047 -2.17187,1.75195 0.20791,1.46986 0.92244,2.28557 1.86914,2.13477 0.9219,-0.14673 2.01137,1.02059 2.73047,2.92578 1.19368,3.16259 1.20442,3.1596 3.36132,1.24414 2.1569,-1.91558 2.16188,-1.91467 1.02149,0.25976 -1.60932,3.06875 -1.42615,4.0675 0.32226,1.75586 1.32839,-1.75653 1.46977,-1.77487 1.5,-0.1914 0.0175,0.96249 0.5093,1.75 1.0918,1.75 0.58258,0 0.76165,0.48087 0.39844,1.06836 -0.3631,0.5876 -1.31313,0.81786 -2.11133,0.51171 -0.7982,-0.30629 -2.45357,0.10096 -3.67969,0.9043 -2.00001,1.31044 -2.56654,1.25554 -5.50781,-0.5332 -3.15213,-1.91702 -5.1582,-1.87608 -5.1582,0.10742 0,0.51753 0.7012,0.94141 1.55859,0.94141 0.88615,0 1.2635,0.47873 0.875,1.10742 -0.4605,0.74517 0.009,0.88748 1.43945,0.43359 1.18413,-0.37583 2.12696,-0.23974 2.12696,0.3086 0,0.54122 -0.51115,1.15345 -1.13477,1.36132 -0.72998,0.24333 -0.51618,0.99554 0.59961,2.11133 1.39109,1.39117 1.49013,2.02824 0.51172,3.20703 -0.97841,1.17884 -0.93794,1.47071 0.20117,1.47071 0.78229,0 1.96108,-0.5392 2.6211,-1.19922 1.40556,-1.40561 1.57952,0.0505 0.25585,2.14258 -0.75881,1.19939 -1.76823,0.91296 -5.96093,-1.69336 -2.97343,-1.84853 -5.29972,-2.72618 -5.66407,-2.13672 -1.09719,1.7752 0.5309,5.88722 2.33789,5.90234 1.48313,0.0131 1.51769,0.15375 0.23243,0.98438 -1.33331,0.86162 -1.33331,0.98446 0,1.10351 0.82499,0.0745 1.87966,0.0668 2.34375,-0.0156 0.46412,-0.0823 0.63894,0.42812 0.39062,1.13281 -0.29132,0.82643 -1.92321,1.1852 -4.59961,1.01172 -2.45291,-0.15897 -5.09898,0.35377 -6.47265,1.25391 -1.27794,0.83705 -2.62369,1.22006 -2.99219,0.85156 -0.36858,-0.36858 -0.66992,0.0432 -0.66992,0.91406 0,0.87084 0.5625,1.81047 1.25,2.08789 0.68753,0.27757 0.23749,0.53857 -1,0.58203 -1.368,0.048 -2.25,0.70959 -2.25,1.68748 0,1.2257 0.6541,1.4745 2.75,1.041 1.51245,-0.3122 2.17362,-0.3198 1.4707,-0.016 -0.88732,0.3839 -0.3521,1.5003 1.75,3.6504 2.71257,2.7746 3.97869,5.7168 2.45898,5.7168 -0.31339,0 -2.5315,-1.35 -4.92968,-3 -4.18579,-2.8799 -6.5,-3.7194 -6.5,-2.3594 0,0.3519 0.7875,1.2853 1.75,2.0742 0.96234,0.7889 1.28031,1.2056 0.70703,0.9278 -0.57332,-0.2777 -1.11021,0.3985 -1.19336,1.5019 -0.11509,1.5279 0.15568,1.752 1.13476,0.9395 1.70249,-1.4131 2.89073,-0.1392 1.46875,1.5742 -0.8539,1.0291 -0.73415,1.3418 0.50977,1.3418 0.89231,0 1.62305,0.45 1.62305,1 0,0.55 0.675,1 1.5,1 0.82499,0 1.5,0.45 1.5,1 0,0.55 -0.62831,1 -1.39453,1 -0.76619,0 -1.65203,0.675 -1.96875,1.5 -0.64774,1.6877 -4.18961,2.0325 -5.13672,0.5 -1.18772,-1.9218 -2.21996,-0.9786 -1.73047,1.582 0.36491,1.9085 0.97136,2.4577 2.32617,2.1035 1.23628,-0.3233 2.05031,0.2043 2.5,1.6211 1.06292,3.3494 2.90609,4.7881 4.32617,3.3789 0.9247,-0.9174 1.02997,-0.7501 0.46289,0.7383 -0.57501,1.5095 -0.38365,1.7902 0.88672,1.3028 1.0057,-0.386 2.49222,0.2988 3.92383,1.8086 1.2675,1.3367 3.31719,2.4359 4.55469,2.4472 1.23749,0.01 2.25,0.4146 2.25,0.9004 0,1.7559 -8.86568,2.9195 -10.41797,1.3672 -0.4125,-0.4125 -1.0494,-0.7883 -1.41602,-0.8359 -0.36669,-0.047 -1.34102,-0.3466 -2.16601,-0.6641 -2.40499,-0.9251 -8,-1.7491 -8,-1.1777 0,0.2876 1.23747,1.5899 2.75,2.8925 l 2.75,2.3672 -2.87305,0.7227 -2.87109,0.7226 3.1914,1.3438 c 3.33615,1.4028 3.33148,3.3789 -0.008,3.3789 -1.0676,0 -1.93945,0.45 -1.93945,1 0,1.3057 1.62666,1.2703 4.17187,-0.092 1.31509,-0.7036 2.38667,-0.7481 3.00977,-0.125 0.62309,0.6231 -0.29227,1.2031 -2.57227,1.6309 -4.3268,0.8117 -5.07936,1.865 -3.44336,4.8164 0.69226,1.2488 1.14413,2.6656 1.00391,3.1484 -0.1403,0.4827 0.66368,0.6355 1.78711,0.3418 1.12339,-0.2937 2.04297,-0.1254 2.04297,0.373 0,0.4985 0.5625,0.7939 1.25,0.6563 0.68746,-0.1375 1.13757,0.3125 1,1 -0.1375,0.6875 0.2,1.25 0.75,1.25 1.75151,0 1.07451,1.8894 -1.0918,3.0488 -2.58818,1.3851 -6.66659,-0.097 -9.98437,-3.6289 -3.35071,-3.5666 -5.32979,-3.2048 -4.53711,0.8301 0.35111,1.7875 1.33406,3.7684 2.18359,4.4023 1.355,1.0113 1.26436,1.3487 -0.73633,2.75 -2.354,1.6488 -2.18031,1.7582 3.16602,1.9903 1.56767,0.068 2.86735,0.9464 3.48633,2.3574 0.54292,1.2375 1.51729,2.25 2.16601,2.25 0.64868,0 1.33931,0.4752 1.5332,1.0566 0.19393,0.5817 1.14145,0.7556 2.10743,0.3848 1.32971,-0.5102 1.48986,-0.9976 0.65625,-2.0019 -0.85278,-1.0278 -0.66912,-1.2932 0.8125,-1.1817 1.6848,0.127 1.78191,0.4891 0.82421,3.0332 -0.9606,2.552 -1.46345,2.8277 -4.31836,2.3653 -1.77739,-0.2878 -3.46212,-0.1527 -3.74218,0.3007 -0.5983,0.9681 6.08904,2.4 7.40625,1.586 0.49368,-0.3051 1.0684,-0.039 1.27929,0.5937 0.2877,0.8622 0.92656,0.859 2.56446,-0.018 1.22173,-0.6536 3.37111,-0.8696 4.88281,-0.4902 1.4849,0.3727 4.84483,0.69 7.4668,0.7051 5.1552,0.031 5.62683,1.1211 0.93164,2.1523 -1.6057,0.3527 -3.45592,1.2885 -4.11133,2.0782 -0.65537,0.7896 -2.03564,1.4355 -3.06836,1.4355 -1.03268,0 -1.87695,0.5011 -1.87695,1.1152 0,0.65 1.04068,0.9176 2.5,0.6387 1.37499,-0.2628 2.5,-0.089 2.5,0.3848 0,0.4737 0.45,0.8613 1,0.8613 0.54999,0 1,-1.0002 1,-2.2227 v -2.2226 l 1.60351,2.289 c 0.88521,1.264 2.22921,2.0495 3,1.754 1.73208,-0.6647 1.86629,1.0122 0.14649,1.83 -0.6875,0.327 -0.20287,0.397 1.07812,0.1563 1.74252,-0.3281 2.18669,-0.066 1.76172,1.041 -0.38283,0.9977 -0.16558,1.2271 0.66992,0.7051 2.121,-1.3251 3.74024,-1.214 3.74024,0.2578 0,2.0977 2.77,1.7092 3.46679,-0.4863 0.4359,-1.3734 1.421,-1.8419 3.56641,-1.6934 1.63079,0.1129 2.9668,-0.092 2.9668,-0.457 0,-0.365 1.23751,-0.6307 2.75,-0.5899 1.51249,0.041 3.72471,-0.2663 4.91601,-0.6836 1.90738,-0.668 2.18666,-0.2233 2.75196,4.8399 a 301.02545,301.02545 0 0 0 4.64843,-0.8867 c -0.0206,-0.4414 -0.0453,-0.9034 -0.0469,-1.2461 -0.0207,-4.2922 0.42668,-4.5348 5.98047,-3.2383 1.0046,0.2345 1.60437,-0.5567 1.8164,-2.3985 0.40921,-3.5559 1.36974,-3.485 3.01172,0.2247 0.72454,1.6366 1.62186,2.9155 1.99414,2.8418 0.33292,-0.066 1.21645,0.1528 2.06446,0.4902 a 301.02545,301.02545 0 0 0 4.78711,-1.0762 c -0.0949,-0.2767 -0.8491,-0.4859 -2.42383,-0.8105 -2.9966,-0.6178 -4.62871,-2.42 -2.19141,-2.42 0.58235,0 0.78119,-0.45 0.44141,-1 -1.13209,-1.8317 0.8572,-1.0309 3.44531,1.3868 1.88519,1.7611 3.07878,2.1726 4.55469,1.5703 1.9,-0.7754 1.88574,-0.8198 -0.25196,-0.8867 -1.23749,-0.039 -2.25,-0.5133 -2.25,-1.0528 0,-0.5683 1.997,-0.7859 4.75,-0.5176 l 4.75,0.4629 -3.75,-1.08 c -4.07667,-1.1759 -5.13851,-3.1627 -1.5,-2.8067 1.2375,0.1212 3.03751,-0.1195 4,-0.5351 0.9625,-0.4158 2.42501,-0.4964 3.25,-0.1797 0.98638,0.3785 1.5,-0.033 1.5,-1.2012 0,-1.5263 0.90158,-1.7642 6.39649,-1.6855 4.99166,0.072 6.05616,-0.1554 4.84765,-1.0391 -1.63657,-1.1966 -0.80547,-3.9023 0.87891,-2.8613 0.54123,0.3345 1.89855,-0.4444 3.01563,-1.7325 1.11711,-1.2879 2.33103,-2.2293 2.69726,-2.0918 0.36616,0.1375 0.66406,-0.5375 0.66406,-1.5 0,-2.1705 3.11584,-4.6137 4.97461,-3.9003 0.8078,0.3099 2.50287,-0.9416 4.08789,-3.0196 2.52,-3.3039 2.56073,-3.5049 0.58203,-2.8769 -1.16949,0.3712 -3.36754,0.8892 -4.88476,1.1504 -1.51722,0.261 -3.48229,0.6913 -4.36719,0.957 -0.8849,0.2658 -2.15015,-0.1672 -2.81055,-0.9629 -1.01359,-1.2212 -1.6971,-1.2429 -4.39062,-0.1426 -1.9231,0.7855 -3.98589,0.9817 -5.19141,0.4942 -2.16827,-0.8772 -1.28743,-1.2754 2.20508,-0.9961 1.21198,0.097 2.98583,-0.7355 3.94141,-1.8516 1.2901,-1.5067 2.07082,-1.7537 3.0332,-0.9551 1.4606,1.2123 4.7469,0.3514 3.89844,-1.0215 -0.30221,-0.4888 0.90772,-1.6069 2.6875,-2.4843 1.77982,-0.8775 2.88115,-1.6078 2.44726,-1.6192 -0.43389,-0.013 0.12851,-1.0072 1.25,-2.2109 1.1215,-1.2037 2.03711,-3.09 2.03711,-4.1914 0,-1.8132 -0.1181,-1.846 -1.25,-0.3555 -2.08131,2.741 -6.12683,3.7402 -10.14843,2.5059 -1.9801,-0.6077 -3.60157,-1.7048 -3.60157,-2.4375 0,-1.5458 1.18539,-1.7369 2.55079,-0.4102 1.09621,1.0651 6.44921,0.2513 6.44921,-0.9804 0,-0.4535 -0.4481,-1.1009 -0.99609,-1.4395 -1.05479,-0.6519 1.23068,-6.0387 2.82617,-6.6621 0.47909,-0.1872 1.12853,-2.3125 1.44336,-4.7227 l 0.57227,-4.3828 -4.17188,4.0449 c -2.29489,2.2246 -5.82655,4.723 -7.84765,5.5508 -3.28483,1.3465 -3.73735,1.3433 -4.26172,-0.023 -0.4063,-1.0587 -0.13183,-1.3541 0.89257,-0.961 1.97821,0.7591 3.16848,-1.324 1.42188,-2.4882 -0.9154,-0.61 -0.45559,-0.7037 1.37109,-0.2793 2.27509,0.5285 2.75,0.3037 2.75,-1.3028 0,-2.7679 0.95352,-3.3639 3.38282,-2.1171 1.74402,0.8951 1.89631,0.8542 0.86718,-0.2344 -1.71379,-1.813 -1.57241,-3.2619 0.25,-2.5625 0.825,0.3165 1.5,0.1541 1.5,-0.3614 0,-0.5153 0.56336,-0.7212 1.25196,-0.457 0.68859,0.2643 1.84446,-0.4678 2.56836,-1.6269 1.11208,-1.7808 1.07315,-2.3757 -0.25196,-3.8399 -1.98308,-2.1912 -2.02375,-6.4517 -0.0781,-8.0664 0.81883,-0.6797 1.24345,-1.6335 0.94336,-2.1191 -0.88728,-1.4358 -5.58112,1.5936 -10.89453,7.0312 -5.04609,5.1641 -7.53907,6.3276 -7.53907,3.5196 0,-0.8576 0.40409,-1.3102 0.89649,-1.0059 0.49239,0.3043 1.13772,-0.081 1.43554,-0.8574 0.29791,-0.7764 -0.10423,-1.6598 -0.89453,-1.9629 -0.7903,-0.3033 -1.4375,-1.0634 -1.4375,-1.6895 0,-0.6261 0.70029,-0.8706 1.55469,-0.5429 1.88969,0.7251 6.10919,-2.8547 4.52149,-3.836 -2.08388,-1.2877 -1.09872,-2.6288 1.07617,-1.4648 1.81096,0.9692 2.05784,0.9057 1.55664,-0.4004 -0.3275,-0.8535 -0.0589,-1.7699 0.59765,-2.0371 0.71203,-0.2898 0.55572,-0.5172 -0.38867,-0.5645 -0.87091,-0.043 -1.58398,-0.7744 -1.58398,-1.623 0,-0.8489 0.56216,-1.3263 1.25,-1.0625 0.6878,0.2639 1.5155,-0.207 1.83789,-1.0469 1.15098,-2.99954 -0.65149,-3.40885 -3.94531,-0.8965 -1.8389,1.4025 -3.64152,2.5488 -4.00586,2.5488 -0.36431,0 -1.85653,0.8314 -3.31641,1.8477 -2.95903,2.0598 -7.4659,3.4667 -6.5957,2.0586 0.30829,-0.4987 -0.25497,-0.9288 -1.25,-0.959 -1.5707,-0.045 -1.5122,-0.2583 0.4414,-1.6211 1.2375,-0.8632 2.25,-2.1595 2.25,-2.8808 0,-0.7214 1.23751,-1.45509 2.75,-1.62895 1.63722,-0.18837 2.75,-0.92341 2.75,-1.8164 0,-0.825 1.0199,-1.64343 2.26563,-1.82032 1.24569,-0.17684 2.007,-0.73931 1.6914,-1.25 -0.31562,-0.51069 -0.0719,-0.92968 0.54297,-0.92968 0.6149,0 0.83978,-0.45001 0.5,-1 -0.3397,-0.55 -0.17038,-1 0.375,-1 1.6797,0 2.47953,-4.16075 0.98243,-5.10938 -0.9913,-0.62797 -0.75114,-0.86366 0.89257,-0.875 1.2375,-0.008 2.25,-0.46563 2.25,-1.01562 0,-1.78492 -3.63761,-1.05715 -5.59375,1.11914 -1.53558,1.70842 -15.06484,8.88086 -16.75195,8.88086 -0.24162,0 -0.69688,-0.67154 -1.01172,-1.49219 -0.37069,-0.96597 0.4314,-2.01127 2.27539,-2.96484 1.56669,-0.81015 3.13439,-2.61362 3.48438,-4.00782 0.42092,-1.67686 1.3263,-2.53515 2.67578,-2.53515 1.12206,0 1.78768,-0.40979 1.47851,-0.91016 -0.9194,-1.48755 0.53178,-4.08708 2.30079,-4.12109 1.37654,-0.0267 1.31849,-0.28288 -0.35743,-1.57813 -1.94426,-1.50244 -1.94501,-1.53698 -0.0547,-1.21875 1.26357,0.21286 2.38322,-0.53592 3.19921,-2.13867 0.69075,-1.35659 1.09252,-2.63014 0.89258,-2.83008 -0.37901,-0.37901 -5.66581,2.77242 -6.53711,3.89649 -2.05368,2.64963 -16.11674,6.51758 -14.56445,4.00586 0.30429,-0.49236 -0.18347,-1.17799 -1.08398,-1.52344 -0.90048,-0.34556 -1.35081,-0.91482 -1.00196,-1.26367 0.34893,-0.34893 0.13212,-1.23846 -0.48047,-1.97657 -0.85591,-1.03132 -0.72843,-1.34179 0.55079,-1.34179 0.91547,0 2.25345,-0.54886 2.97265,-1.22071 1.52028,-1.42019 0.23142,-3.20751 -2.96289,-4.10742 -1.49038,-0.41968 -1.36087,-0.53011 0.57031,-0.49609 1.375,0.0257 2.72485,-0.0342 3,-0.13281 0.275,-0.0988 1.62501,-0.36497 3,-0.58985 5.06918,-0.82972 5.95819,-1.07848 6.72071,-1.88476 0.42841,-0.45317 -1.35818,-0.51393 -3.97071,-0.13477 -3.11588,0.45222 -4.75,0.3251 -4.75,-0.37109 0,-0.58368 0.62123,-1.0625 1.37891,-1.0625 1.97582,0 4.00278,-2.64599 2.66211,-3.47461 -0.6977,-0.43121 -0.55763,-1.14933 0.41016,-2.11719 0.80583,-0.80583 1.2323,-2.07045 0.94921,-2.80859 -0.2832,-0.73811 0.28692,-1.64776 1.26563,-2.02344 1.51646,-0.58186 1.56091,-0.82007 0.30664,-1.61328 -1.23371,-0.78029 -1.18668,-0.93593 0.28711,-0.94727 1.50762,-0.0131 1.58066,-0.30096 0.50976,-2.01562 -1.58891,-2.54434 -2.81309,-2.54434 -3.47851,0 -0.28758,1.09999 -1.16732,2 -1.95313,2 -0.7858,0 -2.5328,1.10507 -3.88281,2.45507 -1.35001,1.35013 -2.45508,2.03677 -2.45508,1.5254 0,-0.56667 -0.97648,-0.55921 -2.5039,0.0215 -1.68159,0.63942 -3.32363,0.57822 -5,-0.18555 -3.18025,-1.44911 -3.20603,-2.8164 -0.0527,-2.8164 1.4002,0 3.11634,-0.96058 4.01953,-2.25 0.86673,-1.2375 1.67965,-2.05049 1.80664,-1.8086 0.12692,0.24178 1.13048,-0.0832 2.23047,-0.7207 1.78651,-1.0354 1.81059,-1.163 0.2168,-1.18945 -2.23892,-0.0382 -1.90136,-4.16659 0.57813,-7.0625 0.92692,-1.08261 1.25591,-1.96875 0.72851,-1.96875 -0.52762,0 -0.66525,-0.78747 -0.30469,-1.75 0.59471,-1.58676 0.48189,-1.60826 -1.21289,-0.24805 -1.02791,0.825 -2.82285,2.40001 -3.99023,3.5 -6.80251,6.41004 -10.77782,8.50155 -12.0957,6.36914 -0.51462,-0.83286 -0.22869,-1.01148 0.91601,-0.57226 0.91521,0.35111 1.66406,0.25573 1.66406,-0.2129 0,-0.46858 0.90001,-1.08737 2,-1.375 1.16992,-0.30591 2,-1.3636 2,-2.54882 0,-1.94215 3.26078,-3.8907 5.5,-3.28711 0.54981,0.14827 0.47419,-0.26801 -0.16992,-0.92383 -0.89798,-0.91442 -0.58624,-1.73446 1.33985,-3.51953 1.38141,-1.28028 2.22082,-2.80068 1.86328,-3.37891 -0.3574,-0.57819 -0.0851,-1.05273 0.60742,-1.05273 0.89144,0 0.94805,-0.3098 0.19336,-1.06446 -0.7547,-0.75469 -2.03651,-0.17947 -4.39063,1.97071 -3.7231,3.40051 -11.83611,6.60142 -13.2207,5.21679 -0.88191,-0.88184 3.91801,-6.12304 5.60742,-6.12304 0.9035,0 4.08045,-3.43326 5.64453,-6.10157 0.81211,-1.38561 0.43595,-1.35663 -2.76758,0.2129 -2.03856,0.99877 -5.59151,2.11051 -7.89453,2.4707 -3.94529,0.61697 -4.15332,0.52839 -3.61523,-1.5293 0.40441,-1.54617 0.88191,-1.87196 1.63672,-1.11719 0.58639,0.58636 2.0743,1.06446 3.30469,1.06446 1.9824,0 2.17478,-0.38423 1.68945,-3.375 -0.50978,-3.14143 -0.36002,-3.375 2.17578,-3.375 3.02808,0 5.10115,-2.24422 3.19336,-3.45703 -0.8713,-0.55382 -0.8105,-0.76601 0.2207,-0.77735 0.77927,-0.008 1.18342,-0.24822 0.89844,-0.5332 -0.28479,-0.28483 -1.82174,0.16268 -3.41602,0.99414 -1.59431,0.83146 -3.26983,1.51459 -3.72265,1.51758 -1.50161,0.0112 -0.17886,-3.49295 1.33594,-3.53907 0.81751,-0.025 1.38404,-0.56046 1.25781,-1.18945 -0.12631,-0.62899 0.66119,-1.42603 1.75,-1.77148 1.11277,-0.3532 1.97851,-1.51408 1.97851,-2.65039 0,-1.90572 -0.17568,-1.87227 -3.07617,0.56836 -1.69221,1.4239 -3.66476,2.58789 -4.38476,2.58789 -0.72,0 -2.5787,0.6586 -4.12891,1.46289 -3.25791,1.6902 -4.77204,1.00679 -2.09961,-0.94727 0.99337,-0.72642 1.94478,-2.37684 2.11524,-3.66797 0.45358,-3.43585 1.66461,-5.90882 2.60742,-5.32617 0.45278,0.27984 1.09475,-0.34981 1.42773,-1.39844 0.33283,-1.04859 1.53672,-2.14981 2.67383,-2.44726 1.21565,-0.3179 1.77882,-1.006 1.36719,-1.67188 -0.50158,-0.81146 -1.16651,-0.72378 -2.34961,0.31446 -0.90788,0.79676 -3.56486,2.41065 -5.90235,3.58593 -4.22732,2.12459 -4.25,2.12601 -4.25,0.11719 0,-1.11118 0.49862,-2.02148 1.10743,-2.02148 0.60892,0 0.8394,-0.69722 0.51171,-1.55078 -0.32919,-0.85769 -0.16868,-1.28793 0.35743,-0.96289 1.16968,0.72291 5.27847,-3.22102 4.8125,-4.61915 -0.0463,-0.13876 -0.16394,-0.21308 -0.33789,-0.22851 z m -14.41797,6.59766 c -0.18907,0.0223 -0.39579,0.0748 -0.61328,0.1582 -0.87001,0.33373 -1.99502,0.60742 -2.5,0.60742 -0.50502,0 -0.91797,0.3876 -0.91797,0.86133 0,0.47376 1.125,0.64549 2.5,0.38281 1.37503,-0.26287 2.5,-0.92401 2.5,-1.46875 0,-0.40859 -0.40154,-0.6078 -0.96875,-0.54101 z m -19.27344,28.76562 c -1.02765,0 -0.9554,0.76484 0.29102,3.09375 0.57758,1.07909 1.46936,1.70269 1.98046,1.38672 0.9961,-0.61561 -0.96358,-4.48047 -2.27148,-4.48047 z m 20.46484,7.69727 c 1.23567,-0.0372 1.77735,0.27634 1.77735,0.97656 0,1.4479 -0.2907,1.47543 -4,0.40234 -2.4206,-0.70023 -2.3968,-0.73866 0.75,-1.22656 0.57173,-0.0887 1.06076,-0.13993 1.47265,-0.15234 z m 13.2168,15.30273 c 0.85739,0 1.56055,0.19876 1.56055,0.44141 0,1.0555 -1.91945,1.49778 -2.49024,0.57421 -0.34552,-0.55899 0.0723,-1.01562 0.92969,-1.01562 z m 15.67969,9.54688 c 1.40844,-0.0525 0.71549,0.48711 -2.07031,1.92773 -1.62271,0.83913 -3.76018,1.46351 -4.75,1.38867 -1.2604,-0.0954 -1.12135,-0.26726 0.46484,-0.57226 1.24569,-0.23944 2.03718,-0.80092 1.75976,-1.25 -0.27749,-0.44909 0.84194,-1.01435 2.48633,-1.25586 0.93658,-0.13747 1.6399,-0.2208 2.10938,-0.23828 z m -48.85742,6.81445 c 0.86501,-0.0196 1.73828,0.58502 1.73828,1.58008 0,0.45339 -0.90001,1.06003 -2,1.34765 -2.1662,0.56648 -2.46135,-0.0149 -1.09766,-2.16797 0.32382,-0.51122 0.84037,-0.74803 1.35938,-0.75976 z m 4.20703,2.41601 c 0.52392,-0.0507 1.04529,0.26483 1.28125,0.97266 0.22919,0.6875 -0.33332,1.25 -1.25,1.25 -0.91669,0 -1.51729,-0.45 -1.33399,-1 0.25166,-0.75494 0.77881,-1.17198 1.30274,-1.22266 z m 6.64843,1.22266 c 0.54981,0 0.7226,0.45 0.38282,1 -0.3399,0.55 -1.06915,1 -1.61914,1 -0.54981,0 -0.72064,-0.45 -0.38086,-1 0.33989,-0.55 1.06719,-1 1.61718,-1 z m 38.82227,4 c 0.58243,0 1.06055,0.45 1.06055,1 0,1.28137 -0.70812,1.28137 -1.5,0 -0.3399,-0.55 -0.14294,-1 0.43945,-1 z m -40.48633,6.03906 c 0.27601,0 0.65093,0.32025 1.04688,0.96094 0.33989,0.55 0.14098,1 -0.44141,1 -0.58239,0 -1.05859,-0.45 -1.05859,-1 0,-0.64069 0.17711,-0.96094 0.45312,-0.96094 z m -5.42383,0.20117 c 1.18557,0.034 2.29631,1.42132 1.52344,2.67188 -0.3696,0.59792 -1.06763,1.08789 -1.55273,1.08789 -1.54462,0 -2.26717,-2.13318 -1.11328,-3.28711 0.34488,-0.34487 0.74739,-0.48397 1.14257,-0.47266 z m -10.77929,14.77539 c 1.81939,0.0124 1.963,0.20051 0.75,0.98438 -1.93883,1.25291 -3,1.25291 -3,0 0,-0.55 1.0125,-0.99193 2.25,-0.98438 z m 61.75,0.98438 c 0.54999,0 1,0.45 1,1 0,0.55 -0.45001,1 -1,1 -0.55,0 -1,-0.45 -1,-1 0,-0.55 0.45,-1 1,-1 z m -71.86133,4.01562 c 0.95199,-0.009 1.58088,0.71784 1.5,1.73438 -0.0993,1.25061 0.5031,1.68218 2.11133,1.51172 1.23749,-0.131 2.25,0.23259 2.25,0.80859 0,0.57579 0.41767,0.78899 0.92968,0.47269 0.51202,-0.3165 1.2025,-0.1385 1.53321,0.3965 0.68209,1.1036 3.66487,0.2489 4.77148,-1.36723 0.4896,-0.71505 0.73866,-0.64474 0.75,0.20898 0.008,0.70475 -0.65868,1.54025 -1.48047,1.85545 -0.8217,0.3154 -1.23104,0.9966 -0.91015,1.5156 0.36151,0.585 1.03693,0.5676 1.77734,-0.047 0.74559,-0.6189 1.74678,-0.6434 2.66211,-0.064 1.18768,0.7514 1.08659,0.9325 -0.5332,0.959 -1.65899,0.025 -1.74419,0.1959 -0.5,1 2.0776,1.3426 -0.79355,1.1993 -8.31836,-0.416 -8.89871,-1.9102 -13.93006,-8.49921 -6.54297,-8.56838 z m 8.94336,21.10738 c 0.34739,-0.014 0.74452,0.049 1.10547,0.1934 0.7977,0.3192 0.55953,0.5555 -0.60547,0.6035 -1.05396,0.043 -1.64472,-0.1912 -1.3125,-0.5234 0.16615,-0.1661 0.4651,-0.2591 0.8125,-0.2735 z m 92.70508,0.2793 c 1.16445,0.1099 3.21289,2.1161 3.21289,3.5254 0,0.5893 -1.80002,1.0723 -4,1.0723 -4.09523,0 -5.38448,-1.5525 -2.25,-2.709 0.96253,-0.3551 2.04574,-1.089 2.4082,-1.6308 0.13869,-0.2073 0.36019,-0.2832 0.62891,-0.2579 z m -106.27149,3.9043 c 1.262,-0.018 2.59585,0.3759 3.74805,1.1309 1.34933,0.8839 3.14734,1.3426 3.99414,1.0176 2.01139,-0.7718 3.40875,1.5071 1.61914,2.6406 -1.78129,1.1283 -2.53185,1.0325 -7.56055,-0.9668 -5.485,-2.1806 -6.0799,-2.9004 -3.02929,-3.666 0.39512,-0.099 0.80785,-0.1503 1.22851,-0.1563 z m 6.9375,8.7325 c 0.27601,0 0.65093,0.3202 1.04688,0.9609 0.33989,0.55 0.14098,1 -0.44141,1 -0.58239,0 -1.05859,-0.45 -1.05859,-1 0,-0.6407 0.17711,-0.9609 0.45312,-0.9609 z m -4.33008,14.416 c 0.47194,-0.07 0.63192,0.1315 0.36914,0.5566 -0.336,0.5437 -1.03524,0.9883 -1.55273,0.9883 -1.43841,0 -1.12106,-0.718 0.61133,-1.3828 0.2225,-0.085 0.41495,-0.1387 0.57226,-0.1621 z m 97.38282,3.8476 c 1.06587,0.028 1.31118,0.2787 0.83203,0.7578 -1.5103,1.5104 -7.33789,2.3049 -7.33789,1 0,-0.583 0.3375,-1.1102 0.75,-1.1718 2.80395,-0.4179 4.68998,-0.614 5.75586,-0.586 z m -92.65625,1.8496 c 0.0977,0.01 0.18795,0.027 0.26953,0.055 0.65261,0.2176 -0.33411,1.1298 -2.19141,2.0293 -2.4878,1.2049 -3.72409,1.349 -4.69531,0.543 -0.9586,-0.7956 -1.63475,-0.7792 -2.47656,0.062 v 0 c -1.3801,1.3802 -1.81364,1.4064 -3.67774,0.2266 -1.04719,-0.6628 -0.28562,-1.2047 2.89258,-2.0605 3.40157,-0.916 4.48047,-0.8959 5.0957,0.1 0.6274,1.0137 1.08205,1.0096 2.32227,-0.02 0.74234,-0.616 1.77705,-0.9974 2.46094,-0.9375 z m 6.53711,3.1914 c 0.35859,-0.06 0.61328,0.1609 0.61328,0.5977 0,0.5825 -0.45001,1.0586 -1,1.0586 -1.28141,0 -1.28141,-0.7081 0,-1.5 0.1375,-0.085 0.26719,-0.1362 0.38672,-0.1563 z m -5.57813,0.6719 c 1.28761,-0.01 2.0361,0.4268 1.69141,0.9844 -0.74321,1.2025 -0.6393,1.2025 -2.5,0 -1.20681,-0.7798 -1.04901,-0.973 0.80859,-0.9844 z m 78.64453,4.0235 c 0.27602,0 0.65091,0.3202 1.04688,0.9609 0.33989,0.55 0.14098,1 -0.44141,1 -0.58242,0 -1.05859,-0.45 -1.05859,-1 0,-0.6407 0.17711,-0.9609 0.45312,-0.9609 z m -84.1875,1.539 c 0.21078,0.016 0.45722,0.059 0.73242,0.1309 1.10079,0.2878 2.00196,0.6973 2.00196,0.9082 0,0.789 -2.90504,0.3475 -3.44336,-0.5235 -0.23114,-0.3739 0.0767,-0.5651 0.70898,-0.5156 z m 83.23438,1.4219 c 0.82499,0 1.5,0.45 1.5,1 0,0.55 -0.67501,1 -1.5,1 -0.825,0 -1.5,-0.45 -1.5,-1 0,-0.55 0.675,-1 1.5,-1 z m -66.80078,1.041 c 0.105,-0.01 -0.0226,0.3987 -0.30469,1.209 -0.34122,0.9798 -0.12176,1.75 0.49804,1.75 0.60889,0 1.10743,0.422 1.10743,0.9375 h -0.002 c 0,0.8735 -11.34,1.0781 -15.25,0.2754 -2.13573,-0.4385 -2.33434,-2.2129 -0.24804,-2.2129 0.82499,0 1.5,-0.4188 1.5,-0.9297 0,-1.372 7.2759,-0.7816 8.85937,0.7188 1.11693,1.0582 1.61181,0.9686 2.75391,-0.5 0.64424,-0.8285 0.98094,-1.2428 1.08594,-1.2481 z m 25.42382,1.4141 c 0.47194,-0.07 0.63192,0.1315 0.36914,0.5566 -0.336,0.5437 -1.03524,0.9883 -1.55273,0.9883 -1.43841,0 -1.12106,-0.718 0.61133,-1.3828 0.2225,-0.085 0.41495,-0.1387 0.57226,-0.1621 z m -15.07421,1.5742 c 0.52503,0 0.95117,0.3237 0.95117,0.9707 0,0.55 -0.70305,1 -1.56055,1 -0.85746,0 -1.27923,-0.45 -0.93945,-1 0.39985,-0.647 1.02379,-0.9707 1.54883,-0.9707 z m -23.30665,5.4746 c 0.16217,-0.022 0.25782,0.051 0.25782,0.2324 0,1.5006 -2.93474,4.9012 -2.96875,3.4414 -0.0175,-0.7267 0.64375,-1.9953 1.46875,-2.8203 0.51562,-0.5156 0.97191,-0.8175 1.24218,-0.8535 z m 24.88868,12.584 c 0.40842,0.015 0.40153,0.3819 0.0976,1.1738 -0.33959,0.885 -0.0804,1.8266 0.57617,2.0938 0.76706,0.312 0.65913,0.5424 -0.30468,0.6425 -5.02341,0.5222 -8.38855,0.3915 -10.31055,-0.4003 -1.89071,-0.779 -1.95024,-0.9607 -0.43945,-1.3243 0.96249,-0.2315 1.75,-0.8917 1.75,-1.4687 0,-0.7029 0.41268,-0.7225 1.25,-0.057 1.31221,1.0435 2.97039,0.9558 6.17187,-0.3261 0.56806,-0.2275 0.96393,-0.3433 1.20899,-0.334 z m -26.54883,4.0351 c -0.34741,0.014 -0.64639,0.1074 -0.8125,0.2735 -0.32933,0.3317 0.25984,0.5668 1.3125,0.5234 1.165,-0.048 1.40317,-0.2841 0.60547,-0.6035 -0.36095,-0.1444 -0.75807,-0.2077 -1.10547,-0.1934 z"
       id="path4694"
       transform="matrix(0.26458333,0,0,0.26458333,-173.23051,-113.12398)" />
  </g>
</svg>
