<?xml version="1.0" encoding="UTF-8" standalone="no"?>
<!-- Created with Inkscape (http://www.inkscape.org/) -->

<svg
   width="21.34523mm"
   height="77.781982mm"
   viewBox="0 0 21.345231 77.781982"
   version="1.1"
   id="svg8"
   xmlns="http://www.w3.org/2000/svg"
   xmlns:svg="http://www.w3.org/2000/svg"
   xmlns:rdf="http://www.w3.org/1999/02/22-rdf-syntax-ns#"
   xmlns:cc="http://creativecommons.org/ns#"
   xmlns:dc="http://purl.org/dc/elements/1.1/">
  <defs
     id="defs2" />
  <metadata
     id="metadata5">
    <rdf:RDF>
      <cc:Work
         rdf:about="">
        <dc:format>image/svg+xml</dc:format>
        <dc:type
           rdf:resource="http://purl.org/dc/dcmitype/StillImage" />
      </cc:Work>
    </rdf:RDF>
  </metadata>
  <g
     id="layer1"
     transform="translate(-37.001728,-60.760154)"
     style="display:inline">
    <path
       d="m 48.759966,60.76262 c -0.17164,0.0195 -0.18688,0.16085 -0.0992,0.49609 0.11006,0.42087 0.0664,0.50654 -0.16537,0.31419 -0.21865,-0.18146 -0.50239,-0.0684 -0.93432,0.38034 -0.49173,0.51091 -0.56031,0.72872 -0.31419,1.02526 0.2495,0.30066 0.1539,0.48681 -0.4961,0.96739 -0.44537,0.32927 -0.81028,0.6855 -0.81028,0.78548 0,0.1 0.38695,0.37262 0.85989,0.61185 l 0.8599,0.43821 -0.76068,-0.0744 c -0.60814,-0.0568 -0.78491,0.0483 -0.8599,0.51263 -0.0517,0.32009 0.0219,0.65546 0.16537,0.74414 0.38243,0.23635 0.31917,0.66146 -0.0992,0.66146 -0.19865,0 -0.67802,0.2483 -1.06659,0.55397 -0.52821,0.41548 -0.65966,0.6993 -0.52916,1.12448 0.23725,0.77309 0.30236,0.82015 0.70278,0.48782 0.26382,-0.21894 0.34727,-0.17134 0.34727,0.19017 0,0.3137 -0.14587,0.43199 -0.43821,0.35554 -0.24344,-0.0637 -0.51805,0.0135 -0.61184,0.16536 -0.26504,0.42879 -0.94319,0.0456 -0.76068,-0.42995 0.1103,-0.28752 0.0598,-0.35411 -0.16537,-0.21497 -0.18018,0.11135 -0.26289,0.35629 -0.19018,0.5457 0.0727,0.18942 -0.0244,0.55799 -0.21497,0.81856 -0.28514,0.38995 -0.28456,0.53401 0,0.81855 0.19013,0.19014 0.48847,0.34727 0.66974,0.34727 0.20007,0 0.12242,0.23393 -0.20672,0.59531 -0.29821,0.32742 -0.68564,0.86959 -0.8599,1.20716 -0.27299,0.52881 -0.23778,0.68053 0.26459,1.11621 0.55559,0.48187 0.55694,0.5163 0.0827,0.69453 -0.73171,0.27499 -1.17076,0.94837 -0.8599,1.32292 0.18286,0.22033 0.0872,0.33556 -0.33073,0.39688 -0.32451,0.0476 -0.63778,0.24923 -0.70278,0.44648 -0.0913,0.27693 0.0763,0.31204 0.74414,0.16537 0.7458,-0.16382 0.84362,-0.12393 0.69453,0.26458 -0.2576,0.67125 0.0659,1.01282 0.57877,0.61185 0.38476,-0.30081 0.39849,-0.2903 0.10748,0.0827 -0.2099,0.26898 -0.58018,0.378 -1.00044,0.29766 -0.53086,-0.10148 -0.60534,-0.19681 -0.36381,-0.48783 0.24154,-0.29102 0.18976,-0.3638 -0.26458,-0.3638 -0.61693,0 -1.11741,0.82091 -0.60359,0.99219 0.17171,0.0572 0.31419,0.34734 0.31419,0.63665 0,0.56724 0.5819,1.28157 1.0418,1.28158 0.15592,0 0.28112,-0.12702 0.28112,-0.28112 0,-0.15411 0.13345,-0.20071 0.29765,-0.0992 0.20363,0.12584 0.15706,0.26338 -0.14054,0.42994 -0.24003,0.13433 -0.37264,0.3417 -0.29766,0.46303 0.075,0.12132 -0.0389,0.28863 -0.25633,0.37207 -0.21743,0.0834 -0.39687,0.0417 -0.39687,-0.0992 0,-0.37907 -1.52271,-0.31158 -1.67844,0.0744 -0.10038,0.24873 -0.14139,0.24255 -0.15711,-0.0248 -0.0115,-0.19552 0.22392,-0.41843 0.52091,-0.49609 0.52885,-0.13831 0.59817,-0.63372 0.10747,-0.77722 -0.4056,-0.11861 -1.87999,1.25856 -1.50481,1.4056 0.24685,0.0968 0.22174,0.233 -0.0827,0.53744 -0.36353,0.36355 -0.35062,0.43827 0.0744,0.76067 0.2604,0.19752 0.35222,0.36522 0.20669,0.37207 -0.14552,0.007 -0.0884,0.12191 0.12404,0.25632 0.3333,0.21082 0.32422,0.3128 -0.0661,0.74414 -0.2489,0.275 -0.45477,0.63984 -0.45477,0.81029 0,0.37176 0.69646,0.41594 0.91779,0.0579 0.086,-0.13916 0.33607,-0.18283 0.55395,-0.0992 0.33692,0.12929 0.32348,0.20516 -0.0744,0.4961 -0.25733,0.18816 -0.55261,0.28225 -0.66146,0.21497 -0.10884,-0.0673 -0.44854,0.11377 -0.75242,0.39688 -0.37539,0.34973 -0.46021,0.5685 -0.2563,0.69453 0.16505,0.10202 0.28101,0.44715 0.2563,0.76068 -0.0915,1.16109 0.0106,1.47749 0.41341,1.32291 0.23411,-0.0898 0.39357,-0.005 0.38862,0.20671 -0.0114,0.48632 -0.64508,1.28984 -1.017,1.28984 -0.16587,0 -0.29766,0.13297 -0.29766,0.29766 0,0.19581 0.36031,0.24851 1.0418,0.15709 0.84288,-0.11305 1.13371,-0.034 1.52135,0.42168 0.37664,0.44274 0.38669,0.49792 0.0414,0.23151 -0.3274,-0.25255 -0.48766,-0.26079 -0.62839,-0.0331 -0.13806,0.22338 -0.25228,0.20283 -0.41341,-0.0579 -0.16856,-0.27273 -0.29215,-0.27837 -0.52917,-0.0413 -0.23701,0.23703 -0.0811,0.35008 0.65318,0.48783 0.52829,0.0991 0.95912,0.23386 0.95912,0.29765 0,0.26013 -0.8908,1.80857 -1.24024,2.15801 -0.20635,0.20634 -0.30535,0.43878 -0.22323,0.5209 0.0821,0.0821 0.29081,0.0151 0.46302,-0.1571 0.62037,-0.62036 0.7597,-0.29705 0.2067,0.47956 -0.5488,0.77071 -0.41416,1.10042 0.19843,0.48783 0.22844,-0.22843 0.2826,-0.14653 0.23151,0.33073 -0.0834,0.77893 -0.67418,1.88985 -0.68625,1.28984 -0.004,-0.21966 -0.23704,-0.54205 -0.52091,-0.71934 -0.41944,-0.26195 -0.5946,-0.24876 -0.92604,0.0827 -0.60216,0.60217 -1.08291,0.18368 -0.51263,-0.44649 0.34949,-0.38618 0.38156,-0.58583 0.14883,-0.81855 -0.16875,-0.16876 -0.37513,-0.23673 -0.46302,-0.14883 -0.2826,0.28261 -0.3769,2.32337 -0.10748,2.32337 0.14264,0 0.25631,0.11906 0.25631,0.26458 0,0.14553 -0.14174,0.23482 -0.3142,0.19844 -0.47572,-0.10037 -0.5308,1.38122 -0.0579,1.5627 0.33504,0.12857 0.32062,0.24479 -0.11576,0.71933 -0.52575,0.5717 -0.70971,2.01745 -0.25632,2.01745 0.13713,0 0.17504,0.23812 0.0827,0.52917 -0.13478,0.42467 -0.0456,0.52592 0.44648,0.52916 0.45204,0.003 0.51687,0.0695 0.24805,0.23978 -0.20056,0.12703 -0.28086,0.36078 -0.1819,0.5209 0.1179,0.19075 0.0173,0.22518 -0.28938,0.10749 -0.40804,-0.15657 -0.42539,-0.12593 -0.0992,0.22324 0.2058,0.22032 0.64294,0.35141 0.96737,0.28939 0.60032,-0.11476 0.70464,0.24307 0.27287,0.93431 -0.13592,0.21754 0.005,0.41832 0.40513,0.57877 0.61113,0.2451 0.56385,0.27334 -0.79375,0.41342 -0.33713,0.0348 -0.75385,0.20153 -0.92604,0.38033 -0.24294,0.25225 -0.18079,0.42247 0.28112,0.73588 0.32742,0.22215 0.59531,0.52939 0.59531,0.68626 0,0.18599 -0.10716,0.17396 -0.31419,-0.0331 -0.43212,-0.43212 -0.74414,-0.39574 -0.74414,0.0827 0,0.21828 0.16936,0.39687 0.37208,0.39687 0.20272,1e-5 0.43712,0.1786 0.52088,0.39688 0.0838,0.21828 0.31589,0.39687 0.52092,0.39687 0.20502,1e-5 0.51948,0.16945 0.69453,0.38034 0.26575,0.32021 0.19608,0.37476 -0.40516,0.33073 -0.4137,-0.0303 -0.77764,0.10404 -0.85161,0.3142 -0.097,0.27564 0.0791,0.33131 0.70278,0.23977 0.87456,-0.12835 1.0835,0.2213 0.4961,0.81856 -0.26533,0.26978 -0.21268,0.43156 0.28112,0.83509 0.33853,0.27665 0.54721,0.62763 0.45476,0.77721 -0.0924,0.14959 -0.0466,0.27285 0.10748,0.27285 0.15412,1e-5 0.28112,0.1786 0.28112,0.39688 0,0.21828 -0.11907,0.39687 -0.26459,0.39687 -0.14552,10e-6 -0.26458,0.1786 -0.26458,0.39688 0,0.54542 0.70361,0.50032 1.03354,-0.0661 0.24085,-0.41351 0.27392,-0.39936 0.28112,0.1323 0.009,0.66124 0.2725,0.75275 0.7524,0.27285 0.24693,-0.24695 0.31419,-0.24695 0.31419,0 0,0.17462 -0.11906,0.32246 -0.26458,0.32246 -0.14552,0 -0.26459,0.17859 -0.26459,0.39687 0,0.21828 0.1786,0.39688 0.39688,0.39688 0.21828,0 0.39081,0.20835 0.38862,0.46302 -0.002,0.28566 -0.0785,0.34497 -0.19844,0.16536 -0.29546,-0.44249 -1.35758,-0.94171 -1.63711,-0.76894 -0.46998,0.29046 0.40331,1.72806 1.05005,1.72806 0.17333,0 0.21093,0.13907 0.091,0.33073 -0.11391,0.1819 -0.21114,0.44979 -0.21498,0.59531 -0.004,0.14552 -0.0976,0.29435 -0.20672,0.33073 -0.46976,0.15659 -0.7276,0.0394 -0.7276,-0.33073 0,-0.46425 -0.41558,-0.53209 -0.678,-0.10749 -0.1,0.1618 -0.0186,0.40214 0.18191,0.52917 0.29114,0.18441 0.27458,0.22827 -0.0827,0.23151 -0.75938,0.007 -0.86759,0.58932 -0.20669,1.12448 0.5067,0.4103 0.55298,0.54741 0.24805,0.73587 -0.2063,0.1275 -0.29284,0.31902 -0.19018,0.42168 0.10265,0.10266 -0.0205,0.33548 -0.27284,0.5209 -0.41799,0.30705 -0.38722,0.36264 0.33073,0.63665 0.54901,0.20955 0.81944,0.22059 0.88468,0.0248 0.0515,-0.15459 0.22159,-0.28112 0.38034,-0.28112 0.15875,1e-5 0.0353,0.27505 -0.28112,0.61185 -0.31641,0.33681 -0.57877,0.75352 -0.57877,0.92605 0,0.41494 1.11847,0.4033 1.57096,-0.0165 0.29162,-0.2706 0.33028,-0.24771 0.19018,0.14883 -0.0942,0.26656 -0.17364,0.60071 -0.17364,0.74414 0,0.14342 -0.22559,0.19334 -0.4961,0.10748 -0.61259,-0.19443 -1.31093,0.51203 -0.7276,0.73588 0.30422,0.11674 0.33488,0.36335 0.13229,1.26504 -0.20492,0.91204 -0.18232,1.16702 0.14057,1.34772 0.2345,0.13123 0.32999,0.40479 0.23151,0.66146 -0.13208,0.34417 -0.0629,0.39291 0.33899,0.23977 0.40828,-0.15554 0.44722,-0.12671 0.1819,0.14056 -0.49636,0.50005 -0.3982,0.83402 0.19844,0.678 0.76491,-0.20003 0.89169,0.22716 0.24804,0.82682 -0.37827,0.35242 -0.45333,0.57593 -0.24804,0.7028 0.16565,0.10238 0.53607,-0.0263 0.82682,-0.28939 0.45368,-0.41058 0.5592,-0.42252 0.76896,-0.0909 0.33096,0.52326 0.31758,0.79909 -0.0414,0.71934 -0.16369,-0.0364 -0.35496,0.0827 -0.42166,0.26458 -0.069,0.18805 0.088,0.32951 0.3638,0.33073 0.71543,0.003 2.18678,2.90538 1.88515,3.7207 -0.12366,0.3343 -0.16441,0.76771 -0.091,0.95912 0.0134,0.035 0.0381,0.0617 0.0744,0.091 h 4.39041 c 0.0121,-0.21412 -0.0799,-0.70077 -0.23976,-1.23197 -0.34745,-1.15441 -0.33158,-1.26098 0.46302,-2.836 0.45318,-0.89827 1.1331,-1.90226 1.51307,-2.23242 0.58574,-0.50892 0.63413,-0.63571 0.29766,-0.8599 -0.34608,-0.23059 -0.33761,-0.29947 0.0661,-0.53743 0.25467,-0.15009 0.46303,-0.56948 0.46303,-0.92604 0,-0.51515 0.13589,-0.64493 0.66145,-0.64493 0.79203,0 0.8813,-0.5213 0.12404,-0.71933 -0.50684,-0.13255 -0.51038,-0.1641 -0.0661,-0.50436 0.40966,-0.31377 0.42093,-0.38826 0.0744,-0.62012 -0.32399,-0.2168 -0.28755,-0.26954 0.19843,-0.27285 0.3954,-0.003 0.59532,-0.16326 0.59532,-0.47956 0,-0.26194 0.15004,-0.62133 0.33072,-0.80202 0.26162,-0.26163 0.25628,-0.37197 -0.0248,-0.5457 -0.26614,-0.16447 -0.15965,-0.3598 0.43821,-0.78548 0.43608,-0.31053 0.92001,-0.56224 1.07487,-0.56224 0.15486,0 0.21603,-0.1786 0.13229,-0.39688 -0.18468,-0.48125 -0.80513,-0.52398 -0.95912,-0.0661 -0.084,0.24967 -0.33528,0.21097 -1.01698,-0.14056 -0.49665,-0.25611 -0.65418,-0.39995 -0.34726,-0.32246 0.82907,0.20935 1.32839,-0.50085 0.94258,-1.34773 -0.38704,-0.8494 -0.38555,-0.90123 0.0744,-0.90123 0.76205,0 0.75768,-0.61908 -0.008,-1.23197 -0.4818,-0.38554 -0.62129,-0.6193 -0.37208,-0.62012 0.21915,-7.9e-4 0.56396,-0.38031 0.76896,-0.84335 0.33985,-0.7678 0.32964,-0.87605 -0.13229,-1.23197 -0.4888,-0.37661 -0.47546,-0.41933 0.40513,-1.29811 0.83753,-0.83585 0.87164,-0.93517 0.42994,-1.18236 -0.38203,-0.2138 -0.40568,-0.31375 -0.12401,-0.48783 0.19513,-0.1206 0.27403,-0.30476 0.17362,-0.40514 -0.16825,-0.16825 -0.42968,-0.0274 -1.92648,1.0666 -0.30345,0.22178 -0.78732,0.32796 -1.12448,0.23978 -0.54689,-0.14301 -0.5016,-0.214 0.53742,-0.89297 2.02078,-1.3205 3.28515,-2.68068 2.11667,-2.27376 -0.43347,0.15096 -0.43815,0.13869 -0.0165,-0.19017 0.28819,-0.22477 0.40222,-0.55784 0.30594,-0.92604 -0.10843,-0.41465 -0.0337,-0.57051 0.27284,-0.57051 0.43471,0 2.01745,-1.4859 2.01745,-1.89342 0,-0.12394 -0.14883,-0.22689 -0.33073,-0.23151 -0.19333,-0.005 -0.12915,-0.16349 0.15711,-0.38034 0.47445,-0.35943 0.47834,-0.39303 -0.0414,-0.95085 -0.29498,-0.31663 -0.4745,-0.74025 -0.39687,-0.94258 0.15089,-0.39322 -0.14087,-0.46676 -0.81854,-0.2067 -0.556,0.21336 -0.54174,0.63665 0.0248,0.63665 0.35822,0 0.38565,0.0608 0.12403,0.32246 -0.26162,0.26164 -0.37327,0.25927 -0.55398,-0.0331 -0.13327,-0.21564 -0.41868,-0.29285 -0.68625,-0.19017 -0.37126,0.14247 -0.42029,0.0585 -0.2894,-0.42995 0.0883,-0.32958 0.16338,-0.81162 0.16536,-1.07487 0.002,-0.26454 0.12023,-0.40026 0.27287,-0.30592 0.38317,0.2368 1.10032,-0.4107 0.93429,-0.84336 -0.0748,-0.19497 1.9e-4,-0.35554 0.16537,-0.35554 0.16518,10e-6 0.23553,-0.0704 0.14883,-0.15709 -0.0867,-0.0867 0.0637,-0.55992 0.33901,-1.05007 0.51321,-0.91369 0.3139,-1.48422 -0.27287,-0.77721 -0.17983,0.21668 -0.44979,0.39687 -0.59531,0.39687 -0.16142,0 -0.14674,-0.13888 0.0331,-0.35553 0.16209,-0.19529 0.20709,-0.45142 0.0992,-0.57051 -0.10787,-0.11908 -0.0506,-0.13011 0.13229,-0.0248 0.20175,0.11614 0.39913,0.002 0.50438,-0.28939 0.0954,-0.26388 0.39407,-0.79609 0.66146,-1.18235 0.62285,-0.89986 0.61484,-1.11418 -0.0414,-0.94258 -0.43209,0.11299 -0.52916,0.009 -0.52916,-0.57051 0,-0.39056 0.19481,-0.98723 0.42994,-1.32292 0.3287,-0.46928 0.35645,-0.68062 0.11576,-0.91777 -0.23871,-0.23523 -0.38973,-0.2077 -0.62839,0.10749 -0.17211,0.2273 -0.50035,0.4772 -0.7276,0.56224 -0.32708,0.12239 -0.3928,0.005 -0.30591,-0.58705 0.074,-0.50416 0.2318,-0.70692 0.47956,-0.61185 0.43775,0.16799 0.83878,-0.68672 0.4382,-0.93431 -0.25966,-0.16049 -0.33073,-0.3097 -0.33073,-0.73587 0,-0.0953 -0.20836,2.1e-4 -0.46302,0.21498 -0.31597,0.26648 -0.71506,0.33356 -1.25677,0.2067 l -0.79375,-0.19017 0.74414,-0.0331 c 0.42788,-0.018 0.67402,-0.14354 0.57877,-0.29766 -0.0919,-0.14875 0.19408,-0.33978 0.64493,-0.42994 0.44619,-0.0892 0.81028,-0.31158 0.81028,-0.4961 0,-0.42533 -0.88376,-0.78004 -1.00872,-0.40514 -0.0513,0.15385 -0.22088,0.28112 -0.37206,0.28112 -0.17235,0 -0.15494,-0.14386 0.0413,-0.38034 0.34994,-0.42166 0.28842,-1.24094 -0.11576,-1.53789 -0.152,-0.11167 -0.0829,-0.19611 0.16537,-0.19844 0.23767,-0.002 0.5031,-0.26597 0.58706,-0.58704 0.20034,-0.76603 0.0829,-0.84567 -0.66146,-0.45476 -0.5901,0.30986 -0.59873,0.29697 -0.19018,-0.1819 0.23534,-0.27583 0.42431,-0.67469 0.42169,-0.89297 -0.003,-0.21827 0.0839,-0.78383 0.19015,-1.25677 0.2,-0.88996 -0.24656,-1.25581 -0.55395,-0.45475 -0.096,0.25006 -0.33819,0.34278 -0.63667,0.24805 -0.53004,-0.16823 -1.47601,0.96866 -1.19063,1.4304 0.0877,0.14187 0.0486,0.32403 -0.0827,0.40515 -0.50051,0.30933 -0.48514,-1.15004 0.0165,-1.60404 0.2753,-0.24914 0.42804,-0.63283 0.34726,-0.84336 -0.0808,-0.21053 0.0947,-0.78339 0.38862,-1.28158 0.29396,-0.49819 0.53743,-1.16041 0.53743,-1.46347 0,-0.30306 0.20836,-0.70792 0.46302,-0.90124 0.42235,-0.32061 0.39812,-0.34786 -0.23977,-0.35553 -0.38462,-0.005 -0.76007,-0.16824 -0.8351,-0.36381 -0.0968,-0.25214 0.0445,-0.32295 0.47955,-0.23977 0.56462,0.10793 0.61066,0.036 0.54571,-0.90124 -0.0388,-0.56017 -0.16629,-1.24374 -0.28112,-1.51309 -0.13666,-0.32047 -0.0845,-0.56632 0.15711,-0.71933 0.20312,-0.12861 0.26397,-0.23755 0.13229,-0.23978 -0.13168,-0.002 -0.0236,-0.23813 0.23976,-0.52917 0.40143,-0.44357 0.41439,-0.52917 0.0744,-0.52916 -0.2231,0 -0.57576,0.25462 -0.78549,0.5705 -0.82492,1.24241 -1.21095,-0.21652 -0.58703,-2.22415 0.1784,-0.574 -0.10105,-0.59422 -0.70282,-0.0496 -0.28839,0.26098 -0.52313,0.31084 -0.62838,0.14056 -0.0918,-0.14861 0.14515,-0.47599 0.52916,-0.7276 0.56304,-0.36892 0.62852,-0.50868 0.33901,-0.73588 -0.47685,-0.37417 -0.45315,-1.26032 0.0413,-1.66191 0.28155,-0.22864 0.30343,-0.32476 0.0661,-0.33073 -0.18394,-0.005 -0.69424,0.37868 -1.12448,0.85163 -0.7166,0.78771 -0.77838,0.80626 -0.78547,0.28112 -0.004,-0.3153 0.0999,-0.61295 0.23151,-0.66146 0.13163,-0.0485 0.28049,-0.38034 0.33073,-0.74414 0.0825,-0.59716 0.004,-0.66701 -0.82682,-0.66146 -0.53488,0.004 -1.11633,-0.19024 -1.38907,-0.46302 -0.36041,-0.36037 -0.38713,-0.46302 -0.0992,-0.46302 0.20613,0 0.4191,0.12461 0.47127,0.28112 0.0557,0.16723 0.37513,0.21667 0.77722,0.11575 0.61187,-0.15357 0.67407,-0.28633 0.59531,-1.21543 -0.066,-0.77811 0.0142,-1.03353 0.30594,-1.03352 0.55086,0 0.47982,-0.34328 -0.14883,-0.73588 -0.39013,-0.24364 -0.67707,-0.26192 -1.05834,-0.0579 -0.68495,0.36657 -0.67749,-0.043 0.008,-0.47129 0.97883,-0.61128 0.61307,-0.9118 -0.92604,-0.76068 -1.34057,0.13162 -1.72493,-0.003 -1.28156,-0.44649 0.0957,-0.0958 0.35623,-0.0235 0.57877,0.1571 0.33928,0.2754 0.37703,0.25596 0.23151,-0.13229 -0.12607,-0.33643 -0.0407,-0.46302 0.31419,-0.46302 0.26866,0 0.63739,-0.1786 0.81855,-0.39688 0.34819,-0.41954 0.0451,-0.53637 -1.19063,-0.44648 -0.47855,0.0348 -0.48432,0.006 -0.0909,-0.29766 0.41214,-0.31831 0.43043,-0.69269 0.1323,-2.43086 -0.0499,-0.29104 -0.3088,-0.57733 -0.57053,-0.62838 -0.0931,-0.0182 -0.16602,-0.023 -0.22322,-0.0165 z m -0.43823,1.67845 c 0.29104,0 0.52916,0.13326 0.52916,0.28939 0,0.15613 -0.23812,0.30053 -0.52916,0.32246 -0.29105,0.0219 -0.52917,-0.10307 -0.52917,-0.28112 0,-0.17806 0.23812,-0.33073 0.52917,-0.33073 z m -0.12401,1.48001 c 0.2137,0 0.38859,0.11112 0.38859,0.24805 0,0.44355 -0.4722,0.55582 -0.62839,0.14883 -0.0922,-0.24015 0.004,-0.39688 0.2398,-0.39688 z m -2.78641,4.7625 c 0.14552,0 0.26458,0.0516 0.26458,0.11576 0,0.0642 -0.11906,0.19118 -0.26458,0.28112 -0.14552,0.0899 -0.26458,0.0384 -0.26458,-0.11576 0,-0.15411 0.11906,-0.28112 0.26458,-0.28112 z m -0.98391,2.2903 c 0.30136,-0.01 0.59598,0.11898 0.73586,0.38034 0.2988,0.55831 0.0957,0.62701 -0.61185,0.21497 -0.25582,-0.14897 -0.60208,-0.1858 -0.76893,-0.0827 -0.17457,0.10789 -0.22955,0.0747 -0.13229,-0.0827 0.16767,-0.27131 0.47583,-0.4202 0.77721,-0.42995 z m -1.41388,1.53789 c -0.43635,0.0131 -1.04179,0.34568 -1.04179,0.678 0,0.31947 0.0636,0.32077 0.95086,-0.0165 0.50646,-0.19256 0.64246,-0.35801 0.44648,-0.55397 -0.0785,-0.0785 -0.21011,-0.11185 -0.35555,-0.10749 z m 9.93841,0.57878 -0.64492,0.7028 c -0.67402,0.74226 -0.81568,0.83845 -0.802,0.51263 0.005,-0.10914 0.33194,-0.43171 0.7276,-0.71107 z m -1.97609,1.54616 c 0.3407,-0.0393 0.5855,0.24131 0.33898,0.48782 -0.23918,0.23919 -0.55607,0.21136 -0.7276,-0.0661 -0.0805,-0.13027 0.027,-0.30696 0.23979,-0.38861 0.0517,-0.0198 0.10015,-0.0275 0.14883,-0.0331 z m 1.62057,3.29902 c 0.0482,-0.003 0.1542,0.0309 0.3142,0.091 0.26656,0.10001 0.59367,0.1819 0.73586,0.1819 0.14218,0 0.18917,0.11906 0.0992,0.26459 -0.23751,0.38432 -0.54625,0.32564 -0.95911,-0.18191 -0.19979,-0.2456 -0.27048,-0.35079 -0.19016,-0.35553 z m -7.01145,0.61185 c 0.0689,0.007 0.009,0.10363 -0.16537,0.31419 -0.38103,0.45912 -0.53745,0.50561 -0.53745,0.16537 0,-0.12996 0.19108,-0.31349 0.42995,-0.40515 0.13618,-0.0523 0.23154,-0.0786 0.27287,-0.0744 z m -1.38081,0.46302 c 0.073,0 0.17637,0.0868 0.28112,0.25632 0.0899,0.14552 0.0384,0.26458 -0.11576,0.26458 -0.15412,0 -0.28112,-0.11907 -0.28112,-0.26458 0,-0.16952 0.0427,-0.25632 0.11576,-0.25632 z m 8.86354,0.78548 c 0.15412,0 0.28112,0.11906 0.28112,0.26459 0,0.33903 -0.18733,0.33903 -0.39688,0 -0.0899,-0.14553 -0.0383,-0.26459 0.11576,-0.26459 z m -8.88008,0.091 c 0.0949,-0.0159 0.16537,0.0415 0.16537,0.1571 0,0.15411 -0.11907,0.28112 -0.26459,0.28112 -0.33903,0 -0.33903,-0.18735 0,-0.39688 0.0364,-0.0225 0.0676,-0.036 0.0992,-0.0413 z m -3.75377,0.20671 c -0.12735,0.009 -0.32814,0.12969 -0.51263,0.31419 -0.41246,0.41247 -0.41215,0.44648 -0.008,0.44649 0.48231,0 0.88051,-0.47548 0.6201,-0.73588 -0.0227,-0.0227 -0.0568,-0.0278 -0.0992,-0.0248 z m 4.43177,0.76068 c 0.15412,0 0.28112,0.11905 0.28112,0.26458 0,0.33903 -0.18733,0.33903 -0.39688,0 -0.0899,-0.14552 -0.0384,-0.26459 0.11576,-0.26458 z m 7.78867,1.68671 c 0.0964,0.003 0.16536,0.11097 0.16536,0.28112 0,0.46475 -0.16176,0.53236 -0.38859,0.16537 -0.0837,-0.13547 -0.0321,-0.32201 0.11575,-0.41341 0.037,-0.0229 0.0753,-0.0342 0.10748,-0.0331 z m -11.37709,0.25632 c 0.0949,-0.016 0.16537,0.0415 0.16537,0.1571 0,0.1541 -0.11906,0.28111 -0.26458,0.28112 -0.33904,0 -0.33904,-0.18735 0,-0.39688 0.0364,-0.0225 0.0676,-0.036 0.0992,-0.0413 z m -1.19888,0.57051 c 0.0264,-0.003 0.0524,0.006 0.0827,0.0248 0.12126,0.0749 0.22323,0.25168 0.22323,0.3886 0,0.13693 -0.10197,0.24805 -0.22323,0.24805 -0.12126,0 -0.21498,-0.17672 -0.21498,-0.3886 0,-0.15892 0.0532,-0.26303 0.13229,-0.27286 z m 12.84055,2.33991 c 0.0949,-0.016 0.16537,0.0415 0.16537,0.15709 0,0.15411 -0.11907,0.28112 -0.26459,0.28112 -0.33901,0 -0.33901,-0.18734 0,-0.39687 0.0364,-0.0225 0.0676,-0.036 0.0992,-0.0413 z m 1.46349,1.14101 c 0.14049,-0.0229 0.32009,0.0577 0.49609,0.24805 0.28337,0.30661 0.2498,0.37207 -0.19843,0.37207 -0.29681,0 -0.53745,-0.11111 -0.53745,-0.24805 0,-0.21903 0.0993,-0.3492 0.23979,-0.37207 z m -14.67612,0.8847 c 0.22688,0 0.41341,0.0516 0.41341,0.11576 0,0.27926 -0.51043,0.39319 -0.66146,0.14883 -0.0914,-0.1479 0.0212,-0.26459 0.24805,-0.26459 z m 0.99219,0.5457 c 0.0377,-0.002 0.0687,0.0109 0.091,0.0331 0.0701,0.0701 -0.11321,0.34765 -0.40515,0.61185 -0.29195,0.26419 -0.52917,0.35696 -0.52917,0.2067 0,-0.2913 0.57952,-0.83986 0.84336,-0.85163 z m 12.91497,0.51264 c 0.14552,0 0.26459,0.0516 0.26459,0.11575 0,0.0642 -0.11907,0.19118 -0.26459,0.28112 -0.14552,0.0899 -0.26458,0.0384 -0.26458,-0.11576 0,-0.15411 0.11906,-0.28112 0.26458,-0.28111 z m -12.07161,0.0496 c 0.018,-0.007 0.0359,-0.005 0.0579,0.0165 0.0879,0.0879 0.10123,0.32163 0.0248,0.51263 -0.0845,0.21107 -0.15266,0.14286 -0.16536,-0.16536 -0.009,-0.20919 0.0285,-0.34387 0.0827,-0.36381 z m 10.24435,1.0418 c 0.0919,-0.004 0.19386,0.0114 0.28937,0.0496 0.21109,0.0845 0.15111,0.1444 -0.15708,0.1571 -0.27893,0.0115 -0.43521,-0.0526 -0.34727,-0.14056 0.0439,-0.044 0.12306,-0.0624 0.21498,-0.0661 z m -0.2894,3.14193 c 0.14552,0 0.26458,0.0516 0.26458,0.11575 0,0.0642 -0.11906,0.19118 -0.26458,0.28112 -0.14553,0.0899 -0.26459,0.0384 -0.26459,-0.11575 0,-0.15411 0.11906,-0.28112 0.26459,-0.28112 z m -11.37709,0.31419 c -0.11041,0.003 -0.22283,0.0677 -0.38034,0.19844 -0.22283,0.18494 -0.34432,0.44148 -0.26458,0.57051 0.18352,0.29693 0.41249,0.29769 0.90951,-0.0165 0.30683,-0.19398 0.32109,-0.32383 0.0744,-0.57051 -0.12335,-0.12334 -0.2286,-0.1848 -0.33901,-0.1819 z m 1.63711,0.23151 c 0.24609,-0.0102 0.52192,0.10252 0.61185,0.24805 0.18804,0.30424 0.17883,0.30423 -0.52917,0 -0.43137,-0.18537 -0.44741,-0.23289 -0.0827,-0.24805 z m 12.19565,1.86035 c 0.0223,-0.0223 0.0926,0.0357 0.22323,0.16537 0.18082,0.17947 0.26337,0.39809 0.1819,0.47955 -0.0815,0.0815 -0.23135,-0.0698 -0.33073,-0.33072 -0.0718,-0.18855 -0.0967,-0.29188 -0.0744,-0.3142 z m 0.8599,1.39733 c 0.0269,-0.006 0.054,0.004 0.0744,0.0248 0.0815,0.0815 -10e-4,0.29181 -0.1819,0.47128 -0.2613,0.25936 -0.29242,0.22826 -0.14883,-0.14882 0.0745,-0.19571 0.17568,-0.32811 0.25633,-0.34727 z m 2.93521,0.16537 c -0.23612,0 -0.42995,0.17859 -0.42995,0.39687 0,0.49973 0.11443,0.49973 0.52917,0 0.26976,-0.32504 0.25236,-0.39687 -0.0992,-0.39687 z m -16.59433,1.59577 c 0.0903,-0.0307 0.1864,0.13351 0.21498,0.51263 0.0217,0.28817 -0.0556,0.58021 -0.17365,0.65319 -0.11808,0.073 -0.21497,-0.15975 -0.21497,-0.5209 0,-0.38883 0.0833,-0.61418 0.17364,-0.64492 z m 15.5856,0.53743 c 0.0371,0.007 0.0396,0.10487 0.0414,0.29766 0.002,0.24607 -0.11081,0.52191 -0.25633,0.61185 -0.33486,0.20695 -0.33486,-0.14331 0,-0.66146 0.11052,-0.17101 0.1779,-0.25524 0.21497,-0.24805 z m -18.71927,2.90215 c 0.13894,0 0.24805,0.0851 0.24805,0.25631 0,0.14553 -0.18653,0.26459 -0.41341,0.26459 -0.22688,0 -0.33798,-0.11907 -0.24805,-0.26459 0.10581,-0.17117 0.27451,-0.25631 0.41341,-0.25631 z m 19.81068,3.45612 c -0.20436,-0.004 -0.29467,0.26812 -0.14055,0.66973 0.13232,0.3449 0.24416,0.37594 0.47956,0.14056 0.2354,-0.23539 0.2386,-0.38149 0,-0.62012 -0.12631,-0.1263 -0.24612,-0.18834 -0.33901,-0.19017 z m -20.13313,1.36426 c -0.16285,0.0233 -0.34819,0.16811 -0.42994,0.41341 -0.0576,0.1728 0.0838,0.31419 0.31419,0.31419 0.2304,0 0.42167,-0.19127 0.42167,-0.42168 0,-0.23362 -0.14309,-0.32918 -0.30592,-0.30592 z m 2.54662,1.07487 c 0.005,-0.0245 0.24662,0.14236 0.53742,0.3638 0.51845,0.39477 0.51758,0.39727 -0.0661,0.22324 -0.3564,-0.10626 -0.59532,-0.0616 -0.59532,0.10749 0,0.15533 -0.13433,0.28112 -0.29765,0.28112 -0.1977,0 -0.17807,-0.15478 0.0579,-0.46302 0.19492,-0.25466 0.35877,-0.48815 0.3638,-0.51263 z m -1.44695,0.1819 c 0.14552,0 0.26458,0.0516 0.26458,0.11575 0,0.0642 -0.11906,0.19118 -0.26458,0.28112 -0.14552,0.0899 -0.26459,0.0384 -0.26459,-0.11575 0,-0.15411 0.11907,-0.28112 0.26459,-0.28112 z m 15.34583,0.52916 c 0.14552,0 0.26458,0.0516 0.26458,0.11576 0,0.0642 -0.11906,0.19118 -0.26458,0.28112 -0.14552,0.0899 -0.26458,0.0383 -0.26458,-0.11576 0,-0.1541 0.11906,-0.28112 0.26458,-0.28112 z m -14.41151,0.91778 c 0.0431,-0.002 0.0794,0.005 0.0992,0.0248 0.0792,0.0792 -0.034,0.25322 -0.24805,0.38861 -0.62741,0.39678 -0.963,0.2732 -0.40516,-0.14883 0.21032,-0.15911 0.42469,-0.25744 0.55399,-0.26459 z m 14.14693,0.93431 c 0.30289,0 0.52916,0.17731 0.52916,0.41341 0,0.22687 -0.12591,0.32743 -0.28112,0.23151 -0.1552,-0.0959 -0.46577,0.045 -0.68625,0.31419 -0.38483,0.46989 -0.39576,0.4735 -0.24804,0.008 0.0846,-0.26656 0.15708,-0.59399 0.15708,-0.72761 0,-0.13361 0.23812,-0.23978 0.52917,-0.23978 z m -13.51029,0.10749 c 0.38923,0 0.44508,0.0899 0.23151,0.34726 -0.36256,0.43687 -0.74414,0.43687 -0.74414,0 0,-0.1871 0.22966,-0.34726 0.51263,-0.34726 z m 3.29075,0.2067 c 0.0181,-0.007 0.0359,-0.005 0.0579,0.0165 0.0879,0.0879 0.10122,0.32163 0.0248,0.51263 -0.0845,0.21106 -0.15267,0.14286 -0.16537,-0.16537 -0.009,-0.20918 0.0285,-0.34386 0.0827,-0.3638 z m -2.74505,0.81029 c 0.29104,-0.0219 0.52917,0.0956 0.52917,0.25631 0,0.16074 -0.0779,0.21151 -0.17362,0.11576 -0.0958,-0.0958 -0.33388,-0.038 -0.52917,0.12402 -0.2685,0.22282 -0.35554,0.19933 -0.35554,-0.0827 0,-0.20513 0.23812,-0.39149 0.52916,-0.41341 z m -0.7276,1.4056 c 0.0558,0.004 0.12562,0.014 0.19844,0.0331 0.29125,0.0762 0.52916,0.18399 0.52916,0.23978 0,0.20877 -0.76708,0.0981 -0.9095,-0.13229 -0.0612,-0.099 0.0146,-0.15367 0.1819,-0.14056 z m 0.85989,0.9095 c 0.21829,0 0.39688,0.042 0.39688,0.0992 0,0.0572 -0.17859,0.17255 -0.39688,0.25632 -0.21828,0.0838 -0.39687,0.0417 -0.39687,-0.0992 0,-0.14096 0.17859,-0.25632 0.39687,-0.25632 z m 12.86537,0 c -0.14552,0 -0.33999,0.11906 -0.42995,0.26458 -0.09,0.14553 -0.0463,0.26459 0.0992,0.26459 0.14552,0 0.34002,-0.11907 0.42995,-0.26459 0.0899,-0.14551 0.0463,-0.26458 -0.0992,-0.26458 z m -0.0248,1.32292 c 0.36047,0 0.31572,0.23823 -0.12404,0.67799 -0.54094,0.54092 -0.74385,0.46863 -0.41341,-0.14883 0.15576,-0.29104 0.39703,-0.52916 0.53745,-0.52916 z m -1.74461,2.16627 c 0.0714,-0.006 0.15338,5.3e-4 0.24804,0.008 0.36132,0.0299 0.60003,0.14166 0.52917,0.25631 -0.18156,0.29376 -0.83135,0.26411 -1.02526,-0.0496 -0.0702,-0.11363 0.0338,-0.19626 0.24805,-0.21497 z m -11.17037,3.72898 c 0.0964,-0.001 0.23286,-8e-4 0.40513,0.008 0.47266,0.0245 0.85961,0.1389 0.8599,0.24805 5.3e-4,0.25234 -0.51065,0.22227 -1.19063,-0.0661 -0.31824,-0.13498 -0.36364,-0.1868 -0.0744,-0.19017 z m -1.49656,0.7276 c -0.20497,0 -0.43955,0.0846 -0.5457,0.25631 -0.0899,0.14553 0.0807,0.26459 0.38034,0.26459 0.29964,0 0.5457,-0.11907 0.5457,-0.26459 0,-0.17176 -0.17537,-0.25631 -0.38034,-0.25631 z m 1.43867,0.25631 c 0.14552,0 0.26459,0.0516 0.26459,0.11576 0,0.0642 -0.11907,0.19118 -0.26459,0.28112 -0.14552,0.0899 -0.26458,0.0384 -0.26458,-0.11576 0,-0.1541 0.11906,-0.28112 0.26458,-0.28112 z m 12.00547,3.80339 c 0.0949,0.002 0.16537,0.10087 0.16537,0.26458 0,0.21828 -0.11907,0.4723 -0.26459,0.56224 -0.14552,0.0899 -0.26458,-0.0215 -0.26458,-0.23978 0,-0.21828 0.11906,-0.46403 0.26458,-0.55397 0.0364,-0.0225 0.0676,-0.0337 0.0992,-0.0331 z m -0.89297,0.95911 c 0.14552,0 0.26459,0.0516 0.26459,0.11576 0,0.0642 -0.11907,0.19118 -0.26459,0.28112 -0.14552,0.0899 -0.26458,0.0383 -0.26458,-0.11576 0,-0.1541 0.11906,-0.28112 0.26458,-0.28112 z m -9.525,0.29766 c 0.11989,0 0.23979,0.0212 0.33073,0.0579 0.1819,0.0734 0.0331,0.13229 -0.33073,0.13229 -0.3638,0 -0.51263,-0.0589 -0.33073,-0.13229 0.091,-0.0367 0.21085,-0.0579 0.33073,-0.0579 z m -2.15799,0.24805 c -0.22233,0.0487 -0.48784,0.36357 -0.48784,0.66146 0,0.20969 0.10983,0.38033 0.23979,0.38033 0.26821,0 0.63103,-0.80765 0.44649,-0.99218 -0.0526,-0.0526 -0.12436,-0.0658 -0.19844,-0.0496 z m 2.03398,1.4056 c 0.0269,-0.006 0.054,0.004 0.0744,0.0248 0.0815,0.0815 -10e-4,0.29181 -0.1819,0.47129 -0.2613,0.25936 -0.29242,0.22826 -0.14883,-0.14883 0.0745,-0.1957 0.17569,-0.3281 0.25633,-0.34727 z m 7.97883,3.42304 c 0.0128,0.004 0.0194,0.0184 0.0248,0.0413 0.0432,0.18338 -0.17558,0.76062 -0.48784,1.28985 -0.78698,1.33384 -0.85087,1.20468 -0.16537,-0.33073 0.27837,-0.62353 0.53848,-1.03068 0.62839,-1.00046 z m -4.67982,0.1819 c 0.14552,0 0.26459,0.11906 0.26459,0.26459 0,0.14552 -0.11907,0.26458 -0.26459,0.26458 -0.14552,0 -0.26458,-0.11906 -0.26458,-0.26458 0,-0.14552 0.11906,-0.26459 0.26458,-0.26459 z m -1.05833,0.26459 c 0.1552,0 0.35208,0.18058 0.43823,0.40514 0.24614,0.64142 -0.10152,0.75424 -0.42995,0.14056 -0.20479,-0.38264 -0.20394,-0.5457 -0.008,-0.5457 z m 0.62838,1.4304 c 0.0664,-0.005 0.16619,0.048 0.29766,0.1571 0.21828,0.18116 0.39688,0.49407 0.39688,0.69453 0,0.498 -0.43908,0.45697 -0.63664,-0.0579 -0.19259,-0.50186 -0.20405,-0.78169 -0.0579,-0.79375 z"
       id="path4688"
       style="fill:#666666;stroke-width:0.264583" />
  </g>
</svg>
