<?xml version="1.0" encoding="UTF-8" standalone="no"?>
<!-- Created with Inkscape (http://www.inkscape.org/) -->

<svg
   width="60.589584mm"
   height="64.691956mm"
   viewBox="0 0 60.589586 64.691955"
   version="1.1"
   id="svg8"
   xmlns="http://www.w3.org/2000/svg"
   xmlns:svg="http://www.w3.org/2000/svg"
   xmlns:rdf="http://www.w3.org/1999/02/22-rdf-syntax-ns#"
   xmlns:cc="http://creativecommons.org/ns#"
   xmlns:dc="http://purl.org/dc/elements/1.1/">
  <defs
     id="defs2" />
  <metadata
     id="metadata5">
    <rdf:RDF>
      <cc:Work
         rdf:about="">
        <dc:format>image/svg+xml</dc:format>
        <dc:type
           rdf:resource="http://purl.org/dc/dcmitype/StillImage" />
      </cc:Work>
    </rdf:RDF>
  </metadata>
  <g
     id="layer1"
     transform="translate(16.692781,-112.57149)"
     style="display:inline">
    <path
       style="fill:#848484;fill-opacity:1;stroke-width:1"
       d="m 713.02148,853.02344 c -0.2613,-0.004 -0.52532,0.002 -0.78906,0.0156 -2.10999,0.10999 -4.22222,0.7762 -5.46875,1.9375 -1.75948,1.63922 -2.49302,1.80916 -3.65625,0.84375 -1.16859,-0.96986 -1.46875,-0.89901 -1.46875,0.40625 0,0.98321 -0.81695,1.625 -2.09375,1.625 -1.46203,0 -1.93067,0.45916 -1.53125,1.5 0.432,1.12573 -0.17807,1.5 -2.40625,1.5 -1.63279,0 -2.96875,0.45001 -2.96875,1 0,1.57966 -1.83751,1.18318 -4.875,-1.0625 -1.54008,-1.13869 -4.67907,-2.20424 -6.96875,-2.375 -2.28971,-0.17083 -4.79494,-0.86836 -5.59375,-1.53125 -0.7988,-0.66289 -1.95551,-0.87515 -2.5625,-0.5 -0.73372,0.45347 -0.51571,1.15609 0.6875,2.09375 1.66469,1.29725 1.59989,1.37505 -0.9375,0.96875 -1.51718,-0.24302 -3.76719,-0.71777 -5,-1.03125 l -2.25,-0.5625 2.25,1.15625 c 3.32221,1.70997 2.90488,4.769 -0.75,5.5 -3.1223,0.62446 -3.90062,1.81972 -1.75,2.6875 0.6875,0.27742 0.23738,0.55033 -1,0.59375 -2.7024,0.0949 -2.85631,0.9154 -0.5,2.65625 2.45481,1.81361 0.55755,3.41419 -4.21875,3.59375 -2.53678,0.0953 -4.22107,-0.39195 -5.03125,-1.5 -1.34071,-1.8336 -3.5,-2.26534 -3.5,-0.6875 0,0.55 -0.45,1.00004 -1,1 -0.55,0 -1,-0.69377 -1,-1.5625 0,-1.274 -0.62848,-1.43657 -3.25,-0.8125 -1.78749,0.42554 -4.93751,0.68265 -7,0.5625 -3.4944,-0.20371 -4.29381,0.41026 -3.875,3.0625 0.065,0.4125 -0.55,0.75 -1.375,0.75 -0.82503,0 -1.5,0.45004 -1.5,1 0,0.55 -0.7875,1.01375 -1.75,1.03125 -1.6114,0.0302 -1.59929,0.16293 0.125,1.46875 1.67252,1.2666 1.21871,1.39678 -4.25,1.15625 -3.36737,-0.14815 -6.125,0.0805 -6.125,0.53125 0,0.45064 -0.9167,0.8125 -2.0625,0.8125 -1.22222,0 -1.93188,0.51666 -1.6875,1.25 0.22904,0.6875 0.83956,1.27282 1.34375,1.28125 0.50419,0.008 1.46456,0.37343 2.15625,0.8125 0.74162,0.47082 1.92162,0.14096 2.84375,-0.78125 2.02178,-2.02182 3.0502,-2.01849 1.375,0 -1.09209,1.31585 -0.92392,1.66909 1.125,2.25 2.11208,0.59883 1.90545,0.73784 -1.59375,1.25 -3.8931,0.56977 -3.93322,0.63255 -1.5,1.71875 1.375,0.61384 2.05,1.17305 1.5,1.25 -3.32009,0.46447 -4.62389,0.96764 -5.9375,2.28125 -0.8098,0.8098 -1.18425,1.75325 -0.84375,2.09375 0.34054,0.34054 0.0559,0.59375 -0.625,0.59375 -0.68092,-4e-5 -1.9097,0.69091 -2.75,1.53125 -1.1935,1.1935 -1.2669,1.85629 -0.34375,2.96875 0.65008,0.78327 0.88864,2.34234 0.53125,3.46875 -0.77359,2.43708 0.27331,2.67052 1.90625,0.4375 1.06299,-1.45372 1.2935,-1.45375 2.5,0 1.11749,1.3465 1.04864,1.59375 -0.375,1.59375 -0.92481,0 -1.38165,0.46429 -1.03125,1.03125 1.13711,1.83991 1.33597,8.4419 0.28125,9.09375 -0.68489,0.42327 -0.60027,1.41298 0.21875,3 l 1.21875,2.375 -2.375,-2.46875 -2.375,-2.5 -0.3125,2.25 c -0.32655,2.28182 -3.42032,4.67343 -4.5625,3.53125 -0.34734,-0.34734 -0.625,0.1497 -0.625,1.125 0,1.14856 -0.51816,1.58351 -1.46875,1.21875 -2.60749,-1.00055 -2.92019,1.62483 -0.4375,3.65625 l 2.40625,1.96875 -2.28125,-0.71875 c -2.06698,-0.6438 -2.23886,-0.44604 -1.65625,1.875 0.46609,1.85688 0.22263,2.71106 -0.9375,3.15625 -0.88331,0.33903 -1.625,1.32275 -1.625,2.15625 0,1.24437 -0.27973,1.28888 -1.53125,0.25 -1.7777,-1.47534 -1.65664,-1.58959 -3.34375,3.34375 -1.30012,3.80183 -0.75608,6.31928 0.8125,3.78125 0.6697,-1.08351 0.9705,-1.0893 1.625,-0.0293 0.46999,0.76051 0.31477,1.45759 -0.375,1.6875 -1.56468,0.52157 -1.52067,3.92364 0.0625,4.5625 0.90131,0.36359 0.92132,0.53679 0.0625,0.59375 -0.65499,0.0435 -1.47261,-0.38751 -1.8125,-0.9375 -0.94171,-1.52365 -2.5,-1.19252 -2.5,0.53125 0,0.84226 0.67501,1.80842 1.5,2.125 2.32173,0.89091 1.76994,2.22825 -0.65625,1.59375 -1.53679,-0.40188 -1.94525,-0.2158 -1.40625,0.65625 0.41601,0.67313 0.78125,2.71526 0.78125,4.53125 0,2.0282 0.85087,4.24356 2.21875,5.71875 1.22468,1.32083 2.05786,2.92013 1.84375,3.5625 -0.21392,0.64236 0.52186,2.08436 1.65625,3.21875 1.13439,1.13435 2.0625,2.79515 2.0625,3.6875 0,1.2833 0.2902,1.39496 1.40625,0.46875 0.9645,-0.80051 1.6195,-0.84172 2.0625,-0.125 0.35641,0.57671 1.06221,1.03125 1.5625,1.03125 1.07539,0 0.0265,-3.20431 -1.34375,-4.125 -1.25439,-0.84174 0.0502,-2.875 1.84375,-2.875 0.80803,0 1.18791,0.62191 0.875,1.4375 -1.06949,2.78683 6.19356,7.87409 7.71875,5.40625 0.58262,-0.94266 1.24623,-0.79244 2.8125,0.625 1.13703,1.02893 2.40424,1.53326 2.8125,1.125 0.4083,-0.40827 -0.12057,-1.37624 -1.1875,-2.15625 -1.06681,-0.78002 -1.43521,-1.43747 -0.8125,-1.4375 0.62268,0 1.44298,0.49579 1.8125,1.09375 0.36964,0.59795 1.54731,0.87558 2.625,0.59375 1.8065,-0.47241 1.83731,-0.34921 0.5,1.65625 -1.20079,1.80075 -2.20166,2.11761 -5.9375,1.84375 -2.51758,-0.18445 -4.8148,0.14701 -5.1875,0.75 -0.36737,0.59444 -2.00747,1.0625 -3.625,1.0625 -1.61748,-4e-5 -2.9375,0.47078 -2.9375,1.03125 0,0.57229 1.20561,0.79487 2.75,0.5 l 2.75,-0.53125 -2.625,1.0625 c -1.9985,0.79664 -2.5333,1.56367 -2.125,3.125 0.48329,1.84811 0.31409,1.94388 -1.625,0.90625 -2.86809,-1.53498 -4.82809,-0.33111 -2.4375,1.5 1.62709,1.24633 1.4843,1.32724 -1.4375,0.78125 -2.05568,-0.38416 -3.25,-0.22302 -3.25,0.46875 0,0.60147 -0.56745,0.86769 -1.28125,0.59375 -0.7138,-0.27402 -2.38061,0.64004 -3.6875,2.03125 l -2.375,2.53125 h 3.09375 c 1.70661,0 3.80001,-0.67501 4.625,-1.5 1.97711,-1.97711 4.7587,-1.97711 4,0 -0.31672,0.82499 -1.4395,1.50003 -2.5,1.5 -1.58789,0 -1.74795,0.3337 -0.90625,1.90625 1.08832,2.03353 -0.1572,2.35721 -2.78125,0.71875 -2.50443,-1.56367 -2.63207,0.54008 -0.15625,2.53131 2.4381,1.9609 2.43769,1.9816 0.125,0.8437 -3.74838,-1.84412 -4.81575,0.3277 -1.46875,3 2.47529,1.9764 2.53651,2.1691 0.5625,1.5625 -1.6704,-0.5132 -2.25,-0.2888 -2.25,0.875 0,0.8621 -0.675,1.5625 -1.5,1.5625 -1.00679,0 -1.5,1.0066 -1.5,3.0625 0,2.3601 0.40158,3.0031 1.75,2.7813 2.0304,-0.3341 4.25,0.838 4.25,2.25 0,0.6059 -0.6638,0.6523 -1.75,0.094 -1.95681,-1.0064 -4.25,-0.5007 -4.25,0.9375 0,0.5178 1.23751,1.4293 2.75,2.0313 l 2.75,1.0937 -2.75,0.9688 c -3.2259,1.131 -3.47385,2.3262 -0.84375,3.9687 1.5857,0.9903 1.70096,1.5753 0.78125,3.5938 -0.94979,2.0846 -0.74142,2.6821 1.375,4.2812 1.61609,1.2211 2.7841,1.4945 3.4375,0.8438 0.65499,-0.6524 0.49737,-1.2779 -0.46875,-1.875 -0.80451,-0.4972 -1.14658,-1.2284 -0.75,-1.625 1.0402,-1.0402 1.93721,0.1508 2.25,3 0.14929,1.3616 0.57811,2.9811 0.9375,3.5625 0.9826,1.5899 3.53125,1.2442 3.53125,-0.4688 0,-1.4918 1.1731,-1.9109 4,-1.5 0.86873,0.1263 0.4666,-0.5817 -0.9375,-1.7187 -1.62901,-1.3191 -2.01014,-2.1672 -1.21875,-2.6563 0.6392,-0.3951 1.15625,-0.2939 1.15625,0.25 0,0.6391 1.13378,0.6587 3.21875,0.061 3.30701,-0.9485 6.78125,-0.4092 6.78125,1.0312 0,0.4442 -1.38423,1.0644 -3.09375,1.4063 -2.22671,0.4453 -2.94443,1.0481 -2.53125,2.125 0.33525,0.8733 0.0226,1.5 -0.75,1.5 -0.7313,0 -2.40585,2.025 -3.71875,4.5 -1.4389,2.7122 -3.10044,4.5 -4.15625,4.5 -0.9634,0 -1.75,0.48 -1.75,1.0625 0,0.5824 -0.45,0.7774 -1,0.4375 -0.54999,-0.3398 -1,-0.088 -1,0.5312 0,0.6195 0.80844,0.8713 1.78125,0.5625 1.11198,-0.353 2.2156,0.1814 3,1.4375 0.81298,1.3019 0.88494,1.9688 0.1875,1.9688 -0.58722,0 -0.82564,0.3986 -0.53125,0.875 0.29443,0.4763 -0.83187,0.7218 -2.46875,0.5312 -3.76713,-0.4386 -3.74708,0.5122 0.0937,4.5313 2.33348,2.4418 2.83252,3.5281 2,4.5312 -0.82087,0.9891 -0.7048,1.4752 0.5,1.9375 2.38107,0.9137 3.63751,0.7263 2.9375,-0.4062 -0.33978,-0.55 0.0559,-1 0.875,-1 1.17339,0 1.32232,0.6461 0.65625,2.9687 -0.60521,2.1101 -0.47051,3.2571 0.5,4.0625 0.74559,0.6189 1.06405,1.8902 0.71875,2.8125 -0.54697,1.461 -0.40747,1.477 1.0625,0.2813 1.45361,-1.1825 1.6875,-1.1477 1.6875,0.25 0,0.8923 0.5109,1.625 1.125,1.625 0.61523,0 0.87495,-0.8621 0.59375,-1.9375 -0.28082,-1.0737 0.0265,-2.1455 0.65625,-2.375 0.8397,-0.3066 0.79902,-0.9671 -0.125,-2.5313 -1.12259,-1.9006 -1.0207,-2.1562 0.875,-2.1562 1.7037,0 2.0131,-0.4462 1.5625,-2.25 -0.50211,-2.0098 -0.33524,-1.9453 1.75,0.625 2.5146,3.0992 4.5625,2.8255 4.5625,-0.625 0,-2.5459 1.46301,-1.3 2.5,2.125 0.62151,2.0527 0.42792,2.2384 -1.40625,1.6562 -2.668,-0.8468 -2.69936,0.6138 -0.0625,3 1.73639,1.5715 1.83737,1.974 0.5625,2.6875 -0.82303,0.4605 -1.24852,1.502 -0.9375,2.3125 0.44939,1.1712 -0.42095,1.4759 -4.28125,1.5 -3.8872,0.023 -4.5104,0.2513 -3.0625,1.0938 1.67683,0.9754 1.60372,1.2234 -1,3.4687 -1.54499,1.3324 -3.33507,2.2401 -3.96875,2 -2.00001,-0.7575 -2.3704,0.6651 -0.5625,2.125 1.59069,1.2846 1.53222,1.3492 -0.53125,0.7813 -2.89353,-0.7963 -2.89353,0.7948 0,2.9375 l 1.32813,0.9765 a 301.02545,301.02545 0 0 0 30.15429,5.0723 c 0.21041,-0.061 0.42395,-0.1206 0.76758,-0.2051 1.1,-0.2702 2.48763,-0.8844 3.09375,-1.375 0.65511,-0.5303 2.41049,-0.4424 4.3125,0.2207 1.75952,0.6134 3.52184,0.787 3.90625,0.3731 0.38438,-0.4139 0.12511,-0.9733 -0.5625,-1.2188 -2.7572,-0.9847 -1.12022,-2.3872 2,-1.7187 4.31267,0.9239 4.42977,1.1237 1.90625,3.3125 -0.64808,0.562 -1.21167,1.1993 -1.60742,1.7617 a 301.02545,301.02545 0 0 0 7.87109,0.3945 c 0.14953,-0.3122 0.33351,-0.6497 0.58008,-1.0312 0.29405,-0.4549 0.50764,-0.6935 0.65625,-0.75 0.24756,-0.094 0.33619,0.3628 0.34375,1.5 7.8e-4,0.1266 -0.0227,0.2363 -0.0312,0.3574 a 301.02545,301.02545 0 0 0 8.06641,0.4043 c -0.1714,-0.6026 0.0472,-0.5742 0.84375,0.043 a 301.02545,301.02545 0 0 0 2.43554,0.1211 301.02545,301.02545 0 0 0 0.23829,-0.01 c 0.0444,-0.1487 0.0875,-0.2976 0.13476,-0.4785 0.31143,-1.1904 1.119,-2.1874 1.8125,-2.1875 0.69351,0 1.78459,-0.6196 2.4375,-1.4062 0.94999,-1.1447 0.76842,-1.6663 -0.90625,-2.5625 -1.15102,-0.616 -1.79001,-1.5859 -1.4375,-2.1563 0.4379,-0.7086 0.97573,-0.6823 1.71875,0.061 1.5289,1.5289 2.6875,1.3263 2.6875,-0.4375 0,-0.825 0.49999,-1.5 1.09375,-1.5 0.68122,0 0.83772,-1.1989 0.4375,-3.25 l -0.625,-3.25 3.03125,3.5 c 1.67429,1.925 3.52266,5.3 4.09375,7.5 0.30287,1.1666 1.00757,3.2477 1.86719,5.5879 a 301.02545,301.02545 0 0 0 9.08203,-0.6973 c -2.45898,-5.221 -4.96624,-14.7734 -3.69922,-15.5781 1.45429,-0.9237 2.5826,-1.1028 5.0625,-0.8438 1.54643,0.1614 1.7238,-0.3311 1.25,-3.3125 -0.52327,-3.2931 -0.34845,-3.6043 2.90625,-4.7812 1.9112,-0.6912 3.15691,-1.5085 2.75,-1.8125 -0.4069,-0.3039 -1.35194,-1.6203 -2.09375,-2.9375 -0.75458,-1.3397 -1.0242,-1.931 -0.75,-2.0313 0.16441,-0.06 0.52595,0.064 1.09375,0.2813 0.9306,0.3571 2.76975,0.9177 4.09375,1.25 2.61612,0.6565 3.34643,3.375 0.90625,3.375 -0.82503,0 -1.5,0.661 -1.5,1.4687 0,0.9275 -0.56482,1.2578 -1.5625,0.875 -1.25359,-0.481 -1.51162,-0.011 -1.25,2.2813 0.19578,1.7133 -0.29746,3.3607 -1.1875,4.0625 -1.21651,0.9591 -1.25271,1.4206 -0.21875,2.4687 1.01473,1.0285 1.68819,1.069 3.25,0.094 1.94298,-1.2135 1.92403,-1.2088 0.0625,3 -1.03389,2.3378 -2.72442,7.1031 -3.75,10.5937 -0.11875,0.4041 -0.17843,0.576 -0.2832,0.9297 a 301.02545,301.02545 0 0 0 15.38476,-1.8672 c 1.25672,-5.0707 1.87334,-5.6783 5.55469,-7.625 3.26631,-1.7272 4.63415,-2.0044 5.65625,-1.1562 0.99538,0.826 1.34375,0.8284 1.34375,0 0,-1.4396 3.677,-1.4631 4.5625,-0.029 0.48378,0.7828 0.96711,0.7828 1.75,0 0.59789,-0.598 1.54867,-1.0938 2.09375,-1.0938 0.54512,0 0.14929,0.6261 -0.875,1.375 -1.02417,0.7489 -2.68158,1.1381 -3.6875,0.875 -1.2455,-0.3258 -1.84375,0.085 -1.84375,1.25 0,0.9407 0.94735,1.9502 2.09375,2.25 0.77572,0.2028 1.2,0.4128 1.30274,0.6445 a 301.02545,301.02545 0 0 0 31.84179,-8.8085 c 4.24606,-6.1739 6.15375,-7.1058 7.07422,-3.586 0.11573,0.4426 0.28508,0.7844 0.47071,1.0781 a 301.02545,301.02545 0 0 0 2.24218,-0.7441 c 0.001,-0.029 0.005,-0.054 0.006,-0.084 0.021,-1.1683 0.26291,-1.283 1.17578,-0.3086 a 301.02545,301.02545 0 0 0 5.44727,-2.1855 c 0.0839,-0.4744 0.31736,-0.7637 0.62695,-0.7891 0.1804,-0.015 0.38343,0.068 0.5918,0.2422 a 301.02545,301.02545 0 0 0 1.36719,-0.6113 c -0.45773,-0.8724 0.17937,-1.2247 2.00781,-1.1602 0.23902,0.01 0.45703,-0.01 0.66211,-0.035 a 301.02545,301.02545 0 0 0 1.16797,-0.5215 c 0.14934,-0.1801 0.21754,-0.3928 0.16992,-0.6309 -0.14816,-0.7409 0.81837,-1.25 2.34375,-1.25 3.36771,0 2.98047,-3.4222 -0.40625,-3.5937 -1.26679,-0.064 -2.84909,-0.6566 -3.5,-1.3125 -0.91412,-0.9213 -0.77171,-1.0446 0.6582,-0.5 1.11198,0.4235 2.17872,0.2071 2.6543,-0.5625 0.59051,-0.9555 1.07289,-0.7482 1.9082,0.8125 0.65779,1.229 2.56928,2.3644 4.625,2.75 0.2554,0.048 0.49422,0.1138 0.74219,0.1718 a 301.02545,301.02545 0 0 0 3.75781,-1.6816 c -0.24984,-0.1745 -0.50968,-0.3418 -0.7832,-0.4902 -1.86248,-1.0105 -2.20781,-1.5041 -1.0625,-1.5313 0.92999,-0.023 1.98587,0.421 2.34375,1 0.14282,0.2311 0.36095,0.402 0.59765,0.5313 a 301.02545,301.02545 0 0 0 2.13672,-0.9571 c 0.54165,-1.2721 0.41429,-3.211 -0.57812,-3.9179 -0.87492,-0.6232 -0.86329,-0.9999 -0.0293,-1.3438 1.45969,-0.6028 -2.17631,-8.3605 -3.9375,-8.4062 -0.72151,-0.019 -0.49803,-0.5624 0.53125,-1.3438 0.9625,-0.7306 1.75,-2.2618 1.75,-3.4062 0,-1.1444 0.38386,-2.3096 0.84375,-2.5938 1.30129,-0.8042 0.68463,-4.6807 -0.90625,-5.6875 -2.28741,-1.4475 -3.30072,-1.0679 -1.84375,0.6875 1.16383,1.4023 1.08221,1.5788 -0.625,1.25 -1.08359,-0.2086 -2.74926,-2.0661 -3.71875,-4.125 -1.658,-3.5211 -3.75,-5.0228 -3.75,-2.6875 0,1.7491 -2.05869,-0.079 -3.0625,-2.7187 -0.515,-1.3547 -1.39105,-2.1696 -1.96875,-1.8125 -0.71951,0.4446 -0.6772,1.096 0.125,2.0625 2.28219,2.7498 -0.38391,1.3663 -5.375,-2.8125 -3.17533,-2.6586 -5.21015,-3.7759 -5.46875,-3 -0.22677,0.68 -1.25839,1.2187 -2.3125,1.2187 -1.05407,0 -1.9375,0.4501 -1.9375,1 0,1.9299 -3.52812,0.9727 -6.46875,-1.75 -1.63343,-1.5125 -3.43919,-2.8009 -4,-2.875 -0.5608,-0.074 -1.59375,-0.1869 -2.28125,-0.25 -2.5906,-0.2389 -1.09807,-1.7038 1.96875,-1.9375 1.75869,-0.1342 3.39041,-0.4216 3.625,-0.6562 0.23471,-0.2347 1.23663,0.5671 2.25,1.7812 1.8988,2.2749 2.61712,1.3251 0.96875,-1.2812 -0.59021,-0.9332 -0.53465,-1.9179 0.15625,-2.75 1.57331,-1.8957 0.0389,-2.8982 -2.25,-1.4688 -2.60636,1.6277 -2.4697,0.8533 0.40625,-2.25 2.83412,-3.0581 3.625,-3.2071 3.625,-0.625 0,1.0675 0.45001,2.2226 1,2.5625 0.56939,0.3519 1,-0.5093 1,-2 0,-1.503 0.42177,-2.3573 1,-2 0.55389,0.3424 1.27654,-0.049 1.59375,-0.875 0.74449,-1.94 -1.86197,-7.2013 -3.40625,-6.875 -0.65079,0.1376 -1.1875,-0.4501 -1.1875,-1.3125 0,-1.2979 0.517,-1.2055 3,0.5625 1.64999,1.1749 3,2.58 3,3.125 0,0.545 0.49916,0.711 1.09375,0.3438 0.60688,-0.375 0.81193,-1.8299 0.46875,-3.3125 -0.4583,-1.9793 -0.35457,-2.2805 0.40625,-1.1563 0.55828,0.825 1.0292,2.4 1.0625,3.5 0.0503,1.6607 0.28089,1.5647 1.28125,-0.6562 1.02429,-2.2737 1.37269,-2.4611 2.46875,-1.25 1.06292,1.1743 1.01875,1.4062 -0.25,1.4062 -0.84661,0 -1.53125,0.4501 -1.53125,1 0,0.55 0.47063,1 1.03125,1 0.60287,0 0.73728,1.0888 0.34375,2.6563 -0.46787,1.8643 -0.30655,2.4358 0.5,1.9375 0.6971,-0.4309 1.13686,-0.01 1.15625,1.0937 0.0302,1.6878 0.13,1.6861 1.5,-0.125 1.45338,-1.9215 1.46841,-1.9215 1.5,0 0.0302,1.9216 0.0465,1.9215 1.5,0 0.8075,-1.0676 1.46875,-2.7692 1.46875,-3.7812 0,-1.0122 0.67501,-2.0897 1.5,-2.4063 0.825,-0.3167 1.5,-1.1886 1.5,-1.9375 0,-0.7995 0.6193,-1.1192 1.5,-0.7812 1.76149,0.6759 1.89038,-0.4792 0.46875,-4.2188 -0.90618,-2.38346 -0.8454,-2.55402 0.5,-1.43751 0.8425,0.69921 1.53125,2.09241 1.53125,3.12501 0,1.0327 0.45001,1.8751 1,1.875 1.29838,0 1.29838,-2.6976 0,-3.5 -1.54881,-0.95726 -1.15947,-2.49977 0.46875,-1.87501 1.1246,0.43154 1.3685,-0.26417 1.1875,-3.09375 -0.12812,-2.00478 -0.6564,-3.93172 -1.1875,-4.3125 -0.5311,-0.38079 -1.57847,-1.49367 -2.34375,-2.46875 -1.21992,-1.55426 -1.18894,-1.70844 0.25,-1.15625 1.06942,0.41038 1.625,0.12736 1.625,-0.84375 0,-0.81971 -0.93846,-1.76041 -2.09375,-2.0625 -1.15529,-0.30199 -1.80067,-1.00608 -1.4375,-1.59375 0.41242,-0.66728 -0.58745,-1.11501 -2.65625,-1.1875 -1.81992,-0.0639 -2.52499,-0.34204 -1.5625,-0.59375 0.9625,-0.25172 1.75,-1.12037 1.75,-1.9375 0,-0.81714 0.40577,-1.21546 0.90625,-0.90625 0.50052,0.30916 1.71548,0.24803 2.6875,-0.125 1.64549,-0.63149 1.63823,-0.73459 -0.15625,-1.4375 -3.05828,-1.19808 -4.4375,-1.022 -4.4375,0.59375 0,0.82499 -0.3375,1.47137 -0.75,1.40625 -0.4125,-0.065 -0.975,-0.0482 -1.25,0.0625 -2.01672,0.81377 -5,0.50384 -5,-0.53125 0,-0.68724 -0.33754,-1.45684 -0.75,-1.6875 -0.41253,-0.23056 -0.0752,-0.21675 0.75,0.0293 5.3737,1.61053 5.33097,1.64202 4.84375,-0.90625 -0.25852,-1.35178 0.003,-2.9008 0.59375,-3.4375 1.58052,-1.43644 4.56124,-0.58217 3.90625,1.125 -0.30349,0.79057 -0.0465,1.43754 0.5625,1.4375 0.60892,0 1.10822,-0.56246 1.125,-1.25 0.0151,-0.68749 0.49682,-0.47122 1.0625,0.5 1.1678,2.005 3.36511,2.39737 2.625,0.46875 -0.78879,-2.05553 4.12896,-1.30877 5.78125,0.875 1.40459,1.85647 1.43795,1.83991 1.46875,0.0312 0.0265,-1.55021 0.28919,-1.65564 1.53125,-0.625 1.24192,1.03064 1.5,0.9498 1.5,-0.53125 0,-0.98653 -0.71505,-2.59139 -1.59375,-3.5625 -1.73408,-1.91607 -1.14733,-3.90621 1.15625,-3.90625 0.79261,0 1.4375,-0.45 1.4375,-1 0,-0.54999 -0.3375,-0.99894 -0.75,-1 -0.4125,-10e-4 -0.84297,-1.43621 -0.96875,-3.21875 -0.12586,-1.78254 -0.68828,-3.40655 -1.25,-3.59375 -1.92378,-0.64127 -1.03376,-1.99244 0.96875,-1.46875 1.10291,0.28838 2,0.0427 2,-0.5625 0,-0.60366 -1.07895,-1.38558 -2.40625,-1.71875 -1.43769,-0.36094 -2.67034,-1.56234 -3.03125,-3 -0.33297,-1.32737 -1.00896,-2.43746 -1.53125,-2.4375 -0.52229,0 -0.67843,-0.68984 -0.34375,-1.5625 0.5091,-1.32657 -0.11042,-1.54627 -3.78125,-1.28125 -3.35259,0.24227 -4.40625,-0.0265 -4.40625,-1.15625 0,-0.81422 0.60271,-1.36365 1.3125,-1.21875 0.7098,0.14476 2.16411,-0.23132 3.25,-0.8125 1.53819,-0.82322 2.10121,-0.7023 2.5625,0.5 0.98302,2.56146 3.17341,1.72552 3.875,-1.46875 0.45321,-2.06324 1.27284,-3 2.59375,-3 2.0434,0 2.57083,-1.47121 0.90625,-2.5 -1.5343,-0.94824 -1.18379,-2.49996 0.5625,-2.5 0.8575,0 1.2735,-0.42506 0.9375,-0.96875 -0.35036,-0.56685 0.0786,-0.74777 0.96875,-0.40625 0.85349,0.32769 1.53125,0.13416 1.53125,-0.4375 0,-0.5718 -0.9,-1.33834 -2,-1.6875 -1.09999,-0.34923 -2,-1.26264 -2,-2.03125 0,-0.76864 -0.84228,-1.85353 -1.875,-2.40625 -2.3218,-1.24259 -3.29598,-5.65503 -1.5625,-7.09375 0.9896,-0.82129 1.16541,-0.58865 0.75,1 -0.38929,1.48861 -0.0597,2.03129 1.1875,2.03125 1.08669,0 1.50344,-0.53249 1.15625,-1.4375 -0.30312,-0.78947 -0.13663,-1.57697 0.34375,-1.75 1.1486,-0.41348 -1.43925,-3.86759 -3.15625,-4.21875 -0.73372,-0.15004 -2.01875,-0.5316 -2.84375,-0.84375 -0.82503,-0.31219 -2.73751,-0.85607 -4.25,-1.1875 -1.51253,-0.33146 -2.76647,-1.13547 -2.78125,-1.8125 -0.0151,-0.67702 -1.81479,-2.33942 -4,-3.6875 -2.18517,-1.34808 -3.96875,-2.83133 -3.96875,-3.28125 0,-1.11091 5.31727,0.2589 6.1875,1.59375 1.25137,1.91951 2.26096,-0.40571 1.03125,-2.375 -0.9744,-1.5603 -0.93876,-1.80719 0.1875,-1.375 2.27029,0.87118 2.82291,-1.41752 0.625,-2.59375 -1.36558,-0.73088 -2.03125,-0.75974 -2.03125,-0.0625 0,1.9025 -1.48379,1.06279 -2.6875,-1.53125 -0.9205,-1.98353 -0.9205,-2.34799 0,-1.59375 1.10298,0.90376 4.12665,1.55141 5.96875,1.28125 1.85942,-0.2725 -1.79516,-4.45122 -6.34375,-7.25 -5.07779,-3.12438 -6.26721,-4.42708 -3.1875,-3.46875 0.9625,0.29972 2.42497,0.13116 3.25,-0.40625 1.33327,-0.86857 1.33327,-1.09348 0,-1.96875 -0.82503,-0.5416 -2.02027,-0.99157 -2.65625,-1 -0.66198,-0.008 -0.92441,-0.88632 -0.625,-2.03125 0.58349,-2.23132 -0.66693,-2.61432 -2.5,-0.78125 -1.27272,1.27276 -1.63139,0.26834 -1.25,-3.46875 0.10318,-1.0103 -0.82657,-2.15421 -2.15625,-2.6875 -1.27291,-0.5105 -1.91731,-0.96519 -1.4375,-1 1.95901,-0.14249 -1.79568,-3.0625 -3.9375,-3.0625 -1.27521,0 -2.59632,-0.448 -2.9375,-1 -0.34129,-0.55204 -1.72118,-0.71172 -3.0625,-0.375 -1.58649,0.39821 -2.4375,0.16859 -2.4375,-0.625 0,-0.81993 -1.06517,-1.0498 -3.25,-0.6875 -1.78745,0.29632 -4.15,0.15919 -5.25,-0.3125 -1.09999,-0.47157 -1.43749,-0.86758 -0.75,-0.90625 0.68754,-0.0385 1.25,-0.57254 1.25,-1.15625 0,-0.97481 -5.16723,-0.71064 -11.59375,0.59375 -1.1486,0.2332 -2.94861,-0.21657 -4,-1.03125 -1.48849,-1.15306 -1.52163,-1.35786 -0.21875,-0.90625 1.07191,0.37153 2.06892,-0.16934 2.78125,-1.5 0.89227,-1.6673 0.80962,-2.09375 -0.375,-2.09375 -0.81192,0 -1.74486,0.4667 -2.09375,1.03125 -0.34885,0.56455 -1.16646,0.95351 -1.8125,0.84375 -1.51457,-0.25738 -6.6875,2.22995 -6.6875,3.21875 0,0.41586 0.56251,0.98222 1.25,1.28125 0.6875,0.29896 0.0113,0.31257 -1.5,0 -2.19141,-0.45316 -3.34106,0.0529 -5.65625,2.53125 -3.27968,3.51099 -4.09375,3.81167 -4.09375,1.5 0,-1.2514 -0.60036,-1.46916 -2.71875,-0.9375 -2.69302,0.6759 -2.68404,0.65858 -0.84375,-1.375 1.82491,-2.01641 1.81043,-2.05354 -0.53125,-2.9375 -1.31342,-0.4958 -2.74375,-0.71166 -3.15625,-0.46875 -0.4125,0.24303 -0.75,-0.0907 -0.75,-0.75 0,-0.65934 -0.7875,-1.80059 -1.75,-2.53125 -1.65309,-1.25491 -1.64389,-1.34495 0.125,-1.375 1.45198,-0.0264 1.6137,-0.33446 0.75,-1.375 -1.32109,-1.59182 -0.47772,-2.65625 2.0625,-2.65625 2.04148,0 2.48891,-1.59747 0.625,-2.21875 -0.6573,-0.21921 -2.79481,0.16707 -4.75,0.84375 -2.84791,0.9857 -3.8608,0.9624 -5.0625,-0.0625 -1.05989,-0.90406 -2.78808,-1.3637 -4.61719,-1.39062 z m -93.03906,44.23437 c 0.42951,-0.0514 0.89713,0.1746 1.15625,0.59375 0.34545,0.55896 -0.0801,1 -0.9375,1 -1.75649,0 -2.01197,-0.58026 -0.625,-1.4375 0.12813,-0.079 0.26301,-0.13924 0.40625,-0.15625 z m -7.9375,3.9375 c -0.11943,0.0227 -0.26867,0.0716 -0.40625,0.15625 -0.54999,0.33978 -1,1.07501 -1,1.625 0,0.55 0.45001,0.71501 1,0.375 0.55,-0.33978 1,-1.04375 1,-1.59375 0,-0.4125 -0.23511,-0.63178 -0.59375,-0.5625 z m 199.125,33 c 0.8163,0 1.46875,0.61041 1.46875,1.34375 0,1.68356 -0.44665,1.68352 -1.84375,0 -0.83758,-1.00924 -0.74831,-1.34371 0.375,-1.34375 z m -3.38086,4.05274 c 1.27458,0.0685 3.30239,0.77925 4.31836,1.72851 0.6,0.56058 0.6,0.83599 0,0.75 -3.8471,-0.55151 -5.46875,-1.13921 -5.46875,-2 0,-0.27288 0.26639,-0.42169 0.65625,-0.46875 0.14624,-0.0177 0.31206,-0.0195 0.49414,-0.01 z m -9.78515,5.8164 c 0.20422,0.0429 0.48596,0.23209 0.82226,0.56836 0.65087,0.6508 0.94047,1.43457 0.65625,1.71875 -0.66739,0.66739 -1.84375,-0.50897 -1.84375,-1.84375 0,-0.23508 0.0677,-0.39392 0.1875,-0.4375 0.0499,-0.0181 0.10966,-0.0202 0.17774,-0.006 z m -63.36524,3.78711 c 0.55,0 1,0.19501 1,0.4375 0,0.24265 -0.45,0.72257 -1,1.0625 -0.54999,0.33978 -1,0.14478 -1,-0.4375 0,-0.58246 0.45001,-1.06246 1,-1.0625 z m -29.90625,2.5625 c 0.61572,-0.0227 1.3914,0.3107 1.9375,0.96875 0.6796,0.81895 0.96617,1.46875 0.65625,1.46875 -0.30992,0 -0.84201,-0.44104 -1.1875,-1 -0.34545,-0.55899 -1.05052,-0.75396 -1.5625,-0.4375 -0.51201,0.31635 -0.9375,0.33765 -0.9375,0.0625 0,-0.6774 0.47795,-1.04061 1.09375,-1.0625 z m 105,8.5625 c 0.34734,-0.0151 0.73273,0.0744 1.09375,0.21875 0.79767,0.31937 0.57125,0.54575 -0.59375,0.59375 -1.05411,0.0435 -1.64479,-0.1988 -1.3125,-0.53125 0.16592,-0.1663 0.46509,-0.26689 0.8125,-0.28125 z m -0.25,3.9375 c 0.29443,-0.082 0.98874,0.18332 2.03125,0.84375 0.75447,0.478 1.20878,1.37355 1,2 -0.22942,0.68867 -1.0775,0.34847 -2.125,-0.875 -1.01049,-1.18015 -1.28462,-1.86337 -0.90625,-1.96875 z m -214.8418,1.07032 c -0.1224,-0.0107 -0.23906,-0.004 -0.3457,0.0234 -0.1217,0.0302 -0.22292,0.0979 -0.3125,0.1875 -0.29367,0.29367 -0.23783,1.00717 0.125,1.59375 0.81472,1.31823 2.53125,1.40286 2.53125,0.125 0,-0.90333 -1.14122,-1.85461 -1.99805,-1.92968 z m 30.18555,1.86718 c 0.52188,0 0.29363,0.67501 -0.53125,1.5 -1.94952,1.94941 -3.27415,1.94945 -1.65625,0 0.6847,-0.82499 1.66559,-1.49996 2.1875,-1.5 z m -9,1 c 0.7872,0 2.18897,0.56251 3.09375,1.25 1.31433,0.99874 1.40219,1.55151 0.4375,2.75 -1.6425,2.04038 -3.41324,2.24207 -4.09375,0.46875 -0.30992,-0.80761 -0.0688,-1.46875 0.53125,-1.46875 0.7197,0 0.66512,-0.51052 -0.15625,-1.5 -1.00792,-1.21451 -0.97138,-1.5 0.1875,-1.5 z m -12.78125,1.34375 c 0.27213,-0.0722 0.65249,0.38233 0.9375,1.125 0.67612,1.76209 0.11112,2.06424 -0.875,0.46875 -0.36245,-0.58658 -0.44972,-1.2691 -0.1875,-1.53125 0.034,-0.034 0.0861,-0.0523 0.125,-0.0625 z m 10.1875,0.71875 c 0.24832,0 0.40625,0.47716 0.40625,1.4375 0,0.825 -0.43606,1.50004 -0.96875,1.5 -0.53268,0 -0.69168,-0.675 -0.375,-1.5 0.36851,-0.96034 0.68919,-1.4375 0.9375,-1.4375 z m 192.875,0 c 0.27591,0 0.63527,0.29668 1.03125,0.9375 0.33978,0.55 0.14512,1 -0.4375,1 -0.5825,0 -1.0625,-0.45 -1.0625,-1 0,-0.6407 0.1927,-0.9375 0.46875,-0.9375 z m 5.71875,2.03125 c 0.92999,-0.0385 1.97261,0.35641 2.3125,0.90625 0.7107,1.14989 0.67591,1.14992 -2,0 -1.63041,-0.70061 -1.69093,-0.84895 -0.3125,-0.90625 z m -132.71875,1.96875 c 0.27591,0 0.63527,0.29668 1.03125,0.9375 0.33978,0.55 0.14512,1.00004 -0.4375,1 -0.5825,0 -1.0625,-0.45 -1.0625,-1 0,-0.6407 0.19273,-0.9375 0.46875,-0.9375 z m 13.15625,2.125 c 0.70753,-0.0971 0.35786,2.78113 -0.78125,5.28125 -0.79018,1.73424 -1.72942,2.39484 -2.875,2.03125 -2.31352,-0.73428 -4.96875,0.42171 -4.96875,2.15625 0,1.15083 -0.39518,1.20705 -2.125,0.28125 -1.74478,-0.93381 -2.32851,-0.84286 -3.0625,0.46875 -0.4967,0.88751 -1.51121,1.59379 -2.25,1.59375 -1.78212,0 -2.90026,-3.03735 -1.59375,-4.34375 0.71029,-0.71036 1.03125,-0.51302 1.03125,0.65625 0,2.77093 2.02806,1.92361 3.15625,-1.3125 0.57491,-1.64935 1.48938,-2.70986 2.03125,-2.375 0.54191,0.33487 2.97666,0.72208 5.40625,0.875 3.19041,0.2007 4.44096,-0.0911 4.53125,-1.09375 0.24681,-2.74182 0.3858,-3.22959 1.125,-3.96875 0.14514,-0.14513 0.27409,-0.23639 0.375,-0.25 z m 115.6875,0.0625 c -0.26645,-0.0189 -0.3125,0.33751 -0.3125,1.0625 0,1.84585 3.55557,4.0995 5.03125,3.1875 0.53862,-0.33297 0.96875,0.11 0.96875,1 0,0.88993 0.45001,1.3399 1,1 0.55,-0.33978 1,-1.52035 1,-2.625 0,-1.57644 -0.43639,-1.85988 -2.0625,-1.34375 -1.3234,0.42002 -2.76833,0.0227 -4,-1.09375 -0.8629,-0.78092 -1.35862,-1.17019 -1.625,-1.1875 z m -119.96875,0.15625 c 0.42951,-0.0514 0.89717,0.1746 1.15625,0.59375 0.34545,0.55896 -0.0802,1 -0.9375,1 -1.75653,0 -2.01208,-0.58026 -0.625,-1.4375 0.12813,-0.079 0.26301,-0.13924 0.40625,-0.15625 z m -82.78125,0.90625 c -0.77182,-3e-4 -1.35722,1.04343 -0.90625,2.21875 0.30992,0.80739 0.97764,1.46875 1.46875,1.46875 1.02611,0 1.20316,-2.32824 0.25,-3.28125 -0.26683,-0.26683 -0.55519,-0.40613 -0.8125,-0.40625 z m 58.69531,1.41797 c 0.18175,0.0415 0.48672,0.6736 0.80469,1.73828 0.4845,1.62236 0.72004,3.09243 0.53125,3.28125 -0.5331,0.5331 -1.596,-2.70017 -1.5,-4.5625 0.0113,-0.22941 0.0386,-0.38791 0.0937,-0.4375 0.0206,-0.0186 0.0444,-0.0254 0.0703,-0.0195 z m 8.21094,1.33203 c 0.27591,0 0.63523,0.29668 1.03125,0.9375 0.33978,0.55 0.14515,1.00004 -0.4375,1 -0.5825,0 -1.0625,-0.45 -1.0625,-1 0,-0.6407 0.1927,-0.9375 0.46875,-0.9375 z m 26.09375,3.28125 c 1.93841,0 1.85959,1.301 -0.125,2.0625 -2.2286,0.8552 -2.42152,0.78679 -1.84375,-0.71875 0.28158,-0.73334 1.16745,-1.34371 1.96875,-1.34375 z m -97.5625,3.65625 c -0.54999,0 -1,0.45004 -1,1 0,0.55 0.45001,1 1,1 0.55,-4e-5 1,-0.44996 1,-1 0,-0.54999 -0.45,-1 -1,-1 z m 199.09375,16.12504 c 0.34734,-0.015 0.73277,0.074 1.09375,0.2187 0.79771,0.3194 0.57125,0.5458 -0.59375,0.5938 -1.05411,0.043 -1.64479,-0.1988 -1.3125,-0.5313 0.16592,-0.1663 0.46509,-0.2669 0.8125,-0.2812 z m -3.625,1.3437 c 0.0601,0.023 0.11796,0.1093 0.1875,0.2813 0.27742,0.6875 0.27742,1.8125 0,2.5 -0.27742,0.6875 -0.50011,0.1251 -0.5,-1.25 0,-1.0313 0.13146,-1.5987 0.3125,-1.5313 z m -2.5,4.5625 c 0.52502,0 1.13138,0.3216 1.53125,0.9688 0.33978,0.55 -0.0802,1 -0.9375,1 -0.8575,0 -1.5625,-0.45 -1.5625,-1 0,-0.647 0.44366,-0.9688 0.96875,-0.9688 z m -20.21875,0.062 c 1.05578,0.048 1.2578,0.2884 0.5,0.5938 -0.69101,0.2785 -0.9984,0.9032 -0.6875,1.4062 0.65658,1.0624 0.0986,1.2239 -0.875,0.25 -1.22196,-1.2219 -0.70817,-2.3299 1.0625,-2.25 z m 26.25,0.9063 c -0.54999,0 -1,0.705 -1,1.5625 0,0.8574 0.45001,1.2774 1,0.9375 1.29389,-0.7997 1.29389,-2.5 0,-2.5 z m -53.9375,10.4687 c 0.6336,-0.083 0.23618,0.8007 -1.21875,2.6875 -3.72159,4.826 -6.86968,4.793 -6.8125,-0.062 0.0265,-2.2372 0.17991,-2.3593 1.0625,-0.8437 1.22922,2.1103 3.77648,2.3109 4.53125,0.3437 0.30047,-0.7825 1.23005,-1.6998 2.09375,-2.0312 0.13266,-0.051 0.25342,-0.082 0.34375,-0.094 z m -17.0625,1.5313 c 0.55,0 1,0.195 1,0.4375 0,0.2426 -0.45,0.7226 -1,1.0625 -0.54999,0.3397 -1,0.1451 -1,-0.4375 0,-0.5825 0.45001,-1.0625 1,-1.0625 z m 3.4668,0.5 h 0.002 c 0.0574,0 0.11909,0.081 0.1875,0.25 0.27402,0.677 0.28366,2.027 0.0293,3 -0.25361,0.9729 -0.47971,0.4 -0.5,-1.25 -0.0151,-1.2375 0.10852,-1.9844 0.28125,-2 z m -126.2793,0.5 c 0.45831,0 0.8125,0.675 0.8125,1.5 0,0.825 -0.35412,1.5 -0.8125,1.5 -0.4583,0 -0.84375,-0.675 -0.84375,-1.5 0,-0.825 0.38545,-1.5 0.84375,-1.5 z m 111.21875,1.3437 c 0.35868,-0.06 0.59375,0.1568 0.59375,0.5938 0,0.5824 -0.45,1.0625 -1,1.0625 -1.28137,0 -1.28137,-0.7081 0,-1.5 0.13758,-0.085 0.28682,-0.1363 0.40625,-0.1563 z m -92.90625,1 c 0.77658,0 1.18945,0.3854 0.90625,0.8438 -0.65163,1.0542 -1.12977,1.0541 -1.78125,0 -0.28346,-0.4584 0.0983,-0.8437 0.875,-0.8438 z m 100.75,0.5313 c 2.17618,-0.019 2.75,0.3258 2.75,1.2187 0,0.6792 -1.1125,0.8208 -3,0.4063 -1.7176,-0.3772 -3,-0.2405 -3,0.3125 0,0.5312 -1.35001,1.164 -3,1.4062 -1.64999,0.2423 -3,0.092 -3,-0.3437 0,-1.2315 3.19352,-2.6477 6.5,-2.875 1.1187,-0.077 2.0246,-0.1194 2.75,-0.125 z m -115.4375,2.1562 c 1.28761,-0.01 2.03212,0.4111 1.6875,0.9688 -0.7432,1.2025 -0.6393,1.2025 -2.5,0 -1.2068,-0.7799 -1.0451,-0.9565 0.8125,-0.9688 z m 4.4375,0 c 0.9625,-0.01 1.75,0.4188 1.75,0.9688 0,1.2196 -0.11299,1.2196 -2,0 -1.2819,-0.8285 -1.24541,-0.9557 0.25,-0.9688 z m 6.34375,0.625 c 0.45351,-0.038 1.05075,0.3985 1.90625,1.3438 1.38588,1.5314 1.46943,2.0116 0.40625,2 -2.30551,-0.026 -3.85677,-1.4456 -3.03125,-2.7813 0.21619,-0.3496 0.44655,-0.5402 0.71875,-0.5625 z m 75.40625,1.4063 c 0.825,-0.011 2.15963,0.3945 2.96875,0.9062 2.44449,1.546 0.71623,1.986 -1.96875,0.5 -1.4485,-0.8016 -1.86959,-1.3946 -1,-1.4062 z m 14.125,0.4062 c 1.58272,0.023 2.875,0.3674 2.875,0.7813 0,0.4136 -0.62702,0.75 -1.40625,0.75 -0.77919,0 -1.5648,0.4758 -1.75,1.0312 -0.18519,0.5555 -0.85034,0.1776 -1.46875,-0.8125 -0.98619,-1.5792 -0.77408,-1.7836 1.75,-1.75 z m -23.125,0.5313 c 0.55,0 1,0.195 1,0.4375 0,0.2426 -0.45,0.7226 -1,1.0625 -0.54999,0.3397 -1,0.1451 -1,-0.4375 0,-0.5825 0.45001,-1.0625 1,-1.0625 z m 19.1875,1 c 0.64158,0 0.86189,0.2944 0.5,0.6562 -0.36208,0.3621 -0.17497,1.2619 0.4375,2 0.70031,0.8438 0.7634,1.3438 0.125,1.3438 -0.5585,0 -1.29119,-0.6925 -1.625,-1.5625 -0.83452,-2.1748 -0.77541,-2.4375 0.5625,-2.4375 z m -12.75,0.3437 c 0.32655,-0.023 0.5625,0.2377 0.5625,0.7188 0,0.6702 0.71273,0.8933 1.65625,0.5312 1.29729,-0.4978 1.39518,-0.3288 0.5,0.75 -0.62302,0.7507 -0.83064,1.6381 -0.46875,2 0.36208,0.3621 -0.0835,0.6563 -1,0.6563 -0.91661,-10e-5 -1.70789,-0.1128 -1.75,-0.25 -0.6325,-2.0669 -0.57335,-3.8305 0.15625,-4.2813 0.1251,-0.078 0.2349,-0.1167 0.34375,-0.125 z m 109.90625,1.125 c -0.40777,0.088 -0.41978,0.5875 0.125,1.4688 0.36246,0.5866 1.41376,1.0487 2.34375,1.0312 1.48471,-0.026 1.4732,-0.1886 -0.21875,-1.4687 -1.02761,-0.7774 -1.84219,-1.119 -2.25,-1.0313 z m 4,22.9375 c 0.42879,-0.066 0.88341,0.1406 1.125,0.5313 0.32202,0.5209 0.14582,1.2092 -0.375,1.5312 -0.52089,0.322 -1.20927,0.1458 -1.53125,-0.375 -0.32201,-0.5209 -0.17744,-1.2093 0.34375,-1.5312 0.13002,-0.081 0.29441,-0.1347 0.4375,-0.1563 z m 5.1875,0.375 c -0.68579,0.1281 -0.7099,1.2922 0.5,2.75 0.66433,0.8005 1.63275,1.1986 2.15625,0.875 0.53318,-0.3296 0.1587,-1.4547 -0.84375,-2.5625 -0.75628,-0.8356 -1.4011,-1.1394 -1.8125,-1.0625 z m -208.16601,0.4317 c 0.20418,0.043 0.48587,0.232 0.82226,0.5683 0.6508,0.6508 0.94032,1.4346 0.65625,1.7188 -0.66742,0.6674 -1.84375,-0.509 -1.84375,-1.8438 0,-0.2351 0.0677,-0.3939 0.1875,-0.4375 0.0499,-0.018 0.10967,-0.02 0.17774,-0.01 z m -6,2 c -0.0681,-0.014 -0.12787,-0.012 -0.17774,0.01 -0.11981,0.043 -0.1875,0.2026 -0.1875,0.4375 0,0.5684 0.32089,1.3209 0.6875,1.6875 0.36662,0.3666 0.87203,0.4406 1.15625,0.1563 0.28422,-0.2843 -0.004,-1.068 -0.65625,-1.7188 -0.33639,-0.3363 -0.61809,-0.5255 -0.82226,-0.5683 z m 28.01367,1.9062 c 0.13343,0.049 0.3758,0.2633 0.74609,0.6309 0.68338,0.6783 0.99538,1.4733 0.6875,1.7812 -0.30803,0.308 -0.8745,-0.2324 -1.25,-1.2187 -0.27137,-0.7126 -0.36553,-1.1032 -0.28125,-1.1875 0.0211,-0.021 0.0532,-0.022 0.0977,-0.01 z m 180.55859,0.8809 c 0.5825,0 1.0625,0.45 1.0625,1 0,1.2813 -0.70811,1.2814 -1.5,0 -0.33978,-0.55 -0.14515,-1 0.4375,-1 z m -175.0625,6 c 0.55,0 1.28507,0.45 1.625,1 0.33978,0.55 0.17492,1 -0.375,1 -0.54999,-10e-5 -1.28511,-0.45 -1.625,-1 -0.33978,-0.55 -0.17492,-1 0.375,-1 z m 97.375,12.1562 c 0.4258,-0.03 0.75,0.1633 0.75,0.6563 0,0.537 -0.69162,1.2595 -1.5625,1.5937 -0.97402,0.3738 -1.43109,0.1372 -1.1875,-0.5937 0.31143,-0.9343 1.2904,-1.6047 2,-1.6563 z m 34.6875,1.8438 c 0.5825,0 1.0625,0.45 1.0625,1 0,1.2813 -0.70811,1.2813 -1.5,0 -0.33978,-0.55 -0.14511,-1 0.4375,-1 z m -62.25,0.25 c -2.2038,0.1198 -2.35947,1.77 0.3125,2.4687 1.10003,0.2876 2,0.9204 2,1.4063 0,0.4858 0.47422,0.875 1.0625,0.875 0.58829,0 0.92567,-0.9625 0.75,-2.1563 -0.22223,-1.5086 -1.15108,-2.2785 -3.0625,-2.5312 -0.39639,-0.053 -0.7477,-0.08 -1.0625,-0.062 z m -28.625,7.8437 c 0.15345,0 0.80775,0.4998 2.15625,1.4688 1.49522,1.0744 2.73269,2.275 2.75,2.6875 0.0593,1.4211 -1.74593,0.2071 -3.96875,-2.6875 -0.744,-0.969 -1.09098,-1.4688 -0.9375,-1.4688 z"
       transform="matrix(0.26458333,0,0,0.26458333,-173.23051,-113.12398)"
       id="path4690" />
  </g>
</svg>
