<?xml version="1.0" encoding="UTF-8" standalone="no"?>
<!-- Created with Inkscape (http://www.inkscape.org/) -->

<svg
   width="58.961769mm"
   height="64.900421mm"
   viewBox="0 0 58.961771 64.900421"
   version="1.1"
   id="svg8"
   xmlns="http://www.w3.org/2000/svg"
   xmlns:svg="http://www.w3.org/2000/svg"
   xmlns:rdf="http://www.w3.org/1999/02/22-rdf-syntax-ns#"
   xmlns:cc="http://creativecommons.org/ns#"
   xmlns:dc="http://purl.org/dc/elements/1.1/">
  <defs
     id="defs2" />
  <metadata
     id="metadata5">
    <rdf:RDF>
      <cc:Work
         rdf:about="">
        <dc:format>image/svg+xml</dc:format>
        <dc:type
           rdf:resource="http://purl.org/dc/dcmitype/StillImage" />
      </cc:Work>
    </rdf:RDF>
  </metadata>
  <g
     id="layer1"
     transform="translate(-13.248543,-106.45951)"
     style="display:inline">
    <path
       style="fill:#666666;stroke-width:1"
       d="m 811.17773,829.92188 c -0.68023,0.008 -1.43289,0.0266 -2.28125,0.0625 -3.809,0.15571 -6.73524,0.63136 -6.46875,1.0625 0.26646,0.43116 -0.23507,0.78124 -1.125,0.78124 -0.88992,0 -1.33993,0.45001 -1,1 0.33978,0.55 0.1149,1 -0.5,1 -0.61492,0 -0.83993,0.45001 -0.5,1 0.35037,0.56716 -0.48616,1 -1.9375,1 -1.40749,0 -2.5625,0.24831 -2.5625,0.5625 0,1.07354 2.6303,3.22617 4.5625,3.71876 1.67471,0.42693 1.64069,0.49302 -0.3125,0.59374 -2.59596,0.1338 -2.94414,1.61215 -0.6875,2.875 0.94753,0.53027 -0.87143,0.71126 -4.65625,0.4375 -4.44052,-0.32125 -5.96995,-0.12358 -5.46875,0.6875 0.6838,1.10642 -1.25241,1.60972 -4.4375,1.15626 -0.82499,-0.11755 -1.17439,0.1005 -0.78125,0.5 1.26762,1.2884 -1.13501,4.44894 -2.875,3.78124 -1.10883,-0.42549 -1.47686,-0.18067 -1.15625,0.78126 0.25966,0.77873 1.79043,1.40451 3.40625,1.40624 1.60475,0.002 3.27247,0.55091 3.71875,1.25 0.44633,0.69907 1.23383,1.03778 1.75,0.71876 0.51621,-0.319 0.9375,-0.0786 0.9375,0.5625 0,0.72404 -0.66334,0.89425 -1.75,0.4375 -3.84427,-1.6159 -5.96004,-1.6326 -6.5625,-0.0625 -0.46325,1.20721 0.0113,1.59375 2.03125,1.59374 2.55334,0 2.58221,0.0593 0.71875,1.46876 -1.06764,0.80749 -2.72496,1.48253 -3.6875,1.5 -2.05704,0.0378 -2.39406,2.03125 -0.34375,2.03124 0.76619,0 1.63733,0.62397 1.9375,1.40626 0.32429,0.84544 1.32574,1.21333 2.5,0.90624 1.32885,-0.34733 2.37106,0.1852 3.125,1.59376 1.41222,2.63875 2.63714,2.67622 3.3125,0.0937 0.34961,-1.33697 1.06262,-1.81394 2.125,-1.40624 1.78602,0.68534 2.16473,2.40624 0.53125,2.40624 -0.58246,0 -0.77743,0.45001 -0.4375,1 0.33978,0.55 -0.10319,1 -1,1 -2.10909,0 -4.8056,2.69652 -4,4 0.34243,0.55423 0.19408,1 -0.34375,1 -0.53744,0 -1.80499,0.30577 -2.8125,0.6875 -1.74497,0.66116 -1.76082,0.61932 -0.0937,-1.0625 1.80809,-1.82411 2.3713,-3.11679 0.96875,-2.25 -0.43872,0.27138 -1.42414,0.0967 -2.1875,-0.375 -1.12323,-0.69422 -1.14362,-1.14752 -0.125,-2.375 0.69234,-0.83421 1.89649,-1.27232 2.6875,-0.96874 1.00585,0.38596 1.24492,0.0643 0.8125,-1.0625 -0.71773,-1.87042 -1.99121,-2.0817 -2.96875,-0.5 -0.4405,0.71274 -1.53632,0.1795 -3.09375,-1.5 -1.32888,-1.43313 -2.91824,-2.59376 -3.53125,-2.59376 -0.613,0 -0.30802,0.90001 0.6875,2 2.74285,3.03081 1.64936,2.73406 -7.25,-1.875 -2.33748,-1.21062 -4.25,-1.72264 -4.25,-1.15624 0,1.41702 -2.73984,1.31186 -3.21875,-0.125 -0.21316,-0.63946 -1.27357,-1.34269 -2.34375,-1.53126 -4.93632,-0.86982 -8.4375,-0.8771 -8.4375,-0.0312 0,0.50868 -0.62135,0.67626 -1.40625,0.375 -2.13668,-0.8199 -7.69748,1.57064 -7.125,3.0625 0.4955,1.2912 -0.54503,1.64124 -3.75,1.3125 -0.9747,-0.10016 -1.70236,0.20709 -1.625,0.65624 0.0775,0.44913 0.04,1.15001 -0.0937,1.5625 -0.42349,1.30477 -0.74589,2.71571 -0.875,3.875 -0.0854,0.76604 -0.61177,0.70523 -1.6875,-0.1875 -0.94794,-0.7867 -1.84475,-0.94364 -2.25,-0.37304 -0.37077,0.52176 -2.03751,1.43352 -3.6875,2 -2.1329,0.73224 -2.95893,1.65365 -2.90625,3.1875 0.0408,1.18654 -0.29668,1.9051 -0.75,1.625 -0.45324,-0.28006 -0.84375,0.18743 -0.84375,1.03125 0,1.22332 -0.50663,1.35162 -2.5,0.59375 -2.14371,-0.81502 -2.5,-0.66247 -2.5,1.03125 0,1.08911 -0.67296,1.96875 -1.5,1.96875 -0.82503,0 -1.5,0.44996 -1.5,1 0,0.54999 0.56251,0.99157 1.25,1 0.98128,0.0113 0.96742,0.20939 -0.0312,0.84375 -1.98213,1.25798 -2.40793,5.15625 -0.5625,5.15625 1.18205,0 1.41785,0.61784 0.90625,2.65625 -0.55774,2.22217 -0.44848,2.49998 0.71875,1.53125 0.77269,-0.64127 1.76865,-0.84524 2.21875,-0.4375 0.45007,0.40773 0.52854,0.21205 0.15625,-0.4375 -0.37228,-0.64951 -0.21524,-1.46705 0.34375,-1.8125 0.55896,-0.34545 1,0.0801 1,0.9375 0,0.85746 0.43248,1.5625 0.9375,1.5625 0.50499,0 1.69603,0.28759 2.65625,0.65625 1.19029,0.45672 1.52422,0.29786 1.03125,-0.5 -1.08011,-1.74766 0.49821,-1.39111 1.8125,0.40625 1.17971,1.61337 5.01364,0.98384 4,-0.65625 -0.30047,-0.48609 0.17765,-0.60886 1.03125,-0.28125 0.85357,0.32768 1.53125,0.14359 1.53125,-0.40625 0,-0.55 0.69352,-1.2723 1.53125,-1.59375 1.24264,-0.47686 1.33219,-0.20712 0.46875,1.40625 -1.47065,2.7479 0.1837,2.46455 2.96875,-0.5 1.27582,-1.35806 2.68873,-2.26963 3.125,-2 0.43624,0.26948 1.24542,-0.30727 1.8125,-1.28125 0.56708,-0.97406 1.0458,-1.21753 1.0625,-0.5625 0.0151,0.65507 -0.36737,1.4244 -0.84375,1.71875 -1.63487,1.01038 -0.0487,5.15584 2.03125,5.3125 1.45104,0.10923 1.84581,-0.26079 1.40625,-1.40625 -0.52894,-1.37832 -0.37149,-1.42809 1.09375,-0.21875 1.25568,1.03657 1.79279,1.07948 2.09375,0.18555 0.27931,-0.82991 1.12583,-0.89688 2.75,-0.2793 1.78972,0.68046 2.47572,0.51594 2.9375,-0.6875 0.55004,-1.43331 0.77359,-1.45322 2.34375,-0.0312 1.92813,1.74493 5.81556,0.47692 4.59375,-1.5 -0.40497,-0.6553 -0.22335,-0.80284 0.46875,-0.375 0.635,0.39246 1.15625,0.1678 1.15625,-0.5 0,-0.73591 0.82678,-0.49035 2.09375,0.65625 1.14959,1.04035 2.6121,1.93201 3.25,1.96875 3.08331,0.17764 7.40241,1.94482 9.65625,3.9375 1.375,1.21565 3.96251,3.21153 5.75,4.4375 1.78749,1.22593 3.25,2.61828 3.25,3.09375 0,1.73246 -3.99014,2.13482 -5.5625,0.5625 -0.8626,-0.8626 -1.98927,-1.61875 -2.5,-1.6875 -0.51069,-0.0688 -1.3875,-0.23743 -1.9375,-0.375 -0.54999,-0.13758 -1.45714,-0.30621 -2.03125,-0.375 -0.57411,-0.0688 -0.91161,-0.91247 -0.75,-1.875 0.20372,-1.21425 -0.48409,-1.8615 -2.21875,-2.09375 -1.37503,-0.18406 -2.91498,-0.74653 -3.4375,-1.25 -1.21092,-1.1667 -2.84027,-1.18765 -2.125,-0.0293 0.53851,0.8713 -2.67899,1.35797 -7.4375,1.125 -7.35753,-0.36019 -12.39136,0.23519 -13.8125,1.65625 -0.73334,0.73331 -2.21931,1.34375 -3.3125,1.34375 -1.09315,0 -1.71489,0.45 -1.375,1 0.33978,0.55 -0.10999,1 -1,1 -0.88992,0 -1.33993,0.45 -1,1 0.33978,0.55 -0.10995,1 -1,1 -0.97084,0 -1.33549,0.46173 -0.90625,1.15625 0.47868,0.7745 0.0767,0.99497 -1.21875,0.65625 -2.04309,-0.53427 -4.82111,1.63278 -3.9375,3.0625 0.28574,0.46262 -0.64246,1.33602 -2.03125,1.96875 -1.38875,0.63277 -2.25248,1.58408 -1.9375,2.09375 0.31484,0.50963 0.12131,1.1858 -0.4375,1.53125 -1.62224,1.0026 -1.17823,2.81223 0.53125,2.15625 0.94322,-0.36208 1.30258,-0.2037 0.90625,0.4375 -0.35867,0.58031 0.10545,1.64378 1.0625,2.34375 1.62445,1.18783 1.64212,1.30017 0.0625,1.90625 -1.00055,0.38396 -1.45499,0.24094 -1.09375,-0.34375 0.336,-0.54368 -0.0518,-0.96875 -0.875,-0.96875 -0.89321,0 -1.43604,0.80642 -1.34375,2.03125 0.12473,1.65438 0.74279,2.00776 3.1875,1.78125 1.66829,-0.15458 3.28199,-0.58796 3.5625,-0.96875 0.28045,-0.38075 1.74303,-0.99674 3.25,-1.375 3.29481,-0.82692 3.77262,1.065 0.53125,2.09375 -1.9909,0.6319 -2.0216,0.79363 -0.5,1.90625 0.91926,0.67219 1.34142,1.57356 0.9375,2 -0.40395,0.42645 0.21506,0.45754 1.40625,0.0918 1.1912,-0.36548 2.47159,-0.20611 2.8125,0.3457 0.70077,1.13386 5.53125,-0.66638 5.53125,-2.0625 0,-0.45872 1.68752,-0.56461 3.75,-0.21875 2.06249,0.34583 4.31251,0.53256 5,0.40625 0.6875,-0.12623 3.83752,-0.28996 7,-0.375 3.16252,-0.085 6.0325,-0.53081 6.375,-1 0.8239,-1.12868 9.10063,2.55528 13.71875,6.125 2.0188,1.56049 5.78784,4.0468 8.375,5.53125 4.90515,2.81443 7.80733,6.05212 7.78125,8.65625 -0.008,0.89303 -0.32049,1.11591 -0.75,0.53125 -0.40406,-0.55 -1.65,-1.49878 -2.75,-2.09375 -1.10003,-0.59501 -2.42495,-2.0554 -2.96875,-3.25 -0.54379,-1.19459 -1.4438,-2.01058 -2,-1.8125 -0.55619,0.19805 -2.15625,-0.0503 -3.53125,-0.5625 -4.14172,-1.54303 -8.3714,-1.77873 -9.28125,-0.5 -0.64883,0.91193 -1.00674,0.86798 -1.4375,-0.21875 -1.13113,-2.85366 -8.46427,-9.3638 -10.84375,-9.625 -1.33938,-0.14702 -2.4375,0.14439 -2.4375,0.65625 0,0.51205 -1.19924,0.647 -2.65625,0.28125 -1.8644,-0.46794 -2.4359,-0.3375 -1.9375,0.46875 0.88256,1.42802 0.0552,1.45931 -2.5,0.0918 -1.47223,-0.78792 -2.76571,-0.66134 -5.09375,0.5 -1.71428,0.85519 -3.76316,1.56445 -4.5625,1.56445 -0.9713,0 -1.22651,0.58046 -0.78125,1.75 0.51523,1.35334 0.39285,1.4775 -0.53125,0.56055 -0.92178,-0.91465 -1.52758,-0.87863 -2.59375,0.1875 -0.76017,0.76021 -1.28463,1.74552 -1.1875,2.1875 0.0971,0.44198 -0.19466,1.60752 -0.625,2.59375 -0.43026,0.98623 -0.5043,2.05824 -0.1875,2.375 0.90267,0.90262 -2.20656,3.54655 -3.34375,2.84375 -0.55887,-0.34545 -1.40414,0.41467 -1.875,1.6875 -0.47085,1.27283 -1.11925,2.20004 -1.46875,2.0625 -0.3496,-0.13758 -1.6139,-0.24805 -2.78125,-0.24805 -1.6936,0 -1.88475,0.27138 -0.96875,1.375 0.88453,1.06579 0.8185,1.52269 -0.34375,1.96875 -0.82975,0.31824 -1.26695,1.22289 -0.96875,2 0.64079,1.66983 5.41524,1.91605 5.4375,0.28125 0.008,-0.64229 0.37418,-0.54274 0.875,0.24805 0.59063,0.9326 1.75083,1.17343 3.5625,0.71875 1.81936,-0.45664 2.48416,-0.32653 2.03125,0.40625 -0.3685,0.59614 -0.12396,1.74189 0.53125,2.53125 1.39208,1.67735 4.5818,0.38076 6.78125,-2.71875 1.18322,-1.66742 1.4841,-1.67219 2.875,-0.28125 1.18908,1.18904 1.86336,1.26651 2.9375,0.375 0.76672,-0.63632 1.37073,-0.76118 1.375,-0.28125 0.0113,1.15971 4.88945,3.35572 7.46875,3.375 1.12785,0.008 2.67339,0.43429 3.46875,0.9375 0.87867,0.55589 2.15463,0.53918 3.21875,-0.0293 1.31978,-0.70632 2.34227,-0.34508 4.15625,1.46875 2.74028,2.74027 4.09334,5.625 2.65625,5.625 -0.53272,0 -0.96875,-0.45 -0.96875,-1 0,-0.55 -1.125,-1 -2.5,-1 -1.37499,0 -2.5,0.50002 -2.5,1.125 0,0.62502 -1.1774,-0.0525 -2.625,-1.5 -1.79281,-1.79286 -3.38697,-2.48 -5,-2.1875 -1.30238,0.23622 -2.375,-0.0408 -2.375,-0.59375 0,-1.07323 -2.48479,-3.84375 -3.4375,-3.84375 -0.31445,0 -0.56268,0.56251 -0.5625,1.25 2.3e-4,0.85818 -1.6472,1.21665 -5.25,1.125 -4.86742,-0.12397 -9.49568,1.53557 -8.125,2.90625 0.3258,0.3258 -0.33409,0.32712 -1.46875,0.0293 -1.21595,-0.31786 -2.75692,0.16329 -3.75,1.15625 -1.10161,1.10162 -2.43886,1.44814 -3.8125,1 -1.15547,-0.3772 -3.89376,-0.83929 -6.09375,-1.03125 -2.19998,-0.192 -5.0125,-0.59705 -6.25,-0.90625 -1.33409,-0.33336 -2.25,-0.10504 -2.25,0.5625 0,0.61935 -0.66133,0.87234 -1.46875,0.5625 -0.80738,-0.30992 -1.72842,-0.13419 -2.0625,0.40625 -0.33411,0.54055 -1.32894,0.87084 -2.1875,0.71875 -0.89261,-0.15799 -1.67386,0.54053 -1.84375,1.62695 -0.16327,1.04497 -0.90091,2.24106 -1.625,2.6875 -5.1555,3.17866 -5.90508,4.47592 -3.0625,5.21875 1.20567,0.31521 0.97234,0.49193 -0.75,0.59375 -2.45487,0.14514 -2.46388,0.16704 -0.5,1.6875 1.99998,1.54844 1.99998,1.5704 0,1.375 -3.24449,-0.3171 -4.5,-0.0302 -4.5,1.03125 0,0.55 1.15501,1 2.5625,1 1.45134,0 2.28802,0.43281 1.9375,1 -0.33978,0.55 0.28839,1 1.375,1 1.08662,0 2.19134,-0.5625 2.46875,-1.25 0.36359,-0.9013 0.53683,-0.9214 0.59375,-0.0625 0.0435,0.65507 -0.3875,1.47257 -0.9375,1.8125 -1.76594,1.09142 -1.06764,2.65775 0.90625,2.03125 1.4343,-0.45524 2.29801,0.15346 3.4375,2.4375 0.83362,1.67097 1.10161,3.03125 0.59375,3.03125 -0.50785,0 -0.9375,0.70504 -0.9375,1.5625 0,0.85746 0.45001,1.27743 1,0.9375 0.55,-0.33978 1,-0.11493 1,0.5 0,0.61489 0.45001,0.83989 1,0.5 0.55,-0.33978 1.56251,-0.26895 2.25,0.15625 0.6875,0.42535 3.43573,0.82427 6.09375,0.90625 4.0303,0.12435 4.96318,-0.17043 5.59375,-1.875 0.66414,-1.79535 0.81628,-1.66864 1.375,1.125 0.65458,3.27292 2.6875,4.45573 2.6875,1.5625 0,-1.32075 0.29252,-1.40843 1.5,-0.40625 1.22945,1.02036 1.64671,0.78708 2.46875,-1.375 1.14426,-3.0096 1.88808,-3.37112 1.6875,-0.84375 -0.10091,1.27177 0.45367,1.66571 2.09375,1.4375 1.34722,-0.18746 2.51674,0.31634 2.875,1.25 0.32996,0.86018 1.04376,1.5625 1.59375,1.5625 0.55,0 0.74735,-0.66137 0.4375,-1.46875 -0.30992,-0.80734 -0.13342,-1.76024 0.40625,-2.09375 0.53961,-0.33335 0.86986,-0.0113 0.71875,0.71875 -0.17461,0.84079 0.50277,1.22034 1.875,1.03125 1.18878,-0.16365 2.48084,0.23736 2.875,0.875 0.92652,1.49915 -1.6344,3.09147 -3.0625,1.90625 -0.69286,-0.57502 -1.54906,-0.23963 -2.375,0.90625 -1.31297,1.82172 -6.09375,1.82062 -6.09375,0 0,-1.52644 -1.41429,-0.97317 -4.25,1.65622 -1.50686,1.3972 -2.75,2.2396 -2.75,1.875 0,-0.3647 -0.68123,-0.081 -1.53125,0.625 -0.85005,0.7055 -1.33451,1.8536 -1.0625,2.5625 0.30426,0.7927 -0.0457,1.0801 -0.90625,0.75 -1.03971,-0.399 -1.28627,0.1391 -0.9375,2.0625 0.26911,1.4842 0.0302,2.5937 -0.59375,2.5937 -0.66198,0 -0.82026,0.8799 -0.40625,2.25 0.55457,1.8356 0.41442,2.0199 -0.65625,1 -1.85212,-1.764 -3.40827,-1.5616 -1.90625,0.2481 1.04009,1.2532 0.89825,1.5 -0.875,1.5 -2.2464,0 -2.71317,0.9589 -1.21875,2.5313 0.49663,0.5225 1.05819,1.8405 1.25,2.9062 0.30237,1.6794 1.25347,1.9438 7.125,2.0313 5.11382,0.076 6.65104,-0.2238 6.28125,-1.1875 -0.56156,-1.4634 1.58256,-1.2854 2.6875,0.2187 0.44871,0.6107 0.74063,0.487 0.75,-0.3125 0.008,-0.72 0.45001,-1.0275 1,-0.6875 0.55,0.3398 1,0.079 1,-0.5625 0,-0.6413 0.67501,-0.9103 1.5,-0.5937 1.77842,0.6825 1.84519,0.2577 0.4375,-2.6563 -1.01926,-2.11 -1.00228,-2.1233 0.5,-0.2481 0.85535,1.0676 1.5625,2.9801 1.5625,4.25 0,1.4837 0.62548,2.3555 1.75,2.4375 0.9625,0.07 2.72953,0.2154 3.9375,0.3439 1.20802,0.1285 2.4351,-0.3545 2.71875,-1.0938 0.28385,-0.7392 1.17857,-1.0845 1.96875,-0.7812 0.79019,0.3031 1.74539,0.019 2.125,-0.5938 0.50741,-0.821 1.03282,-0.7983 2.03125,0.029 0.74695,0.6199 3.5147,1.2211 6.15625,1.3438 2.64159,0.1224 6.94998,1.2146 9.5625,2.4375 2.61253,1.2229 6.21251,2.5143 8,2.8437 2.14258,0.3949 5.37183,2.6283 9.4375,6.5938 6.16627,6.0142 6.1645,6.015 7.34375,14.125 0.64868,4.461 1.00311,10.1362 0.8125,12.5937 l -0.34375,4.4688 -3.15625,-2.9688 c -1.74447,-1.6325 -3.47369,-4.0278 -3.84375,-5.3125 -0.60551,-2.1021 -0.48206,-2.2271 1.34375,-1.25 2.52639,1.3521 4.19149,1.3987 2.15625,0.062 -1.33334,-0.8752 -1.33334,-1.0841 0,-2.0311 1.17309,-0.8333 0.95512,-0.9464 -1,-0.5 -2.45196,0.5598 -2.43989,0.5345 -0.25,-0.5939 1.76081,-0.9072 2.09643,-1.6955 1.59375,-3.75 -0.35036,-1.4327 -1.03511,-2.7541 -1.5,-2.9375 -0.46492,-0.1832 -0.84375,-0.9779 -0.84375,-1.7811 0,-0.8033 -0.56076,-1.3458 -1.25,-1.1875 -0.68919,0.1583 -2.60171,-0.6576 -4.25,-1.8125 -1.64832,-1.155 -3.9,-2.1778 -5,-2.2814 -4.89339,-0.4601 -7.59761,-0.065 -9.84375,1.4064 -2.42218,1.5871 -4.64559,1.6669 -5.71875,0.2186 -0.63284,-0.854 -5.46069,-1.171 -8.15625,-0.5311 -0.94151,0.2233 -2.51652,1.3042 -3.5,2.375 -1.29547,1.4105 -2.81441,1.8499 -5.53125,1.625 -2.06248,-0.1709 -3.75,-0.6687 -3.75,-1.0939 0,-0.9839 -6.17032,-1.0586 -7.5,-0.094 -0.54999,0.3992 -3.56685,0.427 -6.71875,0.062 -6.49923,-0.7514 -9.15239,0.1927 -8.28125,2.9375 0.47018,1.4814 0.17498,1.7192 -1.5,1.2812 -1.14602,-0.2997 -1.9948,-0.1389 -1.90625,0.3438 0.46167,2.517 -0.25812,4.375 -1.6875,4.375 -1.04742,0 -1.39152,0.5422 -1,1.5625 0.46111,1.2016 0.12435,1.4233 -1.40625,0.9375 -2.2806,-0.7238 -2.33817,-0.5624 -1.03125,2.875 0.80262,2.111 0.68016,2.419 -0.65625,1.9062 -1.08128,-0.4149 -1.4404,-0.144 -1.125,0.8125 0.2555,0.7752 1.3929,1.5504 2.53125,1.7188 1.13836,0.1685 2.31418,1.1809 2.59375,2.25 0.53265,2.037 3.6875,2.7288 3.6875,0.8125 0,-0.6089 0.73874,-0.8089 1.625,-0.4688 1.2248,0.4701 1.44725,0.1826 0.9375,-1.1562 -0.53767,-1.4123 -0.41595,-1.5023 0.59375,-0.5 1.63091,1.6189 3.19138,1.6189 2.21875,0 -0.54946,-0.9147 -0.31369,-0.9008 0.875,0.062 1.99208,1.6143 1.88548,5.1875 -0.15429,5.1875 -1.1043,0 -1.21296,0.2872 -0.375,1.125 1.35904,1.359 10.83998,1.7183 14.125,0.5312 2.07938,-0.7513 2.27722,-0.608 1.6875,1.25 -0.73399,2.3126 -0.33637,2.5085 2.25,1.2188 0.95505,-0.4763 3.13453,-1.3168 4.875,-1.875 2.77617,-0.8904 3.23293,-0.7696 3.6875,0.9687 0.28497,1.0898 1.00675,1.6753 1.59375,1.3125 0.58703,-0.3628 1.0625,-0.1463 1.0625,0.4688 0,0.6149 0.42552,0.8477 0.9375,0.5312 0.51197,-0.3163 1.21444,-0.094 1.5625,0.4688 0.40252,0.6512 1.1619,0.4631 2.09375,-0.4688 0.80587,-0.8058 2.12841,-1.1854 2.9375,-0.875 1.74463,0.6695 1.83113,-0.019 0.40625,-2.9687 -0.958,-1.9831 -0.91,-2.0264 0.375,-0.4375 1.7901,2.2132 2.83346,2.2657 2,0.094 -0.40762,-1.0622 -0.25775,-1.4297 0.4375,-1 0.59913,0.3704 1.76369,-0.015 2.59375,-0.8437 2.08395,-2.084 2.40741,-1.9407 3.15625,1.4687 0.52384,2.3851 1.10467,2.92 2.84375,2.5938 1.19595,-0.2241 2.87243,-0.4591 3.75,-0.5 2.26333,-0.1055 1.82304,-4.6787 -0.625,-6.4688 -3.63519,-2.6581 -0.47123,-2.9671 6.3125,-0.625 3.24931,1.1219 7.15266,2.9144 9.32031,4.2696 a 301.02545,301.02545 0 0 0 21.17383,-10.9356 c -10e-4,-1.6864 0.0203,-3.7775 0.0664,-6.3398 0.144,-7.9903 0.58536,-15.0359 0.96875,-15.6563 0.26911,-0.4352 0.75574,-0.6139 1.34375,-0.5937 1.76402,0.06 4.33635,1.8436 3.78125,3.2812 -0.31861,0.825 -1.47543,5.55 -2.5625,10.5 -0.64594,2.9414 -1.12838,5.1023 -1.70898,7.7246 a 301.02545,301.02545 0 0 0 9.14063,-5.2422 c 1.57538,-3.2328 3.21695,-4.9775 4.53906,-4.4453 0.47871,0.1927 0.97219,0.3892 1.51953,0.6055 a 301.02545,301.02545 0 0 0 32.00195,-24.5332 c -1.13876,0.1715 -2.22664,-0.063 -2.99023,-0.6973 -1.13745,-0.9439 -1.68826,-0.9832 -2.21875,-0.125 -1.00887,1.6324 -7.33037,2.0086 -7.875,0.4688 -0.24303,-0.6872 0.39802,-1.5498 1.40625,-1.9063 1.00822,-0.3564 3.38747,-1.3275 5.3125,-2.1562 1.92499,-0.8288 3.95,-1.3823 4.5,-1.2188 0.54999,0.1637 2.79997,0.4587 5,0.625 0.90689,0.069 1.65719,0.1405 2.33008,0.209 a 301.02545,301.02545 0 0 0 13.87109,-13.5176 c -0.29716,-0.5144 -0.69048,-1.0921 -1.23242,-1.7226 -2.29852,-2.6745 -3.11494,-2.9457 -9,-3 -3.55862,-0.034 -6.46883,0.2574 -6.46875,0.6562 7e-5,0.3988 -1.35001,0.4549 -3,0.125 -2.1628,-0.4325 -3.00835,-0.2101 -3.03125,0.7813 -0.0227,0.9485 -0.46473,0.7843 -1.4375,-0.5 -0.77556,-1.024 -2.83839,-1.95566 -4.59375,-2.09372 -1.75537,-0.13795 -3.62104,-1.00574 -4.125,-1.90625 -1.15453,-2.06306 -2.9402,-2.16776 -2.15625,-0.125 0.49149,1.28084 0.11492,1.25945 -2.40625,-0.1875 l -3,-1.71875 5.125,-1.78125 c 2.8193,-0.97803 12.10001,-5.37481 20.625,-9.78125 8.52502,-4.4064 16.52362,-8.02411 17.75,-8.03125 1.22634,-0.008 3.98827,-0.72631 6.15625,-1.59375 3.08821,-1.23568 4.4153,-1.30453 6.09375,-0.40625 1.58109,0.84616 2.47462,0.82503 3.46875,0 0.92848,-0.77057 1.55333,-0.78537 2,-0.0625 0.67967,1.09973 3.177,1.28624 5.07617,0.66406 a 301.02545,301.02545 0 0 0 8.21289,-11.48633 c -0.24559,-0.67696 -0.31714,-1.24338 -0.10156,-1.45898 0.3685,-0.36851 0.18706,-0.65625 -0.4375,-0.65625 -0.62442,0 -0.87908,-0.67497 -0.5625,-1.5 0.40176,-1.04701 -0.0915,-1.5 -1.59375,-1.5 -1.18383,0 -3.29044,-1.13415 -4.6875,-2.53125 -1.78099,-1.78095 -3.16381,-2.3601 -4.59375,-1.90625 -1.27782,0.40558 -1.80375,0.26827 -1.40625,-0.375 0.75534,-1.22219 -1.96563,-4.1875 -3.84375,-4.1875 -0.72609,0 -1.59239,-1.12501 -1.9375,-2.5 -0.397,-1.58185 -1.34644,-2.5 -2.5625,-2.5 -1.05706,0 -2.14009,-0.39375 -2.4375,-0.875 -0.29745,-0.48125 -1.73994,-0.875 -3.1875,-0.875 -1.4476,0 -2.95752,-0.5432 -3.375,-1.21875 -0.58987,-0.95437 -1.25126,-0.98183 -2.96875,-0.0625 -1.82914,0.97893 -2.57415,0.85786 -4.28125,-0.65625 -1.49692,-1.32767 -2.18271,-1.46951 -2.5,-0.5625 -0.24038,0.68749 -0.94837,1.25 -1.5625,1.25 -0.81914,0 -0.82296,-0.30201 0,-1.125 0.61701,-0.61705 0.93906,-1.65691 0.6875,-2.3125 -0.54059,-1.40875 10.8552,-12.5828 12.78125,-12.53125 0.72831,0.0189 0.18749,0.67343 -1.1875,1.4375 l -2.5,1.375 2.625,1 c 1.549,0.59191 4.0965,0.67324 6.25,0.1875 2.06411,-0.46553 3.87338,-0.44562 4.1875,0.0625 0.30463,0.49274 0.0189,0.90625 -0.65625,0.90625 -0.67412,0 -0.98148,0.26837 -0.65625,0.59375 0.32541,0.32542 1.5483,0.27778 2.71875,-0.0937 1.80895,-0.57415 1.95111,-0.89795 0.84375,-2.25 -1.11553,-1.36207 -0.93329,-1.37792 1.28125,0.0625 2.52325,1.64141 2.6088,1.63571 3.78125,-0.9375 1.01374,-2.22493 0.91443,-2.96649 -0.59375,-4.6875 -1.67728,-1.91399 -1.6723,-2.00504 -0.0293,-1.40625 0.9625,0.35112 1.75,0.22407 1.75,-0.28125 0,-1.48717 -3.10129,-2.78882 -5.28125,-2.21875 -1.67932,0.43918 -1.9209,0.16099 -1.4375,-1.6875 0.40044,-1.53128 0.0601,-2.42048 -1.09375,-2.84375 -0.91979,-0.33751 -2.02889,-1.20854 -2.46875,-1.9375 -0.43982,-0.72896 -1.45226,-1.3125 -2.21875,-1.3125 -0.76649,0 -1.96882,-0.81637 -2.6875,-1.8125 -2.04083,-2.82879 -3.74042,-3.46035 -5.59375,-2.09375 -0.93842,0.69195 0.1028,-0.53037 2.3125,-2.6875 2.20978,-2.15713 4.68838,-4.99689 5.53125,-6.3125 1.32204,-2.06355 1.84101,-2.22369 3.71875,-1.21875 1.66885,0.8931 2.63621,0.86711 4.125,-0.0625 1.53895,-0.9611 2.27811,-0.91513 3.53125,0.125 0.86967,0.72177 1.5625,1.92985 1.5625,2.6875 0,1.71851 2.1837,1.78769 3.875,0.125 1.01851,-1.00131 1.19496,-0.97459 0.9375,0.12695 -0.17688,0.75625 0.24948,1.56029 0.9375,1.8125 0.80451,0.2948 1.05027,-0.0983 0.65625,-1.125 -0.33676,-0.87798 -0.13151,-2.18292 0.46875,-2.90625 0.7101,-0.85561 0.78651,-2.39506 0.21875,-4.375 -0.70704,-2.46527 -0.58771,-3.00433 0.65625,-2.90625 2.66283,0.21014 2.50337,-2.26213 -0.1875,-2.9375 -1.49382,-0.37493 -2.5625,-1.36088 -2.5625,-2.34375 0,-0.93037 -0.52748,-2.24627 -1.1875,-2.90625 -0.93332,-0.93335 -0.7111,-1.1875 1,-1.1875 1.20998,0 2.1875,-0.45 2.1875,-1 0,-0.55 -0.675,-1 -1.5,-1 -0.82499,0 -1.5,-0.67497 -1.5,-1.5 0,-0.82499 -0.36851,-1.5 -0.84375,-1.5 -0.47512,0 -3.14934,-2.104 -5.9375,-4.6875 -4.33788,-4.01945 -5.72362,-4.74958 -9.625,-4.9375 -2.50756,-0.12094 -4.83907,0.2056 -5.15625,0.71875 -0.97073,1.57066 -2.2616,0.0151 -1.71875,-2.0625 0.47667,-1.82283 0.67111,-1.83957 2.90625,-0.375 2.42389,1.5882 3.21117,0.73464 1.375,-1.46875 -0.72726,-0.87273 -0.65406,-0.91483 0.21875,-0.1875 1.55221,1.29351 3.0807,1.29351 2.28125,0 -0.33978,-0.55003 -0.11489,-1 0.5,-1 0.61493,0 0.83604,-0.45628 0.5,-1 -0.35036,-0.56685 0.0786,-0.71655 0.96875,-0.375 2.18544,0.83864 1.9919,-2.27493 -0.21875,-3.5625 -1.07989,-0.62899 -1.24526,-1.0125 -0.4375,-1.03125 0.71996,-0.0151 1.02838,-0.47974 0.6875,-1.03125 -0.41208,-0.66682 -1.27285,-0.6599 -2.5625,0.0293 -1.39294,0.74547 -1.9375,0.72663 -1.9375,-0.0937 0,-0.6282 -0.68414,-0.88754 -1.53125,-0.5625 -0.90308,0.34658 -1.46801,0.0673 -1.375,-0.65625 0.42183,-3.28086 -0.10586,-3.92143 -2.65625,-3.28125 -1.67546,0.42051 -2.38559,0.26798 -1.96875,-0.40625 0.36321,-0.58768 -0.21352,-1.03125 -1.34375,-1.03125 -1.09999,0 -2.27951,-0.47226 -2.625,-1.03125 -0.34545,-0.55899 -1.02601,-0.7617 -1.5,-0.46875 -0.47399,0.29291 -1.14899,0.068 -1.5,-0.5 -0.35112,-0.56795 -1.05049,-0.78517 -1.5625,-0.46875 -0.51201,0.31634 -0.9375,0.20921 -0.9375,-0.25 0,-0.45952 -1.97896,-0.82709 -4.40625,-0.8125 -2.42725,0.0151 -4.33976,0.48125 -4.25,1.03125 0.0899,0.54999 -0.63122,0.84911 -1.59375,0.6875 -0.96249,-0.16177 -1.75,0.17574 -1.75,0.75 0,0.57411 -0.675,1.0625 -1.5,1.0625 -2.19753,0 -1.83061,1.67176 0.5,2.28125 1.09999,0.28762 1.98093,1.13602 1.9375,1.875 -0.0593,1.01045 -0.21428,1.03383 -0.59375,0.0937 -0.27742,-0.6875 -1.54621,-1.25 -2.8125,-1.25 -2.57922,0 -7.78403,2.40347 -6.96875,3.21875 0.28951,0.28951 -0.58322,0.53125 -1.9375,0.53125 -1.52833,0 -2.29091,-0.46058 -2,-1.21875 0.30501,-0.79453 -0.64696,-1.25358 -2.71875,-1.3125 -1.75181,-0.0499 -3.66912,-0.60156 -4.28125,-1.21875 -0.82103,-0.82783 -0.63063,-0.94415 0.78125,-0.40625 1.33591,0.50891 1.72343,0.37907 1.21875,-0.4375 -0.39768,-0.64347 -1.50743,-1.17907 -2.4375,-1.1875 -1.43516,-0.0113 -1.47128,-0.1455 -0.21875,-0.9375 1.20525,-0.76218 1.0219,-1.13069 -1,-1.9375 -1.36176,-0.54338 -1.85834,-0.99637 -1.125,-1.03125 2.26027,-0.10734 0.67635,-2.41271 -1.78125,-2.59375 -1.27306,-0.0937 -2.73394,-0.95951 -3.28125,-1.9375 -0.80973,-1.44696 -1.18753,-1.52106 -1.90625,-0.40625 -0.68277,1.05914 -1.02333,0.86445 -1.5,-0.875 -0.33902,-1.23749 -1.04908,-2.25 -1.59375,-2.25 -0.5447,0 -0.70699,0.69755 -0.375,1.5625 0.43147,1.12445 0.0926,1.46068 -1.15625,1.1875 -0.96057,-0.21014 -1.62874,-0.9652 -1.46875,-1.6875 0.19843,-0.89526 -0.27929,-1.08362 -1.5,-0.59375 -0.98498,0.39526 -2.36502,0.95308 -3.09375,1.25 -0.75802,0.30879 -1.2357,-0.051 -1.125,-0.84375 0.41851,-2.99728 -0.11526,-4.68987 -1.65625,-5.28125 -1.18942,-0.45642 -1.4608,-0.20068 -1,1 0.64649,1.68472 -0.93305,1.66755 -7.40625,-0.0937 -1.93504,-0.52653 -2.16103,-0.42306 -1,0.40625 1.24777,0.89129 1.12683,1.04976 -0.71875,1.0625 -1.6594,0.0113 -2.03917,-0.38286 -1.5625,-1.625 0.51387,-1.33916 0.17728,-1.55017 -1.6875,-1.0625 -1.73594,0.45396 -2.015,0.32731 -1.15625,-0.53125 2.00689,-2.00689 1.26183,-2.69987 -3.5,-2.65625 z m -16.9375,8.90624 c -0.85746,0 -1.27743,0.45001 -0.9375,1 0.33978,0.55 1.04494,1 1.5625,1 0.51754,0 0.9375,-0.45 0.9375,-1 0,-0.54999 -0.70503,-1 -1.5625,-1 z m 45.5625,4 c 0.55,0 1,0.45001 1,1 0,0.55 -0.45,1 -1,1 -0.54999,0 -1,-0.45 -1,-1 0,-0.54999 0.45001,-1 1,-1 z m 5.00196,1.45508 c 0.0785,0.0104 0.17154,0.0356 0.27929,0.0762 0.70118,0.2691 1.81969,1.37937 2.5,2.46874 1.80703,2.89354 -0.2449,2.44829 -2.15625,-0.46874 -0.82042,-1.25216 -1.09347,-1.94322 -0.8125,-2.0625 0.0469,-0.0199 0.11093,-0.0241 0.18946,-0.0137 z m -53.06446,1.10742 c 0.29783,-0.0302 0.82119,0.0458 1.5625,0.1875 1.3798,0.26382 2.5,0.59795 2.5,0.75 0,1.06859 -3.06318,1.11612 -3.9375,0.0625 -0.5328,-0.64195 -0.62125,-0.95079 -0.125,-1 z m 51.1543,0.4336 c 0.0699,-0.009 0.14382,-0.008 0.2207,0.004 0.36889,0.0556 0.80359,0.36702 1.15625,0.9375 0.31635,0.51202 0.1578,1.15891 -0.34375,1.46876 -0.50135,0.30992 -1.15338,-0.0843 -1.46875,-0.90626 -0.34,-0.886 -0.0534,-1.44124 0.43555,-1.5039 z m -57.99805,2.1289 c 0.34734,-0.0151 0.73281,0.0431 1.09375,0.1875 0.79775,0.31938 0.57122,0.54579 -0.59375,0.59376 -1.05414,0.0435 -1.64479,-0.19881 -1.3125,-0.53126 0.1663,-0.16629 0.46513,-0.23601 0.8125,-0.25 z m -7.09375,5.875 c -0.54999,0 -1,0.44997 -1,1 0,0.55 0.45001,1 1,1 0.55,0 1,-0.45 1,-1 0,-0.55003 -0.45,-1 -1,-1 z m 75.84375,1 c 0.45831,0 0.84375,0.67501 0.84375,1.5 0,1.69936 -0.0729,1.73943 -1,0.8125 -0.92689,-0.92689 -0.8423,-2.3125 0.15625,-2.3125 z m -12.0625,5.04883 c 0.64031,0.0396 1.69257,0.59159 3.1875,1.63867 1.89532,1.32753 2.28346,1.36452 1.84375,0.21876 -0.42791,-1.11512 0.38623,-1.46436 3.5625,-1.53126 2.27173,-0.048 3.5625,0.10187 2.875,0.34376 -0.68749,0.24226 -1.25,0.97813 -1.25,1.625 0,0.64686 -0.796,1.66594 -1.78125,2.28124 -1.41244,0.88211 -2.29612,0.73094 -4.125,-0.75 -1.27566,-1.03298 -2.92343,-1.875 -3.6875,-1.875 -0.76403,0 -1.40625,-0.45 -1.40625,-1 0,-0.54168 0.17273,-0.86376 0.53125,-0.9375 0.0747,-0.0154 0.15853,-0.0193 0.25,-0.0137 z m -59.3125,0.98243 c 0.27591,0 0.63527,0.32804 1.03125,0.96874 0.33978,0.55 0.14512,1 -0.4375,1 -0.58246,0 -1.0625,-0.45 -1.0625,-1 0,-0.6407 0.19277,-0.96874 0.46875,-0.96874 z m -41.53125,0.96874 c -0.58246,0 -0.77743,0.45001 -0.4375,1 0.79193,1.28138 1.5,1.28138 1.5,0 0,-0.54999 -0.48003,-1 -1.0625,-1 z m 57.125,2.03126 c 0.52502,0 0.9375,0.32161 0.9375,0.96874 0,0.55 -0.70503,1 -1.5625,1 -0.85746,0 -1.27743,-0.45 -0.9375,-1 0.39984,-0.64694 1.03745,-0.96874 1.5625,-0.96874 z m 52.21875,1 c 0.18331,0.008 0.51238,0.4117 1.125,1.21874 0.73066,0.9625 2.26185,1.75 3.40625,1.75 1.14441,0 2.34757,0.45001 2.6875,1 0.33978,0.55 1.07501,1 1.625,1 0.55,0 0.71497,-0.45 0.375,-1 -0.77125,-1.24784 -0.29025,-1.25745 2.9375,-0.0293 1.7045,0.64804 2.5625,0.63916 2.5625,-0.0312 0,-0.67143 0.6494,-0.65712 1.9375,0.0312 1.31347,0.70291 2.13595,0.69014 2.5625,0 0.34621,-0.56047 1.05053,-0.75392 1.5625,-0.4375 0.51198,0.31634 0.9375,0.12773 0.9375,-0.4375 0,-0.56523 0.67501,-0.78533 1.5,-0.46875 0.825,0.31672 1.5,1.00763 1.5,1.53125 0,0.52361 -0.40587,0.71549 -0.90625,0.40625 -1.73283,-1.07093 -4.25101,0.64662 -3.75,2.5625 0.48681,1.86149 -0.39187,2.48312 -1.6875,1.1875 -1.97574,-1.97571 -11.51267,0.4808 -10.1875,2.625 0.29367,0.47527 -0.39799,0.63834 -1.53125,0.3418 -1.51475,-0.3961 -2.18389,0.0265 -2.59375,1.59374 -0.30652,1.17264 -0.98167,2.12501 -1.5,2.125 -0.51828,0 -0.64438,0.47502 -0.28125,1.0625 0.36322,0.58753 1.37439,0.78258 2.28125,0.4375 1.05865,-0.40282 1.29832,-0.29562 0.65625,0.3125 -2.06044,1.95092 -5.46993,2.37566 -6.09375,0.75 -0.33108,-0.86294 -1.42882,-1.56249 -2.4375,-1.5625 -1.00871,0 -2.12885,-0.45 -2.46875,-1 -0.33978,-0.54999 -1.60743,-1.0612 -2.8125,-1.125 -1.69175,-0.0896 -1.78879,-0.20937 -0.4375,-0.5625 0.9625,-0.25171 1.75,-0.89536 1.75,-1.4375 0,-0.54213 0.42553,-0.75392 0.9375,-0.4375 0.51198,0.31635 1.20062,0.15981 1.53125,-0.375 0.33071,-0.53495 1.34715,-0.69006 2.25,-0.34374 1.24865,0.47916 1.47241,0.2188 0.96875,-1.09376 -0.36434,-0.94971 -0.25267,-1.467 0.25,-1.15624 1.32673,0.81996 6.17403,-1.63418 5.75,-2.90626 -0.19766,-0.59274 -0.74584,-1.08532 -1.25,-1.09374 -1.77906,-0.0302 -3.43765,-1.61044 -3.40625,-3.28126 0.0151,-0.77982 0.0671,-1.16418 0.25,-1.15624 z m 31.71875,0.96874 c 0.55,0 1,0.69824 1,1.5625 0,2.48516 -2.47741,4.52259 -3.84375,3.15626 -1.57375,-1.5738 -1.43939,-2.71875 0.34375,-2.71876 0.825,0 1.5,-0.45 1.5,-1 0,-0.55003 0.45001,-1 1,-1 z m 9.21875,0.0293 c 0.13493,0.0113 0.34508,0.30275 0.6875,0.84375 0.5085,0.80281 1.41857,1.04964 2.15625,0.59375 0.84964,-0.52513 1.00703,-0.38288 0.5,0.4375 -0.41563,0.67249 -1.38688,0.98276 -2.15625,0.6875 -0.76936,-0.29518 -1.40625,-0.19107 -1.40625,0.25 0,0.44107 -0.63367,0.8125 -1.40625,0.8125 -0.77257,0 -1.15521,-0.58233 -0.875,-1.3125 0.28007,-0.7302 0.9139,-1.08554 1.40625,-0.78125 0.49236,0.30425 0.89783,-0.0302 0.90625,-0.75 0.008,-0.51371 0.0526,-0.79176 0.1875,-0.78125 z m -4.75,0.96875 c 0.89458,0 1.25684,0.5863 0.90625,1.5 -0.74494,1.94121 -2.375,1.94121 -2.375,0 0,-0.82499 0.66099,-1.5 1.46875,-1.5 z m -53.1875,7.125 c 0.15685,-0.034 0.61231,0.38416 1.5,1.1875 1.03079,0.93286 2.13756,1.45616 2.4375,1.15625 0.29972,-0.30009 0.80609,0.10623 1.125,0.9375 0.319,0.83112 0.2261,1.75625 -0.21875,2.03125 -1.11201,0.68723 -3.70326,-1.51771 -4.53125,-3.875 -0.32352,-0.92069 -0.46919,-1.40488 -0.3125,-1.4375 z m -110.34375,0.875 c -0.58246,0 -0.77743,0.45192 -0.4375,1.00195 0.79193,1.28138 1.5,1.28138 1.5,0 0,-0.55003 -0.48003,-1.00195 -1.0625,-1.00195 z m 105.8125,1.34375 v 0.002 c 0.17046,0.002 0.3651,0.0104 0.5625,0.0293 2.712,0.28914 4.6875,1.38101 4.6875,2.59375 0,0.47845 -1.57746,0.81717 -3.5,0.71875 -2.53538,-0.12964 -3.49675,-0.65516 -3.5,-1.875 -0.003,-1.01386 0.55582,-1.48012 1.75,-1.46875 z m -6.09375,2.0957 c 0.32996,-0.0113 0.58656,0.13456 0.8125,0.5 0.35868,0.58058 -0.15871,1.33235 -1.15625,1.65626 -3.67022,1.19183 -3.96875,1.17777 -3.96875,-0.15626 0,-0.74834 0.39259,-1.11066 0.875,-0.8125 0.48242,0.29821 1.49807,0.0303 2.25,-0.59374 0.47343,-0.39292 0.85748,-0.58083 1.1875,-0.59376 z m -21.86914,0.7168 c 0.11282,0.0522 0.0741,0.26014 -0.13281,0.59375 -0.83112,1.3448 0.23623,4.25 1.5625,4.25 0.55,0 0.70832,-0.76918 0.34375,-1.71875 -0.48374,-1.26062 0.0828,-1.05628 2.125,0.75196 4.65086,4.11809 5.80218,6.96679 2.8125,6.96679 -0.82499,0 -1.5,0.63277 -1.5,1.40625 0,0.91408 -0.70014,1.21493 -2,0.875 -1.35349,-0.35376 -2,-0.0283 -2,1.00196 0,1.03067 -0.63151,1.35593 -2,0.99804 -1.54942,-0.40516 -1.88447,-0.15037 -1.40625,1.0957 0.34205,0.89129 1.60261,1.66196 2.78125,1.7168 2.07111,0.0964 2.07278,0.12327 0.125,0.75196 -1.10853,0.35754 -1.95229,1.2168 -1.875,1.90429 0.0771,0.6875 0.18159,1.70001 0.25,2.25 0.0688,0.55 0.60504,1.00195 1.1875,1.00195 0.58246,0 0.77743,-0.45195 0.4375,-1.00195 -0.93796,-1.51767 1.86369,-1.1924 4.0625,0.47071 2.56426,1.9395 4.01935,1.91142 2.40625,-0.0313 -1.0413,-1.25465 -1.02876,-1.76766 0.0312,-2.75 0.83962,-0.77737 1.06546,-0.79436 0.65625,-0.0625 -0.34961,0.62518 0.0559,1.69533 0.875,2.375 1.18254,0.9814 1.77748,0.98865 2.96875,0 1.30307,-1.08147 1.5,-0.50935 1.5,4.375 0,3.09234 -0.10713,5.625 -0.25,5.625 -0.14324,0 -1.48589,-1.125 -2.96875,-2.5 -1.4829,-1.37499 -3.36975,-2.5 -4.21875,-2.5 -0.84903,0 -1.5625,-0.45 -1.5625,-1 0,-0.54999 -0.70504,-1 -1.5625,-1 -0.85746,0 -1.27743,0.45001 -0.9375,1 0.33978,0.55 -0.0801,1 -0.9375,1 -0.85746,0 -1.5625,-0.45 -1.5625,-1 0,-0.54999 -0.83114,-1 -1.84375,-1 -1.17505,0 -2.79589,-1.77517 -4.5,-4.90624 -2.21507,-4.0698 -2.50751,-5.38601 -1.65625,-7.625 0.85501,-2.24882 1.44933,-2.59285 3.5625,-2.0625 2.06079,0.51722 2.49473,0.32274 2.25,-1.125 -0.18482,-1.09388 0.24188,-1.68169 1.09375,-1.5 1.07097,0.22828 1.26252,-0.62793 0.84375,-3.75 -0.31672,-2.36236 -0.11867,-4.30521 0.5,-4.6875 0.1474,-0.0911 0.28127,-0.16256 0.375,-0.1875 h 0.002 c 0.0705,-0.0188 0.12451,-0.0193 0.16211,-0.002 z m 13.40039,1.93946 c 0.1663,-0.008 0.29828,0.017 0.375,0.0918 0.2041,0.2041 -0.21089,2.30195 -0.90625,4.65625 l -1.25,4.28125 -1.21875,-2.59179 c -0.65593,-1.43963 -1.1875,-3.05771 -1.1875,-3.5625 0,-0.86521 3.02458,-2.81234 4.1875,-2.875 z m 71.61524,4.2539 c 0.23068,0.0252 0.43526,0.20448 0.63476,0.52734 0.4063,0.65742 0.19577,1.85534 -0.46875,2.65626 -2.52971,3.04807 -3.99691,1.24374 -1.625,-2 0.48511,-0.66346 0.88502,-1.05465 1.21875,-1.15821 0.0834,-0.0259 0.16335,-0.0338 0.24024,-0.0254 z m -13.42774,0.0254 c 0.36435,0.0113 0.625,0.41942 0.625,1.0625 0,1.75654 -0.58026,2.014 -1.4375,0.62695 -0.31634,-0.51201 -0.12134,-1.21705 0.4375,-1.5625 0.13985,-0.0865 0.25368,-0.13111 0.375,-0.12695 z m -5.78125,1.625 c 0.55937,-0.0601 1.3478,0.70301 1.6875,2.00195 0.64865,2.48047 -1.48708,2.67834 -3.40625,0.3125 -0.93256,-1.14965 -0.97426,-1.44777 -0.125,-0.9375 0.6875,0.41307 1.25,0.26798 1.25,-0.31445 0,-0.69558 0.25817,-1.02652 0.59375,-1.0625 z m 9.9375,0.4375 v 0.002 c 0.30501,-0.004 0.92008,0.1028 1.84375,0.2793 2.62908,0.5026 2.76041,0.78094 2.15625,4.15625 -0.35603,1.98928 -1.0874,5.31251 -1.625,7.375 -0.53763,2.06249 -1.13346,3.75 -1.3125,3.75 -0.34544,0 -1.59375,-8.35622 -1.59375,-10.65625 0,-0.74823 0.67497,-1.34375 1.5,-1.34375 1.98751,0 1.91011,-1.0059 -0.21875,-2.5625 -0.94586,-0.69161 -1.25834,-0.99093 -0.75,-1 z m -92.15625,0.12695 c 0.52256,-0.0639 1.09806,0.59012 1.65625,2.03126 0.61826,1.59617 1.95637,4.59376 2.96875,6.65624 2.20343,4.48891 1.63439,4.62726 -3,0.78126 -2.75383,-2.28533 -3.42062,-3.50116 -3.15625,-5.71876 0.28536,-2.39349 0.85944,-3.66787 1.53125,-3.75 z m 5.07227,0.7793 c 0.0445,-0.0121 0.0939,-0.0103 0.14648,0.002 0.14022,0.034 0.32996,0.1423 0.53125,0.34374 0.79095,0.79095 0.76914,1.64547 0,2.96876 -0.94083,1.61862 -1.0671,1.4611 -1.09375,-1.125 -0.0132,-1.4118 0.1045,-2.10448 0.41602,-2.18946 z m 82.45898,0.5957 c 0.20863,-0.0227 0.46462,0.0585 0.71875,0.3125 0.33222,0.33223 0.38802,1.18021 0.15625,1.875 -0.33864,1.01617 -0.55745,1.01942 -1.1875,0 -0.62551,-1.01211 -0.31301,-2.12264 0.3125,-2.1875 z m -93.625,0.0606 c 0.8335,0 1.77714,0.67501 2.09375,1.5 0.74336,1.93716 -0.7673,1.93716 -2.375,0 -1.0134,-1.22109 -0.95238,-1.5 0.28125,-1.5 z m -4.59375,1 c 0.65503,-0.008 1.47257,0.44997 1.8125,1 0.76729,1.2415 0.42114,1.2415 -1.5,0 -0.9013,-0.58246 -1.02804,-0.99078 -0.3125,-1 z m -18.21875,0.0312 c 0.27591,0 0.63531,0.32808 1.03125,0.96875 0.33978,0.55 0.14512,1 -0.4375,1 -0.58246,0 -1.0625,-0.45 -1.0625,-1 0,-0.64067 0.19277,-0.96875 0.46875,-0.96875 z m 130.71875,1.3125 c 0.34697,-0.034 0.51259,0.31333 0.65625,1.03125 0.38298,1.91471 2.15625,2.2001 2.15625,0.34375 0,-0.70715 0.85185,-1.28125 1.875,-1.28125 1.62505,0 1.74028,0.40521 0.9375,3.3125 -0.98082,3.5523 -4.61119,10.25 -5.5625,10.25 -0.31483,0 -1.4947,-0.7875 -2.59375,-1.75 -1.90318,-1.66666 -1.95153,-1.66666 -1.34375,0 0.35339,0.96903 0.15079,1.75 -0.4375,1.75 -1.98833,0 0.0722,-10.31678 2.46875,-12.375 0.96541,-0.82915 1.49691,-1.24651 1.84375,-1.28125 z m 13.71875,0.9375 c 1.14509,-0.0941 1.03498,0.63642 0.5625,3.4375 -0.41559,2.46399 -1.71359,4.73957 -3.75,6.53125 -5.28408,4.64901 -6.64315,3.14903 -3.5625,-3.90625 2.51354,-5.75648 1.7704,-4.93706 5.15625,-5.75 0.69158,-0.16592 1.21202,-0.28113 1.59375,-0.3125 z m -31.46875,0.0293 c 0.19692,4e-5 0.59442,0.12271 1.1875,0.3457 2.59915,0.97693 4.30577,3.40181 4.34375,6.125 0.0189,1.25518 0.68579,3.81354 1.46875,5.6875 1.29959,3.11029 1.27761,3.35524 -0.25,2.8125 -0.9205,-0.32693 -2.1401,-0.96465 -2.71875,-1.40625 -1.21224,-0.92519 -5.46875,-0.0227 -5.46875,1.15625 0,0.43438 -0.97397,0.52784 -2.15625,0.21875 -1.31153,-0.34318 -2.5732,0.0113 -3.25,0.9375 -0.80545,1.10151 -1.7431,1.28305 -3.4375,0.65625 -1.28345,-0.47478 -2.75178,-0.58924 -3.25,-0.28125 -0.49825,0.30803 -1.90164,-0.14322 -3.125,-1 -2.48881,-1.74323 -5.78125,-2.08609 -5.78125,-0.59375 0,0.62816 -0.88296,0.6451 -2.5,0.0293 -1.38077,-0.52498 -3.90668,-0.79021 -5.59375,-0.59375 -1.88821,0.21997 -2.69676,-0.0227 -2.125,-0.59375 1.17634,-1.17634 4.10862,-1.37863 6.875,-0.46875 1.32692,0.43642 2.65588,0.18787 3.5,-0.65625 0.75035,-0.75035 1.91117,-1.16507 2.59375,-0.9375 0.68262,0.22753 1.25,-0.0778 1.25,-0.65625 0,-0.57857 0.67501,-0.78532 1.5,-0.46875 0.825,0.31672 1.5,0.0476 1.5,-0.59375 0,-0.64127 0.4349,-0.89245 0.96875,-0.5625 0.53386,0.32995 1.27423,-0.54002 1.625,-1.9375 0.35074,-1.39752 1.07089,-2.53125 1.59375,-2.53125 0.52283,0 0.62278,0.49088 0.25,1.09375 -0.42243,0.68349 0.0227,0.95727 1.1875,0.71875 1.02766,-0.21052 2.37522,0.25399 2.96875,1.03125 0.91098,1.19282 1.45638,1.19485 3.5,0.0625 1.33146,-0.73761 2.86378,-1.3555 3.40625,-1.375 1.52134,-0.0548 1.80698,-3.44361 0.4375,-5.09375 -0.63968,-0.77076 -0.82821,-1.12508 -0.5,-1.125 z m 45.1875,5.0625 c -0.35867,0.0151 -0.625,0.41941 -0.625,1.0625 0,0.85746 0.45001,1.5625 1,1.5625 1.29389,0 1.29389,-1.70029 0,-2.5 -0.13757,-0.085 -0.25556,-0.13029 -0.375,-0.125 z m -46.15625,1.65625 c -0.2759,0 -0.46875,0.32808 -0.46875,0.96875 0,0.55 0.48004,1 1.0625,1 0.58247,0 0.7774,-0.45 0.4375,-1 -0.39598,-0.64067 -0.75523,-0.96875 -1.03125,-0.96875 z m -35.59375,2.96875 c 1.4462,0 1.74634,0.55759 1.375,2.5 -0.69422,3.63175 -3.25,3.08689 -3.25,-0.6875 0,-1.12116 0.73676,-1.8125 1.875,-1.8125 z m -4.15625,1.28125 c 0.1784,0.034 0.28541,0.18371 0.28125,0.40625 -0.008,0.44496 -0.46686,1.4875 -1,2.3125 -0.83542,1.29267 -0.95556,1.26977 -0.96875,-0.1875 -0.008,-0.93003 0.41876,-1.97257 0.96875,-2.3125 0.27515,-0.17008 0.54029,-0.25314 0.71875,-0.21875 z m -7.40625,0.75 c 0.39591,0.0302 0.83226,0.34354 1.21875,0.96875 0.34545,0.55895 1.01924,0.75396 1.53125,0.4375 0.51202,-0.31635 0.9375,0.3326 0.9375,1.40625 0,1.07361 -0.69252,2.1974 -1.5625,2.53125 -1.9045,0.73081 -1.67599,0.75315 -3.15625,-0.1875 -0.68243,-0.43366 -0.9509,-1.72241 -0.625,-2.96875 0.38548,-1.47405 0.99639,-2.23879 1.65625,-2.1875 z m -10.28125,6.96875 c 0.0843,-0.0382 0.54372,0.29029 1.46875,0.96875 1.1,0.80689 2.20831,1.59436 2.4375,1.75 0.22904,0.15572 -0.082,0.28125 -0.65625,0.28125 -0.57429,0 -1.6514,-0.78751 -2.40625,-1.75 -0.63473,-0.80939 -0.92807,-1.21198 -0.84375,-1.25 z m -74.5,4 c 0.80773,0 1.46875,0.675 1.46875,1.5 0,1.9412 -1.59884,1.9412 -2.34375,0 -0.35074,-0.91374 -0.0189,-1.5 0.875,-1.5 z m 66.21875,0 c 0.55,0 1.50437,0.57108 2.09375,1.28125 0.79575,0.95883 0.57241,1.59605 -0.875,2.5 -1.17233,0.73213 -1.96875,0.82521 -1.96875,0.21875 0,-0.55468 0.50766,-1 1.125,-1 0.77549,0 0.73519,-0.46365 -0.125,-1.5 -0.69441,-0.83675 -0.80797,-1.5 -0.25,-1.5 z m -19.59375,4.09375 c 0.13078,-0.0994 0.53335,0.254 1.3125,1 1.07301,1.02731 1.58167,2.78916 1.375,4.84375 l -0.34375,3.21875 -3,-3.1875 c -2.83109,-3.01739 -2.87271,-3.17707 -0.65625,-2.5 2.10841,0.64407 2.29004,0.48337 1.65625,-1.625 -0.3273,-1.08854 -0.47474,-1.65086 -0.34375,-1.75 z m 11.78125,0.28125 c 0.19881,-0.0227 0.48927,0.0115 0.84375,0.0625 0.95524,0.13984 1.88468,0.99568 2.0625,1.90625 0.44342,2.27044 -1.52637,2.09455 -2.78125,-0.25 -0.62573,-1.16924 -0.72088,-1.6477 -0.125,-1.71875 z m -24.55859,0.71289 c 0.13343,0.0491 0.37578,0.26332 0.74609,0.63086 0.68342,0.67835 0.99538,1.50462 0.6875,1.8125 -0.30803,0.30803 -0.87446,-0.26381 -1.25,-1.25 -0.27137,-0.71259 -0.36553,-1.10318 -0.28125,-1.1875 0.0211,-0.0211 0.0532,-0.0222 0.0977,-0.006 z m 18.02539,0.26367 c 0.26722,0.0293 0.59428,0.21635 1.00195,0.55469 0.60065,0.49848 1.54372,0.92718 2.09375,0.9375 0.55,0.0113 1.62042,0.95728 2.375,2.09375 1.20382,1.81304 1.16254,2.0625 -0.3125,2.0625 -0.92454,0 -1.43499,0.3613 -1.15625,0.8125 0.27893,0.45101 0.70147,2.02602 0.96875,3.5 0.56315,3.10564 -0.0699,3.29889 -2.96875,0.875 -1.24074,-1.03741 -2.2938,-3.4369 -2.625,-5.90625 -0.41208,-3.07215 -0.29851,-4.68103 0.375,-4.90625 0.0765,-0.0256 0.15898,-0.0332 0.24805,-0.0234 z m -12.7793,1.67969 c 0.62019,-0.0189 1.69031,0.64375 2.375,1.46875 1.58079,1.90473 0.93116,1.9184 -1.5625,0.0312 -1.06764,-0.8075 -1.43264,-1.4825 -0.8125,-1.5 z m -9.28125,0.15625 c 0.20599,0.0265 0.485,0.23511 0.84375,0.59375 0.65084,0.65083 0.9404,1.40335 0.65625,1.6875 -0.66738,0.66739 -1.84375,-0.50897 -1.84375,-1.84375 0,-0.31332 0.13739,-0.46366 0.34375,-0.4375 z m -12.0625,0.875 c 0.25588,0.0189 0.80804,0.1769 1.71875,0.4375 1.375,0.39371 2.94627,1.10558 3.46875,1.59375 1.687,1.57621 -1.86181,0.90566 -3.96875,-0.75 -1.21428,-0.95422 -1.64508,-1.30967 -1.21875,-1.28125 z m 137.8125,2.9375 c 0.59622,0 -0.31712,1.77304 -2.03125,3.9375 -1.97521,2.49392 -3.86142,3.8788 -5.15625,3.78125 -2.33223,-0.17575 -2.55938,-0.45932 -2.46875,-3.21875 0.0423,-1.29094 0.88191,-2.10501 2.34375,-2.3125 1.24566,-0.17688 2.00313,-0.73931 1.6875,-1.25 -0.75163,-1.21618 0.19538,-1.1897 2.59375,0.0937 1.33331,0.71357 1.9375,0.71357 1.9375,0 0,-0.56935 0.49753,-1.03125 1.09375,-1.03125 z m -17.09375,2 c 0.55,0 1,0.45 1,1 0,0.55 -0.45,1 -1,1 -0.54999,0 -1,-0.45 -1,-1 0,-0.55 0.45001,-1 1,-1 z m 29.4375,3 c -0.85746,0 -1.25173,0.44104 -0.90625,1 0.34545,0.55899 1.01928,0.75392 1.53125,0.4375 1.38705,-0.85724 1.1315,-1.4375 -0.625,-1.4375 z m -101.00195,1.25 h 0.002 c 0.24983,0.0151 0.56273,0.36736 1.09375,1.09375 0.86053,1.17683 2.05785,1.49465 4.21875,1.0625 1.74762,-0.34961 3.29749,-0.16213 3.6875,0.46875 0.41753,0.67555 0.1028,0.86325 -0.84375,0.5 -3.09516,-1.18772 -5.62024,4.61391 -3.125,7.1875 1.81425,1.87121 4.74849,2.51211 6.15625,1.34375 1.14044,-0.94651 1.26575,-0.33374 0.78125,3.71875 -0.32012,2.67863 -0.75773,5.4375 -0.96875,6.125 -0.56779,1.84981 -2.22994,1.51045 -3.40625,-0.6875 -0.76936,-1.43758 -0.64533,-2.29217 0.4375,-3.375 1.27223,-1.27223 1.21799,-1.64934 -0.34375,-3.0625 -1.98149,-1.79324 -3.58549,-2.17914 -2.625,-0.625 0.33978,0.55 0.36114,1 0.0293,1 -1.20264,0 -6.35479,-12.25535 -5.78125,-13.75 0.26079,-0.67937 0.43767,-1.01482 0.6875,-1 z m -5.49805,1.75 c 0.58247,0 1.0625,0.45 1.0625,1 0,1.28137 -0.70807,1.28137 -1.5,0 -0.33978,-0.55 -0.14511,-1 0.4375,-1 z m 26.59375,8.21875 c 0.20826,-3e-4 0.45011,0.004 0.71875,0.0312 3.23755,0.3428 3.81991,1.74237 1.6875,4.03125 -1.40262,1.5055 -1.59326,2.44321 -0.84375,3.84375 1.14883,2.14658 2.53351,2.42069 3.28125,0.625 0.61369,-1.47379 3.86748,2.05381 3.34375,3.625 -0.45403,1.3621 -4.94849,1.57838 -6.53125,0.3125 -0.9637,-0.7708 -1.58986,-0.66819 -2.25,0.375 -0.59387,0.93849 -0.89623,-1.0811 -0.90625,-5.8125 -0.0113,-6.04985 0.0412,-7.02917 1.5,-7.03125 z m 40.34375,0.78125 c 0.61735,0 1.125,0.43923 1.125,1 0,0.56077 1.15164,0.81833 2.5625,0.5625 1.5289,-0.27742 2.4275,-0.034 2.21875,0.59375 -0.53147,1.59443 -7.26188,3.61712 -11.25,3.375 -1.94623,-0.1183 -3.53125,0.13457 -3.53125,0.59375 0,0.4591 -1.10215,0.76676 -2.4375,0.65625 -2.47751,-0.20523 -2.56015,-1.78125 -0.0937,-1.78125 0.74669,0 1.57764,-0.56251 1.8125,-1.25 0.33411,-0.97814 1.09266,-1.00397 3.5625,-0.0937 2.67644,0.9863 3.15625,0.92705 3.15625,-0.375 0,-1.2624 0.27815,-1.32123 1.53125,-0.28125 1.97919,1.64262 3.14259,0.51044 1.5,-1.46875 -0.86505,-1.04236 -0.92398,-1.53125 -0.15625,-1.53125 z m 12.13282,2.9707 c 0.19263,-0.004 0.37445,0.0677 0.52343,0.2168 0.20863,0.20863 -0.0189,0.95722 -0.46875,1.6875 -0.53136,0.85973 -1.02228,0.95317 -1.4375,0.28125 -0.45789,-0.74083 0.39732,-1.93783 1.1875,-2.15625 0.0659,-0.0182 0.13111,-0.0279 0.19532,-0.0293 z m -32.62891,1.27539 c 0.14933,0.0762 0.36336,0.39222 0.68359,0.94141 0.61765,1.05944 1.64994,1.47733 2.71875,1.09375 1.28958,-0.46284 1.10934,0.13492 -0.75,2.3125 -4.26198,4.99109 -4.3389,5.02274 -3.6875,2.40625 0.34243,-1.37503 0.66324,-3.62501 0.6875,-5 0.0189,-1.07169 0.0702,-1.63696 0.21875,-1.75 0.0371,-0.0282 0.0791,-0.0293 0.12891,-0.004 z m -104.37891,1.84766 c 0.33109,0 0.67617,0.17609 1,0.5 0.64763,0.64758 0.29521,0.96875 -1,0.96875 -1.29524,0 -1.61637,-0.32128 -0.96875,-0.96875 0.32391,-0.32391 0.63782,-0.5 0.96875,-0.5 z m 99.96875,0.40625 c 0.16593,0.0151 0.37004,0.0584 0.625,0.15625 1.10366,0.42353 1.32689,1.42185 0.84375,3.71875 -0.36132,1.71776 -0.92669,3.42117 -1.28125,3.78125 -1.2407,1.2599 -5.15625,-2.39213 -5.15625,-4.8125 0,-2.07598 0.27364,-2.26553 1.9375,-1.375 2.6397,1.41271 3.37643,1.2764 2.71875,-0.4375 -0.28346,-0.73882 -0.18526,-1.07158 0.3125,-1.03125 z m 72.125,1.625 c 0.34734,-0.0151 0.73281,0.0431 1.09375,0.1875 0.79775,0.31937 0.57122,0.54579 -0.59375,0.59375 -1.05414,0.0435 -1.64479,-0.1988 -1.3125,-0.53125 0.1663,-0.16592 0.46513,-0.23602 0.8125,-0.25 z m -106.71875,0.125 c 0.14249,-0.0408 0.51455,0.22788 1.21875,0.8125 0.93359,0.7748 1.16496,1.51794 0.5625,1.71875 -0.5794,0.19313 -0.77202,1.06568 -0.4375,1.9375 0.49837,1.29864 0.12662,1.44011 -2.125,0.875 -1.62274,-0.40728 -2.52814,-0.30106 -2.1875,0.25 0.31711,0.51341 -0.47425,1.20319 -1.78125,1.53125 -3.07808,0.77253 -8.94867,6.26101 -8.125,7.59375 0.34923,0.56523 0.19408,1.03125 -0.34375,1.03125 -0.53748,0 -1.69249,0.26002 -2.5625,0.59375 -2.2114,0.84858 -2.04245,-1.67349 0.53125,-7.65625 1.16777,-2.71446 2.77277,-4.9375 3.5625,-4.9375 0.88256,0 1.1491,-0.4817 0.6875,-1.25 -0.4693,-0.78119 -0.10509,-0.70969 1,0.1875 1.14596,0.93048 2.03207,1.06952 2.46875,0.40625 0.94972,-1.44257 5.04657,-2.33767 5.71875,-1.25 0.98181,1.58857 2.68632,0.95717 2.03125,-0.75 -0.27174,-0.70806 -0.36123,-1.05301 -0.21875,-1.09375 z m 45.28125,0.0625 c 0.93241,0.004 0.8825,1.34468 -0.59375,2.625 -1.12732,0.97769 -2.0625,2.31452 -2.0625,2.9375 0,0.62302 -0.4849,1.125 -1.09375,1.125 -0.60888,0 -0.84786,0.675 -0.53125,1.5 0.64071,1.66968 -0.89799,2.08075 -1.875,0.5 -0.60385,-0.97712 2.88734,-6.80714 4.90625,-8.1875 0.51466,-0.35188 0.93921,-0.50136 1.25,-0.5 z m -61.75,3.6875 c 0.49852,0 0.66274,0.89997 0.375,2 -0.67045,2.56388 -1.28125,2.56388 -1.28125,0 0,-1.10003 0.40773,-2 0.90625,-2 z m -5.5,1.25 c 0.16895,-0.008 0.39058,0.14062 0.6875,0.4375 0.60155,0.60159 0.93909,1.84846 0.75,2.78125 -0.4453,2.19685 -1.84375,0.79999 -1.84375,-1.84375 0,-0.91986 0.12438,-1.36294 0.40625,-1.375 z m -40.53125,0.75 c -0.54999,0 -0.71496,0.45 -0.375,1 0.33978,0.55 1.07501,1 1.625,1 0.55,0 0.71501,-0.45 0.375,-1 -0.33978,-0.55 -1.075,-1 -1.625,-1 z m 160.40625,13.03125 c 0.44032,0.0378 0.83491,0.33562 1.1875,0.90625 0.32278,0.52237 -0.29594,1.42241 -1.375,2 -2.83657,1.51808 -3.30161,1.31941 -2.09375,-0.9375 0.72091,-1.34702 1.54742,-2.02881 2.28125,-1.96875 z m 14.2129,0.14844 c 0.0436,0.009 0.0895,0.0297 0.13085,0.0703 0.33222,0.33222 0.35164,1.21565 0.0625,1.9375 -0.31937,0.79774 -0.54578,0.53992 -0.59375,-0.625 -0.034,-0.7906 0.0768,-1.29968 0.28125,-1.375 0.034,-0.0132 0.0755,-0.0165 0.11915,-0.008 z m -23.8379,1.00781 c 0.14363,-0.0865 0.24837,0.2007 0.28125,0.84375 0.0435,0.84393 -1.31183,2.34656 -3,3.34375 -3.06315,1.80945 -3.05726,1.81196 -1.75,-0.28125 0.72046,-1.15363 1.82189,-2.09375 2.46875,-2.09375 0.64687,0 1.41012,-0.56251 1.6875,-1.25 0.12662,-0.31408 0.22633,-0.51046 0.3125,-0.5625 z m -14.90625,3.0625 c 0.27667,0.004 0.60259,0.11268 1,0.28125 0.96254,0.40826 2.83263,0.66915 4.15625,0.59375 2.38511,-0.13606 2.38958,-0.1236 0.5,1.96875 -1.04863,1.16107 -4.5533,3.46296 -7.78125,5.09375 l -5.84375,2.96875 3.34375,-4.09375 c 2.61684,-3.1748 3.87735,-3.97572 5.625,-3.5625 1.23754,0.29253 2.25,0.0605 2.25,-0.5 0,-0.93672 -1.40566,-1.41625 -3.25,-1.125 -0.41249,0.065 -0.75,-0.39116 -0.75,-1 0,-0.419 0.28913,-0.63369 0.75,-0.625 z m -5.90625,3.9375 c 0.0979,0.0151 0.15323,0.12869 0.15625,0.34375 0.0227,1.6145 -8.22338,9.16222 -10.75,9.84375 -1.2401,0.33449 -3.15261,0.87588 -4.25,1.1875 -1.09742,0.31143 -2,0.16939 -2,-0.3125 0,-1.39423 2.93345,-4.88342 2.96875,-3.53125 0.0189,0.69585 0.72245,0.9401 1.625,0.59375 0.99512,-0.38185 1.39061,-1.33902 1.0625,-2.59375 -0.28724,-1.09841 0.17727,-2.67708 1.03125,-3.53125 1.39971,-1.39967 1.61931,-1.39297 2.46875,0.125 1.14278,2.04204 3.01721,2.24952 2.25,0.25 -0.4055,-1.05672 0.0113,-1.26615 1.625,-0.84375 1.31309,0.34318 2.53137,-0.004 3.0625,-0.84375 0.30312,-0.47898 0.58696,-0.71366 0.75,-0.6875 z m -155.875,3.78125 c 0.22337,-0.11036 0.86928,0.24416 1.84375,1.21875 0.93336,0.93332 1.1875,0.90367 1.1875,-0.125 0,-1.06212 0.2952,-1.06249 1.5,-0.0625 0.825,0.6847 1.5,1.57616 1.5,2 0,1.91308 -2.78669,1.54407 -4.71875,-0.625 -1.20782,-1.35602 -1.59948,-2.26441 -1.3125,-2.40625 z m 56.03125,0.0312 c 1.37957,0 1.26868,2.32507 -0.1875,3.78125 -0.93331,0.93332 -0.90363,1.21875 0.125,1.21875 1.04444,0 1.04824,0.28762 0.0937,1.4375 -1.26085,1.51926 -0.63084,3.5625 1.09375,3.5625 0.55,0 0.71501,-0.45 0.375,-1 -0.33978,-0.55004 -0.14511,-1 0.4375,-1 0.58247,0 1.0625,0.43949 1.0625,1 0,1.28364 5.23411,0.10923 6.25,-1.40625 0.45162,-0.67378 0.74056,-0.41952 0.75,0.65625 0.0227,2.46954 1.66567,2.18681 2.34375,-0.40625 0.47811,-1.8282 0.81532,-1.99321 2.125,-0.90625 0.85285,0.70779 1.53125,2.15486 1.53125,3.1875 0,1.75718 -1.66663,2.29896 -6.65625,2.15625 -0.64497,-0.0189 -1.43924,0.98073 -1.75,2.21875 -0.6147,2.44925 -4.30644,3.12667 -6.125,1.125 -3.73561,-4.11175 -5.60033,-7.92012 -5.03125,-10.1875 0.33941,-1.35198 1.05423,-2.4375 1.59375,-2.4375 0.53949,0 0.96875,-0.67501 0.96875,-1.5 0,-0.825 0.45001,-1.5 1,-1.5 z m 67.625,3.0625 c 0.62015,-0.0435 1.69031,0.6125 2.375,1.4375 1.68851,2.03456 5.97297,1.89454 7.65625,-0.25 0.77689,-0.98978 0.46735,0.63918 -0.71875,3.75 -2.47971,6.50389 -2.64384,6.69994 -4.09375,5.25 -1.40692,-1.40689 -5.84375,1.22258 -5.84375,3.46875 0,1.06522 -0.36661,1.22808 -1.25,0.53125 -1.97389,-1.55724 -4.67644,-1.09785 -5.3125,0.90625 -0.32012,1.00837 -1.01711,1.84377 -1.5625,1.84377 -0.54538,0 -0.715,0.45 -0.375,1 0.33978,0.55 -0.10206,1 -1,1 -0.89782,0 -1.47472,-0.5625 -1.28125,-1.25 1.18938,-4.2272 5.13,-16.33149 5.4375,-16.68752 0.20297,-0.23471 1.08363,0.44014 1.9375,1.5 1.04705,1.29966 1.69284,1.55515 2.03125,0.75 0.27591,-0.65662 1.14804,-0.95918 1.9375,-0.65625 0.78951,0.30312 1.4375,0.0945 1.4375,-0.46875 0,-0.563 -0.56246,-1.25387 -1.25,-1.53125 -0.78538,-0.31673 -0.83335,-0.54413 -0.125,-0.59375 z m -29.34375,1.3125 c 0.0949,-0.0408 0.2778,0.13947 0.53125,0.5 0.56304,0.80065 1.51254,1.04952 2.25,0.59375 0.94647,-0.58496 1.10512,-0.16929 0.625,1.625 -0.35414,1.32351 -0.64872,4.31872 -0.65625,6.65625 -0.0151,5.06632 -1.15829,5.29992 -5,1.09375 -1.79863,-1.96925 -3.43203,-2.90508 -4.40625,-2.53125 -0.90058,0.34545 -1.97746,-0.1334 -2.5625,-1.125 -0.6816,-1.15506 -1.26183,-1.33662 -1.78125,-0.59375 -1.75596,2.51119 -7.28125,0.68775 -7.28125,-2.40625 0,-1.26716 0.32202,-1.19298 1.59375,0.375 0.86578,1.0676 1.28575,1.37499 0.9375,0.6875 -0.85545,-1.68881 1.98574,-1.62475 8.0625,0.21875 6.13456,1.86096 6.40625,1.87484 6.40625,-0.0312 0,-0.85746 0.45922,-1.25983 1.03125,-0.90625 0.67654,0.41813 0.84142,-0.37529 0.4375,-2.21875 -0.27061,-1.23485 -0.34548,-1.86928 -0.1875,-1.9375 z m 13.6875,0.9375 c 0.31333,-0.0382 0.73039,0.0811 1.28125,0.25 1.2375,0.38041 2.41717,0.84594 2.625,1.03125 0.20788,0.1852 -0.77267,3.39113 -2.1875,7.125 l -2.5625,6.78127 -0.0625,-7.81252 c -0.0408,-5.74171 -0.034,-7.26037 0.90625,-7.375 z m 18,0.90625 c -1.05634,0.0423 -1.96093,0.9463 -1.40625,1.84375 0.31635,0.51197 0.9524,0.9375 1.4375,0.9375 1.40047,0 2.14962,-1.80884 1.03125,-2.5 -0.33297,-0.20561 -0.71039,-0.29524 -1.0625,-0.28125 z m -113.5,0.8125 c 0.27591,0 0.63531,0.32808 1.03125,0.96875 0.33978,0.55 0.14512,1 -0.4375,1 -0.58246,0 -1.0625,-0.45 -1.0625,-1 0,-0.64067 0.19277,-0.96875 0.46875,-0.96875 z m 33.8125,1.0625 c 0.0888,-0.0748 0.37002,0.15497 0.875,0.65625 1.6277,1.61571 3.16217,1.61571 2.34375,0 -0.34809,-0.6875 0.0907,-0.36548 0.96875,0.71875 0.87791,1.08423 1.34964,2.59548 1.0625,3.34375 -0.28724,0.74827 -0.53125,1.81117 -0.53125,2.375 0,0.56387 -0.64803,0.77168 -1.4375,0.46875 -0.78946,-0.30312 -1.57697,-0.16864 -1.75,0.3125 -0.1731,0.48087 -1.54717,-0.0151 -3.0625,-1.125 -2.99671,-2.19451 -2.79974,-3.84375 0.4375,-3.84375 1.53755,0 1.87519,-0.43612 1.375,-1.75 -0.26721,-0.70159 -0.37006,-1.08138 -0.28125,-1.15625 z m -28.28125,4.90625 c -0.54999,0 -1,0.45 -1,1 0,0.55 0.45001,1 1,1 0.55,0 1,-0.45 1,-1 0,-0.55 -0.45,-1 -1,-1 z m 34.37891,0.0859 c 0.13343,0.0491 0.37575,0.26527 0.74609,0.63281 0.68342,0.67835 0.99538,1.50462 0.6875,1.8125 -0.30803,0.30803 -0.87446,-0.26381 -1.25,-1.25 -0.27137,-0.71259 -0.36553,-1.10318 -0.28125,-1.1875 0.0211,-0.0211 0.0532,-0.0242 0.0977,-0.008 z m 80.55859,15.41402 0.0293,2.6875 c 0.0189,1.4732 -0.57587,3.2634 -1.3125,4 -0.73659,0.7366 -1.51264,1.913 -1.75,2.625 -0.23735,0.7121 -0.7552,0.9636 -1.15625,0.5625 -1.41358,-1.4136 -0.72218,-4.288 1.71875,-7.0625 z m 3.5625,0.062 c 0.28271,-0.034 0.53283,0.3938 0.78125,1.3438 0.29972,1.1465 0.15352,2.0937 -0.3125,2.0937 -1.36218,0 -1.89184,-1.4825 -1.03125,-2.875 0.21733,-0.3519 0.3928,-0.5432 0.5625,-0.5625 z m -49.28125,0.75 c 0.15194,0.01 0.64722,0.2789 1.53125,0.8125 1.2375,0.747 2.25,1.7073 2.25,2.125 0,0.4177 0.67497,0.75 1.5,0.75 0.825,0 1.44013,-0.3375 1.375,-0.75 -0.43691,-2.7672 0.23359,-3.5244 1.53125,-1.75 1.57036,2.1477 1.03453,13.5369 -0.6875,14.6563 -0.5492,0.3571 -0.71296,1.3695 -0.375,2.25 0.33789,0.8804 0.15754,1.5937 -0.375,1.5937 -1.42151,0 -1.18244,2.7623 0.28125,3.25 0.6875,0.2291 1.28695,1.5958 1.3125,3.0625 0.0677,3.8863 -1.05358,3.2755 -2.4375,-1.3437 -0.66285,-2.2125 -2.98154,-7.6905 -5.15625,-12.1875 -2.52204,-5.2153 -3.61141,-8.5449 -3,-9.1563 0.61142,-0.6114 1.51619,-0.4729 2.5,0.3438 1.2669,1.0514 1.53125,1.012 1.53125,-0.1563 0,-0.7823 -0.56246,-2.0253 -1.25,-2.75 -0.49111,-0.5177 -0.68299,-0.7561 -0.53125,-0.75 z m 25.71875,0.094 c 0.83441,0 1.91458,0.046 3.28125,0.125 3.31442,0.1912 6.21711,0.5608 6.46875,0.8125 0.25172,0.2517 -0.22903,1.7946 -1.0625,3.4062 -1.06337,2.0563 -2.1856,2.8676 -3.78125,2.75 -1.25053,-0.092 -3.31207,0.8746 -4.59375,2.1563 -1.28167,1.2816 -2.46667,2.3437 -2.625,2.3437 -1.59662,0 -2.14606,-5.3845 -1,-9.6562 0.39213,-1.4615 0.80929,-1.9322 3.3125,-1.9375 z m -37.1875,3.5937 c 1.81448,0 5.3982,4.8486 7.34375,9.9688 1.1,2.8949 1.87988,5.4068 1.71875,5.5625 -0.39333,0.3801 -7.06334,-5.5748 -8.75,-7.8125 -1.14856,-1.5238 -1.09872,-1.962 0.40625,-3.0625 1.64856,-1.2055 1.6391,-1.3923 0.0625,-2.9688 -0.92526,-0.9252 -1.27466,-1.6875 -0.78125,-1.6875 z m 77.59375,1.3438 c 0.25248,0.042 0.14608,0.24 -0.34375,0.5312 -2.43533,1.4495 -6.64602,2.5019 -5.5,1.375 0.55,-0.5408 2.35001,-1.2714 4,-1.625 0.97909,-0.2097 1.59113,-0.3236 1.84375,-0.2812 z m -90.0625,1.0312 c 0.29972,-4e-4 0.56434,0.3398 0.96875,1.0625 0.4876,0.8714 1.29244,1.3214 1.8125,1 0.52011,-0.3216 1.23255,0.1403 1.5625,1 0.32996,0.8599 1.05185,1.5625 1.59375,1.5625 0.54191,0 2.10158,0.9 3.5,2 3.14767,2.476 2.24614,2.4638 -4.40625,-0.094 -3.6884,-1.418 -5.05075,-2.4407 -4.65625,-3.4688 0.30577,-0.797 0.0775,-1.4375 -0.53125,-1.4375 -0.60884,0 -1.125,0.5146 -1.125,1.1563 0,0.6416 -0.27176,0.8846 -0.625,0.5312 -0.35338,-0.3534 -0.0684,-1.3457 0.65625,-2.2187 0.60091,-0.7241 0.95033,-1.0934 1.25,-1.0938 z m 71.39844,0.1094 c 0.40051,0.027 0.9961,0.183 1.78906,0.4844 1.35553,0.5153 2.68737,0.5801 2.96875,0.125 0.2812,-0.4552 1.69947,-0.5909 3.15625,-0.3125 2.28431,0.4367 2.41235,0.6121 0.9375,1.4375 -2.63278,1.4733 -6.05152,1.5835 -7.875,0.25 -1.52156,-1.1126 -1.9128,-1.8423 -1.3125,-1.9688 0.0901,-0.019 0.20244,-0.025 0.33594,-0.016 z m -124.21094,1.5469 c -0.2759,0 -0.46875,0.328 -0.46875,0.9687 0,0.55 0.48004,1 1.0625,1 0.58247,0 0.7774,-0.45 0.4375,-1 -0.39598,-0.6407 -0.75523,-0.9687 -1.03125,-0.9687 z m 42.9375,0.3125 c 0.25172,0.03 0.61319,0.252 1.0625,0.625 0.80092,0.6646 1.90142,0.925 2.4375,0.5937 0.53609,-0.3314 1.24831,-0.1527 1.59375,0.4063 0.34545,0.559 -0.19238,0.9809 -1.1875,0.9375 -2.63614,-0.1149 -4.3125,-0.9389 -4.3125,-2.125 0,-0.3205 0.15458,-0.4668 0.40625,-0.4375 z m 72.84375,14.1875 c 0.27024,0.015 0.73436,0.2971 1.25,0.8125 2.13291,2.1329 1.85792,3.3108 -0.75,3.2187 -1.58093,-0.056 -2.34464,0.5639 -2.5625,2.0938 -0.17045,1.1975 -1.04254,2.7726 -1.9375,3.5 -1.41078,1.1467 -1.53334,1.0882 -0.9375,-0.5 0.37799,-1.0075 0.6875,-2.9623 0.6875,-4.3438 0,-1.6708 0.66965,-2.6834 2,-3.0312 1.1,-0.2877 2,-0.9437 2,-1.4688 0,-0.1969 0.0879,-0.2911 0.25,-0.2812 z m -49.8125,24.0312 c 0.67541,-0.01 1.8645,0.1204 3.78125,0.3438 0.39315,0.046 1.22981,1.0403 1.84375,2.1875 0.61391,1.1471 0.96331,2.1911 0.78125,2.3437 -0.83304,0.6983 -5.47941,-1.647 -6.5,-3.2812 -0.73039,-1.1696 -1.03194,-1.5811 0.0937,-1.5938 z m -52.05859,1.5235 c 0.13343,0.049 0.37578,0.2652 0.74609,0.6328 0.68342,0.6783 0.99542,1.5046 0.6875,1.8125 -0.30803,0.308 -0.8745,-0.2638 -1.25,-1.25 -0.27137,-0.7126 -0.36553,-1.1032 -0.28125,-1.1875 0.0211,-0.021 0.0532,-0.024 0.0977,-0.01 z m -15.50391,4.914 c -1.25159,0 -1.06722,1.3701 0.34375,2.7813 1.60453,1.6045 1.67294,1.553 1.0625,-0.7813 -0.28762,-1.1 -0.92039,-2 -1.40625,-2 z"
       transform="matrix(0.26458333,0,0,0.26458333,-173.23051,-113.12398)"
       id="path4684" />
  </g>
</svg>
