<?xml version="1.0" encoding="UTF-8" standalone="no"?>
<!-- Created with Inkscape (http://www.inkscape.org/) -->

<svg
   width="328.5174mm"
   height="7.1106701mm"
   viewBox="0 0 328.5174 7.11067"
   version="1.1"
   id="svg8"
   xmlns="http://www.w3.org/2000/svg"
   xmlns:svg="http://www.w3.org/2000/svg"
   xmlns:rdf="http://www.w3.org/1999/02/22-rdf-syntax-ns#"
   xmlns:cc="http://creativecommons.org/ns#"
   xmlns:dc="http://purl.org/dc/elements/1.1/">
  <defs
     id="defs2" />
  <metadata
     id="metadata5">
    <rdf:RDF>
      <cc:Work
         rdf:about="">
        <dc:format>image/svg+xml</dc:format>
        <dc:type
           rdf:resource="http://purl.org/dc/dcmitype/StillImage" />
      </cc:Work>
    </rdf:RDF>
  </metadata>
  <g
     id="layer1"
     transform="translate(123.42951,-217.11594)"
     style="display:inline">
    <g
       aria-label="* O propósito então não foi para todos e Deus precisava do pecado para salvar os escolhidos"
       style="font-style:normal;font-weight:normal;font-size:7.05556px;line-height:1.25;font-family:sans-serif;letter-spacing:0px;word-spacing:0px;fill:#aa0000;fill-opacity:1;stroke:none;stroke-width:0.264583"
       id="text6281">
      <path
         d="m -120.32204,218.46297 -1.23679,0.66835 1.23679,0.67179 -0.19981,0.33762 -1.15755,-0.69935 v 1.2988 h -0.39275 v -1.2988 l -1.15755,0.69935 -0.19981,-0.33762 1.23679,-0.67179 -1.23679,-0.66835 0.19981,-0.34107 1.15755,0.69936 v -1.2988 h 0.39275 v 1.2988 l 1.15755,-0.69936 z"
         style="font-size:7.05556px;fill:#aa0000;fill-opacity:1;stroke-width:0.264583"
         id="path6601" />
      <path
         d="m -115.08549,218.08745 q -0.75792,0 -1.20578,0.565 -0.44442,0.56499 -0.44442,1.53996 0,0.97151 0.44442,1.53651 0.44786,0.56499 1.20578,0.56499 0.75792,0 1.19889,-0.56499 0.44442,-0.565 0.44442,-1.53651 0,-0.97497 -0.44442,-1.53996 -0.44097,-0.565 -1.19889,-0.565 z m 0,-0.56499 q 1.08176,0 1.72944,0.72691 0.64767,0.72347 0.64767,1.94304 0,1.21612 -0.64767,1.94303 -0.64768,0.72347 -1.72944,0.72347 -1.08521,0 -1.73633,-0.72347 -0.64768,-0.72347 -0.64768,-1.94303 0,-1.21957 0.64768,-1.94304 0.65112,-0.72691 1.73633,-0.72691 z"
         style="font-size:7.05556px;fill:#aa0000;fill-opacity:1;stroke-width:0.264583"
         id="path6603" />
      <path
         d="m -108.78786,222.18023 v 2.04638 h -0.63734 v -5.32611 h 0.63734 v 0.58566 q 0.19982,-0.34451 0.50299,-0.50987 0.30661,-0.16881 0.73036,-0.16881 0.7028,0 1.14032,0.5581 0.44098,0.55811 0.44098,1.46761 0,0.90951 -0.44098,1.46761 -0.43752,0.55811 -1.14032,0.55811 -0.42375,0 -0.73036,-0.16536 -0.30317,-0.16881 -0.50299,-0.51332 z m 2.15663,-1.34704 q 0,-0.69935 -0.28939,-1.09554 -0.28594,-0.39963 -0.78892,-0.39963 -0.50299,0 -0.79237,0.39963 -0.28595,0.39619 -0.28595,1.09554 0,0.69936 0.28595,1.09899 0.28938,0.39619 0.79237,0.39619 0.50298,0 0.78892,-0.39619 0.28939,-0.39963 0.28939,-1.09899 z"
         style="font-size:7.05556px;fill:#aa0000;fill-opacity:1;stroke-width:0.264583"
         id="path6605" />
      <path
         d="m -102.68659,219.49305 q -0.1068,-0.062 -0.23427,-0.0896 -0.12402,-0.031 -0.27561,-0.031 -0.53743,0 -0.82682,0.3514 -0.28594,0.34796 -0.28594,1.00253 v 2.0326 h -0.63735 v -3.8585 h 0.63735 v 0.59944 q 0.19981,-0.3514 0.52021,-0.52021 0.32039,-0.17225 0.77859,-0.17225 0.0654,0 0.14469,0.0103 0.0792,0.007 0.1757,0.0241 z"
         style="font-size:7.05556px;fill:#aa0000;fill-opacity:1;stroke-width:0.264583"
         id="path6607" />
      <path
         d="m -100.67121,219.34491 q -0.50988,0 -0.80615,0.39963 -0.29628,0.39619 -0.29628,1.08865 0,0.69247 0.29283,1.0921 0.29628,0.39619 0.8096,0.39619 0.50643,0 0.802705,-0.39964 0.296278,-0.39963 0.296278,-1.08865 0,-0.68557 -0.296278,-1.0852 -0.296275,-0.40308 -0.802705,-0.40308 z m 0,-0.53743 q 0.82682,0 1.298798,0.53743 0.471978,0.53744 0.471978,1.48828 0,0.94741 -0.471978,1.48829 -0.471978,0.53743 -1.298798,0.53743 -0.83027,0 -1.30225,-0.53743 -0.46853,-0.54088 -0.46853,-1.48829 0,-0.95084 0.46853,-1.48828 0.47198,-0.53743 1.30225,-0.53743 z"
         style="font-size:7.05556px;fill:#aa0000;fill-opacity:1;stroke-width:0.264583"
         id="path6609" />
      <path
         d="m -97.239898,222.18023 v 2.04638 h -0.637343 v -5.32611 h 0.637343 v 0.58566 q 0.199816,-0.34451 0.502984,-0.50987 0.306614,-0.16881 0.73036,-0.16881 0.7028,0 1.140327,0.5581 0.440972,0.55811 0.440972,1.46761 0,0.90951 -0.440972,1.46761 -0.437527,0.55811 -1.140327,0.55811 -0.423746,0 -0.73036,-0.16536 -0.303168,-0.16881 -0.502984,-0.51332 z m 2.15663,-1.34704 q 0,-0.69935 -0.289388,-1.09554 -0.285943,-0.39963 -0.788927,-0.39963 -0.502984,0 -0.792372,0.39963 -0.285943,0.39619 -0.285943,1.09554 0,0.69936 0.285943,1.09899 0.289388,0.39619 0.792372,0.39619 0.502984,0 0.788927,-0.39619 0.289388,-0.39963 0.289388,-1.09899 z"
         style="font-size:7.05556px;fill:#aa0000;fill-opacity:1;stroke-width:0.264583"
         id="path6611" />
      <path
         d="m -91.879329,219.34491 q -0.509874,0 -0.806152,0.39963 -0.296279,0.39619 -0.296279,1.08865 0,0.69247 0.292833,1.0921 0.296279,0.39619 0.809598,0.39619 0.506429,0 0.802707,-0.39964 0.296278,-0.39963 0.296278,-1.08865 0,-0.68557 -0.296278,-1.0852 -0.296278,-0.40308 -0.802707,-0.40308 z m 0,-0.53743 q 0.826823,0 1.298801,0.53743 0.471978,0.53744 0.471978,1.48828 0,0.94741 -0.471978,1.48829 -0.471978,0.53743 -1.298801,0.53743 -0.830268,0 -1.302246,-0.53743 -0.468533,-0.54088 -0.468533,-1.48829 0,-0.95084 0.468533,-1.48828 0.471978,-0.53743 1.302246,-0.53743 z m 0.478868,-1.69154 h 0.685574 l -1.123101,1.29535 h -0.5271 z"
         style="font-size:7.05556px;fill:#aa0000;fill-opacity:1;stroke-width:0.264583"
         id="path6613" />
      <path
         d="m -86.601441,219.01418 v 0.59945 q -0.268718,-0.1378 -0.558106,-0.20671 -0.289388,-0.0689 -0.599446,-0.0689 -0.471978,0 -0.70969,0.1447 -0.234267,0.14469 -0.234267,0.43408 0,0.22049 0.16881,0.34795 0.16881,0.12403 0.678684,0.23772 l 0.217041,0.0482 q 0.675239,0.14469 0.957736,0.40996 0.285943,0.26183 0.285943,0.73381 0,0.53743 -0.427191,0.85094 -0.423747,0.3135 -1.167888,0.3135 -0.310058,0 -0.647678,-0.062 -0.334174,-0.0586 -0.706244,-0.17915 v -0.65456 q 0.351399,0.18259 0.692464,0.2756 0.341064,0.0896 0.675239,0.0896 0.447862,0 0.689019,-0.15159 0.241156,-0.15503 0.241156,-0.43408 0,-0.25838 -0.1757,-0.39619 -0.172254,-0.1378 -0.761366,-0.26527 l -0.220486,-0.0517 q -0.589111,-0.12402 -0.850938,-0.37896 -0.261828,-0.25838 -0.261828,-0.70624 0,-0.54433 0.385851,-0.8406 0.385851,-0.29628 1.09554,-0.29628 0.3514,0 0.661459,0.0517 0.310058,0.0517 0.571886,0.15503 z"
         style="font-size:7.05556px;fill:#aa0000;fill-opacity:1;stroke-width:0.264583"
         id="path6615" />
      <path
         d="m -85.38188,218.9005 h 0.633898 v 3.8585 h -0.633898 z m 0,-1.50207 h 0.633898 v 0.80271 h -0.633898 z"
         style="font-size:7.05556px;fill:#aa0000;fill-opacity:1;stroke-width:0.264583"
         id="path6617" />
      <path
         d="m -82.798059,217.80496 v 1.09554 h 1.305691 v 0.49264 h -1.305691 v 2.09462 q 0,0.47198 0.127469,0.60634 0.130913,0.13436 0.527099,0.13436 h 0.651123 v 0.53054 h -0.651123 q -0.733805,0 -1.012858,-0.27216 -0.279053,-0.27561 -0.279053,-0.99908 v -2.09462 h -0.465087 v -0.49264 h 0.465087 v -1.09554 z"
         style="font-size:7.05556px;fill:#aa0000;fill-opacity:1;stroke-width:0.264583"
         id="path6619" />
      <path
         d="m -79.160036,219.34491 q -0.509874,0 -0.806152,0.39963 -0.296278,0.39619 -0.296278,1.08865 0,0.69247 0.292833,1.0921 0.296278,0.39619 0.809597,0.39619 0.50643,0 0.802708,-0.39964 0.296278,-0.39963 0.296278,-1.08865 0,-0.68557 -0.296278,-1.0852 -0.296278,-0.40308 -0.802708,-0.40308 z m 0,-0.53743 q 0.826823,0 1.298801,0.53743 0.471979,0.53744 0.471979,1.48828 0,0.94741 -0.471979,1.48829 -0.471978,0.53743 -1.298801,0.53743 -0.830268,0 -1.302246,-0.53743 -0.468533,-0.54088 -0.468533,-1.48829 0,-0.95084 0.468533,-1.48828 0.471978,-0.53743 1.302246,-0.53743 z"
         style="font-size:7.05556px;fill:#aa0000;fill-opacity:1;stroke-width:0.264583"
         id="path6621" />
      <path
         d="m -70.795346,220.67127 v 0.31006 h -2.914551 q 0.04134,0.65457 0.392741,0.99908 0.354845,0.34107 0.985298,0.34107 0.36518,0 0.706244,-0.0896 0.34451,-0.0896 0.682129,-0.26871 v 0.59944 q -0.341064,0.1447 -0.699354,0.22049 -0.35829,0.0758 -0.726915,0.0758 -0.923286,0 -1.464166,-0.53743 -0.537435,-0.53744 -0.537435,-1.45383 0,-0.94741 0.509874,-1.50207 0.513319,-0.5581 1.381484,-0.5581 0.778591,0 1.229899,0.50298 0.454752,0.49954 0.454752,1.36081 z m -0.633897,-0.18603 q -0.0069,-0.52021 -0.292834,-0.83027 -0.282497,-0.31006 -0.75103,-0.31006 -0.530545,0 -0.850939,0.29973 -0.316949,0.29972 -0.36518,0.84404 z"
         style="font-size:7.05556px;fill:#aa0000;fill-opacity:1;stroke-width:0.264583"
         id="path6623" />
      <path
         d="m -66.547543,220.43012 v 2.32888 h -0.633898 v -2.30821 q 0,-0.54777 -0.213596,-0.81993 -0.213595,-0.27217 -0.640787,-0.27217 -0.51332,0 -0.809598,0.32729 -0.296278,0.32728 -0.296278,0.89228 v 2.18074 h -0.637343 v -3.8585 h 0.637343 v 0.59944 q 0.227376,-0.34795 0.53399,-0.52021 0.310058,-0.17225 0.713135,-0.17225 0.664903,0 1.005967,0.41341 0.341065,0.40997 0.341065,1.20923 z"
         style="font-size:7.05556px;fill:#aa0000;fill-opacity:1;stroke-width:0.264583"
         id="path6625" />
      <path
         d="m -64.649293,217.80496 v 1.09554 h 1.305691 v 0.49264 h -1.305691 v 2.09462 q 0,0.47198 0.127468,0.60634 0.130914,0.13436 0.5271,0.13436 h 0.651123 v 0.53054 h -0.651123 q -0.733805,0 -1.012858,-0.27216 -0.279053,-0.27561 -0.279053,-0.99908 v -2.09462 h -0.465088 v -0.49264 h 0.465088 v -1.09554 z"
         style="font-size:7.05556px;fill:#aa0000;fill-opacity:1;stroke-width:0.264583"
         id="path6627" />
      <path
         d="m -60.752892,220.81941 q -0.768256,0 -1.064534,0.1757 -0.296278,0.1757 -0.296278,0.59945 0,0.33762 0.220486,0.53744 0.223931,0.19637 0.606337,0.19637 0.527099,0 0.844048,-0.37207 0.320394,-0.37552 0.320394,-0.99564 v -0.14125 z m 1.26435,-0.26182 v 2.20141 h -0.633897 v -0.58566 q -0.217041,0.3514 -0.54088,0.52021 -0.323839,0.16536 -0.792372,0.16536 -0.592556,0 -0.943956,-0.33073 -0.347955,-0.33417 -0.347955,-0.89228 0,-0.65112 0.434082,-0.98185 0.437527,-0.33073 1.302246,-0.33073 h 0.888835 v -0.062 q 0,-0.43753 -0.289388,-0.67524 -0.285943,-0.24116 -0.806152,-0.24116 -0.33073,0 -0.644233,0.0792 -0.313504,0.0792 -0.602892,0.23771 v -0.58566 q 0.347955,-0.13436 0.675239,-0.19982 0.327284,-0.0689 0.637342,-0.0689 0.837159,0 1.25057,0.43408 0.413411,0.43408 0.413411,1.31603 z m -1.6502,-2.51837 -0.196371,-0.18948 q -0.07579,-0.0689 -0.134358,-0.0999 -0.05512,-0.0344 -0.09991,-0.0344 -0.130914,0 -0.192926,0.12747 -0.06201,0.12403 -0.0689,0.40652 h -0.430637 q 0.0069,-0.46509 0.18259,-0.71658 0.1757,-0.25493 0.489203,-0.25493 0.130914,0 0.241157,0.0482 0.110243,0.0482 0.237711,0.16192 l 0.196371,0.18948 q 0.07579,0.0689 0.130914,0.10335 0.05857,0.031 0.103352,0.031 0.130914,0 0.192926,-0.12403 0.06201,-0.12747 0.0689,-0.40996 h 0.430637 q -0.0069,0.46508 -0.18259,0.72002 -0.1757,0.25149 -0.489204,0.25149 -0.130914,0 -0.241157,-0.0482 -0.110243,-0.0482 -0.237711,-0.16192 z"
         style="font-size:7.05556px;fill:#aa0000;fill-opacity:1;stroke-width:0.264583"
         id="path6629" />
      <path
         d="m -56.684232,219.34491 q -0.509874,0 -0.806152,0.39963 -0.296279,0.39619 -0.296279,1.08865 0,0.69247 0.292833,1.0921 0.296279,0.39619 0.809598,0.39619 0.506429,0 0.802707,-0.39964 0.296278,-0.39963 0.296278,-1.08865 0,-0.68557 -0.296278,-1.0852 -0.296278,-0.40308 -0.802707,-0.40308 z m 0,-0.53743 q 0.826823,0 1.298801,0.53743 0.471978,0.53744 0.471978,1.48828 0,0.94741 -0.471978,1.48829 -0.471978,0.53743 -1.298801,0.53743 -0.830268,0 -1.302246,-0.53743 -0.468533,-0.54088 -0.468533,-1.48829 0,-0.95084 0.468533,-1.48828 0.471978,-0.53743 1.302246,-0.53743 z"
         style="font-size:7.05556px;fill:#aa0000;fill-opacity:1;stroke-width:0.264583"
         id="path6631" />
      <path
         d="m -48.412564,220.43012 v 2.32888 h -0.633897 v -2.30821 q 0,-0.54777 -0.213596,-0.81993 -0.213596,-0.27217 -0.640788,-0.27217 -0.513319,0 -0.809597,0.32729 -0.296279,0.32728 -0.296279,0.89228 v 2.18074 h -0.637342 v -3.8585 h 0.637342 v 0.59944 q 0.227377,-0.34795 0.53399,-0.52021 0.310059,-0.17225 0.713135,-0.17225 0.664903,0 1.005968,0.41341 0.341064,0.40997 0.341064,1.20923 z"
         style="font-size:7.05556px;fill:#aa0000;fill-opacity:1;stroke-width:0.264583"
         id="path6633" />
      <path
         d="m -45.387764,220.81941 q -0.768256,0 -1.064535,0.1757 -0.296278,0.1757 -0.296278,0.59945 0,0.33762 0.220486,0.53744 0.223932,0.19637 0.606337,0.19637 0.5271,0 0.844049,-0.37207 0.320393,-0.37552 0.320393,-0.99564 v -0.14125 z m 1.26435,-0.26182 v 2.20141 h -0.633898 v -0.58566 q -0.217041,0.3514 -0.54088,0.52021 -0.323839,0.16536 -0.792372,0.16536 -0.592556,0 -0.943956,-0.33073 -0.347954,-0.33417 -0.347954,-0.89228 0,-0.65112 0.434082,-0.98185 0.437527,-0.33073 1.302246,-0.33073 h 0.888834 v -0.062 q 0,-0.43753 -0.289388,-0.67524 -0.285943,-0.24116 -0.806152,-0.24116 -0.330729,0 -0.644233,0.0792 -0.313503,0.0792 -0.602891,0.23771 v -0.58566 q 0.347954,-0.13436 0.675238,-0.19982 0.327284,-0.0689 0.637343,-0.0689 0.837158,0 1.25057,0.43408 0.413411,0.43408 0.413411,1.31603 z m -1.650201,-2.51837 -0.19637,-0.18948 q -0.07579,-0.0689 -0.134359,-0.0999 -0.05512,-0.0344 -0.09991,-0.0344 -0.130913,0 -0.192925,0.12747 -0.06201,0.12403 -0.0689,0.40652 h -0.430637 q 0.0069,-0.46509 0.18259,-0.71658 0.1757,-0.25493 0.489204,-0.25493 0.130913,0 0.241156,0.0482 0.110244,0.0482 0.237712,0.16192 l 0.19637,0.18948 q 0.07579,0.0689 0.130914,0.10335 0.05857,0.031 0.103353,0.031 0.130914,0 0.192925,-0.12403 0.06201,-0.12747 0.0689,-0.40996 h 0.430637 q -0.0069,0.46508 -0.18259,0.72002 -0.1757,0.25149 -0.489203,0.25149 -0.130914,0 -0.241157,-0.0482 -0.110243,-0.0482 -0.237712,-0.16192 z"
         style="font-size:7.05556px;fill:#aa0000;fill-opacity:1;stroke-width:0.264583"
         id="path6635" />
      <path
         d="m -41.319112,219.34491 q -0.509874,0 -0.806153,0.39963 -0.296278,0.39619 -0.296278,1.08865 0,0.69247 0.292833,1.0921 0.296279,0.39619 0.809598,0.39619 0.506429,0 0.802707,-0.39964 0.296278,-0.39963 0.296278,-1.08865 0,-0.68557 -0.296278,-1.0852 -0.296278,-0.40308 -0.802707,-0.40308 z m 0,-0.53743 q 0.826823,0 1.298801,0.53743 0.471978,0.53744 0.471978,1.48828 0,0.94741 -0.471978,1.48829 -0.471978,0.53743 -1.298801,0.53743 -0.830268,0 -1.302246,-0.53743 -0.468533,-0.54088 -0.468533,-1.48829 0,-0.95084 0.468533,-1.48828 0.471978,-0.53743 1.302246,-0.53743 z"
         style="font-size:7.05556px;fill:#aa0000;fill-opacity:1;stroke-width:0.264583"
         id="path6637" />
      <path
         d="m -34.301451,217.39843 v 0.5271 h -0.606337 q -0.341064,0 -0.475423,0.13781 -0.130914,0.1378 -0.130914,0.49609 v 0.34107 h 1.043864 v 0.49264 h -1.043864 v 3.36586 h -0.637342 v -3.36586 h -0.606337 v -0.49264 h 0.606337 v -0.26872 q 0,-0.64423 0.299723,-0.93707 0.299723,-0.29628 0.950846,-0.29628 z"
         style="font-size:7.05556px;fill:#aa0000;fill-opacity:1;stroke-width:0.264583"
         id="path6639" />
      <path
         d="m -32.27918,219.34491 q -0.509874,0 -0.806152,0.39963 -0.296278,0.39619 -0.296278,1.08865 0,0.69247 0.292833,1.0921 0.296278,0.39619 0.809597,0.39619 0.506429,0 0.802707,-0.39964 0.296278,-0.39963 0.296278,-1.08865 0,-0.68557 -0.296278,-1.0852 -0.296278,-0.40308 -0.802707,-0.40308 z m 0,-0.53743 q 0.826823,0 1.298801,0.53743 0.471978,0.53744 0.471978,1.48828 0,0.94741 -0.471978,1.48829 -0.471978,0.53743 -1.298801,0.53743 -0.830268,0 -1.302246,-0.53743 -0.468533,-0.54088 -0.468533,-1.48829 0,-0.95084 0.468533,-1.48828 0.471978,-0.53743 1.302246,-0.53743 z"
         style="font-size:7.05556px;fill:#aa0000;fill-opacity:1;stroke-width:0.264583"
         id="path6641" />
      <path
         d="m -29.461088,218.9005 h 0.633897 v 3.8585 h -0.633897 z m 0,-1.50207 h 0.633897 v 0.80271 h -0.633897 z"
         style="font-size:7.05556px;fill:#aa0000;fill-opacity:1;stroke-width:0.264583"
         id="path6643" />
      <path
         d="m -24.644843,222.18023 v 2.04638 h -0.637343 v -5.32611 h 0.637343 v 0.58566 q 0.199815,-0.34451 0.502984,-0.50987 0.306613,-0.16881 0.73036,-0.16881 0.702799,0 1.140326,0.5581 0.440973,0.55811 0.440973,1.46761 0,0.90951 -0.440973,1.46761 -0.437527,0.55811 -1.140326,0.55811 -0.423747,0 -0.73036,-0.16536 -0.303169,-0.16881 -0.502984,-0.51332 z m 2.156629,-1.34704 q 0,-0.69935 -0.289388,-1.09554 -0.285942,-0.39963 -0.788926,-0.39963 -0.502984,0 -0.792372,0.39963 -0.285943,0.39619 -0.285943,1.09554 0,0.69936 0.285943,1.09899 0.289388,0.39619 0.792372,0.39619 0.502984,0 0.788926,-0.39619 0.289388,-0.39963 0.289388,-1.09899 z"
         style="font-size:7.05556px;fill:#aa0000;fill-opacity:1;stroke-width:0.264583"
         id="path6645" />
      <path
         d="m -19.025894,220.81941 q -0.768257,0 -1.064535,0.1757 -0.296278,0.1757 -0.296278,0.59945 0,0.33762 0.220486,0.53744 0.223931,0.19637 0.606337,0.19637 0.5271,0 0.844048,-0.37207 0.320394,-0.37552 0.320394,-0.99564 v -0.14125 z m 1.26435,-0.26182 v 2.20141 h -0.633898 v -0.58566 q -0.217041,0.3514 -0.54088,0.52021 -0.323839,0.16536 -0.792372,0.16536 -0.592556,0 -0.943956,-0.33073 -0.347954,-0.33417 -0.347954,-0.89228 0,-0.65112 0.434082,-0.98185 0.437527,-0.33073 1.302246,-0.33073 h 0.888834 v -0.062 q 0,-0.43753 -0.289388,-0.67524 -0.285943,-0.24116 -0.806152,-0.24116 -0.330729,0 -0.644233,0.0792 -0.313504,0.0792 -0.602892,0.23771 v -0.58566 q 0.347955,-0.13436 0.675239,-0.19982 0.327284,-0.0689 0.637343,-0.0689 0.837158,0 1.250569,0.43408 0.413412,0.43408 0.413412,1.31603 z"
         style="font-size:7.05556px;fill:#aa0000;fill-opacity:1;stroke-width:0.264583"
         id="path6647" />
      <path
         d="m -14.216547,219.49305 q -0.106798,-0.062 -0.234266,-0.0896 -0.124024,-0.031 -0.275608,-0.031 -0.537435,0 -0.826823,0.3514 -0.285943,0.34796 -0.285943,1.00253 v 2.0326 h -0.637342 v -3.8585 h 0.637342 v 0.59944 q 0.199816,-0.3514 0.52021,-0.52021 0.320393,-0.17225 0.778591,-0.17225 0.06546,0 0.144694,0.0103 0.07924,0.007 0.1757,0.0241 z"
         style="font-size:7.05556px;fill:#aa0000;fill-opacity:1;stroke-width:0.264583"
         id="path6649" />
      <path
         d="m -11.791199,220.81941 q -0.768256,0 -1.064534,0.1757 -0.296278,0.1757 -0.296278,0.59945 0,0.33762 0.220486,0.53744 0.223931,0.19637 0.606336,0.19637 0.5271,0 0.844049,-0.37207 0.320394,-0.37552 0.320394,-0.99564 v -0.14125 z m 1.26435,-0.26182 v 2.20141 h -0.633897 v -0.58566 q -0.217041,0.3514 -0.54088,0.52021 -0.323839,0.16536 -0.792372,0.16536 -0.592557,0 -0.943956,-0.33073 -0.347955,-0.33417 -0.347955,-0.89228 0,-0.65112 0.434082,-0.98185 0.437527,-0.33073 1.302246,-0.33073 h 0.888835 v -0.062 q 0,-0.43753 -0.289388,-0.67524 -0.285943,-0.24116 -0.806153,-0.24116 -0.330729,0 -0.644233,0.0792 -0.313503,0.0792 -0.602891,0.23771 v -0.58566 q 0.347954,-0.13436 0.675238,-0.19982 0.327285,-0.0689 0.637343,-0.0689 0.837158,0 1.25057,0.43408 0.413411,0.43408 0.413411,1.31603 z"
         style="font-size:7.05556px;fill:#aa0000;fill-opacity:1;stroke-width:0.264583"
         id="path6651" />
      <path
         d="m -6.3445028,217.80496 v 1.09554 h 1.3056911 v 0.49264 h -1.3056911 v 2.09462 q 0,0.47198 0.1274685,0.60634 0.1309136,0.13436 0.5270996,0.13436 h 0.651123 v 0.53054 h -0.651123 q -0.7338053,0 -1.012858,-0.27216 -0.2790528,-0.27561 -0.2790528,-0.99908 v -2.09462 h -0.4650878 v -0.49264 h 0.4650878 v -1.09554 z"
         style="font-size:7.05556px;fill:#aa0000;fill-opacity:1;stroke-width:0.264583"
         id="path6653" />
      <path
         d="m -2.7064795,219.34491 q -0.5098741,0 -0.8061523,0.39963 -0.2962782,0.39619 -0.2962782,1.08865 0,0.69247 0.2928331,1.0921 0.2962782,0.39619 0.8095974,0.39619 0.5064291,0 0.8027073,-0.39964 0.2962782,-0.39963 0.2962782,-1.08865 0,-0.68557 -0.2962782,-1.0852 -0.2962782,-0.40308 -0.8027073,-0.40308 z m 0,-0.53743 q 0.8268229,0 1.298801,0.53743 0.47197807,0.53744 0.47197807,1.48828 0,0.94741 -0.47197807,1.48829 -0.4719781,0.53743 -1.298801,0.53743 -0.8302679,0 -1.302246,-0.53743 -0.468533,-0.54088 -0.468533,-1.48829 0,-0.95084 0.468533,-1.48828 0.4719781,-0.53743 1.302246,-0.53743 z"
         style="font-size:7.05556px;fill:#aa0000;fill-opacity:1;stroke-width:0.264583"
         id="path6655" />
      <path
         d="m 2.6506474,219.48616 v -2.08773 H 3.2845449 V 222.759 H 2.6506474 v -0.57877 q -0.1998155,0.34451 -0.506429,0.51332 -0.3031684,0.16536 -0.7303603,0.16536 -0.69935432,0 -1.14032653,-0.55811 -0.43752711,-0.5581 -0.43752711,-1.46761 0,-0.9095 0.43752711,-1.46761 0.44097221,-0.5581 1.14032653,-0.5581 0.4271919,0 0.7303603,0.16881 0.3066135,0.16536 0.506429,0.50987 z m -2.16007482,1.34703 q 0,0.69936 0.28594292,1.09899 0.289388,0.39619 0.7923719,0.39619 0.502984,0 0.792372,-0.39619 0.289388,-0.39963 0.289388,-1.09899 0,-0.69935 -0.289388,-1.09554 -0.289388,-0.39963 -0.792372,-0.39963 -0.5029839,0 -0.7923719,0.39963 -0.28594292,0.39619 -0.28594292,1.09554 z"
         style="font-size:7.05556px;fill:#aa0000;fill-opacity:1;stroke-width:0.264583"
         id="path6657" />
      <path
         d="m 6.0854059,219.34491 q -0.5098741,0 -0.8061523,0.39963 -0.2962782,0.39619 -0.2962782,1.08865 0,0.69247 0.2928331,1.0921 0.2962782,0.39619 0.8095974,0.39619 0.506429,0 0.8027072,-0.39964 0.2962782,-0.39963 0.2962782,-1.08865 0,-0.68557 -0.2962782,-1.0852 -0.2962782,-0.40308 -0.8027072,-0.40308 z m 0,-0.53743 q 0.8268229,0 1.298801,0.53743 0.471978,0.53744 0.471978,1.48828 0,0.94741 -0.471978,1.48829 -0.4719781,0.53743 -1.298801,0.53743 -0.830268,0 -1.302246,-0.53743 -0.468533,-0.54088 -0.468533,-1.48829 0,-0.95084 0.468533,-1.48828 0.471978,-0.53743 1.302246,-0.53743 z"
         style="font-size:7.05556px;fill:#aa0000;fill-opacity:1;stroke-width:0.264583"
         id="path6659" />
      <path
         d="m 11.363288,219.01418 v 0.59945 q -0.268718,-0.1378 -0.558106,-0.20671 -0.289388,-0.0689 -0.599446,-0.0689 -0.4719782,0 -0.7096898,0.1447 -0.2342664,0.14469 -0.2342664,0.43408 0,0.22049 0.1688096,0.34795 0.1688097,0.12403 0.6786836,0.23772 l 0.217041,0.0482 q 0.675239,0.14469 0.957737,0.40996 0.285943,0.26183 0.285943,0.73381 0,0.53743 -0.427192,0.85094 -0.423747,0.3135 -1.1678875,0.3135 -0.3100586,0 -0.6476779,-0.062 -0.3341743,-0.0586 -0.7062446,-0.17915 v -0.65456 q 0.3513997,0.18259 0.6924642,0.2756 0.3410644,0.0896 0.6752387,0.0896 0.4478621,0 0.6890191,-0.15159 0.241157,-0.15503 0.241157,-0.43408 0,-0.25838 -0.1757,-0.39619 -0.172255,-0.1378 -0.7613663,-0.26527 l -0.2204861,-0.0517 q -0.5891113,-0.124 -0.8509386,-0.37894 -0.2618272,-0.25838 -0.2618272,-0.70624 0,-0.54433 0.3858507,-0.8406 0.3858506,-0.29628 1.0955405,-0.29628 0.3514,0 0.661458,0.0517 0.310059,0.0517 0.571886,0.15503 z"
         style="font-size:7.05556px;fill:#aa0000;fill-opacity:1;stroke-width:0.264583"
         id="path6661" />
      <path
         d="m 18.129459,220.67127 v 0.31006 h -2.914551 q 0.04134,0.65457 0.392741,0.99908 0.354845,0.34107 0.985297,0.34107 0.36518,0 0.706245,-0.0896 0.344509,-0.0896 0.682129,-0.26871 v 0.59944 q -0.341065,0.1447 -0.699355,0.22049 -0.35829,0.0758 -0.726915,0.0758 -0.923285,0 -1.464165,-0.53743 -0.537435,-0.53744 -0.537435,-1.45383 0,-0.94741 0.509874,-1.50207 0.513319,-0.5581 1.381483,-0.5581 0.778592,0 1.229899,0.50298 0.454753,0.49954 0.454753,1.36081 z m -0.633898,-0.18603 q -0.0069,-0.52021 -0.292833,-0.83027 -0.282498,-0.31006 -0.751031,-0.31006 -0.530544,0 -0.850938,0.29973 -0.316949,0.29972 -0.36518,0.84404 z"
         style="font-size:7.05556px;fill:#aa0000;fill-opacity:1;stroke-width:0.264583"
         id="path6663" />
      <path
         d="m 22.139548,218.18736 v 3.99976 h 0.840604 q 1.064534,0 1.557183,-0.48232 0.496093,-0.48231 0.496093,-1.52273 0,-1.03353 -0.496093,-1.5124 -0.492649,-0.48231 -1.557183,-0.48231 z m -0.695909,-0.57188 h 1.429715 q 1.495171,0 2.194525,0.62356 0.699355,0.62011 0.699355,1.94303 0,1.32981 -0.7028,1.95337 -0.702799,0.62356 -2.19108,0.62356 h -1.429715 z"
         style="font-size:7.05556px;fill:#aa0000;fill-opacity:1;stroke-width:0.264583"
         id="path6665" />
      <path
         d="m 30.145954,220.67127 v 0.31006 h -2.914551 q 0.04134,0.65457 0.392741,0.99908 0.354845,0.34107 0.985297,0.34107 0.36518,0 0.706245,-0.0896 0.344509,-0.0896 0.682128,-0.26871 v 0.59944 q -0.341064,0.1447 -0.699354,0.22049 -0.35829,0.0758 -0.726915,0.0758 -0.923286,0 -1.464166,-0.53743 -0.537434,-0.53744 -0.537434,-1.45383 0,-0.94741 0.509874,-1.50207 0.513319,-0.5581 1.381483,-0.5581 0.778592,0 1.229899,0.50298 0.454753,0.49954 0.454753,1.36081 z m -0.633898,-0.18603 q -0.0069,-0.52021 -0.292833,-0.83027 -0.282498,-0.31006 -0.751031,-0.31006 -0.530545,0 -0.850938,0.29973 -0.316949,0.29972 -0.365181,0.84404 z"
         style="font-size:7.05556px;fill:#aa0000;fill-opacity:1;stroke-width:0.264583"
         id="path6667" />
      <path
         d="m 31.120916,221.23627 v -2.33577 h 0.633897 v 2.31165 q 0,0.54778 0.213596,0.82338 0.213596,0.27217 0.640788,0.27217 0.513319,0 0.809597,-0.32729 0.299724,-0.32728 0.299724,-0.89228 v -2.18763 h 0.633897 v 3.8585 h -0.633897 v -0.59255 q -0.230822,0.3514 -0.537435,0.52365 -0.303169,0.16881 -0.706245,0.16881 -0.664903,0 -1.009413,-0.41341 -0.344509,-0.41341 -0.344509,-1.20923 z m 1.595079,-2.42879 z"
         style="font-size:7.05556px;fill:#aa0000;fill-opacity:1;stroke-width:0.264583"
         id="path6669" />
      <path
         d="m 38.124793,219.01418 v 0.59945 q -0.268717,-0.1378 -0.558105,-0.20671 -0.289388,-0.0689 -0.599447,-0.0689 -0.471978,0 -0.70969,0.1447 -0.234266,0.14469 -0.234266,0.43408 0,0.22049 0.16881,0.34795 0.168809,0.12403 0.678683,0.23772 l 0.217041,0.0482 q 0.675239,0.14469 0.957737,0.40996 0.285943,0.26183 0.285943,0.73381 0,0.53743 -0.427192,0.85094 -0.423747,0.3135 -1.167887,0.3135 -0.310059,0 -0.647678,-0.062 -0.334175,-0.0586 -0.706245,-0.17915 v -0.65456 q 0.3514,0.18259 0.692464,0.2756 0.341065,0.0896 0.675239,0.0896 0.447862,0 0.689019,-0.15159 0.241157,-0.15503 0.241157,-0.43408 0,-0.25838 -0.1757,-0.39619 -0.172255,-0.1378 -0.761366,-0.26527 l -0.220486,-0.0517 q -0.589112,-0.12402 -0.850939,-0.37896 -0.261827,-0.25838 -0.261827,-0.70624 0,-0.54433 0.385851,-0.8406 0.38585,-0.29628 1.09554,-0.29628 0.3514,0 0.661458,0.0517 0.310059,0.0517 0.571886,0.15503 z"
         style="font-size:7.05556px;fill:#aa0000;fill-opacity:1;stroke-width:0.264583"
         id="path6671" />
      <path
         d="m 42.20379,222.18023 v 2.04638 h -0.637343 v -5.32611 h 0.637343 v 0.58566 q 0.199815,-0.34451 0.502983,-0.50987 0.306614,-0.16881 0.730361,-0.16881 0.702799,0 1.140326,0.5581 0.440972,0.55811 0.440972,1.46761 0,0.90951 -0.440972,1.46761 -0.437527,0.55811 -1.140326,0.55811 -0.423747,0 -0.730361,-0.16536 -0.303168,-0.16881 -0.502983,-0.51332 z m 2.156629,-1.34704 q 0,-0.69935 -0.289388,-1.09554 -0.285943,-0.39963 -0.788927,-0.39963 -0.502984,0 -0.792372,0.39963 -0.285942,0.39619 -0.285942,1.09554 0,0.69936 0.285942,1.09899 0.289388,0.39619 0.792372,0.39619 0.502984,0 0.788927,-0.39619 0.289388,-0.39963 0.289388,-1.09899 z"
         style="font-size:7.05556px;fill:#aa0000;fill-opacity:1;stroke-width:0.264583"
         id="path6673" />
      <path
         d="m 48.305052,219.49305 q -0.106798,-0.062 -0.234267,-0.0896 -0.124023,-0.031 -0.275607,-0.031 -0.537435,0 -0.826823,0.3514 -0.285943,0.34796 -0.285943,1.00253 v 2.0326 h -0.637343 v -3.8585 h 0.637343 v 0.59944 q 0.199816,-0.3514 0.520209,-0.52021 0.320394,-0.17225 0.778592,-0.17225 0.06546,0 0.144694,0.0103 0.07924,0.007 0.1757,0.0241 z"
         style="font-size:7.05556px;fill:#aa0000;fill-opacity:1;stroke-width:0.264583"
         id="path6675" />
      <path
         d="m 52.125659,220.67127 v 0.31006 h -2.91455 q 0.04134,0.65457 0.392741,0.99908 0.354844,0.34107 0.985297,0.34107 0.36518,0 0.706244,-0.0896 0.34451,-0.0896 0.682129,-0.26871 v 0.59944 q -0.341064,0.1447 -0.699354,0.22049 -0.35829,0.0758 -0.726915,0.0758 -0.923286,0 -1.464166,-0.53743 -0.537435,-0.53744 -0.537435,-1.45383 0,-0.94741 0.509875,-1.50207 0.513319,-0.5581 1.381483,-0.5581 0.778591,0 1.229899,0.50298 0.454752,0.49954 0.454752,1.36081 z m -0.633897,-0.18603 q -0.0069,-0.52021 -0.292833,-0.83027 -0.282498,-0.31006 -0.751031,-0.31006 -0.530545,0 -0.850939,0.29973 -0.316948,0.29972 -0.36518,0.84404 z"
         style="font-size:7.05556px;fill:#aa0000;fill-opacity:1;stroke-width:0.264583"
         id="path6677" />
      <path
         d="m 55.942825,219.04863 v 0.59256 q -0.268717,-0.14814 -0.54088,-0.22048 -0.268717,-0.0758 -0.544325,-0.0758 -0.616672,0 -0.957736,0.39274 -0.341065,0.3893 -0.341065,1.09554 0,0.70625 0.341065,1.09899 0.341064,0.3893 0.957736,0.3893 0.275608,0 0.544325,-0.0724 0.272163,-0.0758 0.54088,-0.22393 v 0.58566 q -0.265272,0.12403 -0.551215,0.18604 -0.282498,0.062 -0.602892,0.062 -0.871609,0 -1.384928,-0.54777 -0.513319,-0.54777 -0.513319,-1.47795 0,-0.94395 0.516764,-1.48483 0.520209,-0.54088 1.422824,-0.54088 0.292834,0 0.571886,0.062 0.279053,0.0586 0.54088,0.17914 z"
         style="font-size:7.05556px;fill:#aa0000;fill-opacity:1;stroke-width:0.264583"
         id="path6679" />
      <path
         d="m 57.052141,218.9005 h 0.633898 v 3.8585 h -0.633898 z m 0,-1.50207 h 0.633898 v 0.80271 h -0.633898 z"
         style="font-size:7.05556px;fill:#aa0000;fill-opacity:1;stroke-width:0.264583"
         id="path6681" />
      <path
         d="m 61.468757,219.01418 v 0.59945 q -0.268718,-0.1378 -0.558106,-0.20671 -0.289388,-0.0689 -0.599446,-0.0689 -0.471978,0 -0.70969,0.1447 -0.234266,0.14469 -0.234266,0.43408 0,0.22049 0.168809,0.34795 0.16881,0.12403 0.678684,0.23772 l 0.217041,0.0482 q 0.675239,0.14469 0.957736,0.40996 0.285943,0.26183 0.285943,0.73381 0,0.53743 -0.427191,0.85094 -0.423747,0.3135 -1.167888,0.3135 -0.310058,0 -0.647678,-0.062 -0.334174,-0.0586 -0.706244,-0.17915 v -0.65456 q 0.351399,0.18259 0.692464,0.2756 0.341064,0.0896 0.675239,0.0896 0.447862,0 0.689019,-0.15159 0.241156,-0.15503 0.241156,-0.43408 0,-0.25838 -0.175699,-0.39619 -0.172255,-0.1378 -0.761367,-0.26527 l -0.220486,-0.0517 q -0.589111,-0.12402 -0.850938,-0.37896 -0.261827,-0.25838 -0.261827,-0.70624 0,-0.54433 0.38585,-0.8406 0.385851,-0.29628 1.095541,-0.29628 0.351399,0 0.661458,0.0517 0.310058,0.0517 0.571886,0.15503 z"
         style="font-size:7.05556px;fill:#aa0000;fill-opacity:1;stroke-width:0.264583"
         id="path6683" />
      <path
         d="m 64.441879,220.81941 q -0.768256,0 -1.064534,0.1757 -0.296278,0.1757 -0.296278,0.59945 0,0.33762 0.220486,0.53744 0.223931,0.19637 0.606336,0.19637 0.5271,0 0.844049,-0.37207 0.320394,-0.37552 0.320394,-0.99564 v -0.14125 z m 1.26435,-0.26182 v 2.20141 h -0.633897 v -0.58566 q -0.217041,0.3514 -0.54088,0.52021 -0.323839,0.16536 -0.792372,0.16536 -0.592557,0 -0.943956,-0.33073 -0.347955,-0.33417 -0.347955,-0.89228 0,-0.65112 0.434082,-0.98185 0.437527,-0.33073 1.302246,-0.33073 h 0.888835 v -0.062 q 0,-0.43753 -0.289388,-0.67524 -0.285943,-0.24116 -0.806153,-0.24116 -0.330729,0 -0.644233,0.0792 -0.313503,0.0792 -0.602891,0.23771 v -0.58566 q 0.347954,-0.13436 0.675238,-0.19982 0.327285,-0.0689 0.637343,-0.0689 0.837158,0 1.25057,0.43408 0.413411,0.43408 0.413411,1.31603 z"
         style="font-size:7.05556px;fill:#aa0000;fill-opacity:1;stroke-width:0.264583"
         id="path6685" />
      <path
         d="m 66.560615,218.9005 h 0.671793 l 1.205784,3.23839 1.205783,-3.23839 h 0.671794 l -1.44694,3.8585 h -0.861274 z"
         style="font-size:7.05556px;fill:#aa0000;fill-opacity:1;stroke-width:0.264583"
         id="path6687" />
      <path
         d="m 72.944366,220.81941 q -0.768256,0 -1.064534,0.1757 -0.296278,0.1757 -0.296278,0.59945 0,0.33762 0.220486,0.53744 0.223931,0.19637 0.606337,0.19637 0.527099,0 0.844048,-0.37207 0.320394,-0.37552 0.320394,-0.99564 v -0.14125 z m 1.26435,-0.26182 v 2.20141 h -0.633897 v -0.58566 q -0.217041,0.3514 -0.54088,0.52021 -0.323839,0.16536 -0.792372,0.16536 -0.592556,0 -0.943956,-0.33073 -0.347955,-0.33417 -0.347955,-0.89228 0,-0.65112 0.434082,-0.98185 0.437527,-0.33073 1.302246,-0.33073 h 0.888835 v -0.062 q 0,-0.43753 -0.289388,-0.67524 -0.285943,-0.24116 -0.806152,-0.24116 -0.33073,0 -0.644233,0.0792 -0.313504,0.0792 -0.602892,0.23771 v -0.58566 q 0.347955,-0.13436 0.675239,-0.19982 0.327284,-0.0689 0.637342,-0.0689 0.837158,0 1.25057,0.43408 0.413411,0.43408 0.413411,1.31603 z"
         style="font-size:7.05556px;fill:#aa0000;fill-opacity:1;stroke-width:0.264583"
         id="path6689" />
      <path
         d="m 80.30309,219.48616 v -2.08773 h 0.633898 V 222.759 H 80.30309 v -0.57877 q -0.199815,0.34451 -0.506429,0.51332 -0.303168,0.16536 -0.73036,0.16536 -0.699354,0 -1.140326,-0.55811 -0.437528,-0.5581 -0.437528,-1.46761 0,-0.9095 0.437528,-1.46761 0.440972,-0.5581 1.140326,-0.5581 0.427192,0 0.73036,0.16881 0.306614,0.16536 0.506429,0.50987 z m -2.160074,1.34703 q 0,0.69936 0.285942,1.09899 0.289388,0.39619 0.792372,0.39619 0.502984,0 0.792372,-0.39619 0.289388,-0.39963 0.289388,-1.09899 0,-0.69935 -0.289388,-1.09554 -0.289388,-0.39963 -0.792372,-0.39963 -0.502984,0 -0.792372,0.39963 -0.285942,0.39619 -0.285942,1.09554 z"
         style="font-size:7.05556px;fill:#aa0000;fill-opacity:1;stroke-width:0.264583"
         id="path6691" />
      <path
         d="m 83.737849,219.34491 q -0.509874,0 -0.806152,0.39963 -0.296279,0.39619 -0.296279,1.08865 0,0.69247 0.292833,1.0921 0.296279,0.39619 0.809598,0.39619 0.506429,0 0.802707,-0.39964 0.296278,-0.39963 0.296278,-1.08865 0,-0.68557 -0.296278,-1.0852 -0.296278,-0.40308 -0.802707,-0.40308 z m 0,-0.53743 q 0.826823,0 1.298801,0.53743 0.471978,0.53744 0.471978,1.48828 0,0.94741 -0.471978,1.48829 -0.471978,0.53743 -1.298801,0.53743 -0.830268,0 -1.302246,-0.53743 -0.468533,-0.54088 -0.468533,-1.48829 0,-0.95084 0.468533,-1.48828 0.471978,-0.53743 1.302246,-0.53743 z"
         style="font-size:7.05556px;fill:#aa0000;fill-opacity:1;stroke-width:0.264583"
         id="path6693" />
      <path
         d="m 89.415368,222.18023 v 2.04638 h -0.637343 v -5.32611 h 0.637343 v 0.58566 q 0.199815,-0.34451 0.502984,-0.50987 0.306613,-0.16881 0.73036,-0.16881 0.7028,0 1.140327,0.5581 0.440972,0.55811 0.440972,1.46761 0,0.90951 -0.440972,1.46761 -0.437527,0.55811 -1.140327,0.55811 -0.423747,0 -0.73036,-0.16536 -0.303169,-0.16881 -0.502984,-0.51332 z m 2.15663,-1.34704 q 0,-0.69935 -0.289388,-1.09554 -0.285943,-0.39963 -0.788927,-0.39963 -0.502984,0 -0.792372,0.39963 -0.285943,0.39619 -0.285943,1.09554 0,0.69936 0.285943,1.09899 0.289388,0.39619 0.792372,0.39619 0.502984,0 0.788927,-0.39619 0.289388,-0.39963 0.289388,-1.09899 z"
         style="font-size:7.05556px;fill:#aa0000;fill-opacity:1;stroke-width:0.264583"
         id="path6695" />
      <path
         d="m 96.581165,220.67127 v 0.31006 h -2.914551 q 0.04134,0.65457 0.392741,0.99908 0.354845,0.34107 0.985297,0.34107 0.36518,0 0.706245,-0.0896 0.344509,-0.0896 0.682129,-0.26871 v 0.59944 q -0.341065,0.1447 -0.699355,0.22049 -0.35829,0.0758 -0.726915,0.0758 -0.923285,0 -1.464165,-0.53743 -0.537435,-0.53744 -0.537435,-1.45383 0,-0.94741 0.509874,-1.50207 0.513319,-0.5581 1.381483,-0.5581 0.778592,0 1.229899,0.50298 0.454753,0.49954 0.454753,1.36081 z m -0.633898,-0.18603 q -0.0069,-0.52021 -0.292833,-0.83027 -0.282498,-0.31006 -0.751031,-0.31006 -0.530544,0 -0.850938,0.29973 -0.316949,0.29972 -0.36518,0.84404 z"
         style="font-size:7.05556px;fill:#aa0000;fill-opacity:1;stroke-width:0.264583"
         id="path6697" />
      <path
         d="m 100.39833,219.04863 v 0.59256 q -0.26872,-0.14814 -0.540879,-0.22048 -0.268718,-0.0758 -0.544325,-0.0758 -0.616673,0 -0.957737,0.39274 -0.341064,0.3893 -0.341064,1.09554 0,0.70625 0.341064,1.09899 0.341064,0.3893 0.957737,0.3893 0.275607,0 0.544325,-0.0724 0.272159,-0.0758 0.540879,-0.22393 v 0.58566 q -0.26527,0.12403 -0.551215,0.18604 -0.282497,0.062 -0.602891,0.062 -0.871609,0 -1.384929,-0.54777 -0.513319,-0.54777 -0.513319,-1.47795 0,-0.94395 0.516764,-1.48483 0.52021,-0.54088 1.422825,-0.54088 0.292833,0 0.571886,0.062 0.279049,0.0586 0.540879,0.17914 z"
         style="font-size:7.05556px;fill:#aa0000;fill-opacity:1;stroke-width:0.264583"
         id="path6699" />
      <path
         d="m 103.26122,220.81941 q -0.76826,0 -1.06454,0.1757 -0.29628,0.1757 -0.29628,0.59945 0,0.33762 0.22049,0.53744 0.22393,0.19637 0.60634,0.19637 0.52709,0 0.84404,-0.37207 0.3204,-0.37552 0.3204,-0.99564 v -0.14125 z m 1.26435,-0.26182 v 2.20141 h -0.6339 v -0.58566 q -0.21704,0.3514 -0.54088,0.52021 -0.32384,0.16536 -0.79237,0.16536 -0.59256,0 -0.94396,-0.33073 -0.34796,-0.33417 -0.34796,-0.89228 0,-0.65112 0.43409,-0.98185 0.43752,-0.33073 1.30224,-0.33073 h 0.88884 v -0.062 q 0,-0.43753 -0.28939,-0.67524 -0.28594,-0.24116 -0.80615,-0.24116 -0.33073,0 -0.64424,0.0792 -0.3135,0.0792 -0.60289,0.23771 v -0.58566 q 0.34796,-0.13436 0.67524,-0.19982 0.32729,-0.0689 0.63734,-0.0689 0.83716,0 1.25057,0.43408 0.41342,0.43408 0.41342,1.31603 z"
         style="font-size:7.05556px;fill:#aa0000;fill-opacity:1;stroke-width:0.264583"
         id="path6701" />
      <path
         d="m 108.37374,219.48616 v -2.08773 h 0.6339 v 5.36057 h -0.6339 v -0.57877 q -0.19982,0.34451 -0.50643,0.51332 -0.30317,0.16536 -0.73036,0.16536 -0.69936,0 -1.14033,-0.55811 -0.43752,-0.5581 -0.43752,-1.46761 0,-0.9095 0.43752,-1.46761 0.44097,-0.5581 1.14033,-0.5581 0.42719,0 0.73036,0.16881 0.30661,0.16536 0.50643,0.50987 z m -2.16008,1.34703 q 0,0.69936 0.28595,1.09899 0.28938,0.39619 0.79237,0.39619 0.50298,0 0.79237,-0.39619 0.28939,-0.39963 0.28939,-1.09899 0,-0.69935 -0.28939,-1.09554 -0.28939,-0.39963 -0.79237,-0.39963 -0.50299,0 -0.79237,0.39963 -0.28595,0.39619 -0.28595,1.09554 z"
         style="font-size:7.05556px;fill:#aa0000;fill-opacity:1;stroke-width:0.264583"
         id="path6703" />
      <path
         d="m 111.8085,219.34491 q -0.50988,0 -0.80616,0.39963 -0.29627,0.39619 -0.29627,1.08865 0,0.69247 0.29283,1.0921 0.29628,0.39619 0.8096,0.39619 0.50643,0 0.8027,-0.39964 0.29628,-0.39963 0.29628,-1.08865 0,-0.68557 -0.29628,-1.0852 -0.29627,-0.40308 -0.8027,-0.40308 z m 0,-0.53743 q 0.82682,0 1.2988,0.53743 0.47198,0.53744 0.47198,1.48828 0,0.94741 -0.47198,1.48829 -0.47198,0.53743 -1.2988,0.53743 -0.83027,0 -1.30225,-0.53743 -0.46853,-0.54088 -0.46853,-1.48829 0,-0.95084 0.46853,-1.48828 0.47198,-0.53743 1.30225,-0.53743 z"
         style="font-size:7.05556px;fill:#aa0000;fill-opacity:1;stroke-width:0.264583"
         id="path6705" />
      <path
         d="m 117.48602,222.18023 v 2.04638 h -0.63735 v -5.32611 h 0.63735 v 0.58566 q 0.19981,-0.34451 0.50298,-0.50987 0.30661,-0.16881 0.73036,-0.16881 0.7028,0 1.14033,0.5581 0.44097,0.55811 0.44097,1.46761 0,0.90951 -0.44097,1.46761 -0.43753,0.55811 -1.14033,0.55811 -0.42375,0 -0.73036,-0.16536 -0.30317,-0.16881 -0.50298,-0.51332 z m 2.15663,-1.34704 q 0,-0.69935 -0.28939,-1.09554 -0.28595,-0.39963 -0.78893,-0.39963 -0.50298,0 -0.79237,0.39963 -0.28594,0.39619 -0.28594,1.09554 0,0.69936 0.28594,1.09899 0.28939,0.39619 0.79237,0.39619 0.50298,0 0.78893,-0.39619 0.28939,-0.39963 0.28939,-1.09899 z"
         style="font-size:7.05556px;fill:#aa0000;fill-opacity:1;stroke-width:0.264583"
         id="path6707" />
      <path
         d="m 123.10497,220.81941 q -0.76826,0 -1.06454,0.1757 -0.29628,0.1757 -0.29628,0.59945 0,0.33762 0.22049,0.53744 0.22393,0.19637 0.60634,0.19637 0.52709,0 0.84404,-0.37207 0.3204,-0.37552 0.3204,-0.99564 v -0.14125 z m 1.26435,-0.26182 v 2.20141 h -0.6339 v -0.58566 q -0.21704,0.3514 -0.54088,0.52021 -0.32384,0.16536 -0.79237,0.16536 -0.59256,0 -0.94396,-0.33073 -0.34796,-0.33417 -0.34796,-0.89228 0,-0.65112 0.43409,-0.98185 0.43752,-0.33073 1.30224,-0.33073 h 0.88884 v -0.062 q 0,-0.43753 -0.28939,-0.67524 -0.28594,-0.24116 -0.80615,-0.24116 -0.33073,0 -0.64424,0.0792 -0.3135,0.0792 -0.60289,0.23771 v -0.58566 q 0.34796,-0.13436 0.67524,-0.19982 0.32729,-0.0689 0.63734,-0.0689 0.83716,0 1.25057,0.43408 0.41342,0.43408 0.41342,1.31603 z"
         style="font-size:7.05556px;fill:#aa0000;fill-opacity:1;stroke-width:0.264583"
         id="path6709" />
      <path
         d="m 127.9143,219.49305 q -0.10679,-0.062 -0.23426,-0.0896 -0.12403,-0.031 -0.27561,-0.031 -0.53743,0 -0.82682,0.3514 -0.28595,0.34796 -0.28595,1.00253 v 2.0326 h -0.63734 v -3.8585 h 0.63734 v 0.59944 q 0.19982,-0.3514 0.52021,-0.52021 0.3204,-0.17225 0.7786,-0.17225 0.0654,0 0.14469,0.0103 0.0792,0.007 0.1757,0.0241 z"
         style="font-size:7.05556px;fill:#aa0000;fill-opacity:1;stroke-width:0.264583"
         id="path6711" />
      <path
         d="m 130.33966,220.81941 q -0.76826,0 -1.06453,0.1757 -0.29628,0.1757 -0.29628,0.59945 0,0.33762 0.22048,0.53744 0.22394,0.19637 0.60634,0.19637 0.5271,0 0.84405,-0.37207 0.32039,-0.37552 0.32039,-0.99564 v -0.14125 z m 1.26435,-0.26182 v 2.20141 h -0.6339 v -0.58566 q -0.21704,0.3514 -0.54088,0.52021 -0.32384,0.16536 -0.79237,0.16536 -0.59256,0 -0.94396,-0.33073 -0.34795,-0.33417 -0.34795,-0.89228 0,-0.65112 0.43408,-0.98185 0.43753,-0.33073 1.30225,-0.33073 h 0.88883 v -0.062 q 0,-0.43753 -0.28938,-0.67524 -0.28595,-0.24116 -0.80616,-0.24116 -0.33073,0 -0.64423,0.0792 -0.3135,0.0792 -0.60289,0.23771 v -0.58566 q 0.34795,-0.13436 0.67524,-0.19982 0.32728,-0.0689 0.63734,-0.0689 0.83716,0 1.25057,0.43408 0.41341,0.43408 0.41341,1.31603 z"
         style="font-size:7.05556px;fill:#aa0000;fill-opacity:1;stroke-width:0.264583"
         id="path6713" />
      <path
         d="m 137.61913,219.01418 v 0.59945 q -0.26872,-0.1378 -0.5581,-0.20671 -0.28939,-0.0689 -0.59945,-0.0689 -0.47198,0 -0.70969,0.1447 -0.23427,0.14469 -0.23427,0.43408 0,0.22049 0.16881,0.34795 0.16881,0.12403 0.67869,0.23772 l 0.21704,0.0482 q 0.67524,0.14469 0.95773,0.40996 0.28595,0.26183 0.28595,0.73381 0,0.53743 -0.42719,0.85094 -0.42375,0.3135 -1.16789,0.3135 -0.31006,0 -0.64768,-0.062 -0.33417,-0.0586 -0.70624,-0.17915 v -0.65456 q 0.3514,0.18259 0.69246,0.2756 0.34106,0.0896 0.67524,0.0896 0.44786,0 0.68902,-0.15159 0.24115,-0.15503 0.24115,-0.43408 0,-0.25838 -0.1757,-0.39619 -0.17225,-0.1378 -0.76136,-0.26527 l -0.22049,-0.0517 q -0.58911,-0.12402 -0.85094,-0.37896 -0.26182,-0.25838 -0.26182,-0.70624 0,-0.54433 0.38585,-0.8406 0.38585,-0.29628 1.09554,-0.29628 0.3514,0 0.66146,0.0517 0.31005,0.0517 0.57188,0.15503 z"
         style="font-size:7.05556px;fill:#aa0000;fill-opacity:1;stroke-width:0.264583"
         id="path6715" />
      <path
         d="m 140.59227,220.81941 q -0.76826,0 -1.06453,0.1757 -0.29628,0.1757 -0.29628,0.59945 0,0.33762 0.22048,0.53744 0.22393,0.19637 0.60634,0.19637 0.5271,0 0.84405,-0.37207 0.32039,-0.37552 0.32039,-0.99564 v -0.14125 z m 1.26435,-0.26182 v 2.20141 h -0.6339 v -0.58566 q -0.21704,0.3514 -0.54088,0.52021 -0.32384,0.16536 -0.79237,0.16536 -0.59256,0 -0.94396,-0.33073 -0.34795,-0.33417 -0.34795,-0.89228 0,-0.65112 0.43408,-0.98185 0.43753,-0.33073 1.30225,-0.33073 h 0.88883 v -0.062 q 0,-0.43753 -0.28939,-0.67524 -0.28594,-0.24116 -0.80615,-0.24116 -0.33073,0 -0.64423,0.0792 -0.3135,0.0792 -0.60289,0.23771 v -0.58566 q 0.34795,-0.13436 0.67524,-0.19982 0.32728,-0.0689 0.63734,-0.0689 0.83716,0 1.25057,0.43408 0.41341,0.43408 0.41341,1.31603 z"
         style="font-size:7.05556px;fill:#aa0000;fill-opacity:1;stroke-width:0.264583"
         id="path6717" />
      <path
         d="m 143.16574,217.39843 h 0.6339 v 5.36057 h -0.6339 z"
         style="font-size:7.05556px;fill:#aa0000;fill-opacity:1;stroke-width:0.264583"
         id="path6719" />
      <path
         d="m 144.66781,218.9005 h 0.67179 l 1.20578,3.23839 1.20579,-3.23839 h 0.67179 l -1.44694,3.8585 h -0.86127 z"
         style="font-size:7.05556px;fill:#aa0000;fill-opacity:1;stroke-width:0.264583"
         id="path6721" />
      <path
         d="m 151.05156,220.81941 q -0.76826,0 -1.06454,0.1757 -0.29627,0.1757 -0.29627,0.59945 0,0.33762 0.22048,0.53744 0.22393,0.19637 0.60634,0.19637 0.5271,0 0.84405,-0.37207 0.32039,-0.37552 0.32039,-0.99564 v -0.14125 z m 1.26435,-0.26182 v 2.20141 h -0.6339 v -0.58566 q -0.21704,0.3514 -0.54088,0.52021 -0.32384,0.16536 -0.79237,0.16536 -0.59256,0 -0.94396,-0.33073 -0.34795,-0.33417 -0.34795,-0.89228 0,-0.65112 0.43408,-0.98185 0.43753,-0.33073 1.30225,-0.33073 h 0.88883 v -0.062 q 0,-0.43753 -0.28939,-0.67524 -0.28594,-0.24116 -0.80615,-0.24116 -0.33073,0 -0.64423,0.0792 -0.31351,0.0792 -0.60289,0.23771 v -0.58566 q 0.34795,-0.13436 0.67524,-0.19982 0.32728,-0.0689 0.63734,-0.0689 0.83716,0 1.25057,0.43408 0.41341,0.43408 0.41341,1.31603 z"
         style="font-size:7.05556px;fill:#aa0000;fill-opacity:1;stroke-width:0.264583"
         id="path6723" />
      <path
         d="m 155.86093,219.49305 q -0.1068,-0.062 -0.23427,-0.0896 -0.12402,-0.031 -0.2756,-0.031 -0.53744,0 -0.82683,0.3514 -0.28594,0.34796 -0.28594,1.00253 v 2.0326 h -0.63734 v -3.8585 h 0.63734 v 0.59944 q 0.19982,-0.3514 0.52021,-0.52021 0.32039,-0.17225 0.77859,-0.17225 0.0655,0 0.14469,0.0103 0.0792,0.007 0.1757,0.0241 z"
         style="font-size:7.05556px;fill:#aa0000;fill-opacity:1;stroke-width:0.264583"
         id="path6725" />
      <path
         d="m 160.2741,219.34491 q -0.50987,0 -0.80615,0.39963 -0.29628,0.39619 -0.29628,1.08865 0,0.69247 0.29284,1.0921 0.29627,0.39619 0.80959,0.39619 0.50643,0 0.80271,-0.39964 0.29628,-0.39963 0.29628,-1.08865 0,-0.68557 -0.29628,-1.0852 -0.29628,-0.40308 -0.80271,-0.40308 z m 0,-0.53743 q 0.82683,0 1.2988,0.53743 0.47198,0.53744 0.47198,1.48828 0,0.94741 -0.47198,1.48829 -0.47197,0.53743 -1.2988,0.53743 -0.83026,0 -1.30224,-0.53743 -0.46854,-0.54088 -0.46854,-1.48829 0,-0.95084 0.46854,-1.48828 0.47198,-0.53743 1.30224,-0.53743 z"
         style="font-size:7.05556px;fill:#aa0000;fill-opacity:1;stroke-width:0.264583"
         id="path6727" />
      <path
         d="m 165.55199,219.01418 v 0.59945 q -0.26871,-0.1378 -0.5581,-0.20671 -0.28939,-0.0689 -0.59945,-0.0689 -0.47198,0 -0.70969,0.1447 -0.23426,0.14469 -0.23426,0.43408 0,0.22049 0.1688,0.34795 0.16881,0.12403 0.67869,0.23772 l 0.21704,0.0482 q 0.67524,0.14469 0.95774,0.40996 0.28594,0.26183 0.28594,0.73381 0,0.53743 -0.42719,0.85094 -0.42375,0.3135 -1.16789,0.3135 -0.31006,0 -0.64768,-0.062 -0.33417,-0.0586 -0.70624,-0.17915 v -0.65456 q 0.3514,0.18259 0.69246,0.2756 0.34107,0.0896 0.67524,0.0896 0.44786,0 0.68902,-0.15159 0.24116,-0.15503 0.24116,-0.43408 0,-0.25838 -0.1757,-0.39619 -0.17226,-0.1378 -0.76137,-0.26527 l -0.22049,-0.0517 q -0.58911,-0.12402 -0.85093,-0.37896 -0.26183,-0.25838 -0.26183,-0.70624 0,-0.54433 0.38585,-0.8406 0.38585,-0.29628 1.09554,-0.29628 0.3514,0 0.66146,0.0517 0.31006,0.0517 0.57188,0.15503 z"
         style="font-size:7.05556px;fill:#aa0000;fill-opacity:1;stroke-width:0.264583"
         id="path6729" />
      <path
         d="m 172.31813,220.67127 v 0.31006 h -2.91455 q 0.0413,0.65457 0.39274,0.99908 0.35485,0.34107 0.9853,0.34107 0.36518,0 0.70625,-0.0896 0.34451,-0.0896 0.68212,-0.26871 v 0.59944 q -0.34106,0.1447 -0.69935,0.22049 -0.35829,0.0758 -0.72691,0.0758 -0.92329,0 -1.46417,-0.53743 -0.53744,-0.53744 -0.53744,-1.45383 0,-0.94741 0.50988,-1.50207 0.51332,-0.5581 1.38148,-0.5581 0.77859,0 1.2299,0.50298 0.45475,0.49954 0.45475,1.36081 z m -0.63389,-0.18603 q -0.007,-0.52021 -0.29284,-0.83027 -0.28249,-0.31006 -0.75103,-0.31006 -0.53054,0 -0.85094,0.29973 -0.31695,0.29972 -0.36518,0.84404 z"
         style="font-size:7.05556px;fill:#aa0000;fill-opacity:1;stroke-width:0.264583"
         id="path6731" />
      <path
         d="m 175.81835,219.01418 v 0.59945 q -0.26872,-0.1378 -0.5581,-0.20671 -0.28939,-0.0689 -0.59945,-0.0689 -0.47198,0 -0.70969,0.1447 -0.23427,0.14469 -0.23427,0.43408 0,0.22049 0.16881,0.34795 0.16881,0.12403 0.67869,0.23772 l 0.21704,0.0482 q 0.67524,0.14469 0.95773,0.40996 0.28595,0.26183 0.28595,0.73381 0,0.53743 -0.4272,0.85094 -0.42374,0.3135 -1.16788,0.3135 -0.31006,0 -0.64768,-0.062 -0.33417,-0.0586 -0.70625,-0.17915 v -0.65456 q 0.3514,0.18259 0.69247,0.2756 0.34106,0.0896 0.67524,0.0896 0.44786,0 0.68902,-0.15159 0.24115,-0.15503 0.24115,-0.43408 0,-0.25838 -0.1757,-0.39619 -0.17225,-0.1378 -0.76136,-0.26527 l -0.22049,-0.0517 q -0.58911,-0.12402 -0.85094,-0.37896 -0.26182,-0.25838 -0.26182,-0.70624 0,-0.54433 0.38585,-0.8406 0.38585,-0.29628 1.09554,-0.29628 0.3514,0 0.66145,0.0517 0.31006,0.0517 0.57189,0.15503 z"
         style="font-size:7.05556px;fill:#aa0000;fill-opacity:1;stroke-width:0.264583"
         id="path6733" />
      <path
         d="m 179.81468,219.04863 v 0.59256 q -0.26872,-0.14814 -0.54088,-0.22048 -0.26872,-0.0758 -0.54432,-0.0758 -0.61668,0 -0.95774,0.39274 -0.34106,0.3893 -0.34106,1.09554 0,0.70625 0.34106,1.09899 0.34106,0.3893 0.95774,0.3893 0.2756,0 0.54432,-0.0724 0.27216,-0.0758 0.54088,-0.22393 v 0.58566 q -0.26527,0.12403 -0.55121,0.18604 -0.2825,0.062 -0.6029,0.062 -0.8716,0 -1.38492,-0.54777 -0.51332,-0.54777 -0.51332,-1.47795 0,-0.94395 0.51676,-1.48483 0.52021,-0.54088 1.42283,-0.54088 0.29283,0 0.57188,0.062 0.27905,0.0586 0.54088,0.17914 z"
         style="font-size:7.05556px;fill:#aa0000;fill-opacity:1;stroke-width:0.264583"
         id="path6735" />
      <path
         d="m 182.41915,219.34491 q -0.50987,0 -0.80615,0.39963 -0.29628,0.39619 -0.29628,1.08865 0,0.69247 0.29284,1.0921 0.29627,0.39619 0.80959,0.39619 0.50643,0 0.80271,-0.39964 0.29628,-0.39963 0.29628,-1.08865 0,-0.68557 -0.29628,-1.0852 -0.29628,-0.40308 -0.80271,-0.40308 z m 0,-0.53743 q 0.82683,0 1.2988,0.53743 0.47198,0.53744 0.47198,1.48828 0,0.94741 -0.47198,1.48829 -0.47197,0.53743 -1.2988,0.53743 -0.83026,0 -1.30224,-0.53743 -0.46854,-0.54088 -0.46854,-1.48829 0,-0.95084 0.46854,-1.48828 0.47198,-0.53743 1.30224,-0.53743 z"
         style="font-size:7.05556px;fill:#aa0000;fill-opacity:1;stroke-width:0.264583"
         id="path6737" />
      <path
         d="m 185.23725,217.39843 h 0.63389 v 5.36057 h -0.63389 z"
         style="font-size:7.05556px;fill:#aa0000;fill-opacity:1;stroke-width:0.264583"
         id="path6739" />
      <path
         d="m 190.40145,220.43012 v 2.32888 h -0.6339 v -2.30821 q 0,-0.54777 -0.2136,-0.81993 -0.21359,-0.27217 -0.64078,-0.27217 -0.51332,0 -0.8096,0.32729 -0.29628,0.32728 -0.29628,0.89228 v 2.18074 h -0.63734 v -5.36057 h 0.63734 v 2.10151 q 0.22738,-0.34795 0.53399,-0.52021 0.31006,-0.17225 0.71313,-0.17225 0.66491,0 1.00597,0.41341 0.34107,0.40997 0.34107,1.20923 z"
         style="font-size:7.05556px;fill:#aa0000;fill-opacity:1;stroke-width:0.264583"
         id="path6741" />
      <path
         d="m 191.6727,218.9005 h 0.6339 v 3.8585 h -0.6339 z m 0,-1.50207 h 0.6339 v 0.80271 h -0.6339 z"
         style="font-size:7.05556px;fill:#aa0000;fill-opacity:1;stroke-width:0.264583"
         id="path6743" />
      <path
         d="m 196.16855,219.48616 v -2.08773 h 0.6339 v 5.36057 h -0.6339 v -0.57877 q -0.19981,0.34451 -0.50643,0.51332 -0.30316,0.16536 -0.73036,0.16536 -0.69935,0 -1.14032,-0.55811 -0.43753,-0.5581 -0.43753,-1.46761 0,-0.9095 0.43753,-1.46761 0.44097,-0.5581 1.14032,-0.5581 0.4272,0 0.73036,0.16881 0.30662,0.16536 0.50643,0.50987 z m -2.16007,1.34703 q 0,0.69936 0.28594,1.09899 0.28939,0.39619 0.79237,0.39619 0.50299,0 0.79238,-0.39619 0.28938,-0.39963 0.28938,-1.09899 0,-0.69935 -0.28938,-1.09554 -0.28939,-0.39963 -0.79238,-0.39963 -0.50298,0 -0.79237,0.39963 -0.28594,0.39619 -0.28594,1.09554 z"
         style="font-size:7.05556px;fill:#aa0000;fill-opacity:1;stroke-width:0.264583"
         id="path6745" />
      <path
         d="m 199.6033,219.34491 q -0.50988,0 -0.80616,0.39963 -0.29627,0.39619 -0.29627,1.08865 0,0.69247 0.29283,1.0921 0.29628,0.39619 0.8096,0.39619 0.50643,0 0.8027,-0.39964 0.29628,-0.39963 0.29628,-1.08865 0,-0.68557 -0.29628,-1.0852 -0.29627,-0.40308 -0.8027,-0.40308 z m 0,-0.53743 q 0.82682,0 1.2988,0.53743 0.47198,0.53744 0.47198,1.48828 0,0.94741 -0.47198,1.48829 -0.47198,0.53743 -1.2988,0.53743 -0.83027,0 -1.30225,-0.53743 -0.46853,-0.54088 -0.46853,-1.48829 0,-0.95084 0.46853,-1.48828 0.47198,-0.53743 1.30225,-0.53743 z"
         style="font-size:7.05556px;fill:#aa0000;fill-opacity:1;stroke-width:0.264583"
         id="path6747" />
      <path
         d="m 204.88119,219.01418 v 0.59945 q -0.26872,-0.1378 -0.55811,-0.20671 -0.28939,-0.0689 -0.59945,-0.0689 -0.47197,0 -0.70969,0.1447 -0.23426,0.14469 -0.23426,0.43408 0,0.22049 0.16881,0.34795 0.16881,0.12403 0.67868,0.23772 l 0.21704,0.0482 q 0.67524,0.14469 0.95774,0.40996 0.28594,0.26183 0.28594,0.73381 0,0.53743 -0.42719,0.85094 -0.42375,0.3135 -1.16789,0.3135 -0.31006,0 -0.64767,-0.062 -0.33418,-0.0586 -0.70625,-0.17915 v -0.65456 q 0.3514,0.18259 0.69246,0.2756 0.34107,0.0896 0.67524,0.0896 0.44787,0 0.68902,-0.15159 0.24116,-0.15503 0.24116,-0.43408 0,-0.25838 -0.1757,-0.39619 -0.17226,-0.1378 -0.76137,-0.26527 l -0.22048,-0.0517 q -0.58911,-0.12402 -0.85094,-0.37896 -0.26183,-0.25838 -0.26183,-0.70624 0,-0.54433 0.38585,-0.8406 0.38585,-0.29628 1.09554,-0.29628 0.3514,0 0.66146,0.0517 0.31006,0.0517 0.57189,0.15503 z"
         style="font-size:7.05556px;fill:#aa0000;fill-opacity:1;stroke-width:0.264583"
         id="path6749" />
    </g>
  </g>
</svg>
