<?xml version="1.0" encoding="UTF-8" standalone="no"?>
<!-- Created with Inkscape (http://www.inkscape.org/) -->

<svg
   width="26.808525mm"
   height="24.729406mm"
   viewBox="0 0 26.808526 24.729406"
   version="1.1"
   id="svg8"
   xmlns="http://www.w3.org/2000/svg"
   xmlns:svg="http://www.w3.org/2000/svg"
   xmlns:rdf="http://www.w3.org/1999/02/22-rdf-syntax-ns#"
   xmlns:cc="http://creativecommons.org/ns#"
   xmlns:dc="http://purl.org/dc/elements/1.1/">
  <defs
     id="defs2" />
  <metadata
     id="metadata5">
    <rdf:RDF>
      <cc:Work
         rdf:about="">
        <dc:format>image/svg+xml</dc:format>
        <dc:type
           rdf:resource="http://purl.org/dc/dcmitype/StillImage" />
      </cc:Work>
    </rdf:RDF>
  </metadata>
  <g
     id="layer1"
     transform="translate(-535.25615,-249.20069)"
     style="display:inline">
    <g
       aria-label="Mt 25:41"
       transform="rotate(-126.38606,588.00375,212.20899)"
       style="font-style:normal;font-variant:normal;font-weight:normal;font-stretch:normal;font-size:8.46667px;line-height:1.25;font-family:'Bitstream Charter';-inkscape-font-specification:'Bitstream Charter';letter-spacing:0px;word-spacing:0px;fill:#101010;fill-opacity:1;stroke:none;stroke-width:0.264583"
       id="text6327">
      <path
         d="m 586.61646,145.66485 -1.78424,0.0891 0.0173,0.3467 0.51921,0.0419 0.16023,0.15306 0.23069,4.61704 -2.18741,-5.09573 -0.36361,0.0182 -1.74047,5.37675 -0.23828,-4.76925 0.0786,-0.12261 0.55599,-0.0702 -0.0173,-0.3467 -2.02101,0.10098 0.0173,0.3467 0.53485,0.0157 0.10739,0.11332 0.23279,4.65932 -0.0956,0.12346 -0.5302,0.0773 0.0169,0.33825 1.80961,-0.0904 -0.0131,-0.26214 1.39625,-4.29142 1.80185,4.16554 0.0114,0.22832 1.79269,-0.0896 -0.0169,-0.33825 -0.56064,-0.0228 -0.11584,-0.11289 -0.22942,-4.59167 0.14419,-0.16827 0.50398,-0.093 z"
         style="font-style:normal;font-variant:normal;font-weight:normal;font-stretch:normal;font-size:8.46667px;font-family:'Bitstream Charter';-inkscape-font-specification:'Bitstream Charter';fill:#101010;fill-opacity:1;stroke-width:0.264583"
         id="path6573" />
      <path
         d="m 579.25219,149.72306 -0.32647,-2.71518 c -0.0718,-0.59683 -0.27861,-0.82779 -0.97632,-0.7439 -0.32784,0.0394 -0.69904,0.14375 -1.07897,0.31735 l 0.0374,0.31102 c 0.18829,-0.0653 0.3786,-0.11374 0.57194,-0.13699 0.58843,-0.0708 0.73106,0.19351 0.80788,0.83238 l 0.26684,2.21921 -1.27773,0.15364 0.0475,0.39508 1.27773,-0.15363 0.10714,0.89105 0.31103,-0.0374 0.26746,-0.82523 0.52549,-0.31049 -0.0313,-0.26059 z"
         style="font-style:normal;font-variant:normal;font-weight:normal;font-stretch:normal;font-size:8.46667px;font-family:'Bitstream Charter';-inkscape-font-specification:'Bitstream Charter';fill:#101010;fill-opacity:1;stroke-width:0.264583"
         id="path6575" />
      <path
         d="m 573.40047,147.66953 c -1.52946,1.83912 -2.33824,2.984 -2.12156,4.02856 0.19433,0.93679 0.97995,1.43099 2.04938,1.20915 1.02798,-0.21325 1.63542,-0.95318 1.51504,-1.5335 -0.0585,-0.28186 -0.2704,-0.42813 -0.56055,-0.36794 -0.13264,0.0275 -0.2484,0.0948 -0.34726,0.20174 l 0.184,0.88705 c -0.21947,0.19252 -0.44784,0.30042 -0.69655,0.35201 -0.68808,0.14274 -1.1989,-0.23553 -1.36227,-1.02309 -0.22528,-1.08602 0.62355,-2.20461 2.13299,-4.05688 l -0.10834,-0.52228 -3.83836,0.79623 0.28203,1.35959 0.37306,-0.0774 0.003,-0.73562 z"
         style="font-style:normal;font-variant:normal;font-weight:normal;font-stretch:normal;font-size:8.46667px;font-family:'Bitstream Charter';-inkscape-font-specification:'Bitstream Charter';fill:#101010;fill-opacity:1;stroke-width:0.264583"
         id="path6577" />
      <path
         d="m 570.50939,153.43298 -0.74575,-2.69264 c -0.17047,0.0824 -0.40258,0.16421 -0.70448,0.24783 -1.13417,0.31412 -1.80339,0.0866 -2.03615,-0.75388 -0.21017,-0.75883 0.16063,-1.45015 0.92762,-1.66258 0.17951,-0.0497 0.37622,-0.0691 0.57381,-0.0535 l 0.52072,0.61132 c 0.0861,-0.006 0.15366,-0.0162 0.20261,-0.0298 0.27743,-0.0768 0.42354,-0.31058 0.35348,-0.56352 -0.10847,-0.39166 -0.77543,-0.61107 -1.61586,-0.3783 -1.33816,0.37061 -1.95938,1.39485 -1.66786,2.44743 0.25762,0.93018 1.12745,1.37453 2.22082,1.07171 0.26111,-0.0723 0.54355,-0.19446 0.83691,-0.37235 l 0.45197,1.6319 -2.41521,0.66891 0.17627,0.63645 z"
         style="font-style:normal;font-variant:normal;font-weight:normal;font-stretch:normal;font-size:8.46667px;font-family:'Bitstream Charter';-inkscape-font-specification:'Bitstream Charter';fill:#101010;fill-opacity:1;stroke-width:0.264583"
         id="path6579" />
      <path
         d="m 565.29315,153.30197 c 0.28111,-0.0937 0.4337,-0.38558 0.33729,-0.67473 -0.0937,-0.28112 -0.3963,-0.43906 -0.67742,-0.34532 -0.28111,0.0937 -0.43638,0.40432 -0.34264,0.68544 0.0964,0.28915 0.40165,0.42835 0.68277,0.33461 z m -0.97217,-2.91559 c 0.28112,-0.0937 0.43103,-0.39362 0.33462,-0.68277 -0.0964,-0.28915 -0.39362,-0.43102 -0.67474,-0.33729 -0.28112,0.0937 -0.43905,0.3963 -0.34532,0.67741 0.0964,0.28915 0.40433,0.43638 0.68544,0.34265 z"
         style="font-style:normal;font-variant:normal;font-weight:normal;font-stretch:normal;font-size:8.46667px;font-family:'Bitstream Charter';-inkscape-font-specification:'Bitstream Charter';fill:#101010;fill-opacity:1;stroke-width:0.264583"
         id="path6581" />
      <path
         d="m 561.90576,156.31479 1.39687,-4.34848 -0.20079,-0.5124 -2.53834,0.99469 -0.71358,-1.82098 -0.60699,0.23786 0.71358,1.82098 -0.89078,0.34907 0.20079,0.51239 0.89078,-0.34906 1.29124,3.2951 z m -0.18694,-0.91794 -0.95453,-2.43585 1.94711,-0.76301 z"
         style="font-style:normal;font-variant:normal;font-weight:normal;font-stretch:normal;font-size:8.46667px;font-family:'Bitstream Charter';-inkscape-font-specification:'Bitstream Charter';fill:#101010;fill-opacity:1;stroke-width:0.264583"
         id="path6583" />
      <path
         d="m 558.40072,157.91503 1.42905,-1.27915 -0.15117,-0.32187 -1.1024,0.77965 -1.93635,-4.12301 0.0308,-0.17347 0.85972,-0.45989 -0.15477,-0.32953 -2.5673,1.20571 0.15117,0.32188 0.84566,-0.3504 0.14595,0.0718 2.23507,4.75908 z"
         style="font-style:normal;font-variant:normal;font-weight:normal;font-stretch:normal;font-size:8.46667px;font-family:'Bitstream Charter';-inkscape-font-specification:'Bitstream Charter';fill:#101010;fill-opacity:1;stroke-width:0.264583"
         id="path6585" />
    </g>
  </g>
</svg>
