<?xml version="1.0" encoding="UTF-8" standalone="no"?>
<!-- Created with Inkscape (http://www.inkscape.org/) -->

<svg
   width="71.434647mm"
   height="32.993313mm"
   viewBox="0 0 71.434648 32.993313"
   version="1.1"
   id="svg8"
   xmlns="http://www.w3.org/2000/svg"
   xmlns:svg="http://www.w3.org/2000/svg"
   xmlns:rdf="http://www.w3.org/1999/02/22-rdf-syntax-ns#"
   xmlns:cc="http://creativecommons.org/ns#"
   xmlns:dc="http://purl.org/dc/elements/1.1/">
  <defs
     id="defs2" />
  <metadata
     id="metadata5">
    <rdf:RDF>
      <cc:Work
         rdf:about="">
        <dc:format>image/svg+xml</dc:format>
        <dc:type
           rdf:resource="http://purl.org/dc/dcmitype/StillImage" />
      </cc:Work>
    </rdf:RDF>
  </metadata>
  <g
     id="layer1"
     transform="translate(-281.19839,-32.307575)"
     style="display:inline">
    <g
       aria-label="Ef 4:11-16 · Cl 2:19"
       transform="rotate(-151.06641,331.65186,90.843591)"
       style="font-style:normal;font-weight:normal;font-size:10.5833px;line-height:1.25;font-family:sans-serif;letter-spacing:0px;word-spacing:0px;fill:#000000;fill-opacity:1;stroke:none;stroke-width:0.264583"
       id="text6387">
      <path
         d="m 383.93312,91.128404 -0.21608,4.541462 1.51382,0.07203 0.0274,-0.575083 -0.88961,-0.186424 -0.13008,-0.11638 0.0933,-1.962047 2.19885,0.104622 -0.0523,1.099423 -0.12403,0.112765 -0.61294,0.0556 -0.0237,0.498969 1.96205,0.09336 0.0237,-0.498969 -0.60489,-0.113543 -0.11277,-0.124033 0.0523,-1.099423 2.01278,0.09577 -0.0801,1.682962 -0.11517,0.104711 -0.75027,0.09145 -0.0282,0.591997 1.32776,0.06318 0.20281,-4.262378 -0.4144,-0.01972 -0.0668,0.513871 -0.12484,0.12968 -4.50763,-0.214475 -0.12888,-0.141752 -0.0177,-0.517895 z"
         style="font-style:normal;font-variant:normal;font-weight:bold;font-stretch:normal;font-size:8.46667px;font-family:'Bitstream Charter';-inkscape-font-specification:'Bitstream Charter Bold';stroke-width:0.264583"
         id="path6433" />
      <path
         d="m 383.63278,96.180017 -0.28047,2.26873 0.38653,0.04778 0.11161,-0.557787 0.14266,-0.118862 2.92414,0.361486 -0.13919,1.125962 0.50416,0.06233 0.13919,-1.125962 0.50416,0.06233 c 0.0252,0.0031 0.0504,0.0062 0.0672,0.0083 0.6218,0.07687 1.03683,0.239079 1.2367,0.485596 l -0.8234,0.725729 c 0.0698,0.332807 0.23385,0.523711 0.46072,0.551761 0.36132,0.0447 0.6508,-0.226669 0.71104,-0.714026 0.0426,-0.344511 -0.0304,-0.72037 -0.22722,-1.060355 -0.35686,-0.632763 -0.92758,-0.984842 -1.73424,-1.084563 l -0.18456,-0.577338 -0.31931,-0.03947 -0.0675,0.546176 -2.91574,-0.360447 -0.1199,-0.134258 0.01,-0.425329 z"
         style="font-style:normal;font-variant:normal;font-weight:bold;font-stretch:normal;font-size:8.46667px;font-family:'Bitstream Charter';-inkscape-font-specification:'Bitstream Charter Bold';stroke-width:0.264583"
         id="path6435" />
      <path
         d="m 387.74956,105.53639 -2.72982,-3.56376 -0.66526,-0.16657 -0.63956,2.55428 -1.74118,-0.43596 -0.24061,0.96093 1.74119,0.43597 -0.23238,0.92808 0.64883,0.16246 0.23238,-0.92808 3.42488,0.85754 z m -1.09434,-0.43984 -2.29146,-0.57375 0.45242,-1.80688 z"
         style="font-style:normal;font-variant:normal;font-weight:bold;font-stretch:normal;font-size:8.46667px;font-family:'Bitstream Charter';-inkscape-font-specification:'Bitstream Charter Bold';stroke-width:0.264583"
         id="path6437" />
      <path
         d="m 385.14927,108.67554 c 0.11468,-0.34553 -0.0732,-0.72012 -0.42679,-0.83747 -0.35357,-0.11735 -0.72816,0.0705 -0.84284,0.41609 -0.11468,0.34553 0.0732,0.72012 0.42679,0.83747 0.35357,0.11735 0.72816,-0.0706 0.84284,-0.41609 z m -2.70801,-0.89878 c 0.11468,-0.34553 -0.0732,-0.72012 -0.43482,-0.84014 -0.35357,-0.11735 -0.73083,0.0786 -0.84285,0.41609 -0.11468,0.34553 0.0732,0.72012 0.42679,0.83747 0.36161,0.12002 0.7362,-0.0679 0.85088,-0.41342 z"
         style="font-style:normal;font-variant:normal;font-weight:bold;font-stretch:normal;font-size:8.46667px;font-family:'Bitstream Charter';-inkscape-font-specification:'Bitstream Charter Bold';stroke-width:0.264583"
         id="path6439" />
      <path
         d="m 385.07837,113.49059 0.13429,-1.92574 -0.39846,-0.16638 -0.29916,1.17795 -0.12312,0.0312 -3.84397,-1.60501 -0.10149,-0.15248 0.27934,-0.80087 -0.39065,-0.16311 -1.13198,2.7111 0.39064,0.16311 0.3379,-0.72137 0.1609,-0.0337 4.77372,1.99321 z"
         style="font-style:normal;font-variant:normal;font-weight:bold;font-stretch:normal;font-size:8.46667px;font-family:'Bitstream Charter';-inkscape-font-specification:'Bitstream Charter Bold';stroke-width:0.264583"
         id="path6441" />
      <path
         d="m 382.71635,118.40645 0.31529,-1.9045 -0.381,-0.2032 -0.4089,1.14449 -0.12551,0.0194 -3.6755,-1.96034 -0.0867,-0.16136 0.35362,-0.77096 -0.37353,-0.19922 -1.38259,2.59227 0.37353,0.19922 0.40441,-0.68629 0.16336,-0.0184 4.5645,2.43448 z"
         style="font-style:normal;font-variant:normal;font-weight:bold;font-stretch:normal;font-size:8.46667px;font-family:'Bitstream Charter';-inkscape-font-specification:'Bitstream Charter Bold';stroke-width:0.264583"
         id="path6443" />
      <path
         d="m 378.49038,119.14938 -0.70146,-0.44319 -1.14868,1.81805 0.70145,0.4432 z"
         style="font-style:normal;font-variant:normal;font-weight:bold;font-stretch:normal;font-size:8.46667px;font-family:'Bitstream Charter';-inkscape-font-specification:'Bitstream Charter Bold';stroke-width:0.264583"
         id="path6445" />
      <path
         d="m 378.13356,125.57917 0.59045,-1.83791 -0.34718,-0.25674 -0.5719,1.07237 -0.127,8.6e-4 -3.34925,-2.47683 -0.0621,-0.17231 0.46258,-0.71095 -0.34037,-0.25171 -1.74687,2.36218 0.34037,0.25171 0.50044,-0.61976 0.1643,0.006 4.15934,3.0759 z"
         style="font-style:normal;font-variant:normal;font-weight:bold;font-stretch:normal;font-size:8.46667px;font-family:'Bitstream Charter';-inkscape-font-specification:'Bitstream Charter Bold';stroke-width:0.264583"
         id="path6447" />
      <path
         d="m 374.06566,130.88094 c 1.45657,-1.63925 1.31128,-3.62189 -0.29709,-5.06217 -1.19209,-1.06751 -2.45269,-1.09394 -3.31686,-0.12892 -0.84158,0.9398 -0.80889,2.18515 0.10567,3.00413 0.80104,0.71732 1.88965,0.66929 2.55048,-0.0687 0.3163,-0.35321 0.50212,-0.78916 0.57639,-1.29092 0.79859,0.99926 0.85961,1.99722 0.17712,2.88627 l -0.26245,0.24231 z m -0.68812,-3.8894 c -0.0792,0.30417 -0.23204,0.57642 -0.44667,0.81609 -0.4575,0.5109 -1.12965,0.49999 -1.74777,-0.0535 -0.65596,-0.58741 -0.77524,-1.22839 -0.40811,-1.63837 0.4575,-0.5109 1.23885,-0.3681 2.23541,0.52431 0.0568,0.0508 0.18357,0.17575 0.36714,0.3515 z"
         style="font-style:normal;font-variant:normal;font-weight:bold;font-stretch:normal;font-size:8.46667px;font-family:'Bitstream Charter';-inkscape-font-specification:'Bitstream Charter Bold';stroke-width:0.264583"
         id="path6449" />
      <path
         d="m 368.54664,132.67653 c 0.27284,-0.24104 0.29312,-0.66567 0.0465,-0.94485 -0.24665,-0.27919 -0.66493,-0.30508 -0.93777,-0.064 -0.27919,0.24664 -0.30581,0.67687 -0.0648,0.94972 0.24665,0.27918 0.67688,0.30581 0.95607,0.0592 z"
         style="font-style:normal;font-variant:normal;font-weight:bold;font-stretch:normal;font-size:8.46667px;font-family:'Bitstream Charter';-inkscape-font-specification:'Bitstream Charter Bold';stroke-width:0.264583"
         id="path6451" />
      <path
         d="m 359.3308,135.4937 0.82438,1.20046 0.50252,-0.34509 -0.40546,-0.96433 0.0328,-0.17659 c 0.13875,-0.1569 0.26396,-0.2737 0.38261,-0.35518 1.03993,-0.71415 2.18311,-0.41048 3.04104,0.83883 0.84835,1.23536 0.72346,2.39956 -0.23272,3.05619 -0.18147,0.12462 -0.3869,0.21434 -0.62327,0.27395 l -0.17919,-0.0515 -0.64545,-0.65573 -0.51648,0.35468 0.80042,1.16556 c 0.58265,-0.15362 1.11956,-0.3888 1.60114,-0.71952 0.72586,-0.49846 1.17053,-1.12222 1.31786,-1.84992 0.16306,-0.77958 -0.0122,-1.5733 -0.50113,-2.2852 -0.61349,-0.89336 -1.58302,-1.3779 -2.60604,-1.31216 -0.48099,0.0324 -0.99738,0.22274 -1.4999,0.56783 -0.5095,0.34988 -0.94054,0.76914 -1.29313,1.25777 z"
         style="font-style:normal;font-variant:normal;font-weight:bold;font-stretch:normal;font-size:8.46667px;font-family:'Bitstream Charter';-inkscape-font-specification:'Bitstream Charter Bold';stroke-width:0.264583"
         id="path6453" />
      <path
         d="m 358.75395,135.55995 -1.96304,1.13803 0.18684,0.32229 0.45032,-0.20234 0.17781,0.0535 2.85782,4.92959 0.32229,-0.18684 0.90222,-0.9928 -0.16561,-0.28567 -0.52739,0.30574 -2.49687,-4.30698 0.0431,-0.16199 0.39936,-0.29024 z"
         style="font-style:normal;font-variant:normal;font-weight:bold;font-stretch:normal;font-size:8.46667px;font-family:'Bitstream Charter';-inkscape-font-specification:'Bitstream Charter Bold';stroke-width:0.264583"
         id="path6455" />
      <path
         d="m 353.51337,139.29832 c -1.22173,1.91696 -1.76613,3.13718 -1.33804,4.13278 0.38795,0.90226 1.3133,1.23245 2.35557,0.78429 1.12005,-0.4816 1.59375,-1.33041 1.31616,-1.97599 -0.14047,-0.32668 -0.4519,-0.45083 -0.79414,-0.30367 -0.15556,0.0669 -0.29883,0.18379 -0.42982,0.35071 l 0.43144,1.00337 c -0.12881,0.12912 -0.271,0.22712 -0.411,0.28732 -0.59114,0.25418 -1.12728,0.0147 -1.42493,-0.67757 -0.41806,-0.97227 0.0974,-2.2169 1.1901,-4.19819 l -0.26421,-0.61448 -3.76461,1.61872 0.63545,1.47784 0.47447,-0.20401 -0.15431,-0.74468 z"
         style="font-style:normal;font-variant:normal;font-weight:bold;font-stretch:normal;font-size:8.46667px;font-family:'Bitstream Charter';-inkscape-font-specification:'Bitstream Charter Bold';stroke-width:0.264583"
         id="path6457" />
      <path
         d="m 349.94815,144.215 c 0.34431,-0.11832 0.52824,-0.49488 0.40716,-0.84719 -0.12108,-0.35231 -0.49763,-0.53624 -0.84193,-0.41791 -0.34431,0.11832 -0.52824,0.49488 -0.40716,0.84719 0.12107,0.35231 0.49763,0.53624 0.84193,0.41791 z m -0.92734,-2.69836 c 0.3443,-0.11832 0.52824,-0.49488 0.40441,-0.8552 -0.12108,-0.35231 -0.50564,-0.53349 -0.84194,-0.41791 -0.3443,0.11832 -0.52823,0.49488 -0.40716,0.84719 0.12383,0.36031 0.50039,0.54425 0.84469,0.42592 z"
         style="font-style:normal;font-variant:normal;font-weight:bold;font-stretch:normal;font-size:8.46667px;font-family:'Bitstream Charter';-inkscape-font-specification:'Bitstream Charter Bold';stroke-width:0.264583"
         id="path6459" />
      <path
         d="m 346.07602,147.07831 1.6128,-1.06084 -0.10929,-0.41774 -1.11811,0.47632 -0.0994,-0.079 -1.05439,-4.02995 0.0597,-0.17316 0.80624,-0.26345 -0.10716,-0.40955 -2.84226,0.74365 0.10716,0.40954 0.77852,-0.16868 0.12439,0.10748 1.30941,5.00468 z"
         style="font-style:normal;font-variant:normal;font-weight:bold;font-stretch:normal;font-size:8.46667px;font-family:'Bitstream Charter';-inkscape-font-specification:'Bitstream Charter Bold';stroke-width:0.264583"
         id="path6461" />
      <path
         d="m 339.57587,145.28088 c 0.23865,-0.16753 0.46311,-0.26412 0.69709,-0.30221 0.7521,-0.12245 1.27255,0.28178 1.41404,1.15087 0.13877,0.85237 -0.19471,1.43851 -0.73789,1.52694 -0.62675,0.10204 -1.14254,-0.43161 -1.32348,-1.54305 -0.0476,-0.29248 -0.0577,-0.56534 -0.0498,-0.83255 z m 1.79761,-3.50088 c -2.12394,1.07492 -3.12283,2.79019 -2.84257,4.51166 0.2204,1.35377 1.15305,2.0769 2.38148,1.87691 1.3287,-0.21632 2.05475,-1.18376 1.85748,-2.39547 -0.17415,-1.06965 -1.0209,-1.68667 -1.99862,-1.52749 -0.40948,0.0667 -0.79155,0.24896 -1.15866,0.52318 0.16635,-0.92779 0.72876,-1.68845 1.71114,-2.34591 l 0.36517,-0.12808 z"
         style="font-style:normal;font-variant:normal;font-weight:bold;font-stretch:normal;font-size:8.46667px;font-family:'Bitstream Charter';-inkscape-font-specification:'Bitstream Charter Bold';stroke-width:0.264583"
         id="path6463" />
    </g>
  </g>
</svg>
