<?xml version="1.0" encoding="UTF-8" standalone="no"?>
<!-- Created with Inkscape (http://www.inkscape.org/) -->

<svg
   width="60.368977mm"
   height="54.172962mm"
   viewBox="0 0 60.368978 54.172962"
   version="1.1"
   id="svg8"
   xmlns="http://www.w3.org/2000/svg"
   xmlns:svg="http://www.w3.org/2000/svg"
   xmlns:rdf="http://www.w3.org/1999/02/22-rdf-syntax-ns#"
   xmlns:cc="http://creativecommons.org/ns#"
   xmlns:dc="http://purl.org/dc/elements/1.1/">
  <defs
     id="defs2" />
  <metadata
     id="metadata5">
    <rdf:RDF>
      <cc:Work
         rdf:about="">
        <dc:format>image/svg+xml</dc:format>
        <dc:type
           rdf:resource="http://purl.org/dc/dcmitype/StillImage" />
      </cc:Work>
    </rdf:RDF>
  </metadata>
  <g
     id="layer1"
     transform="translate(-570.55648,-171.17903)"
     style="display:inline">
    <g
       aria-label="2ª MORTE · INFERNO · GEENA"
       transform="rotate(-107.6369,585.48741,219.11926)"
       style="font-style:normal;font-variant:normal;font-weight:normal;font-stretch:normal;font-size:6.35px;line-height:1.25;font-family:'Bitstream Charter';-inkscape-font-specification:'Bitstream Charter';letter-spacing:0px;word-spacing:0px;fill:#000000;fill-opacity:1;stroke:none;stroke-width:0.264583"
       id="text6040">
      <path
         d="m 629.98703,218.93525 c 1.05939,1.44779 1.74499,2.24479 2.54442,2.27744 0.71695,0.0293 1.21962,-0.45225 1.25306,-1.27072 0.0321,-0.78674 -0.39554,-1.36347 -0.83967,-1.38162 -0.21572,-0.009 -0.36074,0.11873 -0.36981,0.34079 -0.004,0.10152 0.0237,0.19799 0.0835,0.2894 l 0.67888,0.0277 c 0.10008,0.19475 0.13698,0.38056 0.12921,0.5709 -0.0215,0.52661 -0.38977,0.82934 -0.99252,0.80472 -0.83116,-0.0339 -1.49034,-0.85529 -2.56294,-2.29091 l -0.39972,-0.0163 -0.11999,2.9376 1.04053,0.0425 0.0117,-0.28551 -0.53464,-0.13623 z"
         style="font-style:normal;font-variant:normal;font-weight:normal;font-stretch:normal;font-size:6.35px;font-family:'Bitstream Charter';-inkscape-font-specification:'Bitstream Charter';fill:#ffffff;stroke-width:0.264583"
         id="path7212" />
      <path
         d="m 631.55066,223.39758 -0.26506,0.0282 -0.074,0.66903 0.15779,0.0174 0.0532,-0.24966 0.0785,-0.0744 1.28124,0.14168 c 0.44812,0.0496 0.66049,-0.1378 0.71563,-0.63641 0.0656,-0.59328 -0.12814,-0.97886 -0.39323,-1.00817 -0.1073,-0.0119 -0.14304,0.0225 -0.1549,0.12981 l -0.0363,0.3282 0.37238,0.0412 c 0.0302,0.13111 0.0429,0.24751 0.0297,0.36743 -0.0377,0.34082 -0.19332,0.41944 -0.54677,0.38036 l -0.13885,-0.0154 c -0.10991,-0.97046 -0.19429,-1.42061 -0.64872,-1.47086 -0.33451,-0.037 -0.59316,0.1644 -0.63504,0.54309 -0.0251,0.22722 0.0423,0.48384 0.20449,0.80843 z m 0.14516,0.0161 c -0.0997,-0.2538 -0.1475,-0.45713 -0.13075,-0.60861 0.0265,-0.23984 0.18704,-0.36264 0.40163,-0.33891 0.32189,0.0356 0.40901,0.34549 0.51175,1.03406 z"
         style="font-style:normal;font-variant:normal;font-weight:normal;font-stretch:normal;font-size:6.35px;font-family:'Bitstream Charter';-inkscape-font-specification:'Bitstream Charter';fill:#ffffff;stroke-width:0.264583"
         id="path7214" />
      <path
         d="m 628.83633,225.9029 -0.32471,1.2999 0.25258,0.0631 0.14316,-0.36349 0.14476,-0.0817 3.36374,0.84025 -4.13354,0.45975 -0.0662,0.26491 3.47956,2.42037 -3.47464,-0.86795 -0.0709,-0.0832 0.0708,-0.4143 -0.25259,-0.0631 -0.3678,1.47241 0.25259,0.0631 0.12775,-0.38043 0.10472,-0.0524 3.39455,0.84794 0.0678,0.0955 -0.06,0.39735 0.24643,0.0616 0.32933,-1.31839 -0.19098,-0.0477 -2.77564,-1.93691 3.38199,-0.38568 0.16634,0.0416 0.32625,-1.30607 -0.24643,-0.0616 -0.13853,0.39737 -0.10626,0.0585 -3.34526,-0.83563 -0.0893,-0.14014 0.043,-0.38195 z"
         style="font-style:normal;font-variant:normal;font-weight:normal;font-stretch:normal;font-size:6.35px;font-family:'Bitstream Charter';-inkscape-font-specification:'Bitstream Charter';fill:#ffffff;stroke-width:0.264583"
         id="path7216" />
      <path
         d="m 630.77925,234.76953 c 0.19472,-0.51021 0.18655,-1.02308 -0.0217,-1.51036 -0.23391,-0.54466 -0.6886,-0.95608 -1.33526,-1.20288 -0.64665,-0.24679 -1.26577,-0.24519 -1.81128,0.009 -0.46355,0.21729 -0.81588,0.60618 -1.00833,1.11045 -0.26265,0.68818 -0.14498,1.41277 0.29776,1.96236 0.2671,0.33303 0.62017,0.58332 1.05918,0.75087 0.64665,0.2468 1.2621,0.237 1.79942,-0.0133 0.47995,-0.22463 0.82547,-0.59572 1.0202,-1.10592 z m -0.32037,-0.12227 c -0.29208,0.76531 -1.15804,1.03972 -2.26151,0.61858 -1.10347,-0.42114 -1.57234,-1.205 -1.28025,-1.97031 0.29434,-0.77124 1.16624,-1.04339 2.26971,-0.62224 1.11533,0.42567 1.5664,1.20273 1.27205,1.97397 z"
         style="font-style:normal;font-variant:normal;font-weight:normal;font-stretch:normal;font-size:6.35px;font-family:'Bitstream Charter';-inkscape-font-specification:'Bitstream Charter';fill:#ffffff;stroke-width:0.264583"
         id="path7218" />
      <path
         d="m 629.56668,237.48021 -0.22672,-0.11452 -0.19721,0.30588 -0.12802,0.0563 -3.12299,-1.57762 -0.0307,-0.13644 0.13487,-0.33739 -0.23238,-0.11739 -0.68145,1.34895 0.23239,0.11739 0.19154,-0.30875 0.12802,-0.0563 1.34895,0.68145 c -0.0459,0.10488 -0.0889,0.2041 -0.13182,0.28911 -0.26056,0.51578 -0.51958,0.66238 -1.06165,0.58063 -0.42287,-0.0642 -0.80274,-0.22766 -1.17822,-0.0759 -0.17921,0.0731 -0.32471,0.23436 -0.45355,0.48942 -0.0659,0.13036 -0.12043,0.28064 -0.17232,0.46786 l 0.21538,0.1088 c 0.009,-0.017 0.0172,-0.034 0.0258,-0.051 0.21761,-0.43076 0.37725,-0.57777 0.77464,-0.53353 0.31793,0.0326 0.63252,0.18435 0.97341,0.15736 0.2443,-0.0189 0.46068,-0.15145 0.67466,-0.39195 -0.1732,0.68084 -0.0104,1.14725 0.47702,1.39348 0.69715,0.35218 1.24641,0.0676 1.71025,-0.85057 z m -0.73029,0.79782 -0.13744,0.27206 c -0.35503,0.70281 -0.7422,0.93408 -1.33166,0.63631 -0.56112,-0.28346 -0.61896,-0.71819 -0.27538,-1.39833 0.0172,-0.034 0.0687,-0.13603 0.16315,-0.30887 z"
         style="font-style:normal;font-variant:normal;font-weight:normal;font-stretch:normal;font-size:6.35px;font-family:'Bitstream Charter';-inkscape-font-specification:'Bitstream Charter';fill:#ffffff;stroke-width:0.264583"
         id="path7220" />
      <path
         d="m 627.55372,241.3866 -0.8282,-0.51997 -0.1857,0.29579 0.45288,0.3893 0.0334,0.12593 -0.51996,0.82821 -3.03854,-1.90768 -0.0145,-0.14407 0.19933,-0.37721 -0.22049,-0.13843 -0.88125,1.40364 0.2205,0.13843 0.25311,-0.34344 0.13606,-0.0495 3.03854,1.90768 -0.51997,0.8282 -0.12794,0.0246 -0.54742,-0.23872 -0.1857,0.29579 0.82821,0.51997 z"
         style="font-style:normal;font-variant:normal;font-weight:normal;font-stretch:normal;font-size:6.35px;font-family:'Bitstream Charter';-inkscape-font-specification:'Bitstream Charter';fill:#ffffff;stroke-width:0.264583"
         id="path7222" />
      <path
         d="m 621.85083,242.41641 -1.97366,2.60753 0.8253,0.62468 0.19928,-0.26329 -0.44623,-0.47314 -0.0274,-0.1322 1.02707,-1.35693 1.41769,1.07306 -0.62851,0.83036 -0.1296,0.0134 -0.40287,-0.22529 -0.18012,0.23797 1.1139,0.84311 0.18012,-0.23797 -0.33129,-0.33039 -0.0172,-0.12454 0.6285,-0.83036 1.28098,0.96959 -0.88527,1.16959 -0.1296,0.0134 -0.48402,-0.25487 -0.21461,0.28354 0.73922,0.55952 1.83569,-2.42525 -0.20253,-0.1533 -0.24882,0.26561 -0.13603,0.0324 -2.78981,-2.11162 -0.006,-0.13973 0.19313,-0.30776 z"
         style="font-style:normal;font-variant:normal;font-weight:normal;font-stretch:normal;font-size:6.35px;font-family:'Bitstream Charter';-inkscape-font-specification:'Bitstream Charter';fill:#ffffff;stroke-width:0.264583"
         id="path7224" />
      <path
         d="m 619.84223,248.85852 c 0.15187,-0.16227 0.14789,-0.41821 -0.019,-0.57442 -0.16227,-0.15187 -0.41792,-0.13892 -0.56979,0.0233 -0.15187,0.16227 -0.14355,0.41358 0.0187,0.56545 0.1669,0.1562 0.41821,0.14789 0.57008,-0.0144 z"
         style="font-style:normal;font-variant:normal;font-weight:normal;font-stretch:normal;font-size:6.35px;font-family:'Bitstream Charter';-inkscape-font-specification:'Bitstream Charter';fill:#ffffff;stroke-width:0.264583"
         id="path7226" />
      <path
         d="m 615.97354,249.15541 -1.1941,1.07477 0.17417,0.19351 0.3233,-0.24828 0.13971,-0.006 2.34069,2.6006 -0.0208,0.13829 -0.27658,0.3002 0.16993,0.18879 1.1941,-1.07477 -0.16992,-0.18879 -0.32756,0.24356 -0.13971,0.006 -2.34069,-2.6006 0.0208,-0.13829 0.28082,-0.29548 z"
         style="font-style:normal;font-variant:normal;font-weight:normal;font-stretch:normal;font-size:6.35px;font-family:'Bitstream Charter';-inkscape-font-specification:'Bitstream Charter';fill:#ffffff;stroke-width:0.264583"
         id="path7228" />
      <path
         d="m 614.4917,250.5339 -1.06179,0.81718 0.15879,0.20632 0.33291,-0.19211 0.16417,0.0259 1.93645,2.5161 -4.11708,-1.38271 -0.33213,0.25561 2.33925,3.03945 -0.0209,0.16029 -0.26708,0.27767 0.15492,0.20128 1.05676,-0.81331 -0.15492,-0.20129 -0.33678,0.18709 -0.1603,-0.0209 -1.82027,-2.36513 3.69892,1.25582 0.0968,0.1258 0.94605,-0.7281 -0.15491,-0.20129 -0.3453,0.21767 -0.1448,-7.4e-4 -2.103,-2.73248 0.017,-0.16532 0.27598,-0.27651 z"
         style="font-style:normal;font-variant:normal;font-weight:normal;font-stretch:normal;font-size:6.35px;font-family:'Bitstream Charter';-inkscape-font-specification:'Bitstream Charter';fill:#ffffff;stroke-width:0.264583"
         id="path7230" />
      <path
         d="m 610.85594,253.2749 -1.3532,0.85411 0.13896,0.22016 0.39821,-0.21379 0.13874,0.0176 0.86766,1.37468 -0.88065,0.55584 -0.12602,-0.0331 -0.30112,-0.35811 -0.25238,0.1593 0.74904,1.18673 0.25238,-0.1593 -0.19372,-0.42589 0.0277,-0.12262 0.88065,-0.55585 0.89139,1.41226 -1.20821,0.7626 -0.12065,-0.0365 -0.40253,-0.45929 -0.29534,0.18641 0.52873,0.83769 2.57752,-1.62687 -0.13558,-0.21479 -0.36937,0.18809 -0.13874,-0.0176 -1.86751,-2.95878 0.0438,-0.13279 0.28913,-0.22004 z"
         style="font-style:normal;font-variant:normal;font-weight:normal;font-stretch:normal;font-size:6.35px;font-family:'Bitstream Charter';-inkscape-font-specification:'Bitstream Charter';fill:#ffffff;stroke-width:0.264583"
         id="path7232" />
      <path
         d="m 607.96391,255.08585 -2.90075,1.51003 0.47793,0.9181 0.29289,-0.15247 -0.20039,-0.61873 0.0319,-0.13117 1.50952,-0.7858 0.82099,1.57711 -0.92374,0.48086 -0.12283,-0.0434 -0.26744,-0.37622 -0.26473,0.13781 0.64506,1.23915 0.26473,-0.13781 -0.15772,-0.44049 0.0378,-0.1199 0.92373,-0.48087 0.74182,1.42503 -1.30111,0.67731 -0.12284,-0.0434 -0.32808,-0.43772 -0.31542,0.1642 0.42808,0.82235 2.69798,-1.40448 -0.11728,-0.2253 -0.33865,0.13334 -0.1368,-0.029 -1.61558,-3.10352 0.0547,-0.12871 0.30639,-0.19529 z"
         style="font-style:normal;font-variant:normal;font-weight:normal;font-stretch:normal;font-size:6.35px;font-family:'Bitstream Charter';-inkscape-font-specification:'Bitstream Charter';fill:#ffffff;stroke-width:0.264583"
         id="path7234" />
      <path
         d="m 606.32606,260.7119 -0.0962,-0.23508 -0.34942,0.10181 -0.13357,-0.0414 -1.32505,-3.23824 0.0662,-0.12316 0.32297,-0.16646 -0.0986,-0.24095 -1.39873,0.57234 0.0986,0.24096 0.34701,-0.10769 0.13358,0.0414 0.57234,1.39874 c -0.10338,0.0492 -0.20089,0.0959 -0.28904,0.13199 -0.53481,0.21884 -0.82654,0.15982 -1.18241,-0.25716 -0.27733,-0.32563 -0.45715,-0.69802 -0.84025,-0.82942 -0.18326,-0.0622 -0.39885,-0.0358 -0.66332,0.0725 -0.13517,0.0553 -0.27488,0.13306 -0.43676,0.24047 l 0.0914,0.22332 c 0.0176,-0.007 0.0353,-0.0144 0.0529,-0.0216 0.44665,-0.18276 0.66357,-0.18919 0.93475,0.10464 0.21881,0.23294 0.35695,0.55377 0.63213,0.75678 0.1969,0.14584 0.44722,0.1875 0.76646,0.14606 -0.57701,0.40077 -0.7597,0.85974 -0.55288,1.36517 0.29579,0.72287 0.89715,0.86788 1.84923,0.4783 z m -1.07446,0.12404 -0.28209,0.11543 c -0.72875,0.2982 -1.17276,0.21916 -1.42286,-0.39205 -0.23807,-0.58182 0.003,-0.9481 0.70837,-1.23668 0.0353,-0.0144 0.14105,-0.0577 0.32564,-0.12639 z"
         style="font-style:normal;font-variant:normal;font-weight:normal;font-stretch:normal;font-size:6.35px;font-family:'Bitstream Charter';-inkscape-font-specification:'Bitstream Charter';fill:#ffffff;stroke-width:0.264583"
         id="path7236" />
      <path
         d="m 600.93034,258.30717 -1.28529,0.37844 0.0735,0.24975 0.37984,-0.0589 0.14372,0.0834 0.89678,3.04572 -3.33958,-2.7766 -0.40203,0.11838 1.0833,3.67923 -0.0774,0.14193 -0.34935,0.16244 0.0717,0.24365 1.27921,-0.37664 -0.0717,-0.24366 -0.38163,0.0528 -0.14193,-0.0774 -0.84297,-2.86298 2.99548,2.50722 0.0448,0.15229 1.14519,-0.33719 -0.0717,-0.24366 -0.40062,0.0782 -0.13475,-0.053 -0.9739,-3.30765 0.0756,-0.14802 0.35723,-0.15814 z"
         style="font-style:normal;font-variant:normal;font-weight:normal;font-stretch:normal;font-size:6.35px;font-family:'Bitstream Charter';-inkscape-font-specification:'Bitstream Charter';fill:#ffffff;stroke-width:0.264583"
         id="path7238" />
      <path
         d="m 595.24744,264.24896 c 0.53746,-0.0968 0.97242,-0.36862 1.28214,-0.7986 0.3456,-0.4816 0.46308,-1.08343 0.34045,-1.76463 -0.12263,-0.6812 -0.44375,-1.21053 -0.94297,-1.5465 -0.42547,-0.28472 -0.94044,-0.38558 -1.47165,-0.28995 -0.72495,0.1305 -1.28465,0.60548 -1.52662,1.26844 -0.14723,0.40072 -0.17922,0.83232 -0.096,1.29479 0.12263,0.6812 0.44887,1.20315 0.94072,1.534 0.44022,0.29497 0.93644,0.3992 1.4739,0.30245 z m -0.0607,-0.33748 c -0.80619,0.14513 -1.48841,-0.45469 -1.69767,-1.6171 -0.20925,-1.16242 0.21983,-1.96875 1.02602,-2.11388 0.81244,-0.14625 1.49578,0.45982 1.70503,1.62223 0.21151,1.17492 -0.22094,1.9625 -1.03338,2.10875 z"
         style="font-style:normal;font-variant:normal;font-weight:normal;font-stretch:normal;font-size:6.35px;font-family:'Bitstream Charter';-inkscape-font-specification:'Bitstream Charter';fill:#ffffff;stroke-width:0.264583"
         id="path7240" />
      <path
         d="m 589.71013,263.07007 c 0.22182,-0.0137 0.39463,-0.20259 0.3805,-0.43075 -0.0137,-0.22183 -0.20853,-0.3879 -0.43036,-0.37416 -0.22182,0.0137 -0.38829,0.20219 -0.37455,0.42402 0.0141,0.22816 0.20259,0.39463 0.42441,0.38089 z"
         style="font-style:normal;font-variant:normal;font-weight:normal;font-stretch:normal;font-size:6.35px;font-family:'Bitstream Charter';-inkscape-font-specification:'Bitstream Charter';fill:#ffffff;stroke-width:0.264583"
         id="path7242" />
      <path
         d="m 584.16651,262.58931 0.013,-0.26003 -0.44869,-0.0543 -0.10336,-0.0942 0.0662,-1.31914 c 0.2502,-0.0447 0.46711,-0.0592 0.65102,-0.05 0.9957,0.05 1.59395,0.79841 1.53382,1.99706 -0.0573,1.14156 -0.70014,1.78961 -1.67047,1.74094 -0.25368,-0.0127 -0.48547,-0.0816 -0.71472,-0.20116 l -0.0831,-0.11861 -0.0662,-0.5819 -0.35515,-0.0178 -0.0506,1.00839 c 0.41253,0.14149 0.82158,0.22559 1.20845,0.245 1.40158,0.0703 2.32005,-0.7483 2.38718,-2.08647 0.0417,-0.83081 -0.33365,-1.58716 -0.99918,-2.00838 -0.28346,-0.17953 -0.65319,-0.28709 -1.0781,-0.3084 -0.37418,-0.0188 -0.8156,0.0354 -1.32394,0.15611 l -0.076,1.51574 -0.11227,0.0834 -0.35041,0.0142 -0.013,0.26002 z"
         style="font-style:normal;font-variant:normal;font-weight:normal;font-stretch:normal;font-size:6.35px;font-family:'Bitstream Charter';-inkscape-font-specification:'Bitstream Charter';fill:#ffffff;stroke-width:0.264583"
         id="path7244" />
      <path
         d="m 582.30746,260.41201 -3.23628,-0.47011 -0.1488,1.0243 0.32677,0.0475 0.19903,-0.61917 0.10258,-0.0878 1.68412,0.24464 -0.25559,1.75954 -1.03059,-0.14971 -0.0743,-0.10704 0.003,-0.46158 -0.29535,-0.0429 -0.20082,1.38249 0.29535,0.0429 0.12948,-0.44961 0.10075,-0.0752 1.03059,0.1497 -0.23095,1.58987 -1.45162,-0.21087 -0.0743,-0.10704 -0.0104,-0.54692 -0.3519,-0.0511 -0.13328,0.91747 3.01006,0.43725 0.0365,-0.25136 -0.35271,-0.0897 -0.0941,-0.10349 0.50298,-3.46251 0.11961,-0.0725 0.36275,0.0206 z"
         style="font-style:normal;font-variant:normal;font-weight:normal;font-stretch:normal;font-size:6.35px;font-family:'Bitstream Charter';-inkscape-font-specification:'Bitstream Charter';fill:#ffffff;stroke-width:0.264583"
         id="path7246" />
      <path
         d="m 578.6879,259.86811 -3.18377,-0.7471 -0.23646,1.00768 0.32147,0.0754 0.25161,-0.59972 0.10976,-0.0786 1.6568,0.38879 -0.40619,1.73098 -1.01386,-0.23792 -0.0648,-0.11304 0.0426,-0.45961 -0.29056,-0.0682 -0.31915,1.36005 0.29056,0.0682 0.16772,-0.43678 0.10685,-0.0662 1.01386,0.23791 -0.36702,1.56407 -1.42806,-0.33511 -0.0648,-0.11304 0.0368,-0.54579 -0.34619,-0.0812 -0.2118,0.90259 2.96121,0.69487 0.058,-0.24728 -0.34368,-0.11978 -0.0848,-0.11121 0.79932,-3.40632 0.12541,-0.0619 0.35963,0.0518 z"
         style="font-style:normal;font-variant:normal;font-weight:normal;font-stretch:normal;font-size:6.35px;font-family:'Bitstream Charter';-inkscape-font-specification:'Bitstream Charter';fill:#ffffff;stroke-width:0.264583"
         id="path7248" />
      <path
         d="m 575.14673,259.04032 -1.26873,-0.43072 -0.0837,0.24653 0.34445,0.17059 0.0695,0.15099 -1.02065,3.00647 -1.13148,-4.19309 -0.39685,-0.13473 -1.23295,3.63182 -0.14498,0.0715 -0.37915,-0.0684 -0.0817,0.24052 1.26272,0.42867 0.0816,-0.24052 -0.3424,-0.17659 -0.0715,-0.14498 0.95941,-2.82608 1.00527,3.77471 -0.051,0.15033 1.13043,0.38376 0.0817,-0.24052 -0.37258,-0.16672 -0.0796,-0.12092 1.10843,-3.26503 0.14702,-0.0775 0.38312,0.0764 z"
         style="font-style:normal;font-variant:normal;font-weight:normal;font-stretch:normal;font-size:6.35px;font-family:'Bitstream Charter';-inkscape-font-specification:'Bitstream Charter';fill:#ffffff;stroke-width:0.264583"
         id="path7250" />
      <path
         d="m 567.60311,260.80361 3.00375,-2.9978 0.36665,0.0838 0.10822,-0.23679 -1.13199,-0.51733 -0.10822,0.23679 0.36221,0.20044 0.0208,0.10725 -0.91419,0.91571 -1.36301,-0.62291 0.0883,-1.29315 0.0774,-0.0624 0.37127,0.13477 0.10822,-0.2368 -1.31103,-0.59915 -0.10822,0.23679 0.31486,0.22767 -0.26619,4.2489 z m 0.18473,-0.64866 0.13626,-1.87166 1.16664,0.53317 z"
         style="font-style:normal;font-variant:normal;font-weight:normal;font-stretch:normal;font-size:6.35px;font-family:'Bitstream Charter';-inkscape-font-specification:'Bitstream Charter';fill:#ffffff;stroke-width:0.264583"
         id="path7252" />
    </g>
  </g>
</svg>
