<?xml version="1.0" encoding="UTF-8" standalone="no"?>
<!-- Created with Inkscape (http://www.inkscape.org/) -->

<svg
   width="105.51984mm"
   height="51.243069mm"
   viewBox="0 0 105.51985 51.243068"
   version="1.1"
   id="svg8"
   xmlns="http://www.w3.org/2000/svg"
   xmlns:svg="http://www.w3.org/2000/svg"
   xmlns:rdf="http://www.w3.org/1999/02/22-rdf-syntax-ns#"
   xmlns:cc="http://creativecommons.org/ns#"
   xmlns:dc="http://purl.org/dc/elements/1.1/">
  <defs
     id="defs2" />
  <metadata
     id="metadata5">
    <rdf:RDF>
      <cc:Work
         rdf:about="">
        <dc:format>image/svg+xml</dc:format>
        <dc:type
           rdf:resource="http://purl.org/dc/dcmitype/StillImage" />
      </cc:Work>
    </rdf:RDF>
  </metadata>
  <g
     id="layer1"
     transform="translate(-263.72589,-17.527372)"
     style="display:inline">
    <g
       aria-label="A ESTRATÉGIA · A IGREJA"
       transform="rotate(-160.78229,331.57849,90.702561)"
       style="font-style:normal;font-variant:normal;font-weight:normal;font-stretch:normal;font-size:7.76111px;line-height:1.25;font-family:'Bitstream Charter';-inkscape-font-specification:'Bitstream Charter';letter-spacing:0px;word-spacing:0px;fill:#000000;fill-opacity:1;stroke:none;stroke-width:0.264583"
       id="text6005">
      <path
         d="m 404.5557,93.9166 -6.01072,-2.522081 -0.0605,-0.596233 -0.48346,-0.0231 -0.10134,2.121302 0.48346,0.0231 0.0988,-0.618291 0.13298,-0.09254 1.63916,0.671653 -0.10276,2.150902 -1.70559,0.511859 -0.12496,-0.07519 -0.0295,-0.624419 -0.48346,-0.0231 -0.12726,2.663962 0.48346,0.0231 0.12647,-0.577411 6.21579,-1.977526 z m -1.36209,0.152487 -2.47898,0.761693 0.083,-1.736508 z"
         style="font-style:normal;font-variant:normal;font-weight:bold;font-stretch:normal;font-size:9.87778px;font-family:'Bitstream Charter';-inkscape-font-specification:'Bitstream Charter Bold';stroke-width:0.264583"
         id="path7325" />
      <path
         d="m 397.28822,100.44321 -0.96829,5.21524 1.73842,0.32276 0.12261,-0.6604 -0.9988,-0.35623 -0.13194,-0.15511 0.41833,-2.25314 2.52507,0.46882 -0.23441,1.26254 -0.16121,0.11072 -0.71728,-0.0327 -0.10639,0.57299 2.25314,0.41833 0.10638,-0.57299 -0.68121,-0.22695 -0.11073,-0.16121 0.23441,-1.26253 2.31141,0.42915 -0.35882,1.93265 -0.1497,0.10281 -0.88168,-0.013 -0.12622,0.67983 1.52475,0.28309 0.90879,-4.89475 -0.47588,-0.0884 -0.15855,0.5834 -0.16482,0.13015 -5.17639,-0.96108 -0.12654,-0.18424 0.0614,-0.60144 z"
         style="font-style:normal;font-variant:normal;font-weight:bold;font-stretch:normal;font-size:9.87778px;font-family:'Bitstream Charter';-inkscape-font-specification:'Bitstream Charter Bold';stroke-width:0.264583"
         id="path7327" />
      <path
         d="m 396.31347,106.56887 c -0.37325,0.53195 -0.65502,1.14056 -0.82417,1.74969 -0.43344,1.56089 0.11814,2.74947 1.25074,3.06398 0.56154,0.15593 1.16006,-0.006 1.66551,-0.46015 0.5176,-0.46111 0.80044,-0.9259 1.06321,-1.17073 0.44464,-0.41987 0.80417,-0.60707 1.24198,-0.4855 0.52347,0.14536 0.78524,0.67937 0.59231,1.37416 -0.0846,0.30457 -0.19295,0.51026 -0.32618,0.65779 l -0.17025,0.0962 -1.03476,-0.11306 -0.1903,0.68527 1.54186,0.42815 c 0.37589,-0.54146 0.65661,-1.10936 0.82047,-1.69945 0.37794,-1.36102 -0.19478,-2.47346 -1.25124,-2.76682 -0.46637,-0.1295 -0.99616,-0.0306 -1.48892,0.30415 -0.46844,0.32099 -0.75446,0.72339 -1.05053,1.05124 -0.53028,0.5806 -0.96807,0.82809 -1.48202,0.68537 -0.52347,-0.14536 -0.77731,-0.70792 -0.56324,-1.47885 0.0819,-0.29505 0.20617,-0.55784 0.36583,-0.80055 l 0.17712,-0.0841 1.18441,0.16487 0.20086,-0.72334 z"
         style="font-style:normal;font-variant:normal;font-weight:bold;font-stretch:normal;font-size:9.87778px;font-family:'Bitstream Charter';-inkscape-font-specification:'Bitstream Charter Bold';stroke-width:0.264583"
         id="path7329" />
      <path
         d="m 400.9142,113.84032 -1.63699,-0.61404 -0.23937,0.63815 0.93408,0.51917 0.0647,0.19308 -0.4163,1.10982 -5.0312,-1.88723 -0.089,-0.21273 0.17925,-0.6185 -0.45318,-0.16999 -1.03728,2.76531 0.45318,0.16999 0.27174,-0.58381 0.20695,-0.10172 5.0312,1.88724 -0.41631,1.10982 -0.17226,0.0936 -1.04857,-0.21398 -0.23938,0.63815 1.63699,0.61404 z"
         style="font-style:normal;font-variant:normal;font-weight:bold;font-stretch:normal;font-size:9.87778px;font-family:'Bitstream Charter';-inkscape-font-specification:'Bitstream Charter Bold';stroke-width:0.264583"
         id="path7331" />
      <path
         d="m 398.50374,120.14151 -0.43488,-0.21247 -0.30021,0.50196 -0.19363,0.0813 -4.73046,-2.31115 -0.0726,-0.21138 0.21146,-0.54531 -0.43489,-0.21247 -1.22278,2.50279 0.43488,0.21247 0.30888,-0.5197 0.21138,-0.0726 1.99692,0.97563 c -0.026,0.0532 -0.052,0.1065 -0.0737,0.15088 -0.43794,0.89639 -0.93232,0.94069 -1.90988,0.80389 -0.49538,-0.0661 -0.93379,-0.18138 -1.51427,0.10669 -0.2727,0.13061 -0.53964,0.40696 -0.72609,0.78859 -0.13442,0.27514 -0.25522,0.5899 -0.36261,0.92221 l 0.42601,0.20813 c 0.0217,-0.0444 0.039,-0.0799 0.0564,-0.11537 0.29052,-0.59464 0.55373,-0.79585 1.13292,-0.74375 0.52615,0.0482 1.04009,0.21133 1.56502,0.12699 0.38374,-0.0654 0.69979,-0.28475 1.00555,-0.66306 -0.3036,1.09396 -0.0447,1.86909 0.77185,2.26801 0.98514,0.48131 1.86454,0.0315 2.53664,-1.34419 z m -1.39478,1.57226 -0.19946,0.40825 c -0.42061,0.8609 -1.05001,1.11407 -1.77777,0.75851 -0.81652,-0.39892 -0.96813,-1.03367 -0.50417,-1.98332 0.0477,-0.0976 0.0997,-0.20413 0.16498,-0.31517 z"
         style="font-style:normal;font-variant:normal;font-weight:bold;font-stretch:normal;font-size:9.87778px;font-family:'Bitstream Charter';-inkscape-font-specification:'Bitstream Charter Bold';stroke-width:0.264583"
         id="path7333" />
      <path
         d="m 394.03323,128.75176 -4.03792,-5.11711 0.23575,-0.55098 -0.41183,-0.2543 -1.11581,1.80698 0.41183,0.2543 0.38579,-0.49316 0.16115,-0.0166 1.10898,1.38135 -1.13137,1.8322 -1.74017,-0.378 -0.0729,-0.1263 0.27653,-0.56062 -0.41182,-0.25431 -1.40125,2.26923 0.41183,0.2543 0.39024,-0.44397 6.39607,1.27945 z m -1.2656,-0.5261 -2.53781,-0.53388 0.9134,-1.4792 z"
         style="font-style:normal;font-variant:normal;font-weight:bold;font-stretch:normal;font-size:9.87778px;font-family:'Bitstream Charter';-inkscape-font-specification:'Bitstream Charter Bold';stroke-width:0.264583"
         id="path7335" />
      <path
         d="m 391.5706,132.50401 -1.39561,-1.05312 -0.41054,0.54406 0.74848,0.76278 0.007,0.20351 -0.71398,0.94617 -4.28934,-3.23669 -0.025,-0.22924 0.34732,-0.54227 -0.38636,-0.29154 -1.77899,2.35756 0.38635,0.29154 0.42616,-0.48276 0.22731,-0.0388 4.28933,3.2367 -0.71398,0.94618 -0.19175,0.0409 -0.94482,-0.50259 -0.41053,0.54405 1.39561,1.05312 z"
         style="font-style:normal;font-variant:normal;font-weight:bold;font-stretch:normal;font-size:9.87778px;font-family:'Bitstream Charter';-inkscape-font-specification:'Bitstream Charter Bold';stroke-width:0.264583"
         id="path7337" />
      <path
         d="m 382.5882,133.3584 -3.55844,3.93368 1.31123,1.18615 0.4506,-0.49812 -0.66383,-0.82694 -0.0311,-0.20126 1.53735,-1.69946 1.90458,1.72289 -0.86145,0.95229 -0.19533,0.01 -0.59368,-0.40386 -0.39097,0.43219 1.69947,1.53735 0.39097,-0.43219 -0.46116,-0.55036 -0.01,-0.19532 0.86144,-0.95229 1.74342,1.57711 -1.31867,1.45773 -0.18138,0.009 -0.74402,-0.47325 -0.46386,0.51277 1.15008,1.04036 3.33976,-3.69194 -0.35894,-0.3247 -0.44085,0.41371 -0.20857,0.0244 -3.90438,-3.53193 -0.0112,-0.22323 0.3676,-0.47997 z m 4.67146,8.51477 -0.74904,-1.96959 -0.44397,0.49079 0.37132,2.38714 z"
         style="font-style:normal;font-variant:normal;font-weight:bold;font-stretch:normal;font-size:9.87778px;font-family:'Bitstream Charter';-inkscape-font-specification:'Bitstream Charter Bold';stroke-width:0.264583"
         id="path7339" />
      <path
         d="m 378.13684,142.58978 -0.32589,-0.35787 -0.5737,0.45564 -0.20996,0.004 -1.35674,-1.48988 c 0.17659,-0.18753 0.3087,-0.3212 0.38173,-0.3877 1.12472,-1.02421 2.50955,-0.88252 3.70668,0.43209 1.16387,1.27808 1.18363,2.64949 0.0954,3.64044 -0.2118,0.19287 -0.44224,0.33593 -0.71259,0.43516 l -0.22926,-0.0317 -0.84374,-0.6478 -0.53314,0.4855 1.13061,1.24157 c 0.68676,-0.33147 1.27846,-0.72333 1.76048,-1.16228 1.62135,-1.47645 1.75458,-3.42806 0.39119,-4.92524 -1.38334,-1.5191 -3.37811,-1.62639 -4.91182,-0.22974 -0.53314,0.4855 -0.98048,1.07989 -1.36327,1.78919 l 1.54961,1.70168 -0.0238,0.20865 -0.39034,0.42226 0.32589,0.35786 z"
         style="font-style:normal;font-variant:normal;font-weight:bold;font-stretch:normal;font-size:9.87778px;font-family:'Bitstream Charter';-inkscape-font-specification:'Bitstream Charter Bold';stroke-width:0.264583"
         id="path7341" />
      <path
         d="m 373.37563,142.39107 -2.33366,1.81024 0.29667,0.38244 0.55319,-0.36661 0.22175,0.028 3.22695,4.15999 -0.0401,0.20614 -0.49265,0.44466 0.29666,0.38244 2.33365,-1.81024 -0.29666,-0.38244 -0.54539,0.36056 -0.20964,-0.0124 -3.22695,-4.15998 0.028,-0.22175 0.48485,-0.43861 z"
         style="font-style:normal;font-variant:normal;font-weight:bold;font-stretch:normal;font-size:9.87778px;font-family:'Bitstream Charter';-inkscape-font-specification:'Bitstream Charter Bold';stroke-width:0.264583"
         id="path7343" />
      <path
         d="m 372.31529,151.47887 -1.52163,-6.33831 0.44496,-0.40146 -0.26734,-0.40348 -1.77038,1.17299 0.26733,0.40349 0.55696,-0.28608 0.15327,0.0525 0.42796,1.71896 -1.79509,1.18936 -1.42155,-1.07249 -0.0133,-0.14524 0.48603,-0.39312 -0.26733,-0.40349 -2.22328,1.47307 0.26733,0.40348 0.54039,-0.23954 5.27104,3.84223 z m -0.9286,-1.00808 -2.08044,-1.54832 1.44925,-0.96022 z"
         style="font-style:normal;font-variant:normal;font-weight:bold;font-stretch:normal;font-size:9.87778px;font-family:'Bitstream Charter';-inkscape-font-specification:'Bitstream Charter Bold';stroke-width:0.264583"
         id="path7345" />
      <path
         d="m 363.58443,153.60602 c 0.37837,-0.193 0.52475,-0.66687 0.32727,-1.05403 -0.19749,-0.38716 -0.66256,-0.53804 -1.04092,-0.34504 -0.38716,0.19749 -0.54235,0.67584 -0.34935,1.05421 0.19749,0.38716 0.67584,0.54234 1.063,0.34486 z"
         style="font-style:normal;font-variant:normal;font-weight:bold;font-stretch:normal;font-size:9.87778px;font-family:'Bitstream Charter';-inkscape-font-specification:'Bitstream Charter Bold';stroke-width:0.264583"
         id="path7347" />
      <path
         d="m 357.65248,159.08268 -0.0529,-6.51819 0.52403,-0.29077 -0.16944,-0.45338 -1.98933,0.7435 0.16945,0.45338 0.60712,-0.15309 0.13749,0.0857 0.0293,1.77119 -2.01708,0.75387 -1.14304,-1.36546 0.0198,-0.1445 0.56217,-0.27337 -0.16945,-0.45338 -2.49822,0.93369 0.16945,0.45338 0.58049,-0.1115 4.26869,4.93203 z m -0.67732,-1.19154 -1.67764,-1.97764 1.62846,-0.60863 z"
         style="font-style:normal;font-variant:normal;font-weight:bold;font-stretch:normal;font-size:9.87778px;font-family:'Bitstream Charter';-inkscape-font-specification:'Bitstream Charter Bold';stroke-width:0.264583"
         id="path7349" />
      <path
         d="m 348.76904,154.93975 -2.8698,0.69797 0.11438,0.47031 0.65474,-0.10842 0.19092,0.11622 1.24421,5.11573 -0.12089,0.17172 -0.63139,0.20439 0.11438,0.4703 2.8698,-0.69797 -0.11438,-0.4703 -0.64514,0.10607 -0.18625,-0.097 -1.24421,-5.11572 0.11622,-0.19092 0.62179,-0.20206 z"
         style="font-style:normal;font-variant:normal;font-weight:bold;font-stretch:normal;font-size:9.87778px;font-family:'Bitstream Charter';-inkscape-font-specification:'Bitstream Charter Bold';stroke-width:0.264583"
         id="path7351" />
      <path
         d="m 342.30909,159.60476 -0.0766,-0.47791 -0.72956,0.0669 -0.17794,-0.11154 -0.31883,-1.98969 c 0.25046,-0.0601 0.43421,-0.0996 0.53175,-0.11522 1.50201,-0.24068 2.58293,0.63651 2.86425,2.39211 0.27351,1.70684 -0.46126,2.86497 -1.91451,3.09784 -0.28285,0.0453 -0.554,0.0388 -0.83454,-0.0263 l -0.17443,-0.15212 -0.35098,-1.00416 -0.71199,0.11409 0.26569,1.65807 c 0.75613,0.0989 1.46581,0.0952 2.10953,-0.008 2.16525,-0.34696 3.34586,-1.90666 3.02547,-3.9061 -0.32508,-2.02869 -1.93511,-3.21125 -3.98332,-2.88304 -0.71199,0.11409 -1.41186,0.36629 -2.12067,0.74997 l 0.36415,2.27254 -0.13417,0.16155 -0.55788,0.13941 0.0766,0.47792 z"
         style="font-style:normal;font-variant:normal;font-weight:bold;font-stretch:normal;font-size:9.87778px;font-family:'Bitstream Charter';-inkscape-font-specification:'Bitstream Charter Bold';stroke-width:0.264583"
         id="path7353" />
      <path
         d="m 338.80068,163.49965 -0.0272,-0.48324 -0.58464,-0.0166 -0.16557,-0.12919 -0.29579,-5.25654 0.14892,-0.16668 0.57909,-0.0821 -0.0272,-0.48325 -2.78113,0.1565 0.0272,0.48324 0.60437,0.0155 0.16667,0.14892 0.12487,2.21899 c -0.0592,0.003 -0.11835,0.007 -0.16766,0.009 -0.99608,0.056 -1.27636,-0.35359 -1.63481,-1.2733 -0.18443,-0.4645 -0.29816,-0.9033 -0.83319,-1.26893 -0.24724,-0.17407 -0.6188,-0.27188 -1.04287,-0.24802 -0.30573,0.0172 -0.63938,0.0657 -0.98178,0.1344 l 0.0266,0.47338 c 0.0493,-0.003 0.0888,-0.005 0.1282,-0.007 0.66077,-0.0372 0.96496,0.0941 1.20259,0.62486 0.21513,0.48257 0.32399,1.01069 0.65414,1.42742 0.24458,0.30283 0.59044,0.47134 1.06993,0.55319 -1.10277,0.26981 -1.65245,0.87456 -1.6014,1.78188 0.0616,1.0947 0.88387,1.64203 2.41251,1.55602 z m -2.05338,-0.44838 -0.45366,0.0255 c -0.95663,0.0538 -1.48513,-0.37153 -1.53063,-1.18022 -0.0511,-0.90733 0.42861,-1.34984 1.48386,-1.40922 0.10848,-0.006 0.22683,-0.0128 0.35559,-0.0101 z"
         style="font-style:normal;font-variant:normal;font-weight:bold;font-stretch:normal;font-size:9.87778px;font-family:'Bitstream Charter';-inkscape-font-specification:'Bitstream Charter Bold';stroke-width:0.264583"
         id="path7355" />
      <path
         d="m 331.81649,157.20948 -5.30077,-0.19531 -0.0651,1.76692 0.67123,0.0247 0.20636,-1.04015 0.13415,-0.15321 2.29009,0.0844 -0.0946,2.56648 -1.28324,-0.0473 -0.1331,-0.14328 -0.0725,-0.71436 -0.58239,-0.0215 -0.0844,2.29009 0.58239,0.0215 0.1249,-0.70708 0.14329,-0.1331 1.28324,0.0473 -0.0866,2.34932 -1.96434,-0.0724 -0.1236,-0.13305 -0.11606,-0.87412 -0.69097,-0.0255 -0.0571,1.54976 4.97503,0.18332 0.0178,-0.48368 -0.60032,-0.0716 -0.15284,-0.14401 0.19386,-5.26129 0.16375,-0.15211 0.60396,-0.0272 z"
         style="font-style:normal;font-variant:normal;font-weight:bold;font-stretch:normal;font-size:9.87778px;font-family:'Bitstream Charter';-inkscape-font-specification:'Bitstream Charter Bold';stroke-width:0.264583"
         id="path7357" />
      <path
         d="m 323.0249,162.60457 0.38843,-3.3558 c 0.16583,-1.43259 0.50913,-2.07897 1.40204,-1.97561 0.0491,0.006 0.1068,0.0223 0.15586,0.028 l 0.12261,0.14346 0.0758,1.32134 0.71629,0.0829 0.20444,-1.76621 c -0.46262,-0.21265 -0.91472,-0.34453 -1.37589,-0.39791 -1.5994,-0.18513 -2.37526,0.59017 -2.58765,2.42506 l -0.3873,3.34598 -0.17289,0.1192 -0.60423,-0.0202 -0.0557,0.4808 2.8848,0.33392 0.0557,-0.4808 -0.68118,-0.12857 z"
         style="font-style:normal;font-variant:normal;font-weight:bold;font-stretch:normal;font-size:9.87778px;font-family:'Bitstream Charter';-inkscape-font-specification:'Bitstream Charter Bold';stroke-width:0.264583"
         id="path7359" />
      <path
         d="m 317.66746,162.51803 3.39632,-5.56368 0.59856,0.0297 0.0955,-0.47451 -2.08202,-0.41883 -0.0954,0.47451 0.59644,0.19051 0.0715,0.14537 -0.91025,1.51968 -2.11107,-0.42468 -0.24985,-1.76312 0.0931,-0.11226 0.62176,0.0646 0.0955,-0.47451 -2.61462,-0.52597 -0.0955,0.47451 0.55186,0.21177 1.02143,6.44231 z m 0.0538,-1.36953 -0.38069,-2.56527 1.70435,0.34286 z"
         style="font-style:normal;font-variant:normal;font-weight:bold;font-stretch:normal;font-size:9.87778px;font-family:'Bitstream Charter';-inkscape-font-specification:'Bitstream Charter Bold';stroke-width:0.264583"
         id="path7361" />
    </g>
  </g>
</svg>
