<?xml version="1.0" encoding="UTF-8" standalone="no"?>
<!-- Created with Inkscape (http://www.inkscape.org/) -->

<svg
   width="72.546303mm"
   height="63.122463mm"
   viewBox="0 0 72.546305 63.122463"
   version="1.1"
   id="svg8"
   xmlns="http://www.w3.org/2000/svg"
   xmlns:svg="http://www.w3.org/2000/svg"
   xmlns:rdf="http://www.w3.org/1999/02/22-rdf-syntax-ns#"
   xmlns:cc="http://creativecommons.org/ns#"
   xmlns:dc="http://purl.org/dc/elements/1.1/">
  <defs
     id="defs2" />
  <metadata
     id="metadata5">
    <rdf:RDF>
      <cc:Work
         rdf:about="">
        <dc:format>image/svg+xml</dc:format>
        <dc:type
           rdf:resource="http://purl.org/dc/dcmitype/StillImage" />
      </cc:Work>
    </rdf:RDF>
  </metadata>
  <g
     id="layer1"
     transform="translate(66.083184,-25.799431)"
     style="display:inline">
    <g
       aria-label="ETERNIDADE PASSADA Sl 30:2"
       transform="rotate(-172.87629,5.3799497,97.560646)"
       style="font-style:normal;font-variant:normal;font-weight:normal;font-stretch:normal;font-size:7.05556px;line-height:1.25;font-family:'Bitstream Charter';-inkscape-font-specification:'Bitstream Charter';letter-spacing:0px;word-spacing:0px;fill:#000000;fill-opacity:1;stroke:none;stroke-width:0.264583"
       id="text4775">
      <path
         d="m 72.720785,97.850558 -0.108614,3.631982 1.149541,0.0344 0.01097,-0.36672 -0.708707,-0.14119 -0.109886,-0.10211 0.05652,-1.890047 1.974673,0.05905 -0.03459,1.156597 -0.108739,0.0956 -0.509882,0.0553 -0.0099,0.33146 1.551528,0.0464 0.0099,-0.33146 -0.512717,-0.0859 -0.09578,-0.10169 0.03459,-1.156596 1.784258,0.05336 -0.04872,1.629106 -0.108739,0.0956 -0.602407,0.0808 -0.01181,0.39493 1.02965,0.0308 0.101022,-3.378098 -0.282096,-0.0084 -0.05434,0.400721 -0.102318,0.116939 -3.885874,-0.116207 -0.09515,-0.122844 -0.02324,-0.403041 z"
         style="font-style:normal;font-variant:normal;font-weight:normal;font-stretch:normal;font-size:7.05556px;font-family:'Bitstream Charter';-inkscape-font-specification:'Bitstream Charter';stroke-width:0.264583"
         id="path7709" />
      <path
         d="m 77.313086,102.22646 -1.082034,-0.099 -0.03536,0.38644 0.644434,0.15817 0.09639,0.10801 -0.09902,1.08203 -3.969802,-0.36327 -0.08679,-0.13548 0.0079,-0.47397 -0.288074,-0.0264 -0.167815,1.83384 0.288074,0.0264 0.07821,-0.46754 0.10994,-0.11747 3.969802,0.36328 -0.09902,1.08203 -0.114395,0.0887 -0.662438,0.0386 -0.03536,0.38644 1.082034,0.099 z"
         style="font-style:normal;font-variant:normal;font-weight:normal;font-stretch:normal;font-size:7.05556px;font-family:'Bitstream Charter';-inkscape-font-specification:'Bitstream Charter';stroke-width:0.264583"
         id="path7711" />
      <path
         d="m 72.186757,106.11297 -0.55429,3.59108 1.136596,0.17544 0.05597,-0.3626 -0.685974,-0.22724 -0.0965,-0.11485 0.288446,-1.86876 1.952434,0.30137 -0.176512,1.14357 -0.119662,0.0815 -0.512818,-0.008 -0.05059,0.32773 1.534056,0.23678 0.05059,-0.32773 -0.498265,-0.1483 -0.08255,-0.11269 0.176511,-1.14356 1.764164,0.2723 -0.248623,1.61076 -0.119663,0.0815 -0.607771,0.006 -0.06027,0.39049 1.018055,0.15714 0.515543,-3.34006 -0.278919,-0.0431 -0.103187,0.391 -0.115918,0.10347 -3.842113,-0.59304 -0.07932,-0.1336 0.02648,-0.40285 z"
         style="font-style:normal;font-variant:normal;font-weight:normal;font-stretch:normal;font-size:7.05556px;font-family:'Bitstream Charter';-inkscape-font-specification:'Bitstream Charter';stroke-width:0.264583"
         id="path7713" />
      <path
         d="m 76.1818,111.15469 -0.275545,-0.061 -0.1283,0.38349 -0.122378,0.0958 -3.795623,-0.84069 -0.0705,-0.13847 0.05253,-0.40028 -0.282433,-0.0626 -0.363131,1.63949 0.282433,0.0626 0.121411,-0.38502 0.122379,-0.0957 1.639488,0.36313 c -0.02057,0.12552 -0.03962,0.24415 -0.06251,0.34748 -0.138844,0.62687 -0.377453,0.85585 -0.983514,0.91673 -0.472912,0.047 -0.926775,-0.0246 -1.289333,0.24197 -0.172864,0.12792 -0.285212,0.34151 -0.353871,0.6515 -0.03509,0.15844 -0.05257,0.33523 -0.05701,0.55104 l 0.261768,0.058 c 0.0046,-0.0207 0.0092,-0.0413 0.01373,-0.062 0.115958,-0.52353 0.247446,-0.72566 0.68744,-0.78719 0.351228,-0.0523 0.731628,0.0248 1.091225,-0.0979 0.257839,-0.0874 0.454376,-0.28959 0.61869,-0.6073 5.44e-4,0.78059 0.303916,1.23802 0.896336,1.36923 0.847299,0.18767 1.360484,-0.26956 1.607657,-1.38552 z m -0.567101,1.05954 -0.07324,0.33066 c -0.189194,0.85419 -0.542507,1.20952 -1.258922,1.05084 -0.681972,-0.15105 -0.86366,-0.6032 -0.680569,-1.42983 0.0092,-0.0413 0.03662,-0.16533 0.09081,-0.37735 z"
         style="font-style:normal;font-variant:normal;font-weight:normal;font-stretch:normal;font-size:7.05556px;font-family:'Bitstream Charter';-inkscape-font-specification:'Bitstream Charter';stroke-width:0.264583"
         id="path7715" />
      <path
         d="m 70.572711,114.55711 -0.426078,1.42644 0.277177,0.0828 0.175243,-0.38947 0.164796,-0.0833 3.380207,1.00967 -4.609278,1.42874 -0.133275,0.44619 4.083289,1.21967 0.08534,0.15803 -0.06032,0.4238 0.270417,0.0808 0.424058,-1.41968 -0.270417,-0.0808 -0.182003,0.38746 -0.158035,0.0853 -3.177395,-0.94909 4.149922,-1.2714 0.16901,0.0505 0.379633,-1.27096 -0.270416,-0.0808 -0.1698,0.42055 -0.130993,0.0934 -3.670905,-1.0965 -0.0921,-0.16005 0.0691,-0.42854 z"
         style="font-style:normal;font-variant:normal;font-weight:normal;font-stretch:normal;font-size:7.05556px;font-family:'Bitstream Charter';-inkscape-font-specification:'Bitstream Charter';stroke-width:0.264583"
         id="path7717" />
      <path
         d="m 69.071829,119.402 -0.604455,1.6796 0.272188,0.098 0.186099,-0.41293 0.133558,-0.0794 3.657944,1.31642 0.05233,0.14631 -0.113073,0.43921 0.265549,0.0956 0.604455,-1.67961 -0.265549,-0.0956 -0.192738,0.41054 -0.133558,0.0794 -3.657944,-1.31642 -0.05233,-0.1463 0.119712,-0.43683 z"
         style="font-style:normal;font-variant:normal;font-weight:normal;font-stretch:normal;font-size:7.05556px;font-family:'Bitstream Charter';-inkscape-font-specification:'Bitstream Charter';stroke-width:0.264583"
         id="path7719" />
      <path
         d="m 72.006234,124.99716 0.677916,-1.60546 -0.259994,-0.10978 -0.195442,0.35402 -0.137656,0.0721 -3.581417,-1.51227 -0.04434,-0.14892 0.123943,-0.38422 -0.266494,-0.11253 -0.677916,1.60547 c -0.27446,0.64998 -0.411551,1.17416 -0.266692,1.75613 0.177934,0.70315 0.664402,1.23789 1.437884,1.5645 1.364969,0.57636 2.539737,0.0615 3.190207,-1.47901 z m -0.07119,-0.66574 -0.216823,0.51349 c -0.502262,1.18947 -1.357517,1.50997 -2.624987,0.97477 -1.260971,-0.53245 -1.640687,-1.37442 -1.138426,-2.56389 l 0.216824,-0.51349 z"
         style="font-style:normal;font-variant:normal;font-weight:normal;font-stretch:normal;font-size:7.05556px;font-family:'Bitstream Charter';-inkscape-font-specification:'Bitstream Charter';stroke-width:0.264583"
         id="path7721" />
      <path
         d="m 69.866101,129.79812 -3.189388,-3.47297 0.109932,-0.40317 -0.257882,-0.13107 -0.626559,1.23281 0.257882,0.13106 0.239237,-0.39285 0.120024,-0.0181 0.974387,1.05715 -0.754429,1.48439 -1.431519,-0.15771 -0.06568,-0.0888 0.166748,-0.40595 -0.257882,-0.13107 -0.725659,1.42779 0.257883,0.13107 0.267282,-0.33903 4.704639,0.4916 z m -0.711578,-0.23502 -2.071542,-0.23764 0.64574,-1.27055 z"
         style="font-style:normal;font-variant:normal;font-weight:normal;font-stretch:normal;font-size:7.05556px;font-family:'Bitstream Charter';-inkscape-font-specification:'Bitstream Charter';stroke-width:0.264583"
         id="path7723" />
      <path
         d="m 67.508535,133.99389 0.897009,-1.49414 -0.241966,-0.14527 -0.243297,0.32302 -0.146425,0.052 -3.333082,-2.00102 -0.02295,-0.15368 0.176757,-0.36296 -0.248016,-0.1489 -0.897009,1.49414 c -0.363162,0.60492 -0.572624,1.1046 -0.511067,1.70116 0.07726,0.72119 0.483666,1.31904 1.203515,1.7512 1.270322,0.76264 2.505839,0.41811 3.366532,-1.01554 z m 0.02316,-0.66914 -0.286897,0.47789 c -0.664586,1.10699 -1.55642,1.30399 -2.736005,0.59583 -1.173535,-0.70453 -1.431039,-1.59154 -0.766454,-2.69854 l 0.286898,-0.47788 z"
         style="font-style:normal;font-variant:normal;font-weight:normal;font-stretch:normal;font-size:7.05556px;font-family:'Bitstream Charter';-inkscape-font-specification:'Bitstream Charter';stroke-width:0.264583"
         id="path7725" />
      <path
         d="m 61.802849,134.24252 -2.074525,2.9832 0.944197,0.65659 0.209466,-0.30121 -0.516575,-0.50533 -0.03629,-0.14554 1.079559,-1.55243 1.621933,1.1279 -0.660625,0.94999 -0.143284,0.0207 -0.457351,-0.2321 -0.189326,0.27225 1.274377,0.88621 0.189325,-0.27226 -0.382579,-0.35198 -0.0247,-0.13749 0.660626,-0.94999 1.465532,1.01913 -0.930515,1.3381 -0.143284,0.0207 -0.548768,-0.2613 -0.225579,0.32439 0.845722,0.58812 1.92951,-2.77467 -0.231705,-0.16113 -0.264363,0.30601 -0.149576,0.0421 -3.191733,-2.21954 -0.01262,-0.15487 0.200644,-0.35032 z"
         style="font-style:normal;font-variant:normal;font-weight:normal;font-stretch:normal;font-size:7.05556px;font-family:'Bitstream Charter';-inkscape-font-specification:'Bitstream Charter';stroke-width:0.264583"
         id="path7727" />
      <path
         d="m 58.274503,139.12272 -1.140622,1.36391 0.221907,0.18558 0.348427,-0.36165 0.15272,-0.0286 1.066235,0.89168 c -0.156551,0.1542 -0.280533,0.28046 -0.366532,0.38329 -0.728731,0.87139 -0.701431,1.79559 -0.0086,2.37495 0.822679,0.688 1.493381,0.4579 2.362427,-0.58127 l 1.031991,-1.23402 -0.216494,-0.18105 -0.326683,0.32464 -0.152719,0.0286 -2.982212,-2.49398 0.0012,-0.15538 0.230936,-0.33114 z m 0.908461,2.26814 1.721131,1.43935 c -0.07065,0.10648 -0.152121,0.2039 -0.224542,0.2905 -0.579363,0.69278 -1.120672,0.80115 -1.699795,0.31684 -0.59536,-0.49789 -0.638586,-1.0951 -0.12259,-1.71211 0.06789,-0.0812 0.178297,-0.1912 0.325796,-0.33458 z"
         style="font-style:normal;font-variant:normal;font-weight:normal;font-stretch:normal;font-size:7.05556px;font-family:'Bitstream Charter';-inkscape-font-specification:'Bitstream Charter';stroke-width:0.264583"
         id="path7729" />
      <path
         d="m 57.996433,146.72578 -2.066884,-4.23812 0.220314,-0.3551 -0.209813,-0.19915 -0.952027,1.00301 0.209813,0.19915 0.34131,-0.30835 0.120217,0.0168 0.632554,1.29108 -1.146318,1.2077 -1.327145,-0.55929 -0.03764,-0.10382 0.275564,-0.34157 -0.209813,-0.19914 -1.102602,1.16164 0.209813,0.19915 0.352845,-0.24875 4.369235,1.81248 z m -0.615043,-0.42813 -1.917817,-0.81838 0.981171,-1.03371 z"
         style="font-style:normal;font-variant:normal;font-weight:normal;font-stretch:normal;font-size:7.05556px;font-family:'Bitstream Charter';-inkscape-font-specification:'Bitstream Charter';stroke-width:0.264583"
         id="path7731" />
      <path
         d="m 52.577551,145.62877 c -0.333808,0.11756 -0.711888,0.35332 -1.084019,0.69913 -0.826958,0.76846 -0.94,1.67293 -0.373261,2.28281 0.211326,0.22741 0.46656,0.3466 0.75573,0.3572 0.453879,0.0117 0.809824,-0.16501 1.174277,-0.30141 0.662813,-0.2403 1.030972,-0.34162 1.352765,0.005 0.350609,0.37729 0.317554,0.87033 -0.121767,1.27857 -0.180897,0.1681 -0.369572,0.27601 -0.566024,0.32372 l -0.159176,-0.0158 -0.533801,-0.41896 -0.268761,0.24975 0.744445,0.80111 c 0.396196,-0.18516 0.728857,-0.40761 1.013124,-0.67177 0.733925,-0.682 0.814493,-1.51777 0.271769,-2.10181 -0.465879,-0.50134 -0.943358,-0.41401 -1.747598,-0.12898 -0.7891,0.2806 -1.175324,0.46613 -1.573963,0.0371 -0.336201,-0.36179 -0.297246,-0.87957 0.204097,-1.34545 0.232582,-0.21613 0.467408,-0.35729 0.689337,-0.41904 l 0.148839,0.0254 0.614352,0.53674 0.304941,-0.28337 z"
         style="font-style:normal;font-variant:normal;font-weight:normal;font-stretch:normal;font-size:7.05556px;font-family:'Bitstream Charter';-inkscape-font-specification:'Bitstream Charter';stroke-width:0.264583"
         id="path7733" />
      <path
         d="m 49.677218,148.28984 c -0.340105,0.0979 -0.731311,0.31113 -1.123007,0.63461 -0.870435,0.71884 -1.036118,1.61516 -0.505972,2.25711 0.197681,0.23937 0.445517,0.37326 0.733573,0.40074 0.452424,0.0381 0.81808,-0.11742 1.189879,-0.23231 0.675718,-0.20116 1.049167,-0.28081 1.350182,0.0837 0.327972,0.39714 0.266173,0.8874 -0.196246,1.26928 -0.190407,0.15725 -0.385063,0.25395 -0.583967,0.29011 l -0.157981,-0.0251 -0.508415,-0.44943 -0.282891,0.23362 0.696377,0.84323 c 0.406336,-0.1617 0.751423,-0.36434 1.050635,-0.61144 0.772511,-0.63797 0.901762,-1.4676 0.394081,-2.08235 -0.435798,-0.5277 -0.917563,-0.46841 -1.73708,-0.23084 -0.804143,0.23402 -1.200545,0.39667 -1.573444,-0.0549 -0.314494,-0.38082 -0.24536,-0.89544 0.282342,-1.33124 0.244809,-0.20217 0.48748,-0.32937 0.712637,-0.37806 l 0.1471,0.0341 0.58195,0.57171 0.320973,-0.26507 z"
         style="font-style:normal;font-variant:normal;font-weight:normal;font-stretch:normal;font-size:7.05556px;font-family:'Bitstream Charter';-inkscape-font-specification:'Bitstream Charter';stroke-width:0.264583"
         id="path7735" />
      <path
         d="m 48.080497,155.47501 -1.256508,-4.54477 0.281569,-0.30879 -0.169831,-0.23418 -1.119482,0.81188 0.169831,0.23418 0.391968,-0.24069 0.115108,0.0385 0.385638,1.38502 -1.347948,0.97757 -1.202403,-0.79269 -0.01801,-0.10896 0.33341,-0.28537 -0.169831,-0.23418 -1.296542,0.94029 0.169831,0.23417 0.392405,-0.17999 3.963826,2.58135 z m -0.52632,-0.53345 -1.735695,-1.15548 1.153752,-0.83673 z"
         style="font-style:normal;font-variant:normal;font-weight:normal;font-stretch:normal;font-size:7.05556px;font-family:'Bitstream Charter';-inkscape-font-specification:'Bitstream Charter';stroke-width:0.264583"
         id="path7737" />
      <path
         d="m 44.071474,158.13557 1.479065,-0.92166 -0.149256,-0.23952 -0.363711,0.17676 -0.154038,-0.0204 -2.056001,-3.29945 0.04956,-0.14727 0.322666,-0.24263 -0.152988,-0.24551 -1.479064,0.92166 c -0.598811,0.37314 -1.012863,0.72259 -1.229753,1.28172 -0.259679,0.67724 -0.170147,1.39458 0.273889,2.10717 0.783594,1.2575 2.04045,1.51347 3.459633,0.62913 z m 0.32537,-0.58516 -0.473062,0.29478 c -1.095824,0.68285 -1.979518,0.45206 -2.707141,-0.71562 -0.723892,-1.1617 -0.549164,-2.06865 0.546661,-2.7515 l 0.473061,-0.29478 z"
         style="font-style:normal;font-variant:normal;font-weight:normal;font-stretch:normal;font-size:7.05556px;font-family:'Bitstream Charter';-inkscape-font-specification:'Bitstream Charter';stroke-width:0.264583"
         id="path7739" />
      <path
         d="m 39.557798,160.8267 -0.607188,-4.67601 0.322065,-0.26628 -0.135337,-0.25567 -1.222213,0.64698 0.135337,0.25567 0.42183,-0.18338 0.10857,0.0543 0.187731,1.4254 -1.471644,0.77901 -1.079447,-0.95337 -0.0026,-0.11041 0.370113,-0.23583 -0.135336,-0.25567 -1.415522,0.7493 0.135336,0.25567 0.413758,-0.12322 3.562947,3.11138 z m -0.446367,-0.60194 -1.556633,-1.38732 1.259628,-0.66678 z"
         style="font-style:normal;font-variant:normal;font-weight:normal;font-stretch:normal;font-size:7.05556px;font-family:'Bitstream Charter';-inkscape-font-specification:'Bitstream Charter';stroke-width:0.264583"
         id="path7741" />
      <path
         d="m 32.990344,158.87944 c -0.353859,-0.006 -0.790287,0.0841 -1.259359,0.27909 -1.042384,0.43339 -1.462539,1.24228 -1.142914,2.01104 0.119182,0.28666 0.317127,0.48708 0.58461,0.59746 0.421576,0.16857 0.81672,0.12654 1.205862,0.12521 0.705009,0.005 1.085441,0.0377 1.266923,0.47424 0.197734,0.47558 -0.0045,0.92644 -0.558276,1.15668 -0.228021,0.0948 -0.442429,0.13046 -0.643223,0.10697 l -0.143771,-0.0701 -0.355048,-0.57828 -0.338775,0.14085 0.419846,1.00981 c 0.435844,-0.036 0.825056,-0.12908 1.183376,-0.27806 0.925115,-0.38463 1.290955,-1.14038 0.984874,-1.87656 -0.262742,-0.63195 -0.740827,-0.7159 -1.593998,-0.72795 -0.837432,-0.011 -1.264052,0.0289 -1.488873,-0.51185 -0.189607,-0.45605 0.02676,-0.92806 0.658708,-1.1908 0.293171,-0.12189 0.562406,-0.1727 0.791969,-0.15353 l 0.130741,0.0755 0.389677,0.71671 0.384379,-0.15981 z"
         style="font-style:normal;font-variant:normal;font-weight:normal;font-stretch:normal;font-size:7.05556px;font-family:'Bitstream Charter';-inkscape-font-specification:'Bitstream Charter';stroke-width:0.264583"
         id="path7743" />
      <path
         d="m 29.506622,160.14209 -1.551198,0.56532 0.08697,0.23865 0.389935,-0.10456 0.157977,0.0626 1.640387,4.50113 0.251904,-0.0918 0.721773,-0.53339 -0.07489,-0.2055 -0.510438,0.18603 -1.478522,-4.05698 0.07404,-0.14714 0.379034,-0.17568 z"
         style="font-style:normal;font-variant:normal;font-weight:normal;font-stretch:normal;font-size:7.05556px;font-family:'Bitstream Charter';-inkscape-font-specification:'Bitstream Charter';stroke-width:0.264583"
         id="path7745" />
      <path
         d="m 24.500799,164.39485 c -0.611674,0.37813 -0.848596,0.86298 -0.700873,1.38579 0.193767,0.68576 0.845114,0.99295 1.65988,0.76273 0.848715,-0.23981 1.304092,-0.85971 1.177472,-1.30783 -0.06139,-0.21727 -0.252972,-0.32444 -0.470243,-0.26305 -0.108635,0.0307 -0.189228,0.0828 -0.253438,0.16693 l 0.180338,0.63823 c -0.158532,0.19143 -0.351747,0.31201 -0.589387,0.37916 -0.522809,0.14772 -0.960137,-0.10263 -1.111698,-0.63902 -0.155397,-0.54996 0.11916,-0.97947 0.804922,-1.17324 0.04753,-0.0134 0.09697,-0.0201 0.144502,-0.0335 l -0.11319,-0.4006 c -0.12325,0.0568 -0.243546,0.0982 -0.352182,0.12884 -0.651813,0.18418 -1.093128,-0.0284 -1.244689,-0.56478 -0.170745,-0.60428 0.145001,-1.19939 0.762865,-1.37397 0.203692,-0.0576 0.409152,-0.057 0.62317,-1.2e-4 l 0.373552,0.51765 c 0.08236,0.006 0.152177,-0.006 0.213284,-0.0236 0.217271,-0.0614 0.338018,-0.25681 0.282382,-0.45371 -0.09784,-0.34627 -0.747422,-0.59531 -1.555398,-0.36701 -1.045616,0.29545 -1.543216,1.10325 -1.328346,1.86369 0.174583,0.61787 0.728071,0.91605 1.497077,0.75741 z"
         style="font-style:normal;font-variant:normal;font-weight:normal;font-stretch:normal;font-size:7.05556px;font-family:'Bitstream Charter';-inkscape-font-specification:'Bitstream Charter';stroke-width:0.264583"
         id="path7747" />
      <path
         d="m 21.313246,167.58556 c 0.985459,-0.21642 1.44255,-1.22699 1.10808,-2.74997 -0.33447,-1.52298 -1.174462,-2.25592 -2.159921,-2.0395 -0.98546,0.21643 -1.441037,1.23389 -1.106567,2.75687 0.33447,1.52298 1.172948,2.24903 2.158408,2.0326 z m -0.07113,-0.32389 c -0.634002,0.13924 -1.132939,-0.488 -1.4326,-1.85249 -0.299661,-1.36448 -0.109466,-2.14307 0.524536,-2.2823 0.634002,-0.13924 1.138317,0.4796 1.437978,1.84408 0.301175,1.37138 0.104088,2.15148 -0.529914,2.29071 z"
         style="font-style:normal;font-variant:normal;font-weight:normal;font-stretch:normal;font-size:7.05556px;font-family:'Bitstream Charter';-inkscape-font-specification:'Bitstream Charter';stroke-width:0.264583"
         id="path7749" />
      <path
         d="m 17.822799,166.81585 c 0.243395,-0.0417 0.405928,-0.26285 0.363016,-0.5132 -0.04172,-0.2434 -0.271002,-0.41169 -0.514397,-0.36997 -0.243395,0.0417 -0.410497,0.27795 -0.368778,0.52135 0.04291,0.25035 0.276765,0.40354 0.520159,0.36182 z m -0.432688,-2.52435 c 0.243395,-0.0417 0.404735,-0.26981 0.361824,-0.52016 -0.04291,-0.25035 -0.269811,-0.40473 -0.513205,-0.36302 -0.243395,0.0417 -0.41169,0.27101 -0.369971,0.5144 0.04291,0.25035 0.277957,0.4105 0.521352,0.36878 z"
         style="font-style:normal;font-variant:normal;font-weight:normal;font-stretch:normal;font-size:7.05556px;font-family:'Bitstream Charter';-inkscape-font-specification:'Bitstream Charter';stroke-width:0.264583"
         id="path7751" />
      <path
         d="m 15.224892,164.3558 c -1.394416,1.42442 -2.143413,2.3208 -2.033891,3.20303 0.09822,0.7912 0.717426,1.25467 1.62066,1.14254 0.868224,-0.10778 1.422668,-0.6814 1.361822,-1.17153 -0.02955,-0.23806 -0.195714,-0.37385 -0.440777,-0.34342 -0.112029,0.0139 -0.21271,0.0619 -0.302043,0.14414 l 0.09301,0.74919 c -0.195278,0.14511 -0.392246,0.21933 -0.6023,0.24541 -0.58115,0.0721 -0.979917,-0.2765 -1.062493,-0.94167 -0.113868,-0.91724 0.666612,-1.78909 2.045287,-3.22577 l -0.05476,-0.44111 -3.241837,0.40245 0.142553,1.14829 0.315081,-0.0391 0.05215,-0.6108 z"
         style="font-style:normal;font-variant:normal;font-weight:normal;font-stretch:normal;font-size:7.05556px;font-family:'Bitstream Charter';-inkscape-font-specification:'Bitstream Charter';stroke-width:0.264583"
         id="path7753" />
    </g>
  </g>
</svg>
