<?xml version="1.0" encoding="UTF-8" standalone="no"?>
<!-- Created with Inkscape (http://www.inkscape.org/) -->

<svg
   width="44.053654mm"
   height="36.417248mm"
   viewBox="0 0 44.053655 36.417248"
   version="1.1"
   id="svg8"
   xmlns="http://www.w3.org/2000/svg"
   xmlns:svg="http://www.w3.org/2000/svg"
   xmlns:rdf="http://www.w3.org/1999/02/22-rdf-syntax-ns#"
   xmlns:cc="http://creativecommons.org/ns#"
   xmlns:dc="http://purl.org/dc/elements/1.1/">
  <defs
     id="defs2" />
  <metadata
     id="metadata5">
    <rdf:RDF>
      <cc:Work
         rdf:about="">
        <dc:format>image/svg+xml</dc:format>
        <dc:type
           rdf:resource="http://purl.org/dc/dcmitype/StillImage" />
      </cc:Work>
    </rdf:RDF>
  </metadata>
  <g
     id="layer1"
     transform="translate(-47.385444,26.45674)"
     style="display:inline">
    <g
       aria-label="O INÃCIO Ef 1:4-5,11  Gn 1:26-28"
       transform="matrix(0.26458333,0,0,0.26458333,-172.16143,-107.24405)"
       style="font-style:normal;font-weight:normal;font-size:40px;line-height:1.25;font-family:sans-serif;letter-spacing:0px;word-spacing:0px;fill:#000000;fill-opacity:1;stroke:none"
       id="flowRoot5933">
      <path
         d="m 830.49547,328.93787 c 0,8.52 5.48,14.2 13.76,14.2 3.36,0 6.56,-1.24 9,-3.52 2.8,-2.6 4.28,-6.2 4.28,-10.44 0,-4.52 -1.68,-8.36 -4.76,-11 -2.44,-2.08 -5.36,-3.12 -8.8,-3.12 -3.72,0 -6.84,1.16 -9.36,3.48 -2.72,2.52 -4.12,6.04 -4.12,10.4 z m 13.56,-11.32 c 4.36,0 7.48,4.28 7.48,11.68 0,7.08 -3.16,11.4 -7.56,11.4 -4.28,0 -7.52,-4.32 -7.52,-11.68 0,-7.16 3.16,-11.4 7.6,-11.4 z"
         style="font-style:normal;font-variant:normal;font-weight:bold;font-stretch:normal;font-family:'Bitstream Charter';-inkscape-font-specification:'Bitstream Charter Bold'"
         id="path7556" />
      <path
         d="m 871.77422,342.49787 h 11.96 v -1.96 l -2.68,-0.2 -0.64,-0.64 v -21.32 l 0.64,-0.56 2.68,-0.2 v -1.96 h -11.96 v 1.96 l 2.64,0.2 0.64,0.56 v 21.32 l -0.64,0.64 -2.64,0.2 z"
         style="font-style:normal;font-variant:normal;font-weight:bold;font-stretch:normal;font-family:'Bitstream Charter';-inkscape-font-specification:'Bitstream Charter Bold'"
         id="path7558" />
      <path
         d="m 885.75484,342.49787 h 9.12 v -1.92 l -2.48,-0.32 -0.64,-0.72 v -18.52 l 13.84,21.48 h 4.48 v -23.88 l 0.68,-0.76 2.36,-0.32 v -1.88 h -9.12 v 1.88 l 2.44,0.32 0.72,0.76 v 17.12 l -12.24,-19 v -1.08 h -9.2 v 1.96 l 2.56,0.2 0.56,0.56 v 21.16 l -0.72,0.72 -2.36,0.32 z"
         style="font-style:normal;font-variant:normal;font-weight:bold;font-stretch:normal;font-family:'Bitstream Charter';-inkscape-font-specification:'Bitstream Charter Bold'"
         id="path7560" />
      <path
         d="m 914.97734,342.49787 h 11.96 v -1.96 l -2.68,-0.2 -0.64,-0.64 v -21.32 l 0.64,-0.56 2.68,-0.2 v -1.96 h -11.96 v 1.96 l 2.64,0.2 0.64,0.56 v 21.32 l -0.64,0.64 -2.64,0.2 z m 8,-37.16 -3.88,7.6 h 2.68 l 6.16,-7.6 z"
         style="font-style:normal;font-variant:normal;font-weight:bold;font-stretch:normal;font-family:'Bitstream Charter';-inkscape-font-specification:'Bitstream Charter Bold'"
         id="path7562" />
      <path
         d="m 951.95797,341.53787 v -6.88 h -2.88 l -1,4.84 -0.6,0.6 c -0.96,0.24 -1.76,0.36 -2.44,0.36 -5.96,0 -9.6,-4.24 -9.6,-11.4 0,-7.08 3.6,-11.28 9.08,-11.28 1.04,0 2.08,0.2 3.16,0.6 l 0.56,0.68 0.76,4.28 h 2.96 v -6.68 c -2.68,-0.96 -5.4,-1.48 -8.16,-1.48 -4.16,0 -7.56,1.24 -10.08,3.68 -2.72,2.6 -4.16,6.16 -4.16,10.24 0,5.12 2.48,9.6 6.64,12.08 1.96,1.16 4.48,1.8 7.36,1.8 2.92,0 5.72,-0.48 8.4,-1.44 z"
         style="font-style:normal;font-variant:normal;font-weight:bold;font-stretch:normal;font-family:'Bitstream Charter';-inkscape-font-specification:'Bitstream Charter Bold'"
         id="path7564" />
      <path
         d="m 954.66484,342.49787 h 11.96 v -1.96 l -2.68,-0.2 -0.64,-0.64 v -21.32 l 0.64,-0.56 2.68,-0.2 v -1.96 h -11.96 v 1.96 l 2.64,0.2 0.64,0.56 v 21.32 l -0.64,0.64 -2.64,0.2 z"
         style="font-style:normal;font-variant:normal;font-weight:bold;font-stretch:normal;font-family:'Bitstream Charter';-inkscape-font-specification:'Bitstream Charter Bold'"
         id="path7566" />
      <path
         d="m 969.24547,328.93787 c 0,8.52 5.48,14.2 13.76,14.2 3.36,0 6.56,-1.24 9,-3.52 2.8,-2.6 4.28,-6.2 4.28,-10.44 0,-4.52 -1.68,-8.36 -4.76,-11 -2.44,-2.08 -5.36,-3.12 -8.8,-3.12 -3.72,0 -6.84,1.16 -9.36,3.48 -2.72,2.52 -4.12,6.04 -4.12,10.4 z m 13.56,-11.32 c 4.36,0 7.48,4.28 7.48,11.68 0,7.08 -3.16,11.4 -7.56,11.4 -4.28,0 -7.52,-4.32 -7.52,-11.68 0,-7.16 3.16,-11.4 7.6,-11.4 z"
         style="font-style:normal;font-variant:normal;font-weight:bold;font-stretch:normal;font-family:'Bitstream Charter';-inkscape-font-specification:'Bitstream Charter Bold'"
         id="path7568" />
      <path
         d="m 829.78347,392.49786 h 17.184 v -5.728 h -2.176 l -0.544,3.392 -0.416,0.512 h -7.424 v -8.32 h 4.16 l 0.448,0.448 0.32,2.304 h 1.888 v -7.424 h -1.888 l -0.32,2.304 -0.448,0.448 h -4.16 v -7.616 h 6.368 l 0.416,0.416 0.48,2.816 h 2.24 v -5.024 h -16.128 v 1.568 l 1.952,0.16 0.512,0.448 v 17.056 l -0.512,0.512 -1.952,0.16 z"
         style="font-style:normal;font-variant:normal;font-weight:bold;font-stretch:normal;font-size:32px;line-height:1.25;font-family:'Bitstream Charter';-inkscape-font-specification:'Bitstream Charter Bold'"
         id="path7570" />
      <path
         d="m 848.90997,392.49786 h 8.64 v -1.472 l -2.144,-0.16 -0.512,-0.48 v -11.136 h 4.288 v -1.92 h -4.288 v -1.92 c 0,-0.096 0,-0.192 0,-0.256 0,-2.368 0.416,-4 1.248,-4.864 l 3.104,2.752 c 1.216,-0.416 1.856,-1.12 1.856,-1.984 0,-1.376 -1.152,-2.336 -3.008,-2.336 -1.312,0 -2.688,0.448 -3.872,1.344 -2.208,1.632 -3.264,3.936 -3.264,7.008 l -2.08,0.96 v 1.216 h 2.08 v 11.104 l -0.448,0.512 -1.6,0.16 z"
         style="font-style:normal;font-variant:normal;font-weight:bold;font-stretch:normal;font-size:32px;line-height:1.25;font-family:'Bitstream Charter';-inkscape-font-specification:'Bitstream Charter Bold'"
         id="path7572" />
      <path
         d="m 878.56797,370.70586 -6.912,2.336 v 1.632 l 4.544,-0.672 0.288,0.384 v 15.744 l -0.384,0.576 -3.2,0.192 v 1.6 h 11.104 v -1.6 l -3.008,-0.128 -0.352,-0.512 v -19.552 z"
         style="font-style:normal;font-variant:normal;font-weight:bold;font-stretch:normal;font-size:32px;line-height:1.25;font-family:'Bitstream Charter';-inkscape-font-specification:'Bitstream Charter Bold'"
         id="path7574" />
      <path
         d="m 892.26647,376.88186 c -1.376,0 -2.496,1.12 -2.496,2.528 0,1.408 1.12,2.528 2.496,2.528 1.376,0 2.496,-1.12 2.496,-2.528 0,-1.408 -1.12,-2.528 -2.496,-2.528 z m 0,10.784 c -1.376,0 -2.496,1.12 -2.496,2.56 0,1.408 1.152,2.528 2.496,2.528 1.376,0 2.496,-1.12 2.496,-2.528 0,-1.44 -1.12,-2.56 -2.496,-2.56 z"
         style="font-style:normal;font-variant:normal;font-weight:bold;font-stretch:normal;font-size:32px;line-height:1.25;font-family:'Bitstream Charter';-inkscape-font-specification:'Bitstream Charter Bold'"
         id="path7576" />
      <path
         d="m 908.96547,370.83386 -10.56,13.28 v 2.592 h 9.952 v 6.784 h 3.744 v -6.784 h 3.616 v -2.528 h -3.616 v -13.344 z m -0.608,4.416 v 8.928 h -7.04 z"
         style="font-style:normal;font-variant:normal;font-weight:bold;font-stretch:normal;font-size:32px;line-height:1.25;font-family:'Bitstream Charter';-inkscape-font-specification:'Bitstream Charter Bold'"
         id="path7578" />
      <path
         d="m 917.31997,383.21786 v 3.136 h 8.128 v -3.136 z"
         style="font-style:normal;font-variant:normal;font-weight:bold;font-stretch:normal;font-size:32px;line-height:1.25;font-family:'Bitstream Charter';-inkscape-font-specification:'Bitstream Charter Bold'"
         id="path7580" />
      <path
         d="m 929.67747,371.02586 v 11.072 c 1.248,-0.288 2.56,-0.448 3.872,-0.448 3.52,0 5.6,1.792 5.6,4.64 0,2.656 -2.016,4.64 -4.608,4.64 -0.512,0 -0.992,-0.032 -1.504,-0.16 l -1.088,-3.616 c -0.448,-0.128 -0.832,-0.224 -1.184,-0.224 -1.44,0 -2.4,0.928 -2.4,2.016 0,2.112 2.272,3.84 5.952,3.84 5.472,0 9.088,-3.168 9.088,-7.456 0,-3.744 -2.816,-6.272 -7.264,-6.272 -1.216,0 -2.464,0.224 -3.872,0.704 v -5.408 h 9.984 v -3.328 z"
         style="font-style:normal;font-variant:normal;font-weight:bold;font-stretch:normal;font-size:32px;line-height:1.25;font-family:'Bitstream Charter';-inkscape-font-specification:'Bitstream Charter Bold'"
         id="path7582" />
      <path
         d="m 946.15997,398.09786 c 3.68,-0.416 6.048,-3.104 6.048,-6.336 0,-2.112 -1.152,-3.392 -2.944,-3.392 -1.312,0 -2.208,0.864 -2.208,2.176 0,0.704 0.224,1.248 0.672,1.728 h 1.984 c 0,0.096 0,0.224 0,0.32 0,2.208 -1.248,3.616 -3.552,4.032 z"
         style="font-style:normal;font-variant:normal;font-weight:bold;font-stretch:normal;font-size:32px;line-height:1.25;font-family:'Bitstream Charter';-inkscape-font-specification:'Bitstream Charter Bold'"
         id="path7584" />
      <path
         d="m 964.81797,370.70586 -6.912,2.336 v 1.632 l 4.544,-0.672 0.288,0.384 v 15.744 l -0.384,0.576 -3.2,0.192 v 1.6 h 11.104 v -1.6 l -3.008,-0.128 -0.352,-0.512 v -19.552 z"
         style="font-style:normal;font-variant:normal;font-weight:bold;font-stretch:normal;font-size:32px;line-height:1.25;font-family:'Bitstream Charter';-inkscape-font-specification:'Bitstream Charter Bold'"
         id="path7586" />
      <path
         d="m 983.38047,370.70586 -6.912,2.336 v 1.632 l 4.544,-0.672 0.288,0.384 v 15.744 l -0.384,0.576 -3.2,0.192 v 1.6 h 11.104 v -1.6 l -3.008,-0.128 -0.352,-0.512 v -19.552 z"
         style="font-style:normal;font-variant:normal;font-weight:bold;font-stretch:normal;font-size:32px;line-height:1.25;font-family:'Bitstream Charter';-inkscape-font-specification:'Bitstream Charter Bold'"
         id="path7588" />
      <path
         d="m 841.59147,431.93786 v 1.568 l 2.368,0.16 0.512,0.448 v 6.528 c -0.832,0.064 -1.44,0.096 -1.76,0.096 -4.928,0 -7.936,-3.36 -7.936,-9.12 0,-5.6 2.944,-8.928 7.712,-8.928 0.928,0 1.792,0.16 2.656,0.512 l 0.48,0.576 0.608,3.392 h 2.336 v -5.44 c -2.368,-0.704 -4.64,-1.056 -6.752,-1.056 -7.104,0 -11.68,4.384 -11.68,10.944 0,6.656 4.544,11.264 11.264,11.264 2.336,0 4.704,-0.448 7.168,-1.312 v -7.456 l 0.512,-0.448 1.856,-0.16 v -1.568 z"
         style="font-style:normal;font-variant:normal;font-weight:bold;font-stretch:normal;font-size:32px;font-family:'Bitstream Charter';-inkscape-font-specification:'Bitstream Charter Bold'"
         id="path7590" />
      <path
         d="m 852.59747,442.49786 h 7.904 v -1.44 l -1.408,-0.128 -0.448,-0.48 v -10.56 c 1.216,-0.352 2.24,-0.544 3.04,-0.544 2.016,0 2.88,1.088 2.88,3.456 v 7.648 l -0.448,0.48 -1.376,0.128 v 1.44 h 7.84 v -1.44 l -1.696,-0.128 -0.416,-0.48 v -8.576 c 0,-3.552 -1.408,-5.312 -4.352,-5.312 -1.408,0 -3.2,0.704 -5.472,1.952 v -1.888 h -1.536 l -4.608,1.504 v 1.28 h 2.176 v 11.04 l -0.448,0.48 -1.632,0.128 z"
         style="font-style:normal;font-variant:normal;font-weight:bold;font-stretch:normal;font-size:32px;font-family:'Bitstream Charter';-inkscape-font-specification:'Bitstream Charter Bold'"
         id="path7592" />
      <path
         d="m 890.69297,420.70586 -6.912,2.336 v 1.632 l 4.544,-0.672 0.288,0.384 v 15.744 l -0.384,0.576 -3.2,0.192 v 1.6 h 11.104 v -1.6 l -3.008,-0.128 -0.352,-0.512 v -19.552 z"
         style="font-style:normal;font-variant:normal;font-weight:bold;font-stretch:normal;font-size:32px;font-family:'Bitstream Charter';-inkscape-font-specification:'Bitstream Charter Bold'"
         id="path7594" />
      <path
         d="m 904.39147,426.88186 c -1.376,0 -2.496,1.12 -2.496,2.528 0,1.408 1.12,2.528 2.496,2.528 1.376,0 2.496,-1.12 2.496,-2.528 0,-1.408 -1.12,-2.528 -2.496,-2.528 z m 0,10.784 c -1.376,0 -2.496,1.12 -2.496,2.56 0,1.408 1.152,2.528 2.496,2.528 1.376,0 2.496,-1.12 2.496,-2.528 0,-1.44 -1.12,-2.56 -2.496,-2.56 z"
         style="font-style:normal;font-variant:normal;font-weight:bold;font-stretch:normal;font-size:32px;font-family:'Bitstream Charter';-inkscape-font-specification:'Bitstream Charter Bold'"
         id="path7596" />
      <path
         d="m 915.26647,439.23386 c 7.104,-4.832 10.816,-8.256 10.816,-12.352 0,-3.712 -2.72,-6.24 -7.008,-6.24 -4.608,0 -7.52,2.24 -7.52,4.896 0,1.344 0.896,2.24 2.304,2.24 0.64,0 1.312,-0.192 2.016,-0.576 v -4.128 c 0.64,-0.256 1.28,-0.384 1.856,-0.384 2.432,0 3.936,1.632 3.936,4.48 0,4 -3.648,7.552 -10.4,12.8 v 2.528 h 15.488 v -6.08 h -1.952 l -0.576,2.816 z"
         style="font-style:normal;font-variant:normal;font-weight:bold;font-stretch:normal;font-size:32px;font-family:'Bitstream Charter';-inkscape-font-specification:'Bitstream Charter Bold'"
         id="path7598" />
      <path
         d="m 943.30097,419.64986 c -8.288,0.032 -13.504,5.44 -13.504,13.6 0,6.048 3.104,9.664 8,9.664 4.768,0 8.192,-3.232 8.192,-7.872 0,-4.064 -2.88,-7.008 -6.624,-7.008 -1.792,0 -3.488,0.576 -5.088,1.632 0.8,-4.768 3.456,-7.456 7.68,-7.776 l 1.344,0.128 z m -9.216,11.744 c 1.056,-0.544 2.208,-0.8 3.424,-0.8 2.592,0 4.256,1.92 4.256,5.056 0,3.328 -1.504,5.28 -3.584,5.28 -2.592,0 -4.16,-2.56 -4.16,-7.616 0,-0.288 0.032,-0.96 0.064,-1.92 z"
         style="font-style:normal;font-variant:normal;font-weight:bold;font-stretch:normal;font-size:32px;font-family:'Bitstream Charter';-inkscape-font-specification:'Bitstream Charter Bold'"
         id="path7600" />
      <path
         d="m 948.00747,433.21786 v 3.136 h 8.128 v -3.136 z"
         style="font-style:normal;font-variant:normal;font-weight:bold;font-stretch:normal;font-size:32px;font-family:'Bitstream Charter';-inkscape-font-specification:'Bitstream Charter Bold'"
         id="path7602" />
      <path
         d="m 962.82897,439.23386 c 7.104,-4.832 10.816,-8.256 10.816,-12.352 0,-3.712 -2.72,-6.24 -7.008,-6.24 -4.608,0 -7.52,2.24 -7.52,4.896 0,1.344 0.896,2.24 2.304,2.24 0.64,0 1.312,-0.192 2.016,-0.576 v -4.128 c 0.64,-0.256 1.28,-0.384 1.856,-0.384 2.432,0 3.936,1.632 3.936,4.48 0,4 -3.648,7.552 -10.4,12.8 v 2.528 h 15.488 v -6.08 h -1.952 l -0.576,2.816 z"
         style="font-style:normal;font-variant:normal;font-weight:bold;font-stretch:normal;font-size:32px;font-family:'Bitstream Charter';-inkscape-font-specification:'Bitstream Charter Bold'"
         id="path7604" />
      <path
         d="m 986.95947,430.36986 c -3.232,-1.28 -4.8,-2.624 -4.8,-4.64 0,-1.856 1.28,-3.232 3.072,-3.232 2.016,0 3.392,1.6 3.392,3.936 0,1.568 -0.576,2.912 -1.664,3.936 z m 1.504,0.736 c 2.496,-1.088 3.776,-2.816 3.776,-4.96 0,-3.168 -2.56,-5.568 -6.688,-5.568 -4.544,0 -7.424,2.464 -7.424,6.112 0,2.272 1.152,3.968 3.392,4.992 -2.816,0.832 -4.32,2.592 -4.32,5.088 0,3.52 3.008,6.208 7.744,6.208 5.152,0 8.16,-2.624 8.16,-6.304 0,-2.688 -1.504,-4.448 -4.64,-5.568 z m -5.504,1.344 c 4.096,1.6 6.08,2.816 6.08,5.184 0,1.984 -1.504,3.392 -3.808,3.392 -2.432,0 -4.256,-1.92 -4.256,-4.608 0,-1.568 0.64,-2.752 1.984,-3.968 z"
         style="font-style:normal;font-variant:normal;font-weight:bold;font-stretch:normal;font-size:32px;font-family:'Bitstream Charter';-inkscape-font-specification:'Bitstream Charter Bold'"
         id="path7606" />
    </g>
  </g>
</svg>
