<?xml version="1.0" encoding="UTF-8" standalone="no"?>
<!-- Created with Inkscape (http://www.inkscape.org/) -->

<svg
   width="177.00235mm"
   height="8.2605896mm"
   viewBox="0 0 177.00235 8.2605895"
   version="1.1"
   id="svg8"
   xmlns="http://www.w3.org/2000/svg"
   xmlns:svg="http://www.w3.org/2000/svg"
   xmlns:rdf="http://www.w3.org/1999/02/22-rdf-syntax-ns#"
   xmlns:cc="http://creativecommons.org/ns#"
   xmlns:dc="http://purl.org/dc/elements/1.1/">
  <defs
     id="defs2" />
  <metadata
     id="metadata5">
    <rdf:RDF>
      <cc:Work
         rdf:about="">
        <dc:format>image/svg+xml</dc:format>
        <dc:type
           rdf:resource="http://purl.org/dc/dcmitype/StillImage" />
      </cc:Work>
    </rdf:RDF>
  </metadata>
  <g
     id="layer1"
     transform="translate(112.67046,-194.89083)"
     style="display:inline">
    <g
       aria-label="O propósito de Deus não é salvar o homem"
       transform="matrix(0.20491385,0,0,0.20491385,-505.59197,-76.331458)"
       style="font-style:normal;font-weight:normal;font-size:40px;line-height:1.25;font-family:sans-serif;letter-spacing:0px;word-spacing:0px;fill:#808080;fill-opacity:1;stroke:none"
       id="flowRoot4633">
      <path
         d="m 1931.0117,1329.0996 q -4.2969,0 -6.8359,3.2031 -2.5195,3.2032 -2.5195,8.7305 0,5.5078 2.5195,8.7109 2.539,3.2032 6.8359,3.2032 4.2969,0 6.7969,-3.2032 2.5195,-3.2031 2.5195,-8.7109 0,-5.5273 -2.5195,-8.7305 -2.5,-3.2031 -6.7969,-3.2031 z m 0,-3.2031 q 6.1328,0 9.8047,4.1211 3.6719,4.1015 3.6719,11.0156 0,6.8945 -3.6719,11.0156 -3.6719,4.1016 -9.8047,4.1016 -6.1523,0 -9.8437,-4.1016 -3.6719,-4.1015 -3.6719,-11.0156 0,-6.9141 3.6719,-11.0156 3.6914,-4.1211 9.8437,-4.1211 z"
         id="path7774" />
      <path
         d="m 1966.7148,1352.3027 v 11.6016 h -3.6132 v -30.1953 h 3.6132 v 3.3203 q 1.1329,-1.9531 2.8516,-2.8906 1.7383,-0.9571 4.1406,-0.9571 3.9844,0 6.4649,3.1641 2.5,3.1641 2.5,8.3203 0,5.1563 -2.5,8.3203 -2.4805,3.1641 -6.4649,3.1641 -2.4023,0 -4.1406,-0.9375 -1.7187,-0.957 -2.8516,-2.9102 z m 12.2266,-7.6367 q 0,-3.9648 -1.6406,-6.2109 -1.6211,-2.2656 -4.4727,-2.2656 -2.8515,0 -4.4922,2.2656 -1.6211,2.2461 -1.6211,6.2109 0,3.9649 1.6211,6.2305 1.6407,2.2461 4.4922,2.2461 2.8516,0 4.4727,-2.2461 1.6406,-2.2656 1.6406,-6.2305 z"
         id="path7776" />
      <path
         d="m 2001.3047,1337.0684 q -0.6055,-0.3516 -1.3281,-0.5079 -0.7032,-0.1757 -1.5625,-0.1757 -3.0469,0 -4.6875,1.9922 -1.6211,1.9726 -1.6211,5.6835 v 11.5235 h -3.6133 v -21.875 h 3.6133 v 3.3984 q 1.1328,-1.9922 2.9492,-2.9492 1.8164,-0.9766 4.4141,-0.9766 0.371,0 0.8203,0.059 0.4492,0.039 0.9961,0.1368 z"
         id="path7778" />
      <path
         d="m 2012.7305,1336.2285 q -2.8907,0 -4.5703,2.2656 -1.6797,2.2461 -1.6797,6.1719 0,3.9258 1.6601,6.1914 1.6797,2.2461 4.5899,2.2461 2.8711,0 4.5508,-2.2656 1.6796,-2.2656 1.6796,-6.1719 0,-3.8867 -1.6796,-6.1523 -1.6797,-2.2852 -4.5508,-2.2852 z m 0,-3.0469 q 4.6875,0 7.3633,3.0469 2.6757,3.0469 2.6757,8.4375 0,5.3711 -2.6757,8.4375 -2.6758,3.0469 -7.3633,3.0469 -4.7071,0 -7.3828,-3.0469 -2.6563,-3.0664 -2.6563,-8.4375 0,-5.3906 2.6563,-8.4375 2.6757,-3.0469 7.3828,-3.0469 z"
         id="path7780" />
      <path
         d="m 2032.1836,1352.3027 v 11.6016 h -3.6133 v -30.1953 h 3.6133 v 3.3203 q 1.1328,-1.9531 2.8516,-2.8906 1.7382,-0.9571 4.1406,-0.9571 3.9844,0 6.4648,3.1641 2.5,3.1641 2.5,8.3203 0,5.1563 -2.5,8.3203 -2.4804,3.1641 -6.4648,3.1641 -2.4024,0 -4.1406,-0.9375 -1.7188,-0.957 -2.8516,-2.9102 z m 12.2266,-7.6367 q 0,-3.9648 -1.6407,-6.2109 -1.6211,-2.2656 -4.4726,-2.2656 -2.8516,0 -4.4922,2.2656 -1.6211,2.2461 -1.6211,6.2109 0,3.9649 1.6211,6.2305 1.6406,2.2461 4.4922,2.2461 2.8515,0 4.4726,-2.2461 1.6407,-2.2656 1.6407,-6.2305 z"
         id="path7782" />
      <path
         d="m 2062.5742,1336.2285 q -2.8906,0 -4.5703,2.2656 -1.6797,2.2461 -1.6797,6.1719 0,3.9258 1.6602,6.1914 1.6797,2.2461 4.5898,2.2461 2.8711,0 4.5508,-2.2656 1.6797,-2.2656 1.6797,-6.1719 0,-3.8867 -1.6797,-6.1523 -1.6797,-2.2852 -4.5508,-2.2852 z m 0,-3.0469 q 4.6875,0 7.3633,3.0469 2.6758,3.0469 2.6758,8.4375 0,5.3711 -2.6758,8.4375 -2.6758,3.0469 -7.3633,3.0469 -4.707,0 -7.3828,-3.0469 -2.6562,-3.0664 -2.6562,-8.4375 0,-5.3906 2.6562,-8.4375 2.6758,-3.0469 7.3828,-3.0469 z m 2.7149,-9.5898 h 3.8867 l -6.3672,7.3437 h -2.9883 z"
         id="path7784" />
      <path
         d="m 2092.4961,1334.3535 v 3.3985 q -1.5234,-0.7813 -3.1641,-1.1719 -1.6406,-0.3906 -3.3984,-0.3906 -2.6758,0 -4.0234,0.8203 -1.3282,0.8203 -1.3282,2.4609 0,1.25 0.9571,1.9727 0.957,0.7031 3.8476,1.3476 l 1.2305,0.2735 q 3.8281,0.8203 5.4297,2.3242 1.6211,1.4843 1.6211,4.1601 0,3.0469 -2.4219,4.8242 -2.4023,1.7774 -6.6211,1.7774 -1.7578,0 -3.6719,-0.3516 -1.8945,-0.332 -4.0039,-1.0156 v -3.7109 q 1.9922,1.0351 3.9258,1.5625 1.9336,0.5078 3.8281,0.5078 2.5391,0 3.9063,-0.8594 1.3672,-0.8789 1.3672,-2.4609 0,-1.4649 -0.9961,-2.2461 -0.9766,-0.7813 -4.3164,-1.5039 l -1.25,-0.293 q -3.3399,-0.7031 -4.8243,-2.1484 -1.4843,-1.4649 -1.4843,-4.0039 0,-3.086 2.1875,-4.7657 2.1875,-1.6797 6.2109,-1.6797 1.9922,0 3.75,0.293 1.7578,0.293 3.2422,0.8789 z"
         id="path7786" />
      <path
         d="m 2099.4102,1333.709 h 3.5937 v 21.875 h -3.5937 z m 0,-8.5156 h 3.5937 v 4.5507 h -3.5937 z"
         id="path7788" />
      <path
         d="m 2114.0586,1327.498 v 6.211 h 7.4023 v 2.793 h -7.4023 v 11.875 q 0,2.6757 0.7227,3.4375 0.7421,0.7617 2.9882,0.7617 h 3.6914 v 3.0078 h -3.6914 q -4.1601,0 -5.7422,-1.543 -1.582,-1.5625 -1.582,-5.664 v -11.875 h -2.6367 v -2.793 h 2.6367 v -6.211 z"
         id="path7790" />
      <path
         d="m 2134.6836,1336.2285 q -2.8906,0 -4.5703,2.2656 -1.6797,2.2461 -1.6797,6.1719 0,3.9258 1.6602,6.1914 1.6796,2.2461 4.5898,2.2461 2.8711,0 4.5508,-2.2656 1.6797,-2.2656 1.6797,-6.1719 0,-3.8867 -1.6797,-6.1523 -1.6797,-2.2852 -4.5508,-2.2852 z m 0,-3.0469 q 4.6875,0 7.3633,3.0469 2.6758,3.0469 2.6758,8.4375 0,5.3711 -2.6758,8.4375 -2.6758,3.0469 -7.3633,3.0469 -4.707,0 -7.3828,-3.0469 -2.6563,-3.0664 -2.6563,-8.4375 0,-5.3906 2.6563,-8.4375 2.6758,-3.0469 7.3828,-3.0469 z"
         id="path7792" />
      <path
         d="m 2177.7891,1337.0293 v -11.8359 h 3.5937 v 30.3906 h -3.5937 v -3.2813 q -1.1328,1.9532 -2.8711,2.9102 -1.7188,0.9375 -4.1407,0.9375 -3.9648,0 -6.4648,-3.1641 -2.4805,-3.164 -2.4805,-8.3203 0,-5.1562 2.4805,-8.3203 2.5,-3.1641 6.4648,-3.1641 2.4219,0 4.1407,0.9571 1.7383,0.9375 2.8711,2.8906 z m -12.2461,7.6367 q 0,3.9649 1.6211,6.2305 1.6406,2.2461 4.4922,2.2461 2.8515,0 4.4921,-2.2461 1.6407,-2.2656 1.6407,-6.2305 0,-3.9648 -1.6407,-6.2109 -1.6406,-2.2656 -4.4921,-2.2656 -2.8516,0 -4.4922,2.2656 -1.6211,2.2461 -1.6211,6.2109 z"
         id="path7794" />
      <path
         d="m 2207.4961,1343.748 v 1.7579 h -16.5234 q 0.2343,3.7109 2.2265,5.664 2.0117,1.9336 5.586,1.9336 2.0703,0 4.0039,-0.5078 1.9531,-0.5078 3.8672,-1.5234 v 3.3984 q -1.9336,0.8203 -3.9649,1.25 -2.0312,0.4297 -4.1211,0.4297 -5.2344,0 -8.3008,-3.0469 -3.0468,-3.0469 -3.0468,-8.2422 0,-5.3711 2.8906,-8.5156 2.9101,-3.1641 7.832,-3.1641 4.4141,0 6.9727,2.8516 2.5781,2.832 2.5781,7.7148 z m -3.5938,-1.0546 q -0.039,-2.9493 -1.6601,-4.7071 -1.6016,-1.7578 -4.2578,-1.7578 -3.0078,0 -4.8242,1.6992 -1.7969,1.6993 -2.0704,4.7852 z"
         id="path7796" />
      <path
         d="m 2230.2305,1329.666 v 22.6758 h 4.7656 q 6.0352,0 8.8281,-2.7344 2.8125,-2.7344 2.8125,-8.6328 0,-5.8594 -2.8125,-8.5742 -2.7929,-2.7344 -8.8281,-2.7344 z m -3.9453,-3.2422 h 8.1054 q 8.4766,0 12.4414,3.5352 3.9649,3.5156 3.9649,11.0156 0,7.5391 -3.9844,11.0742 -3.9844,3.5352 -12.4219,3.5352 h -8.1054 z"
         id="path7798" />
      <path
         d="m 2275.6211,1343.748 v 1.7579 h -16.5234 q 0.2343,3.7109 2.2265,5.664 2.0117,1.9336 5.586,1.9336 2.0703,0 4.0039,-0.5078 1.9531,-0.5078 3.8672,-1.5234 v 3.3984 q -1.9336,0.8203 -3.9649,1.25 -2.0312,0.4297 -4.1211,0.4297 -5.2344,0 -8.3008,-3.0469 -3.0468,-3.0469 -3.0468,-8.2422 0,-5.3711 2.8906,-8.5156 2.9101,-3.1641 7.832,-3.1641 4.4141,0 6.9727,2.8516 2.5781,2.832 2.5781,7.7148 z m -3.5938,-1.0546 q -0.039,-2.9493 -1.6601,-4.7071 -1.6016,-1.7578 -4.2578,-1.7578 -3.0078,0 -4.8242,1.6992 -1.7969,1.6993 -2.0704,4.7852 z"
         id="path7800" />
      <path
         d="m 2281.1484,1346.9512 v -13.2422 h 3.5938 v 13.1055 q 0,3.1054 1.2109,4.6679 1.211,1.543 3.6328,1.543 2.9102,0 4.5899,-1.8555 1.6992,-1.8554 1.6992,-5.0586 v -12.4023 h 3.5938 v 21.875 h -3.5938 v -3.3594 q -1.3086,1.9922 -3.0469,2.9688 -1.7187,0.957 -4.0039,0.957 -3.7695,0 -5.7226,-2.3438 -1.9532,-2.3437 -1.9532,-6.8554 z m 9.043,-13.7696 z"
         id="path7802" />
      <path
         d="m 2320.8555,1334.3535 v 3.3985 q -1.5235,-0.7813 -3.1641,-1.1719 -1.6406,-0.3906 -3.3984,-0.3906 -2.6758,0 -4.0235,0.8203 -1.3281,0.8203 -1.3281,2.4609 0,1.25 0.957,1.9727 0.9571,0.7031 3.8477,1.3476 l 1.2305,0.2735 q 3.8281,0.8203 5.4297,2.3242 1.621,1.4843 1.621,4.1601 0,3.0469 -2.4218,4.8242 -2.4024,1.7774 -6.6211,1.7774 -1.7578,0 -3.6719,-0.3516 -1.8945,-0.332 -4.0039,-1.0156 v -3.7109 q 1.9922,1.0351 3.9258,1.5625 1.9336,0.5078 3.8281,0.5078 2.5391,0 3.9063,-0.8594 1.3671,-0.8789 1.3671,-2.4609 0,-1.4649 -0.9961,-2.2461 -0.9765,-0.7813 -4.3164,-1.5039 l -1.25,-0.293 q -3.3398,-0.7031 -4.8242,-2.1484 -1.4844,-1.4649 -1.4844,-4.0039 0,-3.086 2.1875,-4.7657 2.1875,-1.6797 6.211,-1.6797 1.9922,0 3.75,0.293 1.7578,0.293 3.2422,0.8789 z"
         id="path7804" />
      <path
         d="m 2358.6875,1342.3809 v 13.2031 h -3.5937 v -13.086 q 0,-3.1054 -1.211,-4.6484 -1.2109,-1.543 -3.6328,-1.543 -2.9102,0 -4.5898,1.8555 -1.6797,1.8555 -1.6797,5.0586 v 12.3633 h -3.6133 v -21.875 h 3.6133 v 3.3984 q 1.289,-1.9726 3.0273,-2.9492 1.7578,-0.9766 4.043,-0.9766 3.7695,0 5.7031,2.3438 1.9336,2.3242 1.9336,6.8555 z"
         id="path7806" />
      <path
         d="m 2375.8359,1344.5879 q -4.3554,0 -6.0351,0.9961 -1.6797,0.9961 -1.6797,3.3984 0,1.9141 1.25,3.0469 1.2695,1.1133 3.4375,1.1133 2.9883,0 4.7852,-2.1094 1.8164,-2.1289 1.8164,-5.6445 v -0.8008 z m 7.168,-1.4844 v 12.4805 h -3.5937 v -3.3203 q -1.2305,1.9922 -3.0664,2.9492 -1.836,0.9375 -4.4922,0.9375 -3.3594,0 -5.3516,-1.875 -1.9727,-1.8945 -1.9727,-5.0586 0,-3.6914 2.461,-5.5664 2.4805,-1.875 7.3828,-1.875 h 5.0391 v -0.3516 q 0,-2.4804 -1.6407,-3.8281 -1.6211,-1.3672 -4.5703,-1.3672 -1.875,0 -3.6523,0.4492 -1.7774,0.4493 -3.418,1.3477 v -3.3203 q 1.9727,-0.7617 3.8281,-1.1328 1.8555,-0.3907 3.6133,-0.3907 4.7461,0 7.0899,2.461 2.3437,2.4609 2.3437,7.4609 z m -9.3555,-14.2773 -1.1132,-1.0742 q -0.4297,-0.3907 -0.7618,-0.5665 -0.3125,-0.1953 -0.5664,-0.1953 -0.7422,0 -1.0937,0.7227 -0.3516,0.7031 -0.3906,2.3047 h -2.4414 q 0.039,-2.6367 1.0351,-4.0625 0.9961,-1.4453 2.7734,-1.4453 0.7422,0 1.3672,0.2734 0.625,0.2734 1.3477,0.918 l 1.1133,1.0742 q 0.4297,0.3906 0.7422,0.5859 0.332,0.1758 0.5859,0.1758 0.7422,0 1.0937,-0.7031 0.3516,-0.7227 0.3907,-2.3242 h 2.4414 q -0.039,2.6367 -1.0352,4.082 -0.9961,1.4258 -2.7734,1.4258 -0.7422,0 -1.3672,-0.2735 -0.625,-0.2734 -1.3477,-0.9179 z"
         id="path7808" />
      <path
         d="m 2398.9023,1336.2285 q -2.8906,0 -4.5703,2.2656 -1.6797,2.2461 -1.6797,6.1719 0,3.9258 1.6602,6.1914 1.6797,2.2461 4.5898,2.2461 2.8711,0 4.5508,-2.2656 1.6797,-2.2656 1.6797,-6.1719 0,-3.8867 -1.6797,-6.1523 -1.6797,-2.2852 -4.5508,-2.2852 z m 0,-3.0469 q 4.6875,0 7.3633,3.0469 2.6758,3.0469 2.6758,8.4375 0,5.3711 -2.6758,8.4375 -2.6758,3.0469 -7.3633,3.0469 -4.707,0 -7.3828,-3.0469 -2.6562,-3.0664 -2.6562,-8.4375 0,-5.3906 2.6562,-8.4375 2.6758,-3.0469 7.3828,-3.0469 z"
         id="path7810" />
      <path
         d="m 2446.3242,1343.748 v 1.7579 h -16.5234 q 0.2344,3.7109 2.2265,5.664 2.0118,1.9336 5.586,1.9336 2.0703,0 4.0039,-0.5078 1.9531,-0.5078 3.8672,-1.5234 v 3.3984 q -1.9336,0.8203 -3.9649,1.25 -2.0312,0.4297 -4.1211,0.4297 -5.2343,0 -8.3007,-3.0469 -3.0469,-3.0469 -3.0469,-8.2422 0,-5.3711 2.8906,-8.5156 2.9102,-3.1641 7.832,-3.1641 4.4141,0 6.9727,2.8516 2.5781,2.832 2.5781,7.7148 z m -3.5937,-1.0546 q -0.039,-2.9493 -1.6602,-4.7071 -1.6015,-1.7578 -4.2578,-1.7578 -3.0078,0 -4.8242,1.6992 -1.7969,1.6993 -2.0703,4.7852 z m -3.4571,-19.1016 h 3.8868 l -6.3672,7.3437 h -2.9883 z"
         id="path7812" />
      <path
         d="m 2478.9023,1334.3535 v 3.3985 q -1.5234,-0.7813 -3.164,-1.1719 -1.6406,-0.3906 -3.3985,-0.3906 -2.6757,0 -4.0234,0.8203 -1.3281,0.8203 -1.3281,2.4609 0,1.25 0.957,1.9727 0.957,0.7031 3.8477,1.3476 l 1.2304,0.2735 q 3.8282,0.8203 5.4297,2.3242 1.6211,1.4843 1.6211,4.1601 0,3.0469 -2.4219,4.8242 -2.4023,1.7774 -6.621,1.7774 -1.7579,0 -3.6719,-0.3516 -1.8946,-0.332 -4.0039,-1.0156 v -3.7109 q 1.9922,1.0351 3.9258,1.5625 1.9335,0.5078 3.8281,0.5078 2.539,0 3.9062,-0.8594 1.3672,-0.8789 1.3672,-2.4609 0,-1.4649 -0.9961,-2.2461 -0.9765,-0.7813 -4.3164,-1.5039 l -1.25,-0.293 q -3.3398,-0.7031 -4.8242,-2.1484 -1.4844,-1.4649 -1.4844,-4.0039 0,-3.086 2.1875,-4.7657 2.1875,-1.6797 6.211,-1.6797 1.9921,0 3.75,0.293 1.7578,0.293 3.2421,0.8789 z"
         id="path7814" />
      <path
         d="m 2495.7578,1344.5879 q -4.3555,0 -6.0351,0.9961 -1.6797,0.9961 -1.6797,3.3984 0,1.9141 1.25,3.0469 1.2695,1.1133 3.4375,1.1133 2.9883,0 4.7851,-2.1094 1.8164,-2.1289 1.8164,-5.6445 v -0.8008 z m 7.168,-1.4844 v 12.4805 h -3.5938 v -3.3203 q -1.2304,1.9922 -3.0664,2.9492 -1.8359,0.9375 -4.4922,0.9375 -3.3593,0 -5.3515,-1.875 -1.9727,-1.8945 -1.9727,-5.0586 0,-3.6914 2.461,-5.5664 2.4804,-1.875 7.3828,-1.875 h 5.039 v -0.3516 q 0,-2.4804 -1.6406,-3.8281 -1.6211,-1.3672 -4.5703,-1.3672 -1.875,0 -3.6523,0.4492 -1.7774,0.4493 -3.418,1.3477 v -3.3203 q 1.9726,-0.7617 3.8281,-1.1328 1.8555,-0.3907 3.6133,-0.3907 4.7461,0 7.0898,2.461 2.3438,2.4609 2.3438,7.4609 z"
         id="path7816" />
      <path
         d="m 2510.3477,1325.1934 h 3.5937 v 30.3906 h -3.5937 z"
         id="path7818" />
      <path
         d="m 2518.8633,1333.709 h 3.8086 l 6.8359,18.3594 6.836,-18.3594 h 3.8085 l -8.2031,21.875 h -4.8828 z"
         id="path7820" />
      <path
         d="m 2555.0547,1344.5879 q -4.3555,0 -6.0352,0.9961 -1.6797,0.9961 -1.6797,3.3984 0,1.9141 1.25,3.0469 1.2696,1.1133 3.4375,1.1133 2.9883,0 4.7852,-2.1094 1.8164,-2.1289 1.8164,-5.6445 v -0.8008 z m 7.168,-1.4844 v 12.4805 h -3.5938 v -3.3203 q -1.2305,1.9922 -3.0664,2.9492 -1.8359,0.9375 -4.4922,0.9375 -3.3594,0 -5.3515,-1.875 -1.9727,-1.8945 -1.9727,-5.0586 0,-3.6914 2.4609,-5.5664 2.4805,-1.875 7.3828,-1.875 h 5.0391 v -0.3516 q 0,-2.4804 -1.6406,-3.8281 -1.6211,-1.3672 -4.5703,-1.3672 -1.875,0 -3.6524,0.4492 -1.7773,0.4493 -3.4179,1.3477 v -3.3203 q 1.9726,-0.7617 3.8281,-1.1328 1.8555,-0.3907 3.6133,-0.3907 4.7461,0 7.0898,2.461 2.3438,2.4609 2.3438,7.4609 z"
         id="path7822" />
      <path
         d="m 2582.3203,1337.0684 q -0.6055,-0.3516 -1.3281,-0.5079 -0.7031,-0.1757 -1.5625,-0.1757 -3.0469,0 -4.6875,1.9922 -1.6211,1.9726 -1.6211,5.6835 v 11.5235 h -3.6133 v -21.875 h 3.6133 v 3.3984 q 1.1328,-1.9922 2.9492,-2.9492 1.8164,-0.9766 4.4141,-0.9766 0.3711,0 0.8203,0.059 0.4492,0.039 0.9961,0.1368 z"
         id="path7824" />
      <path
         d="m 2607.3398,1336.2285 q -2.8906,0 -4.5703,2.2656 -1.6797,2.2461 -1.6797,6.1719 0,3.9258 1.6602,6.1914 1.6797,2.2461 4.5898,2.2461 2.8711,0 4.5508,-2.2656 1.6797,-2.2656 1.6797,-6.1719 0,-3.8867 -1.6797,-6.1523 -1.6797,-2.2852 -4.5508,-2.2852 z m 0,-3.0469 q 4.6875,0 7.3633,3.0469 2.6758,3.0469 2.6758,8.4375 0,5.3711 -2.6758,8.4375 -2.6758,3.0469 -7.3633,3.0469 -4.707,0 -7.3828,-3.0469 -2.6562,-3.0664 -2.6562,-8.4375 0,-5.3906 2.6562,-8.4375 2.6758,-3.0469 7.3828,-3.0469 z"
         id="path7826" />
      <path
         d="m 2654.2344,1342.3809 v 13.2031 h -3.5938 v -13.086 q 0,-3.1054 -1.2109,-4.6484 -1.2109,-1.543 -3.6328,-1.543 -2.9102,0 -4.5899,1.8555 -1.6797,1.8555 -1.6797,5.0586 v 12.3633 h -3.6132 v -30.3906 h 3.6132 v 11.914 q 1.2891,-1.9726 3.0274,-2.9492 1.7578,-0.9766 4.043,-0.9766 3.7695,0 5.7031,2.3438 1.9336,2.3242 1.9336,6.8555 z"
         id="path7828" />
      <path
         d="m 2669.918,1336.2285 q -2.8907,0 -4.5703,2.2656 -1.6797,2.2461 -1.6797,6.1719 0,3.9258 1.6601,6.1914 1.6797,2.2461 4.5899,2.2461 2.8711,0 4.5508,-2.2656 1.6796,-2.2656 1.6796,-6.1719 0,-3.8867 -1.6796,-6.1523 -1.6797,-2.2852 -4.5508,-2.2852 z m 0,-3.0469 q 4.6875,0 7.3633,3.0469 2.6757,3.0469 2.6757,8.4375 0,5.3711 -2.6757,8.4375 -2.6758,3.0469 -7.3633,3.0469 -4.7071,0 -7.3828,-3.0469 -2.6563,-3.0664 -2.6563,-8.4375 0,-5.3906 2.6563,-8.4375 2.6757,-3.0469 7.3828,-3.0469 z"
         id="path7830" />
      <path
         d="m 2702.9258,1337.9082 q 1.3476,-2.4219 3.2226,-3.5742 1.875,-1.1524 4.4141,-1.1524 3.418,0 5.2734,2.4024 1.8555,2.3828 1.8555,6.7969 v 13.2031 h -3.6133 v -13.086 q 0,-3.1445 -1.1133,-4.6679 -1.1132,-1.5235 -3.3984,-1.5235 -2.793,0 -4.4141,1.8555 -1.621,1.8555 -1.621,5.0586 v 12.3633 h -3.6133 v -13.086 q 0,-3.164 -1.1133,-4.6679 -1.1133,-1.5235 -3.4375,-1.5235 -2.7539,0 -4.375,1.875 -1.6211,1.8555 -1.6211,5.0391 v 12.3633 h -3.6133 v -21.875 h 3.6133 v 3.3984 q 1.2305,-2.0117 2.9492,-2.9687 1.7188,-0.9571 4.082,-0.9571 2.3829,0 4.043,1.211 1.6797,1.2109 2.4805,3.5156 z"
         id="path7832" />
      <path
         d="m 2743.5898,1343.748 v 1.7579 h -16.5234 q 0.2344,3.7109 2.2266,5.664 2.0117,1.9336 5.5859,1.9336 2.0703,0 4.0039,-0.5078 1.9531,-0.5078 3.8672,-1.5234 v 3.3984 q -1.9336,0.8203 -3.9648,1.25 -2.0313,0.4297 -4.1211,0.4297 -5.2344,0 -8.3008,-3.0469 -3.0469,-3.0469 -3.0469,-8.2422 0,-5.3711 2.8906,-8.5156 2.9102,-3.1641 7.8321,-3.1641 4.414,0 6.9726,2.8516 2.5781,2.832 2.5781,7.7148 z m -3.5937,-1.0546 q -0.039,-2.9493 -1.6602,-4.7071 -1.6015,-1.7578 -4.2578,-1.7578 -3.0078,0 -4.8242,1.6992 -1.7969,1.6993 -2.0703,4.7852 z"
         id="path7834" />
      <path
         d="m 2766.5195,1337.9082 q 1.3477,-2.4219 3.2227,-3.5742 1.875,-1.1524 4.4141,-1.1524 3.4179,0 5.2734,2.4024 1.8555,2.3828 1.8555,6.7969 v 13.2031 h -3.6133 v -13.086 q 0,-3.1445 -1.1133,-4.6679 -1.1133,-1.5235 -3.3984,-1.5235 -2.793,0 -4.4141,1.8555 -1.6211,1.8555 -1.6211,5.0586 v 12.3633 h -3.6133 v -13.086 q 0,-3.164 -1.1133,-4.6679 -1.1132,-1.5235 -3.4375,-1.5235 -2.7539,0 -4.375,1.875 -1.6211,1.8555 -1.6211,5.0391 v 12.3633 h -3.6132 v -21.875 h 3.6132 v 3.3984 q 1.2305,-2.0117 2.9493,-2.9687 1.7187,-0.9571 4.082,-0.9571 2.3828,0 4.043,1.211 1.6797,1.2109 2.4804,3.5156 z"
         id="path7836" />
    </g>
  </g>
</svg>
