<?xml version="1.0" encoding="UTF-8" standalone="no"?>
<!-- Created with Inkscape (http://www.inkscape.org/) -->

<svg
   width="254.87395mm"
   height="12.054417mm"
   viewBox="0 0 254.87395 12.054417"
   version="1.1"
   id="svg8"
   xmlns="http://www.w3.org/2000/svg"
   xmlns:svg="http://www.w3.org/2000/svg"
   xmlns:rdf="http://www.w3.org/1999/02/22-rdf-syntax-ns#"
   xmlns:cc="http://creativecommons.org/ns#"
   xmlns:dc="http://purl.org/dc/elements/1.1/">
  <defs
     id="defs2" />
  <metadata
     id="metadata5">
    <rdf:RDF>
      <cc:Work
         rdf:about="">
        <dc:format>image/svg+xml</dc:format>
        <dc:type
           rdf:resource="http://purl.org/dc/dcmitype/StillImage" />
      </cc:Work>
    </rdf:RDF>
  </metadata>
  <g
     id="layer1"
     transform="translate(-308.97471,91.071051)"
     style="display:inline">
    <g
       aria-label="JUSTIFICAÇÃO   ·   SANTIFICAÇÃO   ·   REDENÇÃO"
       transform="matrix(0.26458333,0,0,0.26458333,-216.06961,-393.53557)"
       style="font-style:normal;font-variant:normal;font-weight:bold;font-stretch:normal;font-size:40px;line-height:1.25;font-family:'Bitstream Charter';-inkscape-font-specification:'Bitstream Charter Bold';letter-spacing:0.57px;word-spacing:0px;fill:#000000;fill-opacity:1;stroke:none"
       id="flowRoot6020">
      <path
         d="m 1994.1795,1155.413 v 13.68 c 0,5.84 -1.08,8.6 -4.72,8.6 -0.2,0 -0.44,-0.04 -0.64,-0.04 l -0.56,-0.52 -0.92,-5.28 h -2.92 v 7.2 c 1.96,0.64 3.84,0.96 5.72,0.96 6.52,0 9.28,-3.48 9.28,-10.96 v -13.64 l 0.64,-0.56 2.44,-0.2 v -1.96 h -11.76 v 1.96 l 2.8,0.2 z"
         id="path7256" />
      <path
         d="m 2003.9032,1152.693 v 1.96 l 2.52,0.2 0.56,0.56 v 13.84 c 0,3.08 0.2,5.44 1.76,7.48 1.64,2.08 4.6,3.28 8.56,3.28 7.52,0 10.56,-3.24 10.56,-10.56 v -13.88 l 0.56,-0.68 2.44,-0.24 v -1.96 h -9.08 v 1.96 l 2.56,0.24 0.6,0.68 v 13.48 c 0,5.32 -1.64,7.8 -6.08,7.8 -4.8,0 -6.52,-2.28 -6.52,-7.44 v -14 l 0.56,-0.56 2.48,-0.2 v -1.96 z"
         id="path7258" />
      <path
         d="m 2034.2363,1178.653 c 2.48,0.88 5.16,1.32 7.72,1.32 6.56,0 10.6,-3.44 10.6,-8.2 0,-2.36 -1.28,-4.52 -3.6,-6 -2.36,-1.52 -4.48,-2.12 -5.72,-2.88 -2.12,-1.28 -3.24,-2.48 -3.24,-4.32 0,-2.2 1.8,-3.8 4.72,-3.8 1.28,0 2.2,0.2 2.92,0.56 l 0.56,0.56 0.68,4.16 h 2.88 v -6.48 c -2.52,-0.88 -5.04,-1.36 -7.52,-1.36 -5.72,0 -9.44,3.44 -9.44,7.88 0,1.96 0.96,3.92 2.8,5.48 1.76,1.48 3.64,2.16 5.24,2.96 2.84,1.44 4.28,2.88 4.28,5.04 0,2.2 -1.92,3.8 -5.16,3.8 -1.24,0 -2.4,-0.2 -3.52,-0.56 l -0.52,-0.6 -0.64,-4.8 h -3.04 z"
         id="path7260" />
      <path
         d="m 2055.8207,1152.693 v 7.08 h 2.76 l 0.64,-4.28 0.64,-0.52 h 4.8 v 21.76 l -0.68,0.64 -2.6,0.2 v 1.96 h 11.96 v -1.96 l -2.6,-0.2 -0.68,-0.64 v -21.76 h 4.8 l 0.6,0.52 0.68,4.28 h 2.76 v -7.08 z"
         id="path7262" />
      <path
         d="m 2081.0913,1179.533 h 11.96 v -1.96 l -2.68,-0.2 -0.64,-0.64 v -21.32 l 0.64,-0.56 2.68,-0.2 v -1.96 h -11.96 v 1.96 l 2.64,0.2 0.64,0.56 v 21.32 l -0.64,0.64 -2.64,0.2 z"
         id="path7264" />
      <path
         d="m 2095.802,1179.533 h 11.8 v -1.96 l -2.8,-0.2 -0.68,-0.64 v -9.32 h 5.36 l 0.56,0.52 0.4,2.92 h 2.36 v -9.32 h -2.36 l -0.4,2.92 -0.56,0.52 h -5.36 v -9.96 h 7.72 l 0.52,0.52 0.6,3.88 h 2.76 v -6.72 h -20.08 v 1.96 l 2.56,0.2 0.64,0.56 v 21.32 l -0.64,0.64 -2.4,0.2 z"
         id="path7266" />
      <path
         d="m 2118.4813,1179.533 h 11.96 v -1.96 l -2.68,-0.2 -0.64,-0.64 v -21.32 l 0.64,-0.56 2.68,-0.2 v -1.96 h -11.96 v 1.96 l 2.64,0.2 0.64,0.56 v 21.32 l -0.64,0.64 -2.64,0.2 z"
         id="path7268" />
      <path
         d="m 2156.032,1178.573 v -6.88 h -2.88 l -1,4.84 -0.6,0.6 c -0.96,0.24 -1.76,0.36 -2.44,0.36 -5.96,0 -9.6,-4.24 -9.6,-11.4 0,-7.08 3.6,-11.28 9.08,-11.28 1.04,0 2.08,0.2 3.16,0.6 l 0.56,0.68 0.76,4.28 h 2.96 v -6.68 c -2.68,-0.96 -5.4,-1.48 -8.16,-1.48 -4.16,0 -7.56,1.24 -10.08,3.68 -2.72,2.6 -4.16,6.16 -4.16,10.24 0,5.12 2.48,9.6 6.64,12.08 1.96,1.16 4.48,1.8 7.36,1.8 2.92,0 5.72,-0.48 8.4,-1.44 z"
         id="path7270" />
      <path
         d="m 2169.1088,1152.413 -9.04,24.8 -2.4,0.36 v 1.96 h 8.6 v -1.96 l -2.52,-0.28 -0.4,-0.52 2.4,-6.76 h 8.72 l 2.4,6.8 -0.28,0.52 -2.52,0.24 v 1.96 h 10.8 v -1.96 l -2.36,-0.4 -9.2,-24.76 z m 0.88,5.48 3.56,9.88 h -7.04 z"
         id="path7272" />
      <path
         d="m 2208.7345,1178.573 v -6.88 h -2.88 l -1,4.84 -0.6,0.6 c -0.96,0.24 -1.76,0.36 -2.44,0.36 -5.96,0 -9.6,-4.24 -9.6,-11.4 0,-7.08 3.6,-11.28 9.08,-11.28 1.04,0 2.08,0.2 3.16,0.6 l 0.56,0.68 0.76,4.28 h 2.96 v -6.68 c -2.68,-0.96 -5.4,-1.48 -8.16,-1.48 -4.16,0 -7.56,1.24 -10.08,3.68 -2.72,2.6 -4.16,6.16 -4.16,10.24 0,5.12 2.48,9.6 6.64,12.08 1.96,1.16 4.48,1.8 7.36,1.8 2.92,0 5.72,-0.48 8.4,-1.44 z m -9.52,0.96 v 4.48 c 0.32,-0.04 0.6,-0.08 0.88,-0.08 1.16,0 1.8,0.52 1.8,1.32 0,0.96 -0.84,1.48 -2.48,1.48 -0.6,0 -1.4,-0.12 -2.44,-0.32 v 1.88 c 1.12,0.28 2.16,0.44 3.24,0.44 2.96,0 4.8,-1.6 4.8,-3.92 0,-1.88 -1.16,-3.04 -3.24,-3.04 -0.2,0 -0.44,0 -0.64,0.04 v -2.28 z"
         id="path7274" />
      <path
         d="m 2221.8113,1152.413 -9.04,24.8 -2.4,0.36 v 1.96 h 8.6 v -1.96 l -2.52,-0.28 -0.4,-0.52 2.4,-6.76 h 8.72 l 2.4,6.8 -0.28,0.52 -2.52,0.24 v 1.96 h 10.8 v -1.96 l -2.36,-0.4 -9.2,-24.76 z m 0.88,5.48 3.56,9.88 h -7.04 z m 5.44,-14.72 c 0,0.12 0,0.24 0,0.32 0,1.48 -0.52,2.2 -1.56,2.2 -1.4,0 -3.4,-1.88 -5.76,-1.88 -2.2,0 -3.48,1.68 -3.48,4.76 0,0.2 0,0.44 0,0.68 h 2.2 c 0,-0.16 0,-0.28 0,-0.4 0,-1.36 0.52,-2.12 1.48,-2.12 1.2,0 3.2,1.84 5.8,1.84 2.12,0 3.48,-1.68 3.48,-4.76 0,-0.2 0,-0.44 0,-0.64 z"
         id="path7276" />
      <path
         d="m 2239.037,1165.973 c 0,8.52 5.48,14.2 13.76,14.2 3.36,0 6.56,-1.24 9,-3.52 2.8,-2.6 4.28,-6.2 4.28,-10.44 0,-4.52 -1.68,-8.36 -4.76,-11 -2.44,-2.08 -5.36,-3.12 -8.8,-3.12 -3.72,0 -6.84,1.16 -9.36,3.48 -2.72,2.52 -4.12,6.04 -4.12,10.4 z m 13.56,-11.32 c 4.36,0 7.48,4.28 7.48,11.68 0,7.08 -3.16,11.4 -7.56,11.4 -4.28,0 -7.52,-4.32 -7.52,-11.68 0,-7.16 3.16,-11.4 7.6,-11.4 z"
         id="path7278" />
      <path
         d="m 2310.4369,1162.933 c -1.72,0 -3.12,1.44 -3.12,3.2 0,1.76 1.4,3.16 3.12,3.16 1.76,0 3.2,-1.44 3.2,-3.16 0,-1.76 -1.44,-3.2 -3.2,-3.2 z"
         id="path7280" />
      <path
         d="m 2355.8013,1178.653 c 2.48,0.88 5.16,1.32 7.72,1.32 6.56,0 10.6,-3.44 10.6,-8.2 0,-2.36 -1.28,-4.52 -3.6,-6 -2.36,-1.52 -4.48,-2.12 -5.72,-2.88 -2.12,-1.28 -3.24,-2.48 -3.24,-4.32 0,-2.2 1.8,-3.8 4.72,-3.8 1.28,0 2.2,0.2 2.92,0.56 l 0.56,0.56 0.68,4.16 h 2.88 v -6.48 c -2.52,-0.88 -5.04,-1.36 -7.52,-1.36 -5.72,0 -9.44,3.44 -9.44,7.88 0,1.96 0.96,3.92 2.8,5.48 1.76,1.48 3.64,2.16 5.24,2.96 2.84,1.44 4.28,2.88 4.28,5.04 0,2.2 -1.92,3.8 -5.16,3.8 -1.24,0 -2.4,-0.2 -3.52,-0.56 l -0.52,-0.6 -0.64,-4.8 h -3.04 z"
         id="path7282" />
      <path
         d="m 2387.7457,1152.413 -9.04,24.8 -2.4,0.36 v 1.96 h 8.6 v -1.96 l -2.52,-0.28 -0.4,-0.52 2.4,-6.76 h 8.72 l 2.4,6.8 -0.28,0.52 -2.52,0.24 v 1.96 h 10.8 v -1.96 l -2.36,-0.4 -9.2,-24.76 z m 0.88,5.48 3.56,9.88 h -7.04 z"
         id="path7284" />
      <path
         d="m 2404.3713,1179.533 h 9.12 v -1.92 l -2.48,-0.32 -0.64,-0.72 v -18.52 l 13.84,21.48 h 4.48 v -23.88 l 0.68,-0.76 2.36,-0.32 v -1.88 h -9.12 v 1.88 l 2.44,0.32 0.72,0.76 v 17.12 l -12.24,-19 v -1.08 h -9.2 v 1.96 l 2.56,0.2 0.56,0.56 v 21.16 l -0.72,0.72 -2.36,0.32 z"
         id="path7286" />
      <path
         d="m 2433.6038,1152.693 v 7.08 h 2.76 l 0.64,-4.28 0.64,-0.52 h 4.8 v 21.76 l -0.68,0.64 -2.6,0.2 v 1.96 h 11.96 v -1.96 l -2.6,-0.2 -0.68,-0.64 v -21.76 h 4.8 l 0.6,0.52 0.68,4.28 h 2.76 v -7.08 z"
         id="path7288" />
      <path
         d="m 2458.8744,1179.533 h 11.96 v -1.96 l -2.68,-0.2 -0.64,-0.64 v -21.32 l 0.64,-0.56 2.68,-0.2 v -1.96 h -11.96 v 1.96 l 2.64,0.2 0.64,0.56 v 21.32 l -0.64,0.64 -2.64,0.2 z"
         id="path7290" />
      <path
         d="m 2473.5851,1179.533 h 11.8 v -1.96 l -2.8,-0.2 -0.68,-0.64 v -9.32 h 5.36 l 0.56,0.52 0.4,2.92 h 2.36 v -9.32 h -2.36 l -0.4,2.92 -0.56,0.52 h -5.36 v -9.96 h 7.72 l 0.52,0.52 0.6,3.88 h 2.76 v -6.72 h -20.08 v 1.96 l 2.56,0.2 0.64,0.56 v 21.32 l -0.64,0.64 -2.4,0.2 z"
         id="path7292" />
      <path
         d="m 2496.2645,1179.533 h 11.96 v -1.96 l -2.68,-0.2 -0.64,-0.64 v -21.32 l 0.64,-0.56 2.68,-0.2 v -1.96 h -11.96 v 1.96 l 2.64,0.2 0.64,0.56 v 21.32 l -0.64,0.64 -2.64,0.2 z"
         id="path7294" />
      <path
         d="m 2533.8151,1178.573 v -6.88 h -2.88 l -1,4.84 -0.6,0.6 c -0.96,0.24 -1.76,0.36 -2.44,0.36 -5.96,0 -9.6,-4.24 -9.6,-11.4 0,-7.08 3.6,-11.28 9.08,-11.28 1.04,0 2.08,0.2 3.16,0.6 l 0.56,0.68 0.76,4.28 h 2.96 v -6.68 c -2.68,-0.96 -5.4,-1.48 -8.16,-1.48 -4.16,0 -7.56,1.24 -10.08,3.68 -2.72,2.6 -4.16,6.16 -4.16,10.24 0,5.12 2.48,9.6 6.64,12.08 1.96,1.16 4.48,1.8 7.36,1.8 2.92,0 5.72,-0.48 8.4,-1.44 z"
         id="path7296" />
      <path
         d="m 2546.892,1152.413 -9.04,24.8 -2.4,0.36 v 1.96 h 8.6 v -1.96 l -2.52,-0.28 -0.4,-0.52 2.4,-6.76 h 8.72 l 2.4,6.8 -0.28,0.52 -2.52,0.24 v 1.96 h 10.8 v -1.96 l -2.36,-0.4 -9.2,-24.76 z m 0.88,5.48 3.56,9.88 h -7.04 z"
         id="path7298" />
      <path
         d="m 2586.5176,1178.573 v -6.88 h -2.88 l -1,4.84 -0.6,0.6 c -0.96,0.24 -1.76,0.36 -2.44,0.36 -5.96,0 -9.6,-4.24 -9.6,-11.4 0,-7.08 3.6,-11.28 9.08,-11.28 1.04,0 2.08,0.2 3.16,0.6 l 0.56,0.68 0.76,4.28 h 2.96 v -6.68 c -2.68,-0.96 -5.4,-1.48 -8.16,-1.48 -4.16,0 -7.56,1.24 -10.08,3.68 -2.72,2.6 -4.16,6.16 -4.16,10.24 0,5.12 2.48,9.6 6.64,12.08 1.96,1.16 4.48,1.8 7.36,1.8 2.92,0 5.72,-0.48 8.4,-1.44 z m -9.52,0.96 v 4.48 c 0.32,-0.04 0.6,-0.08 0.88,-0.08 1.16,0 1.8,0.52 1.8,1.32 0,0.96 -0.84,1.48 -2.48,1.48 -0.6,0 -1.4,-0.12 -2.44,-0.32 v 1.88 c 1.12,0.28 2.16,0.44 3.24,0.44 2.96,0 4.8,-1.6 4.8,-3.92 0,-1.88 -1.16,-3.04 -3.24,-3.04 -0.2,0 -0.44,0 -0.64,0.04 v -2.28 z"
         id="path7300" />
      <path
         d="m 2599.5945,1152.413 -9.04,24.8 -2.4,0.36 v 1.96 h 8.6 v -1.96 l -2.52,-0.28 -0.4,-0.52 2.4,-6.76 h 8.72 l 2.4,6.8 -0.28,0.52 -2.52,0.24 v 1.96 h 10.8 v -1.96 l -2.36,-0.4 -9.2,-24.76 z m 0.88,5.48 3.56,9.88 h -7.04 z m 5.44,-14.72 c 0,0.12 0,0.24 0,0.32 0,1.48 -0.52,2.2 -1.56,2.2 -1.4,0 -3.4,-1.88 -5.76,-1.88 -2.2,0 -3.48,1.68 -3.48,4.76 0,0.2 0,0.44 0,0.68 h 2.2 c 0,-0.16 0,-0.28 0,-0.4 0,-1.36 0.52,-2.12 1.48,-2.12 1.2,0 3.2,1.84 5.8,1.84 2.12,0 3.48,-1.68 3.48,-4.76 0,-0.2 0,-0.44 0,-0.64 z"
         id="path7302" />
      <path
         d="m 2616.8201,1165.973 c 0,8.52 5.48,14.2 13.76,14.2 3.36,0 6.56,-1.24 9,-3.52 2.8,-2.6 4.28,-6.2 4.28,-10.44 0,-4.52 -1.68,-8.36 -4.76,-11 -2.44,-2.08 -5.36,-3.12 -8.8,-3.12 -3.72,0 -6.84,1.16 -9.36,3.48 -2.72,2.52 -4.12,6.04 -4.12,10.4 z m 13.56,-11.32 c 4.36,0 7.48,4.28 7.48,11.68 0,7.08 -3.16,11.4 -7.56,11.4 -4.28,0 -7.52,-4.32 -7.52,-11.68 0,-7.16 3.16,-11.4 7.6,-11.4 z"
         id="path7304" />
      <path
         d="m 2688.2201,1162.933 c -1.72,0 -3.12,1.44 -3.12,3.2 0,1.76 1.4,3.16 3.12,3.16 1.76,0 3.2,-1.44 3.2,-3.16 0,-1.76 -1.44,-3.2 -3.2,-3.2 z"
         id="path7306" />
      <path
         d="m 2732.4644,1152.693 v 1.96 l 2.36,0.2 0.64,0.56 v 21.32 l -0.64,0.64 -2.36,0.2 v 1.96 h 11.28 v -1.96 l -2.44,-0.2 -0.64,-0.64 v -9 c 0.24,0 0.48,0 0.68,0 4.04,0 5.08,1.72 6.32,5.52 0.64,1.92 1,3.72 3.08,5.32 0.96,0.76 2.44,1.24 4.16,1.24 1.24,0 2.6,-0.12 4,-0.32 v -1.92 c -0.2,0 -0.36,0 -0.52,0 -2.68,0 -3.88,-0.6 -4.72,-2.8 -0.76,-2 -1.08,-4.16 -2.32,-5.92 -0.92,-1.28 -2.28,-2.04 -4.2,-2.48 4.52,-0.84 6.88,-3.16 6.88,-6.84 0,-4.44 -3.2,-6.84 -9.4,-6.84 z m 8.2,2.28 h 1.84 c 3.88,0 5.92,1.84 5.92,5.12 0,3.68 -2.04,5.36 -6.32,5.36 -0.44,0 -0.92,0 -1.44,-0.04 z"
         id="path7308" />
      <path
         d="m 2759.8294,1179.533 h 21.48 v -7.16 h -2.72 l -0.68,4.24 -0.52,0.64 h -9.28 v -10.4 h 5.2 l 0.56,0.56 0.4,2.88 h 2.36 v -9.28 h -2.36 l -0.4,2.88 -0.56,0.56 h -5.2 v -9.52 h 7.96 l 0.52,0.52 0.6,3.52 h 2.8 v -6.28 h -20.16 v 1.96 l 2.44,0.2 0.64,0.56 v 21.32 l -0.64,0.64 -2.44,0.2 z"
         id="path7310" />
      <path
         d="m 2795.9076,1152.693 h -11.68 v 1.96 l 2.44,0.2 0.64,0.64 v 21.24 l -0.64,0.64 -2.44,0.2 v 1.96 h 11.68 c 4,0 7,-0.6 9.48,-2.52 3.24,-2.48 4.92,-6.16 4.92,-10.88 0,-8.4 -5.12,-13.44 -14.4,-13.44 z m -3.32,2.24 h 2.32 c 6.36,0 9.44,3.64 9.44,11.16 0,7.52 -3.08,11.2 -9.44,11.2 h -2.32 z"
         id="path7312" />
      <path
         d="m 2813.4694,1179.533 h 21.48 v -7.16 h -2.72 l -0.68,4.24 -0.52,0.64 h -9.28 v -10.4 h 5.2 l 0.56,0.56 0.4,2.88 h 2.36 v -9.28 h -2.36 l -0.4,2.88 -0.56,0.56 h -5.2 v -9.52 h 7.96 l 0.52,0.52 0.6,3.52 h 2.8 v -6.28 h -20.16 v 1.96 l 2.44,0.2 0.64,0.56 v 21.32 l -0.64,0.64 -2.44,0.2 z"
         id="path7314" />
      <path
         d="m 2837.7476,1179.533 h 9.12 v -1.92 l -2.48,-0.32 -0.64,-0.72 v -18.52 l 13.84,21.48 h 4.48 v -23.88 l 0.68,-0.76 2.36,-0.32 v -1.88 h -9.12 v 1.88 l 2.44,0.32 0.72,0.76 v 17.12 l -12.24,-19 v -1.08 h -9.2 v 1.96 l 2.56,0.2 0.56,0.56 v 21.16 l -0.72,0.72 -2.36,0.32 z"
         id="path7316" />
      <path
         d="m 2890.3801,1178.573 v -6.88 h -2.88 l -1,4.84 -0.6,0.6 c -0.96,0.24 -1.76,0.36 -2.44,0.36 -5.96,0 -9.6,-4.24 -9.6,-11.4 0,-7.08 3.6,-11.28 9.08,-11.28 1.04,0 2.08,0.2 3.16,0.6 l 0.56,0.68 0.76,4.28 h 2.96 v -6.68 c -2.68,-0.96 -5.4,-1.48 -8.16,-1.48 -4.16,0 -7.56,1.24 -10.08,3.68 -2.72,2.6 -4.16,6.16 -4.16,10.24 0,5.12 2.48,9.6 6.64,12.08 1.96,1.16 4.48,1.8 7.36,1.8 2.92,0 5.72,-0.48 8.4,-1.44 z m -9.52,0.96 v 4.48 c 0.32,-0.04 0.6,-0.08 0.88,-0.08 1.16,0 1.8,0.52 1.8,1.32 0,0.96 -0.84,1.48 -2.48,1.48 -0.6,0 -1.4,-0.12 -2.44,-0.32 v 1.88 c 1.12,0.28 2.16,0.44 3.24,0.44 2.96,0 4.8,-1.6 4.8,-3.92 0,-1.88 -1.16,-3.04 -3.24,-3.04 -0.2,0 -0.44,0 -0.64,0.04 v -2.28 z"
         id="path7318" />
      <path
         d="m 2903.457,1152.413 -9.04,24.8 -2.4,0.36 v 1.96 h 8.6 v -1.96 l -2.52,-0.28 -0.4,-0.52 2.4,-6.76 h 8.72 l 2.4,6.8 -0.28,0.52 -2.52,0.24 v 1.96 h 10.8 v -1.96 l -2.36,-0.4 -9.2,-24.76 z m 0.88,5.48 3.56,9.88 h -7.04 z m 5.44,-14.72 c 0,0.12 0,0.24 0,0.32 0,1.48 -0.52,2.2 -1.56,2.2 -1.4,0 -3.4,-1.88 -5.76,-1.88 -2.2,0 -3.48,1.68 -3.48,4.76 0,0.2 0,0.44 0,0.68 h 2.2 c 0,-0.16 0,-0.28 0,-0.4 0,-1.36 0.52,-2.12 1.48,-2.12 1.2,0 3.2,1.84 5.8,1.84 2.12,0 3.48,-1.68 3.48,-4.76 0,-0.2 0,-0.44 0,-0.64 z"
         id="path7320" />
      <path
         d="m 2920.6826,1165.973 c 0,8.52 5.48,14.2 13.76,14.2 3.36,0 6.56,-1.24 9,-3.52 2.8,-2.6 4.28,-6.2 4.28,-10.44 0,-4.52 -1.68,-8.36 -4.76,-11 -2.44,-2.08 -5.36,-3.12 -8.8,-3.12 -3.72,0 -6.84,1.16 -9.36,3.48 -2.72,2.52 -4.12,6.04 -4.12,10.4 z m 13.56,-11.32 c 4.36,0 7.48,4.28 7.48,11.68 0,7.08 -3.16,11.4 -7.56,11.4 -4.28,0 -7.52,-4.32 -7.52,-11.68 0,-7.16 3.16,-11.4 7.6,-11.4 z"
         id="path7322" />
    </g>
  </g>
</svg>
