<?xml version="1.0" encoding="UTF-8" standalone="no"?>
<!-- Created with Inkscape (http://www.inkscape.org/) -->

<svg
   width="54.639236mm"
   height="48.429333mm"
   viewBox="0 0 54.639238 48.429332"
   version="1.1"
   id="svg8"
   xmlns="http://www.w3.org/2000/svg"
   xmlns:svg="http://www.w3.org/2000/svg"
   xmlns:rdf="http://www.w3.org/1999/02/22-rdf-syntax-ns#"
   xmlns:cc="http://creativecommons.org/ns#"
   xmlns:dc="http://purl.org/dc/elements/1.1/">
  <defs
     id="defs2" />
  <metadata
     id="metadata5">
    <rdf:RDF>
      <cc:Work
         rdf:about="">
        <dc:format>image/svg+xml</dc:format>
        <dc:type
           rdf:resource="http://purl.org/dc/dcmitype/StillImage" />
      </cc:Work>
    </rdf:RDF>
  </metadata>
  <g
     id="layer1"
     transform="translate(-509.60615,76.443972)"
     style="display:inline">
    <g
       aria-label="Corpo 1 Ts 4:13 Rm 8:17-18 Fp 3:20,21 1 Co 15. 42-44 "
       transform="matrix(0.26458333,0,0,0.26458333,-173.23051,-114.63588)"
       style="font-style:normal;font-variant:normal;font-weight:normal;font-stretch:normal;font-size:32px;line-height:1.25;font-family:'Bitstream Charter';-inkscape-font-specification:'Bitstream Charter';letter-spacing:0px;word-spacing:0px;fill:#000000;fill-opacity:1;stroke:none"
       id="flowRoot6175">
      <path
         d="m 2599.232,165.43537 v -5.504 h -2.304 l -0.8,3.872 -0.48,0.48 c -0.768,0.192 -1.408,0.288 -1.952,0.288 -4.768,0 -7.68,-3.392 -7.68,-9.12 0,-5.664 2.88,-9.024 7.264,-9.024 0.832,0 1.664,0.16 2.528,0.48 l 0.448,0.544 0.608,3.424 h 2.368 v -5.344 c -2.144,-0.768 -4.32,-1.184 -6.528,-1.184 -3.328,0 -6.048,0.992 -8.064,2.944 -2.176,2.08 -3.328,4.928 -3.328,8.192 0,4.096 1.984,7.68 5.312,9.664 1.568,0.928 3.584,1.44 5.888,1.44 2.336,0 4.576,-0.384 6.72,-1.152 z"
         style="font-style:normal;font-variant:normal;font-weight:bold;font-stretch:normal;font-family:'Bitstream Charter';-inkscape-font-specification:'Bitstream Charter Bold'"
         id="path6859" />
      <path
         d="m 2609.9095,150.23537 c -5.024,0 -8.288,3.264 -8.288,8.192 0,4.832 3.232,8.032 8.032,8.032 5.056,0 8.288,-3.232 8.288,-7.968 0,-5.088 -3.136,-8.256 -8.032,-8.256 z m -0.128,1.696 c 2.272,0 3.744,2.272 3.744,6.464 0,4.16 -1.408,6.368 -3.776,6.368 -2.24,0 -3.68,-2.272 -3.68,-6.464 0,-4.128 1.44,-6.368 3.712,-6.368 z"
         style="font-style:normal;font-variant:normal;font-weight:bold;font-stretch:normal;font-family:'Bitstream Charter';-inkscape-font-specification:'Bitstream Charter Bold'"
         id="path6861" />
      <path
         d="m 2619.803,166.20337 h 8.832 v -1.44 l -2.272,-0.128 -0.48,-0.48 v -9.184 c 0.992,-0.608 1.76,-0.896 2.272,-0.896 0.928,0 1.6,0.352 2.08,1.152 h 1.664 l 0.416,-4.416 c -0.704,-0.352 -1.408,-0.544 -2.112,-0.544 -0.224,0 -0.48,0.032 -0.704,0.064 -1.312,0.928 -2.592,2.016 -3.744,3.264 l 0.128,-3.264 h -1.536 l -4.704,1.504 v 1.28 h 2.304 v 11.04 l -0.448,0.48 -1.696,0.128 z"
         style="font-style:normal;font-variant:normal;font-weight:bold;font-stretch:normal;font-family:'Bitstream Charter';-inkscape-font-specification:'Bitstream Charter Bold'"
         id="path6863" />
      <path
         d="m 2633.111,173.21137 h 8.544 l 0.032,-1.472 -2.016,-0.128 -0.48,-0.448 v -5.12 c 1.056,0.128 1.92,0.192 2.624,0.192 5.184,0 8.48,-3.328 8.48,-8.448 0,-4.48 -2.656,-7.552 -6.048,-7.552 -1.568,0 -3.168,0.704 -5.056,2.016 v -1.92 h -1.44 l -4.672,1.504 v 1.28 h 2.208 v 17.984 l -0.448,0.48 -1.728,0.16 z m 6.08,-8.928 v -10.688 c 0.96,-0.384 1.792,-0.608 2.528,-0.608 2.592,0 4.224,1.92 4.224,5.344 0,3.84 -1.888,6.176 -4.704,6.176 -0.64,0 -1.312,-0.064 -2.048,-0.224 z"
         style="font-style:normal;font-variant:normal;font-weight:bold;font-stretch:normal;font-family:'Bitstream Charter';-inkscape-font-specification:'Bitstream Charter Bold'"
         id="path6865" />
      <path
         d="m 2660.7845,150.23537 c -5.024,0 -8.288,3.264 -8.288,8.192 0,4.832 3.232,8.032 8.032,8.032 5.056,0 8.288,-3.232 8.288,-7.968 0,-5.088 -3.136,-8.256 -8.032,-8.256 z m -0.128,1.696 c 2.272,0 3.744,2.272 3.744,6.464 0,4.16 -1.408,6.368 -3.776,6.368 -2.24,0 -3.68,-2.272 -3.68,-6.464 0,-4.128 1.44,-6.368 3.712,-6.368 z"
         style="font-style:normal;font-variant:normal;font-weight:bold;font-stretch:normal;font-family:'Bitstream Charter';-inkscape-font-specification:'Bitstream Charter Bold'"
         id="path6867" />
      <path
         d="m 2589.952,184.34737 -6.944,2.08 v 1.344 l 5.024,-0.896 v 17.216 l -0.384,0.544 -3.68,0.192 v 1.376 h 10.72 v -1.344 l -3.456,-0.16 -0.384,-0.48 v -19.872 z"
         id="path6869" />
      <path
         d="m 2607.1995,184.73137 v 4.928 h 1.76 l 0.448,-2.976 0.448,-0.48 h 4.928 v 18.08 l -0.576,0.448 -2.144,0.16 v 1.312 h 8.352 v -1.312 l -2.144,-0.16 -0.576,-0.448 v -18.08 h 4.928 l 0.448,0.48 0.448,2.976 h 1.76 v -4.928 z"
         id="path6871" />
      <path
         d="m 2636.8205,191.19537 c -1.088,-0.48 -2.336,-0.704 -3.744,-0.704 -3.648,0 -5.664,1.664 -5.664,4.48 0,2.144 1.408,3.168 4.128,4.384 2.112,0.96 3.264,1.536 3.264,3.2 0,1.504 -1.152,2.592 -3.008,2.592 -0.928,0 -1.824,-0.256 -2.72,-0.768 l -0.384,-2.72 h -1.536 v 4.16 c 1.12,0.416 2.528,0.672 4.16,0.672 3.776,0 5.984,-1.824 5.984,-4.8 0,-1.184 -0.448,-2.144 -1.216,-2.752 -1.056,-0.864 -2.272,-1.312 -3.392,-1.856 -1.792,-0.864 -2.72,-1.536 -2.72,-2.912 0,-1.44 0.96,-2.304 2.656,-2.304 0.768,0 1.536,0.224 2.368,0.672 l 0.256,2.272 h 1.568 z"
         id="path6873" />
      <path
         d="m 2659.276,184.53937 -10.912,13.376 v 2.08 h 10.304 v 7.392 h 2.464 v -7.392 h 3.616 v -2.08 h -3.616 v -13.376 z m -0.608,3.488 v 9.888 h -7.904 z"
         id="path6875" />
      <path
         d="m 2670.4005,190.81137 c -1.12,0 -2.016,0.864 -2.016,2.016 0,1.12 0.896,2.048 2.016,2.048 1.12,0 2.048,-0.928 2.048,-2.048 0,-1.152 -0.928,-2.016 -2.048,-2.016 z m 0,11.616 c -1.12,0 -2.016,0.896 -2.016,2.048 0,1.152 0.896,2.016 2.016,2.016 1.12,0 2.048,-0.896 2.048,-2.016 0,-1.152 -0.928,-2.048 -2.048,-2.048 z"
         id="path6877" />
      <path
         d="m 2685.452,184.34737 -6.944,2.08 v 1.344 l 5.024,-0.896 v 17.216 l -0.384,0.544 -3.68,0.192 v 1.376 h 10.72 v -1.344 l -3.456,-0.16 -0.384,-0.48 v -19.872 z"
         id="path6879" />
      <path
         d="m 2703.4565,194.90737 c 3.136,-0.896 4.768,-2.72 4.768,-5.184 0,-3.232 -2.464,-5.376 -6.304,-5.376 -4,0 -6.752,2.144 -6.752,4.256 0,1.024 0.704,1.728 1.728,1.728 0.512,0 0.928,-0.128 1.312,-0.416 v -3.008 c 0.928,-0.64 1.92,-0.928 3.04,-0.928 2.464,0 4.064,1.632 4.064,4.16 0,2.592 -1.728,4.128 -4.96,4.128 -0.224,0 -0.448,-0.032 -0.672,-0.032 v 1.888 c 0.608,-0.096 1.184,-0.128 1.696,-0.128 3.072,0 4.736,1.472 4.736,4 0,2.848 -2.112,5.056 -5.024,5.056 -0.96,0 -1.856,-0.256 -2.72,-0.768 l -0.992,-2.72 c -0.352,-0.128 -0.672,-0.16 -0.96,-0.16 -1.024,0 -1.792,0.704 -1.792,1.632 0,1.632 2.528,3.52 6.336,3.52 4.928,0 8.096,-2.912 8.096,-6.496 0,-2.912 -2.048,-4.896 -5.6,-5.152 z"
         id="path6881" />
      <path
         d="m 2581.056,224.73137 v 1.28 l 1.824,0.192 0.544,0.448 v 17.632 l -0.544,0.448 -1.824,0.16 v 1.312 h 7.616 v -1.312 l -1.824,-0.16 -0.544,-0.448 v -7.616 c 0.576,-0.032 1.12,-0.064 1.6,-0.064 2.912,0 4.16,0.832 5.024,3.456 0.672,2.048 0.8,4.128 2.336,5.472 0.736,0.64 1.792,0.928 3.232,0.928 0.736,0 1.536,-0.096 2.496,-0.288 v -1.216 c -0.096,0 -0.192,0 -0.288,0 -2.432,0 -3.456,-0.384 -4.16,-2.272 -0.576,-1.504 -0.608,-3.264 -1.504,-4.736 -0.64,-1.056 -1.728,-1.728 -3.296,-2.144 3.456,-0.768 5.184,-2.56 5.184,-5.312 0,-3.936 -2.528,-5.76 -7.712,-5.76 z m 5.248,1.472 h 1.536 c 3.968,0 5.888,1.216 5.888,4.544 0,3.168 -1.824,4.416 -5.664,4.416 -0.192,0 -0.768,0 -1.76,-0.032 z"
         id="path6883" />
      <path
         d="m 2615.2155,232.63537 c -0.736,-1.408 -1.952,-2.144 -3.52,-2.144 -1.344,0 -3.008,0.672 -5.12,1.92 v -1.76 h -1.216 l -3.712,1.152 v 0.992 h 2.272 v 11.584 l -0.544,0.512 -1.728,0.16 v 1.152 h 7.008 v -1.152 l -1.536,-0.16 -0.544,-0.512 v -10.72 c 1.408,-0.704 2.592,-1.056 3.648,-1.056 1.92,0 2.816,1.056 2.816,3.296 v 8.48 l -0.544,0.512 -1.536,0.16 v 1.152 h 6.816 v -1.152 l -1.504,-0.16 -0.576,-0.512 v -10.72 c 1.376,-0.672 2.592,-1.056 3.616,-1.056 1.984,0 2.88,1.056 2.88,3.296 v 8.48 l -0.576,0.512 -1.504,0.16 v 1.152 h 6.976 v -1.152 l -1.696,-0.16 -0.544,-0.512 v -9.024 c 0,-3.168 -1.6,-4.864 -4.128,-4.864 -1.28,0 -3.104,0.736 -5.504,2.144 z"
         id="path6885" />
      <path
         d="m 2646.8345,234.39537 c -3.488,-1.248 -5.184,-2.688 -5.184,-4.8 0,-2.112 1.664,-3.776 3.872,-3.776 2.336,0 3.872,1.6 3.872,4.16 0,1.696 -0.896,3.328 -2.56,4.416 z m 1.344,0.576 c 2.368,-1.248 3.68,-3.2 3.68,-5.312 0,-3.104 -2.4,-5.376 -6.24,-5.376 -3.968,0 -6.624,2.4 -6.624,5.792 0,2.304 1.152,4 3.36,4.928 -2.912,1.12 -4.384,3.008 -4.384,5.536 0,3.616 2.784,6.176 7.392,6.176 4.448,0 7.392,-2.848 7.392,-6.24 0,-2.496 -1.568,-4.448 -4.576,-5.504 z m -4.608,0.704 c 4.288,1.6 6.432,2.592 6.432,5.12 0,2.528 -1.792,4.256 -4.544,4.256 -3.072,0 -5.024,-1.888 -5.024,-4.704 0,-2.144 0.96,-3.52 3.136,-4.672 z"
         id="path6887" />
      <path
         d="m 2659.463,230.81137 c -1.12,0 -2.016,0.864 -2.016,2.016 0,1.12 0.896,2.048 2.016,2.048 1.12,0 2.048,-0.928 2.048,-2.048 0,-1.152 -0.928,-2.016 -2.048,-2.016 z m 0,11.616 c -1.12,0 -2.016,0.896 -2.016,2.048 0,1.152 0.896,2.016 2.016,2.016 1.12,0 2.048,-0.896 2.048,-2.016 0,-1.152 -0.928,-2.048 -2.048,-2.048 z"
         id="path6889" />
      <path
         d="m 2674.5145,224.34737 -6.944,2.08 v 1.344 l 5.024,-0.896 v 17.216 l -0.384,0.544 -3.68,0.192 v 1.376 h 10.72 v -1.344 l -3.456,-0.16 -0.384,-0.48 v -19.872 z"
         id="path6891" />
      <path
         d="m 2684.647,224.73137 v 5.344 h 1.504 l 0.512,-2.912 h 9.856 l -10.432,20.224 h 2.656 v -0.704 l 10.624,-20.672 v -1.28 z"
         id="path6893" />
      <path
         d="m 2701.6915,237.43537 v 2.144 h 7.2 v -2.144 z"
         id="path6895" />
      <path
         d="m 2720.327,224.34737 -6.944,2.08 v 1.344 l 5.024,-0.896 v 17.216 l -0.384,0.544 -3.68,0.192 v 1.376 h 10.72 v -1.344 l -3.456,-0.16 -0.384,-0.48 v -19.872 z"
         id="path6897" />
      <path
         d="m 2738.4595,234.39537 c -3.488,-1.248 -5.184,-2.688 -5.184,-4.8 0,-2.112 1.664,-3.776 3.872,-3.776 2.336,0 3.872,1.6 3.872,4.16 0,1.696 -0.896,3.328 -2.56,4.416 z m 1.344,0.576 c 2.368,-1.248 3.68,-3.2 3.68,-5.312 0,-3.104 -2.4,-5.376 -6.24,-5.376 -3.968,0 -6.624,2.4 -6.624,5.792 0,2.304 1.152,4 3.36,4.928 -2.912,1.12 -4.384,3.008 -4.384,5.536 0,3.616 2.784,6.176 7.392,6.176 4.448,0 7.392,-2.848 7.392,-6.24 0,-2.496 -1.568,-4.448 -4.576,-5.504 z m -4.608,0.704 c 4.288,1.6 6.432,2.592 6.432,5.12 0,2.528 -1.792,4.256 -4.544,4.256 -3.072,0 -5.024,-1.888 -5.024,-4.704 0,-2.144 0.96,-3.52 3.136,-4.672 z"
         id="path6899" />
      <path
         d="m 2581.056,286.20337 h 8.064 v -1.312 l -2.272,-0.16 -0.544,-0.448 v -8.192 h 5.248 l 0.448,0.48 0.32,2.336 h 1.504 v -7.072 h -1.504 l -0.32,2.336 -0.448,0.448 h -5.248 v -8.416 h 7.2 l 0.416,0.48 0.48,3.04 h 1.76 v -4.992 h -15.36 v 1.28 l 2.08,0.192 0.544,0.448 v 17.632 l -0.544,0.448 -1.824,0.16 z"
         id="path6901" />
      <path
         d="m 2597.9235,293.17937 h 7.52 v -1.152 l -2.048,-0.16 -0.544,-0.512 v -5.344 c 1.184,0.192 2.176,0.288 2.976,0.288 4.736,0 7.872,-3.264 7.872,-8.32 0,-4.48 -2.624,-7.488 -6.144,-7.488 -1.504,0 -3.008,0.64 -4.704,1.92 v -1.76 h -1.216 l -3.712,1.152 v 0.992 h 2.272 v 18.56 l -0.544,0.512 -1.728,0.16 z m 4.928,-8.832 v -10.752 c 1.216,-0.704 2.272,-1.088 3.36,-1.088 2.784,0 4.672,2.208 4.672,5.888 0,3.936 -2.176,6.464 -5.312,6.464 -0.768,0 -1.664,-0.16 -2.72,-0.512 z"
         id="path6903" />
      <path
         d="m 2633.8315,274.90737 c 3.136,-0.896 4.768,-2.72 4.768,-5.184 0,-3.232 -2.464,-5.376 -6.304,-5.376 -4,0 -6.752,2.144 -6.752,4.256 0,1.024 0.704,1.728 1.728,1.728 0.512,0 0.928,-0.128 1.312,-0.416 v -3.008 c 0.928,-0.64 1.92,-0.928 3.04,-0.928 2.464,0 4.064,1.632 4.064,4.16 0,2.592 -1.728,4.128 -4.96,4.128 -0.224,0 -0.448,-0.032 -0.672,-0.032 v 1.888 c 0.608,-0.096 1.184,-0.128 1.696,-0.128 3.072,0 4.736,1.472 4.736,4 0,2.848 -2.112,5.056 -5.024,5.056 -0.96,0 -1.856,-0.256 -2.72,-0.768 l -0.992,-2.72 c -0.352,-0.128 -0.672,-0.16 -0.96,-0.16 -1.024,0 -1.792,0.704 -1.792,1.632 0,1.632 2.528,3.52 6.336,3.52 4.928,0 8.096,-2.912 8.096,-6.496 0,-2.912 -2.048,-4.896 -5.6,-5.152 z"
         id="path6905" />
      <path
         d="m 2646.588,270.81137 c -1.12,0 -2.016,0.864 -2.016,2.016 0,1.12 0.896,2.048 2.016,2.048 1.12,0 2.048,-0.928 2.048,-2.048 0,-1.152 -0.928,-2.016 -2.048,-2.016 z m 0,11.616 c -1.12,0 -2.016,0.896 -2.016,2.048 0,1.152 0.896,2.016 2.016,2.016 1.12,0 2.048,-0.896 2.048,-2.016 0,-1.152 -0.928,-2.048 -2.048,-2.048 z"
         id="path6907" />
      <path
         d="m 2656.1995,283.67537 c 7.072,-5.632 10.944,-9.248 10.944,-13.28 0,-3.616 -2.528,-6.048 -6.656,-6.048 -3.968,0 -6.784,2.272 -6.784,4.512 0,1.088 0.672,1.792 1.792,1.792 0.512,0 0.992,-0.16 1.44,-0.48 v -3.424 c 0.96,-0.544 1.888,-0.768 2.848,-0.768 2.656,0 4.256,1.792 4.256,4.832 0,4.192 -4,7.68 -11.008,13.376 v 2.016 h 14.816 v -5.248 h -1.44 l -0.576,2.72 z"
         id="path6909" />
      <path
         d="m 2678.396,264.34737 c -4.576,0 -7.584,4.032 -7.584,11.104 0,7.072 3.008,11.136 7.584,11.136 4.576,0 7.584,-4.064 7.584,-11.136 0,-7.072 -3.008,-11.104 -7.584,-11.104 z m 0,1.504 c 2.944,0 4.544,3.264 4.544,9.6 0,6.336 -1.6,9.6 -4.544,9.6 -2.944,0 -4.576,-3.232 -4.576,-9.568 0,-6.368 1.632,-9.632 4.576,-9.632 z"
         id="path6911" />
      <path
         d="m 2688.5605,291.61137 c 3.232,-0.352 5.408,-2.848 5.408,-5.6 0,-2.048 -0.96,-3.2 -2.56,-3.2 -1.088,0 -1.888,0.704 -1.888,1.76 0,0.576 0.16,1.024 0.512,1.408 h 2.048 c 0,0.128 0,0.256 0,0.352 0,2.336 -1.184,3.776 -3.52,4.224 z"
         id="path6913" />
      <path
         d="m 2700.6995,283.67537 c 7.072,-5.632 10.944,-9.248 10.944,-13.28 0,-3.616 -2.528,-6.048 -6.656,-6.048 -3.968,0 -6.784,2.272 -6.784,4.512 0,1.088 0.672,1.792 1.792,1.792 0.512,0 0.992,-0.16 1.44,-0.48 v -3.424 c 0.96,-0.544 1.888,-0.768 2.848,-0.768 2.656,0 4.256,1.792 4.256,4.832 0,4.192 -4,7.68 -11.008,13.376 v 2.016 h 14.816 v -5.248 h -1.44 l -0.576,2.72 z"
         id="path6915" />
      <path
         d="m 2723.952,264.34737 -6.944,2.08 v 1.344 l 5.024,-0.896 v 17.216 l -0.384,0.544 -3.68,0.192 v 1.376 h 10.72 v -1.344 l -3.456,-0.16 -0.384,-0.48 v -19.872 z"
         id="path6917" />
      <path
         d="m 2589.952,304.34737 -6.944,2.08 v 1.344 l 5.024,-0.896 v 17.216 l -0.384,0.544 -3.68,0.192 v 1.376 h 10.72 v -1.344 l -3.456,-0.16 -0.384,-0.48 v -19.872 z"
         id="path6919" />
      <path
         d="m 2625.5035,325.46737 v -5.056 h -1.792 l -0.704,3.552 -0.512,0.512 c -0.96,0.288 -1.888,0.416 -2.784,0.416 -5.184,0 -8.352,-3.584 -8.352,-9.664 0,-5.728 3.104,-9.184 7.872,-9.184 1.248,0 2.4,0.288 3.584,0.832 l 0.416,0.576 0.48,2.912 h 1.792 v -4.928 c -2.336,-0.736 -4.448,-1.088 -6.336,-1.088 -6.656,0 -11.104,4.448 -11.104,11.104 0,4.192 2.112,7.904 5.536,9.856 1.472,0.832 3.328,1.28 5.44,1.28 2.144,0 4.352,-0.384 6.464,-1.12 z"
         id="path6921" />
      <path
         d="m 2635.5455,310.49137 c -4.32,0 -7.424,3.232 -7.424,8 0,4.736 3.136,8 7.424,8 4.288,0 7.456,-3.264 7.456,-8 0,-4.736 -3.136,-8 -7.456,-8 z m 0,1.376 c 2.592,0 4.448,2.496 4.448,6.624 0,4.16 -1.856,6.624 -4.448,6.624 -2.56,0 -4.416,-2.496 -4.416,-6.624 0,-4.16 1.824,-6.624 4.416,-6.624 z"
         id="path6923" />
      <path
         d="m 2663.0145,304.34737 -6.944,2.08 v 1.344 l 5.024,-0.896 v 17.216 l -0.384,0.544 -3.68,0.192 v 1.376 h 10.72 v -1.344 l -3.456,-0.16 -0.384,-0.48 v -19.872 z"
         id="path6925" />
      <path
         d="m 2674.107,304.73137 v 10.56 c 0.704,-0.128 1.632,-0.192 2.816,-0.192 4.448,0 6.656,1.504 6.656,4.8 0,2.976 -2.048,5.12 -5.056,5.12 -0.704,0 -1.44,-0.128 -2.144,-0.384 l -1.28,-2.752 c -0.32,-0.064 -0.576,-0.096 -0.768,-0.096 -1.088,0 -1.856,0.704 -1.856,1.696 0,1.536 2.208,3.008 5.504,3.008 5.248,0 8.544,-3.104 8.544,-7.232 0,-3.648 -2.72,-6.144 -7.008,-6.144 -1.024,0 -2.176,0.16 -3.424,0.512 v -6.4 h 9.472 v -2.496 z"
         id="path6927" />
      <path
         d="m 2693.1355,322.42737 c -1.12,0 -2.048,0.896 -2.048,2.048 0,1.152 0.928,2.016 2.048,2.016 1.12,0 2.016,-0.896 2.016,-2.016 0,-1.152 -0.896,-2.048 -2.016,-2.048 z"
         id="path6929" />
      <path
         d="m 2718.2135,304.53937 -10.912,13.376 v 2.08 h 10.304 v 7.392 h 2.464 v -7.392 h 3.616 v -2.08 h -3.616 v -13.376 z m -0.608,3.488 v 9.888 h -7.904 z"
         id="path6931" />
      <path
         d="m 2728.762,323.67537 c 7.072,-5.632 10.944,-9.248 10.944,-13.28 0,-3.616 -2.528,-6.048 -6.656,-6.048 -3.968,0 -6.784,2.272 -6.784,4.512 0,1.088 0.672,1.792 1.792,1.792 0.512,0 0.992,-0.16 1.44,-0.48 v -3.424 c 0.96,-0.544 1.888,-0.768 2.848,-0.768 2.656,0 4.256,1.792 4.256,4.832 0,4.192 -4,7.68 -11.008,13.376 v 2.016 h 14.816 v -5.248 h -1.44 l -0.576,2.72 z"
         id="path6933" />
      <path
         d="m 2743.5665,317.43537 v 2.144 h 7.2 v -2.144 z"
         id="path6935" />
      <path
         d="m 2764.026,304.53937 -10.912,13.376 v 2.08 h 10.304 v 7.392 h 2.464 v -7.392 h 3.616 v -2.08 h -3.616 v -13.376 z m -0.608,3.488 v 9.888 h -7.904 z"
         id="path6937" />
      <path
         d="m 2781.8385,304.53937 -10.912,13.376 v 2.08 h 10.304 v 7.392 h 2.464 v -7.392 h 3.616 v -2.08 h -3.616 v -13.376 z m -0.608,3.488 v 9.888 h -7.904 z"
         id="path6939" />
    </g>
  </g>
</svg>
