<?xml version="1.0" encoding="UTF-8" standalone="no"?>
<!-- Created with Inkscape (http://www.inkscape.org/) -->

<svg
   width="136.52686mm"
   height="6.6947141mm"
   viewBox="0 0 136.52686 6.694714"
   version="1.1"
   id="svg8"
   xmlns="http://www.w3.org/2000/svg"
   xmlns:svg="http://www.w3.org/2000/svg"
   xmlns:rdf="http://www.w3.org/1999/02/22-rdf-syntax-ns#"
   xmlns:cc="http://creativecommons.org/ns#"
   xmlns:dc="http://purl.org/dc/elements/1.1/">
  <defs
     id="defs2" />
  <metadata
     id="metadata5">
    <rdf:RDF>
      <cc:Work
         rdf:about="">
        <dc:format>image/svg+xml</dc:format>
        <dc:type
           rdf:resource="http://purl.org/dc/dcmitype/StillImage" />
      </cc:Work>
    </rdf:RDF>
  </metadata>
  <g
     id="layer1"
     transform="translate(-344.90425,-233.51413)"
     style="display:inline">
    <g
       aria-label="thanatos · 1Co 15:26, Ap 6:8, Rm 6:23, Hb:2"
       transform="matrix(0.175438,0,0,0.175438,6.6385084,0.46874833)"
       style="font-style:normal;font-variant:normal;font-weight:normal;font-stretch:normal;font-size:40px;line-height:1.25;font-family:'Bitstream Charter';-inkscape-font-specification:'Bitstream Charter';letter-spacing:0px;word-spacing:0px;fill:#ffffff;fill-opacity:1;stroke:none"
       id="flowRoot4813">
      <path
         d="m 1933.0413,1334.6432 -2,4 -2.92,1.28 v 1.2 l 2.48,-0.2 -2.16,10.84 c -0.24,1.12 -0.32,2.04 -0.32,2.68 0,2.44 1.08,3.64 3.36,3.64 1.4,0 3.48,-0.6 6.16,-1.76 v -1.28 c -1.6,0.52 -2.88,0.8 -3.8,0.8 -1.6,0 -2.44,-0.88 -2.44,-2.48 0,-0.44 0.12,-1.04 0.24,-1.76 l 2.08,-10.68 h 6.08 v -1.72 h -5.76 l 0.84,-4.56 z"
         style="font-style:italic;font-variant:normal;font-weight:normal;font-stretch:normal;font-family:'Bitstream Charter';-inkscape-font-specification:'Bitstream Charter Italic';fill:#ffffff;fill-opacity:1"
         id="path7611" />
      <path
         d="m 1948.6407,1328.3632 -6.28,1.32 v 1 l 3.76,0.32 -5.48,26.8 h 3.4 l 2.48,-13.56 c 2.48,-2.24 4.6,-3.28 5.92,-3.28 1.52,0 2.16,0.84 2.16,2.56 0,0.52 -0.12,1.4 -0.4,2.56 l -1.72,7.4 c -0.2,0.88 -0.28,1.6 -0.28,2.12 0,1.68 0.92,2.44 2.92,2.44 1.04,0 2.68,-0.4 4.8,-1.24 v -1.08 c -0.92,0.24 -1.68,0.36 -2.24,0.36 -1.32,0 -2.04,-0.72 -2.04,-2 0,-0.68 0.16,-1.52 0.4,-2.6 l 1.4,-6.2 c 0.32,-1.44 0.56,-2.6 0.56,-3.6 0,-1.96 -1.28,-3.2 -3.36,-3.2 -2.08,0 -4.56,1.28 -7.68,3.8 l 1.32,-6.84 c 0.56,-2.8 1.08,-5.16 1.6,-7.08 z"
         style="font-style:italic;font-variant:normal;font-weight:normal;font-stretch:normal;font-family:'Bitstream Charter';-inkscape-font-specification:'Bitstream Charter Italic';fill:#ffffff;fill-opacity:1"
         id="path7613" />
      <path
         d="m 1978.152,1338.5232 -0.8,0.88 c -1.24,-0.6 -2.48,-0.88 -3.6,-0.88 -3.96,0 -7.2,1.88 -9.24,5.24 -1.36,2.24 -2.08,4.72 -2.08,7.4 0,4.4 2.12,7 5.52,7 1.92,0 3.84,-1.12 5.96,-3.36 0,0.12 0,0.2 0,0.32 0,2.04 0.76,3.04 2.44,3.04 1.08,0 2.72,-0.48 4.92,-1.4 v -1.2 c -1.08,0.24 -1.8,0.4 -2.24,0.4 -1.48,0 -2.16,-0.56 -2.16,-1.84 0,-0.56 0.12,-1.48 0.4,-2.8 l 1.44,-7.08 c 0.6,-2.96 1.12,-4.88 1.52,-5.72 z m -3.72,1.56 1.6,2.44 -2.08,10.56 c -1.64,1.76 -3.2,2.64 -4.72,2.64 -2.32,0 -3.48,-1.6 -3.48,-4.8 0,-6.36 3.44,-10.84 8.12,-10.84 0.2,0 0.36,0 0.56,0 z"
         style="font-style:italic;font-variant:normal;font-weight:normal;font-stretch:normal;font-family:'Bitstream Charter';-inkscape-font-specification:'Bitstream Charter Italic';fill:#ffffff;fill-opacity:1"
         id="path7615" />
      <path
         d="m 1990.0076,1338.5232 -5.92,1.32 v 1 l 3.28,0.6 -3.32,16.36 h 3.4 l 2.48,-13.52 c 2.44,-2.24 4.56,-3.28 5.92,-3.28 1.52,0 2.16,0.76 2.16,2.52 0,0.52 -0.08,1.4 -0.36,2.56 l -1.72,7.4 c -0.2,0.88 -0.32,1.64 -0.32,2.16 0,1.6 0.96,2.4 2.92,2.4 1.12,0 2.72,-0.4 4.8,-1.2 v -1.12 c -0.92,0.24 -1.64,0.36 -2.2,0.36 -1.32,0 -2.08,-0.68 -2.08,-1.96 0,-0.6 0.2,-1.48 0.44,-2.64 l 1.36,-6.2 c 0.32,-1.44 0.56,-2.56 0.56,-3.56 0,-1.96 -1.28,-3.2 -3.36,-3.2 -2.12,0 -4.6,1.32 -7.76,3.84 l 0.72,-3.84 z"
         style="font-style:italic;font-variant:normal;font-weight:normal;font-stretch:normal;font-family:'Bitstream Charter';-inkscape-font-specification:'Bitstream Charter Italic';fill:#ffffff;fill-opacity:1"
         id="path7617" />
      <path
         d="m 2021.4332,1338.5232 -0.8,0.88 c -1.24,-0.6 -2.48,-0.88 -3.6,-0.88 -3.96,0 -7.2,1.88 -9.24,5.24 -1.36,2.24 -2.08,4.72 -2.08,7.4 0,4.4 2.12,7 5.52,7 1.92,0 3.84,-1.12 5.96,-3.36 0,0.12 0,0.2 0,0.32 0,2.04 0.76,3.04 2.44,3.04 1.08,0 2.72,-0.48 4.92,-1.4 v -1.2 c -1.08,0.24 -1.8,0.4 -2.24,0.4 -1.48,0 -2.16,-0.56 -2.16,-1.84 0,-0.56 0.12,-1.48 0.4,-2.8 l 1.44,-7.08 c 0.6,-2.96 1.12,-4.88 1.52,-5.72 z m -3.72,1.56 1.6,2.44 -2.08,10.56 c -1.64,1.76 -3.2,2.64 -4.72,2.64 -2.32,0 -3.48,-1.6 -3.48,-4.8 0,-6.36 3.44,-10.84 8.12,-10.84 0.2,0 0.36,0 0.56,0 z"
         style="font-style:italic;font-variant:normal;font-weight:normal;font-stretch:normal;font-family:'Bitstream Charter';-inkscape-font-specification:'Bitstream Charter Italic';fill:#ffffff;fill-opacity:1"
         id="path7619" />
      <path
         d="m 2032.7288,1334.6432 -2,4 -2.92,1.28 v 1.2 l 2.48,-0.2 -2.16,10.84 c -0.24,1.12 -0.32,2.04 -0.32,2.68 0,2.44 1.08,3.64 3.36,3.64 1.4,0 3.48,-0.6 6.16,-1.76 v -1.28 c -1.6,0.52 -2.88,0.8 -3.8,0.8 -1.6,0 -2.44,-0.88 -2.44,-2.48 0,-0.44 0.12,-1.04 0.24,-1.76 l 2.08,-10.68 h 6.08 v -1.72 h -5.76 l 0.84,-4.56 z"
         style="font-style:italic;font-variant:normal;font-weight:normal;font-stretch:normal;font-family:'Bitstream Charter';-inkscape-font-specification:'Bitstream Charter Italic';fill:#ffffff;fill-opacity:1"
         id="path7621" />
      <path
         d="m 2050.5682,1338.4832 c -2.72,0 -5.16,1.16 -7.08,3.32 -2,2.28 -3.2,5.52 -3.2,8.76 0,4.64 2.68,7.6 6.8,7.6 2.76,0 5.16,-1.08 7.04,-3.24 2.08,-2.4 3.24,-5.44 3.24,-8.6 0,-4.84 -2.64,-7.84 -6.8,-7.84 z m -0.52,1.56 c 2.44,0 3.92,2.08 3.92,6.04 0,6.08 -3,10.44 -6.4,10.44 -2.4,0 -3.88,-2.08 -3.88,-5.92 0,-6.2 2.92,-10.56 6.36,-10.56 z"
         style="font-style:italic;font-variant:normal;font-weight:normal;font-stretch:normal;font-family:'Bitstream Charter';-inkscape-font-specification:'Bitstream Charter Italic';fill:#ffffff;fill-opacity:1"
         id="path7623" />
      <path
         d="m 2070.1263,1343.0432 c 1.48,-0.08 2.32,-0.92 2.32,-2.04 0,-1.4 -1.44,-2.48 -3.72,-2.48 -3.84,0 -6.88,2.76 -6.88,6.04 0,2.24 1.52,3.32 3.8,5.04 1.68,1.28 2.76,2.2 2.76,3.72 0,2.12 -1.36,3.4 -3.64,3.4 -1.24,0 -2.24,-0.48 -2.88,-1.4 l 0.72,-2 c -0.64,-0.48 -1.16,-0.72 -1.72,-0.72 -1.24,0 -2.08,0.8 -2.08,2.04 0,2.08 1.96,3.52 5.32,3.52 4.36,0 7.32,-2.68 7.32,-6.16 0,-2.4 -1.64,-3.44 -4.04,-5.28 -1.88,-1.44 -3,-2.28 -3,-3.72 0,-1.56 1.2,-2.68 2.8,-2.68 0.44,0 0.84,0.12 1.24,0.4 z"
         style="font-style:italic;font-variant:normal;font-weight:normal;font-stretch:normal;font-family:'Bitstream Charter';-inkscape-font-specification:'Bitstream Charter Italic';fill:#ffffff;fill-opacity:1"
         id="path7625" />
      <path
         d="m 2090.9057,1341.8432 c -1.4,0 -2.56,1.12 -2.56,2.56 0,1.4 1.16,2.52 2.56,2.52 1.4,0 2.52,-1.12 2.52,-2.52 0,-1.44 -1.12,-2.56 -2.52,-2.56 z"
         id="path7627" />
      <path
         d="m 2119.9732,1330.4832 -8.68,2.6 v 1.68 l 6.28,-1.12 v 21.52 l -0.48,0.68 -4.6,0.24 v 1.72 h 13.4 v -1.68 l -4.32,-0.2 -0.48,-0.6 v -24.84 z"
         id="path7629" />
      <path
         d="m 2153.3188,1356.8832 v -6.32 h -2.24 l -0.88,4.44 -0.64,0.64 c -1.2,0.36 -2.36,0.52 -3.48,0.52 -6.48,0 -10.44,-4.48 -10.44,-12.08 0,-7.16 3.88,-11.48 9.84,-11.48 1.56,0 3,0.36 4.48,1.04 l 0.52,0.72 0.6,3.64 h 2.24 v -6.16 c -2.92,-0.92 -5.56,-1.36 -7.92,-1.36 -8.32,0 -13.88,5.56 -13.88,13.88 0,5.24 2.64,9.88 6.92,12.32 1.84,1.04 4.16,1.6 6.8,1.6 2.68,0 5.44,-0.48 8.08,-1.4 z"
         id="path7631" />
      <path
         d="m 2165.8713,1338.1632 c -5.4,0 -9.28,4.04 -9.28,10 0,5.92 3.92,10 9.28,10 5.36,0 9.32,-4.08 9.32,-10 0,-5.92 -3.92,-10 -9.32,-10 z m 0,1.72 c 3.24,0 5.56,3.12 5.56,8.28 0,5.2 -2.32,8.28 -5.56,8.28 -3.2,0 -5.52,-3.12 -5.52,-8.28 0,-5.2 2.28,-8.28 5.52,-8.28 z"
         id="path7633" />
      <path
         d="m 2200.2076,1330.4832 -8.68,2.6 v 1.68 l 6.28,-1.12 v 21.52 l -0.48,0.68 -4.6,0.24 v 1.72 h 13.4 v -1.68 l -4.32,-0.2 -0.48,-0.6 v -24.84 z"
         id="path7635" />
      <path
         d="m 2214.0732,1330.9632 v 13.2 c 0.88,-0.16 2.04,-0.24 3.52,-0.24 5.56,0 8.32,1.88 8.32,6 0,3.72 -2.56,6.4 -6.32,6.4 -0.88,0 -1.8,-0.16 -2.68,-0.48 l -1.6,-3.44 c -0.4,-0.08 -0.72,-0.12 -0.96,-0.12 -1.36,0 -2.32,0.88 -2.32,2.12 0,1.92 2.76,3.76 6.88,3.76 6.56,0 10.68,-3.88 10.68,-9.04 0,-4.56 -3.4,-7.68 -8.76,-7.68 -1.28,0 -2.72,0.2 -4.28,0.64 v -8 h 11.84 v -3.12 z"
         id="path7637" />
      <path
         d="m 2238.6588,1338.5632 c -1.4,0 -2.52,1.08 -2.52,2.52 0,1.4 1.12,2.56 2.52,2.56 1.4,0 2.56,-1.16 2.56,-2.56 0,-1.44 -1.16,-2.52 -2.56,-2.52 z m 0,14.52 c -1.4,0 -2.52,1.12 -2.52,2.56 0,1.44 1.12,2.52 2.52,2.52 1.4,0 2.56,-1.12 2.56,-2.52 0,-1.44 -1.16,-2.56 -2.56,-2.56 z"
         id="path7639" />
      <path
         d="m 2250.6732,1354.6432 c 8.84,-7.04 13.68,-11.56 13.68,-16.6 0,-4.52 -3.16,-7.56 -8.32,-7.56 -4.96,0 -8.48,2.84 -8.48,5.64 0,1.36 0.84,2.24 2.24,2.24 0.64,0 1.24,-0.2 1.8,-0.6 v -4.28 c 1.2,-0.68 2.36,-0.96 3.56,-0.96 3.32,0 5.32,2.24 5.32,6.04 0,5.24 -5,9.6 -13.76,16.72 v 2.52 h 18.52 v -6.56 h -1.8 l -0.72,3.4 z"
         id="path7641" />
      <path
         d="m 2285.0188,1329.2432 c -9.8,0.64 -15.72,7.24 -15.72,17.48 0,7.2 3.92,11.56 9.32,11.56 5.48,0 9.68,-4.16 9.68,-9.56 0,-5.08 -3.56,-8.72 -8.32,-8.72 -2.36,0 -4.72,0.84 -6.8,2.44 1.24,-7.12 5.32,-10.88 11.72,-10.88 0.04,0 0.08,0 0.12,0 z m -11.92,14.96 c 1.64,-1.2 3.6,-1.8 5.8,-1.8 3.4,0 5.76,2.56 5.76,6.68 0,4.24 -2.4,7.28 -5.72,7.28 -3.76,0 -5.92,-3.36 -5.92,-9.72 0,-0.76 0,-1.6 0.08,-2.44 z"
         id="path7643" />
      <path
         d="m 2291.1245,1364.5632 c 4.04,-0.44 6.76,-3.56 6.76,-7 0,-2.56 -1.2,-4 -3.2,-4 -1.36,0 -2.36,0.88 -2.36,2.2 0,0.72 0.2,1.28 0.64,1.76 h 2.56 c 0,0.16 0,0.32 0,0.44 0,2.92 -1.48,4.72 -4.4,5.28 z"
         id="path7645" />
      <path
         d="m 2323.112,1330.6432 -9.36,25.04 -2.32,0.48 v 1.64 h 7.84 v -1.64 l -2.6,-0.2 -0.4,-0.56 2.84,-7.64 h 9.44 l 2.88,7.64 -0.28,0.56 -2.48,0.2 v 1.64 h 9.08 v -1.64 l -2.4,-0.48 -9.6,-25.04 z m 0.64,4.2 4.12,11.08 h -8.08 z"
         id="path7647" />
      <path
         d="m 2338.2188,1366.5232 h 9.4 v -1.44 l -2.56,-0.2 -0.68,-0.64 v -6.68 c 1.48,0.24 2.72,0.36 3.72,0.36 5.92,0 9.84,-4.08 9.84,-10.4 0,-5.6 -3.28,-9.36 -7.68,-9.36 -1.88,0 -3.76,0.8 -5.88,2.4 v -2.2 h -1.52 l -4.64,1.44 v 1.24 h 2.84 v 23.2 l -0.68,0.64 -2.16,0.2 z m 6.16,-11.04 v -13.44 c 1.52,-0.88 2.84,-1.36 4.2,-1.36 3.48,0 5.84,2.76 5.84,7.36 0,4.92 -2.72,8.08 -6.64,8.08 -0.96,0 -2.08,-0.2 -3.4,-0.64 z"
         id="path7649" />
      <path
         d="m 2388.1438,1329.2432 c -9.8,0.64 -15.72,7.24 -15.72,17.48 0,7.2 3.92,11.56 9.32,11.56 5.48,0 9.68,-4.16 9.68,-9.56 0,-5.08 -3.56,-8.72 -8.32,-8.72 -2.36,0 -4.72,0.84 -6.8,2.44 1.24,-7.12 5.32,-10.88 11.72,-10.88 0.04,0 0.08,0 0.12,0 z m -11.92,14.96 c 1.64,-1.2 3.6,-1.8 5.8,-1.8 3.4,0 5.76,2.56 5.76,6.68 0,4.24 -2.4,7.28 -5.72,7.28 -3.76,0 -5.92,-3.36 -5.92,-9.72 0,-0.76 0,-1.6 0.08,-2.44 z"
         id="path7651" />
      <path
         d="m 2399.0495,1338.5632 c -1.4,0 -2.52,1.08 -2.52,2.52 0,1.4 1.12,2.56 2.52,2.56 1.4,0 2.56,-1.16 2.56,-2.56 0,-1.44 -1.16,-2.52 -2.56,-2.52 z m 0,14.52 c -1.4,0 -2.52,1.12 -2.52,2.56 0,1.44 1.12,2.52 2.52,2.52 1.4,0 2.56,-1.12 2.56,-2.52 0,-1.44 -1.16,-2.56 -2.56,-2.56 z"
         id="path7653" />
      <path
         d="m 2418.2638,1343.0432 c -4.36,-1.56 -6.48,-3.36 -6.48,-6 0,-2.64 2.08,-4.72 4.84,-4.72 2.92,0 4.84,2 4.84,5.2 0,2.12 -1.12,4.16 -3.2,5.52 z m 1.68,0.72 c 2.96,-1.56 4.6,-4 4.6,-6.64 0,-3.88 -3,-6.72 -7.8,-6.72 -4.96,0 -8.28,3 -8.28,7.24 0,2.88 1.44,5 4.2,6.16 -3.64,1.4 -5.48,3.76 -5.48,6.92 0,4.52 3.48,7.72 9.24,7.72 5.56,0 9.24,-3.56 9.24,-7.8 0,-3.12 -1.96,-5.56 -5.72,-6.88 z m -5.76,0.88 c 5.36,2 8.04,3.24 8.04,6.4 0,3.16 -2.24,5.32 -5.68,5.32 -3.84,0 -6.28,-2.36 -6.28,-5.88 0,-2.68 1.2,-4.4 3.92,-5.84 z"
         id="path7655" />
      <path
         d="m 2429.2495,1364.5632 c 4.04,-0.44 6.76,-3.56 6.76,-7 0,-2.56 -1.2,-4 -3.2,-4 -1.36,0 -2.36,0.88 -2.36,2.2 0,0.72 0.2,1.28 0.64,1.76 h 2.56 c 0,0.16 0,0.32 0,0.44 0,2.92 -1.48,4.72 -4.4,5.28 z"
         id="path7657" />
      <path
         d="m 2451.197,1330.9632 v 1.6 l 2.28,0.24 0.68,0.56 v 22.04 l -0.68,0.56 -2.28,0.2 v 1.64 h 9.52 v -1.64 l -2.28,-0.2 -0.68,-0.56 v -9.52 c 0.72,-0.04 1.4,-0.08 2,-0.08 3.64,0 5.2,1.04 6.28,4.32 0.84,2.56 1,5.16 2.92,6.84 0.92,0.8 2.24,1.16 4.04,1.16 0.92,0 1.92,-0.12 3.12,-0.36 v -1.52 c -0.12,0 -0.24,0 -0.36,0 -3.04,0 -4.32,-0.48 -5.2,-2.84 -0.72,-1.88 -0.76,-4.08 -1.88,-5.92 -0.8,-1.32 -2.16,-2.16 -4.12,-2.68 4.32,-0.96 6.48,-3.2 6.48,-6.64 0,-4.92 -3.16,-7.2 -9.64,-7.2 z m 6.56,1.84 h 1.92 c 4.96,0 7.36,1.52 7.36,5.68 0,3.96 -2.28,5.52 -7.08,5.52 -0.24,0 -0.96,0 -2.2,-0.04 z"
         id="path7659" />
      <path
         d="m 2493.8963,1340.8432 c -0.92,-1.76 -2.44,-2.68 -4.4,-2.68 -1.68,0 -3.76,0.84 -6.4,2.4 v -2.2 h -1.52 l -4.64,1.44 v 1.24 h 2.84 v 14.48 l -0.68,0.64 -2.16,0.2 v 1.44 h 8.76 v -1.44 l -1.92,-0.2 -0.68,-0.64 v -13.4 c 1.76,-0.88 3.24,-1.32 4.56,-1.32 2.4,0 3.52,1.32 3.52,4.12 v 10.6 l -0.68,0.64 -1.92,0.2 v 1.44 h 8.52 v -1.44 l -1.88,-0.2 -0.72,-0.64 v -13.4 c 1.72,-0.84 3.24,-1.32 4.52,-1.32 2.48,0 3.6,1.32 3.6,4.12 v 10.6 l -0.72,0.64 -1.88,0.2 v 1.44 h 8.72 v -1.44 l -2.12,-0.2 -0.68,-0.64 v -11.28 c 0,-3.96 -2,-6.08 -5.16,-6.08 -1.6,0 -3.88,0.92 -6.88,2.68 z"
         id="path7661" />
      <path
         d="m 2538.3001,1329.2432 c -9.8,0.64 -15.72,7.24 -15.72,17.48 0,7.2 3.92,11.56 9.32,11.56 5.48,0 9.68,-4.16 9.68,-9.56 0,-5.08 -3.56,-8.72 -8.32,-8.72 -2.36,0 -4.72,0.84 -6.8,2.44 1.24,-7.12 5.32,-10.88 11.72,-10.88 0.04,0 0.08,0 0.12,0 z m -11.92,14.96 c 1.64,-1.2 3.6,-1.8 5.8,-1.8 3.4,0 5.76,2.56 5.76,6.68 0,4.24 -2.4,7.28 -5.72,7.28 -3.76,0 -5.92,-3.36 -5.92,-9.72 0,-0.76 0,-1.6 0.08,-2.44 z"
         id="path7663" />
      <path
         d="m 2549.2057,1338.5632 c -1.4,0 -2.52,1.08 -2.52,2.52 0,1.4 1.12,2.56 2.52,2.56 1.4,0 2.56,-1.16 2.56,-2.56 0,-1.44 -1.16,-2.52 -2.56,-2.52 z m 0,14.52 c -1.4,0 -2.52,1.12 -2.52,2.56 0,1.44 1.12,2.52 2.52,2.52 1.4,0 2.56,-1.12 2.56,-2.52 0,-1.44 -1.16,-2.56 -2.56,-2.56 z"
         id="path7665" />
      <path
         d="m 2561.2201,1354.6432 c 8.84,-7.04 13.68,-11.56 13.68,-16.6 0,-4.52 -3.16,-7.56 -8.32,-7.56 -4.96,0 -8.48,2.84 -8.48,5.64 0,1.36 0.84,2.24 2.24,2.24 0.64,0 1.24,-0.2 1.8,-0.6 v -4.28 c 1.2,-0.68 2.36,-0.96 3.56,-0.96 3.32,0 5.32,2.24 5.32,6.04 0,5.24 -5,9.6 -13.76,16.72 v 2.52 h 18.52 v -6.56 h -1.8 l -0.72,3.4 z"
         id="path7667" />
      <path
         d="m 2590.5257,1343.6832 c 3.92,-1.12 5.96,-3.4 5.96,-6.48 0,-4.04 -3.08,-6.72 -7.88,-6.72 -5,0 -8.44,2.68 -8.44,5.32 0,1.28 0.88,2.16 2.16,2.16 0.64,0 1.16,-0.16 1.64,-0.52 v -3.76 c 1.16,-0.8 2.4,-1.16 3.8,-1.16 3.08,0 5.08,2.04 5.08,5.2 0,3.24 -2.16,5.16 -6.2,5.16 -0.28,0 -0.56,-0.04 -0.84,-0.04 v 2.36 c 0.76,-0.12 1.48,-0.16 2.12,-0.16 3.84,0 5.92,1.84 5.92,5 0,3.56 -2.64,6.32 -6.28,6.32 -1.2,0 -2.32,-0.32 -3.4,-0.96 l -1.24,-3.4 c -0.44,-0.16 -0.84,-0.2 -1.2,-0.2 -1.28,0 -2.24,0.88 -2.24,2.04 0,2.04 3.16,4.4 7.92,4.4 6.16,0 10.12,-3.64 10.12,-8.12 0,-3.64 -2.56,-6.12 -7,-6.44 z"
         id="path7669" />
      <path
         d="m 2601.6713,1364.5632 c 4.04,-0.44 6.76,-3.56 6.76,-7 0,-2.56 -1.2,-4 -3.2,-4 -1.36,0 -2.36,0.88 -2.36,2.2 0,0.72 0.2,1.28 0.64,1.76 h 2.56 c 0,0.16 0,0.32 0,0.44 0,2.92 -1.48,4.72 -4.4,5.28 z"
         id="path7671" />
      <path
         d="m 2623.6188,1330.9632 v 1.6 l 2.28,0.24 0.68,0.56 v 22.04 l -0.68,0.56 -2.28,0.2 v 1.64 h 9.72 v -1.64 l -2.48,-0.2 -0.68,-0.56 v -10.76 h 13.76 v 10.76 l -0.68,0.56 -2.48,0.2 v 1.64 h 9.72 v -1.64 l -2.28,-0.2 -0.68,-0.56 v -22.04 l 0.68,-0.56 2.28,-0.24 v -1.6 h -9.72 v 1.6 l 2.48,0.24 0.68,0.56 v 9.44 h -13.76 v -9.44 l 0.68,-0.56 2.48,-0.24 v -1.6 z"
         id="path7673" />
      <path
         d="m 2657.0701,1328.3632 -4.92,1.44 v 1.24 h 3.12 v 26.76 h 5.12 c 7.64,0 11.6,-3.64 11.6,-10.52 0,-5.44 -3.2,-9.12 -7.92,-9.12 -1.76,0 -3.56,0.48 -5.48,1.4 v -11.2 z m 1.52,27.6 v -15.04 c 1.32,-0.4 2.52,-0.64 3.52,-0.64 4,0 6.28,2.76 6.28,7.76 0,5.52 -2.4,7.96 -7.6,7.96 -0.2,0 -0.96,0 -2.2,-0.04 z"
         id="path7675" />
      <path
         d="m 2679.7526,1338.5632 c -1.4,0 -2.52,1.08 -2.52,2.52 0,1.4 1.12,2.56 2.52,2.56 1.4,0 2.56,-1.16 2.56,-2.56 0,-1.44 -1.16,-2.52 -2.56,-2.52 z m 0,14.52 c -1.4,0 -2.52,1.12 -2.52,2.56 0,1.44 1.12,2.52 2.52,2.52 1.4,0 2.56,-1.12 2.56,-2.52 0,-1.44 -1.16,-2.56 -2.56,-2.56 z"
         id="path7677" />
      <path
         d="m 2691.767,1354.6432 c 8.84,-7.04 13.68,-11.56 13.68,-16.6 0,-4.52 -3.16,-7.56 -8.32,-7.56 -4.96,0 -8.48,2.84 -8.48,5.64 0,1.36 0.84,2.24 2.24,2.24 0.64,0 1.24,-0.2 1.8,-0.6 v -4.28 c 1.2,-0.68 2.36,-0.96 3.56,-0.96 3.32,0 5.32,2.24 5.32,6.04 0,5.24 -5,9.6 -13.76,16.72 v 2.52 h 18.52 v -6.56 h -1.8 l -0.72,3.4 z"
         id="path7679" />
    </g>
  </g>
</svg>
