<?xml version="1.0" encoding="UTF-8" standalone="no"?>
<!-- Created with Inkscape (http://www.inkscape.org/) -->

<svg
   width="169.31944mm"
   height="38.26749mm"
   viewBox="0 0 169.31945 38.26749"
   version="1.1"
   id="svg8"
   xmlns="http://www.w3.org/2000/svg"
   xmlns:svg="http://www.w3.org/2000/svg"
   xmlns:rdf="http://www.w3.org/1999/02/22-rdf-syntax-ns#"
   xmlns:cc="http://creativecommons.org/ns#"
   xmlns:dc="http://purl.org/dc/elements/1.1/">
  <defs
     id="defs2" />
  <metadata
     id="metadata5">
    <rdf:RDF>
      <cc:Work
         rdf:about="">
        <dc:format>image/svg+xml</dc:format>
        <dc:type
           rdf:resource="http://purl.org/dc/dcmitype/StillImage" />
      </cc:Work>
    </rdf:RDF>
  </metadata>
  <g
     id="layer1"
     transform="translate(56.134002,63.123981)"
     style="display:inline">
    <g
       aria-label="Propósito Eterno de Deus"
       transform="matrix(0.40930712,0,0,0.40930712,-160.76047,-16.513597)"
       style="font-style:normal;font-variant:normal;font-weight:bold;font-stretch:normal;font-size:53.3333px;line-height:1;font-family:'Bitstream Charter';-inkscape-font-specification:'Bitstream Charter Bold';letter-spacing:0px;word-spacing:0px;fill:#000000;fill-opacity:1;stroke:none"
       id="flowRoot58">
      <path
         d="m 255.83182,-74.302973 h 15.73334 v -2.613334 l -3.78667,-0.266667 -0.8,-0.853333 v -9.6 c 1.6,0.106666 2.82667,0.16 3.62667,0.16 8.96,0 13.97333,-4.480001 13.97333,-11.840001 0,-7.680002 -4.69333,-10.773332 -14.56,-10.773332 h -14.4 v 2.61333 l 3.52,0.26667 0.8,0.74667 v 28.426663 l -0.96,0.853333 -3.14667,0.266667 z m 11.14667,-16.373335 v -16.320002 h 2.77333 c 4.85334,0 7.46667,2.82667 7.46667,7.893335 0,5.653334 -2.77333,8.533334 -8.32,8.533334 -0.58667,0 -1.22667,-0.05333 -1.92,-0.106667 z"
         id="path7844" />
      <path
         d="m 287.18599,-74.302973 h 14.72 v -2.400001 l -3.78667,-0.213333 -0.8,-0.8 v -15.306667 c 1.65334,-1.013334 2.93334,-1.493334 3.78667,-1.493334 1.54667,0 2.66667,0.586667 3.46667,1.92 h 2.77333 l 0.69334,-7.36 c -1.17334,-0.586662 -2.34667,-0.906662 -3.52,-0.906662 -0.37334,0 -0.8,0.0533 -1.17334,0.10666 -2.18667,1.546669 -4.32,3.360002 -6.24,5.440002 l 0.21333,-5.440002 h -2.56 l -7.84,2.506669 v 2.133333 h 3.84 v 18.400001 l -0.74666,0.8 -2.82667,0.213333 z"
         id="path7846" />
      <path
         d="m 323.926,-100.91631 c -8.37334,0 -13.81334,5.440002 -13.81334,13.653336 0,8.053334 5.38667,13.386667 13.38667,13.386667 8.42667,0 13.81333,-5.386667 13.81333,-13.28 0,-8.480001 -5.22666,-13.760003 -13.38666,-13.760003 z m -0.21334,2.826669 c 3.78667,0 6.24,3.786667 6.24,10.773334 0,6.933333 -2.34666,10.613333 -6.29333,10.613333 -3.73333,0 -6.13333,-3.786666 -6.13333,-10.773333 0,-6.880001 2.4,-10.613334 6.18666,-10.613334 z"
         id="path7848" />
      <path
         d="m 340.09516,-62.622973 h 14.24 l 0.0533,-2.453333 -3.36,-0.213334 -0.8,-0.746666 v -8.533334 c 1.76,0.213333 3.2,0.32 4.37334,0.32 8.64,0 14.13333,-5.546667 14.13333,-14.080001 0,-7.466667 -4.42667,-12.586669 -10.08,-12.586669 -2.61333,0 -5.28,1.173335 -8.42667,3.360002 v -3.200002 h -2.4 l -7.78666,2.506669 v 2.133333 h 3.68 v 29.973335 l -0.74667,0.8 -2.88,0.266667 z m 10.13333,-14.880001 v -17.813334 c 1.6,-0.64 2.98667,-1.013333 4.21334,-1.013333 4.32,0 7.04,3.2 7.04,8.906667 0,6.4 -3.14667,10.293334 -7.84,10.293334 -1.06667,0 -2.18667,-0.106667 -3.41334,-0.373334 z"
         id="path7850" />
      <path
         d="m 386.21767,-100.91631 c -8.37334,0 -13.81334,5.440002 -13.81334,13.653336 0,8.053334 5.38667,13.386667 13.38667,13.386667 8.42667,0 13.81333,-5.386667 13.81333,-13.28 0,-8.480001 -5.22666,-13.760003 -13.38666,-13.760003 z m -0.21334,2.826669 c 3.78667,0 6.24,3.786667 6.24,10.773334 0,6.933333 -2.34666,10.613333 -6.29333,10.613333 -3.73333,0 -6.13333,-3.786666 -6.13333,-10.773333 0,-6.880001 2.4,-10.613334 6.18666,-10.613334 z m 2.66667,-15.786669 -5.17333,10.13334 h 3.57333 l 8.21333,-10.13334 z"
         id="path7852" />
      <path
         d="m 422.22682,-99.636308 c -2.72,-0.906662 -5.38666,-1.333332 -8.05333,-1.333332 -6.56,0 -10.45333,3.359999 -10.45333,7.946666 0,3.2 2.02666,5.066667 5.97333,7.04 4.16,2.08 7.04,2.613333 7.04,5.493334 0,2.346666 -1.65333,3.84 -4.53333,3.84 -1.6,0 -3.09334,-0.373334 -4.48,-1.12 l -0.53334,-0.586667 -0.58666,-4.586667 h -3.25334 v 7.893334 c 3.30667,0.906667 6.24,1.333333 8.8,1.333333 6.88,0 10.88,-3.413333 10.88,-8.8 0,-3.84 -3.04,-5.28 -7.78666,-7.573334 -3.14667,-1.546667 -4.96,-2.453333 -4.96,-4.693333 0,-1.973334 1.44,-3.200001 4.05333,-3.200001 1.22667,0 2.4,0.32 3.52,0.853334 l 0.64,0.586667 0.53333,4 h 3.2 z"
         id="path7854" />
      <path
         d="m 433.65433,-112.91631 c -2.18667,0 -3.84,1.70667 -3.84,4 0,2.34667 1.76,3.94667 3.89333,3.94667 2.24,0 3.94667,-1.65333 3.94667,-4.05334 0,-2.18666 -1.6,-3.89333 -4,-3.89333 z m 0.58667,12.16 -7.52001,2.506669 v 2.133333 h 3.52 v 18.400001 l -0.74666,0.8 -2.88,0.213333 v 2.400001 h 13.97333 v -2.400001 l -2.98666,-0.213333 -0.8,-0.8 v -23.040003 z"
         id="path7856" />
      <path
         d="m 445.74433,-96.382974 v 15.52 c 0,2.72 0.0533,4.426667 1.92,5.653334 1.22667,0.853333 2.66667,1.173333 4.42667,1.173333 2.18666,0 4.96,-0.533333 8.16,-1.706666 v -2.560001 c -1.06667,0.266667 -2.18667,0.373334 -3.46667,0.373334 -3.52,0 -4.42667,-1.386667 -4.42667,-5.173334 v -13.28 h 7.89334 v -3.200001 h -7.89334 v -6.613335 h -3.36 l -2.77333,5.54667 -3.94667,2.239999 v 2.026667 z"
         id="path7858" />
      <path
         d="m 476.1135,-100.91631 c -8.37334,0 -13.81334,5.440002 -13.81334,13.653336 0,8.053334 5.38667,13.386667 13.38667,13.386667 8.42667,0 13.81333,-5.386667 13.81333,-13.28 0,-8.480001 -5.22666,-13.760003 -13.38666,-13.760003 z m -0.21334,2.826669 c 3.78667,0 6.24,3.786667 6.24,10.773334 0,6.933333 -2.34666,10.613333 -6.29333,10.613333 -3.73333,0 -6.13333,-3.786666 -6.13333,-10.773333 0,-6.880001 2.4,-10.613334 6.18666,-10.613334 z"
         id="path7860" />
      <path
         d="m 508.12349,-74.302973 h 28.64001 v -9.546668 h -3.62667 l -0.90667,5.653334 -0.69333,0.853333 H 519.1635 v -13.866667 h 6.93333 l 0.74667,0.746667 0.53333,3.84 h 3.14667 v -12.373334 h -3.14667 l -0.53333,3.84 -0.74667,0.746667 h -6.93333 v -12.693329 h 10.61333 l 0.69333,0.69333 0.8,4.69333 h 3.73334 v -8.37333 h -26.88001 v 2.61333 l 3.25334,0.26667 0.85333,0.74667 v 28.426663 l -0.85333,0.853333 -3.25334,0.266667 z"
         id="path7862" />
      <path
         d="m 542.82766,-96.382974 v 15.52 c 0,2.72 0.0533,4.426667 1.92,5.653334 1.22666,0.853333 2.66666,1.173333 4.42666,1.173333 2.18667,0 4.96,-0.533333 8.16,-1.706666 v -2.560001 c -1.06666,0.266667 -2.18666,0.373334 -3.46666,0.373334 -3.52,0 -4.42667,-1.386667 -4.42667,-5.173334 v -13.28 h 7.89333 v -3.200001 h -7.89333 v -6.613335 h -3.36 l -2.77333,5.54667 -3.94667,2.239999 v 2.026667 z"
         id="path7864" />
      <path
         d="m 583.59682,-80.916307 c -3.09333,1.973333 -5.97333,2.933333 -8.8,2.933333 -5.28,0 -8.58666,-3.626666 -8.58666,-9.76 0,-0.05333 0,-0.106667 0,-0.16 h 17.44 c 0,-0.32 0,-0.693333 0,-1.013333 0,-7.680001 -4.10667,-12.053333 -11.09334,-12.053333 -7.68,0 -13.17333,5.599999 -13.17333,13.759999 0,8.053334 5.22667,13.386668 13.17333,13.386668 3.73334,0 7.46667,-1.066667 11.04,-3.146667 z m -6.93333,-9.813334 h -10.18667 c 0.16,-4.64 2.34667,-7.306667 5.54667,-7.306667 2.93333,0 4.64,2.293334 4.64,6.72 0,0.213334 0,0.373334 0,0.586667 z"
         id="path7866" />
      <path
         d="m 586.87351,-74.302973 h 14.72 v -2.400001 l -3.78667,-0.213333 -0.8,-0.8 v -15.306667 c 1.65334,-1.013334 2.93334,-1.493334 3.78667,-1.493334 1.54667,0 2.66667,0.586667 3.46667,1.92 h 2.77333 l 0.69333,-7.36 c -1.17333,-0.586662 -2.34666,-0.906662 -3.52,-0.906662 -0.37333,0 -0.8,0.0533 -1.17333,0.10666 -2.18667,1.546669 -4.32,3.360002 -6.24,5.440002 l 0.21333,-5.440002 h -2.56 l -7.84,2.506669 v 2.133333 h 3.84 v 18.400001 l -0.74666,0.8 -2.82667,0.213333 z"
         id="path7868" />
      <path
         d="m 609.48018,-74.302973 h 13.17333 v -2.400001 l -2.34667,-0.213333 -0.74666,-0.8 v -17.600001 c 2.02666,-0.586666 3.73333,-0.906666 5.06666,-0.906666 3.36,0 4.8,1.813333 4.8,5.76 v 12.746667 l -0.74666,0.8 -2.29334,0.213333 v 2.400001 h 13.06667 v -2.400001 l -2.82667,-0.213333 -0.69333,-0.8 v -14.293334 c 0,-5.92 -2.34667,-8.853329 -7.25333,-8.853329 -2.34667,0 -5.33334,1.173329 -9.12,3.253329 v -3.146669 h -2.56 l -7.68,2.506669 v 2.133333 h 3.62666 v 18.400001 l -0.74666,0.8 -2.72,0.213333 z"
         id="path7870" />
      <path
         d="m 655.90517,-100.91631 c -8.37334,0 -13.81334,5.440002 -13.81334,13.653336 0,8.053334 5.38667,13.386667 13.38667,13.386667 8.42667,0 13.81333,-5.386667 13.81333,-13.28 0,-8.480001 -5.22666,-13.760003 -13.38666,-13.760003 z m -0.21334,2.826669 c 3.78667,0 6.24,3.786667 6.24,10.773334 0,6.933333 -2.34666,10.613333 -6.29333,10.613333 -3.73333,0 -6.13333,-3.786666 -6.13333,-10.773333 0,-6.880001 2.4,-10.613334 6.18666,-10.613334 z"
         id="path7872" />
      <path
         d="m 275.03182,-55.742973 v 8.640001 c -1.92,-0.373333 -3.57333,-0.533333 -5.01333,-0.533333 -8.10667,0 -13.76,5.706666 -13.76,14.293334 0,7.68 4.37333,12.853333 10.34667,12.853333 2.72,0 5.38666,-1.226666 8.42666,-3.466666 v 2.986666 h 9.97334 v -2.346666 l -2.72,-0.213334 -0.74667,-0.853333 v -36.000002 h -2.45333 l -7.94667,2.506667 v 2.133333 z m 0,29.706669 c -1.70666,0.64 -3.2,1.013333 -4.48,1.013333 -4.42666,0 -7.14666,-3.466667 -7.14666,-9.440001 0,-6.346666 3.14666,-10.186667 7.68,-10.186667 1.12,0 2.4,0.266667 3.94666,0.8 z"
         id="path7874" />
      <path
         d="m 312.24266,-27.582971 c -3.09334,1.973333 -5.97334,2.933333 -8.8,2.933333 -5.28,0 -8.58667,-3.626667 -8.58667,-9.76 0,-0.05333 0,-0.106667 0,-0.16 h 17.44 c 0,-0.32 0,-0.693334 0,-1.013334 0,-7.68 -4.10667,-12.053333 -11.09333,-12.053333 -7.68,0 -13.17334,5.6 -13.17334,13.76 0,8.053334 5.22667,13.386667 13.17334,13.386667 3.73333,0 7.46666,-1.066666 11.04,-3.146666 z m -6.93334,-9.813334 h -10.18666 c 0.16,-4.64 2.34666,-7.306667 5.54666,-7.306667 2.93334,0 4.64,2.293333 4.64,6.72 0,0.213334 0,0.373334 0,0.586667 z"
         id="path7876" />
      <path
         d="m 346.61349,-56.756306 h -15.57333 v 2.613334 l 3.25333,0.266666 0.85334,0.853334 v 28.320001 l -0.85334,0.853333 -3.25333,0.266667 v 2.613333 h 15.57333 c 5.33334,0 9.33334,-0.8 12.64,-3.36 4.32,-3.306667 6.56,-8.213333 6.56,-14.506667 0,-11.200001 -6.82666,-17.920001 -19.2,-17.920001 z m -4.42666,2.986667 h 3.09333 c 8.48,0 12.58667,4.853333 12.58667,14.880001 0,10.026667 -4.10667,14.933334 -12.58667,14.933334 h -3.09333 z"
         id="path7878" />
      <path
         d="m 393.90932,-27.582971 c -3.09333,1.973333 -5.97333,2.933333 -8.8,2.933333 -5.28,0 -8.58666,-3.626667 -8.58666,-9.76 0,-0.05333 0,-0.106667 0,-0.16 h 17.44 c 0,-0.32 0,-0.693334 0,-1.013334 0,-7.68 -4.10667,-12.053333 -11.09334,-12.053333 -7.68,0 -13.17333,5.6 -13.17333,13.76 0,8.053334 5.22667,13.386667 13.17333,13.386667 3.73334,0 7.46667,-1.066666 11.04,-3.146666 z m -6.93333,-9.813334 h -10.18667 c 0.16,-4.64 2.34667,-7.306667 5.54667,-7.306667 2.93333,0 4.64,2.293333 4.64,6.72 0,0.213334 0,0.373334 0,0.586667 z"
         id="path7880" />
      <path
         d="m 404.386,-47.582972 -7.52001,2.56 v 2.08 h 3.46667 v 13.333334 c 0,6.133334 2.34667,9.12 7.30667,9.12 2.82667,0 5.6,-1.226666 8.96,-3.413333 v 2.933333 h 10.08 v -2.4 l -2.77333,-0.213333 -0.74667,-0.8 V -47.582972 H 420.706 l -7.57334,2.56 v 2.08 h 3.46667 v 17.013334 c -1.76,0.533334 -3.25333,0.853334 -4.58667,0.853334 -3.68,0 -5.06666,-1.813334 -5.06666,-5.973334 v -16.533334 z"
         id="path7882" />
      <path
         d="m 448.68517,-46.302972 c -2.72,-0.906667 -5.38667,-1.333333 -8.05334,-1.333333 -6.56,0 -10.45333,3.36 -10.45333,7.946667 0,3.2 2.02667,5.066666 5.97333,7.04 4.16,2.08 7.04,2.613333 7.04,5.493333 0,2.346667 -1.65333,3.840001 -4.53333,3.840001 -1.6,0 -3.09333,-0.373334 -4.48,-1.12 l -0.53333,-0.586667 -0.58667,-4.586667 h -3.25333 v 7.893334 c 3.30666,0.906666 6.24,1.333333 8.8,1.333333 6.88,0 10.88,-3.413333 10.88,-8.8 0,-3.84 -3.04,-5.280001 -7.78667,-7.573334 -3.14667,-1.546667 -4.96,-2.453333 -4.96,-4.693334 0,-1.973333 1.44,-3.2 4.05333,-3.2 1.22667,0 2.4,0.32 3.52,0.853334 l 0.64,0.586666 0.53334,4.000001 h 3.2 z"
         id="path7884" />
    </g>
  </g>
</svg>
