<?xml version="1.0" encoding="UTF-8" standalone="no"?>
<!-- Created with Inkscape (http://www.inkscape.org/) -->

<svg
   width="57.431675mm"
   height="4.7434502mm"
   viewBox="0 0 57.431676 4.7434501"
   version="1.1"
   id="svg8"
   xmlns="http://www.w3.org/2000/svg"
   xmlns:svg="http://www.w3.org/2000/svg"
   xmlns:rdf="http://www.w3.org/1999/02/22-rdf-syntax-ns#"
   xmlns:cc="http://creativecommons.org/ns#"
   xmlns:dc="http://purl.org/dc/elements/1.1/">
  <defs
     id="defs2" />
  <metadata
     id="metadata5">
    <rdf:RDF>
      <cc:Work
         rdf:about="">
        <dc:format>image/svg+xml</dc:format>
        <dc:type
           rdf:resource="http://purl.org/dc/dcmitype/StillImage" />
      </cc:Work>
    </rdf:RDF>
  </metadata>
  <g
     id="layer1"
     transform="translate(-415.61086,103.86455)"
     style="display:inline">
    <g
       aria-label="Tessalonicenses 5:23"
       transform="matrix(0.26458333,0,0,0.26458333,-141.48051,-98.382904)"
       style="font-style:normal;font-variant:normal;font-weight:normal;font-stretch:normal;font-size:24px;line-height:1.25;font-family:'Bitstream Charter';-inkscape-font-specification:'Bitstream Charter';letter-spacing:0px;word-spacing:0px;fill:#000000;fill-opacity:1;stroke:none"
       id="flowRoot6124">
      <path
         d="m 2105.5422,-19.158015 v 3.696 h 1.32 l 0.336,-2.232 0.336,-0.36 h 3.696 v 13.5600003 l -0.432,0.336 -1.608,0.12 v 0.984 h 6.264 v -0.984 l -1.608,-0.12 -0.432,-0.336 V -18.054015 h 3.696 l 0.336,0.36 0.336,2.232 h 1.32 v -3.696 z"
         id="path7094" />
      <path
         d="m 2130.254,-5.5980147 c -1.368,0.912 -2.568,1.392 -3.768,1.392 -2.424,0 -4.032,-1.824 -4.032,-4.896 0,-0.072 0,-0.168 0,-0.264 h 7.776 c 0.024,-0.264 0.024,-0.504 0.024,-0.7440003 0,-2.952 -1.704,-4.728 -4.32,-4.728 -3.216,0 -5.544,2.472 -5.544,6.0960003 0,3.528 2.184,5.904 5.352,5.904 1.512,0 3.072,-0.48 4.512,-1.44 z m -2.136,-4.7760003 h -5.544 c 0.144,-2.04 1.512,-3.384 3.048,-3.384 1.608,0 2.496,1.056 2.496,3 0,0.12 0,0.264 0,0.384 z"
         id="path7096" />
      <path
         d="m 2139.5236,-14.310015 c -0.816,-0.36 -1.752,-0.528 -2.808,-0.528 -2.736,0 -4.248,1.248 -4.248,3.36 0,1.6080003 1.056,2.3760003 3.096,3.2880003 1.584,0.72 2.448,1.152 2.448,2.4 0,1.128 -0.864,1.944 -2.256,1.944 -0.696,0 -1.368,-0.192 -2.04,-0.576 l -0.288,-2.04 h -1.152 v 3.12 c 0.84,0.312 1.896,0.504 3.12,0.504 2.832,0 4.488,-1.368 4.488,-3.6 0,-0.888 -0.336,-1.608 -0.912,-2.064 -0.792,-0.648 -1.704,-0.984 -2.544,-1.392 -1.344,-0.6480003 -2.04,-1.1520003 -2.04,-2.1840003 0,-1.08 0.72,-1.728 1.992,-1.728 0.576,0 1.152,0.168 1.776,0.504 l 0.192,1.704 h 1.176 z"
         id="path7098" />
      <path
         d="m 2149.133,-14.310015 c -0.816,-0.36 -1.752,-0.528 -2.808,-0.528 -2.736,0 -4.248,1.248 -4.248,3.36 0,1.6080003 1.056,2.3760003 3.096,3.2880003 1.584,0.72 2.448,1.152 2.448,2.4 0,1.128 -0.864,1.944 -2.256,1.944 -0.696,0 -1.368,-0.192 -2.04,-0.576 l -0.288,-2.04 h -1.152 v 3.12 c 0.84,0.312 1.896,0.504 3.12,0.504 2.832,0 4.488,-1.368 4.488,-3.6 0,-0.888 -0.336,-1.608 -0.912,-2.064 -0.792,-0.648 -1.704,-0.984 -2.544,-1.392 -1.344,-0.6480003 -2.04,-1.1520003 -2.04,-2.1840003 0,-1.08 0.72,-1.728 1.992,-1.728 0.576,0 1.152,0.168 1.776,0.504 l 0.192,1.704 h 1.176 z"
         id="path7100" />
      <path
         d="m 2158.5023,-4.4460147 0.312,1.392 h 3.384 v -0.864 l -1.272,-0.12 -0.432,-0.384 v -6.9600003 c 0,-2.424 -1.056,-3.456 -3.576,-3.456 -3.024,0 -4.848,1.248 -4.848,2.712 0,0.576 0.192,0.744 0.744,0.744 h 1.656 v -2.016 c 0.648,-0.264 1.224,-0.384 1.824,-0.384 1.728,0 2.208,0.792 2.208,2.688 v 0.768 c -4.8,1.1520003 -7.008,1.8720003 -7.008,4.3680003 0,1.8 1.176,3.072 3.072,3.072 1.152,0 2.424,-0.528 3.936,-1.56 z m 0,-0.816 c -1.2,0.696 -2.184,1.08 -2.976,1.08 -1.2,0 -1.92,-0.792 -1.92,-1.968 0,-1.752 1.512,-2.4 4.896,-3.336 z"
         id="path7102" />
      <path
         d="m 2163.3458,-3.0540147 h 5.616 v -0.864 l -1.368,-0.12 -0.432,-0.384 V -20.718015 h -0.912 l -2.928,0.864 v 0.744 h 1.848 v 14.6880003 l -0.408,0.384 -1.416,0.12 z"
         id="path7104" />
      <path
         d="m 2175.8798,-14.838015 c -3.24,0 -5.568,2.424 -5.568,6.0000003 0,3.552 2.352,6 5.568,6 3.216,0 5.592,-2.448 5.592,-6 0,-3.5520003 -2.352,-6.0000003 -5.592,-6.0000003 z m 0,1.032 c 1.944,0 3.336,1.872 3.336,4.9680003 0,3.12 -1.392,4.968 -3.336,4.968 -1.92,0 -3.312,-1.872 -3.312,-4.968 0,-3.1200003 1.368,-4.9680003 3.312,-4.9680003 z"
         id="path7106" />
      <path
         d="m 2183.0813,-3.0540147 h 5.256 v -0.864 l -1.152,-0.12 -0.408,-0.384 v -8.0400003 c 1.032,-0.528 1.92,-0.792 2.688,-0.792 1.776,0 2.424,0.72 2.424,2.472 v 6.3600003 l -0.408,0.384 -1.152,0.12 v 0.864 h 5.256 v -0.864 l -1.296,-0.12 -0.408,-0.384 v -6.7680003 c 0,-2.4 -1.152,-3.648 -3.24,-3.648 -1.032,0 -2.256,0.552 -3.864,1.44 v -1.32 h -0.912 l -2.784,0.864 v 0.744 h 1.704 v 8.6880003 l -0.408,0.384 -1.296,0.12 z"
         id="path7108" />
      <path
         d="m 2199.698,-20.046015 c -0.768,0 -1.392,0.6 -1.392,1.392 0,0.768 0.624,1.368 1.392,1.368 0.768,0 1.392,-0.6 1.392,-1.368 0,-0.768 -0.624,-1.392 -1.392,-1.392 z m -0.096,5.328 -2.76,0.864 v 0.744 h 1.68 v 8.6880003 l -0.408,0.384 -1.272,0.12 v 0.864 h 5.4 v -0.864 l -1.296,-0.12 -0.432,-0.384 V -14.718015 Z"
         id="path7110" />
      <path
         d="m 2212.9051,-4.0620147 v -1.248 c -1.008,0.672 -1.992,1.008 -3.048,1.008 -2.496,0 -4.08,-1.752 -4.08,-4.704 0,-3.0240003 1.464,-4.8720003 3.528,-4.8720003 0.408,0 0.792,0.12 1.152,0.336 v 1.968 c 0.36,0.24 0.72,0.36 1.08,0.36 0.816,0 1.344,-0.504 1.344,-1.272 0,-1.392 -1.296,-2.352 -3.6,-2.352 -3.36,0 -5.688,2.424 -5.688,6.0000003 0,3.552 2.136,5.952 5.4,5.952 1.296,0 2.592,-0.408 3.912,-1.176 z"
         id="path7112" />
      <path
         d="m 2224.1446,-5.5980147 c -1.368,0.912 -2.568,1.392 -3.768,1.392 -2.424,0 -4.032,-1.824 -4.032,-4.896 0,-0.072 0,-0.168 0,-0.264 h 7.776 c 0.024,-0.264 0.024,-0.504 0.024,-0.7440003 0,-2.952 -1.704,-4.728 -4.32,-4.728 -3.216,0 -5.544,2.472 -5.544,6.0960003 0,3.528 2.184,5.904 5.352,5.904 1.512,0 3.072,-0.48 4.512,-1.44 z m -2.136,-4.7760003 h -5.544 c 0.144,-2.04 1.512,-3.384 3.048,-3.384 1.608,0 2.496,1.056 2.496,3 0,0.12 0,0.264 0,0.384 z"
         id="path7114" />
      <path
         d="m 2225.8782,-3.0540147 h 5.256 v -0.864 l -1.152,-0.12 -0.408,-0.384 v -8.0400003 c 1.032,-0.528 1.92,-0.792 2.688,-0.792 1.776,0 2.424,0.72 2.424,2.472 v 6.3600003 l -0.408,0.384 -1.152,0.12 v 0.864 h 5.256 v -0.864 l -1.296,-0.12 -0.408,-0.384 v -6.7680003 c 0,-2.4 -1.152,-3.648 -3.24,-3.648 -1.032,0 -2.256,0.552 -3.864,1.44 v -1.32 h -0.912 l -2.784,0.864 v 0.744 h 1.704 v 8.6880003 l -0.408,0.384 -1.296,0.12 z"
         id="path7116" />
      <path
         d="m 2247.0548,-14.310015 c -0.816,-0.36 -1.752,-0.528 -2.808,-0.528 -2.736,0 -4.248,1.248 -4.248,3.36 0,1.6080003 1.056,2.3760003 3.096,3.2880003 1.584,0.72 2.448,1.152 2.448,2.4 0,1.128 -0.864,1.944 -2.256,1.944 -0.696,0 -1.368,-0.192 -2.04,-0.576 l -0.288,-2.04 h -1.152 v 3.12 c 0.84,0.312 1.896,0.504 3.12,0.504 2.832,0 4.488,-1.368 4.488,-3.6 0,-0.888 -0.336,-1.608 -0.912,-2.064 -0.792,-0.648 -1.704,-0.984 -2.544,-1.392 -1.344,-0.6480003 -2.04,-1.1520003 -2.04,-2.1840003 0,-1.08 0.72,-1.728 1.992,-1.728 0.576,0 1.152,0.168 1.776,0.504 l 0.192,1.704 h 1.176 z"
         id="path7118" />
      <path
         d="m 2259.1602,-5.5980147 c -1.368,0.912 -2.568,1.392 -3.768,1.392 -2.424,0 -4.032,-1.824 -4.032,-4.896 0,-0.072 0,-0.168 0,-0.264 h 7.776 c 0.024,-0.264 0.024,-0.504 0.024,-0.7440003 0,-2.952 -1.704,-4.728 -4.32,-4.728 -3.216,0 -5.544,2.472 -5.544,6.0960003 0,3.528 2.184,5.904 5.352,5.904 1.512,0 3.072,-0.48 4.512,-1.44 z m -2.136,-4.7760003 h -5.544 c 0.144,-2.04 1.512,-3.384 3.048,-3.384 1.608,0 2.496,1.056 2.496,3 0,0.12 0,0.264 0,0.384 z"
         id="path7120" />
      <path
         d="m 2268.4298,-14.310015 c -0.816,-0.36 -1.752,-0.528 -2.808,-0.528 -2.736,0 -4.248,1.248 -4.248,3.36 0,1.6080003 1.056,2.3760003 3.096,3.2880003 1.584,0.72 2.448,1.152 2.448,2.4 0,1.128 -0.864,1.944 -2.256,1.944 -0.696,0 -1.368,-0.192 -2.04,-0.576 l -0.288,-2.04 h -1.152 v 3.12 c 0.84,0.312 1.896,0.504 3.12,0.504 2.832,0 4.488,-1.368 4.488,-3.6 0,-0.888 -0.336,-1.608 -0.912,-2.064 -0.792,-0.648 -1.704,-0.984 -2.544,-1.392 -1.344,-0.6480003 -2.04,-1.1520003 -2.04,-2.1840003 0,-1.08 0.72,-1.728 1.992,-1.728 0.576,0 1.152,0.168 1.776,0.504 l 0.192,1.704 h 1.176 z"
         id="path7122" />
      <path
         d="m 2278.8635,-19.158015 v 7.92 c 0.528,-0.096 1.224,-0.144 2.112,-0.144 3.336,0 4.992,1.128 4.992,3.6000003 0,2.232 -1.536,3.84 -3.792,3.84 -0.528,0 -1.08,-0.096 -1.608,-0.288 l -0.96,-2.064 c -0.24,-0.048 -0.432,-0.072 -0.576,-0.072 -0.816,0 -1.392,0.528 -1.392,1.272 0,1.152 1.656,2.256 4.128,2.256 3.936,0 6.408,-2.328 6.408,-5.424 0,-2.7360003 -2.04,-4.6080003 -5.256,-4.6080003 -0.768,0 -1.632,0.12 -2.568,0.384 v -4.8 h 7.104 v -1.872 z"
         id="path7124" />
      <path
         d="m 2293.6148,-14.598015 c -0.84,0 -1.512,0.648 -1.512,1.512 0,0.84 0.672,1.536 1.512,1.536 0.84,0 1.536,-0.696 1.536,-1.536 0,-0.864 -0.696,-1.512 -1.536,-1.512 z m 0,8.7120003 c -0.84,0 -1.512,0.672 -1.512,1.536 0,0.864 0.672,1.512 1.512,1.512 0.84,0 1.536,-0.672 1.536,-1.512 0,-0.864 -0.696,-1.536 -1.536,-1.536 z"
         id="path7126" />
      <path
         d="m 2300.8235,-4.9500147 c 5.304,-4.224 8.208,-6.9360003 8.208,-9.9600003 0,-2.712 -1.896,-4.536 -4.992,-4.536 -2.976,0 -5.088,1.704 -5.088,3.384 0,0.816 0.504,1.344 1.344,1.344 0.384,0 0.744,-0.12 1.08,-0.36 v -2.568 c 0.72,-0.408 1.416,-0.576 2.136,-0.576 1.992,0 3.192,1.344 3.192,3.624 0,3.144 -3,5.7600003 -8.256,10.0320003 v 1.512 h 11.112 v -3.936 h -1.08 l -0.432,2.04 z"
         id="path7128" />
      <path
         d="m 2318.4068,-11.526015 c 2.352,-0.672 3.576,-2.04 3.576,-3.888 0,-2.424 -1.848,-4.032 -4.728,-4.032 -3,0 -5.064,1.608 -5.064,3.192 0,0.768 0.528,1.296 1.296,1.296 0.384,0 0.696,-0.096 0.984,-0.312 v -2.256 c 0.696,-0.48 1.44,-0.696 2.28,-0.696 1.848,0 3.048,1.224 3.048,3.12 0,1.944 -1.296,3.096 -3.72,3.096 -0.168,0 -0.336,-0.024 -0.504,-0.024 v 1.416 c 0.456,-0.072 0.888,-0.096 1.272,-0.096 2.304,0 3.552,1.1040003 3.552,3.0000003 0,2.136 -1.584,3.792 -3.768,3.792 -0.72,0 -1.392,-0.192 -2.04,-0.576 l -0.744,-2.04 c -0.264,-0.096 -0.504,-0.12 -0.72,-0.12 -0.768,0 -1.344,0.528 -1.344,1.224 0,1.224 1.896,2.64 4.752,2.64 3.696,0 6.072,-2.184 6.072,-4.872 0,-2.184 -1.536,-3.6720003 -4.2,-3.8640003 z"
         id="path7130" />
    </g>
  </g>
</svg>
