<?xml version="1.0" encoding="UTF-8" standalone="no"?>
<!-- Created with Inkscape (http://www.inkscape.org/) -->

<svg
   width="113.10435mm"
   height="88.065102mm"
   viewBox="0 0 113.10435 88.065101"
   version="1.1"
   id="svg8"
   xmlns="http://www.w3.org/2000/svg"
   xmlns:svg="http://www.w3.org/2000/svg"
   xmlns:rdf="http://www.w3.org/1999/02/22-rdf-syntax-ns#"
   xmlns:cc="http://creativecommons.org/ns#"
   xmlns:dc="http://purl.org/dc/elements/1.1/">
  <defs
     id="defs2" />
  <metadata
     id="metadata5">
    <rdf:RDF>
      <cc:Work
         rdf:about="">
        <dc:format>image/svg+xml</dc:format>
        <dc:type
           rdf:resource="http://purl.org/dc/dcmitype/StillImage" />
      </cc:Work>
    </rdf:RDF>
  </metadata>
  <g
     id="layer1"
     transform="translate(-534.20746,-193.2808)"
     style="display:inline">
    <g
       id="g5929"
       style="opacity:1;fill:#d51b00;fill-opacity:1;stroke:none">
      <path
         id="path4955"
         d="m 578.32858,215.36931 c 3.23405,-3.72398 2.40347,-5.25687 1.87532,-7.82092 -1.12361,-1.18199 0.0266,-2.8566 0.94699,-7.37831 -2.94496,4.12117 -6.74563,4.80669 -2.82222,15.19935 z"
         style="fill:#d51b00;fill-opacity:1;fill-rule:evenodd;stroke:none;stroke-width:0.276515;stroke-opacity:0.504" />
      <path
         id="path4957"
         d="m 580.37423,199.37683 c -1.88315,2.4626 -4.73885,4.73487 -4.58918,8.14796 -0.0203,2.83774 1.09817,5.48542 1.93432,8.14796 1.70732,-1.94881 3.52365,-4.42373 2.76387,-7.1699 0.005,-1.08654 -0.75591,-1.93009 -0.77784,-2.95625 0.41605,-2.42233 1.27689,-4.76219 1.61702,-7.20632 -0.31606,0.34555 -0.63211,0.69111 -0.94817,1.03666 z"
         style="fill:#d51b00;fill-opacity:1;fill-rule:evenodd;stroke:none;stroke-width:0.276515;stroke-opacity:0.504" />
      <path
         id="path4959"
         d="m 565.02186,244.58681 c 3.91354,11.56554 10.10525,17.69902 21.20292,18.39929 12.2081,3.91353 23.5397,-4.08886 20.32695,-16.64735 -1.4603,2.68692 -2.39489,4.14722 -4.90661,4.90661 0.99301,-6.95097 -5.37383,-8.11924 -2.27804,-15.59566 2.1612,-4.61458 3.4463,-10.28044 -0.35047,-14.8954 -1.57714,5.25712 -3.50466,8.76179 -7.35985,12.61697 0.40889,-6.42526 3.79683,-11.6239 1.75234,-17.69903 0.29206,-4.08886 -6.42526,-3.97202 -6.48375,-16.47164 -4.26405,5.37384 -6.07487,9.52118 -5.43231,17.69903 -1.57714,6.60058 -5.43232,8.99547 -4.73142,16.1215 -0.58412,-3.97202 -0.993,-7.41832 -0.17523,-10.33892 -0.46729,-3.6215 -0.9346,-6.71742 -4.55609,-9.2875 1.10982,4.49773 2.39489,11.27351 -1.40194,12.96774 -1.05141,2.16121 -6.30855,9.57954 -0.5257,21.20292 -1.69398,-0.993 -3.38795,-1.2851 -5.0818,-2.97895 z"
         style="fill:#d51b00;fill-opacity:1;fill-rule:evenodd;stroke:none;stroke-width:0.276515;stroke-opacity:0.504" />
      <path
         id="path4961"
         d="m 585.65572,201.71694 c -3.03269,3.9819 -4.31882,9.06691 -3.93226,14.02584 0.2889,2.42464 -1.0002,4.68203 -1.91791,6.84798 -1.68757,3.22867 -3.21404,6.75475 -2.75258,10.48527 -0.13311,2.14953 -1.08808,-0.0177 -0.98752,-1.09887 -0.45734,-3.04128 -0.65294,-6.19517 -0.0291,-9.20785 -0.31444,-2.93176 -1.05707,-6.10976 -3.47799,-8.03639 0.71889,3.47991 1.65307,7.40217 -0.0822,10.7269 -0.62256,1.11387 -2.01513,1.41848 -2.30626,2.75604 -2.92137,5.11771 -3.14158,11.49808 -0.92356,16.91668 0.46159,1.23399 1.06366,2.41194 1.58625,3.62137 -1.6278,-0.92943 -3.41412,-1.5602 -4.98741,-2.57905 2.17929,6.38114 6.32304,12.65865 12.86386,15.14164 2.57251,1.09516 5.37768,1.29844 8.09563,1.73079 5.95714,1.85968 13.34994,0.63774 17.27964,-4.54622 2.30921,-2.99908 2.95074,-7.04652 2.16467,-10.70201 -1.04023,2.10388 -2.84275,3.80889 -5.17068,4.34896 0.53562,-2.70102 -0.27985,-5.40384 -1.67525,-7.71421 -1.50635,-2.46516 -1.86058,-5.58135 -0.65841,-8.24467 1.82403,-3.99792 3.20263,-8.83591 1.07841,-12.99724 -0.65739,-1.92085 -1.12017,-0.74171 -1.45324,0.61882 -1.38886,4.27239 -4.19352,7.90671 -7.36741,11.02328 0.21977,-4.35858 1.74053,-8.48258 2.3868,-12.76715 0.36901,-2.18275 -0.0549,-4.37294 -0.51186,-6.48669 -0.31107,-2.37514 -2.78644,-3.59355 -3.83094,-5.62753 -1.86122,-2.70512 -2.4803,-6.0673 -2.58893,-9.29699 -0.26761,0.35398 -0.5352,0.70797 -0.80278,1.06196 z"
         style="fill:#d51b00;fill-opacity:1;fill-rule:evenodd;stroke:none;stroke-width:0.276515;stroke-opacity:0.504" />
      <g
         transform="matrix(0.12825381,0,0,0.12825381,554.33742,196.06839)"
         id="g4967"
         style="fill:#d51b00;fill-opacity:1;fill-rule:evenodd;stroke:none;stroke-width:2.156;stroke-opacity:0.504">
        <path
           id="path4963"
           d="m 239.07,508.1 c -72.415,-76.514 -84.712,-129.8 -36.891,-180.35 53.742,-95.642 40.534,-155.76 1.3663,-213.15 36.891,127.07 -43.722,209.05 -69.682,245.94 -15.485,-47.821 -2.2772,-68.316 19.128,-127.07 -41.9,45.544 -67.405,100.65 -51.92,153.03 28.237,78.791 94.731,96.098 138,121.6 z"
           style="fill:#d51b00;fill-opacity:1;stroke:none" />
        <path
           id="path4965"
           d="m 326.95,219.01 c -9.7071,-28.233 -1.7857,-34.279 6.7175,-46.613 8.7715,-3.4163 6.083,-15.328 10.87,-41.855 7.2473,29.609 26.703,43.071 -17.587,88.468 z"
           style="fill:#d51b00;fill-opacity:1;stroke:none" />
      </g>
      <path
         id="path4969"
         d="m 597.66925,212.21554 c -0.37854,1.61421 -0.20741,3.39322 -0.91024,4.89892 -1.64678,1.25802 -2.36474,3.59572 -1.64268,5.57942 0.22419,1.66268 0.74425,1.94959 1.66615,0.43124 1.96857,-2.02564 3.81042,-4.92802 2.68948,-7.83041 -0.50574,-1.48043 -0.94859,-2.98344 -1.51185,-4.4445 -0.0969,0.45512 -0.19385,0.91024 -0.29078,1.36539 z"
         style="fill:#d51b00;fill-opacity:1;fill-rule:evenodd;stroke:none;stroke-width:0.276515;stroke-opacity:0.504" />
      <g
         transform="matrix(0.12825381,0,0,0.12825381,554.33742,196.06839)"
         id="g4975"
         style="fill:#d51b00;fill-opacity:1;fill-rule:evenodd;stroke:none;stroke-width:2.156;stroke-opacity:0.504">
        <path
           id="path4971"
           d="m 389.36,391.96 c 25.049,-24.138 20.039,-34.614 17.762,-51.92 -7.287,-8.1979 1.8218,-19.128 10.93,-49.188 -23.227,26.871 -50.554,30.514 -28.693,101.11 z"
           style="fill:#d51b00;fill-opacity:1;stroke:none" />
        <path
           id="path4973"
           d="m 271.86,508.1 c 28.237,-15.94 35.98,-66.039 39.623,-121.6 6.8316,-53.742 20.495,-107.48 110.67,-116.14 -36.891,29.604 -66.95,66.039 -53.286,133.9 -3.6435,98.83 -76.969,95.187 -97.009,103.84 z"
           style="fill:#d51b00;fill-opacity:1;stroke:none" />
      </g>
      <path
         id="path4977"
         d="m 607.14721,229.7363 c -4.93174,0.69925 -10.01521,3.66216 -11.46269,8.69445 -2.32293,6.29021 -1.03929,13.4487 -4.20749,19.49202 -1.20316,0.52289 -0.90902,2.76592 0.57685,2.32703 4.35229,-0.78912 8.48296,-3.81273 9.58569,-8.25005 1.06348,-3.08143 0.46044,-6.34138 0.34731,-9.50643 0.14471,-4.59033 2.8026,-8.72972 6.29175,-11.56183 0.61078,-0.87969 -0.4079,-1.17561 -1.13149,-1.1947 z"
         style="fill:#d51b00;fill-opacity:1;fill-rule:evenodd;stroke:none;stroke-width:0.276515;stroke-opacity:0.504" />
      <path
         id="path4979"
         d="m 607.20749,232.13849 c -1.98742,2.10375 -4.87057,4.07244 -4.80093,7.30688 -0.14689,2.31742 0.67834,4.52684 1.19158,6.75128 1.72515,-1.64627 3.68615,-3.79067 3.05411,-6.38679 -0.005,-1.14395 -0.86666,-2.14466 -0.18981,-3.25918 0.65009,-1.76503 1.33012,-3.52121 1.7817,-5.35396 -0.34556,0.31396 -0.69111,0.62791 -1.03666,0.94184 z"
         style="fill:#d51b00;fill-opacity:1;fill-rule:evenodd;stroke:none;stroke-width:0.276515;stroke-opacity:0.504" />
      <path
         id="path4981"
         d="m 582.8957,256.50287 c -0.46731,-5.60752 -1.10984,-9.63802 5.95803,-14.71969 11.97441,-8.35292 6.07487,-13.20117 -1.40195,-21.90447 2.21969,8.64495 -1.34345,15.53795 -4.38089,20.15252 -1.98601,2.86224 -8.87863,8.7033 -0.17523,16.47164 z"
         style="fill:#d51b00;fill-opacity:1;fill-rule:evenodd;stroke:none;stroke-width:0.276515;stroke-opacity:0.504" />
      <path
         id="path4983"
         d="m 587.27172,218.42944 c 1.29562,5.89339 -0.0388,12.1019 -3.02115,17.27964 -1.8516,3.55955 -5.50209,6.28559 -5.84991,10.52053 -0.55798,3.69037 2.10105,6.76641 4.56519,9.15117 1.00366,1.262 0.14339,-1.72143 0.28,-2.4199 -0.40044,-3.63061 0.22224,-7.7042 3.15197,-10.19464 3.26175,-3.17325 7.91377,-5.37281 9.47616,-9.93364 1.05676,-4.02794 -1.75913,-7.63828 -4.21519,-10.49847 -1.4812,-1.79735 -3.04282,-3.52082 -4.59559,-5.25712 0.0695,0.4509 0.13907,0.90181 0.20859,1.35269 z"
         style="fill:#d51b00;fill-opacity:1;fill-rule:evenodd;stroke:none;stroke-width:0.276515;stroke-opacity:0.504" />
      <path
         id="path4985"
         d="m 581.38615,213.20053 c 0.12822,2.78696 0.92057,5.5466 0.55774,8.35972 -0.32006,6.56723 -3.20558,12.74317 -7.18927,17.88371 -0.739,1.05005 -1.52609,2.06514 -2.28754,3.09887 -1.01828,-3.3927 -0.55859,-7.05101 0.81288,-10.27057 0.72222,-1.72027 1.22913,-3.50582 1.49428,-5.35537 -3.80708,3.47299 -6.49375,8.20709 -7.44,13.27427 -0.76696,4.68665 0.88174,9.50502 3.991,13.02674 3.90943,4.61214 9.53054,7.20376 14.97876,9.52028 -3.0872,-4.34241 -7.38472,-8.26082 -8.29738,-13.74752 -0.62603,-3.1857 0.62842,-6.38319 2.72052,-8.765 2.39476,-3.29022 3.88635,-7.20414 4.77245,-11.15474 1.15074,-5.14516 0.22828,-10.70843 -2.58367,-15.16986 -0.69388,-0.50725 -1.93381,-3.17262 -1.52968,-0.70165 z"
         style="fill:#d51b00;fill-opacity:1;fill-rule:evenodd;stroke:none;stroke-width:0.276515;stroke-opacity:0.504" />
      <path
         style="fill:#d51b00;fill-opacity:1;fill-rule:evenodd;stroke:none;stroke-width:0.276515;stroke-opacity:0.504"
         d="m 590.59824,210.30983 c 3.23405,-3.72398 2.40347,-5.25687 1.87532,-7.82092 -1.12361,-1.18199 0.0266,-2.8566 0.94699,-7.37831 -2.94496,4.12117 -6.74563,4.80669 -2.82222,15.19935 z"
         id="path5120" />
      <path
         style="fill:#d51b00;fill-opacity:1;fill-rule:evenodd;stroke:none;stroke-width:0.276515;stroke-opacity:0.504"
         d="m 592.64389,194.31735 c -1.88315,2.4626 -4.73885,4.73487 -4.58918,8.14796 -0.0203,2.83774 1.09817,5.48542 1.93432,8.14796 1.70732,-1.94881 3.52365,-4.42373 2.76387,-7.1699 0.005,-1.08654 -0.75591,-1.93009 -0.77784,-2.95625 0.41605,-2.42233 1.27689,-4.76219 1.61702,-7.20632 -0.31606,0.34555 -0.63211,0.69111 -0.94817,1.03666 z"
         id="path5122" />
      <path
         style="fill:#d51b00;fill-opacity:1;fill-rule:evenodd;stroke:none;stroke-width:0.276515;stroke-opacity:0.504"
         d="m 577.29152,239.52733 c 3.91354,11.56554 10.10525,17.69902 21.20292,18.39929 12.2081,3.91353 23.5397,-4.08886 20.32695,-16.64735 -1.4603,2.68692 -2.39489,4.14722 -4.90661,4.90661 0.99301,-6.95097 -5.37383,-8.11924 -2.27804,-15.59566 2.1612,-4.61458 3.4463,-10.28044 -0.35047,-14.8954 -1.57714,5.25712 -3.50466,8.76179 -7.35985,12.61697 0.40889,-6.42526 3.79683,-11.6239 1.75234,-17.69903 0.29206,-4.08886 -6.42526,-3.97202 -6.48375,-16.47164 -4.26405,5.37384 -6.07487,9.52118 -5.43231,17.69903 -1.57714,6.60058 -5.43232,8.99547 -4.73142,16.1215 -0.58412,-3.97202 -0.993,-7.41832 -0.17523,-10.33892 -0.46729,-3.6215 -0.9346,-6.71742 -4.55609,-9.2875 1.10982,4.49773 2.39489,11.27351 -1.40194,12.96774 -1.05141,2.16121 -6.30855,9.57954 -0.5257,21.20292 -1.69398,-0.993 -3.38795,-1.2851 -5.0818,-2.97895 z"
         id="path5124" />
      <path
         style="fill:#d51b00;fill-opacity:1;fill-rule:evenodd;stroke:none;stroke-width:0.276515;stroke-opacity:0.504"
         d="m 597.92538,196.65746 c -3.03269,3.9819 -4.31882,9.06691 -3.93226,14.02584 0.2889,2.42464 -1.0002,4.68203 -1.91791,6.84798 -1.68757,3.22867 -3.21404,6.75475 -2.75258,10.48527 -0.13311,2.14953 -1.08808,-0.0177 -0.98752,-1.09887 -0.45734,-3.04128 -0.65294,-6.19517 -0.0291,-9.20785 -0.31444,-2.93176 -1.05707,-6.10976 -3.47799,-8.03639 0.71889,3.47991 1.65307,7.40217 -0.0822,10.7269 -0.62256,1.11387 -2.01513,1.41848 -2.30626,2.75604 -2.92137,5.11771 -3.14158,11.49808 -0.92356,16.91668 0.46159,1.23399 1.06366,2.41194 1.58625,3.62137 -1.6278,-0.92943 -3.41412,-1.5602 -4.98741,-2.57905 2.17929,6.38114 6.32304,12.65865 12.86386,15.14164 2.57251,1.09516 5.37768,1.29844 8.09563,1.73079 5.95714,1.85968 13.34994,0.63774 17.27964,-4.54622 2.30921,-2.99908 2.95074,-7.04652 2.16467,-10.70201 -1.04023,2.10388 -2.84275,3.80889 -5.17068,4.34896 0.53562,-2.70102 -0.27985,-5.40384 -1.67525,-7.71421 -1.50635,-2.46516 -1.86058,-5.58135 -0.65841,-8.24467 1.82403,-3.99792 3.20263,-8.83591 1.07841,-12.99724 -0.65739,-1.92085 -1.12017,-0.74171 -1.45324,0.61882 -1.38886,4.27239 -4.19352,7.90671 -7.36741,11.02328 0.21977,-4.35858 1.74053,-8.48258 2.3868,-12.76715 0.36901,-2.18275 -0.0549,-4.37294 -0.51186,-6.48669 -0.31107,-2.37514 -2.78644,-3.59355 -3.83094,-5.62753 -1.86122,-2.70512 -2.4803,-6.0673 -2.58893,-9.29699 -0.26761,0.35398 -0.5352,0.70797 -0.80278,1.06196 z"
         id="path5126" />
      <g
         transform="matrix(0.12825381,0,0,0.12825381,566.60708,191.00891)"
         style="fill:#d51b00;fill-opacity:1;fill-rule:evenodd;stroke:none;stroke-width:2.156;stroke-opacity:0.504"
         id="g5132">
        <path
           style="fill:#d51b00;fill-opacity:1;stroke:none"
           d="m 239.07,508.1 c -72.415,-76.514 -84.712,-129.8 -36.891,-180.35 53.742,-95.642 40.534,-155.76 1.3663,-213.15 36.891,127.07 -43.722,209.05 -69.682,245.94 -15.485,-47.821 -2.2772,-68.316 19.128,-127.07 -41.9,45.544 -67.405,100.65 -51.92,153.03 28.237,78.791 94.731,96.098 138,121.6 z"
           id="path5128" />
        <path
           style="fill:#d51b00;fill-opacity:1;stroke:none"
           d="m 326.95,219.01 c -9.7071,-28.233 -1.7857,-34.279 6.7175,-46.613 8.7715,-3.4163 6.083,-15.328 10.87,-41.855 7.2473,29.609 26.703,43.071 -17.587,88.468 z"
           id="path5130" />
      </g>
      <path
         style="fill:#d51b00;fill-opacity:1;fill-rule:evenodd;stroke:none;stroke-width:0.276515;stroke-opacity:0.504"
         d="m 609.93891,207.15606 c -0.37854,1.61421 -0.20741,3.39322 -0.91024,4.89892 -1.64678,1.25802 -2.36474,3.59572 -1.64268,5.57942 0.22419,1.66268 0.74425,1.94959 1.66615,0.43124 1.96857,-2.02564 3.81042,-4.92802 2.68948,-7.83041 -0.50574,-1.48043 -0.94859,-2.98344 -1.51185,-4.4445 -0.0969,0.45512 -0.19385,0.91024 -0.29078,1.36539 z"
         id="path5134" />
      <g
         transform="matrix(0.12825381,0,0,0.12825381,566.60708,191.00891)"
         style="fill:#d51b00;fill-opacity:1;fill-rule:evenodd;stroke:none;stroke-width:2.156;stroke-opacity:0.504"
         id="g5140">
        <path
           style="fill:#d51b00;fill-opacity:1;stroke:none"
           d="m 389.36,391.96 c 25.049,-24.138 20.039,-34.614 17.762,-51.92 -7.287,-8.1979 1.8218,-19.128 10.93,-49.188 -23.227,26.871 -50.554,30.514 -28.693,101.11 z"
           id="path5136" />
        <path
           style="fill:#d51b00;fill-opacity:1;stroke:none"
           d="m 271.86,508.1 c 28.237,-15.94 35.98,-66.039 39.623,-121.6 6.8316,-53.742 20.495,-107.48 110.67,-116.14 -36.891,29.604 -66.95,66.039 -53.286,133.9 -3.6435,98.83 -76.969,95.187 -97.009,103.84 z"
           id="path5138" />
      </g>
      <path
         style="fill:#d51b00;fill-opacity:1;fill-rule:evenodd;stroke:none;stroke-width:0.276515;stroke-opacity:0.504"
         d="m 619.41687,224.67682 c -4.93174,0.69925 -10.01521,3.66216 -11.46269,8.69445 -2.32293,6.29021 -1.03929,13.4487 -4.20749,19.49202 -1.20316,0.52289 -0.90902,2.76592 0.57685,2.32703 4.35229,-0.78912 8.48296,-3.81273 9.58569,-8.25005 1.06348,-3.08143 0.46044,-6.34138 0.34731,-9.50643 0.14471,-4.59033 2.8026,-8.72972 6.29175,-11.56183 0.61078,-0.87969 -0.4079,-1.17561 -1.13149,-1.1947 z"
         id="path5142" />
      <path
         style="fill:#d51b00;fill-opacity:1;fill-rule:evenodd;stroke:none;stroke-width:0.276515;stroke-opacity:0.504"
         d="m 619.47715,227.07901 c -1.98742,2.10375 -4.87057,4.07244 -4.80093,7.30688 -0.14689,2.31742 0.67834,4.52684 1.19158,6.75128 1.72515,-1.64627 3.68615,-3.79067 3.05411,-6.38679 -0.005,-1.14395 -0.86666,-2.14466 -0.18981,-3.25918 0.65009,-1.76503 1.33012,-3.52121 1.7817,-5.35396 -0.34556,0.31396 -0.69111,0.62791 -1.03666,0.94184 z"
         id="path5144" />
      <path
         style="fill:#d51b00;fill-opacity:1;fill-rule:evenodd;stroke:none;stroke-width:0.276515;stroke-opacity:0.504"
         d="m 595.16536,251.44339 c -0.46731,-5.60752 -1.10984,-9.63802 5.95803,-14.71969 11.97441,-8.35292 6.07487,-13.20117 -1.40195,-21.90447 2.21969,8.64495 -1.34345,15.53795 -4.38089,20.15252 -1.98601,2.86224 -8.87863,8.7033 -0.17523,16.47164 z"
         id="path5146" />
      <path
         style="fill:#d51b00;fill-opacity:1;fill-rule:evenodd;stroke:none;stroke-width:0.276515;stroke-opacity:0.504"
         d="m 599.54138,213.36996 c 1.29562,5.89339 -0.0388,12.1019 -3.02115,17.27964 -1.8516,3.55955 -5.50209,6.28559 -5.84991,10.52053 -0.55798,3.69037 2.10105,6.76641 4.56519,9.15117 1.00366,1.262 0.14339,-1.72143 0.28,-2.4199 -0.40044,-3.63061 0.22224,-7.7042 3.15197,-10.19464 3.26175,-3.17325 7.91377,-5.37281 9.47616,-9.93364 1.05676,-4.02794 -1.75913,-7.63828 -4.21519,-10.49847 -1.4812,-1.79735 -3.04282,-3.52082 -4.59559,-5.25712 0.0695,0.4509 0.13907,0.90181 0.20859,1.35269 z"
         id="path5148" />
      <path
         style="fill:#d51b00;fill-opacity:1;fill-rule:evenodd;stroke:none;stroke-width:0.276515;stroke-opacity:0.504"
         d="m 593.65581,208.14105 c 0.12822,2.78696 0.92057,5.5466 0.55774,8.35972 -0.32006,6.56723 -3.20558,12.74317 -7.18927,17.88371 -0.739,1.05005 -1.52609,2.06514 -2.28754,3.09887 -1.01828,-3.3927 -0.55859,-7.05101 0.81288,-10.27057 0.72222,-1.72027 1.22913,-3.50582 1.49428,-5.35537 -3.80708,3.47299 -6.49375,8.20709 -7.44,13.27427 -0.76696,4.68665 0.88174,9.50502 3.991,13.02674 3.90943,4.61214 9.53054,7.20376 14.97876,9.52028 -3.0872,-4.34241 -7.38472,-8.26082 -8.29738,-13.74752 -0.62603,-3.1857 0.62842,-6.38319 2.72052,-8.765 2.39476,-3.29022 3.88635,-7.20414 4.77245,-11.15474 1.15074,-5.14516 0.22828,-10.70843 -2.58367,-15.16986 -0.69388,-0.50725 -1.93381,-3.17262 -1.52968,-0.70165 z"
         id="path5150" />
      <path
         id="path5176"
         d="m 547.51518,216.20695 c 3.23405,-3.72398 2.40347,-5.25687 1.87532,-7.82092 -1.12361,-1.18199 0.0266,-2.8566 0.94699,-7.37831 -2.94496,4.12117 -6.74563,4.80669 -2.82222,15.19935 z"
         style="fill:#d51b00;fill-opacity:1;fill-rule:evenodd;stroke:none;stroke-width:0.276515;stroke-opacity:0.504" />
      <path
         id="path5178"
         d="m 549.56083,200.21447 c -1.88315,2.4626 -4.73885,4.73487 -4.58918,8.14796 -0.0203,2.83774 1.09817,5.48542 1.93432,8.14796 1.70732,-1.94881 3.52365,-4.42373 2.76387,-7.1699 0.005,-1.08654 -0.75591,-1.93009 -0.77784,-2.95625 0.41605,-2.42233 1.27689,-4.76219 1.61702,-7.20632 -0.31606,0.34555 -0.63211,0.69111 -0.94817,1.03666 z"
         style="fill:#d51b00;fill-opacity:1;fill-rule:evenodd;stroke:none;stroke-width:0.276515;stroke-opacity:0.504" />
      <path
         id="path5180"
         d="m 534.20846,245.42445 c 3.91354,11.56554 10.10525,17.69902 21.20292,18.39929 12.2081,3.91353 23.5397,-4.08886 20.32695,-16.64735 -1.4603,2.68692 -2.39489,4.14722 -4.90661,4.90661 0.99301,-6.95097 -5.37383,-8.11924 -2.27804,-15.59566 2.1612,-4.61458 3.4463,-10.28044 -0.35047,-14.8954 -1.57714,5.25712 -3.50466,8.76179 -7.35985,12.61697 0.40889,-6.42526 3.79683,-11.6239 1.75234,-17.69903 0.29206,-4.08886 -6.42526,-3.97202 -6.48375,-16.47164 -4.26405,5.37384 -6.07487,9.52118 -5.43231,17.69903 -1.57714,6.60058 -5.43232,8.99547 -4.73142,16.1215 -0.58412,-3.97202 -0.993,-7.41832 -0.17523,-10.33892 -0.46729,-3.6215 -0.9346,-6.71742 -4.55609,-9.2875 1.10982,4.49773 2.39489,11.27351 -1.40194,12.96774 -1.05141,2.16121 -6.30855,9.57954 -0.5257,21.20292 -1.69398,-0.993 -3.38795,-1.2851 -5.0818,-2.97895 z"
         style="fill:#d51b00;fill-opacity:1;fill-rule:evenodd;stroke:none;stroke-width:0.276515;stroke-opacity:0.504" />
      <path
         id="path5182"
         d="m 554.84232,202.55458 c -3.03269,3.9819 -4.31882,9.06691 -3.93226,14.02584 0.2889,2.42464 -1.0002,4.68203 -1.91791,6.84798 -1.68757,3.22867 -3.21404,6.75475 -2.75258,10.48527 -0.13311,2.14953 -1.08808,-0.0177 -0.98752,-1.09887 -0.45734,-3.04128 -0.65294,-6.19517 -0.0291,-9.20785 -0.31444,-2.93176 -1.05707,-6.10976 -3.47799,-8.03639 0.71889,3.47991 1.65307,7.40217 -0.0822,10.7269 -0.62256,1.11387 -2.01513,1.41848 -2.30626,2.75604 -2.92137,5.11771 -3.14158,11.49808 -0.92356,16.91668 0.46159,1.23399 1.06366,2.41194 1.58625,3.62137 -1.6278,-0.92943 -3.41412,-1.5602 -4.98741,-2.57905 2.17929,6.38114 6.32304,12.65865 12.86386,15.14164 2.57251,1.09516 5.37768,1.29844 8.09563,1.73079 5.95714,1.85968 13.34994,0.63774 17.27964,-4.54622 2.30921,-2.99908 2.95074,-7.04652 2.16467,-10.70201 -1.04023,2.10388 -2.84275,3.80889 -5.17068,4.34896 0.53562,-2.70102 -0.27985,-5.40384 -1.67525,-7.71421 -1.50635,-2.46516 -1.86058,-5.58135 -0.65841,-8.24467 1.82403,-3.99792 3.20263,-8.83591 1.07841,-12.99724 -0.65739,-1.92085 -1.12017,-0.74171 -1.45324,0.61882 -1.38886,4.27239 -4.19352,7.90671 -7.36741,11.02328 0.21977,-4.35858 1.74053,-8.48258 2.3868,-12.76715 0.36901,-2.18275 -0.0549,-4.37294 -0.51186,-6.48669 -0.31107,-2.37514 -2.78644,-3.59355 -3.83094,-5.62753 -1.86122,-2.70512 -2.4803,-6.0673 -2.58893,-9.29699 -0.26761,0.35398 -0.5352,0.70797 -0.80278,1.06196 z"
         style="fill:#d51b00;fill-opacity:1;fill-rule:evenodd;stroke:none;stroke-width:0.276515;stroke-opacity:0.504" />
      <g
         transform="matrix(0.12825381,0,0,0.12825381,523.52402,196.90603)"
         id="g5188"
         style="fill:#d51b00;fill-opacity:1;fill-rule:evenodd;stroke:none;stroke-width:2.156;stroke-opacity:0.504">
        <path
           id="path5184"
           d="m 239.07,508.1 c -72.415,-76.514 -84.712,-129.8 -36.891,-180.35 53.742,-95.642 40.534,-155.76 1.3663,-213.15 36.891,127.07 -43.722,209.05 -69.682,245.94 -15.485,-47.821 -2.2772,-68.316 19.128,-127.07 -41.9,45.544 -67.405,100.65 -51.92,153.03 28.237,78.791 94.731,96.098 138,121.6 z"
           style="fill:#d51b00;fill-opacity:1;stroke:none" />
        <path
           id="path5186"
           d="m 326.95,219.01 c -9.7071,-28.233 -1.7857,-34.279 6.7175,-46.613 8.7715,-3.4163 6.083,-15.328 10.87,-41.855 7.2473,29.609 26.703,43.071 -17.587,88.468 z"
           style="fill:#d51b00;fill-opacity:1;stroke:none" />
      </g>
      <path
         id="path5190"
         d="m 566.85585,213.05318 c -0.37854,1.61421 -0.20741,3.39322 -0.91024,4.89892 -1.64678,1.25802 -2.36474,3.59572 -1.64268,5.57942 0.22419,1.66268 0.74425,1.94959 1.66615,0.43124 1.96857,-2.02564 3.81042,-4.92802 2.68948,-7.83041 -0.50574,-1.48043 -0.94859,-2.98344 -1.51185,-4.4445 -0.0969,0.45512 -0.19385,0.91024 -0.29078,1.36539 z"
         style="fill:#d51b00;fill-opacity:1;fill-rule:evenodd;stroke:none;stroke-width:0.276515;stroke-opacity:0.504" />
      <g
         transform="matrix(0.12825381,0,0,0.12825381,523.52402,196.90603)"
         id="g5196"
         style="fill:#d51b00;fill-opacity:1;fill-rule:evenodd;stroke:none;stroke-width:2.156;stroke-opacity:0.504">
        <path
           id="path5192"
           d="m 389.36,391.96 c 25.049,-24.138 20.039,-34.614 17.762,-51.92 -7.287,-8.1979 1.8218,-19.128 10.93,-49.188 -23.227,26.871 -50.554,30.514 -28.693,101.11 z"
           style="fill:#d51b00;fill-opacity:1;stroke:none" />
        <path
           id="path5194"
           d="m 271.86,508.1 c 28.237,-15.94 35.98,-66.039 39.623,-121.6 6.8316,-53.742 20.495,-107.48 110.67,-116.14 -36.891,29.604 -66.95,66.039 -53.286,133.9 -3.6435,98.83 -76.969,95.187 -97.009,103.84 z"
           style="fill:#d51b00;fill-opacity:1;stroke:none" />
      </g>
      <path
         id="path5198"
         d="m 576.33381,230.57394 c -4.93174,0.69925 -10.01521,3.66216 -11.46269,8.69445 -2.32293,6.29021 -1.03929,13.4487 -4.20749,19.49202 -1.20316,0.52289 -0.90902,2.76592 0.57685,2.32703 4.35229,-0.78912 8.48296,-3.81273 9.58569,-8.25005 1.06348,-3.08143 0.46044,-6.34138 0.34731,-9.50643 0.14471,-4.59033 2.8026,-8.72972 6.29175,-11.56183 0.61078,-0.87969 -0.4079,-1.17561 -1.13149,-1.1947 z"
         style="fill:#d51b00;fill-opacity:1;fill-rule:evenodd;stroke:none;stroke-width:0.276515;stroke-opacity:0.504" />
      <path
         id="path5200"
         d="m 576.39409,232.97613 c -1.98742,2.10375 -4.87057,4.07244 -4.80093,7.30688 -0.14689,2.31742 0.67834,4.52684 1.19158,6.75128 1.72515,-1.64627 3.68615,-3.79067 3.05411,-6.38679 -0.005,-1.14395 -0.86666,-2.14466 -0.18981,-3.25918 0.65009,-1.76503 1.33012,-3.52121 1.7817,-5.35396 -0.34556,0.31396 -0.69111,0.62791 -1.03666,0.94184 z"
         style="fill:#d51b00;fill-opacity:1;fill-rule:evenodd;stroke:none;stroke-width:0.276515;stroke-opacity:0.504" />
      <path
         id="path5202"
         d="m 552.0823,257.34051 c -0.46731,-5.60752 -1.10984,-9.63802 5.95803,-14.71969 11.97441,-8.35292 6.07487,-13.20117 -1.40195,-21.90447 2.21969,8.64495 -1.34345,15.53795 -4.38089,20.15252 -1.98601,2.86224 -8.87863,8.7033 -0.17523,16.47164 z"
         style="fill:#d51b00;fill-opacity:1;fill-rule:evenodd;stroke:none;stroke-width:0.276515;stroke-opacity:0.504" />
      <path
         id="path5204"
         d="m 556.45832,219.26708 c 1.29562,5.89339 -0.0388,12.1019 -3.02115,17.27964 -1.8516,3.55955 -5.50209,6.28559 -5.84991,10.52053 -0.55798,3.69037 2.10105,6.76641 4.56519,9.15117 1.00366,1.262 0.14339,-1.72143 0.28,-2.4199 -0.40044,-3.63061 0.22224,-7.7042 3.15197,-10.19464 3.26175,-3.17325 7.91377,-5.37281 9.47616,-9.93364 1.05676,-4.02794 -1.75913,-7.63828 -4.21519,-10.49847 -1.4812,-1.79735 -3.04282,-3.52082 -4.59559,-5.25712 0.0695,0.4509 0.13907,0.90181 0.20859,1.35269 z"
         style="fill:#d51b00;fill-opacity:1;fill-rule:evenodd;stroke:none;stroke-width:0.276515;stroke-opacity:0.504" />
      <path
         id="path5206"
         d="m 550.57275,214.03817 c 0.12822,2.78696 0.92057,5.5466 0.55774,8.35972 -0.32006,6.56723 -3.20558,12.74317 -7.18927,17.88371 -0.739,1.05005 -1.52609,2.06514 -2.28754,3.09887 -1.01828,-3.3927 -0.55859,-7.05101 0.81288,-10.27057 0.72222,-1.72027 1.22913,-3.50582 1.49428,-5.35537 -3.80708,3.47299 -6.49375,8.20709 -7.44,13.27427 -0.76696,4.68665 0.88174,9.50502 3.991,13.02674 3.90943,4.61214 9.53054,7.20376 14.97876,9.52028 -3.0872,-4.34241 -7.38472,-8.26082 -8.29738,-13.74752 -0.62603,-3.1857 0.62842,-6.38319 2.72052,-8.765 2.39476,-3.29022 3.88635,-7.20414 4.77245,-11.15474 1.15074,-5.14516 0.22828,-10.70843 -2.58367,-15.16986 -0.69388,-0.50725 -1.93381,-3.17262 -1.52968,-0.70165 z"
         style="fill:#d51b00;fill-opacity:1;fill-rule:evenodd;stroke:none;stroke-width:0.276515;stroke-opacity:0.504" />
      <path
         style="fill:#d51b00;fill-opacity:1;fill-rule:evenodd;stroke:none;stroke-width:0.276515;stroke-opacity:0.504"
         d="m 568.73644,227.70284 c 3.23405,-3.72398 2.40347,-5.25687 1.87532,-7.82092 -1.12361,-1.18199 0.0266,-2.8566 0.94699,-7.37831 -2.94496,4.12117 -6.74563,4.80669 -2.82222,15.19935 z"
         id="path5232" />
      <path
         style="fill:#d51b00;fill-opacity:1;fill-rule:evenodd;stroke:none;stroke-width:0.276515;stroke-opacity:0.504"
         d="m 570.78209,211.71036 c -1.88315,2.4626 -4.73885,4.73487 -4.58918,8.14796 -0.0203,2.83774 1.09817,5.48542 1.93432,8.14796 1.70732,-1.94881 3.52365,-4.42373 2.76387,-7.1699 0.005,-1.08654 -0.75591,-1.93009 -0.77784,-2.95625 0.41605,-2.42233 1.27689,-4.76219 1.61702,-7.20632 -0.31606,0.34555 -0.63211,0.69111 -0.94817,1.03666 z"
         id="path5234" />
      <path
         style="fill:#d51b00;fill-opacity:1;fill-rule:evenodd;stroke:none;stroke-width:0.276515;stroke-opacity:0.504"
         d="m 555.42972,256.92034 c 3.91354,11.56554 10.10525,17.69902 21.20292,18.39929 12.2081,3.91353 23.5397,-4.08886 20.32695,-16.64735 -1.4603,2.68692 -2.39489,4.14722 -4.90661,4.90661 0.99301,-6.95097 -5.37383,-8.11924 -2.27804,-15.59566 2.1612,-4.61458 3.4463,-10.28044 -0.35047,-14.8954 -1.57714,5.25712 -3.50466,8.76179 -7.35985,12.61697 0.40889,-6.42526 3.79683,-11.6239 1.75234,-17.69903 0.29206,-4.08886 -6.42526,-3.97202 -6.48375,-16.47164 -4.26405,5.37384 -6.07487,9.52118 -5.43231,17.69903 -1.57714,6.60058 -5.43232,8.99547 -4.73142,16.1215 -0.58412,-3.97202 -0.993,-7.41832 -0.17523,-10.33892 -0.46729,-3.6215 -0.9346,-6.71742 -4.55609,-9.2875 1.10982,4.49773 2.39489,11.27351 -1.40194,12.96774 -1.05141,2.16121 -6.30855,9.57954 -0.5257,21.20292 -1.69398,-0.993 -3.38795,-1.2851 -5.0818,-2.97895 z"
         id="path5236" />
      <path
         style="fill:#d51b00;fill-opacity:1;fill-rule:evenodd;stroke:none;stroke-width:0.276515;stroke-opacity:0.504"
         d="m 576.06358,214.05047 c -3.03269,3.9819 -4.31882,9.06691 -3.93226,14.02584 0.2889,2.42464 -1.0002,4.68203 -1.91791,6.84798 -1.68757,3.22867 -3.21404,6.75475 -2.75258,10.48527 -0.13311,2.14953 -1.08808,-0.0177 -0.98752,-1.09887 -0.45734,-3.04128 -0.65294,-6.19517 -0.0291,-9.20785 -0.31444,-2.93176 -1.05707,-6.10976 -3.47799,-8.03639 0.71889,3.47991 1.65307,7.40217 -0.0822,10.7269 -0.62256,1.11387 -2.01513,1.41848 -2.30626,2.75604 -2.92137,5.11771 -3.14158,11.49808 -0.92356,16.91668 0.46159,1.23399 1.06366,2.41194 1.58625,3.62137 -1.6278,-0.92943 -3.41412,-1.5602 -4.98741,-2.57905 2.17929,6.38114 6.32304,12.65865 12.86386,15.14164 2.57251,1.09516 5.37768,1.29844 8.09563,1.73079 5.95714,1.85968 13.34994,0.63774 17.27964,-4.54622 2.30921,-2.99908 2.95074,-7.04652 2.16467,-10.70201 -1.04023,2.10388 -2.84275,3.80889 -5.17068,4.34896 0.53562,-2.70102 -0.27985,-5.40384 -1.67525,-7.71421 -1.50635,-2.46516 -1.86058,-5.58135 -0.65841,-8.24467 1.82403,-3.99792 3.20263,-8.83591 1.07841,-12.99724 -0.65739,-1.92085 -1.12017,-0.74171 -1.45324,0.61882 -1.38886,4.27239 -4.19352,7.90671 -7.36741,11.02328 0.21977,-4.35858 1.74053,-8.48258 2.3868,-12.76715 0.36901,-2.18275 -0.0549,-4.37294 -0.51186,-6.48669 -0.31107,-2.37514 -2.78644,-3.59355 -3.83094,-5.62753 -1.86122,-2.70512 -2.4803,-6.0673 -2.58893,-9.29699 -0.26761,0.35398 -0.5352,0.70797 -0.80278,1.06196 z"
         id="path5238" />
      <g
         transform="matrix(0.12825381,0,0,0.12825381,544.74528,208.40192)"
         style="fill:#d51b00;fill-opacity:1;fill-rule:evenodd;stroke:none;stroke-width:2.156;stroke-opacity:0.504"
         id="g5244">
        <path
           style="fill:#d51b00;fill-opacity:1;stroke:none"
           d="m 239.07,508.1 c -72.415,-76.514 -84.712,-129.8 -36.891,-180.35 53.742,-95.642 40.534,-155.76 1.3663,-213.15 36.891,127.07 -43.722,209.05 -69.682,245.94 -15.485,-47.821 -2.2772,-68.316 19.128,-127.07 -41.9,45.544 -67.405,100.65 -51.92,153.03 28.237,78.791 94.731,96.098 138,121.6 z"
           id="path5240" />
        <path
           style="fill:#d51b00;fill-opacity:1;stroke:none"
           d="m 326.95,219.01 c -9.7071,-28.233 -1.7857,-34.279 6.7175,-46.613 8.7715,-3.4163 6.083,-15.328 10.87,-41.855 7.2473,29.609 26.703,43.071 -17.587,88.468 z"
           id="path5242" />
      </g>
      <path
         style="fill:#d51b00;fill-opacity:1;fill-rule:evenodd;stroke:none;stroke-width:0.276515;stroke-opacity:0.504"
         d="m 588.07711,224.54907 c -0.37854,1.61421 -0.20741,3.39322 -0.91024,4.89892 -1.64678,1.25802 -2.36474,3.59572 -1.64268,5.57942 0.22419,1.66268 0.74425,1.94959 1.66615,0.43124 1.96857,-2.02564 3.81042,-4.92802 2.68948,-7.83041 -0.50574,-1.48043 -0.94859,-2.98344 -1.51185,-4.4445 -0.0969,0.45512 -0.19385,0.91024 -0.29078,1.36539 z"
         id="path5246" />
      <g
         transform="matrix(0.12825381,0,0,0.12825381,544.74528,208.40192)"
         style="fill:#d51b00;fill-opacity:1;fill-rule:evenodd;stroke:none;stroke-width:2.156;stroke-opacity:0.504"
         id="g5252">
        <path
           style="fill:#d51b00;fill-opacity:1;stroke:none"
           d="m 389.36,391.96 c 25.049,-24.138 20.039,-34.614 17.762,-51.92 -7.287,-8.1979 1.8218,-19.128 10.93,-49.188 -23.227,26.871 -50.554,30.514 -28.693,101.11 z"
           id="path5248" />
        <path
           style="fill:#d51b00;fill-opacity:1;stroke:none"
           d="m 271.86,508.1 c 28.237,-15.94 35.98,-66.039 39.623,-121.6 6.8316,-53.742 20.495,-107.48 110.67,-116.14 -36.891,29.604 -66.95,66.039 -53.286,133.9 -3.6435,98.83 -76.969,95.187 -97.009,103.84 z"
           id="path5250" />
      </g>
      <path
         style="fill:#d51b00;fill-opacity:1;fill-rule:evenodd;stroke:none;stroke-width:0.276515;stroke-opacity:0.504"
         d="m 597.55507,242.06983 c -4.93174,0.69925 -10.01521,3.66216 -11.46269,8.69445 -2.32293,6.29021 -1.03929,13.4487 -4.20749,19.49202 -1.20316,0.52289 -0.90902,2.76592 0.57685,2.32703 4.35229,-0.78912 8.48296,-3.81273 9.58569,-8.25005 1.06348,-3.08143 0.46044,-6.34138 0.34731,-9.50643 0.14471,-4.59033 2.8026,-8.72972 6.29175,-11.56183 0.61078,-0.87969 -0.4079,-1.17561 -1.13149,-1.1947 z"
         id="path5254" />
      <path
         style="fill:#d51b00;fill-opacity:1;fill-rule:evenodd;stroke:none;stroke-width:0.276515;stroke-opacity:0.504"
         d="m 597.61535,244.47202 c -1.98742,2.10375 -4.87057,4.07244 -4.80093,7.30688 -0.14689,2.31742 0.67834,4.52684 1.19158,6.75128 1.72515,-1.64627 3.68615,-3.79067 3.05411,-6.38679 -0.005,-1.14395 -0.86666,-2.14466 -0.18981,-3.25918 0.65009,-1.76503 1.33012,-3.52121 1.7817,-5.35396 -0.34556,0.31396 -0.69111,0.62791 -1.03666,0.94184 z"
         id="path5256" />
      <path
         style="fill:#d51b00;fill-opacity:1;fill-rule:evenodd;stroke:none;stroke-width:0.276515;stroke-opacity:0.504"
         d="m 573.30356,268.8364 c -0.46731,-5.60752 -1.10984,-9.63802 5.95803,-14.71969 11.97441,-8.35292 6.07487,-13.20117 -1.40195,-21.90447 2.21969,8.64495 -1.34345,15.53795 -4.38089,20.15252 -1.98601,2.86224 -8.87863,8.7033 -0.17523,16.47164 z"
         id="path5258" />
      <path
         style="fill:#d51b00;fill-opacity:1;fill-rule:evenodd;stroke:none;stroke-width:0.276515;stroke-opacity:0.504"
         d="m 577.67958,230.76297 c 1.29562,5.89339 -0.0388,12.1019 -3.02115,17.27964 -1.8516,3.55955 -5.50209,6.28559 -5.84991,10.52053 -0.55798,3.69037 2.10105,6.76641 4.56519,9.15117 1.00366,1.262 0.14339,-1.72143 0.28,-2.4199 -0.40044,-3.63061 0.22224,-7.7042 3.15197,-10.19464 3.26175,-3.17325 7.91377,-5.37281 9.47616,-9.93364 1.05676,-4.02794 -1.75913,-7.63828 -4.21519,-10.49847 -1.4812,-1.79735 -3.04282,-3.52082 -4.59559,-5.25712 0.0695,0.4509 0.13907,0.90181 0.20859,1.35269 z"
         id="path5260" />
      <path
         style="fill:#ff0f07;fill-opacity:1;fill-rule:evenodd;stroke:none;stroke-width:0.276515;stroke-opacity:0.504"
         d="m 571.79401,225.53406 c 0.12822,2.78696 0.92057,5.5466 0.55774,8.35972 -0.32006,6.56723 -3.20558,12.74317 -7.18927,17.88371 -0.739,1.05005 -1.52609,2.06514 -2.28754,3.09887 -1.01828,-3.3927 -0.55859,-7.05101 0.81288,-10.27057 0.72222,-1.72027 1.22913,-3.50582 1.49428,-5.35537 -3.80708,3.47299 -6.49375,8.20709 -7.44,13.27427 -0.76696,4.68665 0.88174,9.50502 3.991,13.02674 3.90943,4.61214 9.53054,7.20376 14.97876,9.52028 -3.0872,-4.34241 -7.38472,-8.26082 -8.29738,-13.74752 -0.62603,-3.1857 0.62842,-6.38319 2.72052,-8.765 2.39476,-3.29022 3.88635,-7.20414 4.77245,-11.15474 1.15074,-5.14516 0.22828,-10.70843 -2.58367,-15.16986 -0.69388,-0.50725 -1.93381,-3.17262 -1.52968,-0.70165 z"
         id="path5262" />
      <path
         id="path5288"
         d="m 594.15709,220.39624 c 3.23405,-3.72398 2.40347,-5.25687 1.87532,-7.82092 -1.12361,-1.18199 0.0266,-2.8566 0.94699,-7.37831 -2.94496,4.12117 -6.74563,4.80669 -2.82222,15.19935 z"
         style="fill:#d51b00;fill-opacity:1;fill-rule:evenodd;stroke:none;stroke-width:0.276515;stroke-opacity:0.504" />
      <path
         id="path5290"
         d="m 596.20274,204.40376 c -1.88315,2.4626 -4.73885,4.73487 -4.58918,8.14796 -0.0203,2.83774 1.09817,5.48542 1.93432,8.14796 1.70732,-1.94881 3.52365,-4.42373 2.76387,-7.1699 0.005,-1.08654 -0.75591,-1.93009 -0.77784,-2.95625 0.41605,-2.42233 1.27689,-4.76219 1.61702,-7.20632 -0.31606,0.34555 -0.63211,0.69111 -0.94817,1.03666 z"
         style="fill:#d51b00;fill-opacity:1;fill-rule:evenodd;stroke:none;stroke-width:0.276515;stroke-opacity:0.504" />
      <path
         id="path5292"
         d="m 580.85037,249.61374 c 3.91354,11.56554 10.10525,17.69902 21.20292,18.39929 12.2081,3.91353 23.5397,-4.08886 20.32695,-16.64735 -1.4603,2.68692 -2.39489,4.14722 -4.90661,4.90661 0.99301,-6.95097 -5.37383,-8.11924 -2.27804,-15.59566 2.1612,-4.61458 3.4463,-10.28044 -0.35047,-14.8954 -1.57714,5.25712 -3.50466,8.76179 -7.35985,12.61697 0.40889,-6.42526 3.79683,-11.6239 1.75234,-17.69903 0.29206,-4.08886 -6.42526,-3.97202 -6.48375,-16.47164 -4.26405,5.37384 -6.07487,9.52118 -5.43231,17.69903 -1.57714,6.60058 -5.43232,8.99547 -4.73142,16.1215 -0.58412,-3.97202 -0.993,-7.41832 -0.17523,-10.33892 -0.46729,-3.6215 -0.9346,-6.71742 -4.55609,-9.2875 1.10982,4.49773 2.39489,11.27351 -1.40194,12.96774 -1.05141,2.16121 -6.30855,9.57954 -0.5257,21.20292 -1.69398,-0.993 -3.38795,-1.2851 -5.0818,-2.97895 z"
         style="fill:#d51b00;fill-opacity:1;fill-rule:evenodd;stroke:none;stroke-width:0.276515;stroke-opacity:0.504" />
      <path
         id="path5294"
         d="m 601.48423,206.74387 c -3.03269,3.9819 -4.31882,9.06691 -3.93226,14.02584 0.2889,2.42464 -1.0002,4.68203 -1.91791,6.84798 -1.68757,3.22867 -3.21404,6.75475 -2.75258,10.48527 -0.13311,2.14953 -1.08808,-0.0177 -0.98752,-1.09887 -0.45734,-3.04128 -0.65294,-6.19517 -0.0291,-9.20785 -0.31444,-2.93176 -1.05707,-6.10976 -3.47799,-8.03639 0.71889,3.47991 1.65307,7.40217 -0.0822,10.7269 -0.62256,1.11387 -2.01513,1.41848 -2.30626,2.75604 -2.92137,5.11771 -3.14158,11.49808 -0.92356,16.91668 0.46159,1.23399 1.06366,2.41194 1.58625,3.62137 -1.6278,-0.92943 -3.41412,-1.5602 -4.98741,-2.57905 2.17929,6.38114 6.32304,12.65865 12.86386,15.14164 2.57251,1.09516 5.37768,1.29844 8.09563,1.73079 5.95714,1.85968 13.34994,0.63774 17.27964,-4.54622 2.30921,-2.99908 2.95074,-7.04652 2.16467,-10.70201 -1.04023,2.10388 -2.84275,3.80889 -5.17068,4.34896 0.53562,-2.70102 -0.27985,-5.40384 -1.67525,-7.71421 -1.50635,-2.46516 -1.86058,-5.58135 -0.65841,-8.24467 1.82403,-3.99792 3.20263,-8.83591 1.07841,-12.99724 -0.65739,-1.92085 -1.12017,-0.74171 -1.45324,0.61882 -1.38886,4.27239 -4.19352,7.90671 -7.36741,11.02328 0.21977,-4.35858 1.74053,-8.48258 2.3868,-12.76715 0.36901,-2.18275 -0.0549,-4.37294 -0.51186,-6.48669 -0.31107,-2.37514 -2.78644,-3.59355 -3.83094,-5.62753 -1.86122,-2.70512 -2.4803,-6.0673 -2.58893,-9.29699 -0.26761,0.35398 -0.5352,0.70797 -0.80278,1.06196 z"
         style="fill:#d51b00;fill-opacity:1;fill-rule:evenodd;stroke:none;stroke-width:0.276515;stroke-opacity:0.504" />
      <g
         transform="matrix(0.12825381,0,0,0.12825381,570.16593,201.09532)"
         id="g5300"
         style="fill:#d51b00;fill-opacity:1;fill-rule:evenodd;stroke:none;stroke-width:2.156;stroke-opacity:0.504">
        <path
           id="path5296"
           d="m 239.07,508.1 c -72.415,-76.514 -84.712,-129.8 -36.891,-180.35 53.742,-95.642 40.534,-155.76 1.3663,-213.15 36.891,127.07 -43.722,209.05 -69.682,245.94 -15.485,-47.821 -2.2772,-68.316 19.128,-127.07 -41.9,45.544 -67.405,100.65 -51.92,153.03 28.237,78.791 94.731,96.098 138,121.6 z"
           style="fill:#d51b00;fill-opacity:1;stroke:none" />
        <path
           id="path5298"
           d="m 326.95,219.01 c -9.7071,-28.233 -1.7857,-34.279 6.7175,-46.613 8.7715,-3.4163 6.083,-15.328 10.87,-41.855 7.2473,29.609 26.703,43.071 -17.587,88.468 z"
           style="fill:#d51b00;fill-opacity:1;stroke:none" />
      </g>
      <path
         id="path5302"
         d="m 613.49776,217.24247 c -0.37854,1.61421 -0.20741,3.39322 -0.91024,4.89892 -1.64678,1.25802 -2.36474,3.59572 -1.64268,5.57942 0.22419,1.66268 0.74425,1.94959 1.66615,0.43124 1.96857,-2.02564 3.81042,-4.92802 2.68948,-7.83041 -0.50574,-1.48043 -0.94859,-2.98344 -1.51185,-4.4445 -0.0969,0.45512 -0.19385,0.91024 -0.29078,1.36539 z"
         style="fill:#d51b00;fill-opacity:1;fill-rule:evenodd;stroke:none;stroke-width:0.276515;stroke-opacity:0.504" />
      <g
         transform="matrix(0.12825381,0,0,0.12825381,570.16593,201.09532)"
         id="g5308"
         style="fill:#d51b00;fill-opacity:1;fill-rule:evenodd;stroke:none;stroke-width:2.156;stroke-opacity:0.504">
        <path
           id="path5304"
           d="m 389.36,391.96 c 25.049,-24.138 20.039,-34.614 17.762,-51.92 -7.287,-8.1979 1.8218,-19.128 10.93,-49.188 -23.227,26.871 -50.554,30.514 -28.693,101.11 z"
           style="fill:#d51b00;fill-opacity:1;stroke:none" />
        <path
           id="path5306"
           d="m 271.86,508.1 c 28.237,-15.94 35.98,-66.039 39.623,-121.6 6.8316,-53.742 20.495,-107.48 110.67,-116.14 -36.891,29.604 -66.95,66.039 -53.286,133.9 -3.6435,98.83 -76.969,95.187 -97.009,103.84 z"
           style="fill:#d51b00;fill-opacity:1;stroke:none" />
      </g>
      <path
         id="path5310"
         d="m 622.97572,234.76323 c -4.93174,0.69925 -10.01521,3.66216 -11.46269,8.69445 -2.32293,6.29021 -1.03929,13.4487 -4.20749,19.49202 -1.20316,0.52289 -0.90902,2.76592 0.57685,2.32703 4.35229,-0.78912 8.48296,-3.81273 9.58569,-8.25005 1.06348,-3.08143 0.46044,-6.34138 0.34731,-9.50643 0.14471,-4.59033 2.8026,-8.72972 6.29175,-11.56183 0.61078,-0.87969 -0.4079,-1.17561 -1.13149,-1.1947 z"
         style="fill:#d51b00;fill-opacity:1;fill-rule:evenodd;stroke:none;stroke-width:0.276515;stroke-opacity:0.504" />
      <path
         id="path5312"
         d="m 623.036,237.16542 c -1.98742,2.10375 -4.87057,4.07244 -4.80093,7.30688 -0.14689,2.31742 0.67834,4.52684 1.19158,6.75128 1.72515,-1.64627 3.68615,-3.79067 3.05411,-6.38679 -0.005,-1.14395 -0.86666,-2.14466 -0.18981,-3.25918 0.65009,-1.76503 1.33012,-3.52121 1.7817,-5.35396 -0.34556,0.31396 -0.69111,0.62791 -1.03666,0.94184 z"
         style="fill:#d51b00;fill-opacity:1;fill-rule:evenodd;stroke:none;stroke-width:0.276515;stroke-opacity:0.504" />
      <path
         id="path5314"
         d="m 598.72421,261.5298 c -0.46731,-5.60752 -1.10984,-9.63802 5.95803,-14.71969 11.97441,-8.35292 6.07487,-13.20117 -1.40195,-21.90447 2.21969,8.64495 -1.34345,15.53795 -4.38089,20.15252 -1.98601,2.86224 -8.87863,8.7033 -0.17523,16.47164 z"
         style="fill:#d51b00;fill-opacity:1;fill-rule:evenodd;stroke:none;stroke-width:0.276515;stroke-opacity:0.504" />
      <path
         id="path5316"
         d="m 603.10023,223.45637 c 1.29562,5.89339 -0.0388,12.1019 -3.02115,17.27964 -1.8516,3.55955 -5.50209,6.28559 -5.84991,10.52053 -0.55798,3.69037 2.10105,6.76641 4.56519,9.15117 1.00366,1.262 0.14339,-1.72143 0.28,-2.4199 -0.40044,-3.63061 0.22224,-7.7042 3.15197,-10.19464 3.26175,-3.17325 7.91377,-5.37281 9.47616,-9.93364 1.05676,-4.02794 -1.75913,-7.63828 -4.21519,-10.49847 -1.4812,-1.79735 -3.04282,-3.52082 -4.59559,-5.25712 0.0695,0.4509 0.13907,0.90181 0.20859,1.35269 z"
         style="fill:#d51b00;fill-opacity:1;fill-rule:evenodd;stroke:none;stroke-width:0.276515;stroke-opacity:0.504" />
      <path
         id="path5318"
         d="m 597.21466,218.22746 c 0.12822,2.78696 0.92057,5.5466 0.55774,8.35972 -0.32006,6.56723 -3.20558,12.74317 -7.18927,17.88371 -0.739,1.05005 -1.52609,2.06514 -2.28754,3.09887 -1.01828,-3.3927 -0.55859,-7.05101 0.81288,-10.27057 0.72222,-1.72027 1.22913,-3.50582 1.49428,-5.35537 -3.80708,3.47299 -6.49375,8.20709 -7.44,13.27427 -0.76696,4.68665 0.88174,9.50502 3.991,13.02674 3.90943,4.61214 9.53054,7.20376 14.97876,9.52028 -3.0872,-4.34241 -7.38472,-8.26082 -8.29738,-13.74752 -0.62603,-3.1857 0.62842,-6.38319 2.72052,-8.765 2.39476,-3.29022 3.88635,-7.20414 4.77245,-11.15474 1.15074,-5.14516 0.22828,-10.70843 -2.58367,-15.16986 -0.69388,-0.50725 -1.93381,-3.17262 -1.52968,-0.70165 z"
         style="fill:#d56500;fill-opacity:1;fill-rule:evenodd;stroke:none;stroke-width:0.276515;stroke-opacity:0.504" />
      <path
         style="fill:#d51b00;fill-opacity:1;fill-rule:evenodd;stroke:none;stroke-width:0.276515;stroke-opacity:0.504"
         d="m 617.16024,215.23442 c 3.23405,-3.72398 2.40347,-5.25687 1.87532,-7.82092 -1.12361,-1.18199 0.0266,-2.8566 0.94699,-7.37831 -2.94496,4.12117 -6.74563,4.80669 -2.82222,15.19935 z"
         id="path5344" />
      <path
         style="fill:#d51b00;fill-opacity:1;fill-rule:evenodd;stroke:none;stroke-width:0.276515;stroke-opacity:0.504"
         d="m 619.20589,199.24194 c -1.88315,2.4626 -4.73885,4.73487 -4.58918,8.14796 -0.0203,2.83774 1.09817,5.48542 1.93432,8.14796 1.70732,-1.94881 3.52365,-4.42373 2.76387,-7.1699 0.005,-1.08654 -0.75591,-1.93009 -0.77784,-2.95625 0.41605,-2.42233 1.27689,-4.76219 1.61702,-7.20632 -0.31606,0.34555 -0.63211,0.69111 -0.94817,1.03666 z"
         id="path5346" />
      <path
         style="fill:#d51b00;fill-opacity:1;fill-rule:evenodd;stroke:none;stroke-width:0.276515;stroke-opacity:0.504"
         d="m 603.85352,244.45192 c 3.91354,11.56554 10.10525,17.69902 21.20292,18.39929 12.2081,3.91353 23.5397,-4.08886 20.32695,-16.64735 -1.4603,2.68692 -2.39489,4.14722 -4.90661,4.90661 0.99301,-6.95097 -5.37383,-8.11924 -2.27804,-15.59566 2.1612,-4.61458 3.4463,-10.28044 -0.35047,-14.8954 -1.57714,5.25712 -3.50466,8.76179 -7.35985,12.61697 0.40889,-6.42526 3.79683,-11.6239 1.75234,-17.69903 0.29206,-4.08886 -6.42526,-3.97202 -6.48375,-16.47164 -4.26405,5.37384 -6.07487,9.52118 -5.43231,17.69903 -1.57714,6.60058 -5.43232,8.99547 -4.73142,16.1215 -0.58412,-3.97202 -0.993,-7.41832 -0.17523,-10.33892 -0.46729,-3.6215 -0.9346,-6.71742 -4.55609,-9.2875 1.10982,4.49773 2.39489,11.27351 -1.40194,12.96774 -1.05141,2.16121 -6.30855,9.57954 -0.5257,21.20292 -1.69398,-0.993 -3.38795,-1.2851 -5.0818,-2.97895 z"
         id="path5348" />
      <path
         style="fill:#d51b00;fill-opacity:1;fill-rule:evenodd;stroke:none;stroke-width:0.276515;stroke-opacity:0.504"
         d="m 624.48738,201.58205 c -3.03269,3.9819 -4.31882,9.06691 -3.93226,14.02584 0.2889,2.42464 -1.0002,4.68203 -1.91791,6.84798 -1.68757,3.22867 -3.21404,6.75475 -2.75258,10.48527 -0.13311,2.14953 -1.08808,-0.0177 -0.98752,-1.09887 -0.45734,-3.04128 -0.65294,-6.19517 -0.0291,-9.20785 -0.31444,-2.93176 -1.05707,-6.10976 -3.47799,-8.03639 0.71889,3.47991 1.65307,7.40217 -0.0822,10.7269 -0.62256,1.11387 -2.01513,1.41848 -2.30626,2.75604 -2.92137,5.11771 -3.14158,11.49808 -0.92356,16.91668 0.46159,1.23399 1.06366,2.41194 1.58625,3.62137 -1.6278,-0.92943 -3.41412,-1.5602 -4.98741,-2.57905 2.17929,6.38114 6.32304,12.65865 12.86386,15.14164 2.57251,1.09516 5.37768,1.29844 8.09563,1.73079 5.95714,1.85968 13.34994,0.63774 17.27964,-4.54622 2.30921,-2.99908 2.95074,-7.04652 2.16467,-10.70201 -1.04023,2.10388 -2.84275,3.80889 -5.17068,4.34896 0.53562,-2.70102 -0.27985,-5.40384 -1.67525,-7.71421 -1.50635,-2.46516 -1.86058,-5.58135 -0.65841,-8.24467 1.82403,-3.99792 3.20263,-8.83591 1.07841,-12.99724 -0.65739,-1.92085 -1.12017,-0.74171 -1.45324,0.61882 -1.38886,4.27239 -4.19352,7.90671 -7.36741,11.02328 0.21977,-4.35858 1.74053,-8.48258 2.3868,-12.76715 0.36901,-2.18275 -0.0549,-4.37294 -0.51186,-6.48669 -0.31107,-2.37514 -2.78644,-3.59355 -3.83094,-5.62753 -1.86122,-2.70512 -2.4803,-6.0673 -2.58893,-9.29699 -0.26761,0.35398 -0.5352,0.70797 -0.80278,1.06196 z"
         id="path5350" />
      <g
         transform="matrix(0.12825381,0,0,0.12825381,593.16908,195.9335)"
         style="fill:#d51b00;fill-opacity:1;fill-rule:evenodd;stroke:none;stroke-width:2.156;stroke-opacity:0.504"
         id="g5356">
        <path
           style="fill:#d51b00;fill-opacity:1;stroke:none"
           d="m 239.07,508.1 c -72.415,-76.514 -84.712,-129.8 -36.891,-180.35 53.742,-95.642 40.534,-155.76 1.3663,-213.15 36.891,127.07 -43.722,209.05 -69.682,245.94 -15.485,-47.821 -2.2772,-68.316 19.128,-127.07 -41.9,45.544 -67.405,100.65 -51.92,153.03 28.237,78.791 94.731,96.098 138,121.6 z"
           id="path5352" />
        <path
           style="fill:#d51b00;fill-opacity:1;stroke:none"
           d="m 326.95,219.01 c -9.7071,-28.233 -1.7857,-34.279 6.7175,-46.613 8.7715,-3.4163 6.083,-15.328 10.87,-41.855 7.2473,29.609 26.703,43.071 -17.587,88.468 z"
           id="path5354" />
      </g>
      <path
         style="fill:#d51b00;fill-opacity:1;fill-rule:evenodd;stroke:none;stroke-width:0.276515;stroke-opacity:0.504"
         d="m 636.50091,212.08065 c -0.37854,1.61421 -0.20741,3.39322 -0.91024,4.89892 -1.64678,1.25802 -2.36474,3.59572 -1.64268,5.57942 0.22419,1.66268 0.74425,1.94959 1.66615,0.43124 1.96857,-2.02564 3.81042,-4.92802 2.68948,-7.83041 -0.50574,-1.48043 -0.94859,-2.98344 -1.51185,-4.4445 -0.0969,0.45512 -0.19385,0.91024 -0.29078,1.36539 z"
         id="path5358" />
      <g
         transform="matrix(0.12825381,0,0,0.12825381,593.16908,195.9335)"
         style="fill:#d51b00;fill-opacity:1;fill-rule:evenodd;stroke:none;stroke-width:2.156;stroke-opacity:0.504"
         id="g5364">
        <path
           style="fill:#d51b00;fill-opacity:1;stroke:none"
           d="m 389.36,391.96 c 25.049,-24.138 20.039,-34.614 17.762,-51.92 -7.287,-8.1979 1.8218,-19.128 10.93,-49.188 -23.227,26.871 -50.554,30.514 -28.693,101.11 z"
           id="path5360" />
        <path
           style="fill:#d51b00;fill-opacity:1;stroke:none"
           d="m 271.86,508.1 c 28.237,-15.94 35.98,-66.039 39.623,-121.6 6.8316,-53.742 20.495,-107.48 110.67,-116.14 -36.891,29.604 -66.95,66.039 -53.286,133.9 -3.6435,98.83 -76.969,95.187 -97.009,103.84 z"
           id="path5362" />
      </g>
      <path
         style="fill:#d51b00;fill-opacity:1;fill-rule:evenodd;stroke:none;stroke-width:0.276515;stroke-opacity:0.504"
         d="m 645.97887,229.60141 c -4.93174,0.69925 -10.01521,3.66216 -11.46269,8.69445 -2.32293,6.29021 -1.03929,13.4487 -4.20749,19.49202 -1.20316,0.52289 -0.90902,2.76592 0.57685,2.32703 4.35229,-0.78912 8.48296,-3.81273 9.58569,-8.25005 1.06348,-3.08143 0.46044,-6.34138 0.34731,-9.50643 0.14471,-4.59033 2.8026,-8.72972 6.29175,-11.56183 0.61078,-0.87969 -0.4079,-1.17561 -1.13149,-1.1947 z"
         id="path5366" />
      <path
         style="fill:#d51b00;fill-opacity:1;fill-rule:evenodd;stroke:none;stroke-width:0.276515;stroke-opacity:0.504"
         d="m 646.03915,232.0036 c -1.98742,2.10375 -4.87057,4.07244 -4.80093,7.30688 -0.14689,2.31742 0.67834,4.52684 1.19158,6.75128 1.72515,-1.64627 3.68615,-3.79067 3.05411,-6.38679 -0.005,-1.14395 -0.86666,-2.14466 -0.18981,-3.25918 0.65009,-1.76503 1.33012,-3.52121 1.7817,-5.35396 -0.34556,0.31396 -0.69111,0.62791 -1.03666,0.94184 z"
         id="path5368" />
      <path
         style="fill:#d51b00;fill-opacity:1;fill-rule:evenodd;stroke:none;stroke-width:0.276515;stroke-opacity:0.504"
         d="m 621.72736,256.36798 c -0.46731,-5.60752 -1.10984,-9.63802 5.95803,-14.71969 11.97441,-8.35292 6.07487,-13.20117 -1.40195,-21.90447 2.21969,8.64495 -1.34345,15.53795 -4.38089,20.15252 -1.98601,2.86224 -8.87863,8.7033 -0.17523,16.47164 z"
         id="path5370" />
      <path
         style="fill:#d51b00;fill-opacity:1;fill-rule:evenodd;stroke:none;stroke-width:0.276515;stroke-opacity:0.504"
         d="m 626.10338,218.29455 c 1.29562,5.89339 -0.0388,12.1019 -3.02115,17.27964 -1.8516,3.55955 -5.50209,6.28559 -5.84991,10.52053 -0.55798,3.69037 2.10105,6.76641 4.56519,9.15117 1.00366,1.262 0.14339,-1.72143 0.28,-2.4199 -0.40044,-3.63061 0.22224,-7.7042 3.15197,-10.19464 3.26175,-3.17325 7.91377,-5.37281 9.47616,-9.93364 1.05676,-4.02794 -1.75913,-7.63828 -4.21519,-10.49847 -1.4812,-1.79735 -3.04282,-3.52082 -4.59559,-5.25712 0.0695,0.4509 0.13907,0.90181 0.20859,1.35269 z"
         id="path5372" />
      <path
         style="fill:#e31d00;fill-opacity:1;fill-rule:evenodd;stroke:none;stroke-width:0.276515;stroke-opacity:0.504"
         d="m 620.21781,213.06564 c 0.12822,2.78696 0.92057,5.5466 0.55774,8.35972 -0.32006,6.56723 -3.20558,12.74317 -7.18927,17.88371 -0.739,1.05005 -1.52609,2.06514 -2.28754,3.09887 -1.01828,-3.3927 -0.55859,-7.05101 0.81288,-10.27057 0.72222,-1.72027 1.22913,-3.50582 1.49428,-5.35537 -3.80708,3.47299 -6.49375,8.20709 -7.44,13.27427 -0.76696,4.68665 0.88174,9.50502 3.991,13.02674 3.90943,4.61214 9.53054,7.20376 14.97876,9.52028 -3.0872,-4.34241 -7.38472,-8.26082 -8.29738,-13.74752 -0.62603,-3.1857 0.62842,-6.38319 2.72052,-8.765 2.39476,-3.29022 3.88635,-7.20414 4.77245,-11.15474 1.15074,-5.14516 0.22828,-10.70843 -2.58367,-15.16986 -0.69388,-0.50725 -1.93381,-3.17262 -1.52968,-0.70165 z"
         id="path5374" />
      <path
         id="path5400"
         d="m 584.56495,232.72977 c 3.23405,-3.72398 2.40347,-5.25687 1.87532,-7.82092 -1.12361,-1.18199 0.0266,-2.8566 0.94699,-7.37831 -2.94496,4.12117 -6.74563,4.80669 -2.82222,15.19935 z"
         style="fill:#d51b00;fill-opacity:1;fill-rule:evenodd;stroke:none;stroke-width:0.276515;stroke-opacity:0.504" />
      <path
         id="path5402"
         d="m 586.6106,216.73729 c -1.88315,2.4626 -4.73885,4.73487 -4.58918,8.14796 -0.0203,2.83774 1.09817,5.48542 1.93432,8.14796 1.70732,-1.94881 3.52365,-4.42373 2.76387,-7.1699 0.005,-1.08654 -0.75591,-1.93009 -0.77784,-2.95625 0.41605,-2.42233 1.27689,-4.76219 1.61702,-7.20632 -0.31606,0.34555 -0.63211,0.69111 -0.94817,1.03666 z"
         style="fill:#f31f00;fill-opacity:1;fill-rule:evenodd;stroke:none;stroke-width:0.276515;stroke-opacity:0.504" />
      <path
         id="path5404"
         d="m 571.25823,261.94727 c 3.91354,11.56554 10.10525,17.69902 21.20292,18.39929 12.2081,3.91353 23.5397,-4.08886 20.32695,-16.64735 -1.4603,2.68692 -2.39489,4.14722 -4.90661,4.90661 0.99301,-6.95097 -5.37383,-8.11924 -2.27804,-15.59566 2.1612,-4.61458 3.4463,-10.28044 -0.35047,-14.8954 -1.57714,5.25712 -3.50466,8.76179 -7.35985,12.61697 0.40889,-6.42526 3.79683,-11.6239 1.75234,-17.69903 0.29206,-4.08886 -6.42526,-3.97202 -6.48375,-16.47164 -4.26405,5.37384 -6.07487,9.52118 -5.43231,17.69903 -1.57714,6.60058 -5.43232,8.99547 -4.73142,16.1215 -0.58412,-3.97202 -0.993,-7.41832 -0.17523,-10.33892 -0.46729,-3.6215 -0.9346,-6.71742 -4.55609,-9.2875 1.10982,4.49773 2.39489,11.27351 -1.40194,12.96774 -1.05141,2.16121 -6.30855,9.57954 -0.5257,21.20292 -1.69398,-0.993 -3.38795,-1.2851 -5.0818,-2.97895 z"
         style="fill:#d51b00;fill-opacity:1;fill-rule:evenodd;stroke:none;stroke-width:0.276515;stroke-opacity:0.504" />
      <path
         id="path5406"
         d="m 591.89209,219.0774 c -3.03269,3.9819 -4.31882,9.06691 -3.93226,14.02584 0.2889,2.42464 -1.0002,4.68203 -1.91791,6.84798 -1.68757,3.22867 -3.21404,6.75475 -2.75258,10.48527 -0.13311,2.14953 -1.08808,-0.0177 -0.98752,-1.09887 -0.45734,-3.04128 -0.65294,-6.19517 -0.0291,-9.20785 -0.31444,-2.93176 -1.05707,-6.10976 -3.47799,-8.03639 0.71889,3.47991 1.65307,7.40217 -0.0822,10.7269 -0.62256,1.11387 -2.01513,1.41848 -2.30626,2.75604 -2.92137,5.11771 -3.14158,11.49808 -0.92356,16.91668 0.46159,1.23399 1.06366,2.41194 1.58625,3.62137 -1.6278,-0.92943 -3.41412,-1.5602 -4.98741,-2.57905 2.17929,6.38114 6.32304,12.65865 12.86386,15.14164 2.57251,1.09516 5.37768,1.29844 8.09563,1.73079 5.95714,1.85968 13.34994,0.63774 17.27964,-4.54622 2.30921,-2.99908 2.95074,-7.04652 2.16467,-10.70201 -1.04023,2.10388 -2.84275,3.80889 -5.17068,4.34896 0.53562,-2.70102 -0.27985,-5.40384 -1.67525,-7.71421 -1.50635,-2.46516 -1.86058,-5.58135 -0.65841,-8.24467 1.82403,-3.99792 3.20263,-8.83591 1.07841,-12.99724 -0.65739,-1.92085 -1.12017,-0.74171 -1.45324,0.61882 -1.38886,4.27239 -4.19352,7.90671 -7.36741,11.02328 0.21977,-4.35858 1.74053,-8.48258 2.3868,-12.76715 0.36901,-2.18275 -0.0549,-4.37294 -0.51186,-6.48669 -0.31107,-2.37514 -2.78644,-3.59355 -3.83094,-5.62753 -1.86122,-2.70512 -2.4803,-6.0673 -2.58893,-9.29699 -0.26761,0.35398 -0.5352,0.70797 -0.80278,1.06196 z"
         style="fill:#d51b00;fill-opacity:1;fill-rule:evenodd;stroke:none;stroke-width:0.276515;stroke-opacity:0.504" />
      <g
         transform="matrix(0.12825381,0,0,0.12825381,560.57379,213.42885)"
         id="g5412"
         style="fill:#d51b00;fill-opacity:1;fill-rule:evenodd;stroke:none;stroke-width:2.156;stroke-opacity:0.504">
        <path
           id="path5408"
           d="m 239.07,508.1 c -72.415,-76.514 -84.712,-129.8 -36.891,-180.35 53.742,-95.642 40.534,-155.76 1.3663,-213.15 36.891,127.07 -43.722,209.05 -69.682,245.94 -15.485,-47.821 -2.2772,-68.316 19.128,-127.07 -41.9,45.544 -67.405,100.65 -51.92,153.03 28.237,78.791 94.731,96.098 138,121.6 z"
           style="fill:#d51b00;fill-opacity:1;stroke:none" />
        <path
           id="path5410"
           d="m 326.95,219.01 c -9.7071,-28.233 -1.7857,-34.279 6.7175,-46.613 8.7715,-3.4163 6.083,-15.328 10.87,-41.855 7.2473,29.609 26.703,43.071 -17.587,88.468 z"
           style="fill:#d51b00;fill-opacity:1;stroke:none" />
      </g>
      <path
         id="path5414"
         d="m 603.90562,229.576 c -0.37854,1.61421 -0.20741,3.39322 -0.91024,4.89892 -1.64678,1.25802 -2.36474,3.59572 -1.64268,5.57942 0.22419,1.66268 0.74425,1.94959 1.66615,0.43124 1.96857,-2.02564 3.81042,-4.92802 2.68948,-7.83041 -0.50574,-1.48043 -0.94859,-2.98344 -1.51185,-4.4445 -0.0969,0.45512 -0.19385,0.91024 -0.29078,1.36539 z"
         style="fill:#d51b00;fill-opacity:1;fill-rule:evenodd;stroke:none;stroke-width:0.276515;stroke-opacity:0.504" />
      <g
         transform="matrix(0.12825381,0,0,0.12825381,560.57379,213.42885)"
         id="g5420"
         style="fill:#d51b00;fill-opacity:1;fill-rule:evenodd;stroke:none;stroke-width:2.156;stroke-opacity:0.504">
        <path
           id="path5416"
           d="m 389.36,391.96 c 25.049,-24.138 20.039,-34.614 17.762,-51.92 -7.287,-8.1979 1.8218,-19.128 10.93,-49.188 -23.227,26.871 -50.554,30.514 -28.693,101.11 z"
           style="fill:#d51b00;fill-opacity:1;stroke:none" />
        <path
           id="path5418"
           d="m 271.86,508.1 c 28.237,-15.94 35.98,-66.039 39.623,-121.6 6.8316,-53.742 20.495,-107.48 110.67,-116.14 -36.891,29.604 -66.95,66.039 -53.286,133.9 -3.6435,98.83 -76.969,95.187 -97.009,103.84 z"
           style="fill:#d51b00;fill-opacity:1;stroke:none" />
      </g>
      <path
         id="path5422"
         d="m 613.38358,247.09676 c -4.93174,0.69925 -10.01521,3.66216 -11.46269,8.69445 -2.32293,6.29021 -1.03929,13.4487 -4.20749,19.49202 -1.20316,0.52289 -0.90902,2.76592 0.57685,2.32703 4.35229,-0.78912 8.48296,-3.81273 9.58569,-8.25005 1.06348,-3.08143 0.46044,-6.34138 0.34731,-9.50643 0.14471,-4.59033 2.8026,-8.72972 6.29175,-11.56183 0.61078,-0.87969 -0.4079,-1.17561 -1.13149,-1.1947 z"
         style="fill:#d51b00;fill-opacity:1;fill-rule:evenodd;stroke:none;stroke-width:0.276515;stroke-opacity:0.504" />
      <path
         id="path5424"
         d="m 613.44386,249.49895 c -1.98742,2.10375 -4.87057,4.07244 -4.80093,7.30688 -0.14689,2.31742 0.67834,4.52684 1.19158,6.75128 1.72515,-1.64627 3.68615,-3.79067 3.05411,-6.38679 -0.004,-1.14395 -0.86666,-2.14466 -0.18981,-3.25918 0.65009,-1.76503 1.33012,-3.52121 1.7817,-5.35396 -0.34556,0.31396 -0.69111,0.62791 -1.03666,0.94184 z"
         style="fill:#d51b00;fill-opacity:1;fill-rule:evenodd;stroke:none;stroke-width:0.276515;stroke-opacity:0.504" />
      <path
         id="path5426"
         d="m 589.13207,273.86333 c -0.46731,-5.60752 -1.10984,-9.63802 5.95803,-14.71969 11.97441,-8.35292 6.07487,-13.20117 -1.40195,-21.90447 2.21969,8.64495 -1.34345,15.53795 -4.38089,20.15252 -1.98601,2.86224 -8.87863,8.7033 -0.17523,16.47164 z"
         style="fill:#d51b00;fill-opacity:1;fill-rule:evenodd;stroke:none;stroke-width:0.276515;stroke-opacity:0.504" />
      <path
         id="path5428"
         d="m 593.50809,235.7899 c 1.29562,5.89339 -0.0388,12.1019 -3.02115,17.27964 -1.8516,3.55955 -5.50209,6.28559 -5.84991,10.52053 -0.55798,3.69037 2.10105,6.76641 4.56519,9.15117 1.00366,1.262 0.14339,-1.72143 0.28,-2.4199 -0.40044,-3.63061 0.22224,-7.7042 3.15197,-10.19464 3.26175,-3.17325 7.91377,-5.37281 9.47616,-9.93364 1.05676,-4.02794 -1.75913,-7.63828 -4.21519,-10.49847 -1.4812,-1.79735 -3.04282,-3.52082 -4.59559,-5.25712 0.0695,0.4509 0.13907,0.90181 0.20859,1.35269 z"
         style="fill:#fb1f00;fill-opacity:1;fill-rule:evenodd;stroke:none;stroke-width:0.276515;stroke-opacity:0.504" />
      <path
         id="path5430"
         d="m 587.62252,230.56099 c 0.12822,2.78696 0.92057,5.5466 0.55774,8.35972 -0.32006,6.56723 -3.20558,12.74317 -7.18927,17.88371 -0.739,1.05005 -1.52609,2.06514 -2.28754,3.09887 -1.01828,-3.3927 -0.55859,-7.05101 0.81288,-10.27057 0.72222,-1.72027 1.22913,-3.50582 1.49428,-5.35537 -3.80708,3.47299 -6.49375,8.20709 -7.44,13.27427 -0.76696,4.68665 0.88174,9.50502 3.991,13.02674 3.90943,4.61214 9.53054,7.20376 14.97876,9.52028 -3.0872,-4.34241 -7.38472,-8.26082 -8.29738,-13.74752 -0.62603,-3.1857 0.62842,-6.38319 2.72052,-8.765 2.39476,-3.29022 3.88635,-7.20414 4.77245,-11.15474 1.15074,-5.14516 0.22828,-10.70843 -2.58367,-15.16986 -0.69388,-0.50725 -1.93381,-3.17262 -1.52968,-0.70165 z"
         style="fill:#d51b00;fill-opacity:1;fill-rule:evenodd;stroke:none;stroke-width:0.276515;stroke-opacity:0.504" />
    </g>
  </g>
</svg>
