<?xml version="1.0" encoding="UTF-8" standalone="no"?>
<!-- Created with Inkscape (http://www.inkscape.org/) -->

<svg
   width="49.062935mm"
   height="72.430321mm"
   viewBox="0 0 49.062936 72.43032"
   version="1.1"
   id="svg8"
   xmlns="http://www.w3.org/2000/svg"
   xmlns:svg="http://www.w3.org/2000/svg"
   xmlns:rdf="http://www.w3.org/1999/02/22-rdf-syntax-ns#"
   xmlns:cc="http://creativecommons.org/ns#"
   xmlns:dc="http://purl.org/dc/elements/1.1/">
  <defs
     id="defs2" />
  <metadata
     id="metadata5">
    <rdf:RDF>
      <cc:Work
         rdf:about="">
        <dc:format>image/svg+xml</dc:format>
        <dc:type
           rdf:resource="http://purl.org/dc/dcmitype/StillImage" />
      </cc:Work>
    </rdf:RDF>
  </metadata>
  <g
     id="layer1"
     transform="translate(-65.805567,-47.701501)"
     style="display:inline">
    <path
       style="fill:#000000;stroke-width:0.196471"
       d="m 101.32906,119.96396 c 0.90112,-0.21543 1.06345,-0.36887 1.06345,-1.0052 0,-0.56583 -0.0214,-0.57786 -1.03147,-0.57974 -1.705692,-0.003 -3.605592,-1.10763 -3.969522,-2.30759 -0.0961,-0.31684 -0.0419,-0.47852 0.1904,-0.56764 0.26078,-0.10008 0.31205,-0.34507 0.26028,-1.24379 -0.0558,-0.96885 0.007,-1.21265 0.46649,-1.81528 0.29203,-0.38287 0.68102,-1.30364 0.86442,-2.04615 0.1834,-0.74251 0.54073,-1.82519 0.79407,-2.40594 0.253342,-0.58076 0.460612,-1.17755 0.460612,-1.32619 0,-0.14864 0.0884,-0.27025 0.19648,-0.27025 0.10806,0 0.19647,0.20142 0.19647,0.44759 0,0.24619 0.30944,1.09331 0.68765,1.8825 0.39509,0.82442 0.68764,1.73754 0.68764,2.14628 0,0.5284 0.15564,0.87198 0.60498,1.33558 0.35292,0.36413 0.68508,0.98073 0.79725,1.47999 0.10577,0.4707 0.3335,1.01184 0.50608,1.20254 0.36638,0.40484 1.40199,0.45721 1.89614,0.0959 0.36775,-0.26891 0.70208,-1.41804 0.70971,-2.4394 0.002,-0.34502 0.19508,-0.94999 0.42778,-1.34438 0.41387,-0.70147 0.4158,-0.74017 0.0888,-1.77762 -0.30579,-0.97007 -0.68468,-1.41816 -1.19952,-1.41862 -0.10806,-1e-4 -0.29868,-0.34036 -0.42361,-0.75615 -0.9301,-3.09571 -1.68167,-5.92122 -1.95286,-7.341754 -0.3104,-1.626007 -0.30759,-1.713297 0.0981,-3.045304 0.48862,-1.604351 1.37355,-3.914105 2.2943,-5.988398 0.35976,-0.810447 0.78155,-2.092419 0.93733,-2.848837 0.5356,-2.600764 0.90812,-3.634719 1.30954,-3.634719 0.35652,0 0.35548,-0.03648 -0.0322,-1.129711 -0.42663,-1.203268 -0.60777,-2.599211 -0.57096,-4.400048 0.0125,-0.610033 -0.15694,-1.932076 -0.37646,-2.937874 -0.47614,-2.181632 -0.52456,-4.801282 -0.10721,-5.800161 0.3393,-0.81205 0.62123,-0.791075 1.08893,0.08102 0.18462,0.344234 0.4249,0.737377 0.53396,0.873651 0.10906,0.136277 0.26108,0.468805 0.3378,0.738953 0.40211,1.415778 1.41852,4.050127 2.21559,5.742388 0.8992,1.909081 0.89984,1.912011 0.58573,2.652364 -0.31259,0.736776 -0.38122,2.806099 -0.093,2.804791 0.0811,-3.93e-4 0.22472,-5.9e-4 0.31927,-5.9e-4 0.0945,0 0.22629,-0.271888 0.29275,-0.604196 0.0884,-0.442148 0.21359,-0.584994 0.46662,-0.532597 0.50154,0.103851 0.37952,1.021459 -0.23254,1.748855 -0.71755,0.852763 -0.65559,1.157092 0.2345,1.151812 1.04964,-0.0062 1.62352,-0.524064 1.83495,-1.655763 0.14275,-0.764154 0.10649,-1.099222 -0.19203,-1.77408 -0.2275,-0.514301 -0.4547,-1.761738 -0.59499,-3.266853 -0.30486,-3.270456 -0.73518,-5.692696 -1.22956,-6.920881 -0.22474,-0.558347 -0.43418,-1.217509 -0.46541,-1.464801 -0.0313,-0.247295 -0.23475,-1.175623 -0.45225,-2.062951 -0.2175,-0.88733 -0.54182,-2.364829 -0.72071,-3.283333 -0.36558,-1.877018 -0.88858,-3.209604 -1.52961,-3.897311 -0.61109,-0.655583 -2.04978,-1.345976 -3.14805,-1.510672 -0.82742,-0.12408 -0.9788,-0.225831 -1.31427,-0.883382 -0.31642,-0.620245 -0.3349,-0.779844 -0.11176,-0.965035 0.66054,-0.548203 1.06216,-2.068554 1.20268,-4.552768 l 0.14009,-2.476775 -0.74836,-0.82835 c -1.1471,-1.269703 -2.02548,-1.638863 -3.59781,-1.512059 -0.71679,0.05781 -1.37478,0.109074 -1.46221,0.113927 -0.0874,0.0048 -0.1043,0.09723 -0.0375,0.205295 0.0668,0.108059 0.0423,0.196471 -0.0545,0.196471 -0.0968,0 -0.41142,0.465434 -0.699242,1.034296 -0.38383,0.758554 -0.52331,1.331462 -0.52331,2.14951 0,0.613412 -0.0884,1.169937 -0.19647,1.236721 -0.31968,0.197577 -0.2277,0.755965 0.29389,1.784064 0.26969,0.531595 0.49072,1.087231 0.49118,1.234746 7.4e-4,0.316832 -1.17931,1.450599 -2.17896,2.093098 -0.38843,0.249654 -1.434587,0.677593 -2.324786,0.950977 -1.787735,0.549017 -2.798781,1.206398 -3.276631,2.130466 -0.782,1.512218 -1.924561,6.717237 -2.12608,9.685552 -0.05866,0.864474 -0.248263,2.013833 -0.421289,2.554129 -0.211551,0.660598 -0.34479,2.011985 -0.406787,4.1259 -0.05072,1.728949 -0.138459,3.363324 -0.194999,3.631946 -0.09077,0.431268 -0.12513,0.448505 -0.293664,0.147354 -0.104969,-0.187578 -0.302062,-0.341049 -0.437982,-0.341049 -0.135912,0 -0.551484,-0.407162 -0.923474,-0.904802 -0.371997,-0.497643 -0.864083,-1.157194 -1.093537,-1.46567 -0.229446,-0.308477 -0.774448,-0.987593 -1.211123,-1.509146 -0.876588,-1.046995 -1.193836,-1.687865 -1.77529,-3.586298 -0.811071,-2.648121 -1.279714,-4.366132 -1.793304,-6.574106 -0.124693,-0.536068 -0.326671,-1.095106 -0.448837,-1.242306 -0.325683,-0.39243 -1.537797,-0.972776 -2.579659,-1.235121 -0.942521,-0.23733 -1.083624,-0.474437 -0.704223,-1.183361 0.178343,-0.33323 0.337691,-0.36806 1.175457,-0.256927 1.104397,0.146503 1.096311,0.156012 1.264154,-1.486545 0.06705,-0.656061 0.224181,-1.138238 0.40372,-1.23871 0.249986,-0.139902 0.224746,-0.258413 -0.168764,-0.792278 -0.294822,-0.399982 -0.551421,-1.162444 -0.707167,-2.101305 -0.30126,-1.816036 -0.49966,-2.337053 -0.944058,-2.479222 -0.190038,-0.06079 -0.537227,-0.202006 -0.77153,-0.313801 -0.629631,-0.300419 -2.794637,-0.0096 -3.69714,0.49667 -0.423703,0.237669 -1.071847,0.829473 -1.440325,1.315121 -0.368477,0.485648 -0.764891,0.917983 -0.880917,0.960746 -0.736495,0.271436 -1.690414,2.15453 -1.972747,3.894307 -0.06304,0.388498 -0.351725,0.953839 -0.641513,1.256313 -0.289787,0.302474 -0.551528,0.797043 -0.581647,1.099042 -0.03015,0.301999 -0.138184,0.966971 -0.240146,1.477714 -0.101963,0.510745 -0.115136,0.885212 -0.02926,0.832151 0.254828,-0.157492 0.404678,0.605794 0.21816,1.111229 -0.09498,0.257405 -0.232543,0.733247 -0.305672,1.057424 -0.10067,0.446221 -0.08202,0.517817 0.07675,0.294707 0.156356,-0.219709 0.179138,-0.09471 0.0895,0.49118 -0.09366,0.612226 -0.07069,0.720762 0.103737,0.491178 0.302218,-0.397684 0.06498,2.818984 -0.315748,4.280573 -0.151751,0.582616 -0.312644,1.63124 -0.357539,2.330275 -0.04493,0.699034 -0.180066,1.389584 -0.300384,1.534554 -0.120311,0.14497 -0.302761,0.780791 -0.405428,1.412936 -0.102675,0.632147 -0.280669,1.458798 -0.395545,1.837006 -0.289891,0.954415 -0.788898,4.828423 -0.913523,7.092037 l -0.103811,1.88554 0.709294,0.929221 c 0.390116,0.511081 0.709295,1.016087 0.709295,1.122245 0,0.557194 0.358706,-0.154915 0.577957,-1.147388 0.342213,-1.549044 0.513278,-1.822258 0.66523,-1.062491 0.0762,0.381012 0.241721,0.611461 0.439178,0.611461 0.254968,0 0.295164,-0.143969 0.205721,-0.736762 -0.09427,-0.624753 -0.150533,-2.990193 -0.113323,-4.764434 0.0059,-0.270148 0.139514,-0.889033 0.297443,-1.3753 0.15793,-0.486267 0.371768,-1.193564 0.4752,-1.571772 l 0.188056,-0.68765 -0.04032,0.646482 c -0.02213,0.355564 0.07337,0.71673 0.212316,0.802591 0.194553,0.120241 0.206649,0.355435 0.05265,1.023528 -0.109967,0.477079 -0.20016,1.574711 -0.200427,2.439183 -5.94e-4,1.756005 0.280097,2.568131 1.391842,4.027665 0.868836,1.140654 3.816732,7.087148 4.113811,8.298391 0.233338,0.95135 0.100826,2.704011 -0.204444,2.704011 -0.387547,0 -2.223928,1.66346 -3.281807,2.97278 -1.53766,1.90314 -2.589124,2.90783 -3.195127,3.05301 -0.276867,0.0663 -0.833534,0.28595 -1.237024,0.48805 -0.966327,0.484 -1.103457,1.06906 -0.558137,2.38127 0.233494,0.56184 0.511586,1.68579 0.617974,2.49766 0.106387,0.81186 0.329351,1.84776 0.495479,2.30197 0.362493,0.99111 1.51193,2.07071 2.113389,1.98498 0.40946,-0.0584 0.423034,-0.14864 0.437344,-2.90906 0.01767,-3.41525 0.08271,-3.58179 2.065694,-5.29273 1.970593,-1.70026 2.327798,-1.9199 2.550376,-1.56824 0.09718,0.15355 0.178046,0.43501 0.179702,0.62549 0.0015,0.19047 0.190439,0.98617 0.419522,1.76824 0.903172,3.08334 1.028896,4.00997 0.71718,5.28593 -0.264792,1.08388 -0.260307,1.17903 0.06371,1.35243 0.497172,0.26608 1.483141,0.22704 2.732023,-0.10818 0.594327,-0.15952 1.525085,-0.29108 2.068354,-0.29237 1.151309,-0.003 1.861072,-0.41195 1.861072,-1.07305 0,-0.47333 -0.327392,-0.69752 -1.018583,-0.69752 -0.218374,0 -0.820873,-0.23826 -1.338894,-0.52945 -0.906863,-0.50977 -0.95715,-0.58525 -1.353455,-2.03132 -0.330132,-1.20462 -0.396406,-1.9067 -0.334847,-3.54733 0.04218,-1.12501 0.08566,-2.53821 0.09655,-3.14045 0.01945,-1.07457 0.03891,-1.11052 1.046737,-1.93034 0.797643,-0.64886 1.135802,-1.10623 1.514586,-2.04857 0.483814,-1.203641 0.48772,-1.263801 0.495725,-7.627022 0.0075,-5.940465 -0.01842,-6.443073 -0.350619,-6.810155 -0.197271,-0.217981 -0.376579,-0.514599 -0.398463,-0.659151 -0.02191,-0.144552 -0.09564,-0.352001 -0.163907,-0.460995 -0.06824,-0.108994 -0.05161,-0.594495 0.03691,-1.078891 0.08858,-0.484397 0.13171,-0.928205 0.09584,-0.986242 -0.03587,-0.05804 -0.110865,-0.880259 -0.166662,-1.827163 l -0.10145,-1.72164 0.743342,0.548397 c 0.408836,0.301619 1.22988,1.107036 1.824552,1.789816 0.594672,0.682779 1.337775,1.402176 1.65134,1.598653 1.011803,0.63399 2.043662,1.756883 2.043662,2.22397 0,0.246301 0.265238,0.738223 0.589414,1.093149 0.324176,0.354933 0.589415,0.728282 0.589415,0.829672 0,0.101391 0.100766,0.184343 0.223929,0.184343 0.123162,0 0.330688,0.146004 0.46118,0.324458 0.208083,0.284568 0.310795,0.291889 0.83565,0.05955 0.329137,-0.145684 0.559793,-0.365529 0.512588,-0.488543 -0.04723,-0.123022 0.09192,-0.437166 0.309176,-0.698112 0.217254,-0.260939 0.397943,-0.363926 0.401537,-0.228845 0.0094,0.353485 0.531925,0.302894 0.673169,-0.0652 0.06557,-0.170932 0.119257,-0.56439 0.119257,-0.874363 0,-0.320811 0.140479,-0.642201 0.326121,-0.746091 0.291384,-0.163065 0.28061,-0.206865 -0.101101,-0.411151 -0.234978,-0.125756 -0.64697,-0.576737 -0.915543,-1.00218 -0.579256,-0.917602 -0.646072,-2.321686 -0.211335,-4.441082 0.427504,-2.084159 0.872207,-4.940056 1.005684,-6.458541 0.06646,-0.756415 0.222288,-1.72468 0.346215,-2.1517 l 0.225318,-0.776401 0.21207,1.071108 c 0.129801,0.655609 0.179754,2.709706 0.128762,5.295243 -0.139863,7.092799 -0.129853,7.726641 0.138118,8.74298 0.521595,1.978238 1.256494,3.783127 3.020704,7.41876 0.622836,1.283516 1.129716,2.598131 1.129716,2.929963 0,0.661622 -0.52114,3.642175 -0.80378,4.597055 -0.0982,0.33186 -0.17859,0.849161 -0.17859,1.149571 0,0.30042 -0.481814,2.01817 -1.070708,3.81726 -1.747681,5.33918 -2.424734,7.54702 -2.569572,8.3793 -0.07523,0.43223 -0.276481,1.00691 -0.447242,1.27706 -0.559303,0.88485 -1.009129,4.59217 -0.640718,5.28055 0.212568,0.3972 0.176122,0.39072 3.99148,0.71002 1.75544,0.0256 1.69291,0.0977 3.24178,0.0799 0.837452,-0.0111 1.795602,-0.0854 2.129212,-0.16511 z M 72.369956,63.123334 c -0.528412,-0.870946 -0.831803,-4.862669 -0.369584,-4.862669 0.24556,0 0.260375,0.113545 0.08806,0.674992 -0.245292,0.799242 0.01849,1.600095 0.77678,2.358397 0.471784,0.471778 0.480249,0.524872 0.235825,1.478581 -0.139447,0.544077 -0.273815,0.989231 -0.298602,0.989231 -0.0248,0 -0.219407,-0.28734 -0.432479,-0.638532 z"
       id="path3732" />
  </g>
</svg>
