<?xml version="1.0" encoding="UTF-8" standalone="no"?>
<!-- Created with Inkscape (http://www.inkscape.org/) -->

<svg
   width="59.747959mm"
   height="102.71645mm"
   viewBox="0 0 59.747961 102.71645"
   version="1.1"
   id="svg8"
   xmlns="http://www.w3.org/2000/svg"
   xmlns:svg="http://www.w3.org/2000/svg"
   xmlns:rdf="http://www.w3.org/1999/02/22-rdf-syntax-ns#"
   xmlns:cc="http://creativecommons.org/ns#"
   xmlns:dc="http://purl.org/dc/elements/1.1/">
  <defs
     id="defs2" />
  <metadata
     id="metadata5">
    <rdf:RDF>
      <cc:Work
         rdf:about="">
        <dc:format>image/svg+xml</dc:format>
        <dc:type
           rdf:resource="http://purl.org/dc/dcmitype/StillImage" />
      </cc:Work>
    </rdf:RDF>
  </metadata>
  <g
     id="layer1"
     transform="translate(-5.6181126,-60.89396)"
     style="display:inline">
    <path
       d="m 32.844176,60.89396 -0.0331,0.64492 c -0.0145,0.35486 -0.0442,1.42499 -0.0661,2.38125 l -0.0331,1.73633 -0.97565,-1.00873 c -1.12806,-1.17406 -1.27836,-1.22094 -1.27331,-0.41341 0.002,0.32742 0.46199,1.0963 1.017,1.71154 0.88885,0.98531 1.01368,1.2958 1.06659,2.6045 0.04,0.98804 -0.0376,1.42939 -0.22324,1.31467 -0.15355,-0.0949 -0.27284,-0.34428 -0.27284,-0.55399 0,-0.20971 -0.11906,-0.38034 -0.26458,-0.38034 -0.14552,0 -0.26458,-0.46098 -0.26458,-1.02526 0,-1.17432 -0.66615,-1.99498 -1.08316,-1.33945 -0.1329,0.20893 -0.18784,0.52004 -0.12402,0.69453 0.14098,0.38545 -0.6205,0.13419 -1.13273,-0.37206 -0.1923,-0.19004 -0.50224,-0.33898 -0.69453,-0.33898 -0.71562,0 -0.59841,0.74639 0.27283,1.74461 1.0363,1.18732 1.09234,1.42433 0.40513,1.60404 -0.33763,0.0883 -0.45349,0.29366 -0.3638,0.63664 0.14887,0.5693 0.85884,0.67079 1.33945,0.19017 0.36021,-0.36021 0.36936,-0.34129 0.42995,0.6532 0.0506,0.82997 0.005,0.84857 -0.90122,0.33073 -0.88691,-0.507 -1.05833,-0.49432 -1.05833,0.10748 0,0.28049 0.38695,0.81217 0.85989,1.18237 0.64521,0.50504 0.71694,0.63876 0.29766,0.52917 -0.36505,-0.0954 -0.61452,-3.2e-4 -0.71933,0.27284 -0.22778,0.59359 -0.41206,0.54451 -2.17455,-0.60357 -0.865,-0.56345 -1.7032,-0.97798 -1.86034,-0.91778 -0.55081,0.21102 -0.20111,1.22076 0.57049,1.64539 l 0.77722,0.42169 -0.71107,0.0827 c -0.38788,0.0463 -0.76748,0.24873 -0.84336,0.44649 -0.14843,0.38682 0.51308,0.76589 0.90951,0.52091 0.13238,-0.0818 0.24804,-0.0218 0.24804,0.13229 0,0.15411 0.20836,0.28617 0.46302,0.29766 0.33624,0.0152 0.35981,0.0589 0.0909,0.16536 -0.28048,0.11108 -0.22531,0.26103 0.23978,0.61185 l 0.62013,0.46302 -1.10794,0.19017 c -1.13988,0.19258 -1.39954,0.61783 -0.71935,1.18237 0.25633,0.21274 0.52681,0.23405 0.82682,0.0661 0.49901,-0.27926 1.43868,-0.12312 1.43868,0.23978 0,0.12855 0.23812,0.23978 0.52916,0.23978 0.29104,0 0.52917,-0.11906 0.52917,-0.26458 0,-0.14552 0.26789,-0.26116 0.59531,-0.25632 l 0.59531,0.008 -0.65317,0.53742 c -0.50747,0.42233 -0.57063,0.58688 -0.2894,0.76068 0.39716,0.24546 1.08291,0.066 1.42213,-0.37206 0.12274,-0.15849 0.15477,0.0403 0.0661,0.44649 -0.13219,0.60592 -0.0728,0.7276 0.37205,0.7276 0.29382,0 0.54248,-0.14883 0.55399,-0.33073 0.0143,-0.22569 0.0652,-0.21169 0.16536,0.0413 0.10716,0.27067 0.24082,0.19698 0.48784,-0.26458 l 0.33899,-0.63664 0.33073,0.7276 c 0.18184,0.39913 0.24675,0.81159 0.14056,0.91779 -0.1062,0.1062 -1.05471,0.23618 -2.10842,0.2894 -1.7631,0.089 -2.01864,0.0358 -3.1832,-0.70278 -1.15961,-0.73541 -2.00917,-0.85837 -2.00919,-0.28941 0,0.12531 0.32742,0.41725 0.7276,0.64493 l 0.72761,0.41341 -0.92604,-0.17363 c -0.91599,-0.16763 -2.45703,-0.96137 -3.13373,-1.62058 -0.19229,-0.18734 -0.57925,-0.33898 -0.8599,-0.33898 -0.53916,0 -0.67897,0.51165 -0.25631,0.9343 0.15874,0.15875 -0.24795,0.28678 -1.10794,0.33898 -0.74891,0.0455 -1.4623,0.14271 -1.57925,0.21497 -0.86997,0.53769 1.27381,1.51413 2.82787,1.28985 l 1.06659,-0.14883 -0.74414,0.42169 c -0.45056,0.2557 -0.71525,0.59791 -0.66146,0.86815 0.12878,0.64688 1.27196,0.43011 2.00091,-0.38034 0.33922,-0.37713 0.79796,-0.6242 1.05833,-0.56224 0.36513,0.0869 0.31785,0.17483 -0.23978,0.40513 -0.90098,0.37214 -1.17435,0.80749 -0.62838,1.01701 0.23587,0.0905 0.36959,0.31689 0.29765,0.50435 -0.0719,0.18746 0.0472,0.40759 0.25632,0.48784 0.2091,0.0803 0.38034,0.0413 0.38034,-0.0827 0,-0.21628 0.85495,-0.58695 1.49653,-0.6532 0.16879,-0.0174 0.55574,-0.26217 0.8599,-0.53742 0.30417,-0.27525 0.55398,-0.41164 0.55398,-0.30591 0,0.27464 -0.57819,0.81478 -1.26502,1.18237 -0.32443,0.17362 -0.58703,0.43381 -0.58706,0.57877 0,0.49906 0.81465,0.57653 1.31466,0.12403 0.47736,-0.43201 0.49348,-0.42828 0.35555,0.0992 -0.20189,0.77202 0.33965,0.69519 0.87643,-0.12403 0.33576,-0.51244 0.50038,-0.59293 0.66972,-0.33073 0.18386,0.28467 0.25905,0.28218 0.44648,-0.008 0.12548,-0.19444 0.45289,-0.3243 0.7276,-0.2894 1.06757,0.13566 2.47105,-0.81857 2.51355,-1.71154 0.0229,-0.48167 0.0492,-0.46731 0.21497,0.10749 0.1575,0.5461 0.0276,0.81108 -0.75242,1.5131 -0.51962,0.46768 -1.67913,1.23634 -2.57969,1.71153 l -1.63711,0.8599 -1.27331,-0.63664 c -0.70016,-0.3497 -1.42213,-0.65995 -1.60403,-0.69453 -0.47215,-0.0897 -0.40844,0.42135 0.13229,1.05833 0.41661,0.49078 0.41444,0.50414 0.008,0.19017 -0.24828,-0.19192 -0.55205,-0.28453 -0.67799,-0.2067 -0.12594,0.0778 -0.561,-0.029 -0.96737,-0.23978 -0.97454,-0.5056 -1.27855,-0.48075 -1.09966,0.0827 0.11857,0.37354 -0.006,0.4572 -0.64492,0.4382 -0.43567,-0.0129 -0.85395,-0.0933 -0.9343,-0.17363 -0.3221,-0.3221 -1.17409,0.15222 -1.17409,0.6532 0,0.40667 0.12859,0.49985 0.55399,0.38862 0.53115,-0.13889 0.53448,-0.12631 0.091,0.3638 -0.47895,0.52925 -0.4004,0.60214 0.60356,0.52092 0.46152,-0.0373 0.55722,0.0519 0.4217,0.40513 -0.143,0.37264 -0.0517,0.43545 0.49609,0.33073 0.54783,-0.10473 0.64143,-0.0421 0.53742,0.35554 -0.14136,0.5406 0.0262,0.59886 0.68628,0.24805 0.64868,-0.34478 1.46764,0.7503 0.9343,1.24851 -0.29843,0.27877 -0.38894,0.26774 -0.50435,-0.0331 -0.0792,-0.20627 -0.54798,-0.37737 -1.06659,-0.39687 -0.50869,-0.0191 -0.86445,0.0707 -0.7855,0.19843 0.079,0.12775 -0.0891,0.16712 -0.38034,0.091 -0.6682,-0.17474 -0.68886,0.22709 -0.0331,0.63664 0.34714,0.21679 0.45477,0.50805 0.3638,0.98393 -0.16003,0.83717 -0.20034,0.84415 -1.17408,0.0248 -0.43236,-0.3638 -0.9587,-0.66146 -1.16581,-0.66146 -0.44347,0 -0.46604,0.12986 -0.12403,0.76893 0.27766,0.5188 0.10348,0.53129 -1.90169,0.14883 -0.65344,-0.12464 -0.99219,-0.0899 -0.99219,0.0992 0,0.34256 1.37385,1.09966 2.00092,1.09966 0.36168,0 0.3829,0.0667 0.11575,0.38862 -0.26286,0.31673 -0.25358,0.42619 0.0579,0.5457 0.21296,0.0817 0.49752,0.12369 0.62838,0.0992 0.55267,-0.10335 0.89689,0.0466 0.83508,0.35555 -0.0406,0.20305 0.21475,0.32324 0.66146,0.31419 0.55986,-0.0113 0.72911,0.11067 0.73586,0.52917 0.008,0.52239 0.0294,0.51726 0.52917,-0.0827 0.41306,-0.49583 0.52091,-0.53261 0.52091,-0.1819 0,0.24299 0.11878,0.37121 0.26458,0.28112 0.1458,-0.0901 0.37783,0.14461 0.52091,0.52091 0.14309,0.3763 0.44101,0.75049 0.66146,0.83508 0.22045,0.0846 0.40516,0.31818 0.40513,0.52091 -3e-5,0.20272 0.19133,0.37205 0.42995,0.37205 0.23862,0 0.58415,0.20203 0.76893,0.45477 0.31673,0.43318 0.37542,0.42937 0.95912,-0.0662 l 0.62013,-0.52091 -0.47128,0.55399 c -0.2848,0.33819 -1.16718,0.7231 -2.28203,0.99218 -2.33008,0.5624 -2.89295,0.54476 -3.84466,-0.0827 -0.88159,-0.58115 -1.31175,-0.47344 -1.07487,0.27284 0.13299,0.41902 0.0318,0.51263 -0.59531,0.51263 -0.41728,0 -0.87919,-0.11852 -1.02526,-0.26458 -0.17771,-0.17771 -0.43487,-0.14286 -0.77722,0.10748 -0.49122,0.3592 -0.47932,0.39254 0.33899,0.8599 0.6169,0.35235 0.81224,0.62 0.70278,0.96737 -0.0975,0.30956 -0.0216,0.46109 0.20671,0.42995 0.76607,-0.10449 1.06317,0.0263 0.91779,0.40513 -0.25384,0.66148 0.71207,0.977 1.44695,0.47127 0.48207,-0.33173 0.55332,-0.34747 0.31419,-0.0496 -0.44683,0.55661 -0.0172,1.13843 0.678,0.91779 1.00195,-0.318 1.27198,0.1907 0.2894,0.5457 -1.26217,0.45601 -2.52124,0.44704 -2.99297,-0.0248 -0.52192,-0.52191 -1.33231,-0.52832 -1.13273,-0.008 0.12349,0.32181 -0.0608,0.36483 -1.03352,0.23151 -1.42348,-0.19511 -1.60176,0.24477 -0.2894,0.71935 0.63656,0.23018 0.86175,0.45394 0.77721,0.77721 -0.14128,0.54028 0.69438,0.84058 1.33946,0.47956 0.35094,-0.1964 0.43823,-0.11979 0.4382,0.40513 0,0.53641 0.0968,0.62822 0.57049,0.50435 0.46795,-0.12237 0.5361,-0.0702 0.38862,0.31419 -0.14458,0.37677 -0.0707,0.45045 0.35555,0.33898 0.29321,-0.0767 0.53745,-0.0327 0.53742,0.0992 0,0.46363 0.55968,0.23124 1.26503,-0.52091 0.84963,-0.90596 1.35263,-1.10614 1.97612,-0.78549 0.72472,0.37274 0.54353,0.67402 -0.33073,0.5457 -0.9112,-0.13374 -1.04553,0.26929 -0.38862,1.20716 0.3842,0.54851 0.38248,0.58706 -0.10749,0.58706 -0.2889,0 -0.70776,0.17859 -0.92604,0.39687 -0.21828,0.21828 -0.57367,0.39688 -0.79375,0.39688 -0.22008,0 -0.46969,0.11168 -0.55398,0.24804 -0.0843,0.13637 -0.61675,0.23932 -1.18237,0.23152 -0.56563,-0.008 -1.18259,0.081 -1.37253,0.19843 -0.18994,0.1174 -0.73104,0.18861 -1.19888,0.1571 -0.70451,-0.0474 -0.86352,0.0469 -0.9343,0.5457 -0.0615,0.43334 -0.26823,0.60775 -0.74414,0.62839 -0.3638,0.0158 -0.78052,0.0619 -0.92604,0.0992 -0.14552,0.0374 -0.47294,0.0424 -0.7276,0.0165 -0.25466,-0.0259 -0.46302,0.0586 -0.46302,0.1819 0,0.35076 1.46423,1.13274 2.12492,1.13274 0.57875,0 0.58944,0.0149 0.12402,0.52916 -0.46733,0.51639 -0.46244,0.52917 0.21498,0.52917 0.51842,0 0.65502,0.0987 0.53742,0.40513 -0.12835,0.33446 -0.0168,0.37796 0.60356,0.23151 0.4186,-0.0988 0.82021,-0.17505 0.89297,-0.17363 0.82516,0.0162 1.01696,0.10682 0.89297,0.42995 -0.27633,0.72009 0.40899,0.6999 0.80201,-0.0248 0.37412,-0.68988 0.39521,-0.69898 0.40513,-0.14056 0.006,0.32742 0.10583,0.60417 0.21497,0.62013 1.61668,0.23631 1.8819,0.15794 2.20763,-0.62839 l 0.33073,-0.79375 0.23151,0.62839 0.23151,0.63664 0.51263,-0.66146 c 0.50747,-0.66053 0.50676,-0.6613 0.51263,-0.0661 0.008,0.80283 0.47961,0.75724 0.68628,-0.0661 0.0913,-0.36381 0.28334,-0.66146 0.42169,-0.66146 0.13835,0 0.16571,0.12831 0.0661,0.2894 -0.12647,0.20463 0.0784,0.23919 0.67799,0.10749 0.63667,-0.13984 0.83521,-0.10782 0.75242,0.14056 -0.16256,0.48768 -1.81967,1.31466 -2.63757,1.31466 -0.38688,0 -0.75708,0.14883 -0.82683,0.33073 -0.0779,0.20329 -0.5951,0.31893 -1.34773,0.30591 -0.67342,-0.0116 -1.2237,0.0715 -1.2237,0.1819 0,0.50922 0.91832,1.06018 1.64539,0.98393 0.43207,-0.0453 0.80526,0.022 0.82682,0.1571 0.0703,0.44066 -1.48087,0.68852 -5.25039,0.83508 -4.24788,0.16518 -5.95312,0.3512 -5.95312,0.63664 0,0.11005 -0.29766,0.14395 -0.66146,0.0744 -0.37574,-0.0718 -0.66146,-0.005 -0.66146,0.1571 0,0.37086 0.86439,0.83507 1.56268,0.83507 0.30062,0 0.55399,0.11907 0.55399,0.26459 0,0.14552 -0.12952,0.26458 -0.28112,0.26458 -0.15161,0 -0.53856,0.24586 -0.8599,0.55399 l -0.57877,0.56224 0.85989,-0.11576 c 0.5688,-0.0777 0.8599,-0.009 0.8599,0.20671 0,0.19602 0.21126,0.27331 0.52916,0.19017 0.29586,-0.0774 0.52917,-0.008 0.52917,0.15709 0,0.4273 0.67305,0.36502 1.05833,-0.0992 0.18116,-0.21828 0.44506,-0.39687 0.59532,-0.39687 0.15025,0 0.0837,0.21343 -0.1571,0.47956 -0.24084,0.26612 -0.4382,0.56377 -0.4382,0.66145 0,0.28044 1.00912,0.21101 1.19062,-0.0827 0.26194,-0.42381 0.61233,-0.30702 0.79375,0.26458 0.21246,0.66943 0.5144,0.66517 1.47175,-0.0165 l 0.76893,-0.54571 -0.16537,0.81029 c -0.19923,0.99618 0.28155,1.07667 1.35599,0.23151 0.70583,-0.5552 0.72565,-0.55467 0.44649,-0.0331 -0.32869,0.61415 -0.17054,0.90593 0.38034,0.69453 0.2059,-0.079 0.5525,0.002 0.76893,0.1819 0.27337,0.22688 0.39687,0.23939 0.39687,0.0331 0,-0.16333 0.1786,-0.29765 0.39688,-0.29765 0.21828,0 0.39687,0.16371 0.39687,0.37205 0,0.25685 0.23428,0.35354 0.72761,0.29766 2.75431,-0.31189 -0.80799,1.28971 -4.01003,1.80248 -2.09341,0.33522 -2.30346,0.32242 -2.99296,-0.1323 -0.40759,-0.26873 -0.88469,-0.48686 -1.06659,-0.48784 -0.54727,-0.003 -0.37256,0.52684 0.26458,0.80201 0.43712,0.18878 0.2789,0.20899 -0.59531,0.0744 -0.65484,-0.1008 -1.48828,-0.16697 -1.85208,-0.14882 -0.36381,0.0181 -1.25188,-0.13879 -1.96784,-0.34727 -0.71597,-0.20848 -1.34163,-0.3451 -1.38907,-0.29766 -0.27606,0.27607 1.41783,1.36711 2.36472,1.52136 l 1.12448,0.1819 -0.99219,0.0331 c -0.69083,0.0231 -0.99219,0.15362 -0.99219,0.42995 0,0.21828 0.20836,0.41606 0.46302,0.4382 0.25466,0.0221 0.58209,0.0654 0.72761,0.0992 0.14552,0.0338 0.43518,0.0742 0.64492,0.091 0.28062,0.0225 0.24537,0.129 -0.13229,0.40513 -0.65384,0.4781 -0.34333,0.82167 0.38862,0.42995 0.4554,-0.24373 0.55398,-0.21854 0.55398,0.14056 0,0.33933 0.18932,0.40849 0.8599,0.31419 0.47294,-0.0665 1.09802,-0.20738 1.38906,-0.31419 0.5216,-0.19143 0.51451,-0.18925 0.008,0.22324 -0.51557,0.42011 -0.40508,0.51742 0.45476,0.42995 0.26356,-0.0268 0.46302,0.1367 0.46302,0.37206 0,0.56594 0.21424,0.51919 0.84336,-0.1819 l 0.53742,-0.59532 -0.42994,0.71935 c -0.2341,0.39508 -0.42167,0.83871 -0.4217,0.99219 0,0.40902 1.298,0.10703 1.91823,-0.44648 0.5198,-0.4639 0.52374,-0.4553 0.32248,0.19016 -0.2797,0.89692 -0.60452,1.08641 -3.04271,1.81902 -2.02528,0.60854 -2.14747,0.6161 -3.24115,0.19843 -1.19213,-0.45529 -2.83607,-0.58507 -2.83607,-0.22324 0,0.11642 0.13843,0.36169 0.3142,0.53742 0.21486,0.21487 -0.13886,0.18121 -1.08316,-0.0992 -0.77242,-0.22938 -1.58525,-0.3511 -1.81075,-0.26458 -0.34579,0.13269 -0.31451,0.26427 0.19844,0.81029 l 0.60356,0.64492 -0.89297,-0.25632 c -1.15106,-0.33012 -2.54952,-0.32972 -2.75325,0 -0.21032,0.34031 1.55914,1.06495 2.60451,1.06659 h 0.83507 l -0.77721,0.62013 c -0.76719,0.61386 -0.75983,1.41923 0.008,1.12448 0.25549,-0.098 0.37208,0.0617 0.37205,0.51263 0,0.46871 0.13819,0.6532 0.50435,0.6532 0.28064,0 0.69474,0.18211 0.91779,0.40513 0.33665,0.33666 0.49474,0.34582 0.94258,0.0661 0.29667,-0.18528 0.5457,-0.42693 0.5457,-0.53742 0,-0.11049 0.20855,0.01 0.47128,0.26458 0.50662,0.49104 0.651,1.12448 0.25631,1.12448 -0.12986,0 -0.14917,0.12831 -0.0496,0.2894 0.12584,0.20363 -0.0701,0.24202 -0.64492,0.11576 -0.52758,-0.11588 -0.82682,-0.083 -0.82682,0.0992 0,0.1621 -0.51483,0.2894 -1.19063,0.2894 -1.23989,0 -1.47391,0.22926 -0.79375,0.79375 0.26498,0.21991 0.82473,0.27826 1.65365,0.17363 l 1.25677,-0.1571 -0.98393,0.52092 c -0.68326,0.36226 -0.93626,0.64912 -0.82683,0.93429 0.0984,0.25641 0.31906,0.34243 0.58706,0.23151 0.23588,-0.0976 0.60854,-0.20441 0.82682,-0.23978 0.21828,-0.0354 0.24805,-0.0129 0.0661,0.0496 -0.67019,0.23044 -0.32406,0.6553 0.39687,0.48784 0.5207,-0.12095 0.61754,-0.0939 0.33899,0.091 -0.69998,0.46443 -0.0783,0.59923 0.76067,0.16537 0.45009,-0.23275 0.81857,-0.31076 0.81857,-0.17364 0,0.13713 -0.14882,0.30711 -0.33073,0.37206 -0.1819,0.065 -0.23871,0.21651 -0.12402,0.33899 0.11469,0.12247 0.54737,0.0924 0.96737,-0.0661 0.62555,-0.23612 0.74448,-0.21987 0.62839,0.0827 -0.10217,0.26623 -0.008,0.31576 0.34726,0.19017 0.41286,-0.14606 0.43921,-0.11147 0.14883,0.19844 -0.27067,0.28884 -1.18168,0.35809 -4.16719,0.31419 -2.31013,-0.034 -3.81979,0.0445 -3.82005,0.19844 0,0.14005 0.18474,0.25632 0.41341,0.25631 0.22867,0 0.58134,0.16793 0.78549,0.37206 0.31851,0.31851 0.31197,0.3936 -0.0413,0.52917 -0.22644,0.0869 -0.78745,0.15487 -1.24851,0.15709 -0.97208,0.005 -1.63928,0.34949 -1.4056,0.72761 0.28868,0.46709 1.60173,0.55203 2.68711,0.17363 1.44713,-0.50448 1.5255,-0.47545 0.77721,0.27284 -0.93305,0.93305 -0.86508,1.49558 0.14056,1.20716 0.43183,-0.12384 0.90808,-0.304 1.05833,-0.39687 0.15026,-0.0929 0.28374,0.0509 0.30591,0.31419 0.0222,0.26325 0.0583,0.61386 0.0744,0.78549 0.0161,0.17164 0.10949,0.39889 0.2067,0.4961 0.20856,0.20856 1.80248,-0.68369 1.80248,-1.00873 0,-0.12273 0.10809,-0.15264 0.24804,-0.0661 0.16291,0.10068 0.16291,0.39833 0,0.82682 -0.13995,0.36812 -0.24804,0.78835 -0.24804,0.9343 0,0.3497 1.25034,-0.5556 2.50528,-1.81076 0.93613,-0.93628 1.06998,-0.77623 0.19844,0.23978 -0.21379,0.24924 -0.30919,0.65574 -0.21497,0.90122 0.15217,0.39656 0.23943,0.37394 0.84336,-0.19016 l 0.68627,-0.62839 -0.0909,0.66146 c -0.0839,0.60735 -0.26406,0.68712 -2.20763,1.00872 -1.3658,0.226 -2.26012,0.26083 -2.52179,0.0992 -0.66323,-0.40957 -2.10839,-0.65273 -2.10842,-0.35555 0,0.14697 0.20837,0.32354 0.46303,0.38862 0.25465,0.0651 -0.13229,0.0639 -0.8599,0 -1.0637,-0.0935 -1.25809,-0.0534 -0.99219,0.21498 0.50591,0.51062 0.39251,0.70051 -0.33073,0.56224 -0.85518,-0.16348 -2.0556,0.14201 -1.85208,0.47127 0.0873,0.14126 0.42974,0.25632 0.76068,0.25632 1.13096,0 0.97208,0.36414 -0.40513,0.91779 -2.34749,0.94366 -1.83529,1.64547 0.57877,0.79374 1.22187,-0.43111 1.69971,-0.35639 0.80201,0.12403 -0.30351,0.16243 -0.54571,0.48212 -0.54571,0.71107 0,0.31914 0.16026,0.37594 0.70279,0.23977 0.62442,-0.15672 0.6713,-0.13073 0.3638,0.23978 -0.71294,0.85905 0.0431,0.86104 1.2237,0 0.5511,-0.40193 0.57335,-0.39819 0.42169,0.19017 -0.14225,0.55179 -0.11364,0.57865 0.2894,0.24805 0.39791,-0.32639 0.42479,-0.31139 0.26459,0.13229 -0.15815,0.43797 -0.0957,0.42389 0.47956,-0.0992 0.674,-0.6129 1.08852,-0.56121 0.83507,0.0992 -0.20212,0.52673 0.43207,0.45665 1.43868,-0.1571 0.47918,-0.29217 0.85989,-0.39277 0.85989,-0.23151 0,0.1792 0.27702,0.22597 0.72761,0.12403 0.49233,-0.11139 0.59928,-0.0877 0.33072,0.0744 -0.21828,0.13175 -1.05171,0.3723 -1.85208,0.53742 -1.7231,0.35555 -2.25822,0.64514 -1.99263,1.07487 0.18241,0.29515 0.53814,0.26309 2.12492,-0.16536 0.40529,-0.10944 0.3279,0.0586 -0.33073,0.69453 -0.47294,0.45667 -0.85989,0.88564 -0.85989,0.95911 0,0.2629 1.47108,-0.0637 2.3151,-0.51263 0.92745,-0.49331 1.07016,-0.34234 0.45477,0.47128 -0.53737,0.71046 -0.48572,1.02367 0.14056,0.8599 0.34393,-0.0899 0.52916,-0.002 0.52916,0.23977 0,0.49491 0.24224,0.46803 0.8599,-0.091 0.48837,-0.44196 0.51035,-0.4391 0.42169,0.0661 -0.14168,0.8073 1.32628,0.56388 2.10841,-0.34727 l 0.61185,-0.71106 -0.17363,0.85989 c -0.22977,1.13795 0.43439,1.16779 1.46346,0.0661 0.40781,-0.43656 0.77605,-0.79386 0.82683,-0.79375 0.0508,1e-4 0.1104,0.30795 0.13229,0.68627 0.0602,1.04037 0.49128,1.32096 1.0418,0.678 0.43465,-0.50763 0.49694,-0.51745 0.81856,-0.0992 0.31843,0.41407 0.35441,0.40775 0.50435,-0.12402 0.097,-0.34396 0.30647,-0.52049 0.52091,-0.43821 0.22818,0.0876 0.42429,-0.11974 0.53743,-0.57049 0.12259,-0.48847 0.24574,-0.61148 0.38862,-0.38034 0.1143,0.18496 0.4555,0.3751 0.76067,0.42169 0.43093,0.0658 0.6839,-0.17582 1.13274,-1.09966 0.57967,-1.19314 1.19126,-1.6534 0.87643,-0.66146 -0.2034,0.64085 -0.0504,0.65773 0.802,0.0992 0.35867,-0.23502 0.66112,-0.68151 0.678,-0.99218 0.0245,-0.45199 0.0598,-0.47229 0.1571,-0.0992 0.20102,0.77065 0.6115,0.23566 0.62013,-0.81029 0.006,-0.79177 0.0542,-0.88802 0.27283,-0.51263 0.14833,0.25466 0.51766,0.46302 0.81857,0.46302 0.52134,0 0.54166,0.0966 0.37206,2.05052 -0.1185,1.36533 -0.39611,2.47904 -0.82682,3.33216 -0.25219,0.49948 -0.46395,0.94425 -0.5705,1.19063 h 6.58151 c 0.29181,-0.23361 0.16049,-0.64376 -0.14056,-1.36425 -0.46918,-1.12294 -0.65013,-3.41577 -0.28112,-3.5388 0.14421,-0.0481 0.4689,0.26485 0.72761,0.70279 0.48231,0.81648 1.07532,1.11736 0.802,0.40513 -0.31252,-0.81439 0.17966,-0.36846 0.53742,0.48784 0.28554,0.68339 0.51422,0.88744 0.99219,0.85164 0.34285,-0.0257 0.79489,0.0776 1.00044,0.23151 0.26797,0.20069 0.4037,0.1922 0.47956,-0.0331 0.0703,-0.20866 0.27969,-0.142 0.62013,0.19843 0.68104,0.68104 1.0201,0.64834 0.8599,-0.0827 -0.0763,-0.34787 -0.0384,-0.48009 0.091,-0.31419 0.30501,0.39111 1.14929,0.67569 1.14929,0.38862 0,-0.2671 1.46045,-0.1725 2.22414,0.14056 0.40196,0.16477 0.47628,0.11297 0.34727,-0.22324 -0.0898,-0.23415 -0.0249,-0.47348 0.14883,-0.53743 0.24126,-0.0888 0.24434,-0.20352 -0.008,-0.47127 -0.6006,-0.63662 -0.35173,-0.71887 0.63664,-0.21498 1.0926,0.55706 1.39743,0.4753 0.86815,-0.22324 -0.28315,-0.37369 -0.28707,-0.40394 -0.008,-0.15709 0.19262,0.17053 0.51051,0.25059 0.71107,0.17363 0.20055,-0.077 0.37208,-0.0341 0.37205,0.0992 -2e-5,0.13328 0.16127,0.46715 0.36381,0.74414 0.31728,0.43392 0.43357,0.4532 0.81028,0.14056 0.37979,-0.3152 0.48657,-0.27668 0.8599,0.25631 l 0.42995,0.61185 0.23977,-0.63664 c 0.22097,-0.59158 0.2618,-0.60319 0.57878,-0.17363 0.41881,0.56758 0.606,0.57637 1.12448,0.0579 0.32253,-0.32253 0.34057,-0.483 0.0827,-0.79375 -0.17779,-0.21423 -0.24452,-0.3886 -0.14883,-0.38862 0.0957,-3e-5 0.0366,-0.26789 -0.13229,-0.59532 -0.25702,-0.49826 -0.16046,-0.46921 0.58706,0.20671 1.64656,1.48886 1.75514,1.5439 2.22414,1.07487 0.23361,-0.23361 0.33123,-0.56782 0.22324,-0.75242 -0.11055,-0.189 0.0254,-0.15748 0.3142,0.0744 1.39861,1.12297 2.81463,1.34398 1.86033,0.2894 -0.43087,-0.47611 -0.4165,-0.51324 0.27284,-0.68627 l 0.71935,-0.1819 -0.77721,-0.62839 c -1.01629,-0.83074 -0.47287,-0.8328 0.98393,0 0.63331,0.36206 1.30638,0.65971 1.48828,0.66146 0.53401,0.005 0.37989,-0.41677 -0.26458,-0.72761 -0.53581,-0.2584 -0.49525,-0.28979 0.47127,-0.30591 0.59066,-0.01 1.30503,-0.19148 1.5875,-0.40513 0.48864,-0.36957 0.48234,-0.38854 -0.27283,-0.39687 -1.13321,-0.0125 -5.16335,-0.74626 -6.00287,-1.09141 -1.02825,-0.42285 -1.22314,-1.06992 -0.20671,-0.68627 0.89178,0.3366 1.34279,0.0584 0.68628,-0.4217 -0.38105,-0.27863 -0.25825,-0.31189 0.75242,-0.23151 1.29016,0.10261 1.56504,-0.22261 0.60357,-0.71107 -0.51509,-0.26168 -0.42773,-0.29477 0.69453,-0.23977 1.51434,0.0742 1.94117,-0.42355 0.63664,-0.74414 l -0.86815,-0.21498 0.8599,-0.0992 c 1.00695,-0.12018 1.09579,-0.39237 0.26458,-0.81856 -0.48631,-0.24933 -0.28038,-0.28321 1.12448,-0.16537 1.5835,0.13285 1.67177,0.11169 1.19888,-0.26458 -0.28247,-0.22477 -0.72102,-0.40513 -0.97565,-0.40513 -0.25464,0 -0.53896,-0.13132 -0.63664,-0.2894 -0.1113,-0.18009 0.0548,-0.27245 0.44648,-0.23978 1.10551,0.0922 1.81901,0.005 1.81901,-0.23151 0,-0.12672 -0.83875,-0.31274 -1.86034,-0.41341 -1.02158,-0.10068 -1.80072,-0.2793 -1.72804,-0.39688 0.0727,-0.11758 0.83513,-0.37147 1.69497,-0.56224 1.6219,-0.35981 2.64848,-0.89844 2.32336,-1.2237 -0.1662,-0.1662 -1.63849,0.0737 -3.60495,0.59532 -0.60423,0.16027 -0.58886,0.11051 0.23978,-0.60357 1.36353,-1.17507 0.59399,-1.2959 -1.37253,-0.21498 -1.97453,1.08535 -3.10515,1.17396 -5.29166,0.4217 -2.48113,-0.85363 -6.50531,-2.8964 -6.80482,-3.45599 -0.37092,-0.69305 -0.16012,-0.67249 0.51263,0.0496 0.2967,0.31848 0.5457,0.48181 0.5457,0.3638 0,-0.118 0.1786,-0.0654 0.39688,0.11576 0.32792,0.27215 0.39687,0.24675 0.39687,-0.14883 0,-0.39862 0.13543,-0.34933 0.82683,0.29765 l 0.82682,0.77722 -0.1571,-0.85164 c -0.15843,-0.83963 -0.14779,-0.84805 0.56224,-0.54571 0.3955,0.16841 0.89794,0.44384 1.11623,0.61185 1.02592,0.78965 1.14498,0.77219 0.95911,-0.15709 -0.1404,-0.702 -0.113,-0.82407 0.14056,-0.5705 0.46043,0.46043 1.54617,0.40825 1.54617,-0.0744 0,-0.49303 0.42725,-0.51784 0.71107,-0.0413 0.11637,0.19537 0.5424,0.56062 0.94258,0.81856 0.60015,0.38683 0.7276,0.40132 0.7276,0.0827 0,-0.21247 -0.23812,-0.59651 -0.52916,-0.8599 -0.29105,-0.26339 -0.52917,-0.60518 -0.52917,-0.75242 0,-0.14724 0.067,-0.1893 0.15709,-0.0992 0.0901,0.0901 0.35177,-0.021 0.57878,-0.24805 0.28641,-0.28641 0.71641,-0.37356 1.4056,-0.28112 0.68559,0.092 1.03875,0.0217 1.13273,-0.22324 0.10373,-0.2703 0.34444,-0.298 1.00873,-0.10749 2.33352,0.66924 2.76304,-0.0936 0.51263,-0.9095 -1.52136,-0.55155 -1.71379,-0.83018 -0.2894,-0.42169 1.81025,0.51916 4.16507,0.12614 3.16679,-0.52917 -0.21828,-0.14329 -0.93265,-0.27821 -1.5875,-0.29766 -1.01097,-0.03 -1.07711,-0.0565 -0.42169,-0.19843 0.42455,-0.0919 0.82508,-0.33338 0.89297,-0.53743 0.10314,-0.30996 -0.31438,-0.34504 -2.56315,-0.19017 -2.64795,0.18238 -2.69028,0.18237 -2.36471,-0.33898 0.48458,-0.77594 0.15164,-0.91032 -1.16581,-0.46302 -0.71229,0.24183 -1.6265,0.34338 -2.33992,0.25631 -1.52953,-0.18668 -6.59051,-1.88253 -7.18503,-2.40606 -0.62156,-0.54719 -0.58655,-0.92649 0.0661,-0.71935 0.29673,0.0942 0.52916,0.0462 0.52916,-0.10749 0,-0.28694 0.39632,-0.20443 1.7198,0.37206 0.43656,0.19016 1.3948,0.35152 2.1332,0.35555 0.7384,0.004 1.45277,0.0321 1.5875,0.0579 0.61934,0.11843 0.68461,-0.0624 0.22324,-0.61185 -0.33173,-0.39505 -0.22769,-0.35054 0.30591,0.1323 0.91517,0.82811 1.17409,0.89709 1.17409,0.32247 0,-0.34925 0.0852,-0.34711 0.678,0.0413 0.39923,0.26159 0.75726,0.3438 0.85989,0.19844 0.0967,-0.13698 0.53229,-0.4036 0.96737,-0.59531 0.75951,-0.3347 0.77166,-0.36063 0.28112,-0.71935 -0.59902,-0.43802 -0.44659,-0.47416 0.49609,-0.11576 0.51232,0.19478 0.68628,0.17637 0.68628,-0.0827 0,-0.20917 0.67157,-0.48406 1.71979,-0.70279 0.94589,-0.19738 1.71979,-0.46715 1.71979,-0.59531 0,-0.12816 0.11196,-0.15537 0.25632,-0.0662 0.14436,0.0892 0.47384,0.0428 0.7276,-0.0992 0.40336,-0.22573 0.36706,-0.28589 -0.27283,-0.44649 -0.55182,-0.13849 -0.69327,-0.3007 -0.57878,-0.66146 0.11236,-0.35401 -0.006,-0.49612 -0.45477,-0.56224 -0.42844,-0.0631 -0.12413,-0.24886 1.0418,-0.62013 1.80684,-0.57531 2.25324,-1.09601 0.66971,-0.78549 -1.46214,0.28673 -5.09323,0.35197 -5.09323,0.0909 0,-0.1239 0.11907,-0.22324 0.26459,-0.22324 0.14552,-1e-5 0.26458,-0.12033 0.26458,-0.26459 0,-0.14426 -0.56555,-0.25386 -1.25677,-0.23978 -1.73604,0.0354 -4.51141,-0.54496 -4.67995,-0.98393 -0.0948,-0.247 0.0763,-0.3638 0.52091,-0.3638 0.35923,0 0.65321,-0.11536 0.65321,-0.25632 0,-0.14095 0.17859,-0.19124 0.39687,-0.10748 0.21828,0.0838 0.39688,0.0122 0.39688,-0.1571 0,-0.20294 0.19944,-0.164 0.58705,0.10749 0.32343,0.22653 0.88895,0.41 1.25677,0.40513 l 0.66972,-0.008 -0.61185,-0.51263 -0.60357,-0.50435 1.26503,-0.0827 1.2733,-0.091 -0.92604,-0.44648 -0.92604,-0.44649 0.81029,-0.008 c 0.51636,-0.007 1.04436,-0.25001 1.43867,-0.66972 0.34179,-0.3638 0.74332,-0.66145 0.90122,-0.66145 0.15791,0 0.44456,-0.2431 0.62839,-0.53743 0.48374,-0.77459 -0.13242,-0.92987 -1.65365,-0.41341 -1.64049,0.55698 -1.98048,0.54155 -1.81075,-0.10748 0.16714,-0.63916 0.12361,-0.64268 -1.53789,-0.0992 -1.26392,0.41341 -1.39539,0.40137 -3.41472,-0.17364 -2.72335,-0.77544 -3.42132,-1.5018 -1.32291,-1.3808 0.21615,0.0125 0.47638,-0.1072 0.57877,-0.27284 0.13023,-0.21071 0.34941,-0.16115 0.71935,0.17363 0.41463,0.37523 0.76121,0.44006 1.60404,0.29766 1.2024,-0.20315 1.27688,-0.30372 0.61185,-0.85164 -0.47578,-0.39201 -0.30015,-0.37973 0.83508,0.0744 0.4065,0.16262 0.47471,0.11389 0.33898,-0.23978 -0.12524,-0.32636 -0.0244,-0.4382 0.38034,-0.4382 0.36846,0 0.50292,-0.12553 0.40513,-0.38034 -0.0802,-0.20888 -0.008,-0.4396 0.16536,-0.51263 0.22177,-0.0932 0.19162,-0.24469 -0.11575,-0.49609 -0.40172,-0.32856 -0.38537,-0.4055 0.19844,-0.96737 0.95313,-0.91737 0.7761,-1.10924 -0.62014,-0.66146 -3.47212,1.1136 -4.7453,1.18001 -5.59752,0.27284 -0.48297,-0.51409 -0.5112,-0.65403 -0.19017,-0.77722 0.21557,-0.0827 0.74901,-0.0179 1.19063,0.14883 1.13085,0.42685 1.37255,10e-4 0.42994,-0.76067 -0.66095,-0.53433 -0.70522,-0.6335 -0.26458,-0.59532 0.92549,0.0802 1.45521,-0.025 1.45521,-0.29765 0,-0.14552 -0.20836,-0.27189 -0.46302,-0.28112 -0.37497,-0.0136 -0.36134,-0.0653 0.091,-0.24805 0.30718,-0.12412 0.6296,-0.41111 0.71935,-0.64492 0.14124,-0.36809 0.0886,-0.38479 -0.4217,-0.0992 -0.92286,0.51652 -6.43704,0.43765 -7.59856,-0.10749 -0.81196,-0.38108 -0.85498,-0.43582 -0.30592,-0.45476 0.50123,-0.0173 0.6037,-0.12744 0.48784,-0.5705 -0.12984,-0.49649 -0.10116,-0.51541 0.29766,-0.17363 0.57975,0.49681 1.37253,0.77422 1.37253,0.47956 0,-0.12733 0.23812,-0.17534 0.52916,-0.0992 0.29586,0.0774 0.52917,0.008 0.52917,-0.1571 0,-0.16249 0.29765,-0.2894 0.66146,-0.2894 0.87945,0 0.83587,-0.26316 -0.1819,-1.09966 l -0.85164,-0.69453 1.41388,0.22324 c 1.45817,0.23051 1.98889,0.13462 1.71153,-0.31419 -0.27101,-0.4385 0.43992,-1.02526 1.24024,-1.02526 0.90154,0 1.02613,-0.43691 0.17363,-0.62013 -0.33816,-0.0727 -0.19531,-0.1191 0.33073,-0.0992 0.60198,0.0227 0.90289,-0.0716 0.85989,-0.28112 -0.0364,-0.17728 0.0599,-0.32248 0.22325,-0.32248 0.19976,0 0.1897,-0.13501 -0.0413,-0.41341 -0.21906,-0.26395 -0.5909,-0.36965 -1.02526,-0.28112 -0.3746,0.0763 -0.52917,0.0791 -0.34727,0 0.61076,-0.26564 0.34031,-0.68932 -0.33073,-0.52091 -0.53655,0.13467 -0.61912,0.0825 -0.47956,-0.28112 0.12481,-0.32525 0.0704,-0.38431 -0.19017,-0.22324 -0.19548,0.12081 -0.65857,0.2418 -1.03351,0.27284 -0.37494,0.031 -0.97565,0.13891 -1.33945,0.23978 l -0.66146,0.1819 0.7276,-0.62013 c 0.84077,-0.7216 0.96277,-1.14435 0.21497,-0.74414 -0.73787,0.39489 -1.27952,0.36176 -0.86815,-0.0496 0.59386,-0.59386 0.35957,-1.06217 -0.24804,-0.4961 -0.3107,0.28946 -0.93435,0.70202 -1.38907,0.91779 -1.61647,0.76708 -5.97799,-0.27728 -5.97799,-1.43039 0,-0.23056 -0.14783,-0.56124 -0.32248,-0.73586 -0.21241,-0.21241 -0.21827,-0.31419 -0.0248,-0.31419 0.15906,0 0.35436,0.17833 0.43821,0.39687 0.0967,0.25204 0.47469,0.38394 1.02526,0.3638 0.47741,-0.0175 1.13606,0.0584 1.46346,0.16537 0.48906,0.15972 0.59531,0.0889 0.59531,-0.3638 v -0.54571 l 0.90123,0.52917 c 0.64786,0.38224 0.95543,0.45151 1.0914,0.23151 0.10421,-0.16861 0.0269,-0.41905 -0.17363,-0.55398 -0.31417,-0.21138 1.23031,-0.18318 2.28203,0.0413 0.14552,0.0311 0.53494,-0.0336 0.86815,-0.14056 0.55899,-0.17948 0.56912,-0.23359 0.1819,-0.66146 -0.38838,-0.42916 -0.36711,-0.47191 0.25632,-0.62839 0.76441,-0.19185 0.91678,-0.68709 0.21497,-0.70278 -0.29173,-0.007 -0.16936,-0.14251 0.33073,-0.37206 0.43656,-0.2004 1.14377,-0.654 1.57096,-1.00872 l 0.76894,-0.64493 -0.96737,-0.1819 c -0.53634,-0.10061 -0.97565,-0.29652 -0.97565,-0.4382 0,-0.1486 -0.30793,-0.18721 -0.72761,-0.0827 -0.63516,0.15819 -0.69146,0.13454 -0.39687,-0.22324 0.51085,-0.62045 -0.25015,-0.80979 -1.03352,-0.25632 -0.36663,0.25904 -1.16231,0.45167 -1.92648,0.46302 -1.0422,0.0155 -1.19073,-0.0368 -0.73586,-0.23978 0.51445,-0.22956 0.56533,-0.44524 0.33898,-1.45521 -0.0108,-0.0482 -0.41939,0.16011 -0.9095,0.46303 -0.49012,0.30291 -1.29379,0.54726 -1.78594,0.5457 -1.6496,-0.005 -4.48892,-1.10437 -6.29206,-2.43914 -0.69429,-0.51393 -0.54721,-0.62021 0.25632,-0.19017 0.41656,0.22293 0.51435,0.18602 0.52091,-0.19844 0.008,-0.45098 0.0206,-0.45569 0.28112,-0.008 0.15004,0.25772 0.38015,0.40433 0.51263,0.32247 0.13248,-0.0819 0.5416,0.0483 0.90951,0.2894 0.66172,0.43357 0.66571,0.42741 0.66971,-0.32247 0.002,-0.41693 0.0915,-0.62315 0.19844,-0.46302 0.23156,0.34679 1.23113,0.90122 1.62882,0.90122 0.15509,0 0.2997,-0.26789 0.3142,-0.59531 0.025,-0.5651 0.032,-0.56174 0.2067,0.0661 0.1012,0.36381 0.23972,0.60669 0.30591,0.54571 0.0662,-0.061 0.36815,0.0205 0.66972,0.1819 0.44706,0.23926 0.61616,0.20027 0.9095,-0.20671 0.19788,-0.27453 0.4622,-0.4327 0.58706,-0.35555 0.12486,0.0772 0.14464,-0.16706 0.0496,-0.5457 -0.16539,-0.65894 -0.14288,-0.67836 0.55398,-0.41341 0.86019,0.32703 1.12763,0.16483 0.66146,-0.39687 -0.2785,-0.33558 -0.25078,-0.39688 0.14056,-0.39688 0.44535,0 0.43924,-0.0281 0.008,-0.50435 -0.25032,-0.27659 -0.34227,-0.56941 -0.20671,-0.6532 0.13556,-0.0838 0.45424,0.08 0.71107,0.3638 0.40322,0.44556 0.66236,0.48551 1.68672,0.28112 0.0542,-0.0108 -0.0281,-0.17678 -0.19017,-0.37206 -0.3443,-0.41486 -0.14037,-0.70278 0.50435,-0.70278 0.25066,0 0.73959,-0.2347 1.08315,-0.52092 l 0.62838,-0.52091 -0.79375,-0.0496 c -0.43656,-0.0275 -1.0855,-0.0239 -1.43867,0.008 -0.55893,0.0509 -0.60153,0.002 -0.29765,-0.3638 0.57856,-0.69713 0.17123,-0.69506 -0.85165,0 -1.10913,0.75366 -1.7771,0.88498 -1.24851,0.24804 0.27961,-0.33692 0.26392,-0.37912 -0.0992,-0.23978 -0.50485,0.19374 -0.57843,-0.16569 -0.12402,-0.62013 0.67767,-0.67767 -0.0411,-0.57599 -0.87644,0.12403 -1.64454,1.37819 -1.84644,1.42195 -3.70416,0.85989 -1.94768,-0.58928 -3.25385,-1.32529 -3.64622,-2.05877 -0.24027,-0.44895 -0.18551,-0.5125 0.38862,-0.47956 0.36218,0.0208 0.71437,0.22279 0.78549,0.44649 0.0711,0.22369 0.38031,0.42343 0.68628,0.44648 0.44643,0.0336 0.52474,-0.0718 0.40513,-0.52917 -0.13266,-0.50726 -0.0768,-0.489 0.47127,0.14883 0.33867,0.39412 0.8785,0.71935 1.20716,0.71935 0.51877,0 0.58013,-0.10068 0.44649,-0.76893 -0.20028,-1.0014 0.42069,-1.27789 1.06659,-0.47128 0.44129,0.55105 1.92947,0.93811 1.93476,0.50435 10e-4,-0.10751 -0.38565,-0.51324 -0.85989,-0.9095 -0.6576,-0.54946 -0.74806,-0.72218 -0.38862,-0.72761 0.25923,-0.004 0.53668,0.16289 0.62013,0.38034 0.0835,0.21745 0.25185,0.33888 0.37205,0.26458 0.12021,-0.0743 0.28893,-0.0156 0.38034,0.1323 0.0914,0.14789 0.48514,0.27283 0.86815,0.27283 0.66665,0 0.67353,-0.0193 0.1819,-0.38034 -0.49535,-0.36372 -0.48688,-0.38719 0.23151,-0.66145 0.40966,-0.15639 0.88591,-0.28425 1.05834,-0.2894 0.17243,-0.005 0.0165,-0.17862 -0.34727,-0.38034 -0.64495,-0.35761 -0.63823,-0.36545 0.3638,-0.27284 0.64913,0.06 1.16666,-0.0422 1.4056,-0.28112 0.58164,-0.58163 0.16931,-0.90951 -1.14101,-0.90951 -0.73195,0 -1.12649,-0.10905 -1.02526,-0.27283 0.33332,-0.53933 -0.6435,-0.54854 -1.74461,-0.0165 -1.34948,0.65198 -1.59994,0.68506 -1.39732,0.1571 0.0957,-0.2493 -0.003,-0.39688 -0.26458,-0.39688 -0.26186,0 -0.36023,-0.14758 -0.26459,-0.39687 0.17811,-0.46414 0.0861,-0.48022 -0.78549,-0.14883 -0.56695,0.21555 -0.62942,0.182 -0.51263,-0.26459 0.13902,-0.5316 -0.30512,-0.71757 -0.59531,-0.24804 -0.0912,0.1476 -0.65151,0.52226 -1.24852,0.82682 -0.95964,0.48958 -1.20761,0.51377 -2.14974,0.23151 -0.87842,-0.26318 -0.99044,-0.36327 -0.62013,-0.57049 0.24709,-0.13828 0.45477,-0.43114 0.45477,-0.65321 0,-0.31319 -0.27118,-0.38777 -1.19888,-0.33073 -0.90255,0.0555 -1.31776,-0.0566 -1.70326,-0.44648 -0.58063,-0.58722 -1.14207,-2.68499 -0.77721,-2.91042 0.22561,-0.13943 0.35192,0.42431 0.25631,1.1493 -0.0245,0.18565 0.20842,0.6939 0.52091,1.13273 0.45347,0.63683 0.64643,0.73361 0.94258,0.48784 0.20408,-0.16937 0.38,-0.61809 0.39688,-1.00044 0.0243,-0.54973 0.0634,-0.5838 0.16536,-0.16537 0.20029,0.82214 0.88699,1.45521 1.57925,1.45521 0.54065,0 0.59068,-0.0733 0.35554,-0.51263 -0.34562,-0.64579 -0.3479,-0.88791 -0.008,-0.67799 0.14552,0.0899 0.26458,0.0384 0.26458,-0.11576 0,-0.15411 0.11907,-0.28112 0.26459,-0.28112 0.14551,0 0.26458,0.16673 0.26458,0.37206 0,0.47445 1.54588,1.79522 1.86862,1.59576 0.1332,-0.0823 0.24805,-0.37902 0.24805,-0.66146 -1e-5,-0.28245 0.11874,-0.51263 0.27283,-0.51263 0.1541,0 0.20974,-0.14883 0.11576,-0.33073 -0.094,-0.1819 0.0496,-0.0611 0.32247,0.27284 0.27288,0.33396 0.58722,0.52072 0.69453,0.41341 0.10732,-0.10732 0.45355,-0.23605 0.77722,-0.28112 0.71657,-0.0998 1.78594,-0.62717 1.78594,-0.88472 0,-0.10327 -0.3541,-0.33393 -0.7855,-0.51263 -0.4314,-0.1787 -0.7588,-0.46199 -0.7276,-0.62838 0.0316,-0.16864 -0.30472,-0.31597 -0.75243,-0.33073 -0.92559,-0.0305 -2.27269,-0.65905 -1.7694,-0.82682 0.18152,-0.0605 0.33073,-0.28168 0.33073,-0.48784 0,-0.41958 -1.32297,-0.52676 -1.73633,-0.14056 -0.39991,0.37364 -1.43867,0.61812 -1.43867,0.33898 0,-0.13955 0.30136,-0.32716 0.678,-0.42169 0.56425,-0.14162 0.62772,-0.24422 0.3638,-0.56224 -0.26117,-0.3147 -0.22203,-0.38174 0.1819,-0.38862 0.58939,-0.01 1.58477,-0.71382 1.34773,-0.95086 -0.0913,-0.0913 -0.71048,-0.22304 -1.37252,-0.29766 -1.32411,-0.14924 -1.31749,-0.14499 -0.92604,-0.87643 0.25385,-0.47432 0.31792,-0.48143 0.90122,-0.0992 0.58907,0.38598 0.63908,0.37283 0.80201,-0.14056 0.0958,-0.30168 0.28662,-0.48032 0.42169,-0.39687 0.13507,0.0834 0.24805,0.0301 0.24805,-0.12403 -1e-5,-0.15411 0.23812,-0.28112 0.52916,-0.28112 0.29104,0 0.52917,-0.16935 0.52917,-0.37205 0,-0.40455 -0.55912,-0.68628 -1.34774,-0.68628 -0.60068,0 -0.68151,-0.48569 -0.11575,-0.70279 0.21744,-0.0834 0.3398,-0.23892 0.27284,-0.34726 -0.067,-0.10834 0.17526,-0.35187 0.53742,-0.5457 0.89175,-0.47726 0.67114,-0.91779 -0.46302,-0.91779 h -0.9343 l 0.66971,-0.87643 c 0.52216,-0.68416 0.5918,-0.94076 0.33899,-1.19063 -0.25191,-0.24901 -0.50837,-0.11318 -1.19063,0.62839 -0.80896,0.87929 -0.89302,0.9131 -1.17408,0.46302 -0.16678,-0.26705 -0.4217,-0.47956 -0.56224,-0.47956 -0.31454,0 -1.15033,1.48048 -1.33118,2.36471 -0.13367,0.6536 -2.56891,2.74003 -2.93528,2.51355 -0.10437,-0.0645 -0.15579,-0.77084 -0.12403,-1.57097 0.0318,-0.80012 -0.0468,-1.45521 -0.17363,-1.45521 -0.12682,0 -0.19399,-0.43957 -0.14883,-0.97565 0.0685,-0.8133 0.20178,-1.01041 0.81857,-1.17409 0.63934,-0.16966 0.72078,-0.13194 0.58706,0.28941 -0.24136,0.76043 0.40402,0.95392 0.91778,0.27283 0.27163,-0.36009 0.52666,-0.49532 0.62839,-0.33072 0.18032,0.29175 1.23198,0.13753 1.23195,-0.18191 0,-0.2459 -1.31709,-1.47806 -1.54617,-1.44695 -0.0974,0.0132 -0.38362,-0.0331 -0.63664,-0.0992 -0.74657,-0.19523 -0.26098,-0.56719 0.52917,-0.40513 1.32627,0.27199 2.52177,0.22116 2.63758,-0.11575 0.0625,-0.1819 -0.0603,-0.33073 -0.27284,-0.33073 -0.21257,0 -0.53123,-0.1802 -0.71107,-0.39688 -0.17984,-0.21668 -0.4332,-0.32779 -0.56224,-0.24804 -0.12904,0.0797 -0.23193,0.0516 -0.23151,-0.0661 5.3e-4,-0.11773 0.35803,-0.4531 0.79375,-0.74414 0.80113,-0.53512 1.02116,-0.92604 0.52091,-0.92604 -0.48186,0 -2.21469,0.80139 -2.44739,1.13273 -0.1377,0.19609 -0.16428,0.0943 -0.0661,-0.25631 0.0882,-0.31517 0.0462,-0.64281 -0.091,-0.72761 -0.28797,-0.17798 -1.35599,1.52395 -1.35599,2.158 0,0.23421 -0.0789,0.35107 -0.17363,0.25631 -0.0948,-0.0948 -0.33888,0.0287 -0.53743,0.28112 -0.31458,0.39989 -0.34112,0.29168 -0.22324,-0.83508 0.10952,-1.0469 0.35804,-1.55776 1.32292,-2.6871 0.65548,-0.76724 1.19891,-1.56639 1.19888,-1.77769 0,-0.63582 -1.32948,-0.21775 -1.60404,0.50435 -0.43682,1.14898 -0.91757,0.75062 -0.81857,-0.67799 0.0723,-1.04249 -0.0217,-1.43624 -0.46302,-1.90998 l -0.55398,-0.58705 z m -1.79419,9.28529 c 0.12092,0.007 0.40846,0.23684 0.73586,0.60356 0.54401,0.60934 0.79375,1.15912 0.79375,1.76112 0,0.4831 -0.0503,0.88472 -0.10749,0.88472 -0.14228,0 -0.48326,-0.81984 -0.60357,-1.44696 -0.0544,-0.28342 -0.27302,-0.70522 -0.48784,-0.94258 -0.21481,-0.23735 -0.38859,-0.59708 -0.38862,-0.79375 0,-0.0492 0.0176,-0.0686 0.0579,-0.0661 z m -0.64493,3.8862 c 0.50343,0.0369 1.72445,0.87942 1.91823,1.38906 0.34468,0.90654 0.14881,1.07558 -0.44648,0.38034 -0.26104,-0.30488 -0.62119,-0.55399 -0.80201,-0.55399 -0.30636,0 -1.0288,-1.02317 -0.83507,-1.18237 0.0374,-0.0308 0.0934,-0.0383 0.16536,-0.0331 z m 7.2263,2.15799 c 0.0636,3.7e-4 0.14096,0.0115 0.22325,0.0331 0.4364,0.11413 0.33401,0.27125 -0.68628,1.05008 -0.66114,0.50464 -1.43502,0.93829 -1.71154,0.95912 -0.27651,0.0208 -0.49609,0.12522 -0.49609,0.23977 0,0.11456 -0.13375,0.21498 -0.2894,0.21498 -0.15565,0 -0.24495,-0.26795 -0.19844,-0.59531 0.0732,-0.5152 0.22437,-0.58735 1.08315,-0.51263 0.76348,0.0664 0.99219,-0.01 0.99219,-0.33073 0,-0.22943 0.1786,-0.41342 0.39687,-0.41342 0.21828,0 0.39688,-0.16741 0.39688,-0.37205 0,-0.17867 0.0985,-0.27395 0.2894,-0.27284 z m -3.06757,3.78672 0.62013,0.30591 c 0.34096,0.16611 0.90651,0.22846 1.25677,0.14056 0.36065,-0.0905 0.63666,-0.0452 0.63664,0.10748 0,0.1483 -0.11443,0.27284 -0.24805,0.27284 -0.13362,0 -0.41391,0.0614 -0.62013,0.14056 -0.20622,0.0791 -0.6573,-0.10779 -1.00872,-0.41341 l -0.63664,-0.55398 z m 2.90221,0.6532 c 0.0601,0.009 0.14851,0.0704 0.27284,0.17363 0.29575,0.24545 0.39687,0.24949 0.39687,0.0165 0,-0.17193 0.1301,-0.22759 0.29766,-0.12402 0.2111,0.13046 0.1559,0.29868 -0.1819,0.5457 -0.68149,0.49831 -0.90951,0.44423 -0.90951,-0.20671 0,-0.29323 0.024,-0.41989 0.12403,-0.40513 z m 3.98515,0.96737 c 0.22687,0 0.34626,0.11906 0.25632,0.26458 -0.21158,0.34235 -0.66146,0.34235 -0.66146,0 0,-0.14552 0.17827,-0.26458 0.40513,-0.26458 z m -6.22591,4.23333 c 0.14552,0 0.26459,0.59532 0.26459,1.32292 0,1.34141 -0.0399,1.45664 -0.35555,1.14101 -0.28176,-0.28175 -0.20086,-2.46393 0.0909,-2.46393 z m -2.01744,3.5306 c 0.0949,-0.016 0.16536,0.0415 0.16536,0.1571 0,0.15411 -0.11906,0.28112 -0.26458,0.28112 -0.33904,0 -0.33904,-0.18734 0,-0.39688 0.0364,-0.0225 0.0676,-0.036 0.0992,-0.0413 z m 2.1332,0.56224 c 0.0152,-0.001 0.0398,0.0214 0.0579,0.0661 0.0725,0.17913 0.0754,0.53631 0.008,0.79375 -0.0671,0.25744 -0.1269,0.1141 -0.13229,-0.32248 -0.004,-0.32742 0.0204,-0.53329 0.0661,-0.53742 z m -3.29089,0.14056 c 0.14552,0 0.26458,0.0516 0.26458,0.11576 0,0.0642 -0.11906,0.19118 -0.26458,0.28112 -0.14552,0.0899 -0.26458,0.0384 -0.26458,-0.11576 0,-0.15411 0.11906,-0.28112 0.26458,-0.28112 z m -1.32292,0.52917 c 0.14553,0 0.26459,0.0516 0.26459,0.11575 0,0.0642 -0.11906,0.19119 -0.26459,0.28112 -0.14552,0.0899 -0.26458,0.0384 -0.26458,-0.11575 0,-0.15411 0.11907,-0.28112 0.26458,-0.28112 z m -5.5065,0.008 c 0.1809,0.0178 0.4055,0.13721 0.57877,0.35555 0.53639,0.67591 1.4255,0.76563 1.91823,0.19017 0.43593,-0.50914 1.05781,-0.51578 0.74414,-0.008 -0.0837,0.13547 0.0298,0.24805 0.24805,0.24805 0.21827,0 0.47231,-0.11906 0.56224,-0.26458 0.21352,-0.34549 0.66146,-0.34758 0.66146,0 0,0.14912 -0.32742,0.40031 -0.72761,0.55398 -0.40018,0.15367 -1.40816,0.33859 -2.23242,0.41341 -1.31294,0.11918 -1.53424,0.0734 -1.78594,-0.39687 -0.15801,-0.29525 -0.28112,-0.66347 -0.28112,-0.81857 0,-0.20129 0.1333,-0.29064 0.3142,-0.27284 z m 24.27552,14.01472 c 0.15411,0 0.28112,0.11906 0.28112,0.26458 0,0.33904 -0.18734,0.33904 -0.39688,0 -0.0899,-0.14552 -0.0384,-0.26458 0.11576,-0.26458 z m -22.11758,3.175 c 0.16197,0 -0.15151,0.23812 -0.69453,0.52916 -0.96092,0.51502 -1.51308,0.6585 -1.5131,0.39688 0,-0.16425 1.81692,-0.92604 2.20763,-0.92604 z m 22.84518,11.30273 c 0.29149,-0.002 0.5814,0.029 0.76068,0.0992 0.3615,0.14158 0.18367,0.20182 -0.61185,0.21498 -0.61846,0.0102 -1.12448,-0.0269 -1.12448,-0.0827 0,-0.14037 0.48982,-0.22862 0.97565,-0.23151 z m 5.92005,1.43039 c 0.0919,-0.004 0.20216,0.0114 0.29766,0.0496 0.21107,0.0845 0.14287,0.1444 -0.16537,0.1571 -0.27892,0.0115 -0.43518,-0.0526 -0.34726,-0.14056 0.044,-0.044 0.12306,-0.0624 0.21497,-0.0661 z m 0.0661,6.58972 c 0.0119,-0.003 0.0314,0 0.0496,0 0.14552,0 0.44318,0.11525 0.66146,0.25631 0.21828,0.14106 0.27781,0.25631 0.13229,0.25632 -0.14552,0 -0.44318,-0.11525 -0.66146,-0.25632 -0.191,-0.12343 -0.26501,-0.2323 -0.1819,-0.25631 z m -46.08777,10.69075 c 0.12486,-0.0186 0.16047,0.0363 0.091,0.14883 -0.0889,0.14385 -0.26821,0.26458 -0.40513,0.26458 -0.38058,0 -0.30128,-0.19617 0.1571,-0.37206 0.0589,-0.0226 0.11547,-0.0351 0.15709,-0.0413 z m 4.27461,2.27378 0.60356,0.64492 0.59532,0.64492 0.45476,-0.69453 c 0.41376,-0.63146 0.47101,-0.64394 0.71107,-0.21498 0.19704,0.35209 0.31771,0.38079 0.47128,0.1323 0.1456,-0.2356 0.253,-0.16968 0.38033,0.23151 0.18083,0.5697 0.678,0.7951 0.678,0.30591 0,-0.14552 0.32742,-0.26548 0.7276,-0.26459 h 0.72761 l -0.79375,0.4217 c -0.51163,0.26977 -1.19653,0.36835 -1.91823,0.2894 -0.61582,-0.0674 -1.05437,-0.0116 -0.97565,0.11575 0.20861,0.33756 -0.18618,0.27599 -1.00044,-0.14882 -0.41561,-0.21683 -0.74391,-0.26528 -0.79375,-0.11576 -0.0471,0.14113 -0.30248,0.1741 -0.56224,0.0744 -0.43897,-0.16845 -0.42744,-0.22382 0.11575,-0.802 z m 6.15156,0.2894 c 0.0557,-2.7e-4 0.10938,5.3e-4 0.1571,0.0165 0.19816,0.0661 0.0767,0.18756 -0.28112,0.28112 -0.44011,0.11509 -0.54362,0.0806 -0.34727,-0.11575 0.11531,-0.11531 0.30424,-0.1808 0.47128,-0.1819 z m -2.68711,10.90586 c 0.0949,-0.016 0.16537,0.0415 0.16537,0.15709 0,0.15411 -0.11906,0.28112 -0.26459,0.28112 -0.33903,0 -0.33903,-0.18733 0,-0.39687 0.0364,-0.0225 0.0676,-0.036 0.0992,-0.0413 z"
       id="path4686"
       style="fill:#555555;fill-opacity:1;stroke-width:0.264583" />
  </g>
</svg>
