<?xml version="1.0" encoding="UTF-8" standalone="no"?>
<!-- Created with Inkscape (http://www.inkscape.org/) -->

<svg
   width="39.089607mm"
   height="101.90836mm"
   viewBox="0 0 39.089608 101.90835"
   version="1.1"
   id="svg8"
   xmlns="http://www.w3.org/2000/svg"
   xmlns:svg="http://www.w3.org/2000/svg"
   xmlns:rdf="http://www.w3.org/1999/02/22-rdf-syntax-ns#"
   xmlns:cc="http://creativecommons.org/ns#"
   xmlns:dc="http://purl.org/dc/elements/1.1/">
  <defs
     id="defs2" />
  <metadata
     id="metadata5">
    <rdf:RDF>
      <cc:Work
         rdf:about="">
        <dc:format>image/svg+xml</dc:format>
        <dc:type
           rdf:resource="http://purl.org/dc/dcmitype/StillImage" />
      </cc:Work>
    </rdf:RDF>
  </metadata>
  <g
     id="layer1"
     transform="translate(-592.92043,10.850506)"
     style="display:inline">
    <g
       aria-label="ETERNIDADE FUTURA"
       transform="rotate(-51.910488,540.58218,60.715437)"
       style="font-style:normal;font-variant:normal;font-weight:normal;font-stretch:normal;font-size:10.5833px;line-height:1.25;font-family:'Bitstream Charter';-inkscape-font-specification:'Bitstream Charter';letter-spacing:0px;word-spacing:0px;fill:#ffffff;fill-opacity:1;stroke:none;stroke-width:0.264583"
       id="text6203">
      <path
         d="m 624.92159,61.10926 -0.19394,5.446965 1.72399,0.06139 0.0196,-0.549985 -1.06184,-0.217839 -0.16395,-0.154098 0.10093,-2.834537 2.96145,0.105446 -0.0618,1.734568 -0.16392,0.142424 -0.76528,0.07865 -0.0177,0.497102 2.32686,0.08285 0.0177,-0.497101 -0.76833,-0.133258 -0.1428,-0.153345 0.0618,-1.734567 2.67589,0.09528 -0.087,2.443202 -0.16392,0.142424 -0.90429,0.116062 -0.0211,0.592291 1.54418,0.05498 0.18039,-5.066206 -0.42306,-0.01506 -0.0849,0.600609 -0.15447,0.17453 -5.82773,-0.207504 -0.14167,-0.185075 -0.0314,-0.604751 z"
         style="font-style:normal;font-variant:normal;font-weight:normal;font-stretch:normal;font-family:'Bitstream Charter';-inkscape-font-specification:'Bitstream Charter';fill:#ffffff;stroke-width:0.264583"
         id="path6825" />
      <path
         d="m 631.76274,67.796253 -1.62021,-0.176839 -0.0632,0.578647 0.96236,0.254084 0.14174,0.164517 -0.17684,1.620211 -5.94428,-0.648792 -0.12662,-0.205452 0.0243,-0.710639 -0.43136,-0.04708 -0.2997,2.745942 0.43135,0.04708 0.12954,-0.699156 0.16796,-0.173299 5.94428,0.648793 -0.17683,1.620211 -0.17389,0.130067 -0.99452,0.0405 -0.0632,0.578647 1.62021,0.176839 z"
         style="font-style:normal;font-variant:normal;font-weight:normal;font-stretch:normal;font-family:'Bitstream Charter';-inkscape-font-specification:'Bitstream Charter';fill:#ffffff;stroke-width:0.264583"
         id="path6827" />
      <path
         d="m 623.9678,73.490941 -0.98924,5.359892 1.69643,0.313099 0.0999,-0.541193 -1.01851,-0.370935 -0.13963,-0.176439 0.51479,-2.789225 2.91411,0.53784 -0.31502,1.706839 -0.183,0.116893 -0.76855,-0.03423 -0.0903,0.489155 2.28966,0.422588 0.0903,-0.489155 -0.74055,-0.244298 -0.11881,-0.172598 0.31502,-1.706839 2.63311,0.485977 -0.44371,2.404145 -0.18301,0.116893 -0.91153,-0.01757 -0.10757,0.582824 1.5195,0.280445 0.92009,-4.98522 -0.4163,-0.07684 -0.17193,0.581706 -0.17837,0.150037 -5.73456,-1.058393 -0.11305,-0.20382 0.0575,-0.602835 z"
         style="font-style:normal;font-variant:normal;font-weight:normal;font-stretch:normal;font-family:'Bitstream Charter';-inkscape-font-specification:'Bitstream Charter';fill:#ffffff;stroke-width:0.264583"
         id="path6829" />
      <path
         d="m 629.71137,81.311952 -0.40913,-0.108737 -0.21632,0.566699 -0.18941,0.135822 -5.63576,-1.497862 -0.097,-0.211939 0.10381,-0.596602 -0.41936,-0.111456 -0.64699,2.434322 0.41936,0.111457 0.20609,-0.569418 0.18941,-0.135822 2.43432,0.646989 c -0.0387,0.186827 -0.0747,0.363426 -0.11546,0.516849 -0.24738,0.930771 -0.61934,1.258993 -1.53145,1.312243 -0.7117,0.04081 -1.38741,-0.09497 -1.94748,0.281808 -0.26709,0.180881 -0.44885,0.493947 -0.57118,0.954218 -0.0625,0.23525 -0.0998,0.499111 -0.11998,0.822269 l 0.38867,0.103301 c 0.008,-0.03069 0.0163,-0.06137 0.0245,-0.09205 0.2066,-0.777347 0.41633,-1.072029 1.0796,-1.136663 0.52966,-0.05634 1.09493,0.08295 1.64155,-0.0784 0.3919,-0.114857 0.69912,-0.40553 0.96529,-0.871374 -0.0481,1.169893 0.37787,1.874451 1.2575,2.108237 1.25807,0.334369 2.05584,-0.318711 2.49623,-1.975687 z m -0.91632,1.552384 -0.13049,0.490956 c -0.33708,1.268302 -0.88886,1.778696 -1.9526,1.495978 -1.0126,-0.269126 -1.25655,-0.958155 -0.93034,-2.185544 0.0163,-0.06137 0.0652,-0.245478 0.15975,-0.559835 z"
         style="font-style:normal;font-variant:normal;font-weight:normal;font-stretch:normal;font-family:'Bitstream Charter';-inkscape-font-specification:'Bitstream Charter';fill:#ffffff;stroke-width:0.264583"
         id="path6831" />
      <path
         d="m 621.08957,86.060247 -0.75693,2.100884 0.40823,0.147082 0.29489,-0.568709 0.25375,-0.111063 4.9784,1.793677 -7.02224,1.755923 -0.23676,0.657149 6.0139,2.166761 0.11465,0.243795 -0.12563,0.629694 0.39827,0.143494 0.75335,-2.090928 -0.39827,-0.143494 -0.30486,0.565122 -0.24379,0.11465 -4.6797,-1.686056 6.32117,-1.558543 0.24892,0.08968 0.67442,-1.871879 -0.39827,-0.143494 -0.28933,0.615711 -0.20397,0.129 -5.40654,-1.947933 -0.12461,-0.247382 0.13918,-0.636064 z"
         style="font-style:normal;font-variant:normal;font-weight:normal;font-stretch:normal;font-family:'Bitstream Charter';-inkscape-font-specification:'Bitstream Charter';fill:#ffffff;stroke-width:0.264583"
         id="path6833" />
      <path
         d="m 618.42463,93.185907 -1.07075,2.454169 0.39771,0.173521 0.31936,-0.599657 0.20775,-0.105653 5.34485,2.331951 0.0639,0.224156 -0.21266,0.646211 0.38801,0.169288 1.07075,-2.454168 -0.38801,-0.169289 -0.32907,0.595424 -0.20775,0.105654 -5.34485,-2.331952 -0.0639,-0.224156 0.22236,-0.641978 z"
         style="font-style:normal;font-variant:normal;font-weight:normal;font-stretch:normal;font-family:'Bitstream Charter';-inkscape-font-specification:'Bitstream Charter';fill:#ffffff;stroke-width:0.264583"
         id="path6835" />
      <path
         d="m 622.21283,101.90596 1.19691,-2.323972 -0.37635,-0.193831 -0.33267,0.507226 -0.2141,0.09211 -5.18424,-2.670023 -0.0494,-0.227791 0.22917,-0.56053 -0.38576,-0.198676 -1.19691,2.323971 c -0.48458,0.94088 -0.74936,1.709246 -0.59902,2.596186 0.18599,1.07196 0.85264,1.92719 1.97228,2.50384 1.97585,1.01761 3.79159,0.38137 4.94004,-1.84851 z m -0.0306,-1.00384 -0.38282,0.7433 c -0.88678,1.72181 -2.20248,2.10369 -4.03719,1.15876 -1.82531,-0.94008 -2.29728,-2.24266 -1.4105,-3.964466 l 0.38281,-0.743295 z"
         style="font-style:normal;font-variant:normal;font-weight:normal;font-stretch:normal;font-family:'Bitstream Charter';-inkscape-font-specification:'Bitstream Charter';fill:#ffffff;stroke-width:0.264583"
         id="path6837" />
      <path
         d="m 618.37951,108.90203 -4.30122,-5.61475 0.21809,-0.58767 -0.36778,-0.23026 -1.10076,1.75818 0.36778,0.23026 0.4099,-0.55499 0.18174,-0.0111 1.31458,1.70958 -1.3254,2.11698 -2.11769,-0.42682 -0.0863,-0.14141 0.30335,-0.58424 -0.36778,-0.23026 -1.27486,2.03625 0.36778,0.23026 0.44461,-0.47082 6.96327,1.36282 z m -1.03174,-0.44617 -3.06323,-0.63173 1.13446,-1.812 z"
         style="font-style:normal;font-variant:normal;font-weight:normal;font-stretch:normal;font-family:'Bitstream Charter';-inkscape-font-specification:'Bitstream Charter';fill:#ffffff;stroke-width:0.264583"
         id="path6839" />
      <path
         d="m 614.21161,114.90927 1.5671,-2.09228 -0.33883,-0.25378 -0.41246,0.44477 -0.22645,0.0552 -4.66739,-3.49584 -0.0107,-0.23283 0.31928,-0.51456 -0.3473,-0.26012 -1.5671,2.09228 c -0.63445,0.84707 -1.02346,1.56064 -1.02288,2.46022 0.005,1.08797 0.5199,2.04225 1.52792,2.79725 1.77886,1.33235 3.67519,1.00728 5.17884,-1.00029 z m 0.13694,-0.99492 -0.50122,0.66919 c -1.16105,1.55015 -2.52196,1.70766 -4.17376,0.47047 -1.64333,-1.23083 -1.89186,-2.59381 -0.73081,-4.14396 l 0.50122,-0.66919 z"
         style="font-style:normal;font-variant:normal;font-weight:normal;font-stretch:normal;font-family:'Bitstream Charter';-inkscape-font-specification:'Bitstream Charter';fill:#ffffff;stroke-width:0.264583"
         id="path6841" />
      <path
         d="m 605.65286,114.40279 -3.60298,4.08969 1.29441,1.14036 0.36379,-0.41294 -0.68312,-0.8416 -0.0291,-0.22311 1.87494,-2.12823 2.22353,1.9589 -1.14736,1.30235 -0.21706,0.006 -0.64173,-0.4243 -0.32881,0.37323 1.74705,1.53914 0.32882,-0.37324 -0.50975,-0.59012 -0.0132,-0.20912 1.14736,-1.30235 2.00911,1.77001 -1.61609,1.8344 -0.21707,0.006 -0.77294,-0.48349 -0.39178,0.4447 1.15941,1.02143 3.35112,-3.80381 -0.31765,-0.27985 -0.44642,0.41067 -0.23011,0.0371 -4.37557,-3.85484 0.008,-0.23295 0.35907,-0.48762 z"
         style="font-style:normal;font-variant:normal;font-weight:normal;font-stretch:normal;font-family:'Bitstream Charter';-inkscape-font-specification:'Bitstream Charter';fill:#ffffff;stroke-width:0.264583"
         id="path6843" />
      <path
         d="m 599.53312,121.04664 -1.96147,1.80708 0.29401,0.31913 0.58849,-0.47022 0.23272,-0.0129 1.83576,1.9926 -1.27651,1.17604 -0.21653,-0.0164 -0.60132,-0.49649 -0.36582,0.33703 1.58478,1.72017 0.36583,-0.33703 -0.44565,-0.63991 0.009,-0.20937 1.27651,-1.17603 1.88596,2.04708 -1.75131,1.61347 -0.20875,-0.0235 -0.79799,-0.63188 -0.4281,0.3944 1.11867,1.21424 3.73612,-3.44206 -0.28684,-0.31134 -0.54896,0.41941 -0.23271,0.0129 -3.9512,-4.28875 0.0319,-0.23088 0.40781,-0.44766 z"
         style="font-style:normal;font-variant:normal;font-weight:normal;font-stretch:normal;font-family:'Bitstream Charter';-inkscape-font-specification:'Bitstream Charter';fill:#ffffff;stroke-width:0.264583"
         id="path6845" />
      <path
         d="m 599.81612,130.42865 -0.26208,-0.33245 -0.51306,0.32359 -0.23302,-0.005 -2.4308,-3.0835 c -0.48485,-0.61504 -0.88676,-1.0394 -1.51885,-1.17451 -0.61722,-0.13334 -1.42882,0.10217 -2.2184,0.72461 -0.78957,0.62244 -1.20805,1.35663 -1.22249,1.98792 -0.0162,0.64616 0.30916,1.14436 0.78746,1.75108 l 2.38493,3.02533 -0.0317,0.26754 -0.43971,0.46792 0.26208,0.33245 1.75369,-1.38247 -0.26208,-0.33245 -0.55765,0.31831 -0.27585,-0.0251 -2.32596,-2.95052 c -0.89108,-1.13034 -0.87166,-1.99466 0.17556,-2.82021 1.06385,-0.83866 1.90051,-0.6492 2.79158,0.48114 l 2.37183,3.0087 -0.0579,0.2343 -0.47599,0.45609 0.26208,0.33245 z"
         style="font-style:normal;font-variant:normal;font-weight:normal;font-stretch:normal;font-family:'Bitstream Charter';-inkscape-font-specification:'Bitstream Charter';fill:#ffffff;stroke-width:0.264583"
         id="path6847" />
      <path
         d="m 593.64066,135.22403 -0.90237,-1.35723 -0.48473,0.32227 0.42155,0.90166 -0.0355,0.21423 -1.35723,0.90237 -3.31064,-4.97946 0.0766,-0.22886 0.56119,-0.43665 -0.24024,-0.36134 -2.30025,1.52934 0.24024,0.36134 0.61978,-0.34852 0.24067,0.0179 3.31065,4.97946 -1.35724,0.90237 -0.21128,-0.0502 -0.66832,-0.7376 -0.48473,0.32228 0.90238,1.35723 z"
         style="font-style:normal;font-variant:normal;font-weight:normal;font-stretch:normal;font-family:'Bitstream Charter';-inkscape-font-specification:'Bitstream Charter';fill:#ffffff;stroke-width:0.264583"
         id="path6849" />
      <path
         d="m 587.7985,139.07921 -0.20505,-0.37036 -0.55852,0.23665 -0.22917,-0.0425 -1.90187,-3.43506 c -0.37934,-0.68516 -0.70759,-1.16877 -1.30962,-1.40401 -0.58765,-0.23111 -1.4266,-0.12953 -2.3062,0.35747 -0.8796,0.487 -1.41097,1.14412 -1.527,1.76483 -0.12016,0.63509 0.12062,1.17922 0.49484,1.85513 l 1.86599,3.37025 -0.0744,0.25893 -0.5094,0.39091 0.20505,0.37036 1.95364,-1.08166 -0.20506,-0.37036 -0.60167,0.22425 -0.26819,-0.0693 -1.81985,-3.28692 c -0.69718,-1.25921 -0.53867,-2.10909 0.62795,-2.75501 1.18514,-0.65617 1.98031,-0.3343 2.67749,0.92492 l 1.85573,3.35173 -0.0949,0.2219 -0.5433,0.37338 0.20505,0.37036 z"
         style="font-style:normal;font-variant:normal;font-weight:normal;font-stretch:normal;font-family:'Bitstream Charter';-inkscape-font-specification:'Bitstream Charter';fill:#ffffff;stroke-width:0.264583"
         id="path6851" />
      <path
         d="m 580.74675,142.90905 -0.17308,-0.38633 -0.57649,0.18868 -0.22477,-0.0617 -2.38413,-5.32178 0.10361,-0.20877 0.5289,-0.29493 -0.17741,-0.39599 -2.2987,1.0298 0.17741,0.396 0.57216,-0.19835 0.22477,0.0617 1.02981,2.2987 c -0.16953,0.0876 -0.32939,0.17076 -0.47427,0.23567 -0.87891,0.39375 -1.36809,0.31138 -1.98368,-0.36378 -0.47974,-0.52728 -0.79963,-1.13776 -1.44496,-1.33573 -0.30868,-0.0936 -0.66635,-0.0378 -1.10098,0.15693 -0.22214,0.0995 -0.45062,0.23667 -0.71441,0.42443 l 0.16442,0.36701 c 0.029,-0.013 0.058,-0.026 0.0869,-0.0389 0.73404,-0.32884 1.09503,-0.3514 1.56281,0.12325 0.37721,0.37606 0.62485,0.90294 1.09433,1.22608 0.33595,0.23219 0.7552,0.2879 1.28472,0.20144 -0.93926,0.69911 -1.21851,1.47363 -0.8464,2.30425 0.53222,1.18799 1.54186,1.39669 3.10652,0.69573 z m -1.78302,0.26533 -0.4636,0.20769 c -1.19764,0.53654 -1.94157,0.42914 -2.39157,-0.57534 -0.42837,-0.95618 -0.0466,-1.57949 1.11242,-2.09872 0.0579,-0.026 0.2318,-0.10385 0.53554,-0.22832 z"
         style="font-style:normal;font-variant:normal;font-weight:normal;font-stretch:normal;font-family:'Bitstream Charter';-inkscape-font-specification:'Bitstream Charter';fill:#ffffff;stroke-width:0.264583"
         id="path6853" />
      <path
         d="m 571.47625,146.8598 0.12582,-7.07178 0.53637,-0.3244 -0.14468,-0.40909 -1.95563,0.69163 0.14467,0.40909 0.6662,-0.17948 0.14918,0.1044 -0.0344,2.15629 -2.35475,0.83277 -1.39237,-1.65168 0.0204,-0.16439 0.60097,-0.26867 -0.14467,-0.40909 -2.26495,0.80101 0.14468,0.40909 0.64101,-0.092 4.60362,5.39918 z m -0.53016,-0.99121 -2.00516,-2.40037 2.01551,-0.7128 z"
         style="font-style:normal;font-variant:normal;font-weight:normal;font-stretch:normal;font-family:'Bitstream Charter';-inkscape-font-specification:'Bitstream Charter';fill:#ffffff;stroke-width:0.264583"
         id="path6855" />
    </g>
  </g>
</svg>
